<?xml version="1.0" encoding="UTF-8" standalone="no"?>
<svg width="25px" height="25px" viewBox="0 0 25 25" version="1.1" xmlns="http://www.w3.org/2000/svg" xmlns:xlink="http://www.w3.org/1999/xlink">
    <!-- Generator: Sketch 42 (36781) - http://www.bohemiancoding.com/sketch -->
    <title>barcelona</title>
    <desc>Created with Sketch.</desc>
    <defs></defs>
    <g id="Page-1" stroke="none" stroke-width="1" fill="none" fill-rule="evenodd">
        <g id="fixtures" transform="translate(-73.000000, -283.000000)">
            <g id="row_1" transform="translate(10.000000, 272.000000)">
                <g id="barcelona" transform="translate(63.000000, 11.000000)">
                    <path d="M15.7965318,0.344075145 C14.6565029,1.13540462 13.5575145,1.50404624 12.3380058,1.50404624 C11.1184971,1.50404624 10.0193642,1.13540462 8.87933526,0.344075145 L8.58222543,0.137861272 L8.28092486,0.337572254 C6.99248555,1.19075145 5.94552023,1.34682081 4.34812139,1.34682081 C3.79725434,1.34682081 3.20520231,1.24277457 2.63569364,1.04624277 L2.25635838,0.91517341 L2.02557803,1.24349711 C1.90274566,1.41806358 1.81156069,1.52890173 1.7234104,1.63612717 C1.61473988,1.76820809 1.51213873,1.89306358 1.39176301,2.0867052 L1.19869942,2.39696532 L1.4183526,2.68887283 C2.39465318,3.98627168 2.76300578,5.32109827 2.76300578,6.57745665 C2.76300578,8.92052023 1.48193642,10.9907514 0.472976879,12.0378613 L0.109537572,12.4150289 L0.480346821,12.7851156 C0.679190751,12.983526 1.03352601,13.3513006 1.32644509,13.659104 C1.32557803,13.6710983 1.31473988,13.8206647 1.31473988,13.8206647 L1.31213873,13.85 C1.3,14.0776012 1.29393064,14.3017341 1.29393064,14.5223988 C1.29393064,16.9017341 1.99725434,18.8800578 3.38901734,20.4101156 C5.00057803,22.1816474 7.52008671,23.2391618 10.4978324,23.4039017 C11.2372832,24.0773121 11.9887283,24.6362717 12.0223988,24.6612717 L12.3407514,24.8973988 L12.6586705,24.6605491 C12.692052,24.6355491 13.4394509,24.0768786 14.1780347,23.4039017 C17.1557803,23.2391618 19.6754335,22.1816474 21.2868497,20.4101156 C22.6784682,18.8800578 23.3819364,16.9017341 23.3819364,14.5225434 C23.3819364,14.3018786 23.3758671,14.0777457 23.3635838,13.85 L23.3632948,13.8447977 L23.3606936,13.8156069 C23.3606936,13.8156069 23.3501445,13.6710983 23.349422,13.6592486 C23.6206647,13.3741329 23.9864162,12.9937861 24.1955202,12.7849711 L24.566185,12.4150289 L24.2027457,12.0378613 C23.1939306,10.9907514 21.9128613,8.92023121 21.9128613,6.57731214 C21.9128613,5.32095376 22.2812139,3.98612717 23.2573699,2.68887283 L23.4768786,2.39710983 L23.284104,2.08699422 C23.1635838,1.89306358 23.0609827,1.76820809 22.9523121,1.63612717 C22.8643064,1.52890173 22.7731214,1.41806358 22.6504335,1.24349711 L22.4196532,0.91517341 L22.0403179,1.04624277 C21.4706647,1.24277457 20.8786127,1.34682081 20.3278902,1.34682081 C18.7303468,1.34682081 17.6833815,1.19075145 16.3949422,0.337572254 L16.0934971,0.137861272 L15.7965318,0.344075145" id="Fill-2" fill="#1A1918"></path>
                    <path d="M12.3400289,24.2330925 C12.3400289,24.2330925 11.4888728,23.6017341 10.7197977,22.8833815 C5.68916185,22.6748555 1.52644509,19.8537572 1.84450867,13.8783237 C1.8632948,13.7208092 1.84739884,13.7313584 1.87471098,13.4624277 C1.58627168,13.1572254 1.10895954,12.6592486 0.856936416,12.4078035 C2.66141618,10.5352601 4.76705202,6.25216763 1.84436416,2.3683526 C2.03656069,2.05939306 2.17572254,1.95693642 2.4617052,1.55014451 C3.04580925,1.7517341 3.69552023,1.87991329 4.34812139,1.87991329 C6.02398844,1.87991329 7.1683526,1.71358382 8.57528902,0.781936416 C9.68757225,1.55404624 10.8937861,2.03713873 12.3380058,2.03713873 C13.7823699,2.03713873 14.9884393,1.55404624 16.100578,0.781936416 C17.5073699,1.71358382 18.6517341,1.87991329 20.3278902,1.87991329 C20.9803468,1.87991329 21.6300578,1.7517341 22.2143064,1.55014451 C22.500289,1.95693642 22.6393064,2.05939306 22.8313584,2.3683526 C19.9089595,6.25216763 22.0145954,10.5352601 23.8189306,12.4078035 C23.5669075,12.6592486 23.0895954,13.1572254 22.8011561,13.4624277 C22.8283237,13.7313584 22.8125723,13.7208092 22.8312139,13.8783237 C23.149422,19.8537572 18.9865607,22.6748555 13.9560694,22.8833815 C13.1869942,23.6017341 12.3400289,24.2330925 12.3400289,24.2330925" id="Fill-3" fill="#D6AE22"></path>
                    <path d="M2.79884393,13.5219653 L2.72789017,13.5219653 L2.69754335,13.7789017 L2.67572254,13.9445087 C2.5583815,16.2462428 3.13222543,18.1057803 4.38106936,19.475578 C5.81358382,21.0468208 8.13424855,21.942052 11.0924855,22.0645954 C11.0953757,22.0647399 11.142052,22.0650289 11.142052,22.0650289 C12.0296243,22.0697977 12.8680636,22.074422 13.5812139,22.0647399 C16.5416185,21.942052 18.8622832,21.0468208 20.2947977,19.475578 C21.5436416,18.1057803 22.1174855,16.2463873 22.0004335,13.9486994 C22,13.9446532 21.9781792,13.7781792 21.9781792,13.7781792 L21.9481214,13.525 L21.8768786,13.5219653 L2.79884393,13.5219653" id="Fill-4" fill="#1A1918"></path>
                    <path d="M2.86979769,13.6816474 C2.86300578,13.7390173 2.85534682,13.8036127 2.85534682,13.8036127 C2.85534682,13.8036127 2.83526012,13.9569364 2.8349711,13.9569364 C2.82514451,14.1488439 2.82023121,14.3375723 2.82023121,14.5231214 C2.82023121,16.516763 3.38381503,18.1446532 4.49913295,19.3679191 C4.76575145,19.6602601 5.06416185,19.9287572 5.39248555,20.1725434 L5.39248555,13.6816474 L2.86979769,13.6816474" id="Fill-5" fill="#054A89"></path>
                    <path d="M21.8410405,13.9611272 L21.8203757,13.8028902 C21.8203757,13.8028902 21.8127168,13.7385838 21.8059249,13.6816474 L19.283237,13.6816474 L19.283237,20.1725434 C19.6117052,19.9287572 19.9101156,19.6602601 20.1765896,19.3679191 C21.292052,18.1443642 21.8557803,16.516185 21.8557803,14.5251445 C21.8557803,14.3403179 21.8508671,14.1521676 21.8410405,13.9611272" id="Fill-6" fill="#054A89"></path>
                    <path d="M8.17066474,13.6816474 L5.39248555,13.6816474 L5.39248555,20.1725434 C6.16127168,20.7439306 7.09479769,21.1802023 8.17066474,21.4741329 L8.17066474,13.6816474" id="Fill-7" fill="#8E2242"></path>
                    <path d="M16.5052023,13.6816474 L16.5052023,21.4739884 C17.5813584,21.1800578 18.5147399,20.7437861 19.283237,20.1725434 L19.283237,13.6816474 L16.5052023,13.6816474" id="Fill-8" fill="#8E2242"></path>
                    <path d="M9.67485549,17.6796243 C9.67485549,16.7180636 10.1848266,15.875578 10.9488439,15.4075145 L10.9488439,13.6816474 L8.17066474,13.6816474 L8.17066474,21.4741329 C9.01286127,21.7041908 9.94248555,21.8466763 10.9488439,21.8975434 L10.9488439,19.9520231 C10.1848266,19.483815 9.67485549,18.6413295 9.67485549,17.6796243" id="Fill-9" fill="#054A89"></path>
                    <path d="M13.7270231,13.6816474 L13.7270231,15.4075145 C14.4910405,15.875578 15.0008671,16.7180636 15.0008671,17.6796243 C15.0008671,18.6413295 14.4910405,19.483815 13.7270231,19.9520231 L13.7270231,21.8975434 C14.733526,21.8463873 15.6630058,21.7040462 16.5052023,21.4739884 L16.5052023,13.6816474 L13.7270231,13.6816474" id="Fill-10" fill="#054A89"></path>
                    <path d="M13.7270231,15.4075145 L13.7270231,13.6816474 L10.9488439,13.6816474 L10.9488439,15.4075145 C11.3533237,15.1596821 11.8287572,15.0166185 12.3378613,15.0166185 C12.8468208,15.0166185 13.3225434,15.1596821 13.7270231,15.4075145" id="Fill-11" fill="#8E2242"></path>
                    <path d="M10.9488439,19.9520231 L10.9488439,21.8975434 C10.9978324,21.9 11.0466763,21.9028902 11.0962428,21.9049133 L11.1429191,21.9052023 C12.0297688,21.9099711 12.867341,21.9145954 13.5767341,21.9049133 C13.6271676,21.9028902 13.6768786,21.9 13.7270231,21.8975434 L13.7270231,19.9520231 C13.3225434,20.199711 12.8468208,20.3427746 12.3378613,20.3427746 C11.8287572,20.3427746 11.3533237,20.199711 10.9488439,19.9520231" id="Fill-12" fill="#8E2242"></path>
                    <path d="M10.9789017,18.1628613 C10.4969653,17.7239884 10.4955202,16.8322254 10.625,16.2398844 C10.6608382,16.075 10.7063584,15.9134393 10.7528902,15.7290462 C10.1864162,16.1897399 9.82456647,16.8924855 9.82456647,17.6796243 C9.82456647,18.0130058 9.88930636,18.3309249 10.0070809,18.6219653 C10.0498555,18.6276012 10.0933526,18.6306358 10.1375723,18.6306358 C10.5098266,18.6306358 10.8137283,18.4586705 10.9789017,18.1628613" id="Fill-13" fill="#D6AE22"></path>
                    <path d="M13.5663295,18.3552023 C13.4839595,18.7764451 13.033526,19.0921965 12.6089595,19.3452312 C12.1715318,19.6062139 11.466185,19.7410405 10.9352601,19.7656069 C11.3358382,20.0355491 11.8184971,20.1932081 12.3378613,20.1932081 C13.2856936,20.1932081 14.1109827,19.6683526 14.5390173,18.8936416 C14.4640173,18.2735549 13.8745665,18.2007225 13.5663295,18.3552023" id="Fill-14" fill="#D6AE22"></path>
                    <path d="M10.7403179,19.6200867 C11.2645954,19.6241329 12.0705202,19.4921965 12.5323699,19.216763 C13.1293353,18.8605491 13.5932081,18.4804913 13.3728324,17.9534682 C13.2614162,17.6871387 12.8913295,17.3790462 12.4111272,17.7189306 C12.3804913,18.1122832 11.8949422,18.4592486 11.5462428,18.4145954 C11.3696532,18.3919075 11.2216763,18.3361272 11.0982659,18.2554913 C10.9023121,18.5901734 10.5515896,18.7802023 10.1375723,18.7802023 C10.117341,18.7802023 10.0969653,18.7796243 10.0768786,18.7786127 C10.2356936,19.1049133 10.4630058,19.391474 10.7403179,19.6200867" id="Fill-15" fill="#D6AE22"></path>
                    <path d="M12.3313584,16.1134393 C12.7471098,15.9410405 13.3232659,16.1650289 13.7622832,16.4102601 C14.1767341,16.641763 14.6095376,17.0739884 14.8468208,17.5277457 C14.7686416,16.217341 13.6867052,15.1776012 12.3595376,15.1663295 C11.9630058,15.4267341 12.0171965,15.9177746 12.3313584,16.1134393" id="Fill-16" fill="#D6AE22"></path>
                    <path d="M12.2611272,17.717052 C11.7465318,17.341763 11.7780347,16.7510116 11.9995665,16.4001445 C12.0537572,16.3141618 12.117052,16.2465318 12.1874277,16.1946532 C11.8881503,15.9557803 11.8281792,15.4924855 12.1180636,15.1757225 C11.6849711,15.2134393 11.2830925,15.3606936 10.9407514,15.5901734 C10.8309249,16.0621387 10.6913295,16.4932081 10.6982659,16.9862717 C10.707659,17.6507225 10.982659,18.191474 11.5653179,18.266185 C11.8372832,18.3010116 12.2296243,18.0117052 12.2611272,17.717052" id="Fill-17" fill="#D6AE22"></path>
                    <path d="M14.8407514,17.9108382 C14.6973988,17.390896 14.1817919,16.8160405 13.6893064,16.540896 C13.0822254,16.2017341 12.4180636,16.017341 12.1260116,16.4802023 C11.9384393,16.7771676 11.9124277,17.2677746 12.3377168,17.5875723 C12.9157514,17.1884393 13.3773121,17.5765896 13.5108382,17.8958092 C13.5536127,17.9981214 13.575289,18.0952312 13.5790462,18.1878613 C13.9200867,18.0679191 14.474711,18.1450867 14.6455202,18.6776012 C14.7486994,18.4388728 14.816185,18.1810694 14.8407514,17.9108382" id="Fill-18" fill="#D6AE22"></path>
                    <path d="M10.0466763,10.624422 L8.28988439,10.624422 L8.28988439,13.0946532 L8.82514451,13.0946532 L8.82514451,12.0754335 L9.55419075,12.0754335 L9.55419075,11.5537572 L8.82514451,11.5537572 L8.82514451,11.1492775 L10.0725434,11.1492775 L10.0725434,10.624422 L10.0466763,10.624422" id="Fill-19" fill="#1A1918"></path>
                    <path d="M11.0684971,11.8595376 C11.0684971,12.632948 11.4936416,13.132659 12.1514451,13.132659 C12.5803468,13.132659 12.8893064,12.9440751 13.0695087,12.5722543 L13.0799133,12.5508671 L12.6297688,12.2836705 L12.616474,12.3059249 C12.4881503,12.5208092 12.3657514,12.6007225 12.1653179,12.6007225 C11.8377168,12.6007225 11.6174855,12.3028902 11.6174855,11.8595376 C11.6174855,11.4023121 11.8261561,11.1182081 12.1618497,11.1182081 C12.3567919,11.1182081 12.4940751,11.199711 12.5810694,11.367052 L12.5924855,11.3888728 L13.0880058,11.1601156 L13.0765896,11.1364162 C12.9024566,10.7765896 12.5885838,10.5864162 12.1686416,10.5864162 C11.5209538,10.5864162 11.0684971,11.1098266 11.0684971,11.8595376" id="Fill-20" fill="#1A1918"></path>
                    <path d="M16.0657514,11.7566474 C16.2153179,11.650578 16.3031792,11.484104 16.3031792,11.2893064 C16.3031792,10.8729769 16.0066474,10.624422 15.5102601,10.624422 L14.3754335,10.624422 L14.3754335,13.0946532 L15.4998555,13.0946532 C16.0546243,13.0946532 16.3858382,12.7930636 16.3858382,12.2878613 C16.3858382,12.0514451 16.2677746,11.8618497 16.0657514,11.7566474 Z M14.900289,11.1216763 L15.4894509,11.1216763 C15.7299133,11.1216763 15.7606936,11.2316474 15.7606936,11.3273121 C15.7606936,11.4635838 15.6799133,11.5296243 15.5135838,11.5296243 L14.900289,11.5296243 L14.900289,11.1216763 Z M15.517052,12.583526 L14.900289,12.583526 L14.900289,12.0096821 L15.517052,12.0096821 C15.7352601,12.0096821 15.8368497,12.100289 15.8368497,12.2949422 C15.8368497,12.4836705 15.7263006,12.583526 15.517052,12.583526 L15.517052,12.583526 Z" id="Fill-21" fill="#1A1918"></path>
                    <path d="M16.0729769,1.79320809 C14.8761561,2.51719653 13.6543353,2.86965318 12.3377168,2.87066474 C11.0213873,2.86965318 9.79956647,2.51719653 8.60274566,1.79320809 L8.56271676,1.76907514 L8.52210983,1.79205202 C7.15867052,2.56257225 5.95910405,2.7132948 4.34783237,2.7132948 C3.96054913,2.7132948 3.56112717,2.67427746 3.16040462,2.59768786 L2.98757225,2.56459538 L3.07644509,2.71632948 C4.73179191,5.54913295 4.14407514,8.28800578 3.35968208,10.0867052 L3.31083815,10.1986994 L21.3648844,10.1986994 L21.3160405,10.0867052 C20.5316474,8.28800578 19.9439306,5.54913295 21.5992775,2.71632948 L21.6880058,2.56459538 L21.5153179,2.59768786 C21.1145954,2.67427746 20.7150289,2.7132948 20.3278902,2.7132948 C18.7166185,2.7132948 17.517052,2.56257225 16.1536127,1.79205202 L16.1130058,1.76907514 L16.0729769,1.79320809" id="Fill-22" fill="#1A1918"></path>
                    <path d="M6.80057803,2.64508671 C6.04436416,2.82456647 5.26083815,2.87297688 4.34783237,2.87297688 C4.00260116,2.87297688 3.64754335,2.83728324 3.29104046,2.77774566 C3.71401734,3.53410405 3.98309249,4.28251445 4.13569364,5.00780347 L6.80057803,5.00780347 L6.80057803,2.64508671" id="Fill-23" fill="#FFFFFF"></path>
                    <path d="M12.257948,5.00780347 L12.257948,3.02904624 C11.3018786,3.01806358 10.3946532,2.82398844 9.51054913,2.44118497 L9.51054913,5.00780347 L12.257948,5.00780347" id="Fill-24" fill="#FFFFFF"></path>
                    <path d="M4.21141618,7.71791908 C4.08554913,8.58526012 3.83439306,9.37153179 3.55231214,10.0387283 L6.80057803,10.0387283 L6.80057803,7.71791908 L4.21141618,7.71791908" id="Fill-25" fill="#FFFFFF"></path>
                    <path d="M9.51054913,10.0387283 L12.257948,10.0387283 L12.257948,7.71791908 L9.51054913,7.71791908 L9.51054913,10.0387283" id="Fill-26" fill="#FFFFFF"></path>
                    <path d="M9.51054913,5.00780347 L9.51054913,2.44118497 C9.19089595,2.30289017 8.87442197,2.14060694 8.55968208,1.95231214 C7.95809249,2.28771676 7.38757225,2.50578035 6.80057803,2.64508671 L6.80057803,5.00780347 L4.13569364,5.00780347 C4.24725434,5.53843931 4.29682081,6.05679191 4.29682081,6.55650289 C4.29682081,6.95679191 4.26546243,7.34465318 4.21141618,7.71791908 L6.80057803,7.71791908 L6.80057803,10.0387283 L9.51054913,10.0387283 L9.51054913,7.71791908 L12.257948,7.71791908 L12.257948,5.00780347 L9.51054913,5.00780347" id="Fill-27" fill="#D0383F"></path>
                    <path d="M16.1160405,1.95231214 C16.1147399,1.95317919 16.1134393,1.95375723 16.1121387,1.95462428 L16.1121387,10.0387283 L17.0647399,10.0387283 L17.0647399,2.39580925 C16.7526012,2.27745665 16.4387283,2.13236994 16.1160405,1.95231214" id="Fill-28" fill="#FFDD31"></path>
                    <path d="M14.2067919,2.77919075 L14.2067919,10.0387283 L15.1593931,10.0387283 L15.1593931,2.44364162 C14.8452312,2.57933526 14.5280347,2.69104046 14.2067919,2.77919075" id="Fill-29" fill="#FFDD31"></path>
                    <path d="M12.4177746,3.02904624 L12.4177746,10.0387283 L13.2541908,10.0387283 L13.2541908,2.97023121 C12.9791908,3.00549133 12.7007225,3.02572254 12.4177746,3.02904624" id="Fill-30" fill="#FFDD31"></path>
                    <path d="M18.0174855,2.67615607 L18.0174855,10.0387283 L18.9700867,10.0387283 L18.9700867,2.81936416 C18.6424855,2.78887283 18.3271676,2.74263006 18.0174855,2.67615607" id="Fill-31" fill="#FFDD31"></path>
                    <path d="M20.3789017,6.55650289 C20.3789017,5.37384393 20.6523121,4.08728324 21.3846821,2.77774566 C21.0281792,2.83728324 20.6731214,2.87297688 20.3278902,2.87297688 C20.1895954,2.87297688 20.0554913,2.87138728 19.9226879,2.86893064 L19.9226879,10.0387283 L21.1234104,10.0387283 C20.7199422,9.08439306 20.3789017,7.88728324 20.3789017,6.55650289" id="Fill-32" fill="#FFDD31"></path>
                    <path d="M18.9700867,2.81936416 L18.9700867,10.0387283 L19.9226879,10.0387283 L19.9226879,2.86893064 C19.5907514,2.86257225 19.2748555,2.84754335 18.9700867,2.81936416" id="Fill-33" fill="#D0383F"></path>
                    <path d="M13.2541908,2.97023121 L13.2541908,10.0387283 L14.2067919,10.0387283 L14.2067919,2.77919075 C13.8934971,2.86517341 13.5763006,2.92890173 13.2541908,2.97023121" id="Fill-34" fill="#D0383F"></path>
                    <path d="M15.1593931,2.44364162 L15.1593931,10.0387283 L16.1121387,10.0387283 L16.1121387,1.95462428 C15.7968208,2.14291908 15.4796243,2.30534682 15.1593931,2.44364162" id="Fill-35" fill="#D0383F"></path>
                    <path d="M17.0647399,2.39580925 L17.0647399,10.0387283 L18.0174855,10.0387283 L18.0174855,2.67615607 C17.6965318,2.60708092 17.3812139,2.51575145 17.0647399,2.39580925" id="Fill-36" fill="#D0383F"></path>
                </g>
            </g>
        </g>
    </g>
</svg>