<?xml version="1.0" encoding="UTF-8" standalone="no"?>
<svg width="25px" height="25px" viewBox="0 0 25 25" version="1.1" xmlns="http://www.w3.org/2000/svg" xmlns:xlink="http://www.w3.org/1999/xlink">
    <!-- Generator: Sketch 42 (36781) - http://www.bohemiancoding.com/sketch -->
    <title>bayern_crest</title>
    <desc>Created with Sketch.</desc>
    <defs></defs>
    <g id="Page-1" stroke="none" stroke-width="1" fill="none" fill-rule="evenodd">
        <g id="Desktop-HD" transform="translate(-1018.000000, -332.000000)">
            <g id="Group-8" transform="translate(894.000000, 152.000000)">
                <g id="Group-5" transform="translate(0.000000, 18.000000)">
                    <g id="row_2" transform="translate(17.000000, 162.000000)">
                        <g id="bayern_crest" transform="translate(107.000000, 0.000000)">
                            <path d="M12.461326,24.8640884 C19.2991713,24.8640884 24.8425414,19.3207182 24.8425414,12.483011 C24.8425414,5.64516575 19.2991713,0.10179558 12.461326,0.10179558 C5.62348066,0.10179558 0.0802486188,5.64516575 0.0802486188,12.483011 C0.0802486188,19.3207182 5.62348066,24.8640884 12.461326,24.8640884" id="Fill-2" fill="#005B9C"></path>
                            <path d="M12.461326,24.2541436 C18.9622928,24.2541436 24.2324586,18.9838398 24.2324586,12.483011 C24.2324586,5.9820442 18.9622928,0.711740331 12.461326,0.711740331 C5.96035912,0.711740331 0.69019337,5.9820442 0.69019337,12.483011 C0.69019337,18.9838398 5.96035912,24.2541436 12.461326,24.2541436" id="Fill-3" fill="#FFFFFF"></path>
                            <path d="M12.461326,23.7395028 C18.6781768,23.7395028 23.7179558,18.6997238 23.7179558,12.483011 C23.7179558,6.26616022 18.6781768,1.22638122 12.461326,1.22638122 C6.24461326,1.22638122 1.20469613,6.26616022 1.20469613,12.483011 C1.20469613,18.6997238 6.24461326,23.7395028 12.461326,23.7395028" id="Fill-4" fill="#D9222A"></path>
                            <path d="M12.461326,19.6040055 C16.3941989,19.6040055 19.5824586,16.4157459 19.5824586,12.483011 C19.5824586,8.55013812 16.3941989,5.36187845 12.461326,5.36187845 C8.52859116,5.36187845 5.34019337,8.55013812 5.34019337,12.483011 C5.34019337,16.4157459 8.52859116,19.6040055 12.461326,19.6040055" id="Fill-5" fill="#FFFFFF"></path>
                            <polyline id="Fill-6" fill="#FFFFFF" points="4.9140884 10.015884 2.6211326 8.98991713 3.32762431 7.39502762 3.87734807 7.63798343 3.47140884 8.55801105 3.85303867 8.73176796 4.23991713 7.8538674 4.75607735 8.08287293 4.3691989 8.96063536 5.21464088 9.34116022 4.9140884 10.015884"></polyline>
                            <path d="M10.1877072,21.8038674 L10.8132597,22.1559392 C10.5631215,22.6255525 9.90441989,22.8451657 9.3839779,22.6266575 C8.52168508,22.2646409 8.63093923,21.3796961 8.70552486,21.0599448 C8.92071823,20.1392265 9.64696133,19.9447514 10.1665746,20.0331492 C10.1665746,20.0331492 11.0447514,20.0899171 11.0861878,21.091989 L10.4175414,21.106768 C10.4073204,20.5998619 10.1337017,20.5765193 10.060221,20.571547 C9.64240331,20.543232 9.50303867,21.090884 9.46533149,21.2939227 C9.40870166,21.5984807 9.40870166,22.0022099 9.66367403,22.0872928 C10.0058011,22.2012431 10.1924033,21.8469613 10.1877072,21.8038674" id="Fill-7" fill="#FFFFFF"></path>
                            <path d="M5.94088398,6.62002762 L6.53950276,6.22403315 C6.84323204,6.66104972 6.7378453,7.34723757 6.30593923,7.71063536 C5.59033149,8.31270718 4.85276243,7.81160221 4.60234807,7.59917127 C3.88135359,6.98756906 4.03977901,6.25248619 4.35566298,5.83066298 C4.35566298,5.83066298 4.80690608,5.07513812 5.71740331,5.49558011 L5.42541436,6.09737569 C4.96975138,5.875 4.82403315,6.10787293 4.78604972,6.17085635 C4.57016575,6.52983425 4.99392265,6.90372928 5.15732044,7.02997238 C5.40248619,7.21947514 5.76174033,7.40372928 5.95372928,7.21560773 C6.21132597,6.96325967 5.98121547,6.63549724 5.94088398,6.62002762" id="Fill-8" fill="#FFFFFF"></path>
                            <path d="M8.15055249,3.58839779 C8.27541436,3.53024862 8.38867403,3.55151934 8.44544199,3.60110497 C8.54792818,3.69074586 8.53743094,3.89143646 8.32928177,3.98038674 L8.04143646,4.11975138 L7.85828729,3.72983425 L8.15055249,3.58839779 Z M8.63218232,4.45953039 C8.7570442,4.40138122 8.87030387,4.42265193 8.92707182,4.47223757 C9.02955801,4.56201657 9.01906077,4.76270718 8.8109116,4.85165746 L8.46671271,5.02472376 L8.28342541,4.63480663 L8.63218232,4.45953039 Z M9.30248619,5.25138122 C9.6281768,5.07430939 9.84779006,4.65635359 9.64240331,4.24558011 C9.45814917,3.87707182 9.01201657,3.89861878 9.01201657,3.89861878 C9.1890884,3.72859116 9.16008287,3.39171271 9.04737569,3.21146409 C8.9058011,2.98480663 8.4808011,2.81491713 8.02748619,3.04861878 L6.9948895,3.57348066 L8.09792818,5.86850829 C8.09792818,5.86850829 9.15538674,5.33121547 9.30248619,5.25138122 L9.30248619,5.25138122 Z" id="Fill-9" fill="#FFFFFF"></path>
                            <path d="M11.0802486,2.76533149 L11.4414365,3.60110497 L10.9172652,3.63646409 L11.0802486,2.76533149 Z M12.6526243,4.48646409 L11.4849448,2.08356354 L10.541989,2.16325967 L10.0128453,4.83411602 L10.7118785,4.76975138 L10.8207182,4.17375691 L11.6751381,4.0968232 L11.9017956,4.57845304 L12.6526243,4.48646409 L12.6526243,4.48646409 Z" id="Fill-10" fill="#FFFFFF"></path>
                            <polyline id="Fill-11" fill="#FFFFFF" points="13.3763812 3.62969613 12.7022099 1.98618785 13.4802486 2.09240331 13.8321823 3.04337017 14.4320442 2.22582873 15.1882597 2.33328729 14.1062155 3.7320442 13.9737569 4.71546961 13.2439227 4.61325967 13.3763812 3.62969613"></polyline>
                            <polyline id="Fill-12" fill="#FFFFFF" points="14.9314917 4.96464088 16.0287293 2.63549724 17.6421271 3.38936464 17.4017956 3.90027624 16.4553867 3.46008287 16.2835635 3.83342541 17.1563536 4.24972376 16.9196133 4.73770718 16.0469613 4.32140884 15.8533149 4.73646409 16.8109116 5.18480663 16.5559392 5.72665746 14.9314917 4.96464088"></polyline>
                            <polyline id="Fill-13" fill="#FFFFFF" points="14.8678177 22.668232 14.071547 20.2197514 15.7632597 19.6638122 15.9382597 20.2005525 14.9472376 20.5283149 15.0777624 20.9178177 15.9987569 20.6233425 16.1606354 21.140884 15.2396409 21.4354972 15.383011 21.870442 16.3877072 21.5410221 16.5732044 22.1104972 14.8678177 22.668232"></polyline>
                            <polyline id="Fill-14" fill="#FFFFFF" points="21.2928177 18.104558 18.9987569 16.9357735 19.8023481 15.346547 20.3055249 15.6024862 19.8361878 16.5349448 20.2040055 16.718232 20.6470994 15.8587017 21.1276243 16.1103591 20.6843923 16.9698895 21.093232 17.176105 21.5709945 16.233011 22.1046961 16.504558 21.2928177 18.104558"></polyline>
                            <path d="M19.0412983,5.13812155 C19.2821823,5.34350829 19.0766575,5.52762431 19.0766575,5.52762431 C19.0766575,5.52762431 18.9138122,5.67638122 18.7019337,5.4878453 L18.4707182,5.28135359 L18.8002762,4.92292818 L19.0412983,5.13812155 Z M18.1276243,5.6691989 L18.2551105,5.82513812 L17.9718232,6.8308011 L18.5667127,7.39751381 L18.8571823,6.15801105 C19.2892265,6.25 19.5455801,6.06201657 19.6433702,5.95262431 C19.6433702,5.95262431 20.1533149,5.42140884 19.5263812,4.84599448 L18.6120166,4.02969613 L16.914779,5.93162983 L17.4657459,6.42348066 L18.1276243,5.6691989 L18.1276243,5.6691989 Z" id="Fill-15" fill="#FFFFFF"></path>
                            <polyline id="Fill-16" fill="#FFFFFF" points="18.7049724 7.56491713 20.8982044 6.31560773 21.3149171 7.07872928 20.4082873 8.50953039 21.7223757 7.74861878 22.0788674 8.38674033 19.871547 9.63604972 19.4379834 8.85649171 20.4012431 7.35497238 19.0324586 8.14502762 18.7049724 7.56491713"></polyline>
                            <polyline id="Fill-17" fill="#FFFFFF" points="5.49668508 20.365884 6.96629834 18.3139503 7.66395028 18.8328729 7.43881215 20.5116022 8.31422652 19.2708564 8.90497238 19.7013812 7.42251381 21.7593923 6.70262431 21.2325967 6.94958564 19.465884 6.03660221 20.7559392 5.49668508 20.365884"></polyline>
                            <polyline id="Fill-18" fill="#FFFFFF" points="17.6381215 21.5798343 16.1527624 19.5392265 16.864779 19.0401934 18.3874309 19.7820442 17.4850829 18.5607735 18.0796961 18.1354972 19.5667127 20.1901934 18.8401934 20.7077348 17.240884 19.9175414 18.1783149 21.1899171 17.6381215 21.5798343"></polyline>
                            <polyline id="Fill-19" fill="#FFFFFF" points="1.99765193 13.6540055 4.47845304 13.0191989 4.73632597 14.0788674 3.30096685 14.9005525 4.95359116 14.9571823 5.18964088 15.9866022 2.7531768 16.6287293 2.61146409 15.9299724 4.47223757 15.5026243 2.42265193 15.3821823 2.29986188 14.8627072 3.97140884 13.8334254 2.16767956 14.2961326 1.99765193 13.6540055"></polyline>
                            <polyline id="Fill-20" fill="#FFFFFF" points="11.494337 22.9696133 11.4632597 20.4273481 12.1984807 20.4121547 12.1987569 21.3562155 13.0022099 21.3395028 12.9783149 20.3624309 13.7168508 20.3472376 13.771547 22.9225138 13.033011 22.9378453 13.0156077 21.9226519 12.2121547 21.9392265 12.229558 22.9544199 11.494337 22.9696133"></polyline>
                            <polyline id="Fill-21" fill="#FFFFFF" points="22.611326 14.8907459 19.8428177 15.2603591 19.991989 14.5053867 21.9627072 14.348895 20.1982044 13.4622928 20.3429558 12.7296961 22.765884 14.1088398 22.611326 14.8907459"></polyline>
                            <path d="M6.2730663,17.434116 L5.02955801,18.3524862 C4.8308011,18.5458564 4.51878453,18.4777624 4.44364641,18.3758287 C4.36767956,18.2730663 4.36298343,18.1370166 4.38563536,18.0309392 C4.40814917,17.9248619 4.47748619,17.8288674 4.59350829,17.743232 L5.82941989,16.8303867 L5.39502762,16.2389503 L4.18798343,17.1303867 C4.08356354,17.2075967 3.97707182,17.3145028 3.86864641,17.451105 C3.80124309,17.5357735 3.75055249,17.6382597 3.71657459,17.7581492 C3.68259669,17.8781768 3.67140884,17.9910221 3.68301105,18.0968232 C3.69461326,18.2026243 3.73383978,18.315884 3.80069061,18.4367403 C3.86740331,18.5575967 3.93522099,18.6645028 4.00414365,18.7577348 C4.1230663,18.9187845 4.71754144,19.4901934 5.49585635,18.9203039 L6.70745856,18.0254144 L6.2730663,17.434116" id="Fill-22" fill="#FFFFFF"></path>
                            <polyline id="Fill-23" fill="#FFFFFF" points="5.89792818 16.9498619 6.1718232 17.3370166 5.52969613 17.5542818 5.89792818 16.9498619"></polyline>
                            <polyline id="Fill-24" fill="#005B9C" points="15.4497238 14.3667127 15.6796961 11.4535912 14.3084254 9.12348066 14.078453 12.0366022 15.4497238 14.3667127"></polyline>
                            <path d="M7.52569061,11.0962707 L7.76395028,8.07941989 L9.20994475,10.536326 L9.4480663,7.51947514 L10.8940608,9.97610497 L11.1321823,6.95953039 L12.5781768,9.41643646 L12.8162983,6.39958564 L14.2621547,8.85621547 L14.4599448,6.22845304 C13.8296961,6.02720994 13.1584254,5.91754144 12.461326,5.91754144 C9.90138122,5.91754144 7.68508287,7.38383978 6.60248619,9.52154696 L7.52569061,11.0962707" id="Fill-25" fill="#005B9C"></path>
                            <polyline id="Fill-26" fill="#005B9C" points="17.3639503 10.8936464 15.9924033 8.56339779 15.7624309 11.4766575 17.1339779 13.8070442 17.3639503 10.8936464"></polyline>
                            <polyline id="Fill-27" fill="#005B9C" points="12.3941989 12.596547 13.7657459 14.9269337 13.9957182 12.0135359 12.6241713 9.68314917 12.3941989 12.596547"></polyline>
                            <path d="M19.0266575,12.483011 C19.0266575,10.9631215 18.5088398,9.56505525 17.6418508,8.45234807 L17.4466851,10.9167127 L18.9540055,13.459116 C19.0015193,13.1406077 19.0266575,12.8146409 19.0266575,12.483011" id="Fill-28" fill="#005B9C"></path>
                            <path d="M14.8016575,6.34875691 L15.9464088,8.29668508 L16.0401934,6.97997238 C15.6535912,6.72803867 15.2389503,6.51560773 14.8016575,6.34875691" id="Fill-29" fill="#005B9C"></path>
                            <polyline id="Fill-30" fill="#005B9C" points="9.02596685 13.7164365 10.3975138 16.0468232 10.6274862 13.1334254 9.25593923 10.8030387 9.02596685 13.7164365"></polyline>
                            <path d="M7.25911602,14.2533149 L5.91685083,11.9838398 C5.90441989,12.1487569 5.89599448,12.314779 5.89599448,12.483011 C5.89599448,13.8888122 6.33936464,15.1904696 7.09198895,16.2585635 L7.25911602,14.2533149" id="Fill-31" fill="#005B9C"></path>
                            <path d="M17.1799724,14.0737569 L16.9418508,17.0907459 L15.4959945,14.6339779 L15.2577348,17.6505525 L13.8117403,15.1936464 L13.5736188,18.2104972 L12.1277624,15.7537293 L11.8895028,18.770442 L10.4435083,16.3135359 L10.2574586,18.6679558 C10.946547,18.9135359 11.6881215,19.0482044 12.461326,19.0482044 C14.8979282,19.0482044 17.0229282,17.7198895 18.1558011,15.7487569 L17.1799724,14.0737569" id="Fill-32" fill="#005B9C"></path>
                            <path d="M8.75939227,16.8734807 L8.68411602,17.8512431 C8.99212707,18.0683702 9.3191989,18.260221 9.66312155,18.4226519 L8.75939227,16.8734807" id="Fill-33" fill="#005B9C"></path>
                            <polyline id="Fill-34" fill="#005B9C" points="10.710221 13.1564917 12.0814917 15.4866022 12.3114641 12.5734807 10.9401934 10.2433702 10.710221 13.1564917"></polyline>
                            <polyline id="Fill-35" fill="#005B9C" points="8.94337017 13.6933702 7.5718232 11.3629834 7.34185083 14.2763812 8.71325967 16.606768 8.94337017 13.6933702"></polyline>
                        </g>
                    </g>
                </g>
            </g>
        </g>
    </g>
</svg>