<?xml version="1.0" encoding="UTF-8" standalone="no"?>
<svg width="25px" height="25px" viewBox="0 0 25 25" version="1.1" xmlns="http://www.w3.org/2000/svg" xmlns:xlink="http://www.w3.org/1999/xlink">
    <!-- Generator: Sketch 42 (36781) - http://www.bohemiancoding.com/sketch -->
    <title>everton</title>
    <desc>Created with Sketch.</desc>
    <defs>
        <polygon id="path-1" points="24.3712033 0.000604395604 0 0.000604395604 0 24.9450275 24.3712033 24.9450275 24.3712033 0.000604395604"></polygon>
    </defs>
    <g id="Page-1" stroke="none" stroke-width="1" fill="none" fill-rule="evenodd">
        <g id="fixtures" transform="translate(-124.000000, -654.000000)">
            <g id="row_5" transform="translate(17.000000, 654.000000)">
                <g id="everton" transform="translate(107.000000, 0.000000)">
                    <path d="M24.3681429,15.7722473 C24.3634176,15.7580714 24.353967,15.7486209 24.3398462,15.7486209 L22.8206154,15.1636209 C22.848967,15.0551044 22.9055604,14.9088407 23.0093516,14.7578516 L23.7925385,15.1023022 C23.8208352,15.1164231 23.8444615,15.1211484 23.8727582,15.1211484 C23.9435275,15.1211484 24.0096264,15.0834011 24.0473187,15.0220824 C24.0662198,14.9890604 24.1275385,14.8899396 24.1794066,14.7625769 C24.2549011,14.5597198 24.2738022,14.3757088 24.2266044,14.2247198 C24.1794066,14.0643352 24.0662198,13.9416429 23.8963297,13.8661484 L21.8062198,12.9084011 C21.8062198,12.9084011 21.7967692,12.9036758 21.7920989,12.8989505 C21.7118791,12.8658736 21.5608901,12.823456 21.3769341,12.8847747 L21.3769341,12.6866429 C21.3769341,12.5262033 21.3722088,12.3563681 21.3627582,12.186533 C21.3533077,12.0119176 21.3391319,11.8326319 21.3202857,11.6486758 C21.1975934,10.5918077 20.9522637,9.81334615 20.8531429,9.53026923 L20.8154505,9.43587363 C20.404956,8.29411538 20.0841319,7.38823626 20.0935824,6.3077967 C20.0983077,5.49158791 21.1174286,4.34977473 21.509022,3.97708242 L21.876989,3.62796154 L18.0129231,0.103510989 L17.7062198,0.306368132 C16.9985275,0.773456044 16.0831978,1.02829121 15.1254505,1.02829121 C14.1252308,1.02829121 13.1721538,0.749884615 12.455011,0.245049451 L12.1861099,0.0563681319 L11.9171538,0.245049451 C11.1952857,0.749884615 10.2469341,1.02829121 9.24671429,1.02829121 C8.28896703,1.02829121 7.37363736,0.773456044 6.66594505,0.306368132 L6.35924176,0.103510989 L2.86786813,3.28823626 L2.49517582,3.62796154 L2.85841758,3.97708242 C3.25006593,4.34977473 4.26913187,5.49158791 4.27858242,6.3077967 C4.28330769,7.38823626 3.96248352,8.29411538 3.55198901,9.43587363 L3.51896703,9.53026923 C3.4199011,9.81334615 3.16984615,10.5918077 3.05187912,11.6486758 C3.03303297,11.8326319 3.01885714,12.0119176 3.00940659,12.186533 C3.00001099,12.3563681 2.99056044,12.5262033 2.99056044,12.6866429 C2.99056044,12.7526868 2.99056044,12.8187308 2.99528571,12.8847747 C2.81127473,12.823456 2.66028571,12.8658736 2.58479121,12.8989505 L2.58012088,12.8989505 C2.5753956,12.9036758 2.57067033,12.9084011 2.56594505,12.9084011 L0.475835165,13.8661484 C0.305945055,13.9416429 0.192758242,14.0643352 0.14556044,14.2247198 C0.0983626374,14.3757088 0.117263736,14.5597198 0.192758242,14.7625769 C0.244626374,14.8899396 0.305945055,14.9890604 0.329571429,15.0220824 C0.362593407,15.0834011 0.428637363,15.1211484 0.499406593,15.1211484 C0.527703297,15.1211484 0.55132967,15.1164231 0.579626374,15.1023022 L1.36281319,14.7578516 C1.4666044,14.9088407 1.51852747,15.0551044 1.55154945,15.1636209 L0.0323186813,15.7486209 C0.0181978022,15.7486209 0.00874725275,15.7580714 0.00402197802,15.7722473 C-0.000703296703,15.7864231 -0.000703296703,15.7958736 0.00402197802,15.8099945 L0.0936923077,16.0412033 C1.04198901,18.4096648 2.65556044,20.4431813 4.75512088,21.9057637 C6.70841758,23.2645549 8.99665934,24.0619176 11.3698462,24.2081813 L12.1530879,24.9819176 C12.1624835,24.9913681 12.1719341,24.9960934 12.1861099,24.9960934 C12.1955055,24.9960934 12.2096813,24.9913681 12.2191319,24.9819176 L13.0023187,24.2081813 C15.3755055,24.0619176 17.6637473,23.2645549 19.6123187,21.9057637 C21.7166044,20.4431813 23.3301758,18.4096648 24.2785275,16.0412033 L24.3681429,15.8099945 C24.3728681,15.7958736 24.3728681,15.7864231 24.3681429,15.7722473" id="Fill-1" fill="#FFFFFF"></path>
                    <path d="M2.40645604,13.9807912 C2.33096154,13.7826593 2.30739011,13.5797473 2.33568681,13.4004615 C2.34041209,13.3910659 2.34041209,13.3768901 2.34513736,13.3627143 L2.36398352,13.2683736 L0.575851648,14.0893626 C0.472005495,14.1365055 0.405961538,14.2025495 0.38239011,14.2922198 C0.325796703,14.480956 0.443708791,14.7262308 0.495631868,14.8253516 L0.519203297,14.8630989 L2.4253022,14.0232637 L2.40645604,13.9807912 Z" id="Fill-3" fill="#274488"></path>
                    <path d="M21.9661703,13.9807912 C22.0416648,13.7826593 22.0652912,13.5797473 22.0369396,13.4004615 C22.0322143,13.3910659 22.0322143,13.3768901 22.027489,13.3627143 L22.0039176,13.2683736 L23.7967747,14.0893626 C23.9005659,14.1365055 23.9666099,14.2025495 23.9902363,14.2922198 C24.0468297,14.480956 23.9289176,14.7262308 23.8769945,14.8253516 L23.8534231,14.8630989 L21.9472692,14.0232637 L21.9661703,13.9807912 Z" id="Fill-5" fill="#274488"></path>
                    <path id="Fill-7" fill="#274488"></path>
                    <path d="M15.7189615,21.8057418 C15.5774231,21.8528846 15.5208297,22.0133242 15.6057198,22.2539286 C15.6906648,22.5134341 15.8180824,22.5936538 15.9737418,22.5417857 C16.1200055,22.4945879 16.1765989,22.3483242 16.0869835,22.093544 C16.0020385,21.8293132 15.8746758,21.7538736 15.7189615,21.8057418" id="Fill-9" fill="#274488"></path>
                    <path id="Fill-11" fill="#274488"></path>
                    <path d="M14.2389341,11.5651429 C14.2389341,11.5604176 14.0171758,11.4990989 13.8567363,11.4708022 C13.6585495,11.4377802 13.5406374,11.4330549 13.5028901,11.4283297 C13.4604176,11.4188791 13.3519011,11.4188791 13.3566264,11.3575604 C13.3566264,11.3150879 13.4038242,11.3056374 13.450967,11.3009121 C13.5217363,11.2961868 13.7058022,11.3150879 13.8142637,11.3292637 C14.0737692,11.367011 14.2389341,11.4188791 14.2389341,11.4094835 L14.2389341,11.0839341 C14.2389341,11.0744835 13.8756374,10.9517912 13.484044,10.9093187 C13.2198132,10.8857473 13.0971758,10.8904725 12.9414615,10.8857473 C12.9131099,10.8857473 12.8517912,10.8951978 12.8517912,10.8432747 C12.8517912,10.7913516 12.9083846,10.7866813 12.9272857,10.781956 C13.1254176,10.7630549 13.3801978,10.7583297 13.6444286,10.7772308 C13.936956,10.7960769 14.2342088,10.8999231 14.2342088,10.8904725 L14.2342088,10.5413516 C14.120967,10.4894286 13.9558571,10.4375604 13.818989,10.4139341 C13.6444286,10.3856374 13.4132747,10.3714615 13.3801978,10.3714615 C13.3472308,10.3714615 13.3330549,10.3526154 13.3283297,10.3384396 C13.3236044,10.3148681 13.3377802,10.295967 13.3708022,10.2865165 C13.4227253,10.2771209 13.5500879,10.2723956 13.7058022,10.2771209 C13.818989,10.2818462 14.0926703,10.3101429 14.2294835,10.328989 L14.2247582,10.0600879 C13.9653077,9.92327473 13.5642637,9.85723077 13.3047582,9.81948352 C12.9131099,9.75810989 12.5545934,9.74865934 12.4932747,9.74865934 C12.4601978,9.74393407 12.4271758,9.74393407 12.4224505,9.71091209 C12.4224505,9.68261538 12.4412967,9.65904396 12.4932747,9.65904396 C12.5404176,9.65904396 12.8470659,9.64959341 13.3283297,9.69206593 C13.5595385,9.71091209 14.0171758,9.80058242 14.2247582,9.84305495 L14.220033,9.57882418 C13.9888242,9.46563736 13.6255824,9.38069231 13.1019011,9.3051978 C12.4601978,9.2108022 11.2334945,9.25327473 11.1674505,9.26272527 C11.0777802,9.26745055 11.0636593,9.24854945 11.0589341,9.21552747 C11.0542088,9.18250549 11.0872308,9.16365934 11.1532747,9.14948352 C11.2193187,9.14003297 12.0591538,9.05986813 12.7385495,9.09289011 C13.2528352,9.11646154 13.9935495,9.26272527 14.220033,9.3051978 L14.2153077,9.09761538 C13.8284396,8.83338462 13.1915165,8.80508791 13.149044,8.80508791 C13.1065714,8.80036264 13.0782747,8.78146154 13.0735495,8.75789011 C13.0688242,8.73431868 13.0971758,8.71541758 13.1301429,8.71069231 C13.1632198,8.70596703 13.2575604,8.69657143 13.4556923,8.71069231 C13.6161319,8.72014286 14.0454725,8.80981319 14.2153077,8.84756044 L14.2105824,8.63992308 C13.9227802,8.47008791 13.2575604,8.37102198 12.7432747,8.32382418 C12.7432747,8.32382418 12.681956,8.3190989 12.5687143,8.31437363 L12.5593187,8.45124176 C12.5593187,8.49371429 12.5262418,8.52201099 12.4838242,8.52201099 C12.1818462,8.50783516 12.0733297,8.50783516 11.7713516,8.52201099 L11.7666264,8.52201099 C11.7288791,8.52201099 11.6958571,8.49371429 11.6958571,8.45124176 L11.6864066,8.31437363 C11.4127802,8.32382418 11.091956,8.3473956 10.7333846,8.3851978 C10.6814615,8.38986813 10.6295934,8.40404396 10.6248681,8.3662967 C10.6154176,8.34272527 10.6295934,8.32382418 10.6956374,8.30497802 C10.7475604,8.29552747 11.459978,8.19640659 11.6392637,8.17756044 L11.677011,8.17756044 L11.6298132,7.30003297 C11.6298132,7.28113187 11.6392637,7.26223077 11.6486593,7.24338462 C11.6628352,7.22920879 11.6816813,7.21981319 11.7005824,7.21981319 C12.0686044,7.20563736 12.195967,7.20563736 12.5545934,7.21981319 C12.5734396,7.21981319 12.5922857,7.22920879 12.6064615,7.24338462 C12.6159121,7.25756044 12.6253626,7.27640659 12.6253626,7.29058242 C12.7904725,7.29530769 12.9556374,7.3047033 13.0877253,7.31415385 C13.3660769,7.32832967 14.0219011,7.42267033 14.1964615,7.4462967 L14.1964615,7.24338462 C14.1634396,7.21981319 14.1162418,7.20563736 14.0784945,7.18673626 C13.8944835,7.11602198 13.1820659,6.99332967 12.1676703,6.99332967 C11.1485495,6.99332967 10.5399231,7.12541758 10.4455824,7.14904396 C10.3417912,7.17734066 10.2285495,7.21508791 10.2332747,7.28113187 L10.2473956,9.57882418 C10.2332747,9.73453846 10.2521209,10.3526154 10.2568462,10.4988791 C10.2615714,10.7394835 10.638989,10.8904725 11.4647033,11.1782747 C12.3281099,11.4943736 13.418,11.8340989 14.2389341,12.0605275 L14.2389341,11.5651429" id="Fill-13" fill="#274488"></path>
                    <path id="Fill-15" fill="#274488"></path>
                    <path id="Fill-17" fill="#274488"></path>
                    <path id="Fill-19" fill="#274488"></path>
                    <path d="M13.8147747,6.31203846 C13.8005989,6.28846703 13.7911484,6.26017033 13.7723022,6.22242308 C13.6071923,6.16104945 13.1919725,6.05725824 12.8947198,6.02896154 C12.8381264,6.02423626 12.7532363,6.01951099 12.7532363,5.97703846 C12.7532363,5.93929121 12.7862033,5.92517033 12.8805989,5.92517033 C13.1212033,5.9298956 13.5080714,5.99121429 13.6779615,6.02423626 C13.6307637,5.92044505 13.5741154,5.79775275 13.5127967,5.66566484 C13.1919725,5.54297253 12.5833462,5.50522527 12.4748297,5.49582967 C12.3568626,5.48165385 12.3191154,5.46747802 12.3285659,5.42973077 C12.3332912,5.39203846 12.4087857,5.39670879 12.5927967,5.39203846 C12.8051044,5.38731319 13.2721923,5.42506044 13.4042802,5.43918132 C13.3618626,5.34484066 13.3146099,5.24577473 13.267467,5.13725824 C13.0881813,5.01456593 12.748511,4.99099451 12.6541154,4.98626923 C12.5644451,4.98154396 12.531478,4.94852198 12.5361484,4.92022527 C12.5408736,4.8872033 12.5880714,4.87775275 12.6257637,4.87302747 C12.6588407,4.87302747 13.0504341,4.8683022 13.083456,4.86357692 C13.1070275,4.86357692 13.1306538,4.84945604 13.1117527,4.81643407 C13.0740604,4.73148901 13.0504341,4.67962088 13.0079615,4.59467582 C12.9466429,4.56637912 12.8664231,4.54275275 12.8003791,4.5333022 C12.7437857,4.52390659 12.5597198,4.51445604 12.4653791,4.50500549 C12.413511,4.49082967 12.4040604,4.48143407 12.4040604,4.46253297 C12.4040604,4.43896154 12.4182363,4.42478571 12.4653791,4.42006044 C12.5833462,4.41066484 12.8003791,4.42006044 12.847522,4.41539011 C12.8805989,4.41539011 12.9183462,4.40121429 12.9041703,4.37291758 C12.8805989,4.31632418 12.8569725,4.26912637 12.8334011,4.2172033 C12.781478,4.19363187 12.7012582,4.17945604 12.6352143,4.16533516 C12.5503242,4.14643407 12.3898846,4.13231319 12.2577967,4.12758791 C12.2247747,4.12758791 12.196478,4.10868681 12.196478,4.08984066 C12.196478,4.07093956 12.2105989,4.05209341 12.2483462,4.04736813 C12.3380165,4.03319231 12.5267527,4.03319231 12.6022473,4.02846703 C12.6635659,4.0237967 12.7390604,4.01434615 12.7154341,3.96242308 C12.6730165,3.87753297 12.6493901,3.81615934 12.6069725,3.73599451 C12.5503242,3.73599451 12.4512582,3.73126923 12.380489,3.72181868 C12.3521923,3.71709341 12.3143901,3.71236813 12.3143901,3.6887967 C12.3096648,3.66522527 12.347467,3.65104945 12.380489,3.63687363 C12.4040604,3.62747802 12.4842802,3.60385165 12.5408736,3.58973077 C12.5125769,3.53780769 12.4936758,3.49060989 12.4701044,3.43874176 C12.3898846,3.43401648 12.2436209,3.42456593 12.1304341,3.42456593 C12.0832363,3.42456593 12.0596648,3.40099451 12.0596648,3.38209341 C12.0596648,3.36324725 12.0690604,3.34907143 12.1209835,3.33967582 C12.2058736,3.31604945 12.3380165,3.30665385 12.4040604,3.30192857 C12.3285659,3.14148901 12.2577967,2.98577473 12.1917527,2.84423626 C11.6727418,3.95297253 10.7197198,5.99593956 10.5640055,6.32148901 C11.1018626,6.19412637 11.828456,6.14692857 12.1681813,6.14692857 C12.5078516,6.14692857 13.2721923,6.1987967 13.8147747,6.31203846" id="Fill-21" fill="#274488"></path>
                    <path id="Fill-23" fill="#274488"></path>
                    <path id="Fill-25" fill="#274488"></path>
                    <path d="M10.7640604,15.0867253 C10.7640604,14.9074396 10.6319725,14.7753516 10.4573571,14.7753516 C10.2120275,14.7753516 10.1082363,14.9593626 10.0893901,15.2754615 L10.5328516,15.2612857 C10.6980165,15.2612857 10.7640604,15.2093626 10.7640604,15.0867253" id="Fill-27" fill="#274488"></path>
                    <path d="M15.2858407,14.7663352 C14.9650165,14.7663352 14.8423791,15.0588626 14.8423791,15.5165 C14.8423791,16.0590824 15.0027637,16.3469396 15.3000165,16.3469396 C15.5972692,16.3469396 15.7576538,16.0921593 15.7576538,15.5967198 C15.7576538,15.0588626 15.5878187,14.7663352 15.2858407,14.7663352" id="Fill-29" fill="#274488"></path>
                    <path d="M13.257544,7.75104945 C13.2952912,7.74632418 13.4651264,7.74632418 13.6868846,7.77467582 C13.8519945,7.79824725 14.0926538,7.85011538 14.2011703,7.87374176 L14.2011703,7.68500549 C13.9747418,7.59066484 13.4556758,7.49626923 13.1773242,7.46324725 C13.007489,7.43967582 12.8093571,7.42077473 12.6158956,7.40665385 L12.5781484,8.14736813 C12.6772143,8.15209341 12.7433132,8.15209341 12.7433132,8.15209341 C12.8706758,8.16154396 12.9980385,8.16626923 13.125456,8.18039011 C13.6161154,8.22758791 14.0266099,8.32192857 14.2058956,8.35967582 L14.2058956,8.0955 C13.927489,7.86429121 13.2858956,7.84544505 13.2480934,7.84544505 C13.2104011,7.84544505 13.1726538,7.83599451 13.1726538,7.79824725 C13.1726538,7.7605 13.2197967,7.75577473 13.257544,7.75104945" id="Fill-31" fill="#274488"></path>
                    <path d="M10.2431813,6.98248901 C10.3280714,6.96358791 10.9792253,6.72770879 12.1681813,6.72770879 C13.3524121,6.72770879 14.0601044,6.98721429 14.1450495,7.02490659 C14.2393352,7.06737912 14.3242802,7.09573077 14.3668077,7.02490659 C14.4045,6.95419231 14.3573571,6.86452198 14.2913132,6.8221044 C14.0318077,6.65693956 13.1212033,6.44935714 12.1681813,6.46347802 C11.2103791,6.4682033 10.2526319,6.68051099 10.120489,6.73715934 C9.98367582,6.78902747 9.92708242,6.86924725 9.96955495,6.94474176 C10.0403242,7.0721044 10.1582363,7.00606044 10.2431813,6.98248901" id="Fill-33" fill="#274488"></path>
                    <path id="Fill-35" fill="#274488"></path>
                    <path d="M11.9242363,8.37006593 C12.1412692,8.36534066 12.4148956,8.37006593 12.4148956,8.37006593 L12.4668187,7.41231868 C12.2403352,7.39814286 11.8675879,7.41698901 11.8675879,7.41698901 L11.9242363,8.37006593 Z" id="Fill-37" fill="#274488"></path>
                    <g id="Group-41" transform="translate(0.000000, 0.054341)">
                        <mask id="mask-2" fill="white">
                            <use xlink:href="#path-1"></use>
                        </mask>
                        <g id="Clip-40"></g>
                        <path d="M24.3676593,15.716511 C24.3629341,15.7070604 24.3535385,15.6976099 24.3440879,15.6928846 L22.8248571,15.1078846 C22.8532088,15.0040385 22.9050769,14.8531044 23.0089231,14.7021154 L23.7920549,15.0512912 C23.8204066,15.0606868 23.843978,15.0653571 23.8722747,15.0653571 C23.943044,15.0653571 24.0091429,15.0276648 24.0468352,14.9663462 C24.0657363,14.9332692 24.1270549,14.8389286 24.1789231,14.7068407 C24.2544176,14.5039835 24.2733187,14.3246429 24.2261758,14.1689835 C24.1789231,14.008544 24.0657363,13.8859066 23.8958462,13.8104121 L21.8057912,12.8573352 C21.8057912,12.8526099 21.8010659,12.8478846 21.7916154,12.8478846 C21.7113956,12.8101374 21.5604066,12.7677198 21.3764505,12.8290385 L21.3764505,12.6356319 C21.3764505,12.470467 21.3717253,12.3006319 21.3622747,12.1307418 C21.3528242,11.9561813 21.3386484,11.7768956 21.3198022,11.5976099 C21.1971648,10.5360714 20.9517802,9.76228022 20.847989,9.4792033 L20.814967,9.38486264 C20.4091978,8.23832418 20.0836484,7.3325 20.0930989,6.25678571 C20.0978242,5.44052198 21.1169451,4.29403846 21.5085385,3.92129121 L21.8765055,3.57217033 L18.0124396,0.0525 L17.7057363,0.250631868 C16.998044,0.71771978 16.0827692,0.9725 15.124967,0.9725 C14.1247473,0.9725 13.1716703,0.694148352 12.4545824,0.189313187 L12.1856264,0.000576923077 L11.9166703,0.189313187 C11.1948022,0.694148352 10.2465055,0.9725 9.24628571,0.9725 C8.28848352,0.9725 7.37315385,0.71771978 6.66546154,0.250631868 L6.35881319,0.0525 L2.86738462,3.2325 L2.49469231,3.57217033 L2.85798901,3.92129121 C3.24958242,4.29403846 4.2687033,5.44052198 4.2780989,6.25678571 C4.28282418,7.3325 3.962,8.23832418 3.55150549,9.38486264 L3.51848352,9.4792033 C3.41941758,9.76228022 3.16936264,10.5360714 3.0513956,11.5976099 C3.03254945,11.7768956 3.01837363,11.9561813 3.00892308,12.1307418 C2.99952747,12.3006319 2.99007692,12.470467 2.99007692,12.6356319 C2.99007692,12.7016758 2.99007692,12.7629945 2.9948022,12.8290385 C2.81079121,12.7677198 2.6598022,12.8101374 2.58430769,12.8478846 L2.57963736,12.8478846 C2.57491209,12.8478846 2.57018681,12.8526099 2.56546154,12.8573352 L0.475351648,13.8104121 C0.305516484,13.8859066 0.192274725,14.008544 0.145076923,14.1689835 C0.0979340659,14.3246429 0.11678022,14.5039835 0.192274725,14.7068407 C0.244142857,14.8389286 0.305516484,14.9332692 0.329087912,14.9663462 C0.36210989,15.0276648 0.428153846,15.0653571 0.498923077,15.0653571 C0.52721978,15.0653571 0.550846154,15.0606868 0.579142857,15.0512912 L1.36232967,14.7021154 C1.46612088,14.8531044 1.51804396,15.0040385 1.55106593,15.1078846 L0.0318351648,15.6928846 C0.0177142857,15.6976099 0.00826373626,15.7070604 0.00353846154,15.716511 C-0.00118681319,15.7306868 -0.00118681319,15.7448077 0.00353846154,15.7542582 L0.0932087912,15.985467 C1.04150549,18.3585989 2.65513187,20.3873901 4.75463736,21.8500275 C6.70793407,23.213489 8.99617582,24.0108516 11.3693626,24.1523901 L12.1526044,24.9309066 C12.162,24.9356319 12.1714505,24.9450275 12.1856264,24.9450275 C12.1997473,24.9450275 12.2139231,24.9356319 12.2186484,24.9309066 L13.0018352,24.1523901 C15.375022,24.0108516 17.6632637,23.213489 19.6165604,21.8500275 C21.7161209,20.3873901 23.3296923,18.3585989 24.278044,15.985467 L24.3676593,15.7542582 C24.3723846,15.7448077 24.3723846,15.7306868 24.3676593,15.716511 L24.3676593,15.716511 Z M21.3717253,12.9375549 C21.4424945,12.9092582 21.5085385,12.8950824 21.5604066,12.8950824 C21.6406264,12.8950824 21.7066703,12.9186538 21.7491429,12.9375549 C21.7538681,12.9375549 21.7585934,12.9422802 21.7633187,12.9422802 L23.8581538,13.9000275 C23.9996923,13.9614011 24.094033,14.0651374 24.1317802,14.1972802 C24.1836484,14.3623901 24.1317802,14.5464011 24.0846374,14.6737637 C24.0373846,14.796456 23.9760659,14.8908516 23.9572198,14.9144231 C23.9336484,14.9616209 23.877,14.980467 23.8345275,14.9616209 L22.9758462,14.579478 L22.9522198,14.6171703 C22.8295824,14.7823352 22.7635385,14.9521703 22.7305165,15.0748077 L22.5937033,15.0182143 C22.6266703,14.8955769 22.688044,14.7351374 22.806011,14.5700275 L22.839033,14.5228297 L21.8435385,14.0840385 C21.7963407,14.0604121 21.7727143,14.008544 21.7916154,13.9614011 L21.8057912,13.9235989 C21.8906813,13.7349176 21.919033,13.541456 21.8906813,13.3763462 C21.8671099,13.2300824 21.7963407,13.121511 21.7019451,13.0743681 L21.6924945,13.0696429 C21.6500769,13.0507418 21.6076044,13.0413462 21.5651319,13.0413462 C21.4990879,13.0413462 21.433044,13.0649176 21.367,13.1074451 C21.3717253,13.0460165 21.3717253,12.9941484 21.3717253,12.9375549 L21.3717253,12.9375549 Z M3.15524176,12.1401923 C3.16463736,11.9656319 3.17881319,11.7910714 3.20238462,11.6117857 C3.31562637,10.5643681 3.56095604,9.80475275 3.66007692,9.5264011 L3.6930989,9.43200549 C4.10826374,8.27607143 4.43381319,7.3607967 4.42436264,6.25206044 C4.41963736,5.38865385 3.36749451,4.1996978 2.96178022,3.81282967 L2.71172527,3.5768956 L2.96650549,3.34574176 L6.37293407,0.236510989 L6.58051648,0.373324176 C7.31656044,0.854587912 8.26018681,1.12348901 9.24628571,1.12348901 C10.2748022,1.12348901 11.2561758,0.830961538 12.0016154,0.312005495 L12.1856264,0.184587912 L12.3696374,0.312005495 C13.1150769,0.830961538 14.0917253,1.12348901 15.124967,1.12348901 C16.1063407,1.12348901 17.0546374,0.854587912 17.785956,0.373324176 L17.9935385,0.236510989 L21.6595275,3.5768956 L21.4094176,3.8175 C21.0036484,4.1996978 19.9515604,5.38865385 19.9468352,6.25206044 C19.9373846,7.3607967 20.2629341,8.27607143 20.6781538,9.43200549 L20.7111758,9.5264011 C20.8102418,9.80475275 21.0556264,10.5643681 21.1688132,11.6117857 C21.1877143,11.7910714 21.2065604,11.9656319 21.216011,12.1401923 C21.2207363,12.3053571 21.2301319,12.4751923 21.2301319,12.6356319 C21.2348571,13.8434341 20.998978,14.8955769 20.5272198,15.7542582 C20.447,15.900522 20.3573297,16.0467857 20.2629341,16.1788736 C20.2535385,16.1977747 20.2393626,16.2166209 20.2204615,16.2449176 L20.2110659,16.2543681 C18.5502967,18.745522 16.1063407,20.2977747 13.3226593,20.6233242 L13.2990879,20.6233242 L12.1856264,21.7367308 L11.0721099,20.6233242 L11.0485385,20.6233242 C8.26491209,20.2977747 5.81623077,18.745522 4.15546154,16.2543681 L4.15073626,16.2449176 C4.13183516,16.2166209 4.11771429,16.1977747 4.10826374,16.1835989 C4.01392308,16.0467857 3.92425275,15.900522 3.84403297,15.7542582 C3.37221978,14.8955769 3.13634066,13.8434341 3.14106593,12.6356319 C3.14106593,12.4751923 3.14579121,12.3053571 3.15524176,12.1401923 L3.15524176,12.1401923 Z M20.6922747,15.7589286 L21.0697473,15.8910714 C20.3195824,17.306456 19.2438681,18.5237637 17.9133187,19.448489 C16.4318352,20.4817857 14.7191978,21.0856868 12.9169451,21.2177747 L13.3651319,20.7648626 C16.1818352,20.4298626 18.6540879,18.8587088 20.3337033,16.3392582 L20.3431538,16.3251374 C20.3573297,16.301511 20.3715055,16.2826648 20.3856264,16.2638187 C20.479967,16.1270055 20.5743626,15.9760165 20.6545824,15.8250275 C20.6687033,15.8014011 20.6828791,15.7825549 20.6922747,15.7589286 L20.6922747,15.7589286 Z M12.2422198,23.1427198 C12.2705165,23.1427198 12.2846923,23.1616209 12.2846923,23.1852473 L12.2846923,23.279533 C12.2846923,23.2984341 12.2705165,23.3173352 12.2469451,23.3173352 L11.7987582,23.3126099 C11.7704066,23.3126099 11.7562857,23.2937088 11.7562857,23.2748626 L11.7562857,23.180522 C11.7562857,23.1474451 11.7751319,23.1379945 11.7987582,23.1379945 L11.8836484,23.1379945 L11.8930989,22.293489 L11.8034835,22.2887637 C11.7751319,22.2887637 11.761011,22.2698626 11.761011,22.2463462 L11.761011,22.1566758 C11.761011,22.1330495 11.7751319,22.1142033 11.7987582,22.1142033 L12.2657912,22.1235989 C12.2941429,22.1235989 12.3083187,22.1425 12.3083187,22.1614011 L12.3083187,22.2557418 C12.3083187,22.2840385 12.2894176,22.2982143 12.2657912,22.2982143 L12.1714505,22.2982143 L12.1572747,23.1427198 L12.2422198,23.1427198 Z M11.4543077,21.2177747 C9.652,21.0856868 7.93936264,20.4817857 6.45787912,19.448489 C5.13210989,18.5237637 4.05634066,17.306456 3.30145055,15.8910714 L3.67892308,15.7589286 C3.68837363,15.7825549 3.70254945,15.8014011 3.71194505,15.8250275 C3.79689011,15.9760165 3.88650549,16.1270055 3.98557143,16.268544 C3.99502198,16.2826648 4.0091978,16.301511 4.02804396,16.3251374 L4.03276923,16.3392582 C5.71716484,18.8587088 8.18941758,20.4298626 11.0060659,20.7648626 L11.4543077,21.2177747 Z M1.41897802,14.6171703 L1.39535165,14.579478 L0.541395604,14.9616209 C0.489472527,14.980467 0.437604396,14.9616209 0.413978022,14.9144231 C0.395131868,14.8908516 0.333813187,14.796456 0.286615385,14.6737637 C0.239472527,14.5464011 0.192274725,14.3623901 0.239472527,14.1972802 C0.277164835,14.0651374 0.37156044,13.9614011 0.513098901,13.9000275 L2.60793407,12.9422802 C2.61265934,12.9422802 2.61738462,12.9375549 2.62205495,12.9375549 C2.6598022,12.9186538 2.73062637,12.8950824 2.81079121,12.8950824 C2.86738462,12.8950824 2.92875824,12.9092582 2.9948022,12.9328297 C2.99952747,12.9941484 2.99952747,13.0460165 3.00425275,13.1027198 C2.93815385,13.0649176 2.87210989,13.0413462 2.80606593,13.0413462 C2.76364835,13.0413462 2.72117582,13.0507418 2.68342857,13.0696429 L2.66925275,13.0743681 C2.57491209,13.121511 2.50881319,13.2300824 2.48051648,13.3763462 C2.45221978,13.541456 2.48051648,13.7349176 2.56546154,13.9235989 L2.57963736,13.9614011 C2.59848352,14.008544 2.57491209,14.0604121 2.52771429,14.0840385 L1.53221978,14.5228297 L1.56524176,14.5700275 C1.68320879,14.7351374 1.74452747,14.8955769 1.78227473,15.0182143 L1.64073626,15.0748077 C1.60771429,14.9521703 1.54161538,14.7823352 1.41897802,14.6171703 L1.41897802,14.6171703 Z M24.1836484,15.9476648 C23.2447473,18.3020055 21.6453516,20.3166209 19.559967,21.7698077 C17.6161209,23.1238736 15.342,23.916511 12.9782637,24.0580495 C12.9640879,24.0580495 12.9546374,24.0627747 12.9451868,24.0721703 L12.1856264,24.8270604 L11.426011,24.0721703 C11.4165604,24.0627747 11.4071099,24.0580495 11.392989,24.0580495 C9.03392308,23.916511 6.75513187,23.1238736 4.81128571,21.7698077 C2.73062637,20.3166209 1.12645055,18.3020055 0.187549451,15.9476648 L0.112054945,15.7636538 L2.99007692,14.6596429 C3.06557143,14.6266209 3.14579121,14.6549725 3.18826374,14.7210165 L3.19298901,14.7256868 C3.21183516,14.7539835 3.24958242,14.8106319 3.30617582,14.8625 C3.3298022,14.9379945 3.35337363,15.013489 3.38167033,15.0842582 C3.23073626,15.0276648 3.12221978,14.8861264 3.07974725,14.8248077 L3.0702967,14.8059066 C3.06557143,14.8011813 3.05612088,14.796456 3.04667033,14.796456 L3.03727473,14.796456 L2.83436264,14.8766758 L2.74474725,14.9144231 L2.75892308,14.9521703 C2.76831868,14.9710714 2.77304396,14.9899176 2.77776923,14.9993132 C2.86271429,15.2116758 2.95705495,15.414533 3.0513956,15.6173901 C3.0702967,15.6457418 3.08447253,15.6787637 3.09859341,15.7070604 L3.18826374,15.6740385 L3.56568132,15.5371703 C3.58925275,15.5844231 3.61287912,15.6268407 3.63172527,15.6693132 L3.25903297,15.8061264 L3.16463736,15.8391484 C3.17881319,15.8675 3.19298901,15.8957967 3.21183516,15.9240934 C3.97145055,17.3583791 5.05661538,18.5898077 6.40123077,19.5334341 C7.92991209,20.5949725 9.6991978,21.2035989 11.5580989,21.3215659 L11.7185385,21.4772802 C9.76996703,21.3923352 7.90634066,20.7648626 6.31634066,19.6513462 C4.65084615,18.4906868 3.37221978,16.8865659 2.62205495,15.0087637 L2.60320879,14.9663462 L0.310186813,15.8485989 L0.329087912,15.8910714 C1.25853846,18.2217857 2.83908791,20.2128297 4.9009011,21.6517857 C6.84002198,23.0011813 9.11414286,23.7844231 11.4778791,23.9117857 L12.1526044,24.5817857 L12.1856264,24.6147527 L12.8933187,23.9117857 C15.2571099,23.7844231 17.5311758,23.0011813 19.4702967,21.6517857 C21.5321648,20.2128297 23.1173846,18.2217857 24.0468352,15.8910714 L24.061011,15.8485989 L21.768044,14.9663462 L21.7538681,15.0087637 C20.998978,16.8865659 19.7204066,18.4906868 18.0548571,19.6513462 C16.4601868,20.7648626 14.6012857,21.3923352 12.6527143,21.4772802 L12.8130989,21.3215659 C14.6720549,21.2035989 16.4412857,20.5949725 17.969967,19.5334341 C19.3146374,18.5898077 20.4044725,17.3583791 21.1593626,15.9240934 C21.1782637,15.8957967 21.1924396,15.8675 21.2065604,15.8391484 L21.1122198,15.8061264 L20.7394725,15.6693132 C20.7583736,15.6268407 20.7819451,15.5844231 20.8007912,15.5371703 L21.182989,15.6740385 L21.2726044,15.7070604 C21.2867802,15.6787637 21.3056264,15.6457418 21.3198022,15.6173901 C21.4141429,15.414533 21.5085385,15.2116758 21.5934835,14.9993132 C21.5982088,14.9899176 21.6076044,14.9710714 21.6123297,14.9521703 L21.6311758,14.9144231 L21.5368352,14.8766758 L21.333978,14.796456 L21.3198022,14.796456 C21.3150769,14.796456 21.3056264,14.8011813 21.300956,14.8059066 L21.2915055,14.8248077 C21.249033,14.8861264 21.1405165,15.0276648 20.9895824,15.0889835 C21.0130989,15.013489 21.0414505,14.9379945 21.0650769,14.8625 C21.1169451,14.8153571 21.1593626,14.7539835 21.1782637,14.7256868 L21.182989,14.7210165 C21.2254615,14.6549725 21.3056264,14.6266209 21.3811758,14.6596429 L24.2591429,15.7636538 L24.1836484,15.9476648 Z M11.3788132,22.1566758 L11.242,23.2371154 C11.2372747,23.279533 11.2137033,23.2889835 11.1854066,23.2842582 L11.0390879,23.2654121 C11.0060659,23.2607418 10.9824945,23.2465659 10.9683187,23.2182143 L10.538978,22.4775 L10.5342527,22.4775 L10.4493626,23.1427198 C10.4446374,23.180522 10.4257912,23.1899725 10.3927692,23.1852473 L10.2323297,23.1663462 C10.1945824,23.1616209 10.1757363,23.1521703 10.1851319,23.1097527 L10.3172747,22.0245879 C10.322,21.9821154 10.3455714,21.9726648 10.3833187,21.9821154 L10.5248571,21.9962363 C10.5626044,22.0009615 10.5767253,22.0151374 10.5909011,22.0434341 L11.0202418,22.7889286 L11.024967,22.7889286 L11.1098571,22.1189286 C11.1145824,22.0811813 11.1334835,22.0717308 11.1665055,22.076456 L11.3363407,22.0953571 C11.3788132,22.1000824 11.3788132,22.1283242 11.3788132,22.1566758 L11.3788132,22.1566758 Z M8.92540659,22.0670055 L9.09524176,22.208544 C9.20853846,22.3076648 9.26513187,22.4255769 9.21793407,22.5766209 C9.14716484,22.8124451 8.91128571,22.8926648 8.6848022,22.8266209 C8.57628571,22.7935989 8.45359341,22.7322802 8.35452747,22.661456 C8.33095604,22.6473901 8.32623077,22.6332143 8.33095604,22.6190385 C8.33095604,22.6095879 8.34040659,22.6001374 8.34507692,22.5907418 L8.43002198,22.4727747 C8.43947253,22.4539286 8.45359341,22.444478 8.47721978,22.4492033 C8.48189011,22.4539286 8.49134066,22.4539286 8.50079121,22.4680495 C8.57628571,22.5199725 8.66123077,22.5671703 8.74612088,22.5954121 C8.81689011,22.6143132 8.91595604,22.6048626 8.93958242,22.5246429 C8.95842857,22.4585989 8.92068132,22.4161813 8.87353846,22.3784341 L8.68007692,22.208544 C8.57628571,22.1142033 8.52436264,21.9867857 8.56683516,21.8500275 C8.63287912,21.6377198 8.88293407,21.5810714 9.0763956,21.6424451 C9.19436264,21.6754121 9.29342857,21.7272802 9.3830989,21.8028297 C9.40667033,21.8264011 9.4113956,21.8405769 9.40667033,21.8546978 C9.40667033,21.8594231 9.40194505,21.8688736 9.39249451,21.8735989 L9.30287912,21.9867857 C9.2887033,22.0104121 9.27930769,22.0151374 9.26040659,22.0104121 C9.25568132,22.0056868 9.24628571,22.0009615 9.23210989,21.991511 C9.17546154,21.9443681 9.09057143,21.8924451 9.02447253,21.8735989 C8.95842857,21.8500275 8.87353846,21.8546978 8.84991209,21.9349176 C8.83579121,21.9867857 8.89238462,22.0387088 8.92540659,22.0670055 L8.92540659,22.0670055 Z M7.94875824,22.3689835 C7.97238462,22.3784341 7.97705495,22.4020055 7.97238462,22.4255769 L7.93463736,22.510522 C7.92991209,22.5293681 7.90628571,22.543544 7.88271429,22.5293681 L7.47221978,22.3689835 C7.44864835,22.3548077 7.4391978,22.3312363 7.44392308,22.3171154 L7.48167033,22.2274451 C7.49112088,22.1990934 7.50996703,22.1943681 7.53831868,22.2038187 L7.60908791,22.2321703 L7.92991209,21.4489286 L7.84496703,21.4159066 C7.81667033,21.4017857 7.81194505,21.3782143 7.8213956,21.3593132 L7.85914286,21.2743681 C7.86386813,21.255522 7.88271429,21.2414011 7.90628571,21.2507967 L8.34040659,21.4253571 C8.36397802,21.4348077 8.37342857,21.4536538 8.3687033,21.4772802 L8.33095604,21.5622253 C8.31678022,21.590467 8.29793407,21.5951923 8.27436264,21.5857418 L8.18469231,21.5527747 L7.86859341,22.3359615 L7.94875824,22.3689835 Z M6.65601099,20.8875 C6.62771429,20.8686538 6.62298901,20.8497527 6.63716484,20.821456 L6.69848352,20.703544 C6.71265934,20.6799176 6.73150549,20.670467 6.75985714,20.6893681 L7.50996703,21.0762363 L7.59018681,21.1186538 C7.61853846,21.1328297 7.62320879,21.1517308 7.60908791,21.1706319 L7.60908791,21.1753571 L7.53359341,21.2932692 C7.50996703,21.3215659 7.4863956,21.3168407 7.4580989,21.2979945 L7.18447253,21.1611813 L6.75040659,21.9821154 C6.73150549,22.0151374 6.72683516,22.0198626 6.69375824,22.0056868 L6.5191978,21.9113462 C6.48617582,21.8971703 6.48617582,21.8924451 6.50502198,21.8594231 L6.93908791,21.0337637 L6.65601099,20.8875 Z M5.8680989,21.2507967 L5.61331868,21.0856868 L5.56145055,21.0526099 L5.39156044,21.1894231 C5.37271429,21.2035989 5.34914286,21.2130495 5.32079121,21.1941484 L5.15568132,21.0856868 C5.14150549,21.0762363 5.14150549,21.0620604 5.14623077,21.0478846 C5.15095604,21.0432143 5.15568132,21.038489 5.16040659,21.0337637 L6.11815385,20.3307418 C6.14178022,20.3166209 6.16535165,20.3118956 6.18892308,20.3260714 L6.33991209,20.4251374 C6.37293407,20.4439835 6.37765934,20.4676099 6.37293407,20.4911813 L6.12287912,21.6377198 C6.11815385,21.6517857 6.11815385,21.656511 6.11342857,21.6612363 C6.09930769,21.6801374 6.08513187,21.6895879 6.06156044,21.6754121 L5.90112088,21.5669505 C5.86337363,21.5433242 5.86337363,21.5196978 5.8680989,21.491456 L5.92002198,21.288544 L5.8680989,21.2507967 Z M4.91974725,20.3166209 L4.80656044,20.085467 C4.74051648,19.9580495 4.74524176,19.8259615 4.83485714,19.7126648 C4.9763956,19.5381593 5.22645055,19.5805769 5.38683516,19.7079945 C5.48123077,19.7881593 5.552,19.8731044 5.60859341,19.9768956 C5.62276923,20.0052473 5.62276923,20.0194231 5.61331868,20.0288187 C5.60859341,20.0382143 5.5991978,20.0429396 5.58974725,20.0476648 L5.46232967,20.1184341 C5.44348352,20.1278846 5.42930769,20.1278846 5.41518681,20.1184341 C5.41046154,20.1137088 5.40573626,20.1042582 5.39628571,20.0949176 C5.36326374,20.0240934 5.30667033,19.9485989 5.25007692,19.9061264 C5.19815385,19.8589835 5.11793407,19.8306868 5.06601099,19.8920055 C5.03298901,19.9392033 5.06601099,20.0052473 5.08491209,20.0523901 L5.18397802,20.2458516 C5.25007692,20.3779396 5.25947253,20.5053571 5.16040659,20.6280495 C5.00469231,20.821456 4.75936264,20.8072802 4.57062637,20.6610165 C4.48568132,20.5902473 4.39134066,20.486456 4.33002198,20.3873901 C4.31112088,20.3590934 4.31112088,20.3449176 4.3252967,20.335467 C4.33002198,20.3260714 4.33947253,20.3213462 4.34886813,20.3166209 L4.47156044,20.236456 C4.49040659,20.2270055 4.50458242,20.2175549 4.52342857,20.2317308 C4.52815385,20.2411264 4.53287912,20.2458516 4.5376044,20.2552473 C4.5848022,20.335467 4.65084615,20.4109615 4.71689011,20.4676099 C4.77353846,20.5147527 4.86787912,20.5431044 4.92447253,20.4770604 C4.96221978,20.4251374 4.94337363,20.368544 4.91974725,20.3166209 L4.91974725,20.3166209 Z M3.72612088,19.5617308 C3.74969231,19.5853022 3.74496703,19.6089286 3.7213956,19.6325 L3.62705495,19.7221154 C3.5987033,19.7457418 3.57513187,19.7410165 3.55150549,19.7173901 L3.10331868,19.2361813 C3.07974725,19.2078846 3.07502198,19.1889835 3.10804396,19.1607418 L3.91952747,18.4152473 C3.9430989,18.3963462 3.96672527,18.3963462 3.9902967,18.4199725 L4.10826374,18.5473352 C4.13183516,18.5756319 4.13656044,18.594533 4.10826374,18.6181593 L3.42886813,19.2409066 L3.72612088,19.5617308 Z M2.86738462,18.6747527 C2.88156044,18.6983242 2.87210989,18.7218956 2.85326374,18.7360714 L2.78249451,18.7926648 C2.76831868,18.8021154 2.74002198,18.8021154 2.7259011,18.7879396 L2.45694505,18.4340934 C2.43804396,18.410522 2.44749451,18.3869505 2.45694505,18.3775 L2.53243956,18.3208516 C2.55601099,18.3020055 2.57963736,18.3067308 2.59375824,18.3255769 L2.64568132,18.3916758 L3.32035165,17.8726648 L3.26375824,17.8018956 C3.24485714,17.7782692 3.25430769,17.7546978 3.27315385,17.7405769 L3.34864835,17.6886538 C3.36282418,17.674533 3.3863956,17.674533 3.40057143,17.6933791 L3.68364835,18.0614011 C3.70254945,18.0803022 3.69782418,18.1038187 3.68364835,18.1179945 L3.60815385,18.1698626 C3.58458242,18.193489 3.56095604,18.1840385 3.54683516,18.1651374 L3.48546154,18.0943681 L2.81079121,18.6039835 L2.86738462,18.6747527 Z M2.35787912,16.9762363 L1.78227473,17.3300824 C1.74925275,17.3489286 1.73035165,17.339533 1.71150549,17.3111813 L1.62656044,17.1743681 C1.60298901,17.1414011 1.60298901,17.1225 1.63601099,17.0988736 L2.57491209,16.5280495 C2.61738462,16.5044231 2.63150549,16.5185989 2.65513187,16.5468407 L2.73057143,16.6695879 C2.74474725,16.7025549 2.74947253,16.721456 2.7352967,16.7497527 L2.41447253,17.5517857 L2.9948022,17.1979945 C3.02782418,17.1790934 3.0513956,17.188544 3.06557143,17.2168407 L3.15524176,17.3631044 C3.17881319,17.4008516 3.15996703,17.4149725 3.13634066,17.4291484 L2.19743956,18.0000824 C2.15969231,18.0235989 2.14557143,18.0142033 2.12667033,17.9859066 L2.05117582,17.858489 C2.03232967,17.8349176 2.03232967,17.8066209 2.04172527,17.7782692 L2.35787912,16.9809615 L2.35787912,16.9762363 Z M12.9499121,22.411456 C12.9593626,22.4680495 13.0301319,22.4916758 13.0726044,22.510522 L13.2801868,22.5860165 C13.4217253,22.6332143 13.5161209,22.7181593 13.5302967,22.878544 C13.5491429,23.1238736 13.3604066,23.2842582 13.1245275,23.3031593 C13.0112308,23.3126099 12.8744176,23.2984341 12.7565055,23.2701374 C12.7282088,23.2654121 12.7187582,23.2512912 12.7187582,23.2371154 C12.7187582,23.2276648 12.7187582,23.2182143 12.7234835,23.2087637 L12.7612308,23.0625 C12.7612308,23.0483791 12.7706813,23.029533 12.7942527,23.029533 C12.7989231,23.029533 12.8130989,23.029533 12.8225495,23.0342582 C12.9122198,23.0625 13.0112308,23.0719505 13.0961758,23.0672253 C13.1716703,23.0625 13.2566154,23.0153571 13.2518901,22.9304121 C13.2471648,22.8643681 13.1905714,22.8407967 13.1339231,22.8171703 L12.898044,22.7275549 C12.7612308,22.6803571 12.6715604,22.5812912 12.6574396,22.4350275 C12.6385385,22.2179945 12.8509011,22.0717308 13.0537582,22.0575549 C13.1811209,22.0481593 13.2896374,22.0622802 13.4028242,22.1000824 C13.4311758,22.109533 13.4406264,22.1189286 13.4453516,22.1377747 C13.4453516,22.1425 13.4406264,22.1519505 13.4406264,22.1661264 L13.3934835,22.3029396 C13.3887582,22.326511 13.3793077,22.3312363 13.3651319,22.3359615 C13.3556813,22.3359615 13.3462308,22.3312363 13.3321099,22.3312363 C13.2566154,22.3076648 13.1622747,22.2840385 13.0914505,22.293489 C13.0206813,22.2982143 12.9451868,22.3312363 12.9499121,22.411456 L12.9499121,22.411456 Z M14.3559011,22.9398626 L14.4408462,22.9257418 C14.4691978,22.9257418 14.487989,22.9398626 14.4927143,22.963489 L14.5068901,23.0531044 C14.5116154,23.0766758 14.4974396,23.0955769 14.4739231,23.1003022 L14.0350769,23.1757967 C14.0115055,23.180522 13.9879341,23.1663462 13.9879341,23.1474451 L13.969033,23.0531044 C13.9643077,23.0248077 13.9784835,23.0059066 14.0021099,23.0011813 L14.0822747,22.9870604 L13.9406813,22.1566758 L13.8463956,22.1708516 C13.818044,22.1755769 13.8039231,22.1566758 13.7991978,22.1330495 L13.7803516,22.0434341 C13.7803516,22.0245879 13.7897473,22.0056868 13.8133187,22.0009615 L14.2757363,21.9207418 C14.2993077,21.9160714 14.3182088,21.9349176 14.3229341,21.9490934 L14.3370549,22.0434341 C14.3417802,22.0717308 14.3276044,22.0906319 14.304033,22.0953571 L14.2096923,22.109533 L14.3559011,22.9398626 Z M15.6486484,21.5291484 C15.9978242,21.4159066 16.2573297,21.6093681 16.3657912,21.9396429 C16.4932637,22.3076648 16.3516703,22.6095879 16.0402418,22.7134341 C15.710022,22.8218956 15.4457912,22.6521154 15.3278791,22.2982143 C15.2051868,21.9490934 15.3231538,21.6377198 15.6486484,21.5291484 L15.6486484,21.5291484 Z M18.4606264,21.5150275 C18.4842527,21.5527747 18.4795275,21.5575 18.4511758,21.5763462 L18.2813407,21.6754121 C18.253044,21.6943132 18.2483187,21.6895879 18.2247473,21.6612363 L17.7434835,20.8592033 L17.4698571,21.0196429 C17.4415055,21.038489 17.417989,21.0337637 17.4038132,21.0007418 L17.3377692,20.8922253 C17.3188681,20.8639286 17.3283187,20.8450275 17.3566154,20.8309066 L18.0832088,20.4015659 L18.1587033,20.3543681 C18.187,20.3401923 18.2011758,20.3449176 18.2152967,20.3638187 L18.2152967,20.368544 L18.2766703,20.4959066 C18.2907912,20.5242033 18.2766703,20.5431044 18.2435934,20.5620055 L17.9793626,20.7176648 L18.4606264,21.5150275 Z M19.3476593,20.7554121 L19.4184286,20.7082692 C19.4420549,20.6893681 19.4655714,20.6988187 19.4797473,20.7176648 L19.5316154,20.7931593 C19.5457912,20.8072802 19.5457912,20.8309066 19.5268901,20.8450275 L19.1683736,21.1092582 C19.1447473,21.1233791 19.1211758,21.1186538 19.1070549,21.1045879 L19.0551319,21.0290385 C19.0362857,21.005467 19.041011,20.9818407 19.0598022,20.9677198 L19.1259011,20.920522 L18.6210659,20.2411264 L18.5455714,20.2977747 C18.5219451,20.3118956 18.4984286,20.3025 18.4842527,20.2835989 L18.4323846,20.2128297 C18.4182088,20.1939286 18.4182088,20.1704121 18.4370549,20.1562363 L18.8145275,19.8825549 C18.8333736,19.8683791 18.8569451,19.8683791 18.8711209,19.8872802 L18.9277143,19.9627747 C18.9418901,19.9863462 18.9418901,20.0052473 18.9182637,20.0240934 L18.8428242,20.0760165 L19.3476593,20.7554121 Z M19.8618901,19.0379945 C19.8524945,19.0097527 19.8571648,18.9814011 19.8855165,18.9531044 L19.9704615,18.8728846 C19.9987033,18.8493132 20.0176044,18.8540385 20.0365055,18.8728846 L20.8338681,19.6418956 C20.8338681,19.6466209 20.8385934,19.6466209 20.8385934,19.6466209 C20.8574396,19.6702473 20.8574396,19.6938736 20.8338681,19.7126648 L20.7064505,19.8306868 C20.6734286,19.8637088 20.6498571,19.8542582 20.6167802,19.816511 L20.1968901,19.3966209 L20.4280989,20.033544 C20.4422747,20.0665659 20.4280989,20.085467 20.4139231,20.0995879 L20.3667802,20.1420604 C20.3384286,20.1656868 20.3243077,20.1750824 20.2865604,20.1609615 L19.6401868,19.9061264 L19.6354615,19.9108516 L20.045956,20.3638187 C20.0789231,20.4015659 20.0647473,20.4156868 20.0365055,20.4439835 L19.9326593,20.5383791 C19.9044176,20.5666758 19.8807912,20.5714011 19.8571648,20.5431044 L19.8524945,20.5383791 L19.1447473,19.7079945 C19.1165055,19.6749725 19.1211758,19.6560714 19.1447473,19.6325 L19.2391429,19.5476099 C19.2674396,19.5192582 19.291011,19.5192582 19.324033,19.5334341 L20.1355714,19.849533 L20.1402967,19.8448077 L19.8618901,19.0379945 Z M21.2207363,18.4246429 L20.7536484,18.0472253 C20.7300769,18.0235989 20.7347473,18.0000824 20.7536484,17.976456 L20.8621648,17.8443681 C20.8857363,17.8207418 20.9046374,17.8113462 20.9328791,17.8349176 L21.4094176,18.226511 C21.7066703,18.4765659 21.7161209,18.7407967 21.4990879,18.9908516 C21.2726044,19.264478 21.0178242,19.264478 20.7347473,19.0332692 L20.2582637,18.6416758 C20.2299121,18.6181593 20.2393626,18.5898077 20.2582637,18.5661813 L20.3667802,18.4388187 C20.3903516,18.410522 20.4044725,18.4057967 20.4328242,18.4293681 L20.8951868,18.8068407 C21.1074945,18.9814011 21.2254615,18.9578297 21.3292527,18.8351374 C21.4283187,18.7171703 21.4283187,18.594533 21.2207363,18.4246429 L21.2207363,18.4246429 Z M21.6595275,16.7356319 C21.6453516,16.7072802 21.6406264,16.6837088 21.6595275,16.6506868 L21.7255714,16.5468407 C21.7396923,16.5185989 21.7585934,16.5138736 21.7868901,16.5327198 L22.7588132,17.0659066 C22.7918352,17.0846978 22.7965604,17.1083242 22.7777143,17.1319505 L22.6833187,17.2782143 C22.6644725,17.3159066 22.6361209,17.3159066 22.5984286,17.2923352 L22.0794176,16.9951374 L22.0747473,16.9951374 L22.471011,17.5471154 C22.4945824,17.5754121 22.4851319,17.5990385 22.471011,17.6178297 L22.437989,17.6698077 C22.4238132,17.6980495 22.404967,17.7122253 22.3672198,17.7075 L21.6783736,17.6320055 L21.6736484,17.6367308 L22.1879341,17.9670055 C22.2304066,17.9906319 22.2256813,18.0142033 22.2021099,18.0425 L22.1266154,18.1651374 C22.1077143,18.1982143 22.0840879,18.2076648 22.0511209,18.1840385 L21.1452418,17.5706868 C21.1122198,17.5423901 21.1122198,17.523544 21.1263956,17.4951923 L21.1924396,17.3914011 C21.216011,17.3536538 21.2348571,17.3489286 21.2726044,17.3536538 L22.1407912,17.4433242 L22.1454615,17.4385989 L21.6595275,16.7356319 Z M17.333044,21.2790934 C17.450956,21.5291484 17.3188681,21.741456 17.0782637,21.8500275 C17.0593626,21.8594231 17.0074945,21.8829945 16.9885934,21.8877198 L17.1395824,22.208544 C17.1537582,22.2368956 17.149033,22.2557418 17.1112857,22.2745879 L16.9556264,22.3454121 C16.9272747,22.359533 16.9036484,22.3548077 16.8895275,22.3218407 L16.4224396,21.3310165 C16.4035934,21.2932692 16.413044,21.2790934 16.446011,21.2602473 L16.6961209,21.1470055 C16.8754066,21.0620604 17.0169451,21.038489 17.1395824,21.0856868 C17.2245275,21.1233791 17.2952967,21.1941484 17.333044,21.2790934 L17.333044,21.2790934 Z" id="Fill-39" fill="#274488" mask="url(#mask-2)"></path>
                    </g>
                    <path id="Fill-42" fill="#274488"></path>
                    <path d="M21.1872308,3.6336044 L17.9648132,0.698934066 C17.2051429,1.19431868 16.2143736,1.4962967 15.1244835,1.4962967 C13.9874505,1.4962967 12.9541538,1.16602198 12.1851429,0.628164835 C11.4161319,1.16602198 10.3828352,1.4962967 9.2458022,1.4962967 C8.15591209,1.4962967 7.16508791,1.19431868 6.4101978,0.698934066 L3.18305495,3.6336044 C3.18305495,3.6336044 4.74003297,5.11036264 4.74948352,6.30404396 C4.75415385,7.5023956 4.40030769,8.46964835 3.96151648,9.69157143 C3.80113187,10.1492637 3.6123956,10.8711319 3.52272527,11.7061868 C3.50387912,11.8666264 3.48497802,12.0411868 3.47558242,12.2157473 C3.46613187,12.3714615 3.46613187,12.5319011 3.46140659,12.6923407 C3.45668132,13.6831099 3.62657143,14.7399231 4.12668132,15.6551978 C4.20217582,15.7920659 4.2823956,15.9241538 4.37201099,16.0515714 C4.63151648,16.4243187 6.74047253,19.9156374 11.2179451,20.3733297 L11.2367912,20.3874505 L12.1851429,21.3358022 L13.1382198,20.3874505 L13.1523407,20.3733297 C17.6298132,19.9156374 19.7387692,16.4243187 19.9982747,16.0515714 C20.0878901,15.9241538 20.1728352,15.7920659 20.2436044,15.6551978 C20.7437692,14.7399231 20.9136044,13.6831099 20.9088791,12.6923407 C20.9088791,12.5319011 20.9041538,12.3714615 20.8947033,12.2157473 C20.8852527,12.0411868 20.8664066,11.8666264 20.8522308,11.7061868 C20.7578901,10.8711319 20.5738791,10.1492637 20.4087143,9.69157143 C19.9747033,8.46964835 19.6160769,7.5023956 19.6255275,6.30404396 C19.6302527,5.11036264 21.1872308,3.6336044 21.1872308,3.6336044 L21.1872308,3.6336044 Z M18.8281648,3.61942857 C18.8517912,3.72321978 18.8328901,3.86481319 18.7621209,4.00162637 C18.6960769,4.13843956 18.6016813,4.23750549 18.5167912,4.27525275 C18.4932198,4.17146154 18.5120659,4.02992308 18.5781648,3.89310989 C18.6442088,3.75624176 18.7385495,3.65717582 18.8281648,3.61942857 L18.8281648,3.61942857 Z M18.228989,4.18085714 C18.1629451,4.06294505 18.1393187,3.93558242 18.1534945,3.84118681 C18.2337143,3.86948352 18.3233846,3.95442857 18.3894286,4.0723956 C18.4554725,4.19030769 18.4837692,4.313 18.4648681,4.4073956 C18.3847033,4.38376923 18.295033,4.29882418 18.228989,4.18085714 L18.228989,4.18085714 Z M18.3139341,4.78481319 C18.2903077,4.94052747 18.228989,5.06789011 18.1534945,5.13393407 C18.1063516,5.04431868 18.0827253,4.90278022 18.1063516,4.74706593 C18.1298681,4.59607692 18.1912418,4.46871429 18.2667363,4.40267033 C18.3139341,4.49228571 18.3375055,4.63382418 18.3139341,4.78481319 L18.3139341,4.78481319 Z M18.5403626,4.4073956 C18.630033,4.28942857 18.7385495,4.21393407 18.8328901,4.19975824 C18.8376154,4.30354945 18.7904725,4.43569231 18.7008022,4.55832967 C18.6111319,4.6762967 18.5026703,4.75179121 18.4082747,4.77063736 C18.4035495,4.66212088 18.4507473,4.53003297 18.5403626,4.4073956 L18.5403626,4.4073956 Z M18.563989,3.25613187 C18.6111319,3.3458022 18.6347582,3.48734066 18.6111319,3.643 C18.5876154,3.79398901 18.5215165,3.92140659 18.4507473,3.98745055 C18.3988242,3.89783516 18.379978,3.75624176 18.4035495,3.60058242 C18.4271758,3.44959341 18.4884945,3.32223077 18.563989,3.25613187 L18.563989,3.25613187 Z M18.2997582,2.80321978 C18.3658022,2.87871429 18.413,3.0108022 18.4224505,3.17118681 C18.4271758,3.32223077 18.3940989,3.46376923 18.3375055,3.54393407 C18.2667363,3.46843956 18.2195385,3.33635165 18.2148132,3.18536264 C18.2053626,3.02497802 18.2384396,2.88816484 18.2997582,2.80321978 L18.2997582,2.80321978 Z M18.346956,3.80816484 C18.262011,3.81289011 18.1534945,3.76569231 18.0544286,3.68074725 C17.9553626,3.59113187 17.893989,3.48261538 17.8798681,3.38827473 C17.9648132,3.38354945 18.0732747,3.43074725 18.1723956,3.51563736 C18.2714615,3.60525275 18.3327802,3.71376923 18.346956,3.80816484 L18.346956,3.80816484 Z M17.7666264,2.77492308 C17.860967,2.80321978 17.9648132,2.88816484 18.045033,3.01552747 C18.1251978,3.14289011 18.1582198,3.28448352 18.1487692,3.38827473 C18.0544286,3.36464835 17.9506374,3.27975824 17.8704176,3.14761538 C17.7901978,3.02497802 17.7571758,2.88343956 17.7666264,2.77492308 L17.7666264,2.77492308 Z M17.8279451,5.30376923 C17.893989,5.16695604 17.9836593,5.06789011 18.0732747,5.03014286 C18.0969011,5.12920879 18.078,5.27547253 18.0166813,5.41234066 C17.9506374,5.54915385 17.8562418,5.64821978 17.7713516,5.68596703 C17.743,5.58684615 17.7619011,5.44536264 17.8279451,5.30376923 L17.8279451,5.30376923 Z M17.8138242,5.8558022 C17.9506374,5.8747033 18.0685495,5.93602198 18.1298681,6.01151648 C18.0544286,6.07283516 17.927011,6.10585714 17.7901978,6.08701099 C17.6487143,6.06810989 17.5306923,6.00679121 17.4693736,5.92657143 C17.5448681,5.86525275 17.6722308,5.83695604 17.8138242,5.8558022 L17.8138242,5.8558022 Z M17.3467363,5.67179121 C17.4646484,5.58684615 17.5872857,5.54915385 17.6816813,5.56327473 C17.6581099,5.66706593 17.5779451,5.78503297 17.4646484,5.86525275 C17.3467363,5.95492308 17.2193187,5.99261538 17.1249231,5.97376923 C17.1485495,5.8747033 17.2287692,5.76146154 17.3467363,5.67179121 L17.3467363,5.67179121 Z M16.9598681,6.10113187 C16.9928352,6.08228571 17.0306374,6.06810989 17.0683297,6.04926374 C17.0730549,6.04926374 17.0730549,6.04453846 17.0777802,6.04453846 C17.1627253,6.01151648 17.2712418,6.00206593 17.3844286,6.03508791 C17.5212418,6.06810989 17.6345385,6.1436044 17.6911319,6.22854945 C17.6061868,6.28041758 17.4740989,6.29459341 17.342011,6.26157143 C17.2098681,6.22854945 17.1014066,6.15772527 17.0447582,6.07283516 C17.0259121,6.09168132 17.0117363,6.10585714 16.9928352,6.12003297 C17.1485495,6.20964835 17.2806374,6.32761538 17.3938791,6.4786044 C17.3467363,6.54937363 17.3278352,6.5823956 17.2806374,6.65316484 C17.1956923,6.4597033 17.0872308,6.29459341 16.9598681,6.15772527 C16.8371758,6.29459341 16.7427802,6.45503297 16.6531099,6.65316484 C16.6106923,6.5823956 16.5870659,6.54464835 16.5446484,6.47387912 C16.6578352,6.32289011 16.7758571,6.20964835 16.9220659,6.12003297 C16.9079451,6.10585714 16.889044,6.09168132 16.8749231,6.07756044 C16.8135495,6.15772527 16.7098132,6.22854945 16.5776154,6.26157143 C16.4408571,6.29459341 16.3134396,6.28041758 16.2285495,6.22854945 C16.2851429,6.1436044 16.3936593,6.06810989 16.5304725,6.03508791 C16.6437143,6.00206593 16.7522308,6.01151648 16.8371758,6.04453846 C16.9126154,6.07283516 16.9598681,6.10113187 16.9598681,6.10113187 L16.9598681,6.10113187 Z M16.5823407,5.67179121 C16.6956374,5.76146154 16.7758571,5.8747033 16.7994286,5.97376923 C16.7050879,5.99261538 16.5823407,5.95492308 16.4644286,5.86525275 C16.3464615,5.78503297 16.2662418,5.66706593 16.2426703,5.56327473 C16.3370659,5.54915385 16.4644286,5.58684615 16.5823407,5.67179121 L16.5823407,5.67179121 Z M16.454978,5.92657143 C16.3936593,6.00679121 16.2756923,6.06810989 16.1388791,6.08701099 C15.9973407,6.10585714 15.8747033,6.07283516 15.7944835,6.01151648 C15.8605275,5.93602198 15.9737143,5.8747033 16.1152527,5.8558022 C16.2521209,5.83695604 16.3794835,5.86525275 16.454978,5.92657143 L16.454978,5.92657143 Z M15.4594835,4.4073956 C15.4453077,4.313 15.4689341,4.19030769 15.534978,4.0723956 C15.601022,3.95442857 15.6906923,3.86948352 15.7755824,3.84118681 C15.7897582,3.93558242 15.7614615,4.06294505 15.6954176,4.18085714 C15.6293736,4.29882418 15.5397033,4.38376923 15.4594835,4.4073956 L15.4594835,4.4073956 Z M15.5160769,4.77063736 C15.4264615,4.75179121 15.3132198,4.6762967 15.2236044,4.55832967 C15.1339341,4.43569231 15.0867912,4.30354945 15.0915165,4.19975824 C15.1858022,4.21393407 15.2943736,4.28942857 15.383989,4.4073956 C15.4736593,4.53003297 15.5208022,4.66212088 15.5160769,4.77063736 L15.5160769,4.77063736 Z M15.6623407,4.40267033 C15.7378352,4.46871429 15.7991538,4.59607692 15.8180549,4.74706593 C15.8416264,4.90278022 15.8227802,5.04431868 15.7708571,5.13393407 C15.6954176,5.06789011 15.6340989,4.94052747 15.6151978,4.78481319 C15.5915714,4.63382418 15.6104725,4.49228571 15.6623407,4.40267033 L15.6623407,4.40267033 Z M15.8605275,5.49723077 C15.7661868,5.5208022 15.6387692,5.49250549 15.5160769,5.41234066 C15.3934396,5.33684615 15.3084945,5.22827473 15.2801978,5.12920879 C15.3745385,5.10563736 15.5019011,5.13393407 15.6199231,5.21415385 C15.7425604,5.28964835 15.8275055,5.39816484 15.8605275,5.49723077 L15.8605275,5.49723077 Z M15.7897582,5.57272527 C15.9265714,5.60102198 16.0397582,5.67179121 16.0964615,5.75201099 C16.0162418,5.8086044 15.8888242,5.83223077 15.752011,5.80393407 C15.6151978,5.77558242 15.5019011,5.70481319 15.4405824,5.62459341 C15.5255275,5.568 15.6528901,5.54442857 15.7897582,5.57272527 L15.7897582,5.57272527 Z M16.1577802,5.68596703 C16.0681099,5.64821978 15.9737143,5.54915385 15.9123956,5.41234066 C15.8463516,5.27547253 15.8275055,5.12920879 15.8510769,5.03014286 C15.9407473,5.06789011 16.0350879,5.16695604 16.0964615,5.30376923 C16.1625055,5.44536264 16.1813516,5.58684615 16.1577802,5.68596703 L16.1577802,5.68596703 Z M15.8840989,3.01552747 C15.9643187,2.88816484 16.0681099,2.80321978 16.1577802,2.77492308 C16.171956,2.88343956 16.1341538,3.02497802 16.0586593,3.14761538 C15.9737143,3.27975824 15.8747033,3.36464835 15.7803077,3.38827473 C15.7708571,3.28448352 15.8038791,3.14289011 15.8840989,3.01552747 L15.8840989,3.01552747 Z M15.752011,3.51563736 C15.8510769,3.43074725 15.9595934,3.38354945 16.0492088,3.38827473 C16.0304176,3.48261538 15.969044,3.59113187 15.8747033,3.68074725 C15.7755824,3.76569231 15.6623407,3.81289011 15.5773956,3.80816484 C15.5915714,3.71376923 15.6576154,3.60525275 15.752011,3.51563736 L15.752011,3.51563736 Z M15.5066264,3.17118681 C15.5160769,3.0108022 15.5633297,2.87871429 15.6293736,2.80321978 C15.6906923,2.88816484 15.7236593,3.02497802 15.7142637,3.18536264 C15.7048132,3.33635165 15.6576154,3.46843956 15.5915714,3.54393407 C15.5302527,3.46376923 15.4972308,3.32223077 15.5066264,3.17118681 L15.5066264,3.17118681 Z M15.3651429,3.25613187 C15.4405824,3.32223077 15.5019011,3.44959341 15.5255275,3.60058242 C15.5491538,3.75624176 15.5302527,3.89783516 15.4783846,3.98745055 C15.4028901,3.92140659 15.3415165,3.79398901 15.3179451,3.643 C15.2943736,3.48734066 15.3132198,3.3458022 15.3651429,3.25613187 L15.3651429,3.25613187 Z M15.0962418,3.61942857 C15.1858022,3.65717582 15.2801978,3.75624176 15.3462418,3.89310989 C15.4122857,4.02992308 15.4358571,4.17146154 15.4122857,4.27525275 C15.3226703,4.23750549 15.2283297,4.13843956 15.1622857,4.00162637 C15.0962418,3.86481319 15.0726154,3.72321978 15.0962418,3.61942857 L15.0962418,3.61942857 Z M15.383989,4.76591209 C15.5019011,4.84613187 15.5915714,4.95464835 15.6199231,5.05371429 C15.5255275,5.07261538 15.3981648,5.04431868 15.2801978,4.96882418 C15.1575604,4.89332967 15.0678901,4.78481319 15.0395385,4.68096703 C15.1339341,4.66212088 15.2612967,4.69041758 15.383989,4.76591209 L15.383989,4.76591209 Z M10.028989,6.5069011 L11.9633846,2.39745055 C11.8926154,2.24173626 12.0105824,2.04832967 12.1615165,2.04832967 C12.3125055,2.04832967 12.4540989,2.24173626 12.3833297,2.39272527 L14.3318462,6.4786044 C14.6621209,6.63898901 14.8083846,6.8419011 14.7895385,6.97871429 C14.7753626,7.12497802 14.6715714,7.21459341 14.5489341,7.26179121 C14.5583297,8.00256044 14.5253077,10.6304725 14.5347582,12.1308571 C14.6998681,12.1686044 14.6998681,12.3431648 14.6857473,12.9093187 C14.6762967,13.4519011 14.7234396,13.6359121 14.3648681,13.6359121 C14.3177253,13.6359121 14.2233846,13.6312418 14.2233846,13.6312418 L14.2233846,13.4471758 C14.2186593,13.3528352 14.2186593,13.3245385 14.1667363,13.3056374 C14.0157473,13.2443187 13.8553626,13.1923956 13.6808022,13.1216264 C13.5580549,13.0792088 9.86854945,11.7581099 9.86854945,11.7581099 C9.86854945,11.7581099 9.69871429,11.7109121 9.69871429,11.5458022 C9.69871429,11.5316813 9.69398901,11.3900879 9.69398901,11.3429451 L9.69398901,10.8144835 C9.69398901,10.6776703 9.78365934,10.6304725 9.86387912,10.6399231 C9.86854945,10.6399231 9.86854945,10.6258022 9.86854945,10.6163516 C9.86387912,10.1303626 9.85915385,7.58734066 9.85915385,7.31838462 C9.68926374,7.26651648 9.64206593,7.14854945 9.64206593,7.14854945 C9.5619011,6.97398901 9.64679121,6.70975824 10.028989,6.5069011 L10.028989,6.5069011 Z M8.85420879,5.41234066 C8.73624176,5.49250549 8.6040989,5.5208022 8.51448352,5.49723077 C8.54278022,5.39816484 8.62772527,5.28964835 8.75036264,5.21415385 C8.87305495,5.13393407 9.00041758,5.10563736 9.09008791,5.12920879 C9.06179121,5.22827473 8.97684615,5.33684615 8.85420879,5.41234066 L8.85420879,5.41234066 Z M8.92964835,5.62459341 C8.87305495,5.70481319 8.75981319,5.77558242 8.61827473,5.80393407 C8.48146154,5.83223077 8.3540989,5.8086044 8.27387912,5.75201099 C8.33047253,5.67179121 8.44371429,5.60102198 8.58525275,5.57272527 C8.72206593,5.54442857 8.84948352,5.568 8.92964835,5.62459341 L8.92964835,5.62459341 Z M8.91552747,4.4073956 C8.83058242,4.38376923 8.74096703,4.29882418 8.67486813,4.18085714 C8.60882418,4.06294505 8.58525275,3.93558242 8.59937363,3.84118681 C8.67959341,3.86948352 8.76926374,3.95442857 8.83530769,4.0723956 C8.90135165,4.19030769 8.92964835,4.313 8.91552747,4.4073956 L8.91552747,4.4073956 Z M8.9862967,4.4073956 C9.07591209,4.28942857 9.18442857,4.21393407 9.27882418,4.19975824 C9.28354945,4.30354945 9.23635165,4.43569231 9.14668132,4.55832967 C9.05706593,4.6762967 8.94854945,4.75179121 8.85420879,4.77063736 C8.85420879,4.66212088 8.89662637,4.53003297 8.9862967,4.4073956 L8.9862967,4.4073956 Z M8.71261538,4.40267033 C8.75981319,4.49228571 8.78338462,4.63382418 8.75981319,4.78481319 C8.73624176,4.94052747 8.67486813,5.06789011 8.59937363,5.13393407 C8.55223077,5.04431868 8.5286044,4.90278022 8.55223077,4.74706593 C8.5758022,4.59607692 8.63712088,4.46871429 8.71261538,4.40267033 L8.71261538,4.40267033 Z M8.75508791,5.05371429 C8.78338462,4.95464835 8.86832967,4.84613187 8.99102198,4.76591209 C9.11365934,4.69041758 9.23635165,4.66212088 9.33069231,4.68096703 C9.3023956,4.78481319 9.21745055,4.89332967 9.09481319,4.96882418 C8.97212088,5.04431868 8.84475824,5.07261538 8.75508791,5.05371429 L8.75508791,5.05371429 Z M9.2740989,3.61942857 C9.29767033,3.72321978 9.27882418,3.86481319 9.21272527,4.00162637 C9.14668132,4.13843956 9.04761538,4.23750549 8.96272527,4.27525275 C8.9390989,4.17146154 8.958,4.02992308 9.02404396,3.89310989 C9.09008791,3.75624176 9.18442857,3.65717582 9.2740989,3.61942857 L9.2740989,3.61942857 Z M9.00986813,3.25613187 C9.06179121,3.3458022 9.08063736,3.48734066 9.05706593,3.643 C9.03343956,3.79398901 8.9673956,3.92140659 8.89662637,3.98745055 C8.84475824,3.89783516 8.82585714,3.75624176 8.84948352,3.60058242 C8.87305495,3.44959341 8.93437363,3.32223077 9.00986813,3.25613187 L9.00986813,3.25613187 Z M8.74096703,2.80321978 C8.81173626,2.87871429 8.85893407,3.0108022 8.8636044,3.17118681 C8.87778022,3.32223077 8.84003297,3.46376923 8.78338462,3.54393407 C8.71734066,3.46843956 8.66547253,3.33635165 8.65602198,3.18536264 C8.6512967,3.02497802 8.68431868,2.88816484 8.74096703,2.80321978 L8.74096703,2.80321978 Z M8.79283516,3.80816484 C8.70789011,3.81289011 8.59937363,3.76569231 8.50030769,3.68074725 C8.40124176,3.59113187 8.33992308,3.48261538 8.32574725,3.38827473 C8.41069231,3.38354945 8.51920879,3.43074725 8.61827473,3.51563736 C8.71734066,3.60525275 8.77871429,3.71376923 8.79283516,3.80816484 L8.79283516,3.80816484 Z M8.21250549,2.77492308 C8.3069011,2.80321978 8.41069231,2.88816484 8.49091209,3.01552747 C8.56635165,3.14289011 8.6040989,3.28448352 8.58997802,3.38827473 C8.50030769,3.36464835 8.39651648,3.27975824 8.31635165,3.14761538 C8.23613187,3.02497802 8.20305495,2.88343956 8.21250549,2.77492308 L8.21250549,2.77492308 Z M8.27387912,5.30376923 C8.33992308,5.16695604 8.42953846,5.06789011 8.51920879,5.03014286 C8.54278022,5.12920879 8.52393407,5.27547253 8.45789011,5.41234066 C8.39651648,5.54915385 8.30217582,5.64821978 8.21250549,5.68596703 C8.19365934,5.58684615 8.20778022,5.44536264 8.27387912,5.30376923 L8.27387912,5.30376923 Z M8.2597033,5.8558022 C8.39651648,5.8747033 8.51448352,5.93602198 8.58052747,6.01151648 C8.50030769,6.07283516 8.37294505,6.10585714 8.23140659,6.08701099 C8.09453846,6.06810989 7.97662637,6.00679121 7.91530769,5.92657143 C7.99074725,5.86525275 8.11816484,5.83695604 8.2597033,5.8558022 L8.2597033,5.8558022 Z M7.79261538,5.67179121 C7.91058242,5.58684615 8.03321978,5.54915385 8.12756044,5.56327473 C8.10398901,5.66706593 8.02376923,5.78503297 7.91058242,5.86525275 C7.79261538,5.95492308 7.6651978,5.99261538 7.57558242,5.97376923 C7.59442857,5.8747033 7.67464835,5.76146154 7.79261538,5.67179121 L7.79261538,5.67179121 Z M7.29723077,6.04453846 C7.30195604,6.04453846 7.30195604,6.04926374 7.30195604,6.04926374 C7.3397033,6.06810989 7.37745055,6.08228571 7.4151978,6.10113187 C7.4151978,6.10113187 7.45761538,6.07283516 7.53783516,6.04453846 C7.61805495,6.01151648 7.72657143,6.00206593 7.83981319,6.03508791 C7.97662637,6.06810989 8.08514286,6.1436044 8.14173626,6.22854945 C8.06151648,6.28041758 7.93415385,6.29459341 7.79261538,6.26157143 C7.6651978,6.22854945 7.55668132,6.15772527 7.50008791,6.07756044 C7.48124176,6.09168132 7.46706593,6.10585714 7.44821978,6.12003297 C7.59442857,6.20964835 7.7123956,6.32289011 7.83036264,6.47387912 C7.78316484,6.54464835 7.76431868,6.5823956 7.71712088,6.65316484 C7.62745055,6.45503297 7.53783516,6.29459341 7.4151978,6.15772527 C7.28778022,6.29459341 7.17926374,6.4597033 7.09431868,6.65316484 C7.04717582,6.5823956 7.02354945,6.54937363 6.98107692,6.4786044 C7.09431868,6.32761538 7.22646154,6.20964835 7.37745055,6.12003297 C7.36327473,6.10585714 7.34442857,6.09168132 7.33025275,6.07283516 C7.26893407,6.15772527 7.16508791,6.22854945 7.033,6.26157143 C6.89618681,6.29459341 6.7640989,6.28041758 6.68387912,6.22854945 C6.73574725,6.1436044 6.84898901,6.06810989 6.9858022,6.03508791 C7.10376923,6.00206593 7.21228571,6.01151648 7.29250549,6.04453846 L7.29723077,6.04453846 L7.29723077,6.04453846 Z M7.02827473,5.67179121 C7.14151648,5.76146154 7.22173626,5.8747033 7.24530769,5.97376923 C7.15096703,5.99261538 7.02827473,5.95492308 6.91036264,5.86525275 C6.7923956,5.78503297 6.71217582,5.66706593 6.6886044,5.56327473 C6.78294505,5.54915385 6.90563736,5.58684615 7.02827473,5.67179121 L7.02827473,5.67179121 Z M6.90563736,5.92657143 C6.83959341,6.00679121 6.72162637,6.06810989 6.58475824,6.08701099 C6.44321978,6.10585714 6.31585714,6.07283516 6.24036264,6.01151648 C6.30168132,5.93602198 6.42437363,5.8747033 6.56118681,5.8558022 C6.698,5.83695604 6.82541758,5.86525275 6.90563736,5.92657143 L6.90563736,5.92657143 Z M6.60365934,5.68596703 C6.51398901,5.64821978 6.42437363,5.54915385 6.35832967,5.41234066 C6.29228571,5.27547253 6.27810989,5.12920879 6.30168132,5.03014286 C6.38662637,5.06789011 6.48096703,5.16695604 6.54701099,5.30376923 C6.60838462,5.44536264 6.62723077,5.58684615 6.60365934,5.68596703 L6.60365934,5.68596703 Z M6.33003297,3.01552747 C6.4101978,2.88816484 6.51398901,2.80321978 6.60365934,2.77492308 C6.61778022,2.88343956 6.58003297,3.02497802 6.49986813,3.14761538 C6.42437363,3.27975824 6.31585714,3.36464835 6.22618681,3.38827473 C6.21679121,3.28448352 6.24981319,3.14289011 6.33003297,3.01552747 L6.33003297,3.01552747 Z M6.20261538,3.51563736 C6.29701099,3.43074725 6.40552747,3.38354945 6.49041758,3.38827473 C6.47624176,3.48261538 6.41492308,3.59113187 6.31585714,3.68074725 C6.22151648,3.76569231 6.11294505,3.81289011 6.02805495,3.80816484 C6.04217582,3.71376923 6.10354945,3.60525275 6.20261538,3.51563736 L6.20261538,3.51563736 Z M5.90536264,4.4073956 C5.89124176,4.313 5.91481319,4.19030769 5.98085714,4.0723956 C6.0469011,3.95442857 6.13657143,3.86948352 6.21679121,3.84118681 C6.23563736,3.93558242 6.20734066,4.06294505 6.1412967,4.18085714 C6.07992308,4.29882418 5.98558242,4.38376923 5.90536264,4.4073956 L5.90536264,4.4073956 Z M5.96673626,4.77063736 C5.87234066,4.75179121 5.7590989,4.6762967 5.66948352,4.55832967 C5.57981319,4.43569231 5.53267033,4.30354945 5.53734066,4.19975824 C5.63173626,4.21393407 5.74497802,4.28942857 5.82992308,4.4073956 C5.91953846,4.53003297 5.96673626,4.66212088 5.96673626,4.77063736 L5.96673626,4.77063736 Z M6.10827473,4.40267033 C6.17904396,4.46871429 6.24036264,4.59607692 6.26393407,4.74706593 C6.28756044,4.90278022 6.26865934,5.04431868 6.21679121,5.13393407 C6.1412967,5.06789011 6.07992308,4.94052747 6.05635165,4.78481319 C6.03750549,4.63382418 6.05635165,4.49228571 6.10827473,4.40267033 L6.10827473,4.40267033 Z M5.95256044,3.17118681 C5.95728571,3.0108022 6.00915385,2.87871429 6.0751978,2.80321978 C6.13184615,2.88816484 6.16959341,3.02497802 6.16014286,3.18536264 C6.15069231,3.33635165 6.10354945,3.46843956 6.03745055,3.54393407 C5.98085714,3.46376923 5.94310989,3.32223077 5.95256044,3.17118681 L5.95256044,3.17118681 Z M5.81102198,3.25613187 C5.88179121,3.32223077 5.94783516,3.44959341 5.97140659,3.60058242 C5.99503297,3.75624176 5.97140659,3.89783516 5.92426374,3.98745055 C5.84876923,3.92140659 5.78745055,3.79398901 5.76382418,3.643 C5.74025275,3.48734066 5.7590989,3.3458022 5.81102198,3.25613187 L5.81102198,3.25613187 Z M5.54206593,3.61942857 C5.63173626,3.65717582 5.72607692,3.75624176 5.79217582,3.89310989 C5.85821978,4.02992308 5.88179121,4.17146154 5.85821978,4.27525275 C5.76854945,4.23750549 5.67420879,4.13843956 5.60810989,4.00162637 C5.54206593,3.86481319 5.51849451,3.72321978 5.54206593,3.61942857 L5.54206593,3.61942857 Z M5.48547253,4.68096703 C5.57981319,4.66212088 5.70723077,4.69041758 5.82992308,4.76591209 C5.95256044,4.84613187 6.03750549,4.95464835 6.0658022,5.05371429 C5.97140659,5.07261538 5.84404396,5.04431868 5.72135165,4.96882418 C5.60343956,4.89332967 5.51849451,4.78481319 5.48547253,4.68096703 L5.48547253,4.68096703 Z M5.72607692,5.12920879 C5.82047253,5.10563736 5.94783516,5.13393407 6.0658022,5.21415385 C6.18843956,5.28964835 6.27338462,5.39816484 6.30168132,5.49723077 C6.21206593,5.5208022 6.08464835,5.49250549 5.96201099,5.41234066 C5.84404396,5.33684615 5.75442857,5.22827473 5.72607692,5.12920879 L5.72607692,5.12920879 Z M5.88651648,5.62459341 C5.96673626,5.568 6.09882418,5.54442857 6.23563736,5.57272527 C6.37245055,5.60102198 6.48569231,5.67179121 6.54701099,5.75201099 C6.46212088,5.8086044 6.33475824,5.83223077 6.19789011,5.80393407 C6.06107692,5.77558242 5.94783516,5.70481319 5.88651648,5.62459341 L5.88651648,5.62459341 Z M7.81151648,16.0987692 C7.78316484,16.1931099 7.70294505,16.4903626 7.69354945,16.5186593 C7.25948352,16.4998132 6.97168132,16.4998132 6.7169011,16.4998132 L6.01387912,16.4998132 C6.04217582,16.2969011 6.0658022,16.060967 6.0658022,15.7684945 L6.0658022,14.555967 C6.0658022,14.3577802 6.05635165,13.985033 5.99030769,13.8104725 C6.11767033,13.8199231 6.21206593,13.8199231 6.30640659,13.8199231 L7.033,13.8199231 C7.29250549,13.8199231 7.3962967,13.8104725 7.67937363,13.8104725 C7.62745055,13.9944835 7.57558242,14.1878901 7.55195604,14.2633846 C7.53310989,14.3388791 7.49063736,14.2822857 7.48591209,14.2728352 C7.368,14.0983297 7.13206593,14.0794286 6.91503297,14.0794286 C6.84426374,14.0794286 6.7640989,14.0841538 6.66497802,14.0841538 C6.66025275,14.1501978 6.65085714,14.3341538 6.65085714,14.504044 L6.65085714,14.8956374 L6.97168132,14.8956374 C7.20756044,14.8956374 7.44349451,14.8767363 7.53783516,14.8626154 C7.57558242,14.8626154 7.56613187,14.8909121 7.56613187,14.8909121 C7.53783516,14.9994286 7.50008791,15.1362418 7.47651648,15.2259121 C7.22646154,15.2022857 7.09431868,15.1975604 6.91975824,15.1975604 L6.64613187,15.1975604 L6.64613187,15.7448681 C6.64613187,16.0987692 6.68387912,16.2166813 7.10849451,16.2166813 C7.34442857,16.2166813 7.47651648,16.2166813 7.73602198,16.0232747 C7.77843956,15.9855275 7.83508791,16.0043736 7.81151648,16.0987692 L7.81151648,16.0987692 Z M8.97212088,16.1034945 C8.91552747,16.2403077 8.88723077,16.3440989 8.85420879,16.4998132 C8.81173626,16.4950879 8.72206593,16.4950879 8.6323956,16.4950879 C8.55695604,16.4950879 8.45789011,16.4998132 8.38712088,16.4998132 C8.35876923,16.3299231 8.32574725,16.2261319 8.26915385,16.0515714 L8.01437363,15.2730549 C7.93415385,15.0371758 7.84453846,14.7823956 7.67464835,14.5842088 C7.92942857,14.5936593 8.12756044,14.5842088 8.37294505,14.5653626 C8.39179121,14.7540989 8.42953846,14.9381099 8.48618681,15.1173407 L8.62772527,15.6080549 C8.66547253,15.726022 8.74096703,15.9855275 8.74096703,15.9855275 C8.76453846,15.9005824 8.79756044,15.8156374 8.82585714,15.7448681 L9.04761538,15.1645934 C9.08536264,15.0607473 9.13723077,14.9050879 9.15140659,14.7493736 C9.15140659,14.6975055 9.15613187,14.6455824 9.15140659,14.5795385 C9.20805495,14.5842088 9.30712088,14.5842088 9.39206593,14.5842088 C9.46750549,14.5842088 9.59492308,14.5748132 9.65151648,14.5653626 C9.70816484,14.5606923 9.69871429,14.5936593 9.67981319,14.6125604 C9.54772527,14.7823956 9.43920879,15.0136044 9.34014286,15.2495385 L8.97212088,16.1034945 Z M9.55245055,15.5703626 C9.55245055,14.9664066 9.93464835,14.5512418 10.4866264,14.5512418 C10.9678901,14.5512418 11.2650879,14.8343187 11.2650879,15.2966813 C11.2650879,15.3344286 11.2650879,15.5042637 11.1943187,15.5042637 L10.7036593,15.5042637 C10.5008022,15.5042637 10.2176703,15.508989 10.0903077,15.5137143 C10.0997582,15.9760769 10.3450879,16.2403077 10.7602527,16.2403077 C10.9254176,16.2403077 11.0244835,16.2025055 11.1612967,16.1129451 C11.1943187,16.0893187 11.2320659,16.1082198 11.2132198,16.1695385 C11.1754725,16.3063516 11.166022,16.3393736 11.133,16.4526154 C10.9584396,16.5139341 10.731956,16.5705824 10.5290989,16.5705824 C9.92992308,16.5705824 9.55245055,16.1648132 9.55245055,15.5703626 L9.55245055,15.5703626 Z M10.8310769,19.0994286 C10.8074505,19.0947033 10.7602527,19.089978 10.7131099,19.089978 C10.6753626,19.089978 10.6376154,19.0947033 10.5904176,19.0994286 L10.5715714,19.0994286 L10.5762418,19.0852527 C10.5951429,18.9673407 10.5998681,18.8493736 10.5998681,18.7172857 L10.5998681,18.0473407 C10.5998681,17.8586044 10.5856923,17.8397033 10.5243736,17.8397033 C10.5101978,17.8397033 10.4819011,17.8444286 10.4488791,17.8491538 L10.3450879,17.8727253 C10.3120659,17.8821758 10.2932198,17.8869011 10.2695934,17.901022 L10.2648681,17.901022 L10.2365714,17.8774505 L10.2412967,17.8680549 C10.2554725,17.8397033 10.2743187,17.7925604 10.2837692,17.750033 L10.2884945,17.7406374 L10.2932198,17.7406374 C10.3498132,17.7359121 10.3875604,17.7312418 10.4488791,17.7170659 L10.6706374,17.6698132 C10.7131099,17.6604725 10.7602527,17.651022 10.7980549,17.6368462 L10.8027253,17.6368462 L10.8310769,17.6604725 L10.8263516,17.6651978 C10.8074505,17.7925604 10.8027253,17.9340989 10.8027253,18.0142637 L10.8027253,18.7409121 C10.8027253,18.8871209 10.8169011,19.0050879 10.8404725,19.0805275 L10.8451978,19.0994286 L10.8310769,19.0994286 Z M11.4727253,19.1372308 C11.2132198,19.1372308 11.0339341,18.9767912 11.0339341,18.754978 C11.0339341,18.5615714 11.1565714,18.4530549 11.350033,18.3351429 C11.2273407,18.2643736 11.1047033,18.1605275 11.1047033,17.9812418 C11.1047033,17.7642088 11.2887143,17.5990989 11.5293187,17.5990989 C11.7558022,17.5990989 11.9209121,17.7453077 11.9209121,17.9434945 C11.9209121,18.1275604 11.7935495,18.2218462 11.6566813,18.2973407 C11.8218462,18.387011 11.9681099,18.5002527 11.9681099,18.7031099 C11.9681099,18.9531648 11.7605275,19.1372308 11.4727253,19.1372308 L11.4727253,19.1372308 Z M12.0813516,16.4998132 C12.020033,16.4998132 11.8926154,16.4950879 11.7746484,16.4950879 C11.651956,16.4950879 11.5293187,16.4998132 11.4538242,16.4998132 C11.4915714,16.278 11.501022,16.0845934 11.501022,15.8062418 L11.501022,15.3344286 C11.501022,15.1504176 11.4868462,14.8106923 11.4208022,14.6031099 C11.5670659,14.6031099 11.7982747,14.5983846 11.953989,14.5889341 L11.9492637,15.0371758 L12.0907473,14.8531648 C12.2653626,14.6172857 12.388,14.5465165 12.572011,14.5465165 C12.6380549,14.5465165 12.6711319,14.5512418 12.7419011,14.5842088 C12.6852527,14.7823956 12.6286044,14.989978 12.5956374,15.1126703 C12.5861868,15.1362418 12.5625604,15.174044 12.5295934,15.1315165 C12.4540989,15.0512967 12.4399231,15.0183297 12.3502527,15.0183297 C12.237011,15.0183297 12.1473956,15.0796484 12.0813516,15.1881099 C12.0247033,15.2777802 12.0058571,15.3532747 12.0058571,15.5372857 L12.0058571,15.8533846 C12.0058571,16.1931099 12.0247033,16.3346484 12.0813516,16.4998132 L12.0813516,16.4998132 Z M12.4069011,19.1136044 L12.4021758,19.1230549 L12.3927253,19.1230549 C12.3927253,19.1230549 12.2228901,19.1230549 12.1237692,19.1325055 L12.1190989,19.1325055 L12.1001978,19.0947033 L12.8267912,17.8538791 L12.3691538,17.8538791 C12.2983846,17.8538791 12.2087143,17.8633297 12.1332198,17.9199231 L12.1237692,17.9246484 L12.0907473,17.9057473 L12.0954725,17.8963516 C12.1190989,17.8302527 12.1379451,17.7170659 12.1473956,17.6745385 L12.1473956,17.6651978 L12.1568462,17.6651978 L12.3266813,17.6651978 L12.8504176,17.6651978 L13.0108022,17.6651978 L13.0249231,17.6604725 L13.0249231,17.6745385 C13.0249231,17.6934396 13.0390989,17.7878352 13.0438242,17.8066813 L13.0485495,17.8114066 L13.0438242,17.8161319 C12.9305824,17.9434945 12.7984945,18.1794286 12.6805275,18.387011 C12.4917912,18.7314615 12.421022,18.9201429 12.4069011,19.1136044 L12.4069011,19.1136044 Z M13.4778901,19.1654725 C13.2183846,19.1654725 13.0390989,19.0098132 13.0390989,18.7833297 C13.0390989,18.5899231 13.1570659,18.4813516 13.3551978,18.3681099 C13.2325604,18.2926154 13.1098681,18.1936044 13.1098681,18.0095385 C13.1098681,17.7972857 13.2938791,17.6273956 13.5298132,17.6273956 C13.7562418,17.6273956 13.9261319,17.7736593 13.9261319,17.9718462 C13.9261319,18.1558022 13.7987143,18.2501978 13.6619011,18.3256923 C13.827011,18.420033 13.9732747,18.5332747 13.9732747,18.7361868 C13.9732747,18.9861868 13.7656923,19.1654725 13.4778901,19.1654725 L13.4778901,19.1654725 Z M14.246956,14.6172857 C14.2327802,14.6738791 14.1903077,14.8343187 14.1667363,14.9003626 C14.0157473,14.8861868 13.9261319,14.8814615 13.8222857,14.8814615 L13.6477253,14.8814615 C13.643,15.0136044 13.6382747,15.1693187 13.6382747,15.2825055 L13.6382747,15.726022 C13.6382747,16.0232747 13.6713516,16.245033 13.9308571,16.245033 C14.0110769,16.245033 14.0771209,16.2261319 14.1808571,16.1742637 C14.1997582,16.1648132 14.2375055,16.1648132 14.2233846,16.2214066 C14.1997582,16.3063516 14.1761319,16.3865714 14.1526154,16.4856374 C13.9166813,16.546956 13.8176154,16.5611319 13.6949231,16.5611319 C13.3551978,16.5611319 13.1382198,16.4195934 13.1382198,15.9383297 L13.1382198,15.3391538 C13.1382198,15.1504176 13.1382198,15.0088791 13.1334945,14.8767363 C13.0296484,14.8767363 12.9164615,14.8909121 12.8645385,14.9003626 C12.8550879,14.9003626 12.8267912,14.9003626 12.840967,14.8578901 C12.840967,14.8437692 12.8928352,14.6644286 12.9117363,14.6031099 C12.9588791,14.6078352 13.0532747,14.6125604 13.1476154,14.6125604 C13.1476154,14.4568462 13.1382198,14.3766813 13.1334945,14.2586593 C13.2703077,14.2162418 13.5203626,14.103 13.6288791,14.036956 C13.6713516,14.0086593 13.6901978,14.0463516 13.6854725,14.0888791 C13.6808022,14.136022 13.6524505,14.2633846 13.6477253,14.6125604 L13.9214066,14.6125604 C14.0157473,14.6125604 14.1195385,14.6078352 14.2186593,14.5842088 C14.2375055,14.5795385 14.2563516,14.5889341 14.246956,14.6172857 L14.246956,14.6172857 Z M15.2565714,16.5611319 C14.6479451,16.5611319 14.2894286,16.2072308 14.2894286,15.5938791 C14.2894286,14.989978 14.6573956,14.5465165 15.3462418,14.5465165 C15.9595934,14.5465165 16.3087143,14.8956374 16.3087143,15.4948681 C16.3087143,16.1506374 15.8982747,16.5611319 15.2565714,16.5611319 L15.2565714,16.5611319 Z M18.0685495,16.4950879 C17.9411868,16.4950879 17.8138242,16.4998132 17.743,16.4998132 C17.7808022,16.2874505 17.7949231,16.0421209 17.7949231,15.7543187 L17.7949231,15.4099231 C17.7949231,15.1834396 17.7760769,14.9144835 17.4504725,14.9144835 C17.3372857,14.9144835 17.224044,14.9616813 17.1343736,15.0466264 C17.0353626,15.1456923 17.007011,15.2306374 17.007011,15.475967 L17.007011,15.7543187 C17.007011,16.1176154 17.0306374,16.3346484 17.0872308,16.4998132 C17.0259121,16.4998132 16.8984945,16.4950879 16.7758571,16.4950879 C16.6437143,16.4950879 16.521022,16.4998132 16.454978,16.4998132 C16.4880549,16.2874505 16.5021758,16.0421209 16.5021758,15.7543187 L16.5021758,15.2730549 C16.5021758,15.0796484 16.4833297,14.7918462 16.4172857,14.5842088 C16.5917912,14.5842088 16.8324505,14.5842088 17.0022857,14.5700879 L16.9881099,14.9098132 L17.1485495,14.773 C17.342011,14.6125604 17.4977253,14.5417912 17.6958571,14.5417912 C18.1487692,14.5417912 18.3044835,14.8012418 18.3044835,15.2448132 L18.3044835,15.7543187 C18.3044835,16.1176154 18.3280549,16.3346484 18.3847033,16.4998132 C18.3186593,16.4998132 18.1912418,16.4950879 18.0685495,16.4950879 L18.0685495,16.4950879 Z M18.1771209,5.80393407 C18.0403077,5.83223077 17.9081648,5.8086044 17.8279451,5.75201099 C17.8845934,5.67179121 18.0025055,5.60102198 18.1393187,5.57272527 C18.2761868,5.54442857 18.4035495,5.568 18.4837692,5.62459341 C18.4271758,5.70481319 18.3139341,5.77558242 18.1771209,5.80393407 L18.1771209,5.80393407 Z M18.4082747,5.41234066 C18.2903077,5.49250549 18.1629451,5.5208022 18.0685495,5.49723077 C18.0969011,5.39816484 18.1818462,5.28964835 18.3044835,5.21415385 C18.4271758,5.13393407 18.5545385,5.10563736 18.6489341,5.12920879 C18.6158571,5.22827473 18.5309121,5.33684615 18.4082747,5.41234066 L18.4082747,5.41234066 Z M18.6489341,4.96882418 C18.5261868,5.04431868 18.3988242,5.07261538 18.3092088,5.05371429 C18.3375055,4.95464835 18.4224505,4.84613187 18.5450879,4.76591209 C18.6630549,4.69041758 18.7951429,4.66212088 18.8848132,4.68096703 C18.8565165,4.78481319 18.7715714,4.89332967 18.6489341,4.96882418 L18.6489341,4.96882418 Z" id="Fill-44" fill="#274488"></path>
                    <path id="Fill-46" fill="#274488"></path>
                    <path d="M13.4779121,18.4384231 C13.3032967,18.5233681 13.2183516,18.6365549 13.2183516,18.7734231 C13.2183516,18.9244121 13.3316484,19.0375989 13.492033,19.0375989 C13.6524725,19.0375989 13.7751099,18.9244121 13.7751099,18.7734231 C13.7751099,18.6271593 13.676044,18.5469945 13.4779121,18.4384231" id="Fill-48" fill="#274488"></path>
                    <path d="M11.4736538,18.4091813 C11.2990934,18.4941264 11.2141484,18.6073132 11.2141484,18.7441813 C11.2141484,18.8951703 11.3273901,19.0083571 11.4878297,19.0083571 C11.6482143,19.0083571 11.7709066,18.8904451 11.7709066,18.7441813 C11.7709066,18.5979176 11.6717857,18.5176978 11.4736538,18.4091813" id="Fill-50" fill="#274488"></path>
                </g>
            </g>
        </g>
    </g>
</svg>