<?xml version="1.0" encoding="UTF-8" standalone="no"?>
<svg width="25px" height="25px" viewBox="0 0 25 25" version="1.1" xmlns="http://www.w3.org/2000/svg" xmlns:xlink="http://www.w3.org/1999/xlink">
    <!-- Generator: Sketch 42 (36781) - http://www.bohemiancoding.com/sketch -->
    <title>city</title>
    <desc>Created with Sketch.</desc>
    <defs>
        <polygon id="path-1" points="8.89679714e-05 24.9998221 24.911121 24.9998221 24.911121 0.0887900356 8.89679714e-05 0.0887900356"></polygon>
        <polygon id="path-3" points="0 25 24.9112989 25 24.9112989 0.0887010676 0 0.0887010676"></polygon>
    </defs>
    <g id="Page-1" stroke="none" stroke-width="1" fill="none" fill-rule="evenodd">
        <g id="fixtures" transform="translate(-73.000000, -318.000000)">
            <g id="row_1" transform="translate(10.000000, 272.000000)">
                <g id="city" transform="translate(63.000000, 46.000000)">
                    <path d="M24.2365569,12.544573 C24.2365569,15.6688612 22.9951868,18.6656584 20.7859342,20.874911 C18.5766815,23.0841637 15.5802402,24.3255338 12.4555961,24.3255338 C9.33130783,24.3255338 6.33451068,23.0841637 4.12525801,20.874911 C1.91600534,18.6656584 0.674635231,15.6688612 0.674635231,12.544573 C0.674635231,9.41992883 1.91600534,6.42348754 4.12525801,4.21423488 C6.33451068,2.00498221 9.33130783,0.7636121 12.4555961,0.7636121 C15.5802402,0.7636121 18.5766815,2.00498221 20.7859342,4.21423488 C22.9951868,6.42348754 24.2365569,9.41992883 24.2365569,12.544573" id="Fill-1" fill="#FFFFFF"></path>
                    <path d="M12.455605,0.962019573 C9.36192171,0.962019573 6.45329181,2.16682384 4.2655694,4.35454626 C2.07784698,6.54226868 0.873042705,9.45089858 0.873042705,12.5445819 C0.873042705,15.6382651 2.07784698,18.546895 4.2655694,20.7346174 C6.45329181,22.9222509 9.36192171,24.1271441 12.455605,24.1271441 C15.5492883,24.1271441 18.4579181,22.9222509 20.6456406,20.7346174 C22.833363,18.546895 24.0381673,15.6382651 24.0381673,12.5445819 C24.0381673,9.45089858 22.833363,6.54226868 20.6456406,4.35454626 C18.4579181,2.16682384 15.5492883,0.962019573 12.455605,0.962019573 M12.455605,24.5238523 C9.25587189,24.5238523 6.24768683,23.2778559 3.98505338,21.0152224 C1.72233096,18.7525 0.476245552,15.7443149 0.476245552,12.5445819 C0.476245552,9.34484875 1.72233096,6.3366637 3.98505338,4.07403025 C6.24768683,1.81130783 9.25587189,0.56522242 12.455605,0.56522242 C15.6553381,0.56522242 18.6635231,1.81130783 20.9262456,4.07403025 C23.188879,6.3366637 24.4348754,9.34484875 24.4348754,12.5445819 C24.4348754,15.7443149 23.188879,18.7525 20.9262456,21.0152224 C18.6635231,23.2778559 15.6553381,24.5238523 12.455605,24.5238523" id="Fill-3" fill="#FF0000"></path>
                    <path d="M12.455605,0.962019573 C15.5274021,0.962019573 18.4734875,2.1822153 20.6455516,4.35463523 C22.8179715,6.52669929 24.0380783,9.4727847 24.0380783,12.5445819 C24.0380783,15.616379 22.8179715,18.5624644 20.6455516,20.7345285 C18.4734875,22.9069484 15.5274021,24.1270552 12.455605,24.1270552 C9.38380783,24.1270552 6.43772242,22.9069484 4.26565836,20.7345285 C2.09323843,18.5624644 0.873131673,15.616379 0.873131673,12.5445819 C0.873131673,9.4727847 2.09323843,6.52669929 4.26565836,4.35463523 C6.43772242,2.1822153 9.38380783,0.962019573 12.455605,0.962019573 M12.455605,0.56522242 C9.27846975,0.56522242 6.2316726,1.82741103 3.98487544,4.07385231 C1.73843416,6.32029359 0.476245552,9.36744662 0.476245552,12.5445819 C0.476245552,15.7217171 1.73843416,18.7688701 3.98487544,21.0153114 C6.2316726,23.2617527 9.27846975,24.5239413 12.455605,24.5239413 C15.6327402,24.5239413 18.6798932,23.2617527 20.9263345,21.0153114 C23.1727758,18.7688701 24.4349644,15.7217171 24.4349644,12.5445819 C24.4349644,9.36744662 23.1727758,6.32029359 20.9263345,4.07385231 C18.6798932,1.82741103 15.6327402,0.56522242 12.455605,0.56522242" id="Fill-5" fill="#002E60"></path>
                    <g id="Group-9" transform="translate(0.000000, 0.000267)">
                        <mask id="mask-2" fill="white">
                            <use xlink:href="#path-1"></use>
                        </mask>
                        <g id="Clip-8"></g>
                        <path d="M12.455605,1.43808719 C9.48879004,1.43808719 6.69982206,2.5933363 4.60240214,4.6911121 C2.50462633,6.78853203 1.34937722,9.5775 1.34937722,12.5443149 C1.34937722,15.5111299 2.50462633,18.3000089 4.60240214,20.3975178 C6.69991103,22.4952936 9.488879,23.6505427 12.455605,23.6505427 C15.422331,23.6505427 18.21121,22.4952936 20.3088078,20.3975178 C22.4065836,18.2999199 23.5618327,15.5110409 23.5618327,12.5443149 C23.5618327,9.57758897 22.4065836,6.788621 20.3088078,4.6911121 C18.2112989,2.5933363 15.4224199,1.43808719 12.455605,1.43808719 M12.455605,25.0000089 C9.12891459,25.0000089 6.00106762,23.7043683 3.64813167,21.3517883 C1.29564057,18.9992972 0,15.8713612 0,12.5443149 C0,9.21726868 1.29564057,6.08933274 3.64813167,3.73684164 C6.00097865,1.38435053 9.12891459,0.0887099644 12.455605,0.0887099644 C15.7826512,0.0887099644 18.9105872,1.38435053 21.2630783,3.73684164 C23.6155694,6.08942171 24.9112989,9.21726868 24.9112989,12.5443149 C24.9112989,15.8712722 23.6155694,18.9992972 21.2630783,21.3517883 C18.9105872,23.7042794 15.7826512,25.0000089 12.455605,25.0000089" id="Fill-7" fill="#002E60" mask="url(#mask-2)"></path>
                    </g>
                    <g id="Group-78" transform="translate(0.000000, 0.000267)">
                        <path d="M12.455605,0.961752669 C15.5274021,0.961752669 18.4734875,2.1819484 20.6455516,4.35436833 C22.8179715,6.52643238 24.0380783,9.47251779 24.0380783,12.5443149 C24.0380783,15.6161121 22.8179715,18.5621975 20.6455516,20.7342616 C18.4734875,22.9066815 15.5274021,24.1267883 12.455605,24.1267883 C9.38380783,24.1267883 6.43772242,22.9066815 4.26565836,20.7342616 C2.09323843,18.5621975 0.873131673,15.6161121 0.873131673,12.5443149 C0.873131673,9.47251779 2.09323843,6.52643238 4.26565836,4.35436833 C6.43772242,2.1819484 9.38380783,0.961752669 12.455605,0.961752669 Z M12.455605,0.564955516 C9.27846975,0.564955516 6.2316726,1.82714413 3.98487544,4.07358541 C1.73843416,6.32002669 0.476245552,9.36717972 0.476245552,12.5443149 C0.476245552,15.7214502 1.73843416,18.7686032 3.98487544,21.0150445 C6.2316726,23.2614858 9.27846975,24.5236744 12.455605,24.5236744 C15.6327402,24.5236744 18.6798932,23.2614858 20.9263345,21.0150445 C23.1727758,18.7686032 24.4349644,15.7214502 24.4349644,12.5443149 C24.4349644,9.36717972 23.1727758,6.32002669 20.9263345,4.07358541 C18.6798932,1.82714413 15.6327402,0.564955516 12.455605,0.564955516 Z" id="Fill-10" fill="#7BB1DD"></path>
                        <path d="M12.488621,5.39498221 C10.566379,5.39498221 8.75935053,6.14346975 7.4002758,7.50245552 C6.04120107,8.86153025 5.29280249,10.6685587 5.29280249,12.5908897 C5.29280249,14.5128648 6.04120107,16.3198932 7.4002758,17.678879 C8.75952847,19.0382206 10.5666459,19.7867972 12.488621,19.7867972 C14.4104181,19.7867972 16.2173577,19.0382206 17.5766103,17.678879 C18.935952,16.3196263 19.6845285,14.5125979 19.6845285,12.5908897 C19.6845285,10.6688256 18.935952,8.86179715 17.5766103,7.50245552 C16.2176246,6.14346975 14.4106851,5.39498221 12.488621,5.39498221 M12.488621,20.2276335 C10.4488523,20.2276335 8.53114769,19.4331495 7.08853203,17.9906228 C5.64618327,16.548363 4.85196619,14.6307473 4.85196619,12.5908897 C4.85196619,10.5508541 5.64618327,8.6330605 7.08853203,7.19080071 C8.53079181,5.74845196 10.4485854,4.95414591 12.488621,4.95414591 C14.5284786,4.95414591 16.4460943,5.74845196 17.8883541,7.19080071 C19.3308808,8.63323843 20.1253648,10.551121 20.1253648,12.5908897 C20.1253648,14.6304804 19.3308808,16.5480961 17.8883541,17.9906228 C16.4458274,19.4331495 14.5282117,20.2276335 12.488621,20.2276335" id="Fill-12" fill="#002E60"></path>
                        <path d="M19.3878025,12.5794128 C19.3878025,14.4147331 18.65871,16.1749644 17.3610231,17.4730071 C16.0633363,18.770694 14.303105,19.4997865 12.4677847,19.4997865 C10.6324644,19.4997865 8.8722331,18.770694 7.57454626,17.4730071 C6.27685943,16.1749644 5.54767794,14.4147331 5.54767794,12.5794128 C5.54767794,10.7441815 6.27685943,8.98412811 7.57454626,7.68617438 C8.8722331,6.38857651 10.6324644,5.65930605 12.4677847,5.65930605 C14.303105,5.65930605 16.0633363,6.38857651 17.3610231,7.68617438 C18.65871,8.98412811 19.3878025,10.7441815 19.3878025,12.5794128" id="Fill-14" fill="#7BB1DD"></path>
                        <path d="M6.74740214,6.86183274 C6.25282918,8.96823843 6.2469573,10.8685053 6.26741993,12.1634342 C6.23512456,18.0645018 10.6007829,19.8963523 12.4531851,20.4548043 C14.3058541,19.8963523 18.6715125,18.0645018 18.6392171,12.1634342 C18.6597687,10.8685053 18.6538078,8.96823843 18.1593238,6.86183274 C15.2935765,6.35925267 13.5510498,6.40756228 12.4531851,6.39510676 C11.3556762,6.40756228 9.61314947,6.35925267 6.74740214,6.86183274" id="Fill-16" fill="#002E60"></path>
                        <path d="M7.33959964,7.27365658 C7.02509786,8.66929715 6.8641548,9.92881673 6.80338968,10.975169 C6.77901246,12.1158274 6.76620107,13.2726779 6.9458274,14.2930516 C7.04040036,14.8300623 7.1977847,15.389226 7.48310498,15.9664502 C8.07981317,17.0847776 8.93301601,18.075258 9.70837189,18.6021263 C10.7325712,19.380952 11.7904004,19.8118238 12.4532117,20.0217883 C13.11629,19.8118238 14.1741192,19.380952 15.1983185,18.6021263 C15.9736744,18.075258 16.8268772,17.0847776 17.4232295,15.9664502 C17.7089057,15.389226 17.86629,14.8300623 17.960863,14.2930516 C18.1404893,13.2726779 18.1276779,12.1158274 18.1029448,10.975169 C18.0425356,9.92881673 17.8815925,8.66929715 17.5670907,7.27365658 C14.9919128,6.80346085 13.4395107,6.84856762 12.4532117,6.83682384 C11.4672687,6.84856762 9.91477758,6.80346085 7.33959964,7.27365658" id="Fill-18" fill="#FFBB59"></path>
                        <path d="M10.7360231,21.4119128 C10.7137811,21.3973221 10.658532,21.3333541 10.6074644,21.3010587 C10.1893149,21.0323754 9.69580961,21.2913612 9.6722331,21.7973221 C9.65870996,22.1066637 9.88557829,22.369653 10.1389591,22.4190302 C10.400258,22.4676957 10.5865569,22.3488345 10.7582651,22.1987456 L11.022411,22.4760587 C10.8857562,22.6195641 10.7225,22.7540836 10.4270374,22.811379 C10.3721441,22.8208096 10.2966993,22.8256139 10.2004359,22.8256139 C9.64963523,22.7725 9.33682384,22.4805961 9.24580961,22.0117349 C9.19296263,21.7604893 9.23673488,21.5026601 9.37018683,21.2843327 C9.52935053,21.0247242 9.76324733,20.8749911 10.0638701,20.8166281 C10.4225,20.7488345 10.7874466,20.8649377 11.01129,21.1008808 L10.7360231,21.4119128 Z" id="Fill-20" fill="#002E60"></path>
                        <mask id="mask-4" fill="white">
                            <use xlink:href="#path-3"></use>
                        </mask>
                        <g id="Clip-23"></g>
                        <polygon id="Fill-22" fill="#002E60" mask="url(#mask-4)" points="11.4370107 22.7881673 11.8834392 22.7881673 11.8834392 20.8294484 11.4370107 20.8294484"></polygon>
                        <polygon id="Fill-24" fill="#002E60" mask="url(#mask-4)" points="13.9062011 21.2360676 13.3098488 21.2360676 13.3098488 22.7881139 12.867411 22.7881139 12.867411 21.2360676 12.2723932 21.2360676 12.2723932 20.829484 13.9062011 20.829484"></polygon>
                        <polygon id="Fill-25" fill="#002E60" mask="url(#mask-4)" points="16.0191904 20.8294484 15.2622509 21.9995552 15.2622509 22.7881673 14.8306673 22.7881673 14.8306673 21.9995552 14.0830694 20.8294484 14.589831 20.8294484 15.0498843 21.6290925 15.5291548 20.8294484"></polygon>
                        <polygon id="Fill-26" fill="#002E60" mask="url(#mask-4)" points="4.91379004 9.14858541 4.71743772 9.51379893 3.02322064 8.62625445 3.23558719 8.22518683 4.20275801 8.16406584 3.70649466 7.32367438 3.91743772 6.92580961 5.61032028 7.82136121 5.41912811 8.18799822 4.2980427 7.59440391 4.7841637 8.47438612 3.79759786 8.57269573"></polygon>
                        <path d="M6.09404804,6.06220641 L5.45463523,5.81371886 L5.73746441,6.43266904 L6.09404804,6.06220641 Z M7.20374555,6.05108541 L6.89475979,6.37395018 L6.46246441,6.20295374 L5.90330071,6.79681495 L6.1002758,7.2208363 L5.80703737,7.52733096 L4.96353203,5.60935943 L5.22874555,5.32475089 L7.20374555,6.05108541 Z" id="Fill-27" fill="#002E60" mask="url(#mask-4)"></path>
                        <polygon id="Fill-28" fill="#002E60" mask="url(#mask-4)" points="7.4841726 5.84768683 6.48541815 4.21263345 6.81931495 4.00756228 8.2049911 4.55836299 7.5866637 3.54288256 7.9436032 3.32704626 8.93684164 4.96814947 8.63034698 5.15062278 7.19849644 4.58932384 7.83515125 5.6319395"></polygon>
                        <path d="M10.371806,3.08868327 C10.346806,3.08103203 10.2776779,3.03619217 10.2202936,3.01946619 C9.75356762,2.88156584 9.36050712,3.26030249 9.47661032,3.74233096 C9.54849644,4.03743772 9.8341726,4.22266904 10.085774,4.19935943 C10.3450267,4.17364769 10.4875534,4.01101423 10.608105,3.82266904 L10.9327491,4.01101423 C10.8434253,4.1833452 10.7266103,4.35505338 10.4645996,4.48992883 C10.4155783,4.51350534 10.3457384,4.53895018 10.2554359,4.5652847 C9.72260676,4.66608541 9.34831851,4.47702847 9.13390569,4.06101423 C9.01575623,3.83939502 8.98621886,3.58459075 9.05187722,3.34268683 C9.13079181,3.05496441 9.30979537,2.84989324 9.57634342,2.71261566 C9.89502669,2.55069395 10.2703826,2.55967972 10.5452046,2.72062278 L10.371806,3.08868327 Z" id="Fill-29" fill="#002E60" mask="url(#mask-4)"></path>
                        <polygon id="Fill-30" fill="#002E60" mask="url(#mask-4)" points="19.0684253 5.19572064 18.6044573 4.83566726 17.674831 6.06004448 17.3353292 5.80461744 18.2687811 4.58620107 17.8058808 4.23273132 18.0411121 3.9244573 19.3037456 4.88993772"></polygon>
                        <polygon id="Fill-31" fill="#002E60" mask="url(#mask-4)" points="11.3660943 2.33905694 11.4105783 4.25676157 11.8282829 4.24243772 11.8043505 3.47233096 12.5956317 3.4497331 12.6144039 4.22544484 13.028016 4.2161032 12.9855783 2.29946619 12.5629804 2.30845196 12.5831762 3.07064057 11.7987456 3.0911032 11.7813968 2.33104982"></polygon>
                        <polygon id="Fill-32" fill="#002E60" mask="url(#mask-4)" points="14.0226246 2.42003559 15.4329448 2.72688612 15.3505605 3.09147687 14.3478915 2.8708363 14.2596352 3.26211744 15.0884609 3.4369395 14.8914858 3.77225979 14.1838345 3.61941281 14.0942438 4.02003559 15.1170196 4.24005338 15.0364146 4.6025089 13.6146174 4.29396797"></polygon>
                        <path d="M16.5919217,4.01689502 C16.3441459,3.83379893 16.3413879,3.72330071 16.4056228,3.63290925 C16.4706584,3.56164591 16.5485053,3.56271352 16.6311566,3.59189502 C16.7639858,3.63709075 16.8679004,3.72774911 16.9481495,3.83201957 C16.9919217,3.88940391 17.0259964,3.94536477 17.0593594,3.99714413 L17.3877402,3.79447509 C17.3380961,3.6999911 17.2035765,3.42961744 16.807758,3.25968861 C16.6214591,3.17837189 16.174573,3.10363879 15.9823132,3.5588879 C15.9048221,3.75630783 15.9343594,3.88344306 15.9840925,3.97107651 C16.0949466,4.1472331 16.2659431,4.27134342 16.4219929,4.40924377 C16.4865836,4.46280249 16.5533096,4.52712633 16.5808007,4.60461744 C16.5999288,4.6633363 16.5839146,4.7244573 16.5401423,4.76200178 C16.3128292,4.95559609 15.899306,4.53646797 15.818968,4.31164591 L15.4666548,4.47952847 C15.6542883,4.84403025 15.9722598,5.17214413 16.4758185,5.18709075 C16.6572242,5.17801601 16.8654093,5.07899466 16.9627402,4.85933274 C17.0276868,4.6841548 17.0426335,4.52463523 16.9501957,4.37801601 C16.8626512,4.24073843 16.710427,4.10105872 16.5919217,4.01689502" id="Fill-33" fill="#002E60" mask="url(#mask-4)"></path>
                        <polygon id="Fill-34" fill="#002E60" mask="url(#mask-4)" points="19.8889502 5.45676157 20.8127046 6.56574733 20.5235587 6.80240214 19.8684875 6.01245552 19.5584342 6.26681495 20.125605 6.94074733 19.7461566 7.06343416 19.2790747 6.50213523 18.9620819 6.76316726 19.6335231 7.56521352 19.3471352 7.80115658 18.4151068 6.68425267"></polygon>
                        <path d="M20.3334431,9.65141459 L20.1144929,9.21324733 L20.4814858,8.57338968 L20.3219662,8.27454626 L19.7756139,8.54732206 L19.589048,8.17196619 L21.3006139,7.31289146 L21.6644929,8.04136121 C21.714226,8.14109431 21.7385142,8.20052491 21.7638701,8.27766014 C21.8156495,8.42605872 21.8191192,8.56822954 21.7708096,8.68602313 C21.6127135,9.0725 21.1022153,9.26253559 20.7355783,8.92579181 L20.3334431,9.65141459 Z M21.3465214,8.24812278 L21.1473221,7.85959964 L20.6597776,8.11048932 L20.8432295,8.48442171 C20.9426957,8.69296263 21.0997242,8.7155605 21.2269484,8.66894128 C21.3666281,8.61751779 21.4539057,8.43922598 21.3465214,8.24812278 L21.3465214,8.24812278 Z" id="Fill-35" fill="#002E60" mask="url(#mask-4)"></path>
                        <path d="M21.3669929,12.4421797 C21.3704626,12.3430694 21.2870996,12.2798132 21.2057829,12.2604181 C21.1682384,12.2520552 21.1282028,12.252411 21.0871886,12.263532 C21.0486655,12.2766993 21.0184164,12.2972509 20.9968861,12.321895 C20.9040925,12.4316815 20.9735765,12.5682473 21.0541815,12.6013434 C21.083363,12.6145107 21.1216192,12.6232295 21.1717082,12.6238523 C21.3318505,12.6203826 21.3659253,12.491468 21.3669929,12.4421797 M21.3558719,12.7379093 C21.1939502,12.8817705 20.9496441,12.8466281 20.8109431,12.702411 C20.7494662,12.6367527 20.7122776,12.5508986 20.7119217,12.4577491 C20.716726,12.3875534 20.7365658,12.3211833 20.7668149,12.263532 C20.8036477,12.1939591 20.852669,12.1428915 20.9162811,12.1085498 C21.0621886,12.0292794 21.2550712,12.0243861 21.3895907,12.105347 C21.4851423,12.1644217 21.5505338,12.2631762 21.580694,12.3778559 C21.5987544,12.4487633 21.6081851,12.5297242 21.6081851,12.6201157 C21.6040036,12.8480516 21.5400356,13.0631762 21.363879,13.1694929 C21.3159253,13.1984075 21.2572064,13.2174466 21.1862989,13.2258096 C20.9985765,13.2476957 20.8603203,13.1893327 20.744573,13.1010765 L20.8734875,12.9094395 C21.1914591,13.1650445 21.3492883,12.9193149 21.3558719,12.7379093" id="Fill-36" fill="#7BB1DD" mask="url(#mask-4)"></path>
                        <path d="M22.4353114,12.766379 L22.4353114,12.3976957 L22.1047954,12.766379 L22.4353114,12.766379 Z M22.8099555,12.9651335 L22.6629804,12.9651335 L22.6629804,13.2272331 L22.4353114,13.2272331 L22.4353114,12.9651335 L21.8619128,12.9651335 L21.8302402,12.7906673 L22.453016,12.0564146 L22.6629804,12.0564146 L22.6629804,12.766379 L22.8099555,12.766379 L22.8099555,12.9651335 Z" id="Fill-37" fill="#7BB1DD" mask="url(#mask-4)"></path>
                        <polygon id="Fill-38" fill="#7BB1DD" mask="url(#mask-4)" points="2.38141459 12.3590747 2.33274911 12.1609431 2.6388879 12.0604982 2.82758897 12.0604982 2.82758897 13.2174377 2.58506228 13.2174377 2.58506228 12.2992883"></polygon>
                        <path d="M3.75863879,12.8713345 C3.75516904,12.7542527 3.6255427,12.7232918 3.54004448,12.7264057 C3.45036477,12.7329893 3.35899466,12.786548 3.35792705,12.8713345 C3.36104093,12.9818327 3.47474199,13.0322776 3.56406584,13.0329004 C3.66798043,13.0325445 3.75757117,12.9651957 3.75863879,12.8713345 M3.68114769,12.500516 C3.70926157,12.4719573 3.72322954,12.439306 3.72322954,12.4035409 C3.72322954,12.3618149 3.70926157,12.3295196 3.68114769,12.30621 C3.65338968,12.2819217 3.61442171,12.270089 3.56406584,12.270089 C3.513621,12.270089 3.47438612,12.2819217 3.4455605,12.30621 C3.41771352,12.3295196 3.40383452,12.3618149 3.40383452,12.4035409 C3.40383452,12.439306 3.4180694,12.4719573 3.44653915,12.500516 C3.50427936,12.5467794 3.60187722,12.5571886 3.68114769,12.500516 M3.8000089,12.6159075 C3.93728648,12.6687544 4.0022331,12.7732918 4.00401246,12.911637 C4.00258897,13.0722242 3.88621886,13.1757829 3.74929715,13.2136833 C3.69502669,13.2281851 3.63319395,13.2355694 3.56406584,13.2355694 C3.37358541,13.2303203 3.12652135,13.1444662 3.12198399,12.911637 C3.12856762,12.7517616 3.16468861,12.692331 3.30374555,12.6159075 C3.16335409,12.5275623 3.11219751,12.3788968 3.2005427,12.2186655 C3.22136121,12.1818327 3.25018683,12.1508719 3.2863968,12.1262278 C3.32287367,12.1014947 3.36451068,12.0827224 3.41219751,12.0702669 C3.45979537,12.0573665 3.51015125,12.0511388 3.56406584,12.0511388 C3.76486655,12.0490925 3.94351423,12.1481139 3.96335409,12.3528292 C3.96824733,12.4084342 3.95952847,12.4653737 3.92963523,12.5140391 C3.9049911,12.556121 3.86290925,12.589484 3.8000089,12.6159075" id="Fill-39" fill="#7BB1DD" mask="url(#mask-4)"></path>
                        <path d="M12.4532117,20.0217883 C13.11629,19.8118238 14.1741192,19.380952 15.1983185,18.6021263 C15.9736744,18.075258 16.8268772,17.0847776 17.4232295,15.9664502 C17.7089057,15.389226 17.86629,14.8300623 17.960863,14.2930516 C18.1404893,13.2726779 18.1276779,12.1158274 18.1029448,10.975169 C18.0425356,9.92881673 17.8815925,8.66929715 17.5670907,7.27365658 C14.9919128,6.80346085 13.4394217,6.84856762 12.4532117,6.83682384" id="Fill-40" fill="#E9AB00" mask="url(#mask-4)"></path>
                        <path d="M17.6786477,13.242153 C17.4343416,16.1853915 16.0588078,18.2205338 12.4532028,19.5085231 C8.84822064,18.2205338 7.47233096,16.1857473 7.22802491,13.2425089 L17.6786477,13.242153 Z" id="Fill-41" fill="#7BB1DD" mask="url(#mask-4)"></path>
                        <path d="M7.19989324,12.799742 C7.17453737,12.2311477 7.18699288,11.6306139 7.23014235,10.9964502 C7.28637011,10.0118416 7.34793594,8.86397687 7.64019573,7.55063167 C9.92275801,7.13808719 11.4714235,7.14609431 12.4531851,7.11691281 C13.4353025,7.14609431 14.983879,7.13808719 17.2664413,7.55063167 C17.55879,8.86397687 17.6202669,10.0118416 17.6765836,10.9964502 C17.72,11.6334609 17.7321886,12.2367527 17.7064769,12.8077491 L7.19989324,12.799742 Z" id="Fill-42" fill="#FFFFFF" mask="url(#mask-4)"></path>
                        <path d="M13.6771708,19.0024822 C13.3011032,19.1824644 12.8938078,19.3510587 12.4532384,19.5084431 L7.2280605,13.2425178 L8.92743772,13.2421619 L13.6771708,19.0024822 Z M17.41,14.8202758 C17.2727224,15.3214324 17.0858007,15.7902936 16.8414057,16.2274822 L14.37121,13.2421619 L16.1022598,13.2421619 L17.41,14.8202758 Z M15.935089,17.4400267 C15.6567082,17.7259698 15.3407829,17.9942972 14.9835765,18.2458986 L10.8346441,13.2421619 L12.4587544,13.2421619 L15.935089,17.4400267 Z" id="Fill-43" fill="#A8C9E8" mask="url(#mask-4)"></path>
                        <path d="M13.740774,12.0087189 C14.4723577,11.9743772 15.2139947,11.8593416 15.5677313,11.7676157 C15.4944217,12.3385231 14.9181762,12.2732206 15.2431762,12.805605 L14.5008274,12.8049822 C14.2217349,12.7107651 13.9318772,12.5919039 13.6865925,12.5717972 C13.6122153,12.5661922 13.5496708,12.5672598 13.4867705,12.591548 C12.7152402,12.8883452 12.0886388,12.5491993 11.5110587,12.5352313 C11.4895285,12.6051601 11.3671975,12.6885231 11.1238701,12.713879 C10.7092794,12.763968 10.4135498,12.5919039 10.0865036,12.580427 C9.96835409,12.5766014 9.85572064,12.6162811 9.76123665,12.8015125 C9.59442171,12.5696619 9.49255338,12.3938612 9.26079181,12.1060498 C8.9122153,11.9392349 8.58935053,11.8047153 8.27831851,11.6845196 L8.29433274,11.6192171 C9.28650356,11.9253559 10.0389057,12.0372776 10.7114146,12.0976868 C11.5419306,12.1293594 12.435169,12.1838968 13.2455783,12.1272242 C13.4749377,12.0567616 13.5655961,12.0170819 13.740774,12.0087189" id="Fill-44" fill="#FBC24E" mask="url(#mask-4)"></path>
                        <path d="M15.4499288,11.8478559 C15.3640747,12.2152046 14.816032,12.3538167 15.1802669,12.8055961 L14.7458363,12.8053292 C14.4656762,12.7083541 13.9896085,12.4980338 13.4547331,12.4921619 C13.2622064,12.6402046 12.902153,12.7121797 12.3579359,12.5909164 C12.1053559,12.5345996 11.7598932,12.4525712 11.4098932,12.4546174 C11.3258185,12.7955427 10.2060676,12.6565747 9.81122776,12.1366459 L9.30037367,12.0090658 L9.18320285,11.9159164 C9.98951957,12.0845107 10.8135409,12.183532 11.2343594,12.1964324 C12.0027758,12.2245463 12.7242171,12.2256139 13.2386299,12.2075534 C13.410605,12.1578203 13.4432562,12.13629 13.5287544,12.1039947 C13.6510854,12.0427847 13.7970819,12.053194 13.9162989,12.0466103 C14.6324911,12.0077313 15.085694,11.9145819 15.4499288,11.8478559" id="Fill-45" fill="#EBAA00" mask="url(#mask-4)"></path>
                        <path d="M11.4442883,10.349653 C11.0869929,11.5711833 10.0280961,11.4134431 10.0948221,11.9038345 C10.2567438,11.7616637 10.4113701,11.7488523 10.5670641,11.710952 L10.569911,12.0841726 C10.6147509,12.08871 10.658879,12.0928915 10.7026512,12.097073 L10.7095907,11.6932473 C11.0925979,11.6476957 11.4289858,11.6956495 11.7748043,11.724831 C11.4939324,11.2744751 11.3159964,10.819137 11.4442883,10.349653 M12.0218683,11.9973399 C12.119911,11.8513434 12.2814769,11.7780338 12.4708897,11.7366637 L12.4656406,12.1519662 C12.5133274,12.1519662 12.5605694,12.1516103 12.6078114,12.1512544 L12.6019395,11.7043683 C13.1232028,11.6365747 13.6872598,11.7202936 14.1373488,11.8322153 L14.1348577,11.9826601 C14.183879,11.9789235 14.228363,11.9743861 14.2766726,11.9698488 L14.2780961,11.7915569 L15.7515836,11.2772331 C15.3335231,10.7239413 15.3714235,10.0792794 15.478452,9.42109431 C15.397847,9.75258897 15.2062989,10.360774 14.7027402,10.9217171 C14.3047865,11.3651335 14.3448221,11.4610409 14.2763167,11.585863 L14.247847,8.59707295 L13.9079004,8.71175267 C13.836726,8.7322153 13.878363,8.76495552 13.82,8.79200178 L13.4776512,8.9230516 L13.8704448,8.9049911 C13.9280961,8.9049911 13.892331,8.82607651 13.9458007,8.81735765 L14.1636833,8.79547153 L14.1359253,11.7484964 C13.9030961,11.3835498 13.4982028,10.9456495 13.6626157,10.0282117 C13.2455338,11.6090836 11.9203559,11.4371085 12.0218683,11.9973399" id="Fill-46" fill="#EBAA00" mask="url(#mask-4)"></path>
                        <path d="M9.90268683,10.8838078 L11.4443238,10.3496441 C11.0870285,11.5711744 10.0281317,11.4134342 10.0948577,11.9038256 C9.73409253,11.55 9.7205694,11.125 9.90268683,10.8838078 L9.90268683,10.8838078 Z M11.8033096,10.6669039 L13.6625623,10.0282028 C13.2455694,11.6090747 11.9203915,11.4370996 12.0219039,11.997331 C11.7122954,11.7040036 11.4074911,11.1496441 11.8033096,10.6669039 L11.8033096,10.6669039 Z M15.4783986,9.42108541 C15.3977936,9.75258007 15.2063345,10.3607651 14.7027758,10.9217082 C14.3048221,11.3651246 14.3447687,11.461032 14.2763523,11.5858541 L14.2599822,9.84395018 L15.4783986,9.42108541 Z" id="Fill-47" fill="#FFBB59" mask="url(#mask-4)"></path>
                        <path d="M12.599484,8.23735765 L12.5960142,7.70141459 L12.2558007,7.81609431 C12.1845374,7.83664591 12.2262633,7.86894128 12.1679004,7.89607651 L11.8255516,8.02712633 L12.2182562,8.00897687 C12.2759075,8.00897687 12.2401423,7.93050712 12.2937011,7.92143238 L12.5115836,7.89990214 L12.5081139,8.2700089 L12.599484,8.23735765 Z" id="Fill-48" fill="#EBAA00" mask="url(#mask-4)"></path>
                        <path d="M10.6811566,9.5569306 L10.6776868,8.90497331 L10.3377402,9.01929715 C10.2665658,9.03975979 10.307847,9.0725 10.249484,9.09954626 L9.91656584,9.22294484 L10.3001957,9.21253559 C10.3579359,9.21253559 10.3218149,9.13397687 10.3756406,9.12490214 L10.5935231,9.10337189 L10.5918327,9.58789146 L10.6811566,9.5569306 Z" id="Fill-49" fill="#EBAA00" mask="url(#mask-4)"></path>
                        <path d="M12.3465803,8.26253177 C12.5511671,8.26253177 12.4242475,8.08091277 12.6143111,8.05990921 L12.4798143,7.8161032 C12.2269223,7.86367008 12.3749951,7.93841804 12.1678826,8.0012228 L12.3465803,8.26253177 Z" id="Fill-50" fill="#FFBB59" mask="url(#mask-4)"></path>
                        <path d="M13.1819395,8.03579181 C12.6362989,9.08534698 11.9051601,8.91016904 11.8151246,9.41372776 C11.5290925,9.18685943 11.6514235,8.71310498 11.8362989,8.50536477 L13.1819395,8.03579181 Z" id="Fill-51" fill="#FFBB59" mask="url(#mask-4)"></path>
                        <path d="M13.341806,8.93967082 C13.1547954,8.7130694 13.0265925,8.45354982 13.1819306,8.03575623 C12.63629,9.08531139 11.9051512,8.91013345 11.8151157,9.41369217 C12.1240125,8.99563167 13.0581762,8.96298043 13.341806,8.93967082" id="Fill-52" fill="#EBAA00" mask="url(#mask-4)"></path>
                        <path d="M11.8283096,10.5751957 C11.5065125,10.1042883 11.5343594,9.61950178 11.8196797,9.48569395 C12.3270641,9.30393238 12.9803559,9.10482206 13.3418327,8.93969751 C13.0849822,9.92911032 11.9420107,10.01879 11.8283096,10.5751957" id="Fill-53" fill="#FFBB59" mask="url(#mask-4)"></path>
                        <path d="M13.341806,8.93967082 C13.0849555,9.92908363 11.941984,10.0187633 11.8282829,10.575169 C12.0677847,10.2547954 12.6185854,10.0441192 13.6653826,10.00871 C13.4353114,9.71369217 13.2726779,9.38451068 13.341806,8.93967082" id="Fill-54" fill="#EBAA00" mask="url(#mask-4)"></path>
                        <path d="M11.1794662,9.37661032 C10.7364057,9.54200178 10.3437011,9.67892349 9.9961032,9.79120107 C9.83836299,9.95312278 9.64201068,10.3944929 9.93640569,10.7711833 C9.88177936,10.3374644 10.8128292,10.1734964 11.1794662,9.37661032" id="Fill-55" fill="#FFBB59" mask="url(#mask-4)"></path>
                        <path d="M9.9363968,10.7711655 C9.88177046,10.3374466 10.8128203,10.1734786 11.1794573,9.37659253 C11.163532,9.56938612 11.0884431,9.98646797 11.43871,10.3329982 C10.899742,10.3684075 10.1949377,10.4458986 9.9363968,10.7711655" id="Fill-56" fill="#EBAA00" mask="url(#mask-4)"></path>
                        <path d="M10.4289102,9.46571683 C10.6332347,9.46571683 10.5054139,9.28422676 10.6958859,9.26326188 L10.5617684,9.01928826 C10.3099046,9.066562 10.4559856,9.14219999 10.2494573,9.20468355 L10.4289102,9.46571683 Z" id="Fill-57" fill="#FFBB59" mask="url(#mask-4)"></path>
                        <path d="M9.7886032,9.85024911 C9.40426157,10.1257829 8.70959964,10.6440214 8.34358541,11.5124377 C8.58273132,11.486726 8.82427936,11.4863701 9.17072064,11.5597687 C8.89865658,11.3707117 8.84509786,11.1603915 9.7886032,9.85024911" id="Fill-58" fill="#FFBB59" mask="url(#mask-4)"></path>
                        <path d="M9.45150356,11.6167527 L9.17072064,11.5598132 C8.89865658,11.3707562 8.84509786,11.1604359 9.7886032,9.85029359 C9.59438612,10.1967349 9.28575623,10.8153292 9.45150356,11.6167527" id="Fill-59" fill="#EBAA00" mask="url(#mask-4)"></path>
                        <path d="M13.9987422,9.15815455 C14.203329,9.15815455 14.0764094,8.97584233 14.2664731,8.9556996 L14.1319762,8.71172598 C13.8790842,8.75899972 14.027157,8.83463771 13.8200445,8.89712127 L13.9987422,9.15815455 Z" id="Fill-60" fill="#FFBB59" mask="url(#mask-4)"></path>
                        <path d="M12.554653,13.9591103 L12.7756495,14.2364235 C12.8066103,14.2715658 12.7930872,14.307331 12.7899733,14.3361566 C12.9453114,14.3281495 13.1162189,14.3771708 13.2191548,14.5228114 C13.3289413,14.6792171 13.4064324,14.7622242 13.4912189,14.8283274 C13.6087456,14.9169395 13.7237811,14.9568861 13.8290302,14.9846441 C13.9819662,15.0249466 14.099048,15.1233452 14.1679093,15.3332206 C14.1921975,15.3318861 14.2106139,15.3179181 14.2913078,15.3411388 L14.5841904,15.4412278 C14.6012722,15.448968 14.626984,15.4576868 14.6461121,15.479573 C14.6641726,15.5031495 14.6711121,15.5275267 14.6749377,15.5532384 C14.6780516,15.5769039 14.6780516,15.6088434 14.6641726,15.637669 L14.4437989,15.9487011 C14.4219128,15.97379 14.3854359,15.9838434 14.3743149,15.9845552 C14.4337456,16.1277046 14.4445107,16.3147153 14.3232473,16.471032 C14.171379,16.6677402 14.1494929,16.7275267 14.113016,16.8387367 C14.0900623,16.9196975 14.0792972,17.0677402 14.0775178,17.2390925 C14.0764502,17.373968 14.0091014,17.4986121 13.8599911,17.5873132 C13.8620374,17.5970996 13.871468,17.6148043 13.8725356,17.6419395 L13.8756495,17.9577758 C13.8787633,17.9980783 13.8725356,18.0401601 13.8543861,18.0696975 C13.8259164,18.1114235 13.7887278,18.1284164 13.7431762,18.1336655 C13.7001157,18.1385587 13.6605249,18.1315302 13.6542082,18.1291281 L13.3358808,18.0252135 C13.3042972,18.0091993 13.2986922,17.990516 13.299048,17.993274 C12.9744929,18.2521708 12.7085676,18.018274 12.4532295,18.0101779 C12.1980694,18.018274 11.9322331,18.2521708 11.607589,17.993274 C11.6080338,17.990516 11.6024288,18.0091993 11.5708452,18.0252135 L11.2525178,18.1291281 C11.2462011,18.1315302 11.2066103,18.1385587 11.1635498,18.1336655 C11.1179982,18.1284164 11.0808096,18.1114235 11.0523399,18.0696975 C11.0341904,18.0401601 11.0279626,17.9980783 11.0310765,17.9577758 L11.0341904,17.6419395 C11.035258,17.6148043 11.0446886,17.5970996 11.0467349,17.5873132 C10.8976246,17.4986121 10.8301868,17.373968 10.8291192,17.2390925 C10.8274288,17.0677402 10.8166637,16.9196975 10.79371,16.8387367 C10.7572331,16.7275267 10.735347,16.6677402 10.5831228,16.471032 C10.4621263,16.3147153 10.4729804,16.1277046 10.532411,15.9845552 C10.52129,15.9838434 10.4843683,15.97379 10.462927,15.9487011 L10.2425534,15.637669 C10.2285854,15.6088434 10.2285854,15.5769039 10.2317883,15.5532384 C10.2356139,15.5275267 10.2425534,15.5031495 10.2606139,15.479573 C10.279742,15.4576868 10.3054537,15.448968 10.3224466,15.4412278 L10.6154181,15.3411388 C10.6961121,15.3179181 10.7145285,15.3318861 10.7388167,15.3332206 C10.8076779,15.1233452 10.9247598,15.0249466 11.0776957,14.9846441 C11.1829448,14.9568861 11.2979804,14.9169395 11.4155071,14.8283274 C11.5002046,14.7622242 11.5777847,14.6792171 11.6875712,14.5228114 C11.7904181,14.3771708 11.9614146,14.3281495 12.1167527,14.3361566 C12.1136388,14.307331 12.1001157,14.2715658 12.1310765,14.2364235 L12.352073,13.9591103 C12.3898843,13.912847 12.4278737,13.9118683 12.4532295,13.9083986 C12.4788523,13.9118683 12.5167527,13.912847 12.554653,13.9591103" id="Fill-61" fill="#002E60" mask="url(#mask-4)"></path>
                        <path d="M12.366637,15.038194 C12.2933274,14.9662189 12.1748221,14.9151512 12.0371886,15.0170196 C12.019484,15.0301868 12.0014235,15.0458452 11.9830071,15.0646174 C11.8710854,15.1734253 11.8484875,15.2735142 11.7233986,15.3335676 C11.5537367,15.4142616 11.2479537,15.4173754 11.3487544,15.7395285 C11.3827402,15.8340125 11.3852313,15.8197776 11.2927936,15.802073 C11.1336299,15.7628381 10.9956406,15.6744929 10.9838078,15.5052758 C10.9792705,15.34371 11.0519573,15.2206673 11.1912811,15.174048 C11.2795374,15.1445107 11.3775801,15.1372153 11.5551601,15.0139057 C11.7661032,14.8679093 11.7976868,14.6823221 11.9589858,14.6090125 C12.0552491,14.5696886 12.1487544,14.5700445 12.2394128,14.6107028 C12.3930605,14.6808986 12.4218861,14.8406851 12.408363,15.0316103 C12.4069395,15.0823221 12.3819395,15.0555427 12.366637,15.038194" id="Fill-62" fill="#E41819" mask="url(#mask-4)"></path>
                        <path d="M12.405605,15.9077135 L12.4069395,15.3534431 C12.4153025,15.2320907 12.3659253,15.1376068 12.2533808,15.1094039 C12.205694,15.0976601 12.1591637,15.0997064 12.1153915,15.1250623 C12.0566726,15.1594929 12.013879,15.2244395 11.9600534,15.2884075 C11.9044484,15.3520196 11.8477758,15.4125178 11.7744662,15.442411 C11.7146797,15.4666993 11.6406584,15.4820018 11.5819395,15.5135854 C11.5130783,15.5504181 11.4605872,15.6043327 11.4627224,15.7033541 C11.4627224,15.7572687 11.4870107,15.8107384 11.5314947,15.8497064 C11.5784698,15.8892972 11.6298932,15.9000623 11.6893238,15.9194573 L12.1629893,16.0727491 C12.1998221,16.0828915 12.2133452,16.075952 12.2297153,16.0477491 C12.280427,15.9639413 12.3298043,15.9570907 12.3753559,15.9497954 C12.3989324,15.9490836 12.4065836,15.925774 12.405605,15.9077135" id="Fill-63" fill="#E41819" mask="url(#mask-4)"></path>
                        <path d="M12.5702847,15.038194 C12.6435943,14.9662189 12.7620996,14.9151512 12.8997331,15.0170196 C12.9174377,15.0301868 12.9354982,15.0458452 12.9539146,15.0646174 C13.0658363,15.1734253 13.0884342,15.2735142 13.2135231,15.3335676 C13.3831851,15.4142616 13.688968,15.4173754 13.5881673,15.7395285 C13.5541815,15.8340125 13.5516904,15.8197776 13.6441281,15.802073 C13.8032918,15.7628381 13.9412811,15.6744929 13.9531139,15.5052758 C13.9576512,15.34371 13.8849644,15.2206673 13.7456406,15.174048 C13.6573843,15.1445107 13.5593416,15.1372153 13.3817616,15.0139057 C13.1708185,14.8679093 13.1395018,14.6823221 12.9779359,14.6090125 C12.8816726,14.5696886 12.7881673,14.5700445 12.6975089,14.6107028 C12.5438612,14.6808986 12.5150356,14.8406851 12.5285587,15.0316103 C12.5299822,15.0823221 12.5549822,15.0555427 12.5702847,15.038194" id="Fill-64" fill="#E41819" mask="url(#mask-4)"></path>
                        <path d="M12.5313612,15.9077135 L12.5299377,15.3534431 C12.5216637,15.2320907 12.570952,15.1376068 12.6835854,15.1094039 C12.7311833,15.0976601 12.7778025,15.0997064 12.8215747,15.1250623 C12.8802936,15.1594929 12.9229982,15.2244395 12.9769128,15.2884075 C13.0328737,15.3520196 13.0891904,15.4125178 13.1625,15.442411 C13.2222865,15.4666993 13.2963078,15.4820018 13.3550267,15.5135854 C13.4237989,15.5504181 13.47629,15.6043327 13.4742438,15.7033541 C13.4742438,15.7572687 13.4498665,15.8107384 13.4053826,15.8497064 C13.3584964,15.8892972 13.307073,15.9000623 13.2476423,15.9194573 L12.7739769,16.0727491 C12.7607206,16.0772865 12.7479093,16.0797776 12.7367883,16.0776423 C12.7301157,16.0765747 12.7242438,16.0741726 12.7186388,16.0696352 C12.6436388,15.9587811 12.6157918,15.964742 12.5479982,15.9490836 C12.5344751,15.9410765 12.5299377,15.9261299 12.5313612,15.9077135" id="Fill-65" fill="#E41819" mask="url(#mask-4)"></path>
                        <path d="M13.2570107,17.1511833 C13.358879,17.1661299 13.4846797,17.1373043 13.5353915,16.9739591 C13.5419751,16.9527847 13.5475801,16.9291192 13.5514057,16.9034075 C13.5771174,16.7494039 13.5364591,16.6552758 13.6017616,16.5329448 C13.6907295,16.3678203 13.9357473,16.1847242 13.6639502,15.9841904 C13.5805872,15.9278737 13.5871708,15.940774 13.6723132,15.9003826 C13.8238256,15.838194 13.9871708,15.8277847 14.0969573,15.9577669 C14.1960676,16.085347 14.2099466,16.2274288 14.1251601,16.3473577 C14.0712456,16.4234253 13.9966014,16.4870374 13.9263167,16.6917527 C13.842242,16.9340125 13.9266726,17.1021619 13.8398399,17.2567883 C13.7852135,17.3454893 13.7095018,17.4003826 13.6121708,17.4212011 C13.4471352,17.4552758 13.3289858,17.3433541 13.2274733,17.1810765 C13.1986477,17.1393505 13.2344128,17.14629 13.2570107,17.1511833" id="Fill-66" fill="#E41819" mask="url(#mask-4)"></path>
                        <path d="M12.7120819,16.4728025 L13.0384164,16.9207562 C13.103363,17.0236032 13.1990036,17.0709342 13.3067438,17.026806 C13.3518505,17.0083897 13.3884164,16.9791192 13.4085231,16.9329448 C13.4356584,16.8707562 13.4318327,16.7925534 13.4373488,16.7090125 C13.4446441,16.6250267 13.4544306,16.5429982 13.4961566,16.4754715 C13.5301423,16.4206673 13.5805872,16.3639947 13.6094128,16.3042082 C13.6434875,16.2336566 13.6535409,16.1593683 13.5933986,16.0808096 C13.5618149,16.0370374 13.5107473,16.0083897 13.4516726,16.0033185 C13.3904626,15.999137 13.342153,16.0206673 13.2830783,16.0401512 L12.8101246,16.1965569 C12.7802313,16.2051868 12.7687544,16.2196886 12.7704448,16.2486032 C12.7798754,16.351895 12.7343238,16.3976246 12.7013167,16.4293861 C12.695089,16.4439769 12.7002491,16.4589235 12.7120819,16.4728025" id="Fill-67" fill="#E41819" mask="url(#mask-4)"></path>
                        <path d="M11.6733096,17.1511833 C11.5715302,17.1661299 11.4456406,17.1373043 11.394573,16.9739591 C11.3879893,16.9527847 11.3827402,16.9291192 11.3789146,16.9034075 C11.352847,16.7494039 11.3938612,16.6552758 11.3285587,16.5329448 C11.2392349,16.3678203 10.994573,16.1847242 11.2660142,15.9841904 C11.3493772,15.9278737 11.3427936,15.940774 11.2580071,15.9003826 C11.1064947,15.838194 10.9427936,15.8277847 10.833363,15.9577669 C10.7342527,16.085347 10.7200178,16.2274288 10.8051601,16.3473577 C10.8590747,16.4234253 10.9338078,16.4870374 11.0040036,16.6917527 C11.0877224,16.9340125 11.0036477,17.1021619 11.0904804,17.2567883 C11.1451068,17.3454893 11.2204626,17.4003826 11.3181495,17.4212011 C11.4831851,17.4552758 11.6010676,17.3433541 11.702847,17.1810765 C11.7313167,17.1393505 11.6955516,17.14629 11.6733096,17.1511833" id="Fill-68" fill="#E41819" mask="url(#mask-4)"></path>
                        <path d="M12.2182384,16.4728025 L11.8919039,16.9207562 C11.8269573,17.0236032 11.7313167,17.0709342 11.6235765,17.026806 C11.5784698,17.0083897 11.5419039,16.9791192 11.5214413,16.9329448 C11.4946619,16.8707562 11.4984875,16.7925534 11.4929715,16.7090125 C11.4856762,16.6250267 11.4755338,16.5429982 11.4342527,16.4754715 C11.4001779,16.4206673 11.3493772,16.3639947 11.3209075,16.3042082 C11.2868327,16.2336566 11.2767794,16.1593683 11.3365658,16.0808096 C11.3685053,16.0370374 11.419573,16.0083897 11.4787367,16.0033185 C11.5398577,15.999137 11.5881673,16.0206673 11.647242,16.0401512 L12.1199288,16.1965569 C12.1424377,16.2031406 12.1595196,16.2142616 12.1633452,16.2336566 C12.1483986,16.3132829 12.1824733,16.3664858 12.2248221,16.4220907 C12.2370107,16.4390836 12.2321174,16.4564324 12.2182384,16.4728025" id="Fill-69" fill="#E41819" mask="url(#mask-4)"></path>
                        <path d="M13.0926246,17.2592616 C13.0759875,17.360774 13.0098843,17.471984 12.8388879,17.4705605 C12.8166459,17.4705605 12.7927135,17.4685142 12.7670018,17.4643327 C12.6123754,17.4424466 12.5351512,17.374653 12.3985854,17.399653 C12.2144217,17.4344395 11.9655783,17.6120196 11.8568594,17.2926246 C11.8286566,17.1960053 11.8390658,17.2060587 11.774831,17.2749199 C11.6694929,17.4003648 11.6097064,17.5529448 11.7000979,17.696806 C11.791468,17.8299021 11.9228737,17.8865747 12.0629093,17.8420907 C12.1518772,17.8138879 12.2352402,17.7621085 12.4514324,17.7573043 C12.7075712,17.7509875 12.8423577,17.8820374 13.0162011,17.8466281 C13.1169128,17.8215391 13.1923577,17.7659342 13.2417349,17.6798132 C13.3243861,17.5327491 13.2535676,17.3861299 13.130169,17.2401335 C13.0992082,17.2001868 13.0946708,17.2363078 13.0926246,17.2592616" id="Fill-70" fill="#E41819" mask="url(#mask-4)"></path>
                        <path d="M12.6119929,16.533968 L12.939395,16.9808541 C13.0175979,17.0740036 13.0335231,17.1796975 12.9591459,17.2686655 C12.9275623,17.30621 12.8885943,17.3318327 12.8385943,17.3374377 C12.7708007,17.3440214 12.697847,17.3166192 12.6165302,17.2967794 C12.5341459,17.2780071 12.4528292,17.2627046 12.3759609,17.2814769 C12.3134164,17.2974911 12.2442883,17.328452 12.1786299,17.3377936 C12.1011388,17.3485587 12.0271174,17.3357473 11.9704448,17.2547865 C11.9385053,17.2109253 11.9266726,17.1536299 11.9398399,17.0958897 C11.9540747,17.0361922 11.989573,16.9968683 12.0260498,16.9465125 L12.3186655,16.5433096 C12.3325445,16.5232028 12.3489146,16.5103025 12.3697331,16.5137722 C12.4608363,16.5586121 12.5327224,16.5325445 12.5667972,16.5169751 C12.5852135,16.5047865 12.603274,16.5204448 12.6119929,16.533968" id="Fill-71" fill="#E41819" mask="url(#mask-4)"></path>
                        <path d="M12.7349072,16.2774685 C12.7349072,16.4005804 12.6352465,16.5004677 12.5116929,16.5004677 C12.3880318,16.5004677 12.2884786,16.4005804 12.2884786,16.2774685 C12.2884786,16.154034 12.3880318,16.0540391 12.5116929,16.0540391 C12.6352465,16.0540391 12.7349072,16.154034 12.7349072,16.2774685" id="Fill-72" fill="#FEBE53" mask="url(#mask-4)"></path>
                        <path d="M12.300576,14.4317527 C12.2723261,14.4136922 12.2814314,14.4080872 12.3065295,14.3847776 C12.3712009,14.3191192 12.4369229,14.2492794 12.5062636,14.1652046 C12.5759546,14.2492794 12.6416766,14.3191192 12.7064647,14.3847776 C12.7314461,14.4080872 12.7402012,14.4136922 12.7123015,14.4317527 C12.6338553,14.4831762 12.5436189,14.5475 12.5062636,14.6628025 C12.4692585,14.5475 12.3790222,14.4831762 12.300576,14.4317527" id="Fill-73" fill="#E41819" mask="url(#mask-4)"></path>
                        <path d="M14.1272242,15.5376595 C14.1387011,15.5019674 14.1456406,15.5086673 14.1737544,15.5243816 C14.2509786,15.5623882 14.3326512,15.5995422 14.4285587,15.6347471 C14.363879,15.7380473 14.3117438,15.8317241 14.26379,15.922599 C14.247153,15.9573167 14.2439502,15.9682801 14.2200178,15.947815 C14.1532918,15.8906832 14.0716192,15.8263642 13.9531139,15.8359876 C14.0549822,15.7527871 14.0959075,15.6362089 14.1272242,15.5376595" id="Fill-74" fill="#E41819" mask="url(#mask-4)"></path>
                        <path d="M10.7016103,15.9479618 C10.6776779,15.9680306 10.6744751,15.9570172 10.658194,15.9221415 C10.6113078,15.8293843 10.5601512,15.7343021 10.4965391,15.6290632 C10.5931584,15.5956559 10.6751868,15.5602907 10.7526779,15.5234571 C10.7808808,15.5086502 10.7881762,15.5019198 10.7989413,15.5377745 C10.8291904,15.6377515 10.8687811,15.7553499 10.9699377,15.8413767 C10.8514324,15.8288949 10.769048,15.8920382 10.7016103,15.9479618" id="Fill-75" fill="#E41819" mask="url(#mask-4)"></path>
                        <path d="M13.7776187,17.5882228 C13.8196042,17.5902171 13.8160168,17.5994907 13.813891,17.6333941 C13.813891,17.7253323 13.8170798,17.8215582 13.8295691,17.932941 C13.6904588,17.8928552 13.5679567,17.8640373 13.4506363,17.8383105 C13.4065249,17.8301338 13.3935041,17.8301338 13.4029376,17.7992219 C13.4277834,17.7128678 13.4527622,17.6092629 13.3831406,17.4865125 C13.5202579,17.5710716 13.6602983,17.5820404 13.7776187,17.5882228" id="Fill-76" fill="#E41819" mask="url(#mask-4)"></path>
                        <path d="M11.6953678,17.7885316 C11.705486,17.8188962 11.692223,17.819191 11.647375,17.827642 C11.527188,17.8549603 11.4016684,17.8852267 11.2601512,17.9266955 C11.2697225,17.8169308 11.2697225,17.7221029 11.2669878,17.6315004 C11.2643899,17.5981877 11.2605614,17.5889506 11.3033584,17.5861991 C11.4240924,17.5785343 11.5677973,17.5658578 11.7065798,17.4802669 C11.638214,17.6020202 11.6670644,17.7041199 11.6953678,17.7885316" id="Fill-77" fill="#E41819" mask="url(#mask-4)"></path>
                    </g>
                </g>
            </g>
        </g>
    </g>
</svg>