<?xml version="1.0" encoding="UTF-8" standalone="no"?>
<svg width="25px" height="25px" viewBox="0 0 25 25" version="1.1" xmlns="http://www.w3.org/2000/svg" xmlns:xlink="http://www.w3.org/1999/xlink">
    <!-- Generator: Sketch 42 (36781) - http://www.bohemiancoding.com/sketch -->
    <title>united_crest</title>
    <desc>Created with Sketch.</desc>
    <defs>
        <polygon id="path-1" points="0.0981586022 1.07526882 2.4981586 1.07526882 2.4981586 0.00192204301 0.0981586022 0.00192204301"></polygon>
        <polygon id="path-3" points="0 0.0906854839 0 4.56192204 4.47119624 4.56192204 4.47119624 0.0906854839 1.09294574e-20 0.0906854839"></polygon>
        <polygon id="path-5" points="0 24.9170699 24.5965054 24.9170699 24.5965054 0 0 0"></polygon>
    </defs>
    <g id="Page-1" stroke="none" stroke-width="1" fill="none" fill-rule="evenodd">
        <g id="Desktop-HD" transform="translate(-1018.000000, -377.000000)">
            <g id="Group-8" transform="translate(894.000000, 152.000000)">
                <g id="Group-5" transform="translate(0.000000, 18.000000)">
                    <g id="row_3" transform="translate(17.000000, 207.000000)">
                        <g id="united_crest" transform="translate(107.000000, 0.000000)">
                            <g id="Group-3" transform="translate(11.021505, 23.841801)">
                                <mask id="mask-2" fill="white">
                                    <use xlink:href="#path-1"></use>
                                </mask>
                                <g id="Clip-2"></g>
                                <path d="M2.49600806,0.0660349462 C2.39829301,0.358776882 2.08041667,1.07530914 1.31334677,1.07530914 C0.441841398,1.07530914 0.13780914,0.131223118 0.123024194,0.0925134409 L0.0981586022,0.00192204301 C0.0981586022,0.00192204301 0.849233871,0.064422043 1.26254032,0.064422043 C1.67584677,0.064422043 2.3824328,0.024233871 2.4981586,0.00192204301 L2.49600806,0.0660349462 Z" id="Fill-1" fill="#221F20" mask="url(#mask-2)"></path>
                            </g>
                            <path d="M15.8050806,23.4422581 L15.9849194,23.4663172 C15.7714785,24.0230376 15.3878763,24.6473656 14.6341129,24.6473656 C13.9049462,24.6473656 13.5433871,24.2246505 13.389086,23.9403763 L13.263414,23.8630914 C13.263414,23.8630914 14.5245699,23.8215591 15.8050806,23.4422581" id="Fill-4" fill="#221F20"></path>
                            <path d="M8.89071237,23.4422581 L8.71073925,23.4663172 C8.92418011,24.0230376 9.30791667,24.6473656 10.0616801,24.6473656 C10.7908468,24.6473656 11.1847984,24.201129 11.3464919,23.9403763 L11.432379,23.8630914 C11.432379,23.8630914 10.1713575,23.8215591 8.89071237,23.4422581" id="Fill-6" fill="#221F20"></path>
                            <path d="M12.9460081,23.9658468 C12.8281317,24.1369489 12.7490995,24.12875 12.6068952,24.12875 C12.5353898,24.12875 12.4284005,24.1880242 12.4317608,24.2951478 C12.4340457,24.3788844 12.5025941,24.4491801 12.6185887,24.4491801 C12.8761156,24.4491801 13.0722177,24.0890995 13.1277285,23.9373522 C13.1277285,23.9373522 13.2796102,23.9306317 13.3242339,23.9263306 C13.3242339,23.9263306 13.0513844,24.7389651 12.3439919,24.7389651 C11.635121,24.7389651 11.3464113,23.9350672 11.3464113,23.9350672 C11.3464113,23.9350672 11.9429167,23.9720296 12.2847177,23.9720296 C12.62625,23.9720296 12.8438575,23.9702823 12.9460081,23.9658468" id="Fill-8" fill="#FFF100"></path>
                            <path d="M15.710578,23.6084274 C15.248078,23.7330242 14.9195833,23.8334274 14.1432392,23.9281855 C14.1432392,23.9281855 14.1675672,24.008293 14.3363844,23.999422 C14.4014382,23.9961962 14.4097715,23.9802016 14.4336962,23.9757661 C14.4816801,23.9670296 14.555336,24.0174328 14.5465995,24.1018414 C14.5400134,24.160578 14.4896102,24.2351747 14.317836,24.2351747 C14.1459274,24.2351747 13.9445833,24.0943145 13.8437769,23.9640726 C13.8437769,23.9640726 13.7404167,23.9875941 13.6339651,23.9933737 C13.6339651,23.9933737 13.9643414,24.4565457 14.6158199,24.4565457 C15.3330242,24.4565457 15.5978091,23.8158199 15.710578,23.6084274" id="Fill-10" fill="#FFF100"></path>
                            <path d="M15.2295161,24.0607527 C15.2295161,23.9486559 15.1949731,23.8443548 15.1359677,23.7586022 C14.8850269,23.8176075 14.5980645,23.8716398 14.1776344,23.9240591 C14.1742742,23.9364247 14.171586,23.9489247 14.1693011,23.961828 C14.1947043,23.9823925 14.2437634,24.0044355 14.336371,23.9994624 C14.4014247,23.9962366 14.4097581,23.9801075 14.4336828,23.9758065 C14.4818011,23.9670699 14.5553226,24.0174731 14.546586,24.1018817 C14.54,24.1606183 14.4895968,24.2352151 14.3178226,24.2352151 C14.2736022,24.2352151 14.2270968,24.2258065 14.181129,24.209543 C14.2037097,24.2876344 14.2433602,24.3580645 14.2961828,24.4172043 C14.3924194,24.4416667 14.498871,24.4564516 14.6159409,24.4564516 C14.8457796,24.4564516 15.0291129,24.3907258 15.1758871,24.2942204 C15.2101613,24.2239247 15.2295161,24.1443548 15.2295161,24.0607527" id="Fill-12" fill="#FFDF00"></path>
                            <path d="M15.222164,24.0607527 C15.222164,23.9491935 15.187621,23.8454301 15.1284812,23.7606183 C14.8807661,23.8181452 14.5972984,23.8716398 14.1856048,23.9231183 C14.181707,23.9373656 14.1783468,23.9518817 14.1756586,23.9668011 C14.2028091,23.9856183 14.2511962,24.0038978 14.3364113,23.9994624 C14.4014651,23.9962366 14.4097984,23.9801075 14.4337231,23.9758065 C14.481707,23.9670699 14.5553629,24.0174731 14.5466263,24.1018817 C14.5400403,24.1606183 14.4896371,24.2352151 14.3177285,24.2352151 C14.2761962,24.2352151 14.2329167,24.2268817 14.1895027,24.2126344 C14.2131586,24.2912634 14.2546909,24.3619624 14.3089919,24.4205645 C14.4018683,24.4431452 14.5041532,24.4564516 14.6158468,24.4564516 C14.8393683,24.4564516 15.0189382,24.3943548 15.1636962,24.3022849 C15.2011962,24.2299731 15.222164,24.1475806 15.222164,24.0607527" id="Fill-14" fill="#FFE000"></path>
                            <path d="M15.2149462,24.0607527 C15.2149462,23.9497312 15.18,23.8465054 15.1207258,23.7620968 C14.8765054,23.819086 14.5965323,23.871371 14.193172,23.9221774 C14.188871,23.938172 14.1851075,23.9543011 14.1822849,23.9711022 C14.2102419,23.9884409 14.2578226,24.003629 14.3364516,23.9994624 C14.401371,23.9962366 14.4098387,23.9801075 14.4337634,23.9758065 C14.4817473,23.9670699 14.5554032,24.0174731 14.5465323,24.1018817 C14.5400806,24.1606183 14.4896774,24.2352151 14.3177688,24.2352151 C14.2787903,24.2352151 14.2383333,24.227957 14.1980108,24.2150538 C14.2226075,24.2942204 14.2654839,24.365457 14.3219355,24.4235215 C14.4113172,24.4442204 14.5093011,24.4564516 14.6158871,24.4564516 C14.8330914,24.4564516 15.0088978,24.3977151 15.151371,24.3099462 C15.191828,24.2360215 15.2149462,24.1509409 15.2149462,24.0607527" id="Fill-16" fill="#FFE200"></path>
                            <path d="M8.98528226,23.6084274 C9.44751344,23.7330242 9.77600806,23.8334274 10.5524866,23.9281855 C10.5524866,23.9281855 10.5281586,24.008293 10.3593414,23.999422 C10.2942876,23.9961962 10.2859543,23.9802016 10.2620296,23.9757661 C10.2141801,23.9670296 10.1405242,24.0174328 10.1493952,24.1018414 C10.155578,24.160578 10.2061156,24.2351747 10.3778898,24.2351747 C10.5497984,24.2351747 10.7508737,24.0943145 10.8515457,23.9640726 C10.8515457,23.9640726 10.9553091,23.9875941 11.0620296,23.9933737 C11.0620296,23.9933737 10.7315188,24.4565457 10.0797715,24.4565457 C9.36270161,24.4565457 9.09778226,23.8158199 8.98528226,23.6084274" id="Fill-18" fill="#FFF100"></path>
                            <path d="M12.2756048,19.7961694 C14.746707,19.7961694 17.4846102,18.2792339 19.4047715,16.0924059 C19.612164,15.85625 19.9648522,15.4081317 20.8002016,15.4081317 C21.6360887,15.4081317 22.7471102,16.169422 22.6160618,17.5559812 C22.5209005,18.5668683 21.0758737,20.8452285 18.6047715,22.249664 C16.1335349,23.6540995 13.8579973,23.95625 12.2756048,23.95625 C10.6934812,23.95625 8.41767473,23.6540995 5.94657258,22.249664 C3.47533602,20.8452285 2.03030914,18.5668683 1.93501344,17.5559812 C1.80409946,16.169422 2.91512097,15.4081317 3.75073925,15.4081317 C4.58635753,15.4081317 4.9390457,15.85625 5.14643817,16.0924059 C7.06646505,18.2792339 9.80450269,19.7961694 12.2756048,19.7961694" id="Fill-20" fill="#FFF100"></path>
                            <path d="M12.2756048,19.8850269 C11.0489919,19.8850269 9.75880376,19.5164785 8.53407258,18.8800538 C7.26525538,18.2211828 6.06579301,17.2734677 5.07990591,16.1510215 C4.97923387,16.036371 4.84307796,15.8703763 4.63581989,15.7362366 C4.42990591,15.6027688 4.14858871,15.4968548 3.75073925,15.4968548 C3.70651882,15.4968548 3.66364247,15.4987366 3.62251344,15.5027688 C3.25759409,15.5371774 2.85544355,15.7147312 2.54401882,16.023871 C2.23299731,16.3326075 2.01337366,16.7734677 2.01337366,17.3348925 C2.01337366,17.406129 2.01673387,17.4769624 2.02318548,17.5477957 C2.0750672,18.0972581 2.54280914,19.0385215 3.37103495,20.0076075 C4.02802419,20.7765591 4.91028226,21.5588172 5.99025538,22.1725269 C7.21740591,22.8699731 8.39616935,23.2937634 9.46458333,23.5432258 C10.5321909,23.7924194 11.4898522,23.8675538 12.2756048,23.8675538 C13.0612231,23.8675538 14.0191532,23.7924194 15.0866263,23.5432258 C16.1550403,23.2937634 17.3339382,22.8699731 18.5609543,22.1725269 C19.6409274,21.5585484 20.5233199,20.7765591 21.1803091,20.0076075 C22.0086694,19.0385215 22.4761425,18.0972581 22.5278898,17.5477957 C22.5347446,17.4769624 22.537836,17.406129 22.537836,17.3348925 C22.537836,16.7734677 22.3182124,16.3326075 22.0073253,16.023871 C21.6956317,15.7147312 21.2934812,15.5371774 20.9285618,15.5027688 C20.8874328,15.4987366 20.8445565,15.4968548 20.8002016,15.4968548 C20.4024866,15.4968548 20.1213038,15.6027688 19.9152554,15.7362366 C19.7081317,15.8703763 19.5719758,16.036371 19.4714382,16.1510215 C18.4856855,17.2734677 17.2859543,18.220914 16.0171371,18.8800538 C14.7925403,19.5164785 13.5022177,19.8850269 12.2756048,19.8850269 M12.2756048,19.7073387 C13.4730511,19.7073387 14.7351478,19.3460484 15.9352823,18.7226613 C17.1855511,18.0730645 18.3672715,17.1398656 19.3379704,16.0342204 C19.4448253,15.9123118 19.5889113,15.736371 19.81875,15.5873118 C20.0499328,15.4377151 20.362836,15.3190323 20.8002016,15.3190323 C20.8456317,15.3190323 20.8942876,15.3217204 20.9452285,15.3264247 C21.3480511,15.3641935 21.7906586,15.5592204 22.1321909,15.8984677 C22.4739919,16.2375806 22.7155242,16.720914 22.7155242,17.3348925 C22.7155242,17.4070699 22.7118952,17.4836828 22.7042339,17.5641935 C22.649664,18.1448387 22.1671371,19.1257527 21.3149866,20.1229301 C20.6461694,20.905457 19.7480511,21.7015591 18.6485887,22.3266935 C17.4045027,23.0336828 16.2097446,23.4631183 15.1269489,23.7162097 C14.0434812,23.9688978 13.0721102,24.0451075 12.2756048,24.0451075 C11.4790995,24.0451075 10.5079973,23.9688978 9.42426075,23.7162097 C8.34146505,23.4631183 7.1468414,23.0336828 5.90275538,22.3266935 C4.8031586,21.7019624 3.90504032,20.905457 3.23635753,20.1230645 C2.38407258,19.1257527 1.90168011,18.1451075 1.8468414,17.5641935 C1.83931452,17.4836828 1.83555108,17.4070699 1.83555108,17.3348925 C1.83555108,16.720914 2.07708333,16.2375806 2.41901882,15.8984677 C2.76055108,15.5592204 3.2031586,15.3641935 3.60584677,15.3264247 C3.65692204,15.3217204 3.70530914,15.3190323 3.75073925,15.3190323 C4.18837366,15.3190323 4.50127688,15.4377151 4.73232527,15.5873118 C4.9624328,15.736371 5.10625,15.9123118 5.21323925,16.0342204 C6.18393817,17.1398656 7.36579301,18.0730645 8.61606183,18.7226613 C9.81619624,19.3460484 11.0781586,19.7073387 12.2756048,19.7073387" id="Fill-22" fill="#221F20"></path>
                            <path d="M4.86915323,16.3098118 L4.84038978,16.2770161 C4.64361559,16.0509409 4.37412634,15.7415323 3.73057796,15.7415323 C3.35530914,15.7415323 2.93017473,15.9423387 2.64751344,16.2525538 C2.43635753,16.4846774 2.19697581,16.8920699 2.25584677,17.5150538 C2.33622312,18.3666667 3.68797043,20.5745968 6.09563172,21.9432796 C8.03608871,23.0459677 10.1084005,23.6051075 12.2554435,23.6051075 C14.4024866,23.6051075 16.4747984,23.0459677 18.4152554,21.9432796 C20.8227823,20.5745968 22.1750672,18.3666667 22.2551747,17.5150538 C22.3137769,16.8920699 22.0745296,16.4846774 21.8632392,16.2525538 C21.5807124,15.9423387 21.1557124,15.7415323 20.780578,15.7415323 C20.1368952,15.7415323 19.8672715,16.0509409 19.6706317,16.2770161 L19.6417339,16.3098118 C17.5729167,18.6658602 14.7424059,20.1297043 12.2554435,20.1297043 C9.76848118,20.1297043 6.93797043,18.6658602 4.86915323,16.3098118" id="Fill-24" fill="#E12E21"></path>
                            <path d="M20.2140457,13.5302823 C20.2140457,12.344664 21.1750672,11.3833737 22.3608199,11.3833737 C23.5464382,11.3833737 24.5077285,12.344664 24.5077285,13.5302823 C24.5077285,14.7157661 23.5464382,15.676922 22.3608199,15.676922 C21.1750672,15.676922 20.2140457,14.7157661 20.2140457,13.5302823" id="Fill-26" fill="#FFF100"></path>
                            <path d="M20.3030376,13.5302823 C20.3030376,14.0984274 20.533414,14.613078 20.9057258,14.9852554 C21.278172,15.3577016 21.7925538,15.5882124 22.3608333,15.5882124 C22.9291129,15.5882124 23.4434946,15.3577016 23.8160753,14.9852554 C24.1883871,14.613078 24.4187634,14.0984274 24.4187634,13.5302823 C24.4187634,12.9618683 24.1883871,12.4473522 23.8160753,12.0750403 C23.4434946,11.7027285 22.9291129,11.4723522 22.3608333,11.4723522 C21.7925538,11.4723522 21.278172,11.7025941 20.9057258,12.0749059 C20.533414,12.4473522 20.3030376,12.9618683 20.3030376,13.5302823 M20.1253495,13.5302823 C20.1253495,12.9128091 20.3754839,12.3539382 20.7800538,11.9493683 C21.1846237,11.5447984 21.7434946,11.2943952 22.3608333,11.2943952 C22.978172,11.2943952 23.5371774,11.5447984 23.9416129,11.9493683 C24.3463172,12.3539382 24.5964516,12.9128091 24.5964516,13.5302823 C24.5964516,14.1474866 24.3463172,14.7064919 23.9416129,15.1110618 C23.5371774,15.5154973 22.978172,15.7657661 22.3608333,15.7657661 C21.7434946,15.7657661 21.1846237,15.5154973 20.7800538,15.1110618 C20.3754839,14.7064919 20.1253495,14.1477554 20.1253495,13.5302823" id="Fill-28" fill="#221F20"></path>
                            <path d="M0.0888575269,13.5336962 C0.0888575269,12.3482124 1.05001344,11.386922 2.23576613,11.386922 C3.42125,11.386922 4.38240591,12.3482124 4.38240591,13.5336962 C4.38240591,14.7194489 3.42125,15.6806048 2.23576613,15.6806048 C1.05001344,15.6806048 0.0888575269,14.7194489 0.0888575269,13.5336962" id="Fill-30" fill="#FFF100"></path>
                            <g id="Group-34" transform="translate(0.000000, 11.207392)">
                                <mask id="mask-4" fill="white">
                                    <use xlink:href="#path-3"></use>
                                </mask>
                                <g id="Clip-33"></g>
                                <path d="M0.177782258,2.32630376 C0.177782258,2.89471774 0.408158602,3.40923387 0.78047043,3.78141129 C1.15291667,4.15399194 1.6674328,4.38436828 2.23571237,4.38436828 C2.80399194,4.38436828 3.31837366,4.15399194 3.69068548,3.78141129 C4.06313172,3.40923387 4.29350806,2.89471774 4.29350806,2.32630376 C4.29350806,1.75802419 4.06313172,1.24364247 3.69068548,0.871196237 C3.31837366,0.498884409 2.80399194,0.268508065 2.23571237,0.268508065 C1.6674328,0.268508065 1.15291667,0.498884409 0.780604839,0.871196237 C0.408158602,1.24350806 0.177782258,1.75802419 0.177782258,2.32630376 M-4.03225808e-05,2.32630376 C-4.03225808e-05,1.70883065 0.250228495,1.15009409 0.654932796,0.745524194 C1.05950269,0.340954301 1.61837366,0.0906854839 2.23571237,0.0906854839 C2.85305108,0.0906854839 3.41192204,0.340954301 3.81649194,0.745524194 C4.22106183,1.15022849 4.47119624,1.70883065 4.47119624,2.32630376 C4.47119624,2.94364247 4.22106183,3.50264785 3.81649194,3.90721774 C3.41192204,4.31165323 2.85305108,4.56192204 2.23571237,4.56192204 C1.61837366,4.56192204 1.05950269,4.31165323 0.654798387,3.90721774 C0.250228495,3.50264785 -4.03225808e-05,2.94364247 -4.03225808e-05,2.32630376" id="Fill-32" fill="#221F20" mask="url(#mask-4)"></path>
                            </g>
                            <path d="M22.9484274,7.75608871 L22.9605242,7.18135753 C23.1359274,7.31375 23.4697984,7.31885753 23.6653629,7.10985215 C23.7551478,7.01442204 23.8058199,6.86872312 23.797621,6.71630376 C23.7882124,6.54694892 23.7125403,6.36939516 23.5841801,6.24439516 C22.8613306,5.53982527 22.2223522,4.83552419 22.2223522,4.83552419 C22.1575672,4.73135753 22.0513844,4.6543414 21.9933199,4.62853495 C21.9027285,4.58821237 21.5902285,4.4450672 21.3517876,4.80783602 C21.1352554,5.13659946 21.1675134,5.60192204 21.2066263,5.77073925 L21.8848522,6.69237903 C22.1161694,6.9856586 22.7679167,7.61079301 22.9484274,7.75608871" id="Fill-35" fill="#221F20"></path>
                            <path d="M8.49379032,1.77806452 C9.34607527,1.49231183 10.1240323,1.25655914 11.172957,1.16327957 L8.49379032,1.77806452 Z" id="Fill-37" fill="#221F20"></path>
                            <path d="M8.49379032,1.7803629 C9.34607527,1.4943414 10.1240323,1.25885753 11.172957,1.16557796 L11.3327688,1.07538978 C10.7462097,0.614502688 10.1646237,0.300927419 9.58545699,0.300927419 C9.2216129,0.300927419 8.4825,0.547567204 8.31637097,1.85119624 L8.49379032,1.7803629 Z" id="Fill-39" fill="#221F20"></path>
                            <path d="M16.0598522,1.7803629 C15.2074328,1.4943414 14.4294758,1.25885753 13.3806855,1.16557796 L13.2208737,1.07538978 C13.8072984,0.614502688 14.3890188,0.300927419 14.9683199,0.300927419 C15.3320296,0.300927419 16.0712769,0.547567204 16.2371371,1.85119624 L16.0598522,1.7803629 Z" id="Fill-41" fill="#221F20"></path>
                            <path d="M11.577379,1.08268011 C11.7507661,1.04968011 12.1507661,1.01668011 12.3108468,1.01668011 C12.4706586,1.01668011 12.9124597,1.09518011 13.0092339,1.12218011 L11.577379,1.08268011 Z" id="Fill-43" fill="#221F20"></path>
                            <path d="M11.3131586,1.12125 C11.7417876,0.299341398 12.134664,1.34408601e-05 12.3520027,1.34408601e-05 C12.6237769,1.34408601e-05 12.941922,0.432405914 13.1915188,0.989126344 L13.244207,1.11452957 L13.0271371,1.09651882 C12.8796909,1.07004032 12.4706855,1.06560484 12.3107392,1.06560484 C12.1506586,1.06560484 11.8040188,1.06560484 11.5951478,1.08334677 L11.3131586,1.12125 Z" id="Fill-45" fill="#221F20"></path>
                            <polygon id="Fill-47" fill="#FFF100" points="10.4742876 20.5812231 10.0905511 22.0132124 9.37495968 20.2867339 8.92952957 20.1669758 8.38692204 22.1919758 8.86998656 22.3216801 9.25681452 20.8781317 9.98369624 22.6200672 10.4177016 22.7364651 10.9601747 20.7114651"></polygon>
                            <polygon id="Fill-49" fill="#FFF100" points="12.1421237 20.8369086 11.5918548 20.8080108 11.4821774 22.9012903 12.0324462 22.9301882"></polygon>
                            <polygon id="Fill-51" fill="#FFF100" points="12.636371 20.8188038 12.6749462 21.0950134 13.262043 21.0119489 13.5151344 22.8123522 14.0608333 22.7356048 13.8078763 20.9357392 14.3859677 20.8542876 14.3472581 20.5784812"></polygon>
                            <path d="M17.2430108,19.4122312 L16.5325269,19.8223118 L17.583871,21.6439516 L18.2892473,21.2364247 C19.0229839,20.8130376 19.0907258,20.1736559 18.8032258,19.6629032 C18.4556452,19.0552419 17.8854839,19.0412634 17.2430108,19.4122312 M18.3150538,19.9657258 C18.581586,20.4330645 18.527957,20.7725806 18.1168011,21.0102151 L17.9217742,21.1227151 L17.1509409,19.788172 L17.361828,19.6663978 C17.853629,19.3822581 18.1311828,19.6349462 18.3150538,19.9657258" id="Fill-53" fill="#FFF100"></path>
                            <polygon id="Fill-55" fill="#FFF100" points="15.9120565 21.9911962 15.7029167 21.3476478 16.3240188 21.1457661 16.2367876 20.8778898 15.6160887 21.0797715 15.4373253 20.5300403 16.0754973 20.3227823 15.9893414 20.0579973 14.824422 20.4366263 15.4721371 22.4300403 16.7568145 22.012836 16.6697177 21.7449597"></polygon>
                            <path d="M7.93705645,19.681707 L7.31635753,20.8014651 C7.12912634,21.1390995 6.93598118,21.3529435 6.62025538,21.1705511 C6.30681452,20.9970296 6.37926075,20.737621 6.57106183,20.3916532 L7.19323925,19.269207 L6.69189516,18.9913844 L6.03504032,20.1767339 C5.67254032,20.8306317 6.12952957,21.2335887 6.48383065,21.4296909 C6.86514785,21.64125 7.4190457,21.7986425 7.7784543,21.1502554 L8.43840054,19.9593952 L7.93705645,19.681707 Z" id="Fill-57" fill="#FFF100"></path>
                            <path d="M7.58200269,7.36888441 L7.58200269,17.1836694 L12.2755511,20.2010081 L16.9690995,17.1836694 L16.974879,7.3843414 C16.8262231,7.25114247 16.5135887,6.95961022 16.2673522,6.80880376 L8.26211022,6.80880376 C8.05754032,6.95221774 7.65135753,7.29334677 7.58200269,7.36888441" id="Fill-59" fill="#FFF100"></path>
                            <polygon id="Fill-61" fill="#221F20" points="7.67086022 7.36888441 7.67086022 17.1355511 12.2755645 20.0953629 16.8801344 17.1355511 16.8861828 7.3843414 17.063871 7.3843414 17.057957 17.1836694 17.057957 17.2320565 17.016828 17.2585349 12.323414 20.275336 12.2755645 20.30625 12.2275806 20.275336 7.53403226 17.2585349 7.49303763 17.2320565 7.49303763 7.36888441"></polygon>
                            <path d="M16.9155242,7.4506586 C16.8733199,7.41262097 16.9051747,7.44098118 16.8602823,7.40038978 L16.859879,7.40038978 C16.6997984,7.25563172 16.43125,7.01329301 16.2211694,6.88452957 L16.3135081,6.73305108 C16.5409274,6.8724328 16.8155242,7.12041667 16.9793683,7.26853495 L16.9790995,7.26853495 C16.9832661,7.27229839 16.9588038,7.25038978 17.034207,7.31799731 L16.9155242,7.4506586 Z" id="Fill-63" fill="#221F20"></path>
                            <mask id="mask-6" fill="white">
                                <use xlink:href="#path-5"></use>
                            </mask>
                            <g id="Clip-66"></g>
                            <polygon id="Fill-65" fill="#221F20" mask="url(#mask-6)" points="8.26196237 7.22002688 16.2673387 7.22002688 16.2673387 6.72002688 8.26196237 6.72002688"></polygon>
                            <path d="M8.31305108,6.88178763 C8.21721774,6.94899194 8.08186828,7.05557796 7.95821237,7.15732527 C7.81331989,7.27668011 7.68254032,7.39052419 7.64732527,7.42896505 L7.51681452,7.30880376 C7.55592742,7.26592742 7.69423387,7.14522849 7.84571237,7.02049731 C7.97729839,6.91216398 8.11775538,6.80141129 8.21103495,6.7359543 L8.31305108,6.88178763 Z" id="Fill-67" fill="#221F20" mask="url(#mask-6)"></path>
                            <path d="M14.1509677,14.4115457 L14.1509677,14.0467608 C14.1509677,14.0467608 14.0532527,13.8958199 13.8131989,13.8958199 C13.573414,13.8958199 13.4312097,13.9667876 13.4312097,14.0291532 C13.4312097,14.1268683 13.6443817,14.4115457 14.1509677,14.4115457 L14.1509677,14.4115457 Z M12.2576882,11.1815726 L12.6223387,10.5474328 L12.9063441,11.1815726 L13.3775806,11.1815726 C13.0933065,11.4483737 12.9777151,11.8513306 12.9777151,12.1181317 L12.9777151,12.4112769 C12.9777151,12.5358737 12.9154839,12.7403091 12.9154839,12.7403091 C12.9154839,12.7403091 13.3235484,13.0521371 13.386586,13.1046909 C13.4133333,13.1268683 13.4414247,13.1399059 13.4222043,13.1936694 C13.3896774,13.2856048 13.1137366,13.4081855 13.0843011,13.4335887 C13.0222043,13.4868145 13.0055376,13.5218952 13.0235484,13.5756586 C13.0415591,13.6290188 13.0933065,13.6381586 13.1998925,13.6022715 C13.3066129,13.566922 13.5289247,13.4513306 13.7157527,13.3714919 C13.902043,13.2913844 14.1509677,13.3089919 14.1509677,13.3089919 L14.1509677,12.9533468 L13.4488172,12.9533468 L13.4488172,11.8157124 L13.3243548,11.6171909 L13.6356452,11.0659812 L13.9466667,11.6202823 L13.8223387,11.8157124 L13.8223387,12.4112769 L14.1822849,12.4112769 L14.1822849,11.8157124 L14.057957,11.6202823 L14.3687097,11.0689382 L14.6797312,11.6202823 L14.5555376,11.8157124 L14.5555376,12.4112769 L14.9153495,12.4112769 L14.9153495,11.8157124 L14.7912903,11.6202823 L15.1021774,11.0689382 L15.4134677,11.6202823 L15.2887366,11.8157124 L15.2926344,12.9528091 L14.5867204,12.953078 L14.5867204,13.4756586 C14.7468011,13.6265995 14.8981452,13.9667876 14.8981452,14.1713575 C14.8981452,14.375793 14.764543,14.4647715 14.764543,14.4647715 C14.8090323,14.6244489 14.8001613,14.6913844 14.7822849,14.8381586 C14.7641398,14.9877554 14.5778495,15.2201478 14.5778495,15.2201478 L14.5778495,17.9306317 C14.5778495,18.1151747 14.1509677,18.0975672 14.1509677,17.9392339 L14.1509677,15.2825134 C13.9110484,15.0158468 13.2532527,14.8115457 13.2532527,14.8115457 C13.0131989,15.0513306 12.8621237,15.4693414 12.8621237,15.4693414 C12.9688441,15.5401747 13.1287903,15.4693414 13.1908871,15.3981048 C13.2532527,15.3270027 13.3775806,15.3093952 13.4488172,15.3536156 C13.5200538,15.3981048 13.5379301,15.4159812 13.510914,15.522836 C13.4844355,15.6291532 13.4400806,15.8061694 13.4400806,15.9302285 C13.4400806,16.0548253 13.5822849,16.028078 13.688871,16.0372177 C13.902043,16.0548253 13.9377957,16.294879 13.9199194,16.4282124 C13.902043,16.5615457 13.8399462,16.8459543 13.8399462,17.0239113 C13.8399462,17.2015995 13.8488172,17.379422 13.8666935,17.4774059 C13.8843011,17.5748522 13.9199194,17.681707 13.9110484,17.8059005 C13.8989516,17.9748522 13.795457,18.0017339 13.688871,17.8951478 C13.5822849,17.7880242 12.0976075,16.2060349 12.0976075,16.2060349 C11.9998925,16.525793 12.4087634,17.0768683 12.5422312,17.2462231 C12.6754301,17.4150403 12.6665591,17.5393683 12.5511022,17.6549597 C12.4353763,17.7704167 12.2131989,17.8326478 12.1687097,17.9392339 C12.1243548,18.0460887 12.2755645,18.3661156 12.586586,18.7658468 C12.8977419,19.1659812 12.2309409,19.4327823 11.8309409,19.5127554 C11.4309409,19.5928629 11.4309409,19.3170565 11.4576882,19.1659812 C11.4843011,19.0147715 11.4843011,18.9260618 11.4754301,18.7927285 C11.4665591,18.6595296 11.3422312,18.472836 11.1731452,18.2503898 C11.004328,18.0284812 11.004328,17.8239113 11.0754301,17.3081855 C11.1466667,16.7925941 11.1289247,16.4636962 11.1289247,16.4636962 C11.1289247,16.4636962 10.9509677,16.4725672 10.693172,16.4636962 C10.4353763,16.4549597 10.2220699,16.3048253 10.204328,15.682379 C10.186586,15.0600672 10.1716667,13.5756586 10.1301344,13.4216263 C10.0887366,13.2677285 9.92274194,13.2380242 9.85163978,13.2204167 C9.78053763,13.2025403 9.77543011,13.0958199 9.84653226,13.0600672 C10.0317473,12.9677285 10.2547312,12.7403091 10.1716667,12.5981048 C10.0887366,12.4557661 9.7627957,12.4854704 9.54357527,12.5920565 C9.32435484,12.6986425 9.09317204,12.9296909 9.03376344,12.9950134 C8.97448925,13.0600672 8.92717742,13.0600672 8.9330914,12.9892339 C8.93900538,12.9178629 8.89169355,12.5802285 8.86212366,12.4616801 C8.83241935,12.3431317 8.72569892,12.1181317 8.69021505,12.0588575 C8.65459677,11.9994489 8.69021505,11.975793 8.74935484,11.9994489 C8.80876344,12.0232392 8.93900538,12.0764651 9.06346774,12.1120833 C9.18806452,12.1477016 9.30647849,12.0884274 9.36575269,11.9697446 C9.42502688,11.8513306 9.53752688,11.5966263 9.59693548,11.4839919 C9.65620968,11.3712231 9.75110215,11.3950134 9.82798387,11.4128898 C9.905,11.4306317 9.97610215,11.4779435 10.0472043,11.5076478 C10.1183065,11.5373522 10.1775806,11.5314382 10.201371,11.4958199 C10.2251613,11.4602016 10.2547312,11.4483737 10.2962634,11.3593952 C10.3376613,11.2705511 10.3908871,11.3119489 10.3968011,11.3475672 C10.6093011,12.622164 11.1613172,12.6810349 11.1613172,12.6810349 C11.0785215,12.894207 10.882957,13.232379 10.8355108,13.3150403 C10.7880645,13.3979704 10.7701882,13.5106048 10.7583602,13.5993145 C10.7465323,13.6884274 10.7880645,14.5296909 10.8473387,14.8381586 C10.9066129,15.1462231 11.096129,15.0279435 11.1555376,14.9329167 C11.2146774,14.8381586 11.398414,14.4470296 11.398414,14.4470296 C11.398414,14.4470296 11.4458602,14.3404435 11.4458602,14.2514651 C11.4458602,14.1624866 11.2916935,13.9667876 11.2560753,13.9075134 C11.2205914,13.8485081 11.0903495,13.7300941 11.0903495,13.4335887 C11.0903495,13.1373522 11.3568817,12.9296909 11.4516398,12.8526747 C11.5465323,12.775793 11.5465323,12.669207 11.5347043,12.6038844 C11.4930376,12.3747177 11.2501613,11.8927285 11.1318817,11.7089919 C11.0131989,11.5253898 10.7821505,11.1756586 10.7821505,11.1756586 L11.2621237,11.1756586 L11.5701882,10.5357392 L11.9080914,11.1786156 L12.2576882,11.1815726 Z M12.1798656,13.125793 C12.3376613,12.8670565 12.4032527,12.5981048 12.4032527,12.5981048 L11.952043,12.5981048 C11.952043,12.5981048 12.0243548,12.8737769 12.1798656,13.125793 L12.1798656,13.125793 Z M11.7087634,11.8201478 C11.7282527,11.9533468 11.8266398,12.0045565 11.9021774,11.9645027 C11.9777151,11.9245833 11.9621237,11.8157124 11.9088978,11.7313038 C11.8554032,11.6468952 11.745457,11.5525403 11.7125269,11.566922 C11.6769086,11.5825134 11.6977419,11.7446102 11.7087634,11.8201478 L11.7087634,11.8201478 Z M12.6072849,11.566922 C12.5744892,11.5525403 12.4576882,11.6468952 12.404328,11.7313038 C12.3508333,11.8157124 12.3353763,11.9245833 12.4110484,11.9645027 C12.4864516,12.0045565 12.5816129,11.9526747 12.6044624,11.8201478 C12.6177688,11.7424597 12.6427688,11.5825134 12.6072849,11.566922 L12.6072849,11.566922 Z" id="Fill-68" fill="#E12E21" mask="url(#mask-6)"></path>
                            <polygon id="Fill-69" fill="#E12E21" mask="url(#mask-6)" points="7.94959677 10.4076613 16.6086022 10.4076613 16.6086022 9.81706989 7.94959677 9.81706989"></polygon>
                            <polygon id="Fill-70" fill="#E12E21" mask="url(#mask-6)" points="7.94959677 9.51344086 16.6086022 9.51344086 16.6086022 7.16102151 7.94959677 7.16102151"></polygon>
                            <polygon id="Fill-71" fill="#FFF100" mask="url(#mask-6)" points="14.9043817 9.58353495 14.9043817 9.18192204 14.2753495 9.18192204 14.2753495 8.92291667 14.7886559 8.92291667 14.7886559 7.78514785 14.3174194 7.78514785 14.1574731 7.47412634 13.9973925 7.78514785 13.5262903 7.78514785 13.5262903 8.92291667 14.0395968 8.92291667 14.0395968 9.18192204 12.8076075 9.18192204 12.8076075 8.92291667 13.3206452 8.92291667 13.3206452 7.78514785 12.849543 7.78514785 12.6894624 7.47412634 12.5296505 7.78514785 12.058414 7.78514785 12.058414 8.92291667 12.571586 8.92291667 12.571586 9.18192204 11.3154032 9.18192204 11.3154032 8.92291667 11.8285753 8.92291667 11.8285753 7.78514785 11.3573387 7.78514785 11.1973925 7.47412634 11.0374462 7.78514785 10.5662097 7.78514785 10.5662097 8.92291667 11.0793817 8.92291667 11.0793817 9.18192204 10.0862366 9.18461022 9.09672043 8.95342742 9.2961828 9.58353495"></polygon>
                            <polygon id="Fill-72" fill="#FFF100" mask="url(#mask-6)" points="9.4384543 8.90224462 10.1020296 9.06514785 10.4579435 8.06622312 10.4579435 7.8143414"></polygon>
                            <path d="M11.0398118,1.09971774 C10.0117204,1.19111559 9.37919355,1.40966398 8.54357527,1.68977151 C8.60580645,1.33022849 8.68927419,1.11732527 8.83456989,0.905497312 C8.82287634,1.09138441 8.97448925,1.28936828 9.27663978,1.28936828 C9.57852151,1.28936828 9.74666667,1.11517473 9.74666667,1.01047043 C9.74666667,0.906169355 9.6830914,0.755094086 9.5205914,0.755094086 C9.35795699,0.755094086 9.32314516,0.871223118 9.33456989,0.917728495 C9.34626344,0.964233871 9.31145161,0.975793011 9.26494624,0.987486559 C9.21844086,0.99891129 9.09075269,0.929153226 9.13725806,0.766653226 C9.18819892,0.587889785 9.40446237,0.490712366 9.6597043,0.490712366 C9.6597043,0.490712366 10.2677688,0.466384409 11.0398118,1.09971774" id="Fill-73" fill="#FFF100" mask="url(#mask-6)"></path>
                            <path d="M16.0174597,1.69694892 C15.1821102,1.41657258 14.5209543,1.1981586 13.4931317,1.10662634 C13.96625,0.776922043 14.4081855,0.496948925 14.8939382,0.496948925 C15.1491801,0.496948925 15.3653091,0.593991935 15.41625,0.772755376 C15.4627554,0.935389785 15.3349328,1.00501344 15.2885618,0.993454301 C15.2420565,0.981760753 15.207379,0.970067204 15.2189382,0.923696237 C15.2304973,0.877325269 15.1955511,0.761196237 15.0330511,0.761196237 C14.8704167,0.761196237 14.8068414,0.912137097 14.8068414,1.01670699 C14.8068414,1.12127688 14.9749866,1.29547043 15.2768683,1.29547043 C15.57875,1.29547043 15.7307661,1.09735215 15.7189382,0.911599462 C15.8640995,1.1231586 15.9554973,1.33754032 16.0174597,1.69694892" id="Fill-74" fill="#FFF100" mask="url(#mask-6)"></path>
                            <path d="M11.6731317,0.908736559 C11.645578,0.952688172 11.62125,0.98561828 11.5918145,1.03467742 C11.7615726,1.02580645 12.1535081,1.01706989 12.3103629,1.01706989 C12.4672177,1.01706989 12.9000134,1.03803763 12.9950403,1.04502688 C12.8418145,0.690322581 12.5527016,0.200672043 12.3508199,0.200672043 C12.3111694,0.200672043 12.2228629,0.179973118 12.0570027,0.370967742 C12.0570027,0.370967742 12.0313306,0.455107527 12.1365726,0.439112903 C12.2701747,0.418682796 12.3207124,0.556586022 12.3109005,0.625 C12.2875134,0.784677419 12.1017608,0.938575269 11.9158737,0.938575269 C11.730121,0.938575269 11.6731317,0.908736559 11.6731317,0.908736559" id="Fill-75" fill="#FFF100" mask="url(#mask-6)"></path>
                            <path d="M2.7194086,6.69237903 L3.39790323,5.77073925 C3.43701613,5.60192204 3.46900538,5.13659946 3.25274194,4.80783602 C3.01430108,4.4450672 2.70153226,4.58821237 2.61080645,4.62853495 C2.55287634,4.6543414 2.44669355,4.73135753 2.38177419,4.83552419 C2.38177419,4.83552419 1.73096774,5.55487903 1.01094086,6.26254032 C0.910672043,6.36092742 0.797903226,6.54694892 0.788763441,6.71630376 C0.780295699,6.86872312 0.840241935,7.02047043 0.929623656,7.11616935 C1.12545699,7.32477151 1.46833333,7.31388441 1.64373656,7.18135753 L1.65556452,7.75608871 C1.83634409,7.61079301 2.48822581,6.9856586 2.7194086,6.69237903" id="Fill-76" fill="#221F20" mask="url(#mask-6)"></path>
                            <path d="M12.2756048,5.3494086 C16.1395833,5.3494086 18.3399866,8.97776882 18.8179435,9.61513441 C19.6714382,10.7529032 20.7141801,11.6754839 21.9233199,11.3691667 C23.7010081,10.9188978 23.6061156,8.28475806 23.6061156,8.28475806 C23.1796371,7.97642473 22.4480511,7.58825269 21.1172715,5.7008871 C19.8136425,3.85209677 16.8622984,1.10895161 12.2756048,1.10895161 C7.68877688,1.10895161 4.7375672,3.85209677 3.43380376,5.7008871 C2.1031586,7.58825269 1.37157258,7.97642473 0.944959677,8.28475806 C0.944959677,8.28475806 0.850067204,10.9188978 2.62802419,11.3691667 C3.83729839,11.6754839 4.87990591,10.7529032 5.73313172,9.61513441 C6.21122312,8.97776882 8.41189516,5.3494086 12.2756048,5.3494086" id="Fill-77" fill="#FFF100" mask="url(#mask-6)"></path>
                            <path d="M12.2756048,5.43833333 C8.7749328,5.43833333 6.64966398,8.46696237 5.95826613,9.45244624 C5.89711022,9.5394086 5.84737903,9.61037634 5.80409946,9.66817204 C5.37170699,10.2447849 4.89038978,10.7673656 4.36202957,11.1083602 C3.82372312,11.455672 3.23783602,11.6153495 2.60638441,11.4552688 C0.758400538,10.9871237 0.855846774,8.29008065 0.855981183,8.28228495 L0.85719086,8.23887097 L0.893212366,8.21293011 C0.941733871,8.17784946 0.990255376,8.14438172 1.04267473,8.10822581 C1.47977151,7.8066129 2.18219086,7.32206989 3.36122312,5.64975806 C4.12211022,4.57112903 5.43918011,3.19008065 7.31055108,2.21830645 C8.67264785,1.51091398 10.3281586,1.02018817 12.2756048,1.02018817 C14.2230511,1.02018817 15.878293,1.51091398 17.2405242,2.21830645 C19.1118952,3.19008065 20.4290995,4.57099462 21.1898522,5.64975806 C22.36875,7.32166667 23.0710349,7.80647849 23.5082661,8.10795699 C23.5605511,8.1441129 23.6093414,8.17784946 23.6577285,8.21293011 L23.6938844,8.23887097 L23.6949597,8.28228495 C23.6952285,8.29008065 23.7926747,10.9871237 21.9448253,11.4552688 C21.3135081,11.6153495 20.7274866,11.455672 20.1893145,11.1083602 C19.6610887,10.7673656 19.1797715,10.2447849 18.747379,9.66817204 C18.7038306,9.61037634 18.6540995,9.5394086 18.5929435,9.45244624 C17.9015457,8.46696237 15.7761425,5.43833333 12.2756048,5.43833333 M12.2756048,5.26051075 C15.8683468,5.26051075 18.0335349,8.34626344 18.7379704,9.3502957 C18.8018145,9.44115591 18.8538306,9.51534946 18.8889113,9.56185484 C19.309879,10.1231452 19.7764113,10.6308065 20.2851478,10.9590323 C20.7839382,11.2808065 21.3239919,11.4294624 21.9019489,11.2830914 C23.4803091,10.8830914 23.5211694,8.66884409 23.5179435,8.33067204 C23.4839382,8.30674731 23.446707,8.28094086 23.4075941,8.25392473 C22.9604167,7.94518817 22.2414651,7.44922043 21.0449597,5.7519086 C20.2963038,4.69061828 19.0004704,3.33215054 17.1593414,2.37596774 C15.8200941,1.68040323 14.1918683,1.19787634 12.2756048,1.19787634 C10.359207,1.19787634 8.73084677,1.68040323 7.39173387,2.37596774 C5.55073925,3.33215054 4.25490591,4.69061828 3.50638441,5.7519086 C2.3093414,7.44962366 1.5906586,7.94545699 1.14334677,8.25405914 C1.10409946,8.28107527 1.06700269,8.30674731 1.03299731,8.33067204 C1.03004032,8.66884409 1.07090054,10.8830914 2.64939516,11.2830914 C3.22735215,11.4294624 3.76740591,11.2808065 4.26619624,10.9590323 C4.77466398,10.6308065 5.24146505,10.1231452 5.6624328,9.56185484 C5.69737903,9.51534946 5.74939516,9.44115591 5.81310484,9.3502957 C6.51767473,8.34639785 8.68299731,5.26051075 12.2756048,5.26051075" id="Fill-78" fill="#221F20" mask="url(#mask-6)"></path>
                            <path d="M12.2756048,5.00701613 C16.0004704,5.00701613 18.2174059,8.16669355 18.9460349,9.20486559 C19.0049059,9.28913978 19.0561156,9.36172043 19.0917339,9.4097043 C20.0773522,10.7236828 20.9761425,11.2562097 21.8391801,11.0373925 C23.0875672,10.721129 23.2409274,9.0033871 23.2581317,8.48443548 L23.2586694,8.46494624 L23.2429435,8.45405914 C22.8038306,8.15123656 22.06875,7.64438172 20.8377016,5.89827957 C20.1019489,4.855 17.3105511,1.45137097 12.2756048,1.45137097 C7.24079301,1.45137097 4.44926075,4.855 3.71364247,5.89827957 C2.49106183,7.63201613 1.72372312,8.16185484 1.31149194,8.44626344 L1.29563172,8.45728495 L1.29603495,8.47677419 C1.3140457,8.99787634 1.46901882,10.7223387 2.71189516,11.0373925 C3.57520161,11.2562097 4.47385753,10.7236828 5.45920699,9.4097043 C5.49522849,9.36172043 5.54616935,9.28913978 5.60517473,9.20513441 C6.33366935,8.16669355 8.55060484,5.00701613 12.2756048,5.00701613" id="Fill-79" fill="#E12E21" mask="url(#mask-6)"></path>
                            <polygon id="Fill-80" fill="#FFF100" mask="url(#mask-6)" points="4.26142473 6.46254032 3.87258065 6.92598118 4.60174731 8.43297043 3.03709677 7.92168011 2.70201613 8.32073925 4.30806452 9.66818548 4.55053763 9.37920699 3.41693548 8.42409946 4.93763441 8.91805108 5.09717742 8.72772849 4.37284946 7.27544355 5.51303763 8.23202957 5.86733871 7.80985215"></polygon>
                            <path d="M5.44439516,5.19556452 L5.08700269,5.57876344 L6.09116935,7.57567204 L6.33619624,7.31290323 L6.06334677,6.78427419 L6.54950269,6.26303763 L7.09802419,6.49596774 L7.50245968,6.06236559 L5.44439516,5.19556452 Z M6.29157258,6.14704301 L5.92799731,6.53682796 L5.55541667,5.81680108 L6.29157258,6.14704301 Z" id="Fill-81" fill="#FFF100" mask="url(#mask-6)"></path>
                            <polygon id="Fill-82" fill="#FFF100" mask="url(#mask-6)" points="7.89637097 3.29803763 8.68198925 4.5552957 6.9313172 3.90099462 6.54018817 4.14561828 7.65107527 5.92317204 8.07526882 5.6583871 7.28333333 4.39091398 9.05295699 5.04736559 9.43387097 4.80905914 8.32311828 3.03150538"></polygon>
                            <polygon id="Fill-83" fill="#FFF100" mask="url(#mask-6)" points="14.5308199 4.3274328 14.7511156 3.68764785 15.3681855 3.90014785 15.4603898 3.63388441 14.8429167 3.42151882 15.0308199 2.87474462 15.6650941 3.09329301 15.7558199 2.82985215 14.5977554 2.43119624 13.9154973 4.41318548 15.1926478 4.85297043 15.2840457 4.5868414"></polygon>
                            <polygon id="Fill-84" fill="#FFF100" mask="url(#mask-6)" points="18.1165457 4.19485215 17.9277016 4.39982527 18.3685618 4.79659946 17.1520296 6.14767473 17.5615726 6.51622312 18.7781048 5.16541667 19.2121102 5.55600806 19.3982661 5.34915323"></polygon>
                            <polygon id="Fill-85" fill="#FFF100" mask="url(#mask-6)" points="18.7182258 7.3425672 19.2365054 6.90775538 19.6562634 7.40775538 19.8719892 7.22670699 19.4525 6.72670699 19.8951075 6.3550672 20.3264247 6.86931452 20.5395968 6.69014785 19.7522312 5.75170699 18.1467204 7.09928763 19.0145968 8.13383065 19.2303226 7.95305108"></polygon>
                            <path d="M20.8682392,8.90939516 C20.8724059,8.91383065 21.1924328,9.0725672 21.5465995,8.75401882 C21.8424328,8.48735215 21.7429704,8.12176075 21.4342339,7.77901882 L20.8629973,7.14487903 L19.305336,8.5475672 L19.6738844,8.95697581 L20.292836,8.39985215 L20.4750941,8.60240591 L20.0810081,9.4850672 L20.5490188,9.86168011 L20.8682392,8.90939516 Z M21.1472715,7.87633065 C21.2932392,8.03869624 21.2940457,8.2318414 21.1268414,8.38211022 C20.9600403,8.53251344 20.7498253,8.50012097 20.5896102,8.32216398 L20.4952554,8.21745968 L21.0246909,7.74057796 L21.1472715,7.87633065 Z" id="Fill-86" fill="#FFF100" mask="url(#mask-6)"></path>
                            <polygon id="Fill-87" fill="#FFF100" mask="url(#mask-6)" points="12.9838172 2.25551075 12.9691667 3.11169355 12.1455108 3.09744624 12.1605645 2.24099462 11.6094892 2.23158602 11.5730645 4.32741935 12.123871 4.33723118 12.140672 3.37876344 12.9641935 3.39327957 12.9473925 4.35134409 13.4983333 4.36115591 13.5348925 2.26505376"></polygon>
                            <path d="M15.967836,5.37086022 C16.3586962,5.60567204 16.7859812,5.56803763 16.9845027,5.23698925 C17.1307392,5.00580645 17.1320833,4.81481183 16.9580242,4.47287634 C16.91125,4.3738172 16.8538575,4.30392473 16.8144758,4.21629032 C16.7382661,4.07126344 16.6668952,3.95392473 16.7343683,3.84196237 C16.8065457,3.72206989 16.9746909,3.71333333 17.1284543,3.80567204 C17.2901478,3.90271505 17.3564113,4.06346774 17.3888038,4.17502688 L17.6427016,4.06508065 C17.5647446,3.85862903 17.4496909,3.67233871 17.1893414,3.5158871 C16.7409543,3.24653226 16.3754973,3.31763441 16.22375,3.57045699 C16.0703898,3.82583333 16.1139382,4.03645161 16.2280511,4.25392473 C16.2280511,4.25392473 16.3011694,4.37973118 16.3440457,4.46212366 C16.4440457,4.63201613 16.5611156,4.84424731 16.4797984,4.97973118 C16.379664,5.14639785 16.2049328,5.18336022 16.0370565,5.07905914 C15.8213306,4.94236559 15.7710618,4.78430108 15.7257661,4.62946237 L15.4478091,4.74962366 C15.5092339,4.96024194 15.6527823,5.18147849 15.967836,5.37086022" id="Fill-88" fill="#FFF100" mask="url(#mask-6)"></path>
                            <path d="M10.2534409,2.36537634 C9.56701613,2.51147849 9.11741935,3.01510753 9.26567204,3.69803763 C9.35021505,4.06645161 9.68045699,4.74776882 10.7219892,4.52626344 C11.0100269,4.47115591 11.1676882,4.35435484 11.3197043,4.21053763 L11.1279032,3.99172043 C11.0581452,4.07155914 10.9496774,4.18728495 10.7101613,4.2380914 C10.2072043,4.34494624 9.90680108,3.93580645 9.83206989,3.58365591 C9.72145161,3.06295699 10.0248118,2.70153226 10.3710484,2.62814516 C10.6136559,2.57653226 10.7632527,2.64064516 10.8581452,2.67908602 L10.8611022,2.67854839 L10.9249462,2.41134409 C10.759086,2.34467742 10.5611022,2.30018817 10.2534409,2.36537634" id="Fill-89" fill="#FFF100" mask="url(#mask-6)"></path>
                            <path d="M21.3662366,5.85146505 C21.3373387,5.7271371 21.2966129,5.19622312 21.4980914,4.91611559 C21.6843817,4.65778226 21.8540054,4.74514785 21.9448656,4.78560484 C21.9859946,4.80388441 22.1088441,4.8834543 22.1330376,5.04044355 C22.1460753,5.12471774 22.1195968,5.24971774 22.054543,5.34125 C21.9267204,5.50697581 21.6368011,5.61678763 21.6368011,5.61678763 C21.6368011,5.61678763 22.0085753,6.34528226 22.7966129,7.06880376 L22.7939247,7.56047043 C21.7148925,6.51987903 21.3662366,5.85146505 21.3662366,5.85146505" id="Fill-90" fill="#FFF100" mask="url(#mask-6)"></path>
                            <path d="M21.9072849,5.70104839 C22.0141398,5.88491935 22.2849731,6.33478495 22.9629301,6.97026882 C23.0754301,7.07564516 23.3558065,7.16341398 23.5144086,6.9855914 C23.5750269,6.91731183 23.613871,6.81959677 23.6078226,6.70615591 C23.6006989,6.57577957 23.520457,6.42349462 23.4433065,6.35723118 C23.3078226,6.24123656 22.7248925,5.65239247 22.3071505,5.19002688 C22.2978763,5.27430108 22.224086,5.4152957 22.224086,5.4152957 C22.168172,5.49419355 22.0978763,5.60803763 21.9072849,5.70104839" id="Fill-91" fill="#FFF100" mask="url(#mask-6)"></path>
                            <path d="M1.80971774,7.53086022 L1.80689516,7.0666129 C2.59533602,6.3430914 2.96764785,5.61674731 2.96764785,5.61674731 C2.96764785,5.61674731 2.67759409,5.50693548 2.54990591,5.34120968 C2.48458333,5.24967742 2.45797043,5.12481183 2.47114247,5.04053763 C2.49560484,4.88341398 2.61831989,4.80384409 2.65918011,4.78569892 C2.75030914,4.74510753 2.91979839,4.65774194 3.1059543,4.91607527 C3.3075672,5.1961828 3.25461022,5.72360215 3.22611559,5.84793011 C3.22611559,5.84793011 2.85864247,6.48784946 1.80971774,7.53086022" id="Fill-92" fill="#FFF100" mask="url(#mask-6)"></path>
                            <path d="M2.68337366,5.70104839 C2.57692204,5.88491935 2.30608871,6.33478495 1.62772849,6.97026882 C1.5153629,7.07564516 1.23485215,7.16341398 1.07665323,6.9855914 C1.01576613,6.91731183 0.976922043,6.81959677 0.983104839,6.70615591 C0.990094086,6.57577957 1.07047043,6.42349462 1.14775538,6.35723118 C1.28310484,6.24123656 1.86603495,5.65239247 2.28377688,5.19002688 C2.29305108,5.27430108 2.3668414,5.4152957 2.3668414,5.4152957 C2.42262097,5.49419355 2.49291667,5.60803763 2.68337366,5.70104839" id="Fill-93" fill="#FFF100" mask="url(#mask-6)"></path>
                            <path d="M0.492862903,13.5515457 C0.492862903,12.5870296 1.27485215,11.8051747 2.23923387,11.8051747 C3.20361559,11.8051747 3.98547043,12.5870296 3.98547043,13.5515457 C3.98547043,14.5161962 3.20361559,15.2977823 2.23923387,15.2977823 C1.27485215,15.2977823 0.492862903,14.5161962 0.492862903,13.5515457" id="Fill-94" fill="#E12E21" mask="url(#mask-6)"></path>
                            <path d="M2.67950269,15.0691532 C2.5890457,15.0985887 2.54737903,15.034207 2.50530914,14.9859543 C2.34307796,14.8006048 2.30100806,14.3016801 2.30100806,14.2354167 C2.30100806,14.1692876 2.3249328,14.0971102 2.37116935,14.0960349 C2.76579301,14.0860887 3.04630376,13.9709005 3.30369624,13.7594758 C3.56081989,13.5479167 3.67224462,13.3086694 3.69576613,13.2622984 C3.71901882,13.2155242 3.76969086,13.2237231 3.78205645,13.2913306 C3.79186828,13.3464382 3.8124328,13.4461694 3.8124328,13.552621 C3.8124328,14.2700941 3.32909946,14.8589382 2.67950269,15.0691532 M2.26485215,15.1335349 C2.25356183,15.1329973 2.24240591,15.1336694 2.23111559,15.1336694 C1.93985215,15.1336694 1.62157258,15.0234543 1.43272849,14.9179435 C1.23770161,14.8088038 1.16458333,14.3097446 1.16458333,14.0542339 C1.16458333,13.2304435 1.50409946,12.7354167 1.55826613,12.6393145 C1.6124328,12.5432124 1.73272849,12.5311156 1.82291667,12.5550403 C1.91297043,12.5792339 1.94791667,12.5975134 2.05127688,12.6285618 C2.10732527,12.6459005 2.21955645,12.6692876 2.30383065,12.6874328 C2.38797043,12.7057124 2.47788978,12.7235887 2.42399194,12.8800403 C2.36982527,13.0362231 2.18864247,13.4144489 2.16875,13.8617608 C2.15047043,14.265793 2.20477151,14.66875 2.29643817,14.9153898 C2.35598118,15.0758737 2.35490591,15.1366263 2.26485215,15.1335349 M1.06861559,13.2484543 C0.990658602,13.205578 0.897916667,13.0073253 0.86780914,12.9483199 C0.846169355,12.9057124 0.847513441,12.7875672 0.876814516,12.7354167 C1.00530914,12.5079973 1.18864247,12.3010081 1.42600806,12.1910618 C1.45329301,12.1786962 1.49522849,12.1773522 1.49522849,12.2446909 C1.49522849,12.2821909 1.51377688,12.3411962 1.51458333,12.3777554 C1.51538978,12.4135081 1.53151882,12.4910618 1.48340054,12.5514113 C1.43528226,12.6112231 1.22251344,12.9839382 1.17076613,13.1945565 C1.15893817,13.2424059 1.14643817,13.2915995 1.06861559,13.2484543 M1.02668011,14.5725134 C0.806787634,14.3553091 0.649798387,13.9647177 0.649798387,13.552621 C0.649798387,13.3926747 0.673454301,13.2389113 0.717271505,13.0933468 C0.717271505,13.0933468 0.75436828,13.0270833 0.790389785,13.0835349 C0.816196237,13.1238575 0.850873656,13.165121 0.882056452,13.2200941 C0.913642473,13.2750672 1.0843414,13.4049059 1.06861559,13.5071909 C1.00840054,13.8933468 1.06270161,14.4086694 1.08057796,14.4928091 C1.09872312,14.5772177 1.07224462,14.6176747 1.02668011,14.5725134 M1.71727151,12.0565188 C1.87883065,12.0028898 2.05114247,11.9711694 2.23111559,11.9711694 C2.50396505,11.9711694 2.76377688,12.0222446 2.98474462,12.162164 C3.04079301,12.1975134 3.05759409,12.2424059 3.05759409,12.305578 C3.05759409,12.5112231 2.73366935,12.5809812 2.51794355,12.5809812 C2.30248656,12.5809812 2.03810484,12.4952285 1.85073925,12.4368952 C1.66323925,12.378293 1.62157258,12.2688844 1.62157258,12.2206317 C1.62157258,12.1725134 1.65759409,12.0762769 1.71727151,12.0565188 M3.17856183,12.2867608 C3.20880376,12.3108199 3.2843414,12.3729167 3.2843414,12.3729167 C3.43568548,12.5082661 3.57211022,12.6668683 3.65114247,12.8559812 C3.75100806,13.0948253 3.44321237,13.4531586 3.35302419,13.537164 C2.94576613,13.9170027 2.69240591,13.9109543 2.54711022,13.931922 C2.4015457,13.9523522 2.30987903,13.8624328 2.31297043,13.7536962 C2.32237903,13.4327285 2.54952957,12.8863575 2.61350806,12.7856855 C2.65557796,12.7196909 2.72775538,12.677621 2.72775538,12.677621 C2.87802419,12.6355511 3.02372312,12.5707661 3.09939516,12.4851478 C3.1749328,12.3999328 3.17856183,12.2867608 3.17856183,12.2867608" id="Fill-95" fill="#FFF100" mask="url(#mask-6)"></path>
                            <path d="M24.1265995,13.5515457 C24.1265995,12.5870296 23.344879,11.8051747 22.3803629,11.8051747 C21.415578,11.8051747 20.6341263,12.5870296 20.6341263,13.5515457 C20.6341263,14.5161962 21.415578,15.2977823 22.3803629,15.2977823 C23.344879,15.2977823 24.1265995,14.5161962 24.1265995,13.5515457" id="Fill-96" fill="#E12E21" mask="url(#mask-6)"></path>
                            <path d="M20.8070699,13.5525941 C20.8070699,13.4461425 20.8275,13.3464113 20.8377151,13.2914382 C20.8496774,13.2236962 20.9002151,13.2154973 20.923871,13.2622715 C20.9472581,13.3087769 21.0586828,13.5478898 21.3159409,13.7594489 C21.5731989,13.9708737 21.8537097,14.0860618 22.2483333,14.0960081 C22.2941667,14.0970833 22.3183602,14.1692608 22.3183602,14.2353898 C22.3183602,14.3016532 22.2765591,14.800578 22.1141935,14.9859274 C22.0721237,15.0341801 22.0307258,15.0985618 21.9398656,15.0691263 C21.2904032,14.8589113 20.8070699,14.2700672 20.8070699,13.5525941 M22.3230645,14.9154973 C22.4145968,14.6688575 22.4687634,14.2659005 22.4507527,13.8617339 C22.4307258,13.4145565 22.249543,13.0361962 22.1957796,12.8800134 C22.1414785,12.7235618 22.2318011,12.7056855 22.3158065,12.6874059 C22.3998118,12.6692608 22.5119086,12.6458737 22.5683602,12.6285349 C22.6714516,12.597621 22.7063978,12.579207 22.796586,12.5550134 C22.8867742,12.5310887 23.0069355,12.5431855 23.0612366,12.6392876 C23.1154032,12.7353898 23.4547849,13.2305511 23.4547849,14.054207 C23.4547849,14.3097177 23.3816667,14.8087769 23.1865054,14.9179167 C22.9977957,15.0234274 22.6796505,15.1337769 22.3882527,15.1337769 C22.3769624,15.1337769 22.3659409,15.1329704 22.3546505,15.1335081 C22.2644624,15.1365995 22.2632527,15.0758468 22.3230645,14.9154973 M23.4487366,13.1945296 C23.3971237,12.9840457 23.1842204,12.6111962 23.1361022,12.5513844 C23.0879839,12.4911694 23.1041129,12.4134812 23.1049194,12.3777285 C23.1057258,12.3411694 23.1242742,12.282164 23.1242742,12.244664 C23.1242742,12.1774597 23.1662097,12.1786694 23.1932258,12.1911694 C23.4308602,12.3009812 23.6141935,12.5081048 23.7425538,12.7353898 C23.7721237,12.7876747 23.7734677,12.9058199 23.7516935,12.948293 C23.7218548,13.0072984 23.6288441,13.2055511 23.5508871,13.2484274 C23.4731989,13.291707 23.4605645,13.242379 23.4487366,13.1945296 M23.5389247,14.4927823 C23.5568011,14.4086425 23.6109677,13.8933199 23.5508871,13.507164 C23.5351613,13.404879 23.7057258,13.2751747 23.7374462,13.2200672 C23.7687634,13.1650941 23.8034409,13.1239651 23.8291129,13.0835081 C23.8651344,13.0270565 23.9020968,13.0933199 23.9020968,13.0933199 C23.9461828,13.2388844 23.9697043,13.3927823 23.9697043,13.5525941 C23.9697043,13.9646909 23.8128495,14.3554167 23.5928226,14.5724866 C23.5472581,14.6176478 23.5206452,14.5771909 23.5389247,14.4927823 M22.9977957,12.2206048 C22.9977957,12.2688575 22.956129,12.3784005 22.7687634,12.4368683 C22.5813978,12.4952016 22.3168817,12.5809543 22.1015591,12.5809543 C21.8856989,12.5809543 21.5617742,12.5111962 21.5617742,12.3056855 C21.5617742,12.242379 21.5788441,12.1974866 21.6344892,12.1621371 C21.8555914,12.0222177 22.115672,11.9711425 22.3882527,11.9711425 C22.5683602,11.9711425 22.740672,12.0028629 22.9022312,12.0564919 C22.9617742,12.0763844 22.9977957,12.1724866 22.9977957,12.2206048 M21.5203763,12.4852554 C21.5956452,12.5707392 21.7414785,12.6355242 21.8916129,12.6775941 C21.8916129,12.6775941 21.9639247,12.719664 22.0059946,12.7856586 C22.0698387,12.8863306 22.2971237,13.4327016 22.3066667,13.7536694 C22.3096237,13.8625403 22.2180914,13.9524597 22.0723925,13.9318952 C21.9269624,13.9109274 21.6736022,13.9169758 21.2667473,13.5371371 C21.1764247,13.4531317 20.8684946,13.0947984 20.9684946,12.8559543 C21.0472581,12.6668414 21.1838172,12.5082392 21.3352957,12.3730242 C21.3352957,12.3730242 21.4106989,12.310793 21.4408065,12.2868683 C21.4408065,12.2868683 21.4444355,12.3999059 21.5203763,12.4852554" id="Fill-97" fill="#FFF100" mask="url(#mask-6)"></path>
                            <path d="M20.6594086,13.5423522 C20.6594086,14.021922 20.8537634,14.4564651 21.1681452,14.7708468 C21.4826613,15.0852285 21.9169355,15.2798522 22.3969086,15.2798522 C22.8767473,15.2798522 23.3111559,15.0853629 23.6254032,14.7708468 C23.9396505,14.4564651 24.1342742,14.021922 24.1342742,13.5423522 C24.1342742,13.0625134 23.9396505,12.6279704 23.6254032,12.3137231 C23.3110215,11.9994758 22.8764785,11.8049866 22.3969086,11.8049866 C21.9169355,11.8049866 21.4827957,11.9994758 21.1682796,12.3138575 C20.8537634,12.6282392 20.6594086,13.0625134 20.6594086,13.5423522 M20.6415323,13.5423522 C20.6415323,13.0575403 20.8380376,12.6189651 21.1557796,12.3012231 C21.4733871,11.9836156 21.9120968,11.7871102 22.3969086,11.7871102 C22.8814516,11.7871102 23.3202957,11.9834812 23.6379032,12.3012231 C23.9553763,12.6186962 24.1520161,13.0575403 24.1520161,13.5423522 C24.1520161,14.0268952 23.9553763,14.4658737 23.6379032,14.7834812 C23.3204301,15.1012231 22.8814516,15.2974597 22.3969086,15.2974597 C21.9120968,15.2974597 21.4733871,15.1012231 21.1556452,14.7834812 C20.8380376,14.4658737 20.6415323,14.0268952 20.6415323,13.5423522" id="Fill-98" fill="#FFE600" mask="url(#mask-6)"></path>
                        </g>
                    </g>
                </g>
            </g>
        </g>
    </g>
</svg>