<?xml version="1.0" encoding="UTF-8" standalone="no"?>
<svg width="22px" height="25px" viewBox="0 0 22 25" version="1.1" xmlns="http://www.w3.org/2000/svg" xmlns:xlink="http://www.w3.org/1999/xlink">
    <!-- Generator: Sketch 42 (36781) - http://www.bohemiancoding.com/sketch -->
    <title>stoke</title>
    <desc>Created with Sketch.</desc>
    <defs>
        <polygon id="path-1" points="21.2453627 24.9423963 0 24.9423963 0 0.042125576 21.2453627 0.042125576"></polygon>
        <polygon id="path-3" points="0 24.9578917 21.2453917 24.9578917 21.2453917 0.0576036866 0 0.0576036866"></polygon>
    </defs>
    <g id="Page-1" stroke="none" stroke-width="1" fill="none" fill-rule="evenodd">
        <g id="fixtures" transform="translate(-214.000000, -654.000000)">
            <g id="row_5" transform="translate(17.000000, 654.000000)">
                <g id="stoke" transform="translate(197.000000, 0.000000)">
                    <g id="Group-3" transform="translate(0.000000, 0.015495)">
                        <mask id="mask-2" fill="white">
                            <use xlink:href="#path-1"></use>
                        </mask>
                        <g id="Clip-2"></g>
                        <path d="M20.8791475,17.0571025 L20.8717166,17.0496717 L19.8454493,16.151515 L19.6267281,15.9519182 C19.4192396,15.7445449 19.1004032,15.4910311 18.5516129,15.508773 C18.4611175,15.5072753 18.3710253,15.5164919 18.2817972,15.5329666 C18.3760945,15.0973675 18.4464286,14.6371717 18.4890553,14.1518606 C18.5187212,13.8156855 18.5345046,13.4824482 18.5360599,13.1614228 C18.5361751,13.154856 18.5366359,13.0335426 18.5366359,13.0335426 L18.5296659,12.7708122 L18.5304724,12.7927016 L18.5304724,0.042125576 L2.70253456,0.042125576 L2.70253456,12.7927016 L2.70328341,12.770409 L2.69637097,13.033485 L2.6968894,13.1614228 C2.6983871,13.4828514 2.71422811,13.8159735 2.74389401,14.1518606 C2.78652074,14.6361924 2.85656682,15.0955818 2.95046083,15.5307776 C2.86543779,15.5156279 2.77978111,15.5073906 2.69337558,15.508773 C2.14475806,15.4910311 1.82609447,15.7445449 1.61866359,15.9519182 L1.3999424,16.151515 L0.373617512,17.0496717 L0.366129032,17.0571025 C0.0117511521,17.4106164 -0.0233870968,17.7550288 0.00979262673,17.9818145 C0.10374424,18.6266302 0.923387097,19.1034735 1.00593318,19.1480588 L1.48669355,18.7709274 C1.82609447,18.6388422 2.02246544,18.8246141 2.02246544,18.8246141 C2.05593318,18.8441993 2.17050691,18.9375749 2.24176267,19.3141302 L2.28289171,19.5318145 C2.01601382,19.7628053 1.8264977,19.9266878 1.8264977,19.9266878 L1.98847926,20.1629781 C2.4608871,20.852091 2.64320276,21.0647062 2.95063364,21.4107892 C5.00259217,23.7212154 7.64521889,24.9424136 10.5926267,24.9424136 L10.6400922,24.9424136 C13.587788,24.9424136 16.2303571,23.7212154 18.2821429,21.410674 C18.5895161,21.0652823 18.7718894,20.8527823 19.2445276,20.1629781 L19.4064516,19.9266878 C19.4064516,19.9266878 19.2220046,19.7670104 18.9606567,19.5410311 L19.003629,19.3141302 C19.0748848,18.9375749 19.1894009,18.8441993 19.2226959,18.8246141 C19.2226959,18.8246141 19.4192396,18.6388422 19.7585829,18.7709274 L20.2395161,19.1480588 C20.3220046,19.1034735 21.1416475,18.6266302 21.2355415,17.9818145 C21.2687788,17.7550288 21.2334101,17.4106164 20.8791475,17.0571025" id="Fill-1" fill="#FEFEFE" mask="url(#mask-2)"></path>
                    </g>
                    <path d="M19.6450576,16.3441705 C19.6450576,16.3441705 20.1650461,17.4564977 18.5892972,17.5733756 L20.2128571,18.8453802 C20.2128571,18.8453802 21.5148157,18.0846659 20.6956336,17.2675 L19.6450576,16.3441705 Z" id="Fill-4" fill="#1B439B"></path>
                    <path d="M19.3194585,17.0666878 C19.6071313,16.7640956 19.3312673,16.2542454 19.3312673,16.2542454 C19.3312673,16.2542454 19.0814977,15.7858698 18.5781567,15.8087961 C18.4549424,15.8060887 18.330288,15.8282661 18.2065553,15.8688191 C18.1026959,16.2785541 17.9764862,16.6647869 17.8256797,17.022621 L17.8266014,17.022909 C17.8054608,17.0757316 17.6285023,17.5071832 17.2742972,18.0967569 C17.3165207,18.1333929 17.3819585,18.1900173 17.4636406,18.2608122 L18.6838018,19.3143836 C18.8346659,18.2804551 19.4145046,18.5331624 19.4145046,18.5331624 L18.045553,17.4428399 C19.0876037,17.4031509 19.3194585,17.0666878 19.3194585,17.0666878" id="Fill-6" fill="#E0393D"></path>
                    <path d="M1.58784562,16.3567108 C1.58784562,16.3567108 1.06762673,17.469038 2.64337558,17.5859159 L1.01975806,18.8579205 C1.01975806,18.8579205 -0.281912442,18.0972062 0.537269585,17.2800403 L1.58784562,16.3567108 Z" id="Fill-8" fill="#1B439B"></path>
                    <path d="M1.91324885,17.0791763 C1.62534562,16.7765841 1.90167051,16.2667339 1.90167051,16.2667339 C1.90167051,16.2667339 2.15138249,15.7985311 2.65455069,15.8213422 C2.77788018,15.8185772 2.90247696,15.8407546 3.02632488,15.8813652 C3.13012673,16.2908698 3.25639401,16.6773906 3.40720046,17.0351671 L3.4062212,17.0356279 C3.42718894,17.0882776 3.60420507,17.5198445 3.95858295,18.109303 C3.91635945,18.1461118 3.85086406,18.2025058 3.76900922,18.2733583 L2.54902074,19.3270449 C2.39815668,18.2930588 1.81826037,18.5457085 1.81826037,18.5457085 L3.18721198,17.4553283 C2.1453341,17.4156394 1.91324885,17.0791763 1.91324885,17.0791763" id="Fill-10" fill="#E0393D"></path>
                    <path d="M16.8578053,18.1604263 C17.3035426,17.4633065 17.5155242,16.9372696 17.528773,16.9038594 L17.5222638,16.9193548 C17.8591302,16.1272465 18.0769297,15.1919355 18.1696141,14.1390553 C18.1983007,13.8140553 18.2136233,13.4897465 18.2152938,13.1754608 C18.2156394,13.1308756 18.2158698,13.0886521 18.2158698,13.0490783 C18.2158698,12.9575461 18.2141993,12.8784562 18.2097062,12.8081797 L18.2097062,0.378398618 L3.02330069,0.378398618 L3.02330069,12.8081797 C3.01846198,12.8784562 3.0171371,12.9575461 3.0171371,13.0490783 C3.0171371,13.0885945 3.01736751,13.1309332 3.01765553,13.1754608 C3.01898041,13.4896889 3.03470622,13.8140553 3.06327765,14.1390553 C3.15555876,15.1864631 3.37174539,16.1176267 3.70550115,16.9071429 C3.73199885,16.9736751 3.94282834,17.4892281 4.37145737,18.1638825 L2.25302419,19.9970622 C2.72393433,20.6842166 2.89979839,20.8862327 3.19052419,21.2132488 C5.17992512,23.4534562 7.73983295,24.6372696 10.5926555,24.6372696 L10.6400634,24.6372696 C13.4935196,24.6372696 16.0530242,23.4534562 18.0422523,21.2132488 C18.3332085,20.8862327 18.5091878,20.6842166 18.9800403,19.9970622 L16.8578053,18.1604263 Z" id="Fill-12" fill="#1B439B"></path>
                    <path d="M10.6164401,1.075 L3.71978111,1.075 L3.71978111,12.8195853 C3.71978111,12.8195853 3.60854839,14.8992512 4.35152074,16.6468894 C4.35152074,16.6468894 6.1181682,21.1548963 10.5926498,21.1548963 L10.6164401,21.1548963 C15.0909793,21.1548963 16.8814171,16.6468894 16.8814171,16.6468894 C17.6243318,14.8992512 17.5130415,12.8195853 17.5130415,12.8195853 L17.5130415,1.075 L10.6164401,1.075 Z" id="Fill-14" fill="#FEFEFE"></path>
                    <mask id="mask-4" fill="white">
                        <use xlink:href="#path-3"></use>
                    </mask>
                    <g id="Clip-17"></g>
                    <polygon id="Fill-16" fill="#E0393D" mask="url(#mask-4)" points="9.33726959 17.703341 11.8824309 17.703341 11.8824309 7.75126728 9.33726959 7.75126728"></polygon>
                    <path d="M7.24659562,3.98955645 L7.24659562,2.31248272 C6.90143433,2.33074309 6.58282834,2.41161866 6.2727477,2.55153802 L6.47222926,1.92982143 L8.94181452,1.92982143 L8.67603111,2.48160714 C8.46364631,2.37486751 8.22914171,2.31962558 7.94584677,2.31248272 L7.94584677,3.98955645 C7.94584677,4.25447581 7.98115783,4.48961406 8.08737903,4.71432604 L7.10494816,4.71432604 C7.21105415,4.48961406 7.24659562,4.25447581 7.24659562,3.98955645" id="Fill-18" fill="#E0393D" mask="url(#mask-4)"></path>
                    <path d="M12.0061521,3.98955645 L12.0061521,2.65453341 C12.0061521,2.38961406 11.9707258,2.15424539 11.864735,1.92982143 L12.8470507,1.92982143 C12.7409447,2.15424539 12.705288,2.38961406 12.705288,2.65453341 L12.705288,3.19134217 L13.5551728,2.2278629 C13.6393318,2.13224078 13.6835138,2.04756336 13.6835138,1.96288594 C13.6835138,1.95194124 13.6791359,1.94070853 13.6791359,1.92982143 L14.7767742,1.92982143 C14.5157143,2.09163018 14.3122005,2.23875 14.1792512,2.38235599 L13.4490668,3.1730818 L14.4402535,4.34260945 C14.5332834,4.45292051 14.6617972,4.57440668 14.8252189,4.71432604 L13.7279839,4.71432604 C13.7322465,4.6809159 13.7368548,4.64790899 13.7368548,4.61864631 C13.7368548,4.50804724 13.6877765,4.41962558 13.59947,4.31334677 L12.705288,3.23926843 L12.705288,3.98955645 C12.705288,4.25447581 12.7409447,4.48961406 12.8469355,4.71432604 L11.864735,4.71432604 C11.9707258,4.48961406 12.0061521,4.25447581 12.0061521,3.98955645" id="Fill-19" fill="#E0393D" mask="url(#mask-4)"></path>
                    <path d="M15.095265,3.98955645 L15.095265,2.65453341 C15.095265,2.38961406 15.0600691,2.15424539 14.9537327,1.92982143 L16.852523,1.92982143 L16.5384101,2.47417627 C16.3390438,2.39687212 16.0956682,2.35649194 15.7947465,2.34917627 L15.7947465,3.11789747 L16.755288,3.11789747 L16.3966475,3.62169931 C16.2596083,3.5371371 16.0779263,3.50044355 15.8566129,3.50044355 C15.8345507,3.50038594 15.8167512,3.50044355 15.7947465,3.50044355 L15.7947465,4.29854263 C15.8875461,4.30234447 15.9806912,4.30603111 16.0692281,4.30603111 C16.4675,4.30603111 16.7996429,4.26173387 17.0780991,4.15873848 L16.8127765,4.71432604 L14.9537327,4.71432604 C15.0600691,4.48961406 15.095265,4.25447581 15.095265,3.98955645" id="Fill-20" fill="#E0393D" mask="url(#mask-4)"></path>
                    <path d="M8.53122696,5.61666475 C8.15023618,5.61666475 7.88001728,5.86862327 7.88001728,6.26476382 C7.88001728,6.66557028 8.1615265,6.92248272 8.58243664,6.92248272 C8.81855415,6.92248272 8.99487903,6.84431452 9.15403802,6.67300115 L9.09165323,7.09627304 C8.8896947,7.17190668 8.67633065,7.21101959 8.44603111,7.21101959 C8.18998272,7.21101959 7.9709735,7.15232143 7.78906106,7.03227535 C7.52460253,6.85883065 7.39361175,6.62421083 7.39361175,6.33083525 C7.39361175,6.02265553 7.53888825,5.75353111 7.80040899,5.56787442 C8.03070853,5.4065265 8.30945276,5.32075461 8.61947581,5.32075461 C8.77298963,5.32075461 8.94084677,5.34535138 9.11717166,5.39414171 L9.11717166,5.85641129 C8.93232143,5.69759793 8.73888825,5.61666475 8.53122696,5.61666475" id="Fill-21" fill="#E0393D" mask="url(#mask-4)"></path>
                    <path d="M8.61946429,5.33967166 C8.31387673,5.33967166 8.04198733,5.42164171 7.81128456,5.58339286 C7.55414171,5.76588134 7.41249424,6.03137673 7.41249424,6.33085829 C7.41249424,6.61737903 7.54267857,6.8480818 7.7994182,7.01645737 C7.97608871,7.13298963 8.19360023,7.19209101 8.44607719,7.19209101 C8.6681394,7.19209101 8.87384217,7.15620392 9.07453341,7.08241359 L9.12683756,6.72763249 C8.97349654,6.87504032 8.80327765,6.94139977 8.58242512,6.94139977 C8.14423387,6.94139977 7.86111175,6.67578917 7.86111175,6.26478687 C7.86111175,5.86582373 8.13040899,5.59773618 8.53121544,5.59773618 C8.73098502,5.59773618 8.91687212,5.66922235 9.09826613,5.81605415 L9.09826613,5.40856567 C8.9290841,5.36282834 8.7680818,5.33967166 8.61946429,5.33967166 M8.44607719,7.22987903 C8.18605415,7.22987903 7.96151498,7.16870392 7.77862327,7.04802419 C7.51059332,6.87221774 7.37470622,6.6309735 7.37470622,6.33085829 C7.37470622,6.01876152 7.52199885,5.74232143 7.78951037,5.55245968 C8.02343894,5.38851959 8.3103629,5.30188364 8.61946429,5.30188364 C8.77551267,5.30188364 8.9446947,5.32676843 9.12222926,5.37590438 L9.13605415,5.37970622 L9.13605415,5.89762097 L9.10483295,5.87077765 C8.92067396,5.71248272 8.73305876,5.6355818 8.53121544,5.6355818 C8.15304724,5.6355818 7.89895737,5.88840438 7.89895737,6.26478687 C7.89895737,6.6528053 8.16721774,6.90355415 8.58242512,6.90355415 C8.81174539,6.90355415 8.98375,6.82849654 9.14014401,6.66012097 L9.18161866,6.61547811 L9.1086924,7.11006336 L9.09826613,7.11398041 C8.88991359,7.19197581 8.67660714,7.22987903 8.44607719,7.22987903" id="Fill-22" fill="#E0393D" mask="url(#mask-4)"></path>
                    <path d="M9.50759217,6.70739055 L9.50759217,5.81971774 C9.50759217,5.64350806 9.48489631,5.48717166 9.41675115,5.3378629 L10.0479147,5.3378629 C9.97988479,5.48717166 9.95690092,5.64350806 9.95690092,5.81971774 L9.95690092,6.70739055 C9.95690092,6.88325461 9.97988479,7.03987903 10.0479147,7.18907258 L9.41675115,7.18907258 C9.48489631,7.03987903 9.50759217,6.88331221 9.50759217,6.70739055" id="Fill-23" fill="#E0393D" mask="url(#mask-4)"></path>
                    <path d="M9.44568548,7.17016129 L10.019015,7.17016129 C9.96383065,7.03819124 9.93802419,6.89026498 9.93802419,6.70737327 L9.93802419,5.81975806 C9.93802419,5.63421659 9.9630818,5.48991935 10.019015,5.35679724 L9.44568548,5.35679724 C9.50144585,5.48957373 9.52650346,5.63387097 9.52650346,5.81975806 L9.52650346,6.70737327 C9.52650346,6.89326037 9.50144585,7.0375 9.44568548,7.17016129 L9.44568548,7.17016129 Z M10.0773099,7.20794931 L9.38733295,7.20794931 L9.39954493,7.1812212 C9.46118088,7.04625576 9.48871544,6.90011521 9.48871544,6.70737327 L9.48871544,5.81975806 C9.48871544,5.62695853 9.46118088,5.48076037 9.39954493,5.34573733 L9.38733295,5.31895161 L10.0773099,5.31895161 L10.0651555,5.34573733 C10.0034044,5.4812212 9.97581221,5.62736175 9.97581221,5.81975806 L9.97581221,6.70737327 C9.97581221,6.89971198 10.0033468,7.04579493 10.0650979,7.1812212 L10.0773099,7.20794931 Z" id="Fill-24" fill="#E0393D" mask="url(#mask-4)"></path>
                    <path d="M10.8387788,6.70739055 L10.8387788,5.59218318 C10.6168318,5.60456797 10.4119931,5.6580818 10.2127995,5.75122696 L10.3410829,5.3378629 L11.9280645,5.3378629 L11.7573848,5.70468318 C11.6209217,5.63365783 11.4700576,5.5971947 11.28803,5.59218318 L11.28803,6.70739055 C11.28803,6.88325461 11.3107258,7.03987903 11.3788134,7.18907258 L10.7476498,7.18907258 C10.8159677,7.03987903 10.8387788,6.88331221 10.8387788,6.70739055" id="Fill-25" fill="#E0393D" mask="url(#mask-4)"></path>
                    <path d="M10.7766187,7.17016129 L11.3498906,7.17016129 C11.2941302,7.03738479 11.2691302,6.89314516 11.2691302,6.70737327 L11.2691302,5.57275346 L11.2885426,5.57327189 C11.4661924,5.5781682 11.6129666,5.61180876 11.7485081,5.67897465 L11.8984505,5.35679724 L10.3550173,5.35679724 L10.2433237,5.71658986 C10.4358353,5.63179724 10.6307085,5.58485023 10.8377362,5.57332949 L10.8576671,5.57217742 L10.8576671,6.70737327 C10.8576671,6.89314516 10.8326094,7.03732719 10.7766187,7.17016129 L10.7766187,7.17016129 Z M11.4082431,7.20794931 L10.7181509,7.20794931 L10.7304205,7.18116359 C10.7922869,7.04608295 10.819879,6.9 10.819879,6.70737327 L10.819879,5.61232719 C10.6114113,5.62632488 10.4152131,5.67741935 10.2208007,5.76837558 L10.1820334,5.78646313 L10.3271371,5.31895161 L11.9577247,5.31895161 L11.76625,5.73058756 L11.7486809,5.72142857 C11.6183237,5.65362903 11.4775403,5.61860599 11.3069182,5.61175115 L11.3069182,6.70737327 C11.3069182,6.9000576 11.3344528,7.04619816 11.3960311,7.1812212 L11.4082431,7.20794931 Z" id="Fill-26" fill="#E0393D" mask="url(#mask-4)"></path>
                    <path d="M13.3163018,7.18906106 L12.685023,7.18906106 C12.7531106,7.03986751 12.7759217,6.88330069 12.7759217,6.70737903 L12.7759217,6.32339286 L12.3008065,5.6459735 C12.2239631,5.53854263 12.1387097,5.43577765 12.0449885,5.33785138 L12.6735599,5.33785138 C12.6705069,5.35271313 12.6705069,5.36722926 12.6705069,5.37955645 C12.6705069,5.42604263 12.68197,5.46751728 12.7017857,5.49701037 L13.0233295,5.97373848 L13.2908986,5.53116935 C13.3163018,5.48716014 13.3304724,5.44073157 13.3304724,5.39413018 C13.3304724,5.37471774 13.3275346,5.35755184 13.3249424,5.33785138 L13.8993088,5.33785138 C13.7910714,5.43330069 13.7001728,5.53854263 13.6234447,5.65323157 L13.2250576,6.24775922 L13.2250576,6.70737903 C13.2250576,6.88324309 13.2479839,7.03986751 13.3163018,7.18906106" id="Fill-27" fill="#E0393D" mask="url(#mask-4)"></path>
                    <path d="M12.7139401,7.17016129 L13.2873848,7.17016129 C13.2320276,7.03830645 13.2061636,6.89038018 13.2061636,6.70737327 L13.2061636,6.24205069 L13.6077765,5.64274194 C13.6775922,5.53830645 13.7591014,5.44228111 13.8504032,5.35679724 L13.3466014,5.35679724 C13.3481567,5.36889401 13.3493664,5.38087558 13.3493664,5.39412442 C13.3493664,5.44297235 13.3351959,5.4922235 13.3072581,5.5406106 L13.0242512,6.00881336 L12.6861175,5.50760369 C12.6638825,5.47448157 12.6516129,5.42897465 12.6516129,5.37960829 C12.6516129,5.37275346 12.6516129,5.36503456 12.6521313,5.35679724 L12.0887673,5.35679724 C12.1709101,5.44521889 12.2472926,5.53865207 12.3161866,5.63502304 L12.7948157,6.31739631 L12.7948157,6.70737327 C12.7948157,6.89302995 12.7698157,7.03726959 12.7139401,7.17016129 L12.7139401,7.17016129 Z M13.3457949,7.20794931 L12.6555876,7.20794931 L12.6677995,7.1812212 C12.7295507,7.04602535 12.7570276,6.89988479 12.7570276,6.70737327 L12.7570276,6.32932028 L12.2853687,5.65685484 C12.2092166,5.55040323 12.1237327,5.44746544 12.0312788,5.35092166 L12.0006912,5.31895161 L12.6967166,5.31895161 L12.6920507,5.34164747 C12.6894009,5.35460829 12.6894009,5.36785714 12.6894009,5.37960829 C12.6894009,5.42160138 12.6993664,5.45950461 12.7175115,5.48646313 L13.0224078,5.93865207 L13.2746544,5.52137097 C13.2990783,5.47914747 13.3115783,5.43623272 13.3115783,5.39412442 C13.3115783,5.37943548 13.309735,5.36607143 13.3076037,5.35057604 L13.3033986,5.31895161 L13.9493664,5.31895161 L13.9118088,5.35207373 C13.806682,5.44475806 13.7174539,5.54671659 13.6391705,5.66376728 L13.2439516,6.25351382 L13.2439516,6.70737327 C13.2439516,6.89982719 13.2716014,7.04591014 13.3335253,7.18116359 L13.3457949,7.20794931 Z" id="Fill-28" fill="#E0393D" mask="url(#mask-4)"></path>
                    <path d="M11.6790956,3.32601382 C11.6790956,4.24490783 11.0297293,4.74162442 10.2285196,4.74162442 C9.42742512,4.74162442 8.77782834,4.27146313 8.77782834,3.32601382 C8.77782834,2.54392857 9.42742512,1.91011521 10.2285196,1.91011521 C11.0297293,1.91011521 11.6790956,2.54392857 11.6790956,3.32601382 M10.2262154,2.24398618 C9.77610023,2.24398618 9.5678053,2.76541475 9.5678053,3.31241935 C9.5678053,3.85925115 9.77610023,4.38073733 10.2262154,4.38073733 C10.6760426,4.38073733 10.8844528,3.85925115 10.8844528,3.31241935 C10.8844528,2.76541475 10.6760426,2.24398618 10.2262154,2.24398618" id="Fill-29" fill="#E0393D" mask="url(#mask-4)"></path>
                    <path d="M9.53327765,18.7162154 C9.53327765,18.4724366 9.60487903,18.3457085 9.74537442,18.3457085 C9.89664171,18.3457085 9.95476382,18.462644 9.95476382,18.716273 C9.95476382,18.9628744 9.88586982,19.0830933 9.74537442,19.0830933 C9.60217166,19.0830933 9.53327765,18.9628744 9.53327765,18.716273 L9.53327765,18.7162154 Z M10.0158813,19.1449597 C10.2197408,19.0799251 10.3260196,18.9144297 10.3260196,18.6866647 C10.3260196,18.3588998 10.1269988,18.1769873 9.76392281,18.1769873 C9.38483295,18.1769873 9.1622523,18.3817108 9.1622523,18.6866647 C9.1622523,18.9174827 9.27354263,19.0830933 9.47504032,19.1418491 L9.47504032,19.1644873 C9.22043203,19.2326325 9.09059332,19.4341302 9.09059332,19.7491071 C9.09059332,20.1388537 9.32642281,20.3079205 9.74537442,20.3890841 C10.1660541,20.4707661 10.4000403,20.2692684 10.4000403,19.8731279 C10.4000403,19.5871832 10.2620795,19.2262385 10.0158813,19.1644873 L10.0158813,19.1449597 Z M9.52025922,19.7296947 C9.52025922,19.4110887 9.59157258,19.2521601 9.74537442,19.2521601 C9.89664171,19.2521601 9.97077765,19.4110887 9.97077765,19.7296947 C9.97077765,20.0447869 9.89111175,20.2042339 9.74537442,20.2042339 C9.58368088,20.2042339 9.52025922,20.0512385 9.52025922,19.7296947 L9.52025922,19.7296947 Z" id="Fill-30" fill="#1B439B" mask="url(#mask-4)"></path>
                    <path d="M9.74535138,18.3673272 C9.61896889,18.3673272 9.55485599,18.4846659 9.55485599,18.7162327 C9.55485599,19.0257373 9.66361175,19.0615092 9.74535138,19.0615092 C9.87173387,19.0615092 9.933197,18.948606 9.933197,18.7162903 C9.933197,18.4684217 9.87876152,18.3673272 9.74535138,18.3673272 M9.74535138,19.104712 C9.58815092,19.104712 9.51171083,18.9776382 9.51171083,18.7162903 L9.51171083,18.7162327 C9.51171083,18.392212 9.63872696,18.3241244 9.74535138,18.3241244 C9.94892281,18.3241244 9.97634217,18.5223387 9.97634217,18.7162903 C9.97634217,18.9740092 9.89863479,19.104712 9.74535138,19.104712 M9.74535138,19.2737212 C9.60842742,19.2737212 9.54183756,19.4228571 9.54183756,19.7296544 C9.54183756,20.0471659 9.60272465,20.1826498 9.74535138,20.1826498 C9.91384217,20.1826498 9.94921083,19.9362788 9.94921083,19.7296544 C9.94921083,19.4228571 9.88250576,19.2737212 9.74535138,19.2737212 M9.74535138,20.2258525 C9.52674539,20.2258525 9.4986924,19.9606452 9.4986924,19.7296544 C9.4986924,19.3938249 9.57939516,19.2305184 9.74535138,19.2305184 C9.91153802,19.2305184 9.99235599,19.3938249 9.99235599,19.7296544 C9.99235599,20.1397926 9.85802419,20.2258525 9.74535138,20.2258525 M9.76389977,18.1985484 C9.40612327,18.1985484 9.18383065,18.3855876 9.18383065,18.686682 C9.18383065,18.9109908 9.2894182,19.0652535 9.48112327,19.121129 L9.49661866,19.1256221 L9.49661866,19.1810369 L9.48060484,19.1853571 C9.23613479,19.2507373 9.11217166,19.4404263 9.11217166,19.7490668 C9.11217166,20.0963018 9.30278226,20.2813825 9.74944124,20.3678456 C9.94921083,20.4066705 10.111826,20.3800576 10.2198329,20.2911175 C10.3236348,20.2055184 10.3784735,20.0609908 10.3784735,19.8731452 C10.3784735,19.5867972 10.2378629,19.2423848 10.0106164,19.1854147 L9.99431452,19.1813249 L9.99431452,19.1292512 L10.0093491,19.12447 C10.1996141,19.0636982 10.3044528,18.9082834 10.3044528,18.686682 C10.3044528,18.3718779 10.1124597,18.1985484 9.76389977,18.1985484 M9.91804724,20.4283871 C9.86269009,20.4283871 9.80358871,20.4223963 9.74126152,20.4102995 C9.27006336,20.3189977 9.0690265,20.1212442 9.0690265,19.7490668 C9.0690265,19.436106 9.19667627,19.2306336 9.43872696,19.1526959 C9.2488076,19.0843779 9.14068548,18.9163479 9.14068548,18.686682 C9.14068548,18.3589171 9.37945276,18.1553456 9.76389977,18.1553456 C10.1402823,18.1553456 10.3475979,18.3441129 10.3475979,18.686682 C10.3475979,18.9157719 10.2440265,19.0804608 10.0549712,19.1540207 C10.2852707,19.239159 10.4216187,19.5780991 10.4216187,19.8731452 C10.4216187,20.0742972 10.3613652,20.2304032 10.2472523,20.32447 C10.1636694,20.3933641 10.0516878,20.4283871 9.91804724,20.4283871" id="Fill-31" fill="#1B439B" mask="url(#mask-4)"></path>
                    <path d="M11.4528456,19.766129 C11.4528456,20.1017281 11.3868318,20.2677419 11.2541705,20.2677419 C11.1165553,20.2677419 11.0474885,20.0983295 11.0474885,19.7528226 C11.0474885,19.4471774 11.1138479,19.2976382 11.2489862,19.2976382 C11.3972581,19.2976382 11.4528456,19.4471774 11.4528456,19.766129 L11.4528456,19.766129 Z M11.0421889,19.2312212 L11.0421889,19.2213134 C11.0421889,18.6898041 11.1525576,18.3809332 11.3934562,18.3809332 C11.5075115,18.3809332 11.5949539,18.4437788 11.6745046,18.5735023 L11.6904608,18.5668779 C11.6958756,18.4671659 11.7091244,18.3642857 11.7273848,18.2512097 C11.6189171,18.2012673 11.3947811,18.1748272 11.2835484,18.1748272 C10.7586636,18.1748272 10.580841,18.7732143 10.580841,19.587212 C10.580841,20.2084677 10.8159217,20.5095622 11.2541705,20.4403802 C11.652212,20.377765 11.8957604,20.1548387 11.8957604,19.6797811 C11.8957604,19.2911866 11.704977,19.0616935 11.4053802,19.0616935 C11.2435714,19.0616935 11.1110253,19.128341 11.0421889,19.2312788 L11.0421889,19.2312212 Z" id="Fill-32" fill="#1B439B" mask="url(#mask-4)"></path>
                    <path d="M11.2489804,19.3194182 C11.1280127,19.3194182 11.0692569,19.4611809 11.0692569,19.7527707 C11.0692569,20.0800173 11.1314689,20.2459735 11.2541647,20.2459735 C11.3715611,20.2459735 11.4310657,20.0845104 11.4310657,19.7661348 C11.4310657,19.4530012 11.3766302,19.3194182 11.2489804,19.3194182 M11.2541647,20.2895219 C11.1004205,20.2895219 11.0257085,20.1139459 11.0257085,19.7527707 C11.0257085,19.4318606 11.09875,19.2758698 11.2489804,19.2758698 C11.4478283,19.2758698 11.4746141,19.5236809 11.4746141,19.7661348 C11.4746141,20.1183237 11.4024942,20.2895219 11.2541647,20.2895219 M11.2835426,18.1966071 C10.8316993,18.1966071 10.6026094,18.6644643 10.6026094,19.5871601 C10.6026094,19.9460311 10.6800864,20.1941878 10.8327938,20.3246601 C10.9378053,20.4144067 11.0784735,20.4460887 11.2507661,20.4188422 C11.6701786,20.3528859 11.874038,20.1111233 11.874038,19.6797869 C11.874038,19.3063998 11.6988076,19.0834735 11.4053744,19.0834735 C11.2562385,19.0834735 11.1272638,19.1432661 11.0603283,19.2433813 L11.020409,19.3030588 L11.020409,19.2213191 C11.020409,18.6491993 11.1459274,18.3591647 11.3934505,18.3591647 C11.5027247,18.3591647 11.5917224,18.4131394 11.6710426,18.5282316 C11.6766302,18.4515611 11.686826,18.3680357 11.7031855,18.2645795 C11.5942569,18.2207431 11.3899942,18.1966071 11.2835426,18.1966071 M11.1357892,20.4719528 C11.0044528,20.4719528 10.8933353,20.4337615 10.8045104,20.3577823 C10.6416071,20.2186118 10.5590035,19.9593376 10.5590035,19.5871601 C10.5590035,18.6355472 10.8027823,18.1530588 11.2835426,18.1530588 C11.4020334,18.1530588 11.6254205,18.1803053 11.7364804,18.2313998 L11.751515,18.2383122 L11.7489228,18.2547293 C11.7283583,18.3819182 11.717068,18.478462 11.7122293,18.5680357 L11.7114804,18.5816878 L11.6656279,18.6007546 L11.6558929,18.5849136 C11.5787039,18.4589343 11.4977131,18.4027131 11.3934505,18.4027131 C11.1336002,18.4027131 11.0697177,18.8080127 11.0643606,19.1695334 C11.1446025,19.0875058 11.2674136,19.0399251 11.4053744,19.0399251 C11.721273,19.0399251 11.9175288,19.2850864 11.9175288,19.6797869 C11.9175288,20.1362385 11.7016302,20.3920565 11.2575058,20.4619297 C11.2152247,20.4685541 11.1746717,20.4719528 11.1357892,20.4719528" id="Fill-33" fill="#1B439B" mask="url(#mask-4)"></path>
                    <path d="M12.1634389,19.8507373 C12.2347523,19.9853571 12.4199482,19.9970507 12.4199482,19.9970507 C12.8059505,19.9811521 12.7610772,19.37303 12.7610772,19.37303 C12.7191993,19.0598963 12.4836578,19.0979724 12.2941993,19.1150806 C12.2625749,19.1178456 12.2166647,19.1218779 12.1877477,19.1270046 L12.1947177,18.8990668 C12.2144182,18.8995853 12.2364804,18.9004493 12.2583698,18.8983756 C12.4623445,18.8795392 12.601227,18.8187097 12.639879,18.6165207 C12.6634389,18.4939977 12.639015,18.3020622 12.4305472,18.3076498 C12.1961578,18.3139286 12.1591763,18.4872581 12.0924712,18.5778687 L12.0647638,18.5628917 L12.039591,18.293076 C12.160962,18.1476843 12.46822,18.1274078 12.46822,18.1274078 C12.7837154,18.0985484 13.0276094,18.273894 13.0504205,18.5231452 C13.0672984,18.7055184 13.0007085,18.7799424 12.7776094,18.8847235 L12.7791647,18.9023502 C13.0413191,18.8873157 13.1439113,18.9741244 13.204568,19.1576498 C13.3026671,19.4536175 13.2717339,20.2145046 11.9782431,20.2732604 C11.9782431,20.2732604 12.0823329,20.1567281 12.1193145,19.8662903 L12.1634389,19.8507373 Z" id="Fill-34" fill="#1B439B" mask="url(#mask-4)"></path>
                    <path d="M12.135818,19.8795968 C12.1082258,20.0839171 12.0482028,20.2014286 12.0149654,20.2532719 C12.5450922,20.2231452 12.9077074,20.0713594 13.0931912,19.8017742 C13.245553,19.5804032 13.239159,19.3194585 13.1874309,19.1632949 C13.1340899,19.001947 13.0464171,18.9047696 12.7802304,18.9204378 L12.7627765,18.9214171 L12.7585138,18.8737788 L12.7699194,18.8683641 C12.9939401,18.7631221 13.0479724,18.6925 13.0324194,18.5248157 C13.0101267,18.2812673 12.7694585,18.118076 12.4698618,18.1454378 C12.4664631,18.1456106 12.1765438,18.1663479 12.0582834,18.2990668 L12.0818433,18.5515438 L12.0867972,18.5542512 C12.0967051,18.539159 12.1063249,18.5221083 12.1164055,18.5042512 C12.1687673,18.4109332 12.2340323,18.2948618 12.43,18.2895622 C12.5075922,18.2867396 12.5676152,18.3109332 12.608629,18.3592051 C12.683629,18.4475691 12.6650806,18.5810945 12.6576498,18.619977 C12.6131797,18.8522926 12.4402535,18.8997005 12.2600691,18.9163479 C12.2435945,18.9179608 12.2272926,18.9179608 12.2122005,18.9176152 L12.2064977,19.1058641 C12.2337442,19.102235 12.2666935,19.0993548 12.2923272,19.0971083 L12.3195737,19.0945737 C12.5055184,19.0768894 12.7367972,19.0551152 12.7789631,19.3706106 C12.7802304,19.3863364 12.8037327,19.7320737 12.6438249,19.9115092 C12.5858756,19.9765438 12.510818,20.011394 12.4206682,20.0151382 C12.4111636,20.0146198 12.2348387,20.0020046 12.1552304,19.8727995 L12.135818,19.8795968 Z M11.9364516,20.2932488 L11.964735,20.2612788 C11.9657719,20.2600691 12.0657143,20.1442281 12.101371,19.8639862 L12.1028111,19.8529263 L12.1721083,19.8285023 L12.179424,19.8423272 C12.2452074,19.9665207 12.4193433,19.9789055 12.4210714,19.9790207 C12.499182,19.9756797 12.5656567,19.9449194 12.616924,19.8874309 C12.7666359,19.7194009 12.7433065,19.3778111 12.743076,19.3743548 C12.7056912,19.0944009 12.5112788,19.1127765 12.32303,19.130576 L12.2957834,19.1331106 C12.2649654,19.135818 12.2188825,19.1397926 12.1908871,19.1447465 L12.1689977,19.1486636 L12.177235,18.8804608 L12.1952074,18.8809793 C12.2170968,18.8816705 12.2373157,18.8823041 12.2567281,18.8803456 C12.4487788,18.8626613 12.5843779,18.8103571 12.6221083,18.6131797 C12.6359908,18.5413479 12.6323618,18.443076 12.5810369,18.3826498 C12.5475115,18.343076 12.4960138,18.3247005 12.4310369,18.3256797 C12.2555184,18.3304032 12.198318,18.4321889 12.1479147,18.5219355 C12.1343203,18.546129 12.1214747,18.5689401 12.1070161,18.5885829 L12.0976843,18.6013134 L12.0476843,18.574182 L12.0208986,18.2872581 L12.0256797,18.2814977 C12.1506221,18.1318433 12.4541359,18.1102419 12.4670392,18.1093779 C12.7854147,18.0804608 13.0442857,18.2573618 13.0684217,18.5215323 C13.086106,18.7124309 13.0107028,18.7903111 12.823606,18.8826498 C13.0435945,18.8790783 13.1575922,18.9578802 13.2217627,19.151947 C13.2760829,19.3160023 13.2828226,19.5899654 13.1229724,19.8222811 C12.9264286,20.1079954 12.5415207,20.2657719 11.9790783,20.2912903 L11.9364516,20.2932488 Z" id="Fill-35" fill="#1B439B" mask="url(#mask-4)"></path>
                    <path d="M8.87589286,20.1594009 C8.66022465,20.0782373 8.33401498,19.9032949 8.33401498,19.9032949 C8.35233295,19.7291014 8.39115783,19.3566359 8.39115783,18.7369355 C8.39115783,18.6683871 8.38568548,18.6205184 8.38044355,18.5228802 C8.27704493,18.5652189 8.31938364,18.5292166 8.21610023,18.5899885 L8.10221774,18.4158525 C8.37785138,18.3235714 8.49282834,18.3124539 8.76327765,18.1671774 L8.81627304,18.1962097 C8.80832373,18.7528341 8.81293203,19.0637788 8.81293203,19.2432143 C8.81293203,19.4727074 8.84242512,19.8414862 8.86327765,20.0680415 C8.86759793,20.1156221 8.87589286,20.1594009 8.87589286,20.1594009" id="Fill-36" fill="#1B439B" mask="url(#mask-4)"></path>
                    <path d="M8.35473502,19.8922523 C8.41124424,19.9222062 8.6637788,20.0543491 8.85110599,20.1288882 C8.84868664,20.1124712 8.84586406,20.0916187 8.84390553,20.0698445 C8.82875576,19.9049251 8.7935023,19.4942108 8.7935023,19.243174 C8.7935023,19.2030818 8.79327189,19.1564804 8.79298387,19.1019297 C8.79206221,18.9150058 8.79067972,18.6334389 8.7966129,18.2076325 L8.76314516,18.1893145 C8.57028802,18.2920795 8.45801843,18.3260657 8.30352535,18.3728399 C8.25237327,18.3883929 8.19678571,18.4052131 8.13238479,18.4264113 L8.22230415,18.5638537 C8.26919355,18.5369528 8.28140553,18.5333237 8.30185484,18.5286578 C8.31516129,18.5256048 8.33163594,18.5218606 8.3731106,18.5048675 L8.39845622,18.4944988 L8.39989631,18.5218606 C8.40168203,18.5549827 8.40346774,18.5824021 8.40508065,18.606826 C8.40819124,18.6538882 8.4106682,18.6910426 8.4106682,18.7368952 C8.4106682,19.3454781 8.37380184,19.7106855 8.35473502,19.8922523 L8.35473502,19.8922523 Z M8.90145161,20.1897753 L8.86902074,20.177621 C8.65467742,20.0969182 8.32806452,19.9222062 8.32478111,19.9204205 L8.31326037,19.9142569 L8.31464286,19.9012385 C8.33319124,19.7250288 8.37172811,19.3583237 8.37172811,18.7368952 C8.37172811,18.6923675 8.36930876,18.6557316 8.36625576,18.6093606 C8.36510369,18.5917339 8.36383641,18.5725518 8.36256912,18.5507776 C8.335553,18.5609159 8.32144009,18.5640841 8.310553,18.5665611 C8.29332949,18.5705933 8.28382488,18.5727247 8.22599078,18.6067684 L8.20997696,18.6161578 L8.07218894,18.4053859 L8.09603687,18.3974366 C8.17126728,18.3722062 8.23451613,18.3530818 8.29223502,18.3356279 C8.44707373,18.2887385 8.55888249,18.2548675 8.75410138,18.1500288 L8.76337558,18.1450749 L8.83589862,18.1847638 L8.83572581,18.196515 C8.82956221,18.628485 8.8310023,18.9132776 8.83192396,19.1016993 C8.83221198,19.1563652 8.83238479,19.2030242 8.83238479,19.243174 C8.83238479,19.4925979 8.86752304,19.9018721 8.88267281,20.066273 C8.88687788,20.1122984 8.8949424,20.1553283 8.895,20.1557892 L8.90145161,20.1897753 Z" id="Fill-37" fill="#1B439B" mask="url(#mask-4)"></path>
                    <path d="M6.92169931,19.0451267 C6.7230818,18.8697235 6.53068548,18.6787673 6.34422235,18.470818 C5.42532834,17.4489286 5.00361175,16.4016359 4.9996371,16.3912097 L4.99589286,16.3820507 L4.99249424,16.3742742 C4.46858871,15.1414977 4.41098502,13.689712 4.41098502,13.1117166 C4.41098502,12.9529608 4.41507488,12.8601613 4.41553571,12.8560138 L4.41616935,12.8372926 L4.41616935,5.30123272 L6.91513249,5.30123272 L6.92169931,19.0451267 Z" id="Fill-38" fill="#E0393D" mask="url(#mask-4)"></path>
                    <path d="M14.3114286,19.0451267 C14.5095276,18.8697235 14.7023848,18.6787673 14.8886751,18.470818 C15.8072235,17.4489286 16.2293433,16.4016359 16.2334908,16.3912097 L16.2371198,16.3820507 L16.2403456,16.3742742 C16.7646544,15.1414977 16.8221429,13.689712 16.8221429,13.1117166 C16.8221429,12.9529608 16.8178802,12.8601613 16.817765,12.8560138 L16.8166129,12.8372926 L16.8166129,5.30123272 L14.318053,5.30123272 L14.3114286,19.0451267 Z" id="Fill-39" fill="#E0393D" mask="url(#mask-4)"></path>
                    <path d="M8.54042627,22.7113479 L8.63074885,22.3636521 C8.64595622,22.3047235 8.65718894,22.2616935 8.6643318,22.2343894 C8.66709677,22.2230991 8.67614055,22.1889977 8.69336406,22.1303571 C8.73086406,22.1351959 8.75540323,22.1391705 8.7675,22.1425115 C8.91657834,22.1811636 8.9689977,22.2942396 8.92182028,22.4758641 C8.8627765,22.7031106 8.75396313,22.7669355 8.54042627,22.7113479 L8.54042627,22.7113479 Z M8.50056452,22.8732719 C8.52614055,22.8822005 8.5502765,22.8886521 8.57452765,22.8947581 C8.94699309,22.9914171 9.1768318,22.8767281 9.26237327,22.5472926 C9.33841014,22.2541475 9.21726959,22.0918779 8.90286866,22.010023 C8.7722235,21.9761521 8.64584101,21.9581797 8.52902074,21.9276498 C8.48662442,21.9166475 8.43547235,21.8987903 8.37481567,21.8755184 C8.3206106,22.1668203 8.25684332,22.4291475 8.19733871,22.6586982 C8.14359447,22.8651498 8.07700461,23.1217742 7.97193548,23.4267281 C8.05223502,23.4403802 8.11778802,23.4527074 8.16629032,23.465265 C8.21876728,23.4788594 8.27982719,23.4996544 8.35442396,23.5263249 C8.38725806,23.3335253 8.41076037,23.2183756 8.42038018,23.1820276 L8.50056452,22.8732719 Z" id="Fill-40" fill="#FEFEFE" mask="url(#mask-4)"></path>
                    <path d="M9.91495392,23.0049885 C9.91432028,22.5697926 10.0810253,22.3225 10.3377074,22.322212 C10.5923733,22.3221544 10.7595968,22.5642051 10.76,23.004182 C10.7604608,23.4396659 10.5893779,23.6822926 10.3390899,23.6825806 C10.0822926,23.6825806 9.91535714,23.4428341 9.91495392,23.0049885 M9.53718894,23.0265899 C9.53764977,23.5491129 9.81760369,23.8358065 10.3204263,23.8355184 C10.8402419,23.8348272 11.1382834,23.5168548 11.1377074,22.966394 C11.1371313,22.4555645 10.8492281,22.1686982 10.3564862,22.1696198 C9.84726959,22.1698502 9.53667051,22.4804493 9.53718894,23.0265899" id="Fill-41" fill="#FEFEFE" mask="url(#mask-4)"></path>
                    <path d="M12.0471083,22.2778571 C12.0611636,22.4083871 12.0800576,22.5196198 12.0950346,22.6050461 C12.1010829,22.6396659 12.1067281,22.6724424 12.1112212,22.6998041 C12.1696313,23.0375346 12.2244124,23.3566014 12.3021774,23.660288 C12.2105876,23.6686982 12.1441129,23.6754378 12.1051728,23.6822926 C12.0540783,23.6909332 11.9912903,23.706371 11.9123157,23.7271083 C11.8856452,23.4366129 11.8466475,23.1742281 11.8053456,22.9336175 C11.7835138,22.8064286 11.7425576,22.6062558 11.690023,22.3390323 C11.5649078,22.3605184 11.4416935,22.3915668 11.3237788,22.4307373 C11.3204378,22.3862097 11.3172696,22.3437558 11.3113364,22.3091935 C11.3078226,22.2884562 11.2979147,22.256947 11.28553,22.2089055 C11.5106452,22.1796429 11.6961866,22.1545853 11.8379493,22.1303341 C11.9732028,22.106947 12.1545392,22.0685829 12.382477,22.0199078 C12.3868548,22.069159 12.3902535,22.1018779 12.3939401,22.1227304 C12.3999309,22.1571774 12.4091475,22.1985945 12.4207258,22.2417972 C12.2966475,22.2442742 12.1718779,22.2562558 12.0471083,22.2778571" id="Fill-42" fill="#FEFEFE" mask="url(#mask-4)"></path>
                    <path d="M13.3797581,21.8870622 C13.4150691,22.0140207 13.4519931,22.1201843 13.4807949,22.202212 C13.4926037,22.2354493 13.5030876,22.2665553 13.512765,22.2929954 C13.6256106,22.6166129 13.7324654,22.9222581 13.8587903,23.2084332 C13.7703687,23.2321659 13.7059101,23.2495622 13.6684677,23.2626382 C13.6195046,23.2798618 13.5598848,23.3054378 13.4856336,23.3390207 C13.4114977,23.0567627 13.3299309,22.8043433 13.2492281,22.5739862 C13.2067166,22.4522696 13.1336175,22.2614286 13.037765,22.0065899 C12.9177765,22.0484101 12.8012442,22.099159 12.6914516,22.1574539 C12.6808525,22.1139631 12.6709447,22.0727765 12.6592512,22.0395968 C12.6523963,22.0193779 12.6371889,21.9899424 12.6173157,21.9445507 C12.8345392,21.8785945 13.0135714,21.8235253 13.1489977,21.7763479 C13.278606,21.7310714 13.4511866,21.6633871 13.6680069,21.5774424 C13.6803917,21.6253111 13.6893779,21.6571083 13.6962327,21.676924 C13.7078111,21.7102189 13.7237097,21.7493318 13.7423733,21.7900576 C13.6204263,21.8129263 13.4993433,21.8452419 13.3797581,21.8870622" id="Fill-43" fill="#FEFEFE" mask="url(#mask-4)"></path>
                    <path d="M14.4127938,22.2273387 C14.3869297,22.1801037 14.3609505,22.1326959 14.3347984,22.0854032 C14.3190726,22.0565438 14.303462,22.0277419 14.2875634,21.9988825 C14.1749482,21.7931221 14.0612961,21.5903571 13.9255242,21.3943894 C14.1021371,21.3056797 14.2231048,21.245023 14.2868721,21.2098272 C14.3852016,21.1558525 14.512909,21.0807949 14.66625,20.988341 C14.6840495,21.0297581 14.6974136,21.062477 14.7096832,21.0852304 C14.7222984,21.1078687 14.7417684,21.134712 14.766826,21.1718664 C14.6608929,21.216394 14.5636578,21.2645507 14.4707431,21.3151267 C14.4303629,21.3374194 14.3903859,21.3593088 14.353174,21.3822926 C14.4058237,21.4871889 14.45928,21.5891475 14.5131394,21.6878802 L14.5731048,21.7969816 C14.6712039,21.7378226 14.8010426,21.6589055 14.9627362,21.559424 C14.9808237,21.6057949 14.997068,21.6396083 15.0083007,21.6602304 C15.0184389,21.6787212 15.0388882,21.7074654 15.0673445,21.7510138 C14.9250634,21.8155876 14.7885426,21.8824078 14.6577247,21.951129 L14.7803629,22.1757258 C14.8370449,22.2786636 14.8886002,22.3680069 14.9395795,22.444447 C15.065674,22.3753226 15.1917684,22.2983065 15.3233353,22.2045276 C15.340962,22.2457719 15.356515,22.2775691 15.3709159,22.3042396 C15.3811694,22.322788 15.4026555,22.3537212 15.4311118,22.3970392 C15.2179205,22.5059101 15.0625058,22.5858065 14.9673445,22.637765 C14.8962615,22.6769931 14.804326,22.7295276 14.6958583,22.8003226 C14.6104896,22.5925461 14.5110081,22.4063134 14.4127938,22.2273387" id="Fill-44" fill="#FEFEFE" mask="url(#mask-4)"></path>
                    <path d="M15.6583641,21.1172293 L15.4593433,20.8619297 C15.4188479,20.8102016 15.3640668,20.7399251 15.3010484,20.6490265 C15.3243203,20.6312846 15.3387212,20.6227592 15.3435599,20.6188998 C15.494424,20.5013306 15.6124539,20.5103744 15.7337673,20.6655012 C15.8679839,20.8379666 15.8439055,20.9727592 15.6649885,21.1121601 C15.6632028,21.1135426 15.6600346,21.1160772 15.6583641,21.1172293 M15.9148733,22.0243145 C15.9713825,21.9715495 16.0174654,21.9294412 16.0555991,21.9001786 C16.0914286,21.8719528 16.1436175,21.8372753 16.2085369,21.7954551 C16.1079608,21.6865265 16.0135484,21.5724712 15.9210945,21.4542684 L15.7322696,21.2117569 C16.10197,21.3578399 16.3582488,21.4764459 16.5039862,21.5650403 C16.5620507,21.5106048 16.6132028,21.4649251 16.6591129,21.429038 C16.6983986,21.3985081 16.7620507,21.3546141 16.8452304,21.2990265 C16.6084793,21.2155588 16.3238594,21.1042684 15.9903917,20.9508122 C16.1363018,20.8131394 16.1425806,20.6178053 16.003871,20.4402707 C15.8233986,20.20928 15.6285253,20.2061694 15.3807143,20.3993721 C15.2611866,20.4929205 15.1614171,20.5913652 15.0596889,20.6709159 C15.0220161,20.7003514 14.9778917,20.7286348 14.9292166,20.7608353 C15.1334217,20.9821486 15.3010484,21.193727 15.4441359,21.3769067 C15.4599194,21.3972408 15.4773157,21.4195334 15.4946544,21.441826 C15.6172926,21.5989113 15.7613018,21.7871025 15.9148733,22.0243145" id="Fill-45" fill="#FEFEFE" mask="url(#mask-4)"></path>
                    <path d="M16.8473387,20.6129724 L16.8707258,20.5864171 C17.0456682,20.6932143 17.1857604,20.6833065 17.3024078,20.55053 C17.4082834,20.4299078 17.4043664,20.2993779 17.2968203,20.204735 C17.193076,20.1131452 17.0908295,20.1512212 16.9066129,20.2219585 C16.6418088,20.3242627 16.4726843,20.3637788 16.2788479,20.1935023 C16.0532719,19.9949424 16.0343779,19.7181567 16.2611636,19.4602074 C16.3533295,19.3555991 16.4573041,19.2833641 16.5811521,19.2455184 C16.6353571,19.3402765 16.6933065,19.4272581 16.7572465,19.511129 L16.7404839,19.5297926 C16.5734908,19.4604954 16.4543664,19.4749539 16.3598387,19.5826152 C16.2620853,19.6937903 16.2743548,19.8184447 16.3608756,19.8941935 C16.4647926,19.9853226 16.5691129,19.9274885 16.7801728,19.8473041 C17.0260253,19.7559447 17.1865668,19.7086521 17.3908871,19.8882604 C17.6378341,20.1054263 17.6463594,20.4043318 17.3965899,20.688606 C17.3029839,20.7946544 17.1982604,20.8715553 17.0939401,20.9156221 C17.0063249,20.8054263 16.92303,20.7047926 16.8473387,20.6129724" id="Fill-46" fill="#FEFEFE" mask="url(#mask-4)"></path>
                    <path d="M5.97039747,3.2909447 C5.87339286,3.22228111 5.63992512,3.11035714 5.36665323,2.95419355 C5.14954493,2.82890553 4.9850288,2.72395161 4.99067396,2.57331797 C4.99631912,2.41162442 5.14315092,2.26997696 5.39522465,2.2785023 C5.65184908,2.28714286 5.91596198,2.45730415 6.11100806,2.69578341 L6.10098502,1.99975806 C5.92540899,1.94607143 5.74925691,1.91813364 5.56383065,1.91179724 C4.80720622,1.8862212 4.3396947,2.20177419 4.32166475,2.69802995 C4.31031682,3.01767281 4.51544355,3.22349078 4.91020161,3.44278802 C5.26538594,3.64267281 5.56688364,3.73138249 5.57644585,3.98034562 L5.57627304,3.98034562 C5.56947581,4.16243088 5.4005818,4.31882488 5.13739055,4.30995392 C4.8694182,4.30114055 4.5959159,4.11605991 4.3928053,3.84831797 L4.40144585,4.63132488 C4.58422235,4.69140553 4.81711406,4.72412442 5.01106567,4.73086406 C5.80115783,4.75736175 6.2803053,4.40402074 6.300697,3.84526498 C6.29942972,3.62464286 6.19459101,3.44964286 5.97039747,3.2909447" id="Fill-47" fill="#E0393D" mask="url(#mask-4)"></path>
                    <path d="M4.84222926,19.7061636 C4.74245968,19.7917051 4.66187212,19.8702765 4.59966014,19.9308756 C4.57448733,19.9553571 4.55092742,19.9781106 4.53076613,19.9979839 C4.28520161,20.2369816 4.05305876,20.4629608 3.84701037,20.6985599 C3.78796659,20.6281682 3.74510945,20.5770737 3.71745968,20.5486175 C3.68122696,20.5112327 3.63278226,20.4682604 3.57126152,20.4153226 C3.79574309,20.2288594 3.98992512,20.0482143 4.16457949,19.8779378 C4.25732143,19.7878456 4.39925691,19.6407834 4.58998272,19.4467742 C4.50133065,19.355818 4.40611175,19.2714862 4.30714862,19.1962558 C4.34205645,19.168318 4.37512097,19.1419355 4.40017857,19.1173387 C4.41550115,19.1025922 4.43595046,19.0767281 4.46861175,19.0393433 C4.62005184,19.2084677 4.74557028,19.3476959 4.84580069,19.4503456 C4.94148041,19.5488479 5.075697,19.6765553 5.24499424,19.8369816 C5.20668779,19.8682604 5.18174539,19.8898041 5.16676843,19.9044931 C5.1413076,19.9292627 5.11273618,19.9597926 5.0834735,19.9942972 C5.01135369,19.8930876 4.93105415,19.796947 4.84222926,19.7061636" id="Fill-48" fill="#FEFEFE" mask="url(#mask-4)"></path>
                    <path d="M4.91324885,20.7953456 C4.93387097,20.7696544 4.95362903,20.7461521 4.97131336,20.7245507 C5.11906682,20.5451728 5.28726959,20.3372235 5.46342166,20.0902189 C5.5235023,20.1517972 5.5687788,20.1982834 5.60080645,20.2244355 C5.64279954,20.2587097 5.6968894,20.2943088 5.76394009,20.3373387 C5.67569124,20.4284101 5.59308756,20.5219009 5.51428571,20.6182143 L5.35172811,20.8156221 C5.45328341,20.9049654 5.52073733,20.966947 5.5577765,20.9973041 C5.62379032,21.0517396 5.70368664,21.111129 5.79349078,21.1789862 L5.95610599,20.9815783 C6.03502304,20.8852074 6.10915899,20.7854378 6.18185484,20.6808295 C6.24487327,20.745 6.29199309,20.7927535 6.32425115,20.8191935 C6.3577765,20.8470737 6.41031106,20.8811751 6.48237327,20.9281221 C6.27684332,21.1451728 6.10518433,21.3502419 5.9547235,21.5337097 C5.93680876,21.5551382 5.91751152,21.5786982 5.89665899,21.6042742 C5.77603687,21.7510484 5.62851382,21.9334217 5.46417051,22.1660253 C5.40760369,22.1103226 5.36232719,22.066947 5.32379032,22.0351498 C5.28346774,22.0020276 5.23087558,21.9649309 5.16365207,21.9188479 C5.24631336,21.8346313 5.32402074,21.7497811 5.3984447,21.6594009 L5.66382488,21.3367051 C5.57690092,21.2588825 5.50126728,21.1937327 5.43853687,21.142235 C5.39521889,21.1064631 5.32309908,21.0501267 5.2218894,20.973341 L4.95656682,21.2958065 C4.88214286,21.3865899 4.81232719,21.4780645 4.74585253,21.5752419 C4.6875,21.5182143 4.64089862,21.4733986 4.60063364,21.4402765 C4.56221198,21.4087673 4.50910138,21.3713825 4.44544931,21.3279493 C4.64176267,21.1217857 4.79233871,20.9418894 4.91324885,20.7953456" id="Fill-49" fill="#FEFEFE" mask="url(#mask-4)"></path>
                    <path d="M6.36833525,21.9945046 C6.39391129,21.9471544 6.41983295,21.8998618 6.44546659,21.8522811 C6.46107719,21.8232488 6.47674539,21.794447 6.49224078,21.7654724 C6.60381912,21.5590207 6.71263249,21.3536636 6.8034159,21.1333295 C6.9738076,21.2334447 7.09045507,21.3019931 7.15474078,21.3367281 C7.25353111,21.3900115 7.38590438,21.4564286 7.54638825,21.5351728 C7.52156106,21.572212 7.50111175,21.6012442 7.48878456,21.6242281 C7.47651498,21.6466359 7.46459101,21.6775691 7.4472523,21.718871 C7.3518606,21.6543548 7.25894585,21.5984793 7.16574309,21.5480184 C7.1253629,21.526129 7.08504032,21.5044124 7.0456394,21.4858641 C6.9863076,21.5869585 6.92951037,21.6872465 6.87599654,21.7862673 L6.81706797,21.8957143 C6.91977535,21.9460599 7.05675691,22.0120161 7.22772465,22.0938134 C7.1988076,22.1342512 7.17899194,22.1662788 7.16804724,22.1870737 C7.15779378,22.2054493 7.14489055,22.238341 7.12415323,22.2856912 C6.99224078,22.2012442 6.86199885,22.1228456 6.7331394,22.0503226 L6.61165323,22.2754954 C6.55560484,22.3786636 6.50848502,22.4705415 6.47236751,22.5551037 C6.59863479,22.623076 6.73192972,22.6872465 6.88146889,22.7469816 C6.85681452,22.784424 6.83832373,22.8139747 6.82375,22.8410484 C6.81366935,22.8595392 6.79967166,22.894447 6.77858871,22.9417396 C6.57133065,22.821924 6.41994816,22.7347696 6.32472926,22.6833295 C6.2534735,22.6447926 6.15888825,22.5963479 6.04114631,22.5431221 C6.16919931,22.3589631 6.27133065,22.1741129 6.36833525,21.9945046" id="Fill-50" fill="#FEFEFE" mask="url(#mask-4)"></path>
                </g>
            </g>
        </g>
    </g>
</svg>