<?xml version="1.0" encoding="UTF-8" standalone="no"?>
<svg width="13px" height="25px" viewBox="0 0 13 25" version="1.1" xmlns="http://www.w3.org/2000/svg" xmlns:xlink="http://www.w3.org/1999/xlink">
    <!-- Generator: Sketch 42 (36781) - http://www.bohemiancoding.com/sketch -->
    <title>tottenham_crest</title>
    <desc>Created with Sketch.</desc>
    <defs>
        <polygon id="path-1" points="0.00226125293 20.9010608 10.8004224 20.9010608 10.8004224 0.00816418294 0.00226125293 0.00816418294"></polygon>
    </defs>
    <g id="Page-1" stroke="none" stroke-width="1" fill="none" fill-rule="evenodd">
        <g id="fixtures" transform="translate(-130.000000, -608.000000)">
            <g id="row_4" transform="translate(17.000000, 608.000000)">
                <g id="tottenham_crest" transform="translate(113.000000, 0.000000)">
                    <path d="M3.56523313,15.7893068 C3.52254704,15.781533 3.43796956,15.7821746 3.35342993,15.8738377 C3.21954397,16.0185591 3.15665011,16.2147159 3.16633773,16.4563081 C3.16902453,16.5179326 3.17769042,16.552462 3.1951357,16.6021238 C3.22635558,16.6899378 3.3013968,16.7479773 3.35615457,16.7579021 C3.42131896,16.7697893 3.49480866,16.7318259 3.56345454,16.6508046 C3.71342346,16.4733652 3.77813375,16.1479969 3.70453053,15.9404057 C3.67399182,15.8538371 3.62460765,15.8001751 3.56523313,15.7893068 Z M6.7344099,18.1797941 C6.80952681,18.3416103 6.94046108,18.4351226 7.03790493,18.468633 C7.16460086,18.5124457 7.49976986,18.5826365 7.77817546,18.6130902 C8.0835626,18.6467893 8.32230949,18.477388 8.4583903,18.1350003 C8.35617833,18.1291511 8.24677632,18.1172262 8.13359008,18.1015276 C8.11236056,18.1704353 8.08530334,18.2391544 8.05041277,18.3001374 C8.02418807,18.3461765 7.96557039,18.3620638 7.91936498,18.3360252 C7.87323525,18.3098358 7.85711444,18.2512302 7.88341482,18.2050402 C7.90653645,18.1645484 7.92557111,18.1186602 7.94138918,18.071338 C7.88167407,18.0611868 7.82158054,18.0498657 7.76209249,18.0384691 C7.74169551,18.1180187 7.71830898,18.1936058 7.69378719,18.2501359 C7.67259552,18.2987034 7.61571858,18.3207795 7.56705342,18.2996845 C7.51827473,18.2785518 7.49621269,18.2220218 7.51732868,18.1734543 C7.53723371,18.128019 7.55623053,18.0663945 7.57371366,17.9995623 C7.54249379,17.9927696 7.51161449,17.9859015 7.48100009,17.9790333 C7.44872064,17.9717878 7.41557081,17.9639763 7.38261019,17.9560515 C7.36527843,18.0116381 7.34491928,18.0694512 7.32001907,18.128019 C7.29950856,18.1767751 7.24278299,18.199606 7.19389077,18.1790016 C7.14507424,18.1584727 7.12195261,18.1021314 7.14265234,18.0534129 C7.1633899,18.0051096 7.18053245,17.9569949 7.19521525,17.9106539 C7.03309896,17.8696715 6.86655512,17.8240853 6.69762722,17.7749517 C6.65702246,17.9516363 6.69236714,18.0897537 6.7344099,18.1797941 Z M8.51700798,17.9452587 C8.55643963,17.7504227 8.51379139,17.6148337 8.46629934,17.5319255 C8.40681129,17.4272053 8.30823217,17.3522597 8.19667315,17.3262212 L8.07466966,17.3006355 C7.96364043,17.2782575 7.79615054,17.2442942 7.54521843,17.1818017 C7.20910337,17.0981388 6.92070741,17.2515774 6.76146713,17.5938519 C6.9251728,17.641325 7.08645656,17.6852131 7.24361552,17.7249125 C7.268932,17.6029842 7.2743056,17.5184157 7.2743056,17.5169062 C7.27756004,17.4641121 7.32312213,17.423809 7.37610132,17.4269035 C7.42911834,17.4299979 7.46957173,17.4751691 7.46639298,17.5281895 C7.46609024,17.5350577 7.45988411,17.6320417 7.43066987,17.7704233 C7.46181406,17.7777065 7.49295825,17.7850275 7.52353481,17.7918579 C7.55505742,17.7991034 7.58612593,17.8059338 7.61651327,17.8123113 C7.64391108,17.6774393 7.66162126,17.5628321 7.66207537,17.5605301 C7.67002224,17.5081889 7.71910367,17.4722633 7.77147738,17.4801881 C7.82415382,17.4880374 7.86017966,17.5369445 7.85238415,17.5893235 C7.85098399,17.5985313 7.83312244,17.7133272 7.80492994,17.8509163 C7.86941318,17.8634827 7.93056629,17.8744264 7.98854065,17.8843135 C8.00988369,17.7679704 8.01510592,17.675477 8.01510592,17.6737411 C8.01764136,17.6208338 8.06286287,17.5800402 8.11591774,17.5826817 C8.16908613,17.5852101 8.21003147,17.6301549 8.20730683,17.6829489 C8.20696625,17.6908359 8.20174401,17.787971 8.17892512,17.9129936 C8.3122056,17.9311074 8.42414305,17.9409944 8.51700798,17.9452587 Z M9.07892788,16.7307692 C9.06473703,16.38057 8.9938963,16.0462203 8.87541214,15.7358713 C8.7297194,15.3553315 8.24280288,15.0854743 7.6014142,14.940602 C6.4156266,14.6732732 4.85803867,15.1148714 3.86691172,15.9464059 C3.90498105,16.0980709 3.89374189,16.2789443 3.84261698,16.4439681 C4.5567385,16.8268853 5.59539535,17.2413507 6.57532099,17.5387559 C6.8059318,17.0106267 7.24743759,16.9099445 7.59184011,16.9957961 C7.83853388,17.0571564 7.99713085,17.0893084 8.11289036,17.1125543 L8.24026745,17.1393853 C8.40393527,17.1775752 8.5475467,17.2860313 8.63367571,17.4371302 C8.69475314,17.5438881 8.7507597,17.7127234 8.71250116,17.9452587 C8.83291527,17.9382396 8.89119237,17.9180881 8.90466422,17.9022008 C9.03321442,17.5366426 9.09580554,17.141159 9.07892788,16.7307692 Z M7.757173,18.8041526 C7.48947676,18.7744913 7.1313375,18.7039231 6.97497323,18.6499592 C6.80044467,18.5897687 6.64517783,18.4443681 6.55988134,18.2606267 C6.52453666,18.1847377 6.4925221,18.0837535 6.48745123,17.9612969 C6.48453738,17.8880495 6.49157604,17.8073678 6.51303261,17.7200066 C5.53159328,17.4215071 4.49195253,17.0069285 3.76821907,16.6215206 C3.74271338,16.6680126 3.71361268,16.7112592 3.68095479,16.7497887 C3.62653761,16.814017 3.56542234,16.8605845 3.5024528,16.887189 C3.57041752,17.4876977 3.77953391,18.0761306 4.11250807,18.5888253 C4.55420307,19.2689213 5.15578167,19.7349731 5.80560917,19.8816568 C6.03599293,19.933432 6.33710389,19.9980377 6.60654087,19.9385264 C7.60538764,19.7179915 8.41967766,19.0289896 8.81762699,18.1226226 C8.77096747,18.130887 8.71859377,18.1356418 8.66236015,18.1375664 C8.43451183,18.8025676 7.95520161,18.8259268 7.757173,18.8041526 Z M3.11808884,15.9973131 C3.15074672,15.9233109 3.19165421,15.8550447 3.24035722,15.797458 C3.27956181,15.7514566 3.321264,15.714814 3.3655773,15.6876811 C3.48322892,15.1408722 3.7289388,14.6539141 4.0880998,14.2857143 C3.55183696,14.6659522 3.14083204,15.2080818 2.92475267,15.8371196 C2.95343711,15.8763283 3.02968929,15.9354622 3.11808884,15.9973131 Z M3.05712494,16.1836584 C2.97924554,16.1282982 2.91252961,16.0764853 2.8650754,16.0312764 C2.78239004,16.3349837 2.74420719,16.6562764 2.75779256,16.987343 C2.76044152,17.0542507 2.76524749,17.1204791 2.77190773,17.1861037 C2.81974036,16.9904752 2.91396762,16.7860917 3.04898885,16.5776325 C3.02287768,16.4556666 3.02704033,16.3169454 3.05712494,16.1836584 Z M3.3102519,16.9051141 C3.24054643,16.8877174 3.18033937,16.8446217 3.13386906,16.7799028 C2.89822523,17.1424798 2.79881358,17.4666405 2.88547239,17.7575549 C3.24800136,18.9783465 4.32813334,19.8799586 5.62169573,20 C4.38542654,19.6255359 3.47047608,18.340931 3.3102519,16.9051141 L3.3102519,16.9051141 Z" id="Fill-1" fill="#07183E"></path>
                    <path d="M4.56017191,0 C3.3216184,0 3.02801601,0.633558891 3.02801601,0.633558891 C3.02801601,0.633558891 4.4571104,0.530512656 4.4571104,1.93863512 C4.4571104,2.57234494 4.11142886,3.00192435 3.74555104,3.45644465 C3.32048378,3.9843538 2.83891233,4.58274642 2.83891233,5.58656994 C2.83891233,7.24821406 3.90897445,8.02779599 4.85301788,8.71546264 C5.67546763,9.3147231 6.45222993,9.88066615 6.45222993,10.9462193 C6.45222993,12.0177341 5.98117265,12.848443 5.76616176,13.0628365 C5.40557885,13.4226116 5.08058525,13.4880013 4.81973563,13.5406752 C4.5517757,13.5945943 4.29860369,13.6464382 4.24542773,14.0305127 C3.25380582,14.6246794 2.65306122,15.6829502 2.65306122,16.8310989 C2.65306122,16.8758113 2.65400674,16.9208257 2.65578432,16.96584 C2.69141145,17.8384315 3.06557201,18.6449541 3.70912967,19.2367058 C4.35268734,19.8285708 5.1888282,20.1348042 6.06331929,20.0992606 C6.93792384,20.063717 7.74619082,19.6904338 8.33944691,19.0485361 C8.93274081,18.4064875 9.23973174,17.5722318 9.20395332,16.6999045 C9.14979403,15.3679253 8.30253387,14.2134377 7.04559948,13.7588797 L7.05040272,13.7606531 C7.04960848,13.7603135 7.03326992,13.7537859 7.03326992,13.7537859 C7.03308082,13.7536349 7.00361846,13.7434095 7.00361846,13.7434095 C6.8446579,13.6886603 6.66432863,13.6264779 6.66432863,13.2185944 C6.66432863,12.8233512 6.84416624,12.790562 7.20210169,12.7249837 C7.41488116,12.6860065 7.6752013,12.6383887 7.93049127,12.4827817 C8.38486961,12.2060548 8.47011756,11.8722393 8.3874036,11.7898325 C8.27484909,11.6773533 8.15072143,11.9135937 7.69335525,12.0510893 C7.52849466,12.1007446 7.36253726,12.1296097 7.2504366,12.1296097 C7.1572463,12.1296097 7.08765614,12.1217991 7.03656033,12.1125548 C7.27675983,11.6635434 7.54585438,11.2960709 7.54884221,11.2921845 L7.60746436,11.2125699 L7.53738253,11.1426524 C7.44445698,11.0499825 7.39097846,10.8571717 7.39097846,10.5986316 C7.39097846,10.2796449 7.47233086,9.86074363 7.66101852,9.4059592 C7.88431215,8.86854158 8.77045203,7.11460486 10.8029763,7.11460486 L10.9183673,7.11460486 L10.9183673,6.99948437 C10.9183673,6.27453845 10.8519541,5.60785081 10.72117,5.01783471 L10.6956788,4.90320474 C10.6956788,4.90320474 10.4983681,4.95912364 10.3339991,4.995686 C10.314408,4.99998745 10.1606667,5.03768177 10.1537077,5.00530767 C10.1475051,4.97670677 10.2662244,4.91720333 10.3072599,4.89667709 C10.4616063,4.82011876 10.6540004,4.73952309 10.6540004,4.73952309 L10.6274502,4.64726823 C10.4824833,4.14248883 10.3365331,3.90123009 10.3302927,3.89115563 L10.2832059,3.81425771 L10.1972772,3.84138705 C8.50472353,4.37333353 8.14277907,5.49386228 7.9265201,6.16322889 C7.82126499,6.48851692 7.75621332,6.6724984 7.63847736,6.6724984 C7.28912721,6.6724984 7.00013896,6.38426325 6.90517108,6.28951807 C5.84989687,5.23664288 5.93071979,4.47754945 6.05325898,3.32845753 C6.09667718,2.9229889 6.14573068,2.46345023 6.14573068,1.93863512 C6.14573068,0.616051218 5.64192064,0 4.56017191,0" id="Fill-2" fill="#FFFFFF"></path>
                    <g id="Group-6" transform="translate(0.000000, 0.102041)">
                        <mask id="mask-2" fill="white">
                            <use xlink:href="#path-1"></use>
                        </mask>
                        <g id="Clip-4"></g>
                        <path d="M3.6010453,15.6110841 C3.55853374,15.6033338 3.47430207,15.6039734 3.39010809,15.6953595 C3.25676954,15.8396436 3.19413283,16.0352078 3.20378084,16.27607 C3.20645666,16.3375083 3.21508711,16.3719333 3.23246107,16.4214451 C3.2635533,16.5089937 3.33828771,16.5668578 3.39282159,16.5767527 C3.45771955,16.5886039 3.53090877,16.5507552 3.59927398,16.4699787 C3.74862974,16.2930755 3.81307545,15.9686904 3.73977316,15.7617264 C3.70935931,15.6754194 3.66017706,15.6219195 3.6010453,15.6110841 Z M8.53257413,17.7605216 C8.57184456,17.5662742 8.52937069,17.4310949 8.48207282,17.3484373 C8.42282799,17.2440335 8.32465192,17.1693143 8.21354903,17.1433545 L8.09204437,17.1178461 C7.9814691,17.0955357 7.81466401,17.061675 7.56475788,16.9993714 C7.23001707,16.9159613 6.94280026,17.0689363 6.78421105,17.4101766 C6.94724739,17.4575062 7.10787172,17.5012617 7.26438811,17.5408411 C7.28960108,17.4192813 7.29495271,17.3349682 7.29495271,17.3334633 C7.29819384,17.2808288 7.34356965,17.2406475 7.39633222,17.2437326 C7.44913248,17.2468176 7.48942047,17.2918523 7.48625471,17.3447126 C7.48595321,17.35156 7.47977245,17.448251 7.45067766,17.5862144 C7.48169452,17.5934756 7.51271137,17.6007745 7.54316291,17.6075842 C7.57455664,17.6148078 7.60549812,17.6216176 7.63576122,17.6279759 C7.663047,17.4935114 7.68068478,17.3792505 7.68113703,17.3769555 C7.68905141,17.3247724 7.73793216,17.2889554 7.79009173,17.2968562 C7.8425528,17.3046818 7.87843134,17.3534411 7.87066771,17.4056618 C7.86927327,17.4148418 7.85148475,17.5292909 7.82340752,17.6664642 C7.88762711,17.6789926 7.94853019,17.6899033 8.00626751,17.6997605 C8.02752329,17.5837689 8.03272417,17.491555 8.03272417,17.4898244 C8.03524924,17.437077 8.08028586,17.3964065 8.1331238,17.3990402 C8.18607481,17.4015609 8.22685273,17.4463698 8.22413923,17.4990044 C8.22380004,17.5068676 8.21859916,17.6037091 8.19587357,17.7283539 C8.32860912,17.746413 8.44008889,17.7562702 8.53257413,17.7605216 Z M6.75726445,17.9943483 C6.83207424,18.1556756 6.96247316,18.2489053 7.05951859,18.2823145 C7.18569651,18.3259947 7.51949513,18.3959734 7.79676243,18.4263352 C8.10090095,18.4599325 8.33867169,18.291043 8.47419612,17.9496898 C8.37240205,17.9438583 8.26344734,17.9319694 8.15072389,17.9163183 C8.12958117,17.9850178 8.10263457,18.0535292 8.06788665,18.1143279 C8.04176918,18.1602279 7.98339117,18.1760672 7.93737467,18.1501074 C7.89143355,18.123997 7.87537865,18.0655686 7.9015715,18.0195181 C7.92459859,17.9791486 7.94355543,17.9333991 7.95930882,17.8862199 C7.89983787,17.8760993 7.83999004,17.8648124 7.78074522,17.8534503 C7.76043163,17.9327595 7.73714072,18.0081183 7.71271919,18.0644775 C7.69161416,18.1128983 7.63496978,18.1349077 7.58650359,18.1138764 C7.53792434,18.0928076 7.5159525,18.0364484 7.53698215,17.9880276 C7.5568058,17.9427296 7.57572495,17.8812913 7.5931366,17.814661 C7.56204437,17.8078889 7.53129133,17.8010415 7.5008021,17.7941941 C7.46865463,17.7869705 7.43564033,17.7791826 7.40281448,17.7712818 C7.38555358,17.8267004 7.36527768,17.8843388 7.34047927,17.9427296 C7.32005262,17.9913385 7.26355898,18.0141004 7.21486667,17.9935582 C7.16624973,17.9730913 7.14322264,17.9169202 7.16383773,17.868349 C7.18449051,17.8201916 7.20156297,17.7722223 7.21618574,17.7260213 C7.05473228,17.6851628 6.88886937,17.6397142 6.72063216,17.5907292 C6.68019342,17.7668799 6.71539359,17.9045799 6.75726445,17.9943483 Z M8.88951291,15.55781 C8.74441584,15.17842 8.25949015,14.9093782 7.62072389,14.7649437 C6.43978454,14.4984226 4.88856503,14.9386865 3.90149044,15.7677085 C3.93940411,15.9189152 3.92821091,16.099242 3.87729503,16.2637673 C4.58849676,16.6455275 5.62290692,17.0587405 6.598826,17.355247 C6.82849392,16.8287137 7.26819455,16.7283356 7.61118894,16.8139278 C7.85687407,16.8751028 8.01482258,16.9071575 8.1301088,16.9303333 L8.25696509,16.9570832 C8.41996373,16.9951576 8.56298798,17.103286 8.64876484,17.2539284 C8.70959255,17.3603637 8.76537012,17.5286889 8.72726801,17.7605216 C8.84718979,17.7535237 8.90522861,17.733433 8.91864538,17.7175938 C9.04666999,17.3531401 9.10900519,16.9588515 9.09219654,16.5497018 C9.07806371,16.2005607 9.00751262,15.8672212 8.88951291,15.55781 Z M7.77584584,18.6168202 C7.50924412,18.5872486 7.15256915,18.5168936 6.9968442,18.4630928 C6.82302923,18.4030842 6.66839721,18.2581229 6.58344948,18.0749367 C6.54824931,17.9992769 6.51636564,17.8985979 6.51131551,17.7765113 C6.50841357,17.7034852 6.51542345,17.6230473 6.53679229,17.5359501 C5.55936571,17.2383525 4.52397568,16.8250266 3.80320131,16.4407833 C3.7777999,16.4871348 3.74881818,16.5302507 3.71629382,16.5686637 C3.66209913,16.632698 3.60123373,16.6791248 3.53852165,16.705649 C3.60620849,17.3043432 3.81446989,17.890998 4.14608263,18.4021436 C4.5859717,19.0801846 5.18509066,19.5448282 5.83226125,19.6910687 C6.06170305,19.7426874 6.36158288,19.8070979 6.62991823,19.7477665 C7.62468108,19.5278979 8.43564175,18.8409778 8.83196402,17.9373495 C8.78549527,17.9455889 8.7333357,17.9503294 8.67733201,17.9522482 C8.45041527,18.6152401 7.97306478,18.6385287 7.77584584,18.6168202 Z M3.15572922,15.8184619 C3.18825357,15.7446832 3.22899381,15.6766233 3.27749769,15.6192107 C3.31654199,15.5733483 3.35807367,15.5368164 3.40220579,15.5097655 C3.51937638,14.9646087 3.76408163,14.479122 4.12177416,14.1120348 C3.5877039,14.4911237 3.17837944,15.0316152 2.96318353,15.6587524 C2.99175069,15.6978426 3.0676911,15.7567978 3.15572922,15.8184619 Z M3.09501458,16.0042441 C3.0174536,15.9490512 2.95101045,15.8973948 2.90375027,15.8523225 C2.82140297,16.1551121 2.78337624,16.475434 2.79690607,16.8055003 C2.79954419,16.8722058 2.80433051,16.9382341 2.81096352,17.0036604 C2.85860058,16.808623 2.95244258,16.604857 3.08691175,16.3970278 C3.06090735,16.2754304 3.06505298,16.1371284 3.09501458,16.0042441 Z M3.34710659,16.7235199 C3.27768613,16.7061757 3.21772524,16.6632102 3.17144493,16.5986869 C2.93676456,16.9601683 2.83775937,17.2833495 2.92406386,17.573385 C3.28511057,18.7904878 4.36082628,19.6893756 5.64909977,19.8090543 C4.41788523,19.4357216 3.50667567,18.1549983 3.34710659,16.7235199 Z M4.86346512,1.82644435 C4.86346512,1.65119659 4.84458366,1.49295441 4.81032568,1.35017527 C4.81032568,1.35017527 5.09373604,1.33538944 5.09373604,0.991026465 C5.09373604,0.707198833 4.90405461,0.513666312 4.85317642,0.513666312 C4.81213468,0.513666312 4.80199673,0.557158457 4.71316718,0.557158457 C4.49672758,0.557158457 4.48086112,0.281043533 4.48086112,0.281043533 C4.51289554,0.279914844 4.54583446,0.279463368 4.5796025,0.279463368 C5.19933656,0.279463368 5.77294105,0.4667881 5.77294105,1.82644435 C5.77294105,2.32931288 5.72522861,2.77668753 5.68316931,3.17142765 C5.64148688,3.56127679 5.60293252,3.92392453 5.61405034,4.27803186 C5.61405034,4.27803186 4.53486738,4.15105436 4.53486738,3.34054287 C4.53486738,2.81427287 4.86346512,2.6862043 4.86346512,1.82644435 Z M6.57998222,10.8079862 C6.57998222,11.8720764 6.12531963,12.7374046 5.8626751,12.9995614 C5.04869942,13.8122174 4.37729574,13.2204458 4.36998436,14.0357354 C4.00060869,14.3696768 3.73491147,14.8773987 3.60451255,15.4572814 C3.61261537,15.4580715 3.62068051,15.4592002 3.62859489,15.4607051 C3.70502524,15.4746256 3.77067695,15.5182306 3.82080139,15.5870806 C4.85464623,14.7459441 6.44641755,14.3036861 7.663047,14.5783714 C8.049872,14.6656567 8.37794212,14.8082101 8.62645381,15.026348 C8.25278177,14.4230638 7.68162696,13.9574796 7.00649221,13.7159026 C6.84620707,13.6585276 6.56140226,13.5928755 6.56140226,13.0737915 C6.56140226,12.1050378 7.6230982,12.8581743 8.3226168,11.8030383 C8.35683709,11.7509305 8.30757946,11.7054443 8.26650004,11.7464157 C8.05492214,11.9574805 7.53524852,12.1027428 7.26039323,12.1027428 C6.98527412,12.1027428 6.88178411,12.0401758 6.88178411,12.0401758 C7.14148901,11.5242145 7.46499893,11.0850417 7.46499893,11.0850417 C6.81560478,10.4367604 7.9085437,6.87266187 10.8004224,6.87266187 C10.8004224,6.04593488 10.7129119,5.4010773 10.606633,4.92153502 C10.5377779,4.93823961 9.99307971,5.06645867 9.96816824,4.95216011 C9.94612103,4.85084147 10.3693899,4.63119861 10.5151276,4.5589249 C10.3730079,4.06478491 10.2314158,3.83317795 10.2314158,3.83317795 C7.75278106,4.61276336 8.25093508,6.66140893 7.64706748,6.66140893 C7.25406172,6.66140893 6.94532532,6.35602334 6.83508924,6.24593856 C5.35464695,4.76818382 6.04463059,3.79021252 6.04463059,1.82644435 C6.04463059,0.503620981 5.52996942,0.00816418294 4.5796025,0.00816418294 C3.62927327,0.00816418294 3.28970845,0.419006937 3.28970845,0.419006937 C3.28970845,0.419006937 4.59185096,0.461107033 4.59185096,1.82644435 C4.59185096,3.25589121 2.97938918,3.65048084 2.97938918,5.4638324 C2.97938918,8.48239796 6.57998222,8.42570015 6.57998222,10.8079862 L6.57998222,10.8079862 Z" id="Fill-3" fill="#07183E" mask="url(#mask-2)"></path>
                        <path d="M1.12308896,19.4292129 C1.36470383,19.588358 1.62067766,19.7314757 1.62067766,19.7314757 L1.53109436,19.9632332 C1.49762782,19.8227867 1.35810851,19.7466378 1.17807509,19.6353867 L0.588641826,20.4862676 C0.516658608,20.5888654 0.376310176,20.8135121 0.365041599,20.9010608 C0.365041599,20.9010608 0.268259973,20.839773 0.179995733,20.7741209 C0.0876989263,20.7053461 0,20.6417257 0,20.6417257 C0.0878496765,20.6203935 0.239579748,20.3969883 0.331085117,20.2731712 L0.904538861,19.456339 C0.689795207,19.2905722 0.605940411,19.2581412 0.454172652,19.2502028 L0.658250729,19.0974159 C0.658250729,19.0974159 0.854414421,19.2524226 1.12308896,19.4292129" id="Fill-5" fill="#07183E" mask="url(#mask-2)"></path>
                    </g>
                    <path d="M10.7433828,22.4489796 L10.7966875,22.4957669 C10.7466648,22.493595 10.7052434,22.514319 10.6513729,22.5384819 L10.8067599,22.7772149 C10.8370904,22.8213778 10.8800963,22.8884366 10.9081633,22.893414 C10.9081633,22.893414 10.8748903,22.9085271 10.8351664,22.9246357 C10.8005354,22.9383009 10.7676019,22.9489796 10.7676019,22.9489796 C10.7680546,22.9192058 10.7561714,22.8955859 10.7148631,22.8277126 L10.552233,22.5773054 C10.4976834,22.5992963 10.438041,22.6210158 10.4219704,22.6564004 L10.4081633,22.5870791 C10.4081633,22.5870791 10.4885164,22.5559479 10.575094,22.5202013 C10.6758183,22.4786628 10.7433828,22.4489796 10.7433828,22.4489796" id="Fill-7" fill="#07183E"></path>
                    <path d="M2.2055439,20.2884498 C1.93575634,20.1665935 1.72363893,20.454955 1.56367708,20.7719799 C1.40371523,21.0889314 1.29913226,21.4284828 1.56891982,21.5503759 C1.83874622,21.6720485 2.05198985,21.3818129 2.2119517,21.0648247 C2.37191355,20.7478365 2.4753703,20.4102694 2.2055439,20.2884498 Z M1.50977394,21.6675653 C1.08786922,21.4770637 1.03179131,21.0371534 1.23952035,20.6253922 C1.44814261,20.2119037 1.84589188,19.9791787 2.26589368,20.1690923 C2.68566246,20.3587855 2.74484718,20.79763 2.53599192,21.2112287 C2.32830171,21.6230267 1.93167866,21.8582139 1.50977394,21.6675653 L1.50977394,21.6675653 Z" id="Fill-8" fill="#07183E"></path>
                    <path d="M3.35472016,20.5549811 C3.64297158,20.6309922 3.87755102,20.6818983 3.87755102,20.6818983 L3.85259826,20.9229054 C3.77534673,20.8186743 3.73987929,20.7932029 3.49384355,20.734637 L3.19554826,21.6716179 C3.17161559,21.7573778 3.05257996,22.0818357 3.0907153,22.1428571 C3.0907153,22.1428571 3.00785332,22.1263649 2.87410498,22.0917311 C2.72372147,22.0528093 2.65306122,22.0264217 2.65306122,22.0264217 C2.73019506,21.9790706 2.82722047,21.7017072 2.85896069,21.5889733 L3.15874687,20.6457986 C2.90384427,20.5663791 2.84460109,20.5608084 2.72277985,20.6137303 L2.87049546,20.4081633 C2.87049546,20.4081633 3.03692563,20.4709072 3.35472016,20.5549811" id="Fill-9" fill="#07183E"></path>
                    <path d="M4.46406398,20.8066478 C4.73474213,20.847924 4.98972014,20.8712786 4.98972014,20.8712786 L5,21.1202185 C4.89884614,21.0293656 4.86075457,21.000012 4.5935155,20.9660553 L4.43871944,21.9565706 C4.42784147,22.047348 4.370349,22.3918947 4.41483277,22.4489796 C4.41483277,22.4489796 4.32108042,22.4384908 4.19162889,22.4202674 C4.06217737,22.4016667 3.98259254,22.3832546 3.98259254,22.3832546 C4.04584174,22.3334138 4.09836249,22.0072037 4.1093526,21.9163508 L4.26792417,20.913498 C4.03634688,20.8668265 3.98876046,20.8847481 3.87755102,20.9498316 L3.97836845,20.7142857 C3.97836845,20.7142857 4.1946194,20.7655602 4.46406398,20.8066478" id="Fill-10" fill="#07183E"></path>
                    <path d="M5.52751068,21.7637289 L5.50620206,22.4180552 C5.86727775,22.4225798 6.11439527,22.4008839 6.2244898,22.2520166 L6.16926691,22.5493062 C6.16926691,22.5493062 5.96929374,22.5531632 5.67643684,22.5493062 C5.35466111,22.5448928 5.10204082,22.52494 5.10204082,22.52494 C5.15558555,22.4745387 5.16889368,22.1556645 5.1695181,22.0660252 L5.19894429,21.4238264 C5.2002712,21.2528181 5.21666244,20.9764085 5.156249,20.9183673 C5.41780643,20.9355386 5.38451659,20.9352419 5.62472637,20.9441057 C5.93924312,20.9560107 6.11740033,20.9470727 6.11740033,20.9470727 L6.15693445,21.1925888 C6.03415623,21.0951983 5.85006695,21.0837755 5.54952178,21.0820695 L5.53297443,21.6312541 L5.99454406,21.6337389 C6.03610757,21.6341839 6.03872236,21.6562136 6.03860528,21.7001988 C6.03809793,21.7435536 6.03747351,21.7666588 5.99360741,21.7662137 L5.52751068,21.7637289" id="Fill-11" fill="#07183E"></path>
                    <path d="M7.44494604,21.9571298 C7.47056315,22.2003158 7.49603001,22.3750809 7.55102041,22.4069804 C7.53723525,22.4321362 7.49366362,22.4651343 7.43581853,22.4713475 C7.3661415,22.4788488 7.31344237,22.4442595 7.2651004,22.3878483 L6.47739303,21.4764407 L6.50706681,22.0562758 C6.51660749,22.1474279 6.5270121,22.4928664 6.58324203,22.5389729 L6.32076055,22.5510204 C6.36643563,22.4941166 6.35426563,22.1649688 6.34461226,22.0736273 L6.30746369,21.4192338 C6.29784789,21.3280438 6.28090754,20.966163 6.2244898,20.9204354 L6.46518546,20.911646 L7.27253763,21.878783 L7.20537722,21.3223231 C7.19576142,21.23083 7.14659309,20.8992575 7.09231637,20.8531511 C7.09231637,20.8531511 7.12127648,20.8503097 7.21927507,20.8368983 C7.31708586,20.8235247 7.35265683,20.8163265 7.35265683,20.8163265 C7.30728224,20.8733819 7.35994381,21.2135922 7.36970986,21.3047822 L7.44494604,21.9571298" id="Fill-12" fill="#07183E"></path>
                    <path d="M9.01262883,21.5951008 C9.0414914,21.7054186 9.0987129,21.988692 9.18367347,22.0441649 C9.18367347,22.0441649 9.05512848,22.0796202 8.97659904,22.1026293 C8.90667026,22.1231269 8.75263323,22.1612045 8.75263323,22.1612045 C8.78893421,22.1000071 8.70796404,21.7599681 8.68557133,21.6750969 L8.6083591,21.3792294 L8.0920871,21.4999622 L8.15078079,21.8008156 C8.16771092,21.8980962 8.22152315,22.2253934 8.291142,22.2653545 C8.291142,22.2653545 8.21892746,22.2796105 8.06845466,22.3090089 C7.94246663,22.3337169 7.85467792,22.3469388 7.85467792,22.3469388 C7.89334214,22.2857044 7.84150574,21.982155 7.82550541,21.8853545 L7.70036969,21.2493003 C7.67755083,21.1307465 7.62009687,20.8308164 7.55102041,20.7956566 C7.55102041,20.7956566 7.61804356,20.7835426 7.76541702,20.7562125 C7.9129067,20.7288454 7.98515999,20.7101944 7.98515999,20.7101944 C7.94882027,20.7814006 8.01286031,21.0692167 8.03029408,21.1700429 L8.07004307,21.3719167 L8.57806309,21.253843 L8.52328231,21.0476111 C8.49341246,20.9383274 8.43034096,20.6761794 8.35975356,20.6275391 C8.35975356,20.6275391 8.42948864,20.6082603 8.57081839,20.569998 C8.71222562,20.5319574 8.77312759,20.5102041 8.77312759,20.5102041 C8.74515608,20.5829245 8.82372426,20.8382768 8.85630604,20.9698679 L9.01262883,21.5951008" id="Fill-13" fill="#07183E"></path>
                    <path d="M9.76703497,21.2045566 L9.31643052,20.5921675 L9.34825166,21.3613352 L9.76703497,21.2045566 Z M9.85906668,21.3117276 L9.35203432,21.5064865 L9.36962173,21.7795774 C9.38093072,21.8727878 9.38128168,21.9584252 9.40210581,22.0066942 C9.41228389,22.0306757 9.42987131,22.0465486 9.44656181,22.0551162 C9.44656181,22.0551162 9.39368257,22.0739724 9.30660341,22.1016258 C9.21940725,22.1292791 9.17155856,22.1428571 9.17155856,22.1428571 C9.20193683,22.0914518 9.20926817,22.0206547 9.2066554,21.93234 L9.16200442,20.6375679 C9.1577538,20.590561 9.15202132,20.5464611 9.13607175,20.5094752 C9.12199402,20.4764672 9.09824516,20.4579551 9.08163265,20.4441094 C9.13934746,20.4073913 9.21160796,20.3671926 9.28507734,20.3369766 C9.40155986,20.2888224 9.45069544,20.290773 9.53566879,20.3879613 L10.2796048,21.2929095 C10.4148057,21.4655994 10.5344469,21.5817969 10.6122449,21.6049752 C10.6122449,21.6049752 10.5362407,21.6393984 10.3932016,21.7018574 C10.2502405,21.7641252 10.155596,21.7995429 10.155596,21.7995429 C10.1640972,21.7702449 10.1650721,21.7391875 10.1464318,21.6925249 C10.1265436,21.6421522 10.0533472,21.5568592 10.0061224,21.4921817 L9.85906668,21.3117276 L9.85906668,21.3117276 Z" id="Fill-14" fill="#07183E"></path>
                    <path d="M11.9528532,20.823173 C11.8525808,20.8896995 11.7775299,20.9407083 11.7775299,20.9407083 C11.7701321,20.8435236 11.5796682,20.6032805 11.5237058,20.5303731 L11.0941751,19.9784142 L11.4396472,21.0665122 C11.4262315,21.0881465 11.4017384,21.1183515 11.3789701,21.1353041 C11.3107803,21.1863506 11.2444687,21.1763074 11.1838683,21.1293008 L10.3659737,20.4613924 L10.6522253,20.9807299 C10.722255,21.1123105 10.8572164,21.3860435 10.9480595,21.4130392 C10.9480595,21.4130392 10.8915988,21.4427534 10.8201125,21.4768851 C10.7492012,21.5107147 10.7057729,21.5306122 10.7057729,21.5306122 C10.7216033,21.4541558 10.5887118,21.2270141 10.5113226,21.0816147 L10.1927585,20.4914087 C10.0961275,20.3138032 9.98953057,20.1330261 9.89795918,20.0969689 C9.96875548,20.0631393 9.99018218,20.0527941 10.0914512,20.0035599 C10.1759698,19.9625566 10.2503691,19.9223461 10.2503691,19.9223461 L11.1712575,20.693971 L10.809035,19.6014556 C10.809035,19.6014556 10.8575614,19.569023 10.949631,19.5084997 C11.0414707,19.4479764 11.1243411,19.3877551 11.1243411,19.3877551 C11.1312789,19.4854683 11.323046,19.7345842 11.3929224,19.8237268 L11.789489,20.3263382 C11.8736626,20.4297904 12.030894,20.6599904 12.1428571,20.6863443 C12.1428571,20.6863443 12.0532023,20.7562689 11.9528532,20.823173" id="Fill-15" fill="#07183E"></path>
                    <path d="M10.84705,22.4513261 L10.9327332,22.5656226 C10.9578785,22.5974683 10.9832419,22.6368783 11.0102041,22.6486029 C11.0102041,22.6486029 10.9878204,22.6651687 10.9660907,22.6804486 C10.9444337,22.6953503 10.9284454,22.7072262 10.9284454,22.7072262 C10.9224134,22.6763639 10.8860762,22.6286332 10.8740849,22.6119917 L10.7830238,22.4866513 L10.8575878,22.7339282 C10.8545355,22.7390719 10.8493029,22.7457285 10.8443611,22.749435 C10.8248843,22.7650931 10.8104221,22.7561672 10.7973407,22.7454259 L10.6177622,22.5961067 L10.687893,22.7144879 C10.7045355,22.7451233 10.7346227,22.8014774 10.7585326,22.8128994 C10.7585326,22.8128994 10.7453058,22.8211445 10.7290994,22.8309781 C10.7150006,22.8396771 10.7012651,22.8469388 10.7012651,22.8469388 C10.7045355,22.8169842 10.6682709,22.7582096 10.6575151,22.737786 L10.5804802,22.6034441 C10.5628204,22.5728843 10.5349861,22.528255 10.5102041,22.5207663 C10.5102041,22.5207663 10.5342593,22.5076801 10.5579512,22.4939887 C10.5728494,22.485441 10.5877477,22.4754562 10.5967593,22.4703881 L10.7954512,22.6425515 L10.7190704,22.3971657 C10.7263378,22.3936861 10.737893,22.3862731 10.7557709,22.374851 C10.7786634,22.3602519 10.7977041,22.3469388 10.7977041,22.3469388 C10.7973407,22.3768177 10.8306256,22.4283306 10.84705,22.4513261" id="Fill-16" fill="#07183E"></path>
                    <path d="M2.66540512,22.7708053 C2.7491306,22.8020513 2.85714286,22.8401813 2.85714286,22.8401813 C2.76619902,22.9072626 2.68266152,23.1740962 2.62841102,23.3189291 L2.41862738,23.9109961 C2.3624971,24.0717005 2.26677862,24.304611 2.29884769,24.3877551 C2.29884769,24.3877551 2.1834291,24.3472157 2.09007914,24.3134838 C2.01018842,24.2844943 1.96481049,24.2690434 1.88018271,24.2322137 C1.98300677,24.2044863 2.07992832,23.8565355 2.11147105,23.7690315 L2.2074903,23.4927515 L1.70472389,23.2794987 L1.55934158,23.5955534 C1.51200867,23.7053158 1.39877062,23.9539067 1.4256891,24.031773 C1.4256891,24.031773 1.33688821,23.9949815 1.20688251,23.9341341 C1.05375549,23.8624252 1.02040816,23.8434176 1.02040816,23.8434176 C1.12830763,23.7894542 1.19218261,23.6123046 1.27429148,23.4333191 L1.53723534,22.8410227 C1.62607383,22.638249 1.70630291,22.4624762 1.70028761,22.3469388 C1.70028761,22.3469388 1.74724455,22.3754311 1.87653594,22.4345193 C1.97951038,22.4816368 2.03218186,22.5051573 2.08992876,22.5287926 C2.00815825,22.5619125 1.89424348,22.8607187 1.83412806,22.9948048 L1.75709461,23.1622021 L2.24824397,23.3680353 L2.32358562,23.1783031 C2.35888792,23.0813909 2.48066018,22.7917635 2.45438083,22.6925948 C2.45438083,22.6925948 2.55517473,22.729807 2.66540512,22.7708053" id="Fill-17" fill="#07183E"></path>
                    <path d="M3.64788286,23.2116483 C3.36696861,23.1391605 3.2218321,23.4552251 3.13194256,23.7903655 C3.04190207,24.1252835 3.00952372,24.4729805 3.29024929,24.5456165 C3.57116354,24.6179191 3.71709253,24.2996691 3.80675565,23.964714 C3.89683387,23.6296477 3.92872164,23.2842473 3.64788286,23.2116483 Z M3.25704072,24.6695162 C2.81755558,24.5560248 2.67781546,24.1383217 2.79434733,23.7031727 C2.91152072,23.2657271 3.24432335,22.9725534 3.68165748,23.0855633 C4.11880292,23.1983879 4.26152427,23.6143872 4.14453956,24.0518327 C4.02781901,24.4871669 3.69660133,24.7829705 3.25704072,24.6695162 L3.25704072,24.6695162 Z" id="Fill-18" fill="#07183E"></path>
                    <g id="Group-22" transform="translate(4.183673, 23.265306)" fill="#07183E">
                        <path d="M0.240788348,1.57993704 C0.240788348,1.57993704 0.268838051,1.55037343 0.287916392,1.49017586 C0.314868334,1.40554494 0.332243252,1.24277898 0.352949309,1.11588797 L0.476390718,0.185316978 C0.213420013,0.153169779 0.14664582,0.171623969 0.0311537196,0.238280504 L0.139491442,0 C0.221369322,0.0177160226 0.402802831,0.0368345636 0.623528637,0.0639991316 C0.771234365,0.0820104212 1.21117182,0.120727312 1.21117182,0.120727312 L1.22608624,0.359044724 C1.12910467,0.249611376 1.02841343,0.239683022 0.809239631,0.222889709 L0.686290323,1.15656101 C0.675274852,1.24351715 0.62640553,1.54513244 0.67485846,1.63441381 C0.621976629,1.62854538 0.534382818,1.61887538 0.460908492,1.61171515 C0.384822251,1.60411203 0.284585253,1.58720799 0.240788348,1.57993704" id="Fill-19"></path>
                        <path d="M2.33626399,1.25673035 C2.33933015,1.53686496 2.10562047,1.73971342 1.7461603,1.73458315 C1.46660961,1.73056014 1.32041804,1.61839557 1.26447005,1.57277681 L1.32265142,1.30692575 C1.4094503,1.47633521 1.55329493,1.59946157 1.71523371,1.60197134 C1.88436471,1.60425966 2.01753456,1.50719062 2.02026004,1.3437234 C2.02200132,1.22487842 1.95496215,1.15312853 1.67272383,1.00996092 C1.40229592,0.873768997 1.30160467,0.737909249 1.30160467,0.535319149 C1.30160467,0.259502822 1.54769256,0.119435519 1.83678242,0.119324794 C2.0494075,0.119140252 2.19771889,0.182659574 2.29091508,0.231231003 L2.23084101,0.474826314 C2.10183509,0.306893183 1.98505596,0.244628745 1.84427749,0.242783326 C1.70554312,0.240568823 1.60727452,0.314348676 1.60822087,0.453345636 C1.60916722,0.604780721 1.7800395,0.686754234 2.01056945,0.812242727 C2.27558427,0.956812853 2.33471198,1.10175206 2.33626399,1.25673035" id="Fill-21"></path>
                    </g>
                    <path d="M7.83495757,23.5989705 C7.84507646,23.6325563 7.85124559,23.6733417 7.85440539,23.7054196 C7.85715141,23.7349344 7.85858085,23.7740612 7.85504488,23.8110395 C7.84748392,23.9037679 7.80358525,24.0115363 7.73094743,24.0873022 C7.62001583,24.2034388 7.4754549,24.261149 7.28379789,24.2700826 C7.2098811,24.2746436 7.19220126,24.2519893 7.18723586,24.1985385 L7.18678446,24.1869286 C7.18678446,24.1869286 7.18520456,24.1662721 7.20134211,24.1651789 L7.21988714,24.1633319 C7.27653787,24.1563207 7.36061116,24.138529 7.42798265,24.0563927 C7.49260811,23.9718818 7.51472672,23.8595523 7.50347933,23.7386661 C7.49147961,23.6131059 7.45382531,23.5226392 7.36963917,23.457654 C7.29647471,23.4013385 7.2105582,23.3830943 7.12208376,23.3900678 C7.12208376,23.3900678 7.08657361,23.3930834 7.04718894,23.399303 C7.04718894,23.399303 7.02409229,23.4013385 7.02612359,23.4240305 L7.12106811,24.4097783 C7.12930616,24.4965132 7.15292944,24.8019891 7.22398736,24.8650142 C7.22398736,24.8650142 7.14311149,24.8735709 6.99080153,24.8860854 C6.87467882,24.8956221 6.78413545,24.8979592 6.78413545,24.8979592 C6.8146802,24.8223064 6.80960195,24.7105046 6.80200338,24.5802703 L6.72838753,23.8029352 C6.72003662,23.7139763 6.70502756,23.4090658 6.63265306,23.3337523 C6.63265306,23.3337523 6.82735703,23.304916 7.18757441,23.2708025 C7.37595877,23.2529354 7.53026241,23.2769844 7.66335025,23.367225 C7.75043287,23.4259529 7.81028102,23.511557 7.83495757,23.5989705" id="Fill-23" fill="#07183E"></path>
                    <path d="M9.26707402,23.9641114 C9.34275173,24.3014944 9.18571125,24.5887389 8.83759377,24.6764719 C8.59295172,24.7381492 8.24066274,24.6476246 8.14231863,24.2148781 L8.02256326,23.704002 C7.99103703,23.5609567 7.93950236,23.3077333 7.85714286,23.2417754 C7.85714286,23.2417754 7.94910051,23.2286359 8.09310966,23.2015381 C8.23708189,23.174403 8.30401052,23.1582858 8.30401052,23.1582858 C8.26613475,23.2183998 8.30585632,23.4550964 8.3435106,23.6289618 L8.49637958,24.2784166 C8.52366047,24.3974907 8.56220073,24.4789331 8.62839104,24.5269871 C8.67745235,24.5627205 8.74297817,24.5724728 8.81119886,24.5599288 C8.8732915,24.5482783 8.93793134,24.5129171 8.97178328,24.4494903 C9.0077025,24.3829368 9.00751792,24.2866427 8.97986787,24.1677174 L8.8082825,23.5182255 C8.76128849,23.339484 8.70724352,23.1157035 8.64917472,23.0782578 C8.64917472,23.0782578 8.71909355,23.0591628 8.85162183,23.0209355 C8.95192249,22.9921254 9.01161559,22.9745565 9.0548811,22.9591837 C9.01527027,23.0569667 9.10959054,23.3567551 9.12959899,23.4425525 L9.26707402,23.9641114" id="Fill-24" fill="#07183E"></path>
                    <path d="M10.9152688,23.8148307 C10.9505469,23.8277792 10.9885653,23.8367207 11.0204082,23.823698 C11.01678,23.8448088 10.996169,23.8869564 10.9615857,23.9209786 C10.8144138,24.0659721 10.6762737,24.0410397 10.6294551,24.0232309 C10.3756385,23.9301798 9.95122146,23.5686238 9.93369824,23.5291476 C9.93369824,23.5291476 9.92933673,23.5187962 9.94033699,23.5144182 L9.95577595,23.5078883 C10.0220477,23.4813977 10.097274,23.4093462 10.1269168,23.3411904 C10.1743917,23.2412384 10.166402,23.1514894 10.1181938,23.0415942 C10.068326,22.9273209 9.98098006,22.8553436 9.91258546,22.8359765 C9.81142166,22.8072598 9.73588654,22.8300403 9.68991703,22.8476636 C9.68991703,22.8476636 9.62920331,22.8706666 9.61113973,22.8881044 C9.61113973,22.8881044 9.59894295,22.897788 9.61310819,22.9375981 L9.93369824,23.8179101 C9.98240816,23.947395 10.0670523,24.1999834 10.1437067,24.2425762 C10.1437067,24.2425762 10.0570941,24.275337 9.92570857,24.3209349 C9.79432301,24.36657 9.71446498,24.3877551 9.71446498,24.3877551 C9.74121298,24.2894356 9.64004918,24.022155 9.6145363,23.9471724 L9.40719104,23.352729 C9.35535473,23.2094051 9.26071389,22.9526243 9.18367347,22.9115156 C9.18367347,22.9115156 9.33505249,22.8707779 9.67532721,22.7333903 C9.85627184,22.6603742 10.0316584,22.6291346 10.189792,22.6736195 C10.2858224,22.7007408 10.3506274,22.7470809 10.4036988,22.8209875 C10.4240397,22.8495558 10.4388997,22.8776788 10.4517912,22.9068037 C10.463602,22.9338508 10.4717461,22.964942 10.4771497,22.9937701 C10.4938624,23.0835933 10.4798515,23.1790931 10.4258151,23.269176 C10.4258151,23.269176 10.3770666,23.3598896 10.273008,23.4310507 C10.273008,23.4310507 10.6072229,23.7032288 10.9152688,23.8148307" id="Fill-25" fill="#07183E"></path>
                </g>
            </g>
        </g>
    </g>
</svg>