<?xml version="1.0" encoding="UTF-8" standalone="no"?>
<svg width="25px" height="25px" viewBox="0 0 25 25" version="1.1" xmlns="http://www.w3.org/2000/svg" xmlns:xlink="http://www.w3.org/1999/xlink">
    <!-- Generator: Sketch 42 (36781) - http://www.bohemiancoding.com/sketch -->
    <title>Page 1</title>
    <desc>Created with Sketch.</desc>
    <defs>
        <polygon id="path-1" points="0 12.3794865 0 0.0017089097 24.7572599 0.0017089097 24.7572599 24.757264 0 24.757264 0 12.3794865"></polygon>
    </defs>
    <g id="Page-1" stroke="none" stroke-width="1" fill="none" fill-rule="evenodd">
        <g>
            <g id="Group-3">
                <mask id="mask-2" fill="white">
                    <use xlink:href="#path-1"></use>
                </mask>
                <g id="Clip-2"></g>
                <path d="M0,12.3656531 C0.247966483,4.66359704 5.56212134,1.57366922 9.03067772,0.480054644 C10.6175495,-0.0203491709 11.9751321,-0.0880044677 11.9692271,0.0932275969 C11.9646343,0.250096744 10.7744039,0.118861242 9.09108374,0.728460005 C6.1560774,1.79004347 1.99886617,4.43131678 1.74630691,11.189485 C1.74630691,17.4059289 6.78025833,22.4448901 12.9893058,22.4448901 C19.198572,22.4448901 24.2325234,17.4059289 24.2325234,11.189485 C24.2488825,9.86179362 24.009358,8.80967489 23.7089463,7.90241911 C23.1822635,6.30480763 22.3925675,5.58338483 22.6886488,5.57650537 C22.8892878,5.57238646 23.6121917,6.80827872 24.0387955,7.97910095 C24.534466,9.34088289 24.7640614,10.577783 24.7571066,12.3656531 C24.7571066,19.209924 19.2149748,24.757264 12.3786845,24.757264 C5.54186936,24.757264 0,19.209924 0,12.3656531" id="Fill-1" fill="#55B847" mask="url(#mask-2)"></path>
            </g>
            <path d="M11.0683227,8.55418013 C11.0683227,6.35500103 14.6708002,6.56400109 14.6708002,6.56400109 L14.6708002,14.406007 C14.6708002,14.9542167 15.0180049,15.2826704 15.640972,15.2826704 C16.6369678,15.2826704 16.5692397,14.406007 16.5692397,14.406007 C16.5692397,14.9542167 16.564608,8.70716993 16.564608,6.33812362 C16.564608,4.36945673 20.1456311,4.36945673 20.1456311,4.36945673 L20.1456311,14.8063426 L20.1300318,15.4548112 C19.8253429,17.4253145 18.1194259,18.9320388 16.1034454,18.9320388 C14.7782038,18.9320388 13.6027505,18.2822585 12.8662188,17.2774404 C12.1284635,18.2822585 10.9525295,18.9320388 9.62803077,18.9320388 C7.61178816,18.9320388 5.94017215,17.4253145 5.63543955,15.4548112 L5.58558296,14.8063426 C5.58558296,14.8063426 5.58252427,9.05092693 5.58252427,6.33812362 C5.58252427,4.36945673 9.1678732,4.36893204 9.1678732,4.36893204 L9.1668682,14.407581 C9.1668682,14.9618684 9.56056488,15.2826704 10.0940872,15.2826704 C10.6232401,15.2826704 11.0729107,14.945778 11.0729107,14.407581 C11.0729107,14.407581 11.0683227,10.4018631 11.0683227,8.55418013" id="Fill-4" fill="#55B847"></path>
        </g>
    </g>
</svg>