<?xml version="1.0" encoding="UTF-8" standalone="no"?>
<svg width="35px" height="35px" viewBox="0 0 35 35" version="1.1" xmlns="http://www.w3.org/2000/svg" xmlns:xlink="http://www.w3.org/1999/xlink">
    <!-- Generator: Sketch 42 (36781) - http://www.bohemiancoding.com/sketch -->
    <title>barcelona</title>
    <desc>Created with Sketch.</desc>
    <defs></defs>
    <g id="Page-1" stroke="none" stroke-width="1" fill="none" fill-rule="evenodd">
        <g id="48" transform="translate(-7.000000, -7.000000)">
            <g id="barcelona" transform="translate(7.000000, 7.000000)">
                <path d="M22.1151445,0.481705202 C20.519104,1.58956647 18.9805202,2.10566474 17.2732081,2.10566474 C15.565896,2.10566474 14.0271098,1.58956647 12.4310694,0.481705202 L12.0151156,0.19300578 L11.5932948,0.472601156 C9.78947977,1.66705202 8.32372832,1.88554913 6.08736994,1.88554913 C5.31615607,1.88554913 4.48728324,1.73988439 3.6899711,1.46473988 L3.15890173,1.28124277 L2.83580925,1.74089595 C2.66384393,1.98528902 2.53618497,2.14046243 2.41277457,2.29057803 C2.26063584,2.47549133 2.11699422,2.65028902 1.94846821,2.92138728 L1.67817919,3.35575145 L1.98569364,3.76442197 C3.35251445,5.58078035 3.86820809,7.44953757 3.86820809,9.20843931 C3.86820809,12.4887283 2.07471098,15.387052 0.66216763,16.8530058 L0.153352601,17.3810405 L0.672485549,17.8991618 C0.950867052,18.1769364 1.44693642,18.6918208 1.85702312,19.1227457 C1.85580925,19.1395376 1.84063584,19.3489306 1.84063584,19.3489306 L1.83699422,19.39 C1.82,19.7086416 1.81150289,20.0224277 1.81150289,20.3313584 C1.81150289,23.6624277 2.79615607,26.4320809 4.74462428,28.5741618 C7.00080925,31.0543064 10.5281214,32.5348266 14.6969653,32.7654624 C15.7321965,33.708237 16.7842197,34.4907803 16.8313584,34.5257803 L17.277052,34.8563584 L17.7221387,34.5247688 C17.7688728,34.4897688 18.8152312,33.7076301 19.8492486,32.7654624 C24.0180925,32.5348266 27.5456069,31.0543064 29.8015896,28.5741618 C31.7498555,26.4320809 32.734711,23.6624277 32.734711,20.3315607 C32.734711,20.0226301 32.7262139,19.7088439 32.7090173,19.39 L32.7086127,19.3827168 L32.7049711,19.3418497 C32.7049711,19.3418497 32.6902023,19.1395376 32.6891908,19.122948 C33.0689306,18.7237861 33.5809827,18.1913006 33.8737283,17.8989595 L34.392659,17.3810405 L33.8838439,16.8530058 C32.4715029,15.387052 30.6780058,12.4883237 30.6780058,9.20823699 C30.6780058,7.44933526 31.1936994,5.58057803 32.5603179,3.76442197 L32.8676301,3.35595376 L32.5977457,2.92179191 C32.4290173,2.65028902 32.2853757,2.47549133 32.133237,2.29057803 C32.0100289,2.14046243 31.8823699,1.98528902 31.7106069,1.74089595 L31.3875145,1.28124277 L30.8564451,1.46473988 C30.0589306,1.73988439 29.2300578,1.88554913 28.4590462,1.88554913 C26.2224855,1.88554913 24.7567341,1.66705202 22.9529191,0.472601156 L22.530896,0.19300578 L22.1151445,0.481705202" id="Fill-2" fill="#1A1918"></path>
                <path d="M17.2760405,33.9263295 C17.2760405,33.9263295 16.084422,33.0424277 15.0077168,32.0367341 C7.96482659,31.7447977 2.13702312,27.7952601 2.58231214,19.4296532 C2.60861272,19.2091329 2.58635838,19.2239017 2.62459538,18.8473988 C2.22078035,18.4201156 1.55254335,17.722948 1.19971098,17.3709249 C3.72598266,14.7493642 6.67387283,8.75303468 2.58210983,3.31569364 C2.85118497,2.88315029 3.04601156,2.73971098 3.44638728,2.17020231 C4.26413295,2.45242775 5.17372832,2.63187861 6.08736994,2.63187861 C8.43358382,2.63187861 10.0356936,2.39901734 12.0054046,1.09471098 C13.5626012,2.17566474 15.2513006,2.85199422 17.2732081,2.85199422 C19.2953179,2.85199422 20.983815,2.17566474 22.5408092,1.09471098 C24.5103179,2.39901734 26.1124277,2.63187861 28.4590462,2.63187861 C29.3724855,2.63187861 30.2820809,2.45242775 31.1000289,2.17020231 C31.5004046,2.73971098 31.6950289,2.88315029 31.9639017,3.31569364 C27.8725434,8.75303468 30.8204335,14.7493642 33.3465029,17.3709249 C32.9936705,17.722948 32.3254335,18.4201156 31.9216185,18.8473988 C31.9596532,19.2239017 31.9376012,19.2091329 31.9636994,19.4296532 C32.4091908,27.7952601 26.581185,31.7447977 19.5384971,32.0367341 C18.4617919,33.0424277 17.2760405,33.9263295 17.2760405,33.9263295" id="Fill-3" fill="#D6AE22"></path>
                <path d="M3.9183815,18.9307514 L3.81904624,18.9307514 L3.77656069,19.2904624 L3.74601156,19.5223121 C3.5817341,22.7447399 4.38511561,25.3480925 6.13349711,27.2658092 C8.13901734,29.4655491 11.387948,30.7188728 15.5294798,30.8904335 C15.533526,30.8906358 15.5988728,30.8910405 15.5988728,30.8910405 C16.841474,30.8977168 18.015289,30.9041908 19.0136994,30.8906358 C23.1582659,30.7188728 26.4071965,29.4655491 28.4127168,27.2658092 C30.1610983,25.3480925 30.9644798,22.7449422 30.8006069,19.5281792 C30.8,19.5225145 30.7694509,19.2894509 30.7694509,19.2894509 L30.7273699,18.935 L30.6276301,18.9307514 L3.9183815,18.9307514" id="Fill-4" fill="#1A1918"></path>
                <path d="M4.01771676,19.1543064 C4.00820809,19.2346243 3.99748555,19.3250578 3.99748555,19.3250578 C3.99748555,19.3250578 3.96936416,19.539711 3.96895954,19.539711 C3.95520231,19.8083815 3.9483237,20.0726012 3.9483237,20.3323699 C3.9483237,23.1234682 4.73734104,25.4025145 6.29878613,27.1150867 C6.67205202,27.5243642 7.08982659,27.9002601 7.54947977,28.2415607 L7.54947977,19.1543064 L4.01771676,19.1543064" id="Fill-5" fill="#054A89"></path>
                <path d="M30.5774566,19.545578 L30.548526,19.3240462 C30.548526,19.3240462 30.5378035,19.2340173 30.5282948,19.1543064 L26.9965318,19.1543064 L26.9965318,28.2415607 C27.4563873,27.9002601 27.8741618,27.5243642 28.2472254,27.1150867 C29.8088728,25.4021098 30.5980925,23.122659 30.5980925,20.3352023 C30.5980925,20.0764451 30.5912139,19.8130347 30.5774566,19.545578" id="Fill-6" fill="#054A89"></path>
                <path d="M11.4389306,19.1543064 L7.54947977,19.1543064 L7.54947977,28.2415607 C8.62578035,29.0415029 9.93271676,29.6522832 11.4389306,30.0637861 L11.4389306,19.1543064" id="Fill-7" fill="#8E2242"></path>
                <path d="M23.1072832,19.1543064 L23.1072832,30.0635838 C24.6139017,29.6520809 25.9206358,29.0413006 26.9965318,28.2415607 L26.9965318,19.1543064 L23.1072832,19.1543064" id="Fill-8" fill="#8E2242"></path>
                <path d="M13.5447977,24.751474 C13.5447977,23.405289 14.2587572,22.2258092 15.3283815,21.5705202 L15.3283815,19.1543064 L11.4389306,19.1543064 L11.4389306,30.0637861 C12.6180058,30.3858671 13.9194798,30.5853468 15.3283815,30.6565607 L15.3283815,27.9328324 C14.2587572,27.277341 13.5447977,26.0978613 13.5447977,24.751474" id="Fill-9" fill="#054A89"></path>
                <path d="M19.2178324,19.1543064 L19.2178324,21.5705202 C20.2874566,22.2258092 21.0012139,23.405289 21.0012139,24.751474 C21.0012139,26.0978613 20.2874566,27.277341 19.2178324,27.9328324 L19.2178324,30.6565607 C20.6269364,30.5849422 21.9282081,30.3856647 23.1072832,30.0635838 L23.1072832,19.1543064 L19.2178324,19.1543064" id="Fill-10" fill="#054A89"></path>
                <path d="M19.2178324,21.5705202 L19.2178324,19.1543064 L15.3283815,19.1543064 L15.3283815,21.5705202 C15.8946532,21.2235549 16.5602601,21.0232659 17.2730058,21.0232659 C17.9855491,21.0232659 18.6515607,21.2235549 19.2178324,21.5705202" id="Fill-11" fill="#8E2242"></path>
                <path d="M15.3283815,27.9328324 L15.3283815,30.6565607 C15.3969653,30.66 15.4653468,30.6640462 15.5347399,30.6668786 L15.6000867,30.6672832 C16.8416763,30.6739595 18.0142775,30.6804335 19.0074277,30.6668786 C19.0780347,30.6640462 19.1476301,30.66 19.2178324,30.6565607 L19.2178324,27.9328324 C18.6515607,28.2795954 17.9855491,28.4798844 17.2730058,28.4798844 C16.5602601,28.4798844 15.8946532,28.2795954 15.3283815,27.9328324" id="Fill-12" fill="#8E2242"></path>
                <path d="M15.3704624,25.4280058 C14.6957514,24.8135838 14.6937283,23.5651156 14.875,22.7358382 C14.9251734,22.505 14.9889017,22.278815 15.0540462,22.0206647 C14.2609827,22.6656358 13.7543931,23.6494798 13.7543931,24.751474 C13.7543931,25.2182081 13.8450289,25.6632948 14.0099133,26.0707514 C14.0697977,26.0786416 14.1306936,26.0828902 14.1926012,26.0828902 C14.7137572,26.0828902 15.1392197,25.8421387 15.3704624,25.4280058" id="Fill-13" fill="#D6AE22"></path>
                <path d="M18.9928613,25.6972832 C18.8775434,26.2870231 18.2469364,26.7290751 17.6525434,27.0833237 C17.0401445,27.4486994 16.052659,27.6374566 15.3093642,27.6718497 C15.8701734,28.0497688 16.545896,28.2704913 17.2730058,28.2704913 C18.5999711,28.2704913 19.7553757,27.5356936 20.3546243,26.4510983 C20.2496243,25.5829769 19.4243931,25.4810116 18.9928613,25.6972832" id="Fill-14" fill="#D6AE22"></path>
                <path d="M15.0364451,27.4681214 C15.7704335,27.4737861 16.8987283,27.2890751 17.5453179,26.9034682 C18.3810694,26.4047688 19.0304913,25.8726879 18.7219653,25.1348555 C18.5659827,24.7619942 18.0478613,24.3306647 17.375578,24.8065029 C17.3326879,25.3571965 16.6529191,25.842948 16.1647399,25.7804335 C15.9175145,25.7486705 15.7103468,25.670578 15.5375723,25.5576879 C15.263237,26.0262428 14.7722254,26.2922832 14.1926012,26.2922832 C14.1642775,26.2922832 14.1357514,26.291474 14.1076301,26.2900578 C14.3299711,26.7468786 14.6482081,27.1480636 15.0364451,27.4681214" id="Fill-15" fill="#D6AE22"></path>
                <path d="M17.2639017,22.558815 C17.8459538,22.3174566 18.6525723,22.6310405 19.2671965,22.9743642 C19.8474277,23.2984682 20.4533526,23.9035838 20.7855491,24.5388439 C20.6760983,22.7042775 19.1613873,21.2486416 17.3033526,21.2328613 C16.7482081,21.5974277 16.8240751,22.2848844 17.2639017,22.558815" id="Fill-16" fill="#D6AE22"></path>
                <path d="M17.165578,24.8038728 C16.4451445,24.2784682 16.4892486,23.4514162 16.7993931,22.9602023 C16.8752601,22.8398266 16.9638728,22.7451445 17.0623988,22.6725145 C16.6434104,22.3380925 16.5594509,21.6894798 16.965289,21.2460116 C16.3589595,21.298815 15.7963295,21.5049711 15.317052,21.8262428 C15.1632948,22.4869942 14.9678613,23.0904913 14.9775723,23.7807803 C14.9907225,24.7110116 15.3757225,25.4680636 16.1914451,25.572659 C16.5721965,25.6214162 17.121474,25.2163873 17.165578,24.8038728" id="Fill-17" fill="#D6AE22"></path>
                <path d="M20.777052,25.0751734 C20.5763584,24.3472543 19.8545087,23.5424566 19.1650289,23.1572543 C18.3151156,22.6824277 17.385289,22.4242775 16.9764162,23.0722832 C16.713815,23.4880347 16.6773988,24.1748844 17.2728035,24.6226012 C18.082052,24.063815 18.728237,24.6072254 18.9151734,25.0541329 C18.9750578,25.1973699 19.0054046,25.3333237 19.0106647,25.4630058 C19.4881214,25.2950867 20.2645954,25.4031214 20.5037283,26.1486416 C20.6481792,25.814422 20.742659,25.4534971 20.777052,25.0751734" id="Fill-18" fill="#D6AE22"></path>
                <path d="M14.0653468,14.8741908 L11.6058382,14.8741908 L11.6058382,18.3325145 L12.3552023,18.3325145 L12.3552023,16.9056069 L13.3758671,16.9056069 L13.3758671,16.1752601 L12.3552023,16.1752601 L12.3552023,15.6089884 L14.1015607,15.6089884 L14.1015607,14.8741908 L14.0653468,14.8741908" id="Fill-19" fill="#1A1918"></path>
                <path d="M15.495896,16.6033526 C15.495896,17.6861272 16.0910983,18.3857225 17.0120231,18.3857225 C17.6124855,18.3857225 18.0450289,18.1217052 18.2973121,17.6011561 L18.3118786,17.5712139 L17.6816763,17.1971387 L17.6630636,17.2282948 C17.4834104,17.5291329 17.312052,17.6410116 17.0314451,17.6410116 C16.5728035,17.6410116 16.2644798,17.2240462 16.2644798,16.6033526 C16.2644798,15.963237 16.5566185,15.5654913 17.0265896,15.5654913 C17.2995087,15.5654913 17.4917052,15.6795954 17.6134971,15.9138728 L17.6294798,15.944422 L18.3232081,15.6241618 L18.3072254,15.5909827 C18.0634393,15.0872254 17.6240173,14.8209827 17.0360983,14.8209827 C16.1293353,14.8209827 15.495896,15.5537572 15.495896,16.6033526" id="Fill-20" fill="#1A1918"></path>
                <path d="M22.492052,16.4593064 C22.7014451,16.3108092 22.8244509,16.0777457 22.8244509,15.8050289 C22.8244509,15.2221676 22.4093064,14.8741908 21.7143642,14.8741908 L20.1256069,14.8741908 L20.1256069,18.3325145 L21.6997977,18.3325145 C22.476474,18.3325145 22.9401734,17.910289 22.9401734,17.2030058 C22.9401734,16.8720231 22.7748844,16.6065896 22.492052,16.4593064 Z M20.8604046,15.5703468 L21.6852312,15.5703468 C22.0218786,15.5703468 22.0649711,15.7243064 22.0649711,15.858237 C22.0649711,16.0490173 21.9518786,16.141474 21.7190173,16.141474 L20.8604046,16.141474 L20.8604046,15.5703468 Z M21.7238728,17.6169364 L20.8604046,17.6169364 L20.8604046,16.8135549 L21.7238728,16.8135549 C22.0293642,16.8135549 22.1715896,16.9404046 22.1715896,17.2129191 C22.1715896,17.4771387 22.0168208,17.6169364 21.7238728,17.6169364 L21.7238728,17.6169364 Z" id="Fill-21" fill="#1A1918"></path>
                <path d="M22.5021676,2.51049133 C20.8266185,3.52407514 19.1160694,4.01751445 17.2728035,4.01893064 C15.4299422,4.01751445 13.7193931,3.52407514 12.0438439,2.51049133 L11.9878035,2.4767052 L11.9309538,2.50887283 C10.0221387,3.58760116 8.34274566,3.79861272 6.08696532,3.79861272 C5.54476879,3.79861272 4.98557803,3.74398844 4.42456647,3.63676301 L4.18260116,3.59043353 L4.30702312,3.80286127 C6.62450867,7.76878613 5.8017052,11.6032081 4.70355491,14.1213873 L4.63517341,14.2781792 L29.9108382,14.2781792 L29.8424566,14.1213873 C28.7443064,11.6032081 27.9215029,7.76878613 30.2389884,3.80286127 L30.3632081,3.59043353 L30.1214451,3.63676301 C29.5604335,3.74398844 29.0010405,3.79861272 28.4590462,3.79861272 C26.2032659,3.79861272 24.5238728,3.58760116 22.6150578,2.50887283 L22.5582081,2.4767052 L22.5021676,2.51049133" id="Fill-22" fill="#1A1918"></path>
                <path d="M9.52080925,3.70312139 C8.46210983,3.95439306 7.36517341,4.02216763 6.08696532,4.02216763 C5.60364162,4.02216763 5.10656069,3.97219653 4.60745665,3.88884393 C5.19962428,4.94774566 5.57632948,5.99552023 5.7899711,7.01092486 L9.52080925,7.01092486 L9.52080925,3.70312139" id="Fill-23" fill="#FFFFFF"></path>
                <path d="M17.1611272,7.01092486 L17.1611272,4.24066474 C15.8226301,4.22528902 14.5525145,3.95358382 13.3147688,3.41765896 L13.3147688,7.01092486 L17.1611272,7.01092486" id="Fill-24" fill="#FFFFFF"></path>
                <path d="M5.89598266,10.8050867 C5.71976879,12.0193642 5.36815029,13.1201445 4.97323699,14.0542197 L9.52080925,14.0542197 L9.52080925,10.8050867 L5.89598266,10.8050867" id="Fill-25" fill="#FFFFFF"></path>
                <path d="M13.3147688,14.0542197 L17.1611272,14.0542197 L17.1611272,10.8050867 L13.3147688,10.8050867 L13.3147688,14.0542197" id="Fill-26" fill="#FFFFFF"></path>
                <path d="M13.3147688,7.01092486 L13.3147688,3.41765896 C12.8672543,3.22404624 12.4241908,2.99684971 11.9835549,2.73323699 C11.1413295,3.20280347 10.3426012,3.50809249 9.52080925,3.70312139 L9.52080925,7.01092486 L5.7899711,7.01092486 C5.94615607,7.75381503 6.01554913,8.47950867 6.01554913,9.17910405 C6.01554913,9.73950867 5.9716474,10.2825145 5.89598266,10.8050867 L9.52080925,10.8050867 L9.52080925,14.0542197 L13.3147688,14.0542197 L13.3147688,10.8050867 L17.1611272,10.8050867 L17.1611272,7.01092486 L13.3147688,7.01092486" id="Fill-27" fill="#D0383F"></path>
                <path d="M22.5624566,2.73323699 C22.5606358,2.73445087 22.558815,2.73526012 22.5569942,2.73647399 L22.5569942,14.0542197 L23.8906358,14.0542197 L23.8906358,3.35413295 C23.4536416,3.18843931 23.0142197,2.98531792 22.5624566,2.73323699" id="Fill-28" fill="#FFDD31"></path>
                <path d="M19.8895087,3.89086705 L19.8895087,14.0542197 L21.2231503,14.0542197 L21.2231503,3.42109827 C20.7833237,3.61106936 20.3392486,3.76745665 19.8895087,3.89086705" id="Fill-29" fill="#FFDD31"></path>
                <path d="M17.3848844,4.24066474 L17.3848844,14.0542197 L18.5558671,14.0542197 L18.5558671,4.1583237 C18.1708671,4.20768786 17.7810116,4.23601156 17.3848844,4.24066474" id="Fill-30" fill="#FFDD31"></path>
                <path d="M25.2244798,3.7466185 L25.2244798,14.0542197 L26.5581214,14.0542197 L26.5581214,3.94710983 C26.0994798,3.90442197 25.6580347,3.83968208 25.2244798,3.7466185" id="Fill-31" fill="#FFDD31"></path>
                <path d="M28.5304624,9.17910405 C28.5304624,7.5233815 28.913237,5.72219653 29.9385549,3.88884393 C29.4394509,3.97219653 28.9423699,4.02216763 28.4590462,4.02216763 C28.2654335,4.02216763 28.0776879,4.0199422 27.891763,4.01650289 L27.891763,14.0542197 L29.5727746,14.0542197 C29.0079191,12.7181503 28.5304624,11.0421965 28.5304624,9.17910405" id="Fill-32" fill="#FFDD31"></path>
                <path d="M26.5581214,3.94710983 L26.5581214,14.0542197 L27.891763,14.0542197 L27.891763,4.01650289 C27.427052,4.00760116 26.9847977,3.98656069 26.5581214,3.94710983" id="Fill-33" fill="#D0383F"></path>
                <path d="M18.5558671,4.1583237 L18.5558671,14.0542197 L19.8895087,14.0542197 L19.8895087,3.89086705 C19.450896,4.01124277 19.0068208,4.10046243 18.5558671,4.1583237" id="Fill-34" fill="#D0383F"></path>
                <path d="M21.2231503,3.42109827 L21.2231503,14.0542197 L22.5569942,14.0542197 L22.5569942,2.73647399 C22.1155491,3.00008671 21.671474,3.22748555 21.2231503,3.42109827" id="Fill-35" fill="#D0383F"></path>
                <path d="M23.8906358,3.35413295 L23.8906358,14.0542197 L25.2244798,14.0542197 L25.2244798,3.7466185 C24.7751445,3.64991329 24.3336994,3.52205202 23.8906358,3.35413295" id="Fill-36" fill="#D0383F"></path>
            </g>
        </g>
    </g>
</svg>