<?xml version="1.0" encoding="UTF-8" standalone="no"?>
<svg width="25px" height="25px" viewBox="0 0 25 25" version="1.1" xmlns="http://www.w3.org/2000/svg" xmlns:xlink="http://www.w3.org/1999/xlink">
    <!-- Generator: Sketch 42 (36781) - http://www.bohemiancoding.com/sketch -->
    <title>thumb</title>
    <desc>Created with Sketch.</desc>
    <defs>
        <polygon id="path-1" points="21 21 21 0 0 0 0 21 21 21"></polygon>
    </defs>
    <g id="Page-1" stroke="none" stroke-width="1" fill="none" fill-rule="evenodd">
        <g id="chat_stream" transform="translate(-10.000000, -1497.000000)">
            <g id="video_image" transform="translate(10.000000, 1497.000000)">
                <g id="channel">
                    <g id="thumb">
                        <circle id="Oval-3" fill="#000000" cx="12.5" cy="12.5" r="12.5"></circle>
                        <g id="Page-1" transform="translate(2.000000, 2.000000)">
                            <mask id="mask-2" fill="white">
                                <use xlink:href="#path-1"></use>
                            </mask>
                            <g id="Clip-2"></g>
                            <path d="M10.5015645,15.9529838 C7.53374855,15.9529838 5.12790178,13.5471268 5.12790178,10.5792982 C5.12790178,7.61146966 7.53374855,5.20561265 10.5015645,5.20561265 C13.4692911,5.20561265 15.8752272,7.61146966 15.8752272,10.5792982 C15.8752272,13.5471268 13.4692911,15.9529838 10.5015645,15.9529838 M10.4999553,0 C4.70101618,0 0,4.70103619 0,10.5 C0,16.2989638 4.70101618,21 10.4999553,21 C16.2990732,21 21,16.2989638 21,10.5 C21,4.70103619 16.2990732,0 10.4999553,0" id="Fill-1" fill="#FFFFFF" mask="url(#mask-2)"></path>
                        </g>
                    </g>
                </g>
            </g>
        </g>
    </g>
</svg>