<?xml version="1.0" encoding="UTF-8" standalone="no"?>
<svg width="35px" height="35px" viewBox="0 0 35 35" version="1.1" xmlns="http://www.w3.org/2000/svg" xmlns:xlink="http://www.w3.org/1999/xlink">
    <!-- Generator: Sketch 42 (36781) - http://www.bohemiancoding.com/sketch -->
    <title>city</title>
    <desc>Created with Sketch.</desc>
    <defs>
        <polygon id="path-1" points="0.000124113475 34.8756383 34.7518972 34.8756383 34.7518972 0.123865248 0.000124113475 0.123865248"></polygon>
        <polygon id="path-3" points="0 34.8758865 34.7521454 34.8758865 34.7521454 0.123741135 0 0.123741135"></polygon>
    </defs>
    <g id="Page-1" stroke="none" stroke-width="1" fill="none" fill-rule="evenodd">
        <g id="group_info" transform="translate(-186.000000, -454.000000)">
            <g id="channels" transform="translate(0.000000, 409.000000)">
                <g transform="translate(16.000000, 45.000000)" id="city">
                    <g transform="translate(163.000000, 0.000000)">
                        <g transform="translate(7.000000, 0.000000)">
                            <path d="M33.8108564,17.5001241 C33.8108564,21.858617 32.0791011,26.0392553 28.9971152,29.1212411 C25.9151294,32.203227 21.7349876,33.9349823 17.3759982,33.9349823 C13.0175053,33.9349823 8.83686702,32.203227 5.75488121,29.1212411 C2.67289539,26.0392553 0.941140071,21.858617 0.941140071,17.5001241 C0.941140071,13.1411348 2.67289539,8.96099291 5.75488121,5.87900709 C8.83686702,2.79702128 13.0175053,1.06526596 17.3759982,1.06526596 C21.7349876,1.06526596 25.9151294,2.79702128 28.9971152,5.87900709 C32.0791011,8.96099291 33.8108564,13.1411348 33.8108564,17.5001241" id="Fill-1" fill="#FFFFFF"></path>
                            <path d="M17.3760106,1.34205142 C13.0602128,1.34205142 9.00257092,3.0227961 5.95062057,6.07474645 C2.89867021,9.12669681 1.21792553,13.1843387 1.21792553,17.5001365 C1.21792553,21.8159344 2.89867021,25.8735762 5.95062057,28.9255266 C9.00257092,31.9773528 13.0602128,33.6582216 17.3760106,33.6582216 C21.6918085,33.6582216 25.7494504,31.9773528 28.8014007,28.9255266 C31.8533511,25.8735762 33.5340957,21.8159344 33.5340957,17.5001365 C33.5340957,13.1843387 31.8533511,9.12669681 28.8014007,6.07474645 C25.7494504,3.0227961 21.6918085,1.34205142 17.3760106,1.34205142 M17.3760106,34.2116436 C12.9122695,34.2116436 8.71574468,32.4734344 5.55929078,29.3169805 C2.40271277,26.1604025 0.664379433,21.9638777 0.664379433,17.5001365 C0.664379433,13.0363954 2.40271277,8.83987057 5.55929078,5.68341667 C8.71574468,2.52683865 12.9122695,0.788505319 17.3760106,0.788505319 C21.8397518,0.788505319 26.0362766,2.52683865 29.1928546,5.68341667 C32.3493085,8.83987057 34.0875177,13.0363954 34.0875177,17.5001365 C34.0875177,21.9638777 32.3493085,26.1604025 29.1928546,29.3169805 C26.0362766,32.4734344 21.8397518,34.2116436 17.3760106,34.2116436" id="Fill-3" fill="#FF0000"></path>
                            <path d="M17.3760106,1.34205142 C21.6612766,1.34205142 25.7711702,3.04426773 28.8012766,6.07487057 C31.8318794,9.10497695 33.5339716,13.2148706 33.5339716,17.5001365 C33.5339716,21.7854025 31.8318794,25.8952961 28.8012766,28.9254025 C25.7711702,31.9560053 21.6612766,33.6580975 17.3760106,33.6580975 C13.0907447,33.6580975 8.98085106,31.9560053 5.95074468,28.9254025 C2.92014184,25.8952961 1.21804965,21.7854025 1.21804965,17.5001365 C1.21804965,13.2148706 2.92014184,9.10497695 5.95074468,6.07487057 C8.98085106,3.04426773 13.0907447,1.34205142 17.3760106,1.34205142 M17.3760106,0.788505319 C12.9437943,0.788505319 8.69340426,2.54930319 5.55904255,5.68316844 C2.4251773,8.81703369 0.664379433,13.0679202 0.664379433,17.5001365 C0.664379433,21.9323528 2.4251773,26.1832394 5.55904255,29.3171046 C8.69340426,32.4509699 12.9437943,34.2117677 17.3760106,34.2117677 C21.808227,34.2117677 26.0591135,32.4509699 29.1929787,29.3171046 C32.326844,26.1832394 34.0876418,21.9323528 34.0876418,17.5001365 C34.0876418,13.0679202 32.326844,8.81703369 29.1929787,5.68316844 C26.0591135,2.54930319 21.808227,0.788505319 17.3760106,0.788505319" id="Fill-5" fill="#002E60"></path>
                            <g id="Group-9" transform="translate(0.000000, 0.000372)">
                                <mask id="mask-2" fill="white">
                                    <use xlink:href="#path-1"></use>
                                </mask>
                                <g id="Clip-8"></g>
                                <path d="M17.3760106,2.00618262 C13.2371986,2.00618262 9.34648936,3.6177961 6.42051418,6.54426773 C3.49404255,9.47024291 1.88242908,13.3609521 1.88242908,17.4997642 C1.88242908,21.6385762 3.49404255,25.5291613 6.42051418,28.4552606 C9.34661348,31.3817323 13.2373227,32.9933457 17.3760106,32.9933457 C21.5146986,32.9933457 25.4052837,31.3817323 28.3315071,28.4552606 C31.2579787,25.5290372 32.8695922,21.6384521 32.8695922,17.4997642 C32.8695922,13.3610762 31.2579787,9.47036702 28.3315071,6.54426773 C25.4054078,3.6177961 21.5148227,2.00618262 17.3760106,2.00618262 M17.3760106,34.8758989 C12.7351596,34.8758989 8.37170213,33.0684344 5.08927305,29.7865018 C1.80746454,26.5046933 0,22.1411117 0,17.4997642 C0,12.8584167 1.80746454,8.49483511 5.08927305,5.2130266 C8.37157801,1.93121809 12.7351596,0.123753546 17.3760106,0.123753546 C22.0173582,0.123753546 26.3809397,1.93121809 29.6627482,5.2130266 C32.9445567,8.49495922 34.7521454,12.8584167 34.7521454,17.4997642 C34.7521454,22.1409876 32.9445567,26.5046933 29.6627482,29.7865018 C26.3809397,33.0683103 22.0173582,34.8758989 17.3760106,34.8758989" id="Fill-7" fill="#002E60" mask="url(#mask-2)"></path>
                            </g>
                            <g id="Group-78" transform="translate(0.000000, 0.000372)">
                                <path d="M17.3760106,1.34167908 C21.6612766,1.34167908 25.7711702,3.04389539 28.8012766,6.07449823 C31.8318794,9.10460461 33.5339716,13.2144982 33.5339716,17.4997642 C33.5339716,21.7850301 31.8318794,25.8949238 28.8012766,28.9250301 C25.7711702,31.955633 21.6612766,33.6577252 17.3760106,33.6577252 C13.0907447,33.6577252 8.98085106,31.955633 5.95074468,28.9250301 C2.92014184,25.8949238 1.21804965,21.7850301 1.21804965,17.4997642 C1.21804965,13.2144982 2.92014184,9.10460461 5.95074468,6.07449823 C8.98085106,3.04389539 13.0907447,1.34167908 17.3760106,1.34167908 Z M17.3760106,0.788132979 C12.9437943,0.788132979 8.69340426,2.54893085 5.55904255,5.6827961 C2.4251773,8.81666135 0.664379433,13.0675479 0.664379433,17.4997642 C0.664379433,21.9319805 2.4251773,26.182867 5.55904255,29.3167323 C8.69340426,32.4505975 12.9437943,34.2113954 17.3760106,34.2113954 C21.808227,34.2113954 26.0591135,32.4505975 29.1929787,29.3167323 C32.326844,26.182867 34.0876418,21.9319805 34.0876418,17.4997642 C34.0876418,13.0675479 32.326844,8.81666135 29.1929787,5.6827961 C26.0591135,2.54893085 21.808227,0.788132979 17.3760106,0.788132979 Z" id="Fill-10" fill="#7BB1DD"></path>
                                <path d="M17.4220691,7.52619149 C14.7404734,7.52619149 12.2196046,8.57035816 10.3236472,10.4661915 C8.42768972,12.3621489 7.38364716,14.8830177 7.38364716,17.5647376 C7.38364716,20.245961 8.42768972,22.7668298 10.3236472,24.6626631 C12.2198528,26.5589929 14.7408457,27.6032837 17.4220691,27.6032837 C20.1030443,27.6032837 22.623789,26.5589929 24.5199947,24.6626631 C26.4163245,22.7664574 27.4606152,20.2455887 27.4606152,17.5647376 C27.4606152,14.8833901 26.4163245,12.3625213 24.5199947,10.4661915 C22.6241613,8.57035816 20.1034167,7.52619149 17.4220691,7.52619149 M17.4220691,28.218266 C14.5765195,28.218266 11.9012535,27.1099326 9.88875355,25.0975567 C7.87662589,23.0855532 6.76866489,20.4104113 6.76866489,17.5647376 C6.76866489,14.7188156 7.87662589,12.0434255 9.88875355,10.031422 C11.9007571,8.01929433 14.5761472,6.91120922 17.4220691,6.91120922 C20.2677429,6.91120922 22.9428848,8.01929433 24.9548883,10.031422 C26.9672642,12.0436738 28.0755975,14.7191879 28.0755975,17.5647376 C28.0755975,20.410039 26.9672642,23.0851809 24.9548883,25.0975567 C22.9425124,27.1099326 20.2673706,28.218266 17.4220691,28.218266" id="Fill-12" fill="#002E60"></path>
                                <path d="M27.046672,17.548727 C27.046672,20.1090638 26.0295621,22.5646489 24.2192429,24.3754645 C22.4089238,26.1857837 19.9533387,27.2028936 17.3930018,27.2028936 C14.8326649,27.2028936 12.3770798,26.1857837 10.5667606,24.3754645 C8.75644149,22.5646489 7.73920745,20.1090638 7.73920745,17.548727 C7.73920745,14.9885142 8.75644149,12.5331773 10.5667606,10.7224858 C12.3770798,8.91229078 14.8326649,7.89493262 17.3930018,7.89493262 C19.9533387,7.89493262 22.4089238,8.91229078 24.2192429,10.7224858 C26.0295621,12.5331773 27.046672,14.9885142 27.046672,17.548727" id="Fill-14" fill="#7BB1DD"></path>
                                <path d="M9.41286525,9.5725 C8.72291844,12.5110106 8.71472695,15.1619504 8.74327305,16.968422 C8.69821986,25.2006206 14.7884681,27.756117 17.3726348,28.5351773 C19.9571738,27.756117 26.047422,25.2006206 26.0023688,16.968422 C26.031039,15.1619504 26.0227234,12.5110106 25.3329007,9.5725 C21.3350816,8.87138298 18.904195,8.9387766 17.3726348,8.92140071 C15.8415709,8.9387766 13.4106844,8.87138298 9.41286525,9.5725" id="Fill-16" fill="#002E60"></path>
                                <path d="M10.2390018,10.1470089 C9.80026064,12.093977 9.57573936,13.8510514 9.49096986,15.31075 C9.45696277,16.9020089 9.43909043,18.5158564 9.68967553,19.9393138 C9.82160816,20.6884628 10.0411649,21.468516 10.4391968,22.2737642 C11.2716259,23.8338706 12.4618741,25.2156259 13.543523,25.9506259 C14.9723174,27.0371152 16.4480266,27.6381968 17.372672,27.9311046 C18.2976897,27.6381968 19.7733989,27.0371152 21.2021933,25.9506259 C22.2838422,25.2156259 23.4740904,23.8338706 24.306023,22.2737642 C24.7045514,21.468516 24.9241082,20.6884628 25.0560408,19.9393138 C25.3066259,18.5158564 25.2887535,16.9020089 25.25425,15.31075 C25.169977,13.8510514 24.9454557,12.093977 24.5067145,10.1470089 C20.91425,9.49106915 18.748594,9.55399468 17.372672,9.5376117 C15.9972465,9.55399468 13.8314663,9.49106915 10.2390018,10.1470089" id="Fill-18" fill="#FFBB59"></path>
                                <path d="M14.977133,29.8703777 C14.9461046,29.850023 14.8690301,29.7607855 14.797789,29.7157323 C14.2144557,29.3409096 13.5259982,29.7022039 13.4931082,30.4080372 C13.4742429,30.8395798 13.7907323,31.2064592 14.1442074,31.2753422 C14.5087287,31.3432323 14.7686223,31.1774167 15.0081613,30.9680372 L15.3766543,31.3548989 C15.186016,31.555094 14.9582677,31.7427535 14.5460869,31.8226826 C14.4695089,31.8358387 14.3642606,31.8425408 14.2299699,31.8425408 C13.4615833,31.768445 13.0252004,31.3612287 12.8982323,30.7071507 C12.8245089,30.3566543 12.8855727,29.9969734 13.0717429,29.6923989 C13.2937819,29.3302358 13.6200762,29.1213528 14.0394557,29.0399344 C14.5397571,28.9453599 15.0488706,29.107328 15.3611401,29.436477 L14.977133,29.8703777 Z" id="Fill-20" fill="#002E60"></path>
                                <mask id="mask-4" fill="white">
                                    <use xlink:href="#path-3"></use>
                                </mask>
                                <g id="Clip-23"></g>
                                <polygon id="Fill-22" fill="#002E60" mask="url(#mask-4)" points="15.9550355 31.7903014 16.5712589 31.7903014 16.5712589 29.0578191 15.9550355 29.0578191"></polygon>
                                <polygon id="Fill-24" fill="#002E60" mask="url(#mask-4)" points="19.3996436 29.6250674 18.567711 29.6250674 18.567711 31.790227 17.9504947 31.790227 17.9504947 29.6250674 17.1204238 29.6250674 17.1204238 29.0578688 19.3996436 29.0578688"></polygon>
                                <polygon id="Fill-25" fill="#002E60" mask="url(#mask-4)" points="22.3473387 29.0578191 21.2913812 30.6901596 21.2913812 31.7903014 20.6893067 31.7903014 20.6893067 30.6901596 19.6463812 29.0578191 20.3533316 29.0578191 20.9951223 30.1733511 21.6637216 29.0578191"></polygon>
                                <polygon id="Fill-26" fill="#002E60" mask="url(#mask-4)" points="6.85491135 12.7626011 6.58099291 13.2720869 4.2175 12.0339309 4.51375887 11.4744273 5.86299645 11.3891613 5.17069149 10.2167855 5.46496454 9.66175 7.82659574 10.9110762 7.55987589 11.4225479 5.99592199 10.5944628 6.67407801 11.8220691 5.29778369 11.9592145"></polygon>
                                <path d="M8.50141312,8.45699291 L7.60940957,8.11034397 L8.00396631,8.97380142 L8.50141312,8.45699291 Z M10.0494805,8.44147872 L9.6184344,8.89188652 L9.01536702,8.65334043 L8.23531383,9.48179787 L8.51010106,10.0733227 L8.10102305,10.5008936 L6.92430319,7.82525532 L7.29428546,7.42821631 L10.0494805,8.44147872 Z" id="Fill-27" fill="#002E60" mask="url(#mask-4)"></path>
                                <polygon id="Fill-28" fill="#002E60" mask="url(#mask-4)" points="10.4406862 8.1577305 9.0473883 5.87677305 9.51318617 5.59069149 11.4462535 6.35907801 10.5836649 4.94244681 11.0816082 4.64134752 12.467211 6.93074468 12.0396401 7.18530142 10.0421578 6.4022695 10.9303138 7.85675532"></polygon>
                                <path d="M14.4690372,4.3088227 C14.4341613,4.29814894 14.3377252,4.23559574 14.257672,4.21226241 C13.6065727,4.01988652 13.0582394,4.54823759 13.2202074,5.2206844 C13.3204911,5.63236879 13.7190195,5.89077305 14.0700124,5.85825532 C14.4316791,5.82238652 14.6305089,5.59550709 14.7986826,5.33275887 L15.2515727,5.59550709 C15.1269628,5.83591489 14.9640018,6.0754539 14.5984876,6.26360993 C14.5301011,6.2965 14.432672,6.33199645 14.3066968,6.36873404 C13.5633812,6.50935461 13.0412358,6.24561348 12.7421223,5.66525887 C12.5772996,5.3560922 12.536094,5.00063121 12.6276897,4.66316667 C12.7377784,4.26178369 12.9874947,3.97570213 13.3593387,3.78419504 C13.8039131,3.55830851 14.3275479,3.57084397 14.7109344,3.79536525 L14.4690372,4.3088227 Z" id="Fill-29" fill="#002E60" mask="url(#mask-4)"></path>
                                <polygon id="Fill-30" fill="#002E60" mask="url(#mask-4)" points="26.6011294 7.24821454 25.9538777 6.7459273 24.657016 8.45397695 24.1833989 8.09764716 25.4855975 6.39791312 24.8398351 5.90481028 25.1679911 5.47475709 26.9294096 6.82163652"></polygon>
                                <polygon id="Fill-31" fill="#002E60" mask="url(#mask-4)" points="15.8561046 3.26306738 15.9181613 5.93833333 16.5008741 5.91835106 16.4674876 4.84402482 17.5713528 4.8125 17.5975408 5.89464539 18.1745443 5.88161348 18.1153422 3.20783688 17.5258032 3.22037234 17.553977 4.28365248 16.4596684 4.31219858 16.4354663 3.25189716"></polygon>
                                <polygon id="Fill-32" fill="#002E60" mask="url(#mask-4)" points="19.5620585 3.37603546 21.5295053 3.80410284 21.4145762 4.31271986 20.0158174 4.00491844 19.8926968 4.5507695 21.0489379 4.79465248 20.7741507 5.26243617 19.7869521 5.04920922 19.6619699 5.6080922 21.0887784 5.91502482 20.9763316 6.42066312 18.9928741 5.99023759"></polygon>
                                <path d="M23.1463191,5.60371099 C22.8006631,5.34828546 22.7968156,5.19413652 22.8864255,5.06803723 C22.9771525,4.96862234 23.0857518,4.9701117 23.2010532,5.01082092 C23.3863546,5.07387057 23.5313191,5.2003422 23.6432695,5.34580319 C23.7043333,5.42585638 23.7518688,5.50392376 23.7984113,5.5761578 L24.2565142,5.2934273 C24.1872589,5.16161879 23.9995993,4.78443794 23.4474184,4.54738121 C23.1875248,4.43394149 22.5641028,4.32968617 22.2958936,4.96477482 C22.1877908,5.24018262 22.2289965,5.41754078 22.2983759,5.53979255 C22.4530213,5.78553723 22.6915674,5.95867553 22.9092624,6.15105142 C22.9993688,6.22576773 23.0924539,6.31550177 23.130805,6.42360461 C23.1574894,6.5055195 23.1351489,6.59078546 23.0740851,6.64316135 C22.7569752,6.91323227 22.1800957,6.32853369 22.0680213,6.01489894 L21.5765319,6.24910106 C21.8382872,6.75759397 22.2818688,7.21532447 22.9843511,7.23617553 C23.2374184,7.22351596 23.527844,7.08537766 23.6636241,6.77894149 C23.754227,6.53456206 23.775078,6.3120266 23.6461241,6.10748759 C23.5239965,5.9159805 23.3116383,5.72112234 23.1463191,5.60371099" id="Fill-33" fill="#002E60" mask="url(#mask-4)"></path>
                                <polygon id="Fill-34" fill="#002E60" mask="url(#mask-4)" points="27.7457908 7.61237589 29.034461 9.15945035 28.6310922 9.4895922 27.7172447 8.38758865 27.2847092 8.74242908 28.0759326 9.68258865 27.5465887 9.85374113 26.8949929 9.07070922 26.4527766 9.43485816 27.389461 10.5537411 26.9899397 10.8828901 25.689727 9.3247695"></polygon>
                                <path d="M28.3658741,13.4640656 L28.0604309,12.8528067 L28.5723989,11.9601826 L28.3498635,11.5432855 L27.5876826,11.9238174 L27.3274167,11.4001826 L29.7151117,10.2017429 L30.2227358,11.217984 C30.2921152,11.3571152 30.3259982,11.440023 30.3613706,11.5476294 C30.4336046,11.7546507 30.438445,11.952984 30.3710514,12.1173103 C30.1505018,12.6564592 29.4383387,12.9215656 28.926867,12.4517961 L28.3658741,13.4640656 Z M29.7791543,11.5064238 L29.5012642,10.9644202 L28.8211223,11.3144202 L29.0770443,11.8360691 C29.2158032,12.1269911 29.4348635,12.158516 29.6123457,12.0934805 C29.8072039,12.0217429 29.9289592,11.7730195 29.7791543,11.5064238 L29.7791543,11.5064238 Z" id="Fill-35" fill="#002E60" mask="url(#mask-4)"></path>
                                <path d="M29.8077128,17.3572819 C29.8125532,17.2190195 29.6962589,17.1307748 29.5828191,17.1037181 C29.5304433,17.0920514 29.4745922,17.0925479 29.4173759,17.1080621 C29.3636348,17.1264309 29.3214362,17.1551011 29.2914007,17.1894805 C29.1619504,17.3426365 29.258883,17.5331507 29.3713298,17.5793209 C29.412039,17.5976897 29.4654078,17.6098528 29.5352837,17.6107216 C29.7586879,17.6058812 29.8062234,17.4260408 29.8077128,17.3572819 M29.7921986,17.7698351 C29.5663121,17.9705266 29.2254965,17.9215018 29.0320035,17.7203138 C28.9462411,17.6287181 28.8943617,17.5089486 28.8938652,17.3790018 C28.9005674,17.2810762 28.9282447,17.1884876 28.9704433,17.1080621 C29.0218262,17.0110053 29.0902128,16.9397642 29.1789539,16.8918564 C29.3825,16.7812713 29.651578,16.774445 29.8392376,16.8873883 C29.9725355,16.9697996 30.0637589,17.1075656 30.1058333,17.2675479 C30.1310284,17.3664663 30.1441844,17.4794096 30.1441844,17.6055089 C30.1383511,17.9234876 30.0491135,18.223594 29.8033688,18.3719096 C29.7364716,18.4122465 29.6545567,18.4388067 29.5556383,18.4504734 C29.2937589,18.4810053 29.1008865,18.3995869 28.9394149,18.2764663 L29.1192553,18.0091259 C29.5628369,18.3657039 29.7830142,18.0229025 29.7921986,17.7698351" id="Fill-36" fill="#7BB1DD" mask="url(#mask-4)"></path>
                                <path d="M31.298055,17.8095514 L31.298055,17.2952252 L30.8369734,17.8095514 L31.298055,17.8095514 Z M31.8206968,18.0868209 L31.6156613,18.0868209 L31.6156613,18.4524592 L31.298055,18.4524592 L31.298055,18.0868209 L30.4981436,18.0868209 L30.4539592,17.8434344 L31.3227535,16.8191259 L31.6156613,16.8191259 L31.6156613,17.8095514 L31.8206968,17.8095514 L31.8206968,18.0868209 Z" id="Fill-37" fill="#7BB1DD" mask="url(#mask-4)"></path>
                                <polygon id="Fill-38" fill="#7BB1DD" mask="url(#mask-4)" points="3.3221578 17.2413475 3.25426773 16.9649468 3.6813422 16.8248227 3.94458688 16.8248227 3.94458688 18.4387943 3.60625355 18.4387943 3.60625355 17.1579433"></polygon>
                                <path d="M5.2434344,17.9559681 C5.23859397,17.7926348 5.05776064,17.7494433 4.93848759,17.7537872 C4.81338121,17.7629716 4.68591667,17.8376879 4.6844273,17.9559681 C4.68877128,18.110117 4.8473883,18.1804894 4.97199823,18.1813582 C5.11696277,18.1808617 5.24194504,18.0869078 5.2434344,17.9559681 M5.13533156,17.4386631 C5.17455142,17.3988227 5.19403723,17.353273 5.19403723,17.3033794 C5.19403723,17.2451702 5.17455142,17.200117 5.13533156,17.1675993 C5.09660816,17.1337163 5.04224645,17.1172092 4.97199823,17.1172092 C4.90162589,17.1172092 4.84689184,17.1337163 4.80667908,17.1675993 C4.76783156,17.200117 4.74846986,17.2451702 4.74846986,17.3033794 C4.74846986,17.353273 4.76832801,17.3988227 4.80804433,17.4386631 C4.88859397,17.5032021 5.02474645,17.5177234 5.13533156,17.4386631 M5.30114716,17.5996383 C5.49265426,17.6733617 5.58325709,17.819195 5.58573936,18.0121915 C5.58375355,18.2362163 5.42141312,18.3806844 5.23040248,18.4335567 C5.15469326,18.4537872 5.0684344,18.4640887 4.97199823,18.4640887 C4.70627128,18.456766 4.36160816,18.3369965 4.35527837,18.0121915 C4.36446277,17.7891596 4.41485284,17.7062518 4.6088422,17.5996383 C4.41299113,17.4763936 4.34162589,17.269 4.46487057,17.0454716 C4.49391312,16.9940887 4.53412589,16.9508972 4.58464007,16.9165177 C4.6355266,16.8820142 4.6936117,16.8558262 4.76013652,16.8384504 C4.82653723,16.8204539 4.89678546,16.811766 4.97199823,16.811766 C5.25212234,16.8089113 5.5013422,16.9470496 5.5290195,17.2326348 C5.53584574,17.3102057 5.52368262,17.3896383 5.4819805,17.4575284 C5.44760106,17.516234 5.38889539,17.5627766 5.30114716,17.5996383" id="Fill-39" fill="#7BB1DD" mask="url(#mask-4)"></path>
                                <path d="M17.372672,27.9311046 C18.2976897,27.6381968 19.7733989,27.0371152 21.2021933,25.9506259 C22.2838422,25.2156259 23.4740904,23.8338706 24.306023,22.2737642 C24.7045514,21.468516 24.9241082,20.6884628 25.0560408,19.9393138 C25.3066259,18.5158564 25.2887535,16.9020089 25.25425,15.31075 C25.169977,13.8510514 24.9454557,12.093977 24.5067145,10.1470089 C20.91425,9.49106915 18.7484699,9.55399468 17.372672,9.5376117" id="Fill-40" fill="#E9AB00" mask="url(#mask-4)"></path>
                                <path d="M24.6623404,18.473273 C24.3215248,22.579195 22.4026064,25.4182908 17.3726596,27.2150816 C12.3435816,25.4182908 10.4241667,22.5796915 10.0833511,18.4737695 L24.6623404,18.473273 Z" id="Fill-41" fill="#7BB1DD" mask="url(#mask-4)"></path>
                                <path d="M10.0441064,17.856094 C10.008734,17.0628848 10.0261099,16.2251188 10.086305,15.3404379 C10.1647447,13.9668741 10.2506312,12.3655621 10.658344,10.5333989 C13.8425993,9.95788475 16.0030426,9.96905496 17.3726348,9.92834574 C18.7427234,9.96905496 20.9030426,9.95788475 24.0872979,10.5333989 C24.4951348,12.3655621 24.5808972,13.9668741 24.659461,15.3404379 C24.7200284,16.2290904 24.7370319,17.0707039 24.7011631,17.8672642 L10.0441064,17.856094 Z" id="Fill-42" fill="#FFFFFF" mask="url(#mask-4)"></path>
                                <path d="M19.0801383,26.5091365 C18.5555106,26.7602181 17.9873191,26.9954131 17.3727092,27.2149699 L10.0834007,18.4737819 L12.4540922,18.4732855 L19.0801383,26.5091365 Z M24.2875674,20.6748103 C24.0960603,21.3739415 23.8352979,22.0280195 23.4943582,22.6379131 L20.0483475,18.4732855 L22.4632234,18.4732855 L24.2875674,20.6748103 Z M22.2300142,24.3294557 C21.8416631,24.7283564 21.4009362,25.1026826 20.9026206,25.4536755 L15.1147128,18.4732855 L17.3804043,18.4732855 L22.2300142,24.3294557 Z" id="Fill-43" fill="#A8C9E8" mask="url(#mask-4)"></path>
                                <path d="M19.168867,16.7525887 C20.1894521,16.7046809 21.2240621,16.5442021 21.7175372,16.4162411 C21.6152677,17.2126773 20.8113848,17.121578 21.2647713,17.864273 L20.2291684,17.8634043 C19.8398245,17.7319681 19.4354628,17.5661525 19.0932819,17.5381028 C18.989523,17.5302837 18.9022713,17.531773 18.814523,17.565656 C17.738211,17.9796986 16.8640798,17.506578 16.0583351,17.4870922 C16.0282996,17.5846454 15.8576436,17.7009397 15.5181933,17.7363121 C14.9398245,17.8061879 14.5272713,17.5661525 14.0710301,17.5501418 C13.9062074,17.544805 13.7490798,17.6001596 13.6172713,17.8585638 C13.3845585,17.5351241 13.2424486,17.2898759 12.919133,16.8883688 C12.4328564,16.655656 11.9824486,16.4679965 11.5485479,16.3003191 L11.5708883,16.2092199 C12.9550018,16.6362943 14.0046294,16.7924291 14.9428032,16.8767021 C16.1014025,16.9208865 17.3475018,16.9969681 18.4780514,16.9179078 C18.798016,16.8196099 18.9244876,16.7642553 19.168867,16.7525887" id="Fill-44" fill="#FBC24E" mask="url(#mask-4)"></path>
                                <path d="M21.5531986,16.5281791 C21.4334291,17.0406436 20.6688901,17.2340124 21.1770106,17.8642606 L20.5709645,17.8638883 C20.1801312,17.7286046 19.516,17.4352004 18.7698298,17.4270089 C18.5012482,17.6335337 17.998961,17.7339415 17.2397589,17.5647748 C16.8874007,17.486211 16.4054681,17.3717784 15.9172057,17.374633 C15.7999184,17.8502358 14.2378262,17.6563706 13.6870106,16.9310514 L12.9743511,16.7530727 L12.8108936,16.6231259 C13.935734,16.8583209 15.085273,16.9964592 15.6723298,17.0144557 C16.7442979,17.0536755 17.750734,17.0551649 18.4683582,17.0299699 C18.7082695,16.9605904 18.7538191,16.930555 18.8730922,16.8855018 C19.0437482,16.8001117 19.2474184,16.814633 19.4137305,16.8054486 C20.412844,16.751211 21.045078,16.6212642 21.5531986,16.5281791" id="Fill-45" fill="#EBAA00" mask="url(#mask-4)"></path>
                                <path d="M15.9651879,14.438133 C15.4667482,16.142211 13.9895496,15.9221578 14.0826348,16.6062713 C14.3085213,16.4079379 14.5242305,16.3900656 14.7414291,16.3371933 L14.7454007,16.8578493 C14.8079539,16.8641791 14.8695142,16.8700124 14.930578,16.8758457 L14.9402589,16.3124947 C15.4745674,16.2489486 15.9438404,16.3158457 16.4262695,16.356555 C16.0344433,15.7282926 15.7862163,15.0930798 15.9651879,14.438133 M16.7709326,16.7367145 C16.9077057,16.5330443 17.1330957,16.4307748 17.3973333,16.3730621 L17.3900106,16.9524238 C17.4565355,16.9524238 17.5224397,16.9519273 17.588344,16.9514309 L17.5801525,16.3280089 C18.3073333,16.2334344 19.0942128,16.3502252 19.7221028,16.5063599 L19.7186277,16.7162358 C19.7870142,16.711023 19.8490709,16.7046933 19.9164645,16.6983635 L19.9184504,16.4496401 L21.9740177,15.7321401 C21.3908085,14.9602784 21.4436809,14.0609521 21.5929894,13.1427606 C21.4805426,13.6052074 21.2133262,14.4536472 20.510844,15.2361826 C19.9556844,15.8547642 20.0115355,15.9885585 19.9159681,16.1626897 L19.8762518,11.9932216 L19.4020142,12.1532039 C19.3027234,12.18175 19.3608085,12.2274238 19.2793901,12.2651543 L18.8018014,12.4479734 L19.3497624,12.4227784 C19.4301879,12.4227784 19.3802943,12.3126897 19.4548865,12.3005266 L19.7588404,12.2699947 L19.720117,16.3895691 C19.3953121,15.8804557 18.8304716,15.2695691 19.0598333,13.989711 C18.4779894,16.1950833 16.6293191,15.955172 16.7709326,16.7367145" id="Fill-46" fill="#EBAA00" mask="url(#mask-4)"></path>
                                <path d="M13.8145993,15.1832979 L15.9652376,14.4381206 C15.4667979,16.1421986 13.9895993,15.9221454 14.0826844,16.6062589 C13.5794043,16.1126596 13.560539,15.5197695 13.8145993,15.1832979 L13.8145993,15.1832979 Z M16.4660355,14.8807092 L19.0597589,13.9896986 C18.478039,16.1950709 16.6293688,15.9551596 16.7709823,16.7367021 C16.3390674,16.3275 15.9138546,15.5541489 16.4660355,14.8807092 L16.4660355,14.8807092 Z M21.5929149,13.1427482 C21.4804681,13.605195 21.2133759,14.4536348 20.5108936,15.2361702 C19.955734,15.8547518 20.011461,15.9885461 19.9160177,16.1626773 L19.8931809,13.7326596 L21.5929149,13.1427482 Z" id="Fill-47" fill="#FFBB59" mask="url(#mask-4)"></path>
                                <path d="M17.576727,11.491406 L17.5718865,10.7437465 L17.0972766,10.9037287 C16.9978617,10.9323989 17.0560709,10.9774521 16.9746525,11.0153067 L16.4970638,11.1981259 L17.0449007,11.1728067 C17.1253262,11.1728067 17.0754326,11.0633387 17.1501489,11.0506791 L17.4541028,11.0206436 L17.4492624,11.5369557 L17.576727,11.491406 Z" id="Fill-48" fill="#EBAA00" mask="url(#mask-4)"></path>
                                <path d="M14.9005922,13.3322571 L14.8957518,12.4227535 L14.4215142,12.5822394 C14.3222234,12.6107855 14.3798121,12.6564592 14.2983936,12.6941897 L13.833961,12.8663351 L14.3691383,12.8518138 C14.4496879,12.8518138 14.3992979,12.7422216 14.4743865,12.7295621 L14.7783404,12.6995266 L14.7759823,13.3754486 L14.9005922,13.3322571 Z" id="Fill-49" fill="#EBAA00" mask="url(#mask-4)"></path>
                                <path d="M17.1747691,11.4037411 C17.4039063,11.4037411 17.2617564,11.2003279 17.4746277,11.1768039 L17.3239912,10.9037411 C17.0407521,10.957016 17.2065937,11.0407338 16.9746277,11.1110751 L17.1747691,11.4037411 Z" id="Fill-50" fill="#FFBB59" mask="url(#mask-4)"></path>
                                <path d="M18.389273,11.2102145 C17.6280851,12.6743812 16.6081206,12.4300018 16.4825177,13.132484 C16.0834929,12.8159947 16.2541489,12.1550904 16.5120567,11.8652855 L18.389273,11.2102145 Z" id="Fill-51" fill="#FFBB59" mask="url(#mask-4)"></path>
                                <path d="M18.6122926,12.4711578 C18.351406,12.1550408 18.1725585,11.7930018 18.3892606,11.2101649 C17.6280727,12.6743316 16.6081082,12.4299521 16.4825053,13.1324344 C16.9134273,12.5492252 18.2166188,12.5036755 18.6122926,12.4711578" id="Fill-52" fill="#EBAA00" mask="url(#mask-4)"></path>
                                <path d="M16.5009113,14.752773 C16.0519929,14.0958404 16.0908404,13.4195461 16.4888723,13.2328794 C17.1966915,12.9793156 18.1080567,12.7015496 18.6123298,12.471195 C18.2540142,13.851461 16.6595284,13.9765674 16.5009113,14.752773" id="Fill-53" fill="#FFBB59" mask="url(#mask-4)"></path>
                                <path d="M18.6122926,12.4711578 C18.253977,13.8514238 16.6594911,13.9765301 16.5008741,14.7527358 C16.8349876,14.3058032 17.6033741,14.0119025 19.0636933,13.9625053 C18.7427358,13.550945 18.5158564,13.0917252 18.6122926,12.4711578" id="Fill-54" fill="#EBAA00" mask="url(#mask-4)"></path>
                                <path d="M15.5957518,13.0807039 C14.9776667,13.3114309 14.4298298,13.5024415 13.9449184,13.6590727 C13.7248652,13.8849592 13.4509468,14.5006862 13.8616383,15.0261826 C13.7854326,14.4211294 15.0842801,14.1923883 15.5957518,13.0807039" id="Fill-55" fill="#FFBB59" mask="url(#mask-4)"></path>
                                <path d="M13.8616259,15.0261578 C13.7854202,14.4211046 15.0842677,14.1923635 15.5957394,13.0806791 C15.573523,13.349633 15.4687713,13.931477 15.957406,14.4148989 C15.2055266,14.4642961 14.2222996,14.5723989 13.8616259,15.0261578" id="Fill-56" fill="#EBAA00" mask="url(#mask-4)"></path>
                                <path d="M14.4993437,13.082227 C14.7281871,13.082227 14.5850278,12.8789581 14.7983564,12.8554774 L14.6481448,12.582227 C14.3660574,12.6351735 14.5296681,12.7198881 14.2983564,12.7898697 L14.4993437,13.082227 Z" id="Fill-57" fill="#FFBB59" mask="url(#mask-4)"></path>
                                <path d="M13.6554486,13.7414468 C13.1192784,14.1258262 12.1502004,14.8487872 11.6395975,16.0602589 C11.9732145,16.0243901 12.3101826,16.0238936 12.7934805,16.1262872 C12.4139415,15.8625461 12.3392252,15.5691418 13.6554486,13.7414468" id="Fill-58" fill="#FFBB59" mask="url(#mask-4)"></path>
                                <path d="M13.1851826,16.2057819 L12.7934805,16.1263493 C12.4139415,15.8626082 12.3392252,15.5692039 13.6554486,13.7415089 C13.3845089,14.2248067 12.9539592,15.0877677 13.1851826,16.2057819" id="Fill-59" fill="#EBAA00" mask="url(#mask-4)"></path>
                                <path d="M19.4795936,12.6531667 C19.7087308,12.6531667 19.5665808,12.448977 19.7794521,12.4264171 L19.6288156,12.1531667 C19.3455766,12.2061133 19.5114182,12.2908278 19.2794521,12.3608094 L19.4795936,12.6531667 Z" id="Fill-60" fill="#FFBB59" mask="url(#mask-4)"></path>
                                <path d="M17.5141862,19.4734539 L17.822484,19.8603156 C17.8656755,19.9093404 17.8468103,19.959234 17.8424663,19.9994468 C18.0591684,19.9882766 18.2975904,20.0566631 18.4411897,20.2598369 C18.5943457,20.4780284 18.7024486,20.5938262 18.8207287,20.6860426 C18.9846826,20.8096596 19.1451613,20.8653865 19.2919876,20.9041099 C19.5053387,20.9603333 19.668672,21.0976028 19.7647358,21.3903865 C19.7986188,21.3885248 19.8243103,21.369039 19.9368812,21.4014326 L20.3454628,21.5410603 C20.3692926,21.5518582 20.4051613,21.5640213 20.4318457,21.5945532 C20.4570408,21.6274433 20.4667216,21.6614504 20.4720585,21.6973191 C20.4764025,21.7303333 20.4764025,21.7748901 20.4570408,21.8151028 L20.1496117,22.2490035 C20.1190798,22.2840035 20.0681933,22.2980284 20.0526791,22.2990213 C20.1355869,22.4987199 20.1506046,22.7596064 19.9814379,22.9776738 C19.7695762,23.2520887 19.7390443,23.3354929 19.6881578,23.4906348 C19.6561365,23.603578 19.6411188,23.8101028 19.6386365,24.0491454 C19.6371472,24.2373014 19.5431933,24.4111844 19.3351791,24.5349255 C19.3380337,24.548578 19.3511897,24.5732766 19.3526791,24.6111312 L19.357023,25.051734 C19.361367,25.1079574 19.3526791,25.1666631 19.3273599,25.2078688 C19.2876436,25.266078 19.2357642,25.2897837 19.1722181,25.2971064 C19.1121472,25.3039326 19.0569167,25.2941277 19.0481046,25.2907766 L18.6040266,25.1458121 C18.5599663,25.1234716 18.5521472,25.0974078 18.5526436,25.1012553 C18.0998777,25.4624255 17.7289025,25.1361312 17.3726968,25.1248369 C17.0167394,25.1361312 16.6458883,25.4624255 16.1929982,25.1012553 C16.1936188,25.0974078 16.1857996,25.1234716 16.1417394,25.1458121 L15.6976613,25.2907766 C15.6888493,25.2941277 15.6336188,25.3039326 15.5735479,25.2971064 C15.5100018,25.2897837 15.4581223,25.266078 15.418406,25.2078688 C15.3930869,25.1666631 15.3843989,25.1079574 15.3887429,25.051734 L15.3930869,24.6111312 C15.3945762,24.5732766 15.4077323,24.548578 15.4105869,24.5349255 C15.2025727,24.4111844 15.1084947,24.2373014 15.1070053,24.0491454 C15.1046472,23.8101028 15.0896294,23.603578 15.0576082,23.4906348 C15.0067216,23.3354929 14.9761897,23.2520887 14.7638316,22.9776738 C14.5950372,22.7596064 14.6101791,22.4987199 14.6930869,22.2990213 C14.6775727,22.2980284 14.6260656,22.2840035 14.5961543,22.2490035 L14.2887252,21.8151028 C14.2692394,21.7748901 14.2692394,21.7303333 14.2737074,21.6973191 C14.2790443,21.6614504 14.2887252,21.6274433 14.3139202,21.5945532 C14.3406046,21.5640213 14.3764734,21.5518582 14.4001791,21.5410603 L14.8088848,21.4014326 C14.9214557,21.369039 14.9471472,21.3885248 14.9810301,21.3903865 C15.077094,21.0976028 15.2404273,20.9603333 15.4537784,20.9041099 C15.6006046,20.8653865 15.7610833,20.8096596 15.9250372,20.6860426 C16.0431933,20.5938262 16.1514202,20.4780284 16.3045762,20.2598369 C16.4480514,20.0566631 16.6865975,19.9882766 16.9032996,19.9994468 C16.8989557,19.959234 16.8800904,19.9093404 16.9232819,19.8603156 L17.2315798,19.4734539 C17.284328,19.4089149 17.3373245,19.4075496 17.3726968,19.4027092 C17.4084415,19.4075496 17.4613138,19.4089149 17.5141862,19.4734539" id="Fill-61" fill="#002E60" mask="url(#mask-4)"></path>
                                <path d="M17.2518972,20.9788138 C17.1496277,20.878406 16.9843085,20.8071649 16.792305,20.9492748 C16.7676064,20.9676436 16.7424113,20.9894876 16.7167199,21.0156755 C16.5605851,21.1674663 16.5290603,21.307094 16.3545567,21.3908706 C16.1178723,21.5034415 15.6912943,21.5077855 15.8319149,21.9572004 C15.8793262,22.0890089 15.8828014,22.0691507 15.7538475,22.0444521 C15.5318085,21.9897181 15.3393085,21.8664734 15.3228014,21.6304096 C15.3164716,21.4050195 15.4178723,21.2333706 15.612234,21.1683351 C15.7353546,21.1271294 15.8721277,21.1169521 16.1198582,20.9449309 C16.4141312,20.7412606 16.4581915,20.4823599 16.6832092,20.3800904 C16.8175,20.3252323 16.9479433,20.3257287 17.0744149,20.3824486 C17.2887589,20.4803741 17.3289716,20.7032819 17.3101064,20.9696294 C17.3081206,21.0403741 17.2732447,21.003016 17.2518972,20.9788138" id="Fill-62" fill="#E41819" mask="url(#mask-4)"></path>
                                <path d="M17.3062589,22.1918245 L17.3081206,21.4185975 C17.3197872,21.2493067 17.2509043,21.1174982 17.0939007,21.0781543 C17.0273759,21.0617713 16.9624645,21.0646259 16.9014007,21.0999982 C16.8194858,21.1480301 16.7597872,21.238633 16.6846986,21.3278706 C16.6071277,21.4166117 16.5280674,21.5010089 16.4257979,21.542711 C16.3423936,21.576594 16.2391312,21.5979415 16.1572163,21.6420018 C16.0611525,21.6933848 15.9879255,21.7685975 15.9909043,21.9067358 C15.9909043,21.9819486 16.0247872,22.0565408 16.086844,22.1109025 C16.1523759,22.166133 16.2241135,22.1811507 16.3070213,22.2082074 L16.9678014,22.422055 C17.0191844,22.4362039 17.0380496,22.426523 17.0608865,22.3871791 C17.1316312,22.2702642 17.2005142,22.2607074 17.2640603,22.2505301 C17.2969504,22.2495372 17.3076241,22.2170195 17.3062589,22.1918245" id="Fill-63" fill="#E41819" mask="url(#mask-4)"></path>
                                <path d="M17.5359929,20.9788138 C17.6382624,20.878406 17.8035816,20.8071649 17.9955851,20.9492748 C18.0202837,20.9676436 18.0454787,20.9894876 18.0711702,21.0156755 C18.227305,21.1674663 18.2588298,21.307094 18.4333333,21.3908706 C18.6700177,21.5034415 19.0965957,21.5077855 18.9559752,21.9572004 C18.9085638,22.0890089 18.9050887,22.0691507 19.0340426,22.0444521 C19.2560816,21.9897181 19.4485816,21.8664734 19.4650887,21.6304096 C19.4714184,21.4050195 19.3700177,21.2333706 19.175656,21.1683351 C19.0525355,21.1271294 18.9157624,21.1169521 18.6680319,20.9449309 C18.3737589,20.7412606 18.3300709,20.4823599 18.1046809,20.3800904 C17.9703901,20.3252323 17.8399468,20.3257287 17.7134752,20.3824486 C17.4991312,20.4803741 17.4589184,20.7032819 17.4777837,20.9696294 C17.4797695,21.0403741 17.5146454,21.003016 17.5359929,20.9788138" id="Fill-64" fill="#E41819" mask="url(#mask-4)"></path>
                                <path d="M17.4816933,22.1918245 L17.4797074,21.4185975 C17.4681649,21.2493067 17.5369238,21.1174982 17.6940514,21.0781543 C17.7604521,21.0617713 17.8254876,21.0646259 17.8865514,21.0999982 C17.9684663,21.1480301 18.0280408,21.238633 18.1032535,21.3278706 C18.1813209,21.4166117 18.2598848,21.5010089 18.3621543,21.542711 C18.4455585,21.576594 18.5488209,21.5979415 18.6307358,21.6420018 C18.7266755,21.6933848 18.7999025,21.7685975 18.7970479,21.9067358 C18.7970479,21.9819486 18.7630408,22.0565408 18.700984,22.1109025 C18.6355762,22.166133 18.5638387,22.1811507 18.4809309,22.2082074 L17.8201507,22.422055 C17.8016578,22.4283848 17.7837855,22.4318599 17.7682713,22.4288812 C17.7589628,22.4273918 17.7507713,22.4240408 17.7429521,22.417711 C17.6383245,22.2630656 17.599477,22.2713812 17.5049025,22.2495372 C17.4860372,22.238367 17.4797074,22.217516 17.4816933,22.1918245" id="Fill-65" fill="#E41819" mask="url(#mask-4)"></path>
                                <path d="M18.494,23.9265089 C18.6361099,23.9473599 18.8116064,23.9071472 18.8823511,23.6792748 C18.8915355,23.6497358 18.8993546,23.6167216 18.9046915,23.5808528 C18.9405603,23.3660124 18.8838404,23.2347004 18.9749397,23.0640443 C19.0990532,22.8336897 19.4408617,22.5782642 19.061695,22.2985124 C18.9454007,22.2199486 18.9545851,22.237945 19.0733617,22.1815975 C19.284727,22.0948422 19.5125993,22.0803209 19.6657553,22.2616507 C19.8040177,22.4396294 19.8233794,22.6378387 19.7050993,22.8051436 C19.6298865,22.9112606 19.5257553,23.0000018 19.4277057,23.2855869 C19.3104184,23.6235479 19.4282021,23.8581223 19.3070674,24.0738316 C19.2308617,24.1975727 19.1252411,24.2741507 18.989461,24.3031933 C18.7592305,24.3507287 18.5944078,24.194594 18.4527943,23.968211 C18.4125816,23.9100018 18.4624752,23.9196826 18.494,23.9265089" id="Fill-66" fill="#E41819" mask="url(#mask-4)"></path>
                                <path d="M17.733805,22.9801436 L18.1890532,23.605055 C18.279656,23.7485301 18.413078,23.8145585 18.5633794,23.7529982 C18.626305,23.7273067 18.6773156,23.6864734 18.7053652,23.6220585 C18.7432199,23.5353032 18.737883,23.4262074 18.745578,23.3096649 C18.7557553,23.1925018 18.7694078,23.0780691 18.827617,22.983867 C18.8750284,22.9074131 18.9454007,22.8283528 18.9856135,22.7449486 C19.0331489,22.6465266 19.0471738,22.5428918 18.963273,22.4332996 C18.9192128,22.3722358 18.8479716,22.3322713 18.7655603,22.3251968 C18.6801702,22.3193635 18.6127766,22.3493989 18.5303652,22.3765798 L17.870578,22.5947713 C17.8288759,22.6068103 17.8128652,22.6270408 17.8152234,22.6673777 C17.8283794,22.8114734 17.7648333,22.8752677 17.7187872,22.9195762 C17.7100993,22.9399309 17.7172979,22.9607819 17.733805,22.9801436" id="Fill-67" fill="#E41819" mask="url(#mask-4)"></path>
                                <path d="M16.2846809,23.9265089 C16.142695,23.9473599 15.9670745,23.9071472 15.8958333,23.6792748 C15.8866489,23.6497358 15.8793262,23.6167216 15.8739894,23.5808528 C15.8376241,23.3660124 15.8948404,23.2347004 15.8037411,23.0640443 C15.6791312,22.8336897 15.3378191,22.5782642 15.7164894,22.2985124 C15.8327837,22.2199486 15.8235993,22.237945 15.7053191,22.1815975 C15.4939539,22.0948422 15.2655851,22.0803209 15.1129255,22.2616507 C14.9746631,22.4396294 14.954805,22.6378387 15.0735816,22.8051436 C15.1487943,22.9112606 15.2530496,23.0000018 15.3509752,23.2855869 C15.467766,23.6235479 15.3504787,23.8581223 15.4716135,24.0738316 C15.5478191,24.1975727 15.6529433,24.2741507 15.7892199,24.3031933 C16.0194504,24.3507287 16.1839007,24.194594 16.3258865,23.968211 C16.3656028,23.9100018 16.3157092,23.9196826 16.2846809,23.9265089" id="Fill-68" fill="#E41819" mask="url(#mask-4)"></path>
                                <path d="M17.0448759,22.9801436 L16.5896277,23.605055 C16.4990248,23.7485301 16.3656028,23.8145585 16.2153014,23.7529982 C16.1523759,23.7273067 16.1013652,23.6864734 16.0728191,23.6220585 C16.035461,23.5353032 16.0407979,23.4262074 16.0331028,23.3096649 C16.0229255,23.1925018 16.0087766,23.0780691 15.9511879,22.983867 C15.9036525,22.9074131 15.8327837,22.8283528 15.7930674,22.7449486 C15.7455319,22.6465266 15.7315071,22.5428918 15.8149113,22.4332996 C15.8594681,22.3722358 15.9307092,22.3322713 16.0132447,22.3251968 C16.0985106,22.3193635 16.1659043,22.3493989 16.2483156,22.3765798 L16.9077305,22.5947713 C16.9391312,22.6039557 16.962961,22.6194699 16.9682979,22.6465266 C16.9474468,22.7576082 16.9949823,22.831828 17.0540603,22.9093989 C17.0710638,22.9331046 17.0642376,22.9573067 17.0448759,22.9801436" id="Fill-69" fill="#E41819" mask="url(#mask-4)"></path>
                                <path d="M18.2646755,24.0772819 C18.2414663,24.2188954 18.14925,24.3740372 17.9107039,24.3720514 C17.8796755,24.3720514 17.846289,24.3691968 17.8104202,24.3633635 C17.594711,24.3328316 17.4869805,24.2382571 17.2964663,24.273133 C17.0395514,24.3216613 16.692406,24.5693918 16.5407394,24.1238245 C16.5013954,23.9890372 16.5159167,24.0030621 16.4263067,24.0991259 C16.2793564,24.2741259 16.1959521,24.4869805 16.3220514,24.687672 C16.449516,24.8733457 16.6328316,24.952406 16.8281862,24.8903493 C16.9522996,24.8510053 17.068594,24.7787713 17.3701897,24.7720691 C17.7275124,24.7632571 17.9155443,24.9460762 18.1580621,24.8966791 C18.2985585,24.8616791 18.4038067,24.7841082 18.4726897,24.6639663 C18.5879911,24.4588067 18.4891968,24.2542677 18.3170514,24.0505975 C18.2738599,23.9948706 18.2675301,24.0452606 18.2646755,24.0772819" id="Fill-70" fill="#E41819" mask="url(#mask-4)"></path>
                                <path d="M17.5941773,23.0654716 L18.0509149,23.6888936 C18.1600106,23.8188404 18.182227,23.9662872 18.0784681,24.0904007 C18.0344078,24.1427766 17.9800461,24.1785213 17.9102943,24.1863404 C17.8157199,24.1955248 17.7139468,24.1572979 17.6005071,24.1296206 C17.485578,24.1034326 17.3721383,24.0820851 17.2649043,24.108273 C17.1776525,24.1306135 17.0812163,24.173805 16.9896206,24.1868369 C16.8815177,24.2018546 16.7782553,24.1839823 16.699195,24.071039 C16.6546383,24.0098511 16.6381312,23.929922 16.6565,23.8493723 C16.6763582,23.7660922 16.7258794,23.711234 16.776766,23.6409858 L17.1849752,23.0785035 C17.2043369,23.0504539 17.2271738,23.0324574 17.2562163,23.0372979 C17.3833085,23.0998511 17.4835922,23.0634858 17.5311277,23.041766 C17.5568191,23.0247624 17.5820142,23.0466064 17.5941773,23.0654716" id="Fill-71" fill="#E41819" mask="url(#mask-4)"></path>
                                <path d="M17.6576862,22.6538617 C17.6576862,22.7959716 17.5427571,22.911273 17.4002748,22.911273 C17.2576684,22.911273 17.1428635,22.7959716 17.1428635,22.6538617 C17.1428635,22.5113794 17.2576684,22.3959539 17.4002748,22.3959539 C17.5427571,22.3959539 17.6576862,22.5113794 17.6576862,22.6538617" id="Fill-72" fill="#FEBE53" mask="url(#mask-4)"></path>
                                <path d="M17.1549486,20.1328067 C17.1233087,20.1076117 17.1335067,20.0997926 17.1616165,20.0672748 C17.2340485,19.9756791 17.3076571,19.87825 17.3853187,19.7609628 C17.4633726,19.87825 17.5369813,19.9756791 17.6095439,20.0672748 C17.6375231,20.0997926 17.6473288,20.1076117 17.6160811,20.1328067 C17.5282214,20.2045443 17.4271567,20.2942784 17.3853187,20.4551294 C17.343873,20.2942784 17.2428083,20.2045443 17.1549486,20.1328067" id="Fill-73" fill="#E41819" mask="url(#mask-4)"></path>
                                <path d="M19.7079787,21.6684361 C19.7239894,21.6284608 19.7336702,21.6359647 19.7728901,21.6535647 C19.8806206,21.6961322 19.9945567,21.7377447 20.1283511,21.7771742 C20.0381206,21.8928704 19.9653901,21.9977884 19.8984929,22.0995683 C19.8752837,22.1384521 19.8708156,22.1507312 19.8374291,22.1278102 C19.744344,22.0638225 19.6304078,21.9917853 19.4650887,22.0025636 C19.6071986,21.909379 19.6642908,21.7788114 19.7079787,21.6684361" id="Fill-74" fill="#E41819" mask="url(#mask-4)"></path>
                                <path d="M14.9291259,22.1279323 C14.8957394,22.1504094 14.8912713,22.1380744 14.8685585,22.0990136 C14.8031507,21.9951256 14.7317855,21.8886335 14.6430443,21.7707658 C14.7778316,21.7333497 14.8922642,21.6937407 15.000367,21.652487 C15.039711,21.6359033 15.0498883,21.6283652 15.064906,21.6685225 C15.1071046,21.7804968 15.1623351,21.912207 15.3034521,22.008557 C15.138133,21.9945773 15.0232039,22.0652979 14.9291259,22.1279323" id="Fill-75" fill="#E41819" mask="url(#mask-4)"></path>
                                <path d="M19.1117711,24.5209007 C19.158795,24.523383 19.1547771,24.5349255 19.1523961,24.5771241 C19.1523961,24.6915567 19.1559676,24.8113262 19.1699557,24.949961 C19.0141521,24.9000674 18.8769497,24.8641986 18.7455509,24.8321773 C18.6961461,24.822 18.6815628,24.822 18.6921283,24.7835248 C18.7199557,24.6760426 18.7479319,24.5470887 18.6699557,24.394305 C18.8235271,24.4995532 18.9803723,24.5132057 19.1117711,24.5209007" id="Fill-76" fill="#E41819" mask="url(#mask-4)"></path>
                                <path d="M16.1957529,24.7749362 C16.2070852,24.8132872 16.1922307,24.8136596 16.1420009,24.8243333 C16.0073914,24.8588369 15.8668095,24.8970638 15.7083103,24.9494397 C15.71903,24.810805 15.71903,24.6910355 15.7159673,24.5766028 C15.7130576,24.5345284 15.7087697,24.5228617 15.7567023,24.5193865 C15.8919244,24.5097057 16.0528738,24.493695 16.2083103,24.3855922 C16.1317406,24.5393688 16.164053,24.6683227 16.1957529,24.7749362" id="Fill-77" fill="#E41819" mask="url(#mask-4)"></path>
                            </g>
                        </g>
                    </g>
                </g>
            </g>
        </g>
    </g>
</svg>