<?xml version="1.0" encoding="UTF-8" standalone="no"?>
<svg width="35px" height="35px" viewBox="0 0 35 35" version="1.1" xmlns="http://www.w3.org/2000/svg" xmlns:xlink="http://www.w3.org/1999/xlink">
    <!-- Generator: Sketch 42 (36781) - http://www.bohemiancoding.com/sketch -->
    <title>Page 1</title>
    <desc>Created with Sketch.</desc>
    <defs>
        <polygon id="path-1" points="0.137422043 1.50537634 3.49742204 1.50537634 3.49742204 0.00269086022 0.137422043 0.00269086022"></polygon>
        <polygon id="path-3" points="0 0.126959677 0 6.38669086 6.25967473 6.38669086 6.25967473 0.126959677 1.53012403e-20 0.126959677"></polygon>
        <polygon id="path-5" points="0 34.8838978 34.4351075 34.8838978 34.4351075 0 0 0"></polygon>
    </defs>
    <g id="Page-1" stroke="none" stroke-width="1" fill="none" fill-rule="evenodd">
        <g id="group_info" transform="translate(-270.000000, -454.000000)">
            <g id="channels" transform="translate(0.000000, 409.000000)">
                <g transform="translate(16.000000, 45.000000)" id="united">
                    <g transform="translate(240.000000, 0.000000)">
                        <g id="Page-1" transform="translate(14.000000, 0.000000)">
                            <g id="Group-3" transform="translate(15.430108, 33.378522)">
                                <mask id="mask-2" fill="white">
                                    <use xlink:href="#path-1"></use>
                                </mask>
                                <g id="Clip-2"></g>
                                <path d="M3.49441129,0.0924489247 C3.35761022,0.502287634 2.91258333,1.5054328 1.83868548,1.5054328 C0.618577957,1.5054328 0.192932796,0.183712366 0.172233871,0.129518817 L0.137422043,0.00269086022 C0.137422043,0.00269086022 1.18892742,0.0901908602 1.76755645,0.0901908602 C2.34618548,0.0901908602 3.33540591,0.0339274194 3.49742204,0.00269086022 L3.49441129,0.0924489247 Z" id="Fill-1" fill="#221F20" mask="url(#mask-2)"></path>
                            </g>
                            <path d="M22.1271129,32.8191613 L22.3788871,32.8528441 C22.0800699,33.6322527 21.5430269,34.5063118 20.4877581,34.5063118 C19.4669247,34.5063118 18.9607419,33.9145108 18.7447204,33.5165269 L18.5687796,33.408328 C18.5687796,33.408328 20.3343978,33.3501828 22.1271129,32.8191613" id="Fill-4" fill="#221F20"></path>
                            <path d="M12.4469973,32.8191613 L12.1950349,32.8528441 C12.4938522,33.6322527 13.0310833,34.5063118 14.0863522,34.5063118 C15.1071855,34.5063118 15.6587177,33.8815806 15.8850887,33.5165269 L16.0053306,33.408328 C16.0053306,33.408328 14.2399005,33.3501828 12.4469973,32.8191613" id="Fill-6" fill="#221F20"></path>
                            <path d="M18.1244113,33.5521855 C17.9593844,33.7917285 17.8487392,33.78025 17.6496532,33.78025 C17.5495457,33.78025 17.3997608,33.8632339 17.4044651,34.013207 C17.407664,34.1304382 17.5036317,34.2288522 17.6660242,34.2288522 C18.0265618,34.2288522 18.3011048,33.7247392 18.3788199,33.512293 C18.3788199,33.512293 18.5914543,33.5028844 18.6539274,33.4968629 C18.6539274,33.4968629 18.2719382,34.6345511 17.2815887,34.6345511 C16.2891694,34.6345511 15.8849758,33.5090941 15.8849758,33.5090941 C15.8849758,33.5090941 16.7200833,33.5608414 17.1986048,33.5608414 C17.67675,33.5608414 17.9814005,33.5583952 18.1244113,33.5521855" id="Fill-8" fill="#FFF100"></path>
                            <path d="M21.9948091,33.0517984 C21.3473091,33.2262339 20.8874167,33.3667984 19.8005349,33.4994597 C19.8005349,33.4994597 19.8345941,33.6116102 20.0709382,33.5991909 C20.1620134,33.5946747 20.1736801,33.5722823 20.2071747,33.5660726 C20.2743522,33.5538414 20.3774704,33.6244059 20.3652392,33.742578 C20.3560188,33.8248091 20.2854543,33.9292446 20.0449704,33.9292446 C19.8042984,33.9292446 19.5224167,33.7320403 19.3812876,33.5497016 C19.3812876,33.5497016 19.2365833,33.5826317 19.0875511,33.5907231 C19.0875511,33.5907231 19.550078,34.239164 20.4621478,34.239164 C21.4662339,34.239164 21.8369328,33.3421478 21.9948091,33.0517984" id="Fill-10" fill="#FFF100"></path>
                            <path d="M21.3213226,33.6850538 C21.3213226,33.5281183 21.2729624,33.3820968 21.1903548,33.262043 C20.8390376,33.3446505 20.4372903,33.4202957 19.8486882,33.4936828 C19.8439839,33.5109946 19.8402204,33.5284946 19.8370215,33.5465591 C19.872586,33.5753495 19.9412688,33.6062097 20.0709194,33.5992473 C20.1619946,33.5947312 20.1736613,33.5721505 20.2071559,33.566129 C20.2745215,33.5538978 20.3774516,33.6244624 20.3652204,33.7426344 C20.356,33.8248656 20.2854355,33.9293011 20.0449516,33.9293011 C19.983043,33.9293011 19.9179355,33.916129 19.8535806,33.8933602 C19.8851935,34.0026882 19.9407043,34.1012903 20.0146559,34.184086 C20.1493871,34.2183333 20.2984194,34.2390323 20.4623172,34.2390323 C20.7840914,34.2390323 21.0407581,34.1470161 21.2462419,34.0119086 C21.2942258,33.9134946 21.3213226,33.8020968 21.3213226,33.6850538" id="Fill-12" fill="#FFDF00"></path>
                            <path d="M21.3110296,33.6850538 C21.3110296,33.528871 21.2626694,33.3836022 21.1798737,33.2648656 C20.8330726,33.3454032 20.4362177,33.4202957 19.8598468,33.4923656 C19.8543898,33.5123118 19.8496855,33.5326344 19.845922,33.5535215 C19.8839328,33.5798656 19.9516747,33.605457 20.0709758,33.5992473 C20.1620511,33.5947312 20.1737177,33.5721505 20.2072124,33.566129 C20.2743898,33.5538978 20.3775081,33.6244624 20.3652769,33.7426344 C20.3560565,33.8248656 20.2854919,33.9293011 20.0448199,33.9293011 C19.9866747,33.9293011 19.9260833,33.9176344 19.8653038,33.8976882 C19.898422,34.0077688 19.9565672,34.1067473 20.0325887,34.1887903 C20.1626156,34.2204032 20.3058145,34.2390323 20.4621855,34.2390323 C20.7751156,34.2390323 21.0265134,34.1520968 21.2291747,34.0231989 C21.2816747,33.9219624 21.3110296,33.8066129 21.3110296,33.6850538" id="Fill-14" fill="#FFE000"></path>
                            <path d="M21.3009247,33.6850538 C21.3009247,33.5296237 21.252,33.3851075 21.1690161,33.2669355 C20.8271075,33.3467204 20.4351452,33.4199194 19.8704409,33.4910484 C19.8644194,33.5134409 19.8591505,33.5360215 19.8551989,33.559543 C19.8943387,33.5838172 19.9609516,33.6050806 20.0710323,33.5992473 C20.1619194,33.5947312 20.1737742,33.5721505 20.2072688,33.566129 C20.2744462,33.5538978 20.3775645,33.6244624 20.3651452,33.7426344 C20.3561129,33.8248656 20.2855484,33.9293011 20.0448763,33.9293011 C19.9903065,33.9293011 19.9336667,33.9191398 19.8772151,33.9010753 C19.9116505,34.0119086 19.9716774,34.1116398 20.0507097,34.1929301 C20.1758441,34.2219086 20.3130215,34.2390323 20.4622419,34.2390323 C20.766328,34.2390323 21.012457,34.1568011 21.2119194,34.0339247 C21.2685591,33.9304301 21.3009247,33.8113172 21.3009247,33.6850538" id="Fill-16" fill="#FFE200"></path>
                            <path d="M12.5793952,33.0517984 C13.2265188,33.2262339 13.6864113,33.3667984 14.7734812,33.4994597 C14.7734812,33.4994597 14.739422,33.6116102 14.503078,33.5991909 C14.4120027,33.5946747 14.400336,33.5722823 14.3668414,33.5660726 C14.2998522,33.5538414 14.1967339,33.6244059 14.2091532,33.742578 C14.2178091,33.8248091 14.2885618,33.9292446 14.5290457,33.9292446 C14.7697177,33.9292446 15.0512231,33.7320403 15.192164,33.5497016 C15.192164,33.5497016 15.3374328,33.5826317 15.4868414,33.5907231 C15.4868414,33.5907231 15.0241263,34.239164 14.1116801,34.239164 C13.1077823,34.239164 12.7368952,33.3421478 12.5793952,33.0517984" id="Fill-18" fill="#FFF100"></path>
                            <path d="M17.1858468,27.7146371 C20.6453898,27.7146371 24.4784543,25.5909274 27.1666801,22.5293683 C27.4570296,22.19875 27.950793,21.5713844 29.1202823,21.5713844 C30.2905242,21.5713844 31.8459543,22.6371909 31.6624866,24.5783737 C31.5292608,25.9936156 29.5062231,29.1833199 26.0466801,31.1495296 C22.5869489,33.1157392 19.4011962,33.53875 17.1858468,33.53875 C14.9708737,33.53875 11.7847446,33.1157392 8.32520161,31.1495296 C4.86547043,29.1833199 2.8424328,25.9936156 2.70901882,24.5783737 C2.52573925,22.6371909 4.08116935,21.5713844 5.25103495,21.5713844 C6.42090054,21.5713844 6.91466398,22.19875 7.20501344,22.5293683 C9.89305108,25.5909274 13.7263038,27.7146371 17.1858468,27.7146371" id="Fill-20" fill="#FFF100"></path>
                            <path d="M17.1858468,27.8390376 C15.4685887,27.8390376 13.6623253,27.3230699 11.9477016,26.4320753 C10.1713575,25.5096559 8.49211022,24.1828548 7.11186828,22.6114301 C6.97092742,22.4509194 6.78030914,22.2185269 6.49014785,22.0307312 C6.20186828,21.8438763 5.80802419,21.6955968 5.25103495,21.6955968 C5.18912634,21.6955968 5.12909946,21.6982312 5.07151882,21.7038763 C4.56063172,21.7520484 3.99762097,22.0006237 3.56162634,22.4334194 C3.12619624,22.8656505 2.81872312,23.4828548 2.81872312,24.2688495 C2.81872312,24.3685806 2.82342742,24.4677473 2.83245968,24.566914 C2.90509409,25.3361613 3.5599328,26.6539301 4.71944892,28.0106505 C5.63923387,29.0871828 6.87439516,30.1823441 8.38635753,31.0415376 C10.1043683,32.0179624 11.7546371,32.6112688 13.2504167,32.9605161 C14.7450672,33.3093871 16.085793,33.4145753 17.1858468,33.4145753 C18.2857124,33.4145753 19.6268145,33.3093871 21.1212769,32.9605161 C22.6170565,32.6112688 24.2675134,32.0179624 25.985336,31.0415376 C27.4972984,30.1819677 28.7326478,29.0871828 29.6524328,28.0106505 C30.8121371,26.6539301 31.4665995,25.3361613 31.5390457,24.566914 C31.5486425,24.4677473 31.5529704,24.3685806 31.5529704,24.2688495 C31.5529704,23.4828548 31.2454973,22.8656505 30.8102554,22.4334194 C30.3738844,22.0006237 29.8108737,21.7520484 29.2999866,21.7038763 C29.2424059,21.6982312 29.182379,21.6955968 29.1202823,21.6955968 C28.5634812,21.6955968 28.1698253,21.8438763 27.8813575,22.0307312 C27.5913844,22.2185269 27.4007661,22.4509194 27.2600134,22.6114301 C25.8799597,24.1828548 24.200336,25.5092796 22.4239919,26.4320753 C20.7095565,27.3230699 18.9031048,27.8390376 17.1858468,27.8390376 M17.1858468,27.5902742 C18.8622715,27.5902742 20.629207,27.0844677 22.3093952,26.2117258 C24.0597715,25.3022903 25.7141801,23.9958118 27.0731586,22.4479086 C27.2227554,22.2772366 27.4244758,22.0309194 27.74625,21.8222366 C28.0699059,21.6128011 28.5079704,21.4466452 29.1202823,21.4466452 C29.1838844,21.4466452 29.2520027,21.4504086 29.3233199,21.4569946 C29.8872715,21.509871 30.506922,21.7829086 30.9850672,22.2578548 C31.4635887,22.7326129 31.8017339,23.4092796 31.8017339,24.2688495 C31.8017339,24.3698978 31.7966532,24.4771559 31.7859274,24.589871 C31.7095296,25.4027742 31.0339919,26.7760538 29.8409812,28.1721022 C28.9046371,29.2676398 27.6472715,30.3821828 26.1080242,31.257371 C24.3663038,32.2471559 22.6936425,32.8483656 21.1777285,33.2026935 C19.6608737,33.556457 18.3009543,33.6631505 17.1858468,33.6631505 C16.0707392,33.6631505 14.7111962,33.556457 13.1939651,33.2026935 C11.6780511,32.8483656 10.005578,32.2471559 8.26385753,31.257371 C6.72442204,30.3827473 5.46705645,29.2676398 4.53090054,28.1722903 C3.33770161,26.7760538 2.66235215,25.4031505 2.58557796,24.589871 C2.57504032,24.4771559 2.56977151,24.3698978 2.56977151,24.2688495 C2.56977151,23.4092796 2.90791667,22.7326129 3.38662634,22.2578548 C3.86477151,21.7829086 4.48442204,21.509871 5.04818548,21.4569946 C5.11969086,21.4504086 5.1874328,21.4466452 5.25103495,21.4466452 C5.86372312,21.4466452 6.30178763,21.6128011 6.62525538,21.8222366 C6.94740591,22.0309194 7.14875,22.2772366 7.29853495,22.4479086 C8.65751344,23.9958118 10.3121102,25.3022903 12.0624866,26.2117258 C13.7426747,27.0844677 15.509422,27.5902742 17.1858468,27.5902742" id="Fill-22" fill="#221F20"></path>
                            <path d="M6.81681452,22.8337366 L6.7765457,22.7878226 C6.50106183,22.4713172 6.12377688,22.0381452 5.22280914,22.0381452 C4.6974328,22.0381452 4.10224462,22.3192742 3.70651882,22.7535753 C3.41090054,23.0785484 3.07576613,23.6488978 3.15818548,24.5210753 C3.27071237,25.7133333 5.1631586,28.8044355 8.53388441,30.7205914 C11.2505242,32.2643548 14.1517608,33.0471505 17.157621,33.0471505 C20.1634812,33.0471505 23.0647177,32.2643548 25.7813575,30.7205914 C29.1518952,28.8044355 31.0450941,25.7133333 31.1572446,24.5210753 C31.2392876,23.6488978 30.9043414,23.0785484 30.6085349,22.7535753 C30.2129973,22.3192742 29.6179973,22.0381452 29.0928091,22.0381452 C28.1916532,22.0381452 27.8141801,22.4713172 27.5388844,22.7878226 L27.4984274,22.8337366 C24.6020833,26.1322043 20.6393683,28.181586 17.157621,28.181586 C13.6758737,28.181586 9.7131586,26.1322043 6.81681452,22.8337366" id="Fill-24" fill="#E12E21"></path>
                            <path d="M28.299664,18.9423952 C28.299664,17.2825296 29.6450941,15.9367231 31.3051478,15.9367231 C32.9650134,15.9367231 34.3108199,17.2825296 34.3108199,18.9423952 C34.3108199,20.6020726 32.9650134,21.9476909 31.3051478,21.9476909 C29.6450941,21.9476909 28.299664,20.6020726 28.299664,18.9423952" id="Fill-26" fill="#FFF100"></path>
                            <path d="M28.4242527,18.9423952 C28.4242527,19.7377984 28.7467796,20.4583091 29.2680161,20.9793575 C29.7894409,21.5007823 30.5095753,21.8234973 31.3051667,21.8234973 C32.1007581,21.8234973 32.8208925,21.5007823 33.3425054,20.9793575 C33.8637419,20.4583091 34.1862688,19.7377984 34.1862688,18.9423952 C34.1862688,18.1466156 33.8637419,17.426293 33.3425054,16.9050565 C32.8208925,16.3838199 32.1007581,16.061293 31.3051667,16.061293 C30.5095753,16.061293 29.7894409,16.3836317 29.2680161,16.9048683 C28.7467796,17.426293 28.4242527,18.1466156 28.4242527,18.9423952 M28.1754892,18.9423952 C28.1754892,18.0779328 28.5256774,17.2955134 29.0920753,16.7291156 C29.6584731,16.1627177 30.4408925,15.8121532 31.3051667,15.8121532 C32.1694409,15.8121532 32.9520484,16.1627177 33.5182581,16.7291156 C34.0848441,17.2955134 34.4350323,18.0779328 34.4350323,18.9423952 C34.4350323,19.8064812 34.0848441,20.5890887 33.5182581,21.1554866 C32.9520484,21.7216962 32.1694409,22.0720726 31.3051667,22.0720726 C30.4408925,22.0720726 29.6584731,21.7216962 29.0920753,21.1554866 C28.5256774,20.5890887 28.1754892,19.8068575 28.1754892,18.9423952" id="Fill-28" fill="#221F20"></path>
                            <path d="M0.124400538,18.9471747 C0.124400538,17.2874973 1.47001882,15.9416909 3.13007258,15.9416909 C4.78975,15.9416909 6.13536828,17.2874973 6.13536828,18.9471747 C6.13536828,20.6072285 4.78975,21.9528468 3.13007258,21.9528468 C1.47001882,21.9528468 0.124400538,20.6072285 0.124400538,18.9471747" id="Fill-30" fill="#FFF100"></path>
                            <g id="Group-34" transform="translate(0.000000, 15.690349)">
                                <mask id="mask-4" fill="white">
                                    <use xlink:href="#path-3"></use>
                                </mask>
                                <g id="Clip-33"></g>
                                <path d="M0.248895161,3.25682527 C0.248895161,4.05260484 0.571422043,4.77292742 1.0926586,5.29397581 C1.61408333,5.81558871 2.33440591,6.13811559 3.12999731,6.13811559 C3.92558871,6.13811559 4.64572312,5.81558871 5.16695968,5.29397581 C5.68838441,4.77292742 6.01091129,4.05260484 6.01091129,3.25682527 C6.01091129,2.46123387 5.68838441,1.74109946 5.16695968,1.21967473 C4.64572312,0.698438172 3.92558871,0.37591129 3.12999731,0.37591129 C2.33440591,0.37591129 1.61408333,0.698438172 1.09284677,1.21967473 C0.571422043,1.74091129 0.248895161,2.46123387 0.248895161,3.25682527 M-5.64516131e-05,3.25682527 C-5.64516131e-05,2.3923629 0.350319892,1.61013172 0.916905914,1.04373387 C1.48330376,0.477336022 2.26572312,0.126959677 3.12999731,0.126959677 C3.99427151,0.126959677 4.77669086,0.477336022 5.34308871,1.04373387 C5.90948656,1.61031989 6.25967473,2.3923629 6.25967473,3.25682527 C6.25967473,4.12109946 5.90948656,4.90370699 5.34308871,5.47010484 C4.77669086,6.03631452 3.99427151,6.38669086 3.12999731,6.38669086 C2.26572312,6.38669086 1.48330376,6.03631452 0.916717742,5.47010484 C0.350319892,4.90370699 -5.64516131e-05,4.12109946 -5.64516131e-05,3.25682527" id="Fill-32" fill="#221F20" mask="url(#mask-4)"></path>
                            </g>
                            <path d="M32.1277984,10.8585242 L32.1447339,10.0539005 C32.3902984,10.23925 32.8577177,10.2464005 33.1315081,9.95379301 C33.257207,9.82019086 33.3281478,9.61621237 33.3166694,9.40282527 C33.3034973,9.16572849 33.1975565,8.91715323 33.0178522,8.74215323 C32.0058629,7.75575538 31.111293,6.76973387 31.111293,6.76973387 C31.0205941,6.62390054 30.8719382,6.51607796 30.7906478,6.47994892 C30.6638199,6.42349731 30.2263199,6.22309409 29.8925027,6.73097043 C29.5893575,7.19123925 29.6345188,7.84269086 29.6892769,8.07903495 L30.638793,9.36933065 C30.9626371,9.77992204 31.8750833,10.6551102 32.1277984,10.8585242" id="Fill-35" fill="#221F20"></path>
                            <path d="M11.8913065,2.48929032 C13.0845054,2.08923656 14.1736452,1.7591828 15.6421398,1.6285914 L11.8913065,2.48929032 Z" id="Fill-37" fill="#221F20"></path>
                            <path d="M11.8913065,2.49250806 C13.0845054,2.09207796 14.1736452,1.76240054 15.6421398,1.63180914 L15.8658763,1.5055457 C15.0446935,0.860303763 14.2304731,0.421298387 13.4196398,0.421298387 C12.9102581,0.421298387 11.8755,0.766594086 11.6429194,2.59167473 L11.8913065,2.49250806 Z" id="Fill-39" fill="#221F20"></path>
                            <path d="M22.483793,2.49250806 C21.2904059,2.09207796 20.2012661,1.76240054 18.7329597,1.63180914 L18.5092231,1.5055457 C19.3302177,0.860303763 20.1446263,0.421298387 20.9556478,0.421298387 C21.4648414,0.421298387 22.4997876,0.766594086 22.7319919,2.59167473 L22.483793,2.49250806 Z" id="Fill-41" fill="#221F20"></path>
                            <path d="M16.2083306,1.48935215 C16.4510726,1.45635215 17.0110726,1.42335215 17.2351855,1.42335215 C17.458922,1.42335215 18.0774435,1.50185215 18.2129274,1.52885215 L16.2083306,1.48935215 Z" id="Fill-43" fill="#221F20"></path>
                            <path d="M15.838422,1.56975 C16.4385027,0.419077957 16.9885296,1.88172044e-05 17.2928038,1.88172044e-05 C17.6732876,1.88172044e-05 18.1186909,0.60536828 18.4681263,1.38477688 L18.5418898,1.5603414 L18.2379919,1.53512634 C18.0315672,1.49805645 17.4589597,1.49184677 17.2350349,1.49184677 C17.010922,1.49184677 16.5256263,1.49184677 16.233207,1.51668548 L15.838422,1.56975 Z" id="Fill-45" fill="#221F20"></path>
                            <polygon id="Fill-47" fill="#FFF100" points="14.6640027 28.8137124 14.1267715 30.8184973 13.1249435 28.4014274 12.5013414 28.2337661 11.7416909 31.0687661 12.4179812 31.2503522 12.9595403 29.2293844 13.9771747 31.6680941 14.5847823 31.8310511 15.3442446 28.9960511"></polygon>
                            <polygon id="Fill-49" fill="#FFF100" points="16.9989731 29.171672 16.2285968 29.1312151 16.0750484 32.0618065 16.8454247 32.1022634"></polygon>
                            <polygon id="Fill-51" fill="#FFF100" points="17.6909194 29.1463253 17.7449247 29.5330188 18.5668602 29.4167285 18.9211882 31.937293 19.6851667 31.8298468 19.3310269 29.3100349 20.1403548 29.1960027 20.0861613 28.8098737"></polygon>
                            <path d="M24.1402151,27.1771237 L23.1455376,27.7512366 L24.6174194,30.3015323 L25.6049462,29.7309946 C26.6321774,29.1382527 26.7270161,28.2431183 26.3245161,27.5280645 C25.8379032,26.6773387 25.0396774,26.6577688 24.1402151,27.1771237 M25.6410753,27.9520161 C26.0142204,28.6062903 25.9391398,29.0816129 25.3635215,29.4143011 L25.0904839,29.5718011 L24.0113172,27.7034409 L24.3065591,27.532957 C24.9950806,27.1351613 25.3836559,27.4889247 25.6410753,27.9520161" id="Fill-53" fill="#FFF100"></path>
                            <polygon id="Fill-55" fill="#FFF100" points="22.276879 30.7876747 21.9840833 29.886707 22.8536263 29.6040726 22.7315027 29.2290457 21.8625242 29.5116801 21.6122554 28.7420565 22.5056962 28.4518952 22.385078 28.0811962 20.7541909 28.6112769 21.6609919 31.4020565 23.4595403 30.8179704 23.3376048 30.4429435"></polygon>
                            <path d="M11.111879,27.5543898 L10.2429005,29.1220511 C9.98077688,29.5947392 9.71037366,29.894121 9.26835753,29.6387715 C8.82954032,29.3958414 8.93096505,29.0326694 9.19948656,28.5483145 L10.0705349,26.9768898 L9.36865323,26.5879382 L8.44905645,28.2474274 C7.94155645,29.1628844 8.5813414,29.7270242 9.0773629,30.0015672 C9.61120699,30.29775 10.386664,30.5180995 10.889836,29.6103575 L11.8137608,27.9431532 L11.111879,27.5543898 Z" id="Fill-57" fill="#FFF100"></path>
                            <path d="M10.6148038,10.3164382 L10.6148038,24.0571371 L17.1857715,28.2814113 L23.7567392,24.0571371 L23.7648306,10.338078 C23.5567124,10.1515995 23.1190242,9.7434543 22.774293,9.53232527 L11.5669543,9.53232527 C11.2805565,9.73310484 10.7119005,10.2106855 10.6148038,10.3164382" id="Fill-59" fill="#FFF100"></path>
                            <polygon id="Fill-61" fill="#221F20" points="10.7392043 10.3164382 10.7392043 23.9897715 17.1857903 28.1335081 23.6321882 23.9897715 23.6406559 10.338078 23.8894194 10.338078 23.8811398 24.0571371 23.8811398 24.124879 23.8235591 24.1619489 17.2527796 28.3854704 17.1857903 28.42875 17.1186129 28.3854704 10.5476452 24.1619489 10.4902527 24.124879 10.4902527 10.3164382"></polygon>
                            <path d="M23.6817339,10.430922 C23.6226478,10.3776694 23.6672446,10.4173737 23.6043952,10.3605457 L23.6038306,10.3605457 C23.3797177,10.1578844 23.00375,9.81861022 22.7096371,9.6383414 L22.8389113,9.42627151 C23.1572984,9.62140591 23.5417339,9.96858333 23.7711156,10.1759489 L23.7707392,10.1759489 C23.7765726,10.1812177 23.7423253,10.1505457 23.8478898,10.2451962 L23.6817339,10.430922 Z" id="Fill-63" fill="#221F20"></path>
                            <mask id="mask-6" fill="white">
                                <use xlink:href="#path-5"></use>
                            </mask>
                            <g id="Clip-66"></g>
                            <polygon id="Fill-65" fill="#221F20" mask="url(#mask-6)" points="11.5667473 9.90803763 22.7742742 9.90803763 22.7742742 9.40803763 11.5667473 9.40803763"></polygon>
                            <path d="M11.6382715,9.63450269 C11.5041048,9.72858871 11.3146156,9.87780914 11.1414973,10.0202554 C10.9386478,10.1873522 10.7555565,10.3467339 10.7062554,10.4005511 L10.5235403,10.2323253 C10.5782984,10.1722984 10.7719274,10.0033199 10.9839973,9.82869624 C11.1682177,9.67702957 11.3648575,9.52197581 11.4954489,9.43033602 L11.6382715,9.63450269 Z" id="Fill-67" fill="#221F20" mask="url(#mask-6)"></path>
                            <path d="M19.8113548,20.176164 L19.8113548,19.6654651 C19.8113548,19.6654651 19.6745538,19.4541478 19.3384785,19.4541478 C19.0027796,19.4541478 18.8036935,19.5535027 18.8036935,19.6408145 C18.8036935,19.7776156 19.1021344,20.176164 19.8113548,20.176164 L19.8113548,20.176164 Z M17.1607634,15.6542016 L17.6712742,14.7664059 L18.0688817,15.6542016 L18.7286129,15.6542016 C18.330629,16.0277231 18.1688011,16.5918629 18.1688011,16.9653844 L18.1688011,17.3757876 C18.1688011,17.5502231 18.0816774,17.8364328 18.0816774,17.8364328 C18.0816774,17.8364328 18.6529677,18.2729919 18.7412204,18.3465672 C18.7786667,18.3776156 18.8179946,18.3958683 18.791086,18.4711371 C18.7455484,18.5998468 18.3592312,18.7714597 18.3180215,18.8070242 C18.231086,18.8815403 18.2077527,18.9306532 18.2329677,19.005922 C18.2581828,19.0806263 18.330629,19.093422 18.4798495,19.0431801 C18.6292581,18.9936909 18.9404946,18.8318629 19.2020538,18.7200887 C19.4628602,18.6079382 19.8113548,18.6325887 19.8113548,18.6325887 L19.8113548,18.1346855 L18.8283441,18.1346855 L18.8283441,16.5419973 L18.6540968,16.2640672 L19.0899032,15.4923737 L19.5253333,16.2683952 L19.3512742,16.5419973 L19.3512742,17.3757876 L19.8551989,17.3757876 L19.8551989,16.5419973 L19.6811398,16.2683952 L20.1161935,15.4965134 L20.5516237,16.2683952 L20.3777527,16.5419973 L20.3777527,17.3757876 L20.8814892,17.3757876 L20.8814892,16.5419973 L20.7078065,16.2683952 L21.1430484,15.4965134 L21.5788548,16.2683952 L21.4042312,16.5419973 L21.4096882,18.1339328 L20.4214086,18.1343091 L20.4214086,18.865922 C20.6455215,19.0772392 20.8574032,19.5535027 20.8574032,19.8399005 C20.8574032,20.1261102 20.6703602,20.2506801 20.6703602,20.2506801 C20.7326452,20.4742285 20.7202258,20.5679382 20.6951989,20.773422 C20.6697957,20.9828575 20.4089892,21.308207 20.4089892,21.308207 L20.4089892,25.1028844 C20.4089892,25.3612446 19.8113548,25.3365941 19.8113548,25.1149274 L19.8113548,21.3955188 C19.4754677,21.0221855 18.5545538,20.736164 18.5545538,20.736164 C18.2184785,21.0718629 18.0069731,21.657078 18.0069731,21.657078 C18.1563817,21.7562446 18.3803065,21.657078 18.4672419,21.5573468 C18.5545538,21.4578038 18.7286129,21.4331532 18.8283441,21.4950618 C18.9280753,21.5573468 18.9531022,21.5823737 18.9152796,21.7319704 C18.8782097,21.8808145 18.8161129,22.1286371 18.8161129,22.3023199 C18.8161129,22.4767554 19.0151989,22.4393091 19.1644194,22.4521048 C19.4628602,22.4767554 19.512914,22.8128306 19.4878871,22.9994973 C19.4628602,23.186164 19.3759247,23.584336 19.3759247,23.8334758 C19.3759247,24.0822392 19.3883441,24.3311909 19.413371,24.4683683 C19.4380215,24.604793 19.4878871,24.7543898 19.4754677,24.9282608 C19.4585323,25.164793 19.3136398,25.2024274 19.1644194,25.053207 C19.0151989,24.9032339 16.9366505,22.6884489 16.9366505,22.6884489 C16.7998495,23.1361102 17.3722688,23.9076156 17.5591237,24.1447124 C17.7456022,24.3810565 17.7331828,24.5551156 17.571543,24.7169435 C17.4095269,24.8785833 17.0984785,24.965707 17.0361935,25.1149274 C16.9740968,25.2645242 17.1857903,25.7125618 17.6212204,26.2721855 C18.0568387,26.8323737 17.1233172,27.2058952 16.5633172,27.3178575 C16.0033172,27.4300081 16.0033172,27.043879 16.0407634,26.8323737 C16.0780215,26.6206801 16.0780215,26.4964866 16.0656022,26.3098199 C16.0531828,26.1233414 15.8791237,25.8619704 15.6424032,25.5505457 C15.4060591,25.2398737 15.4060591,24.9534758 15.5056022,24.2314597 C15.6053333,23.5096317 15.5804946,23.0491747 15.5804946,23.0491747 C15.5804946,23.0491747 15.3313548,23.0615941 14.9704409,23.0491747 C14.6095269,23.0369435 14.3108978,22.8267554 14.2860591,21.9553306 C14.2612204,21.0840941 14.2403333,19.005922 14.1821882,18.7902769 C14.1242312,18.5748199 13.8918387,18.5332339 13.7922957,18.5085833 C13.6927527,18.4835565 13.6856022,18.3341478 13.7851452,18.2840941 C14.0444462,18.1548199 14.3566237,17.8364328 14.2403333,17.6373468 C14.1242312,17.4380726 13.667914,17.4796586 13.3610054,17.628879 C13.0540968,17.7780995 12.7304409,18.1015672 12.6472688,18.1930188 C12.5642849,18.2840941 12.4980484,18.2840941 12.506328,18.1849274 C12.5146075,18.0850081 12.448371,17.6123199 12.4069731,17.4463522 C12.3653871,17.2803844 12.2159785,16.9653844 12.1663011,16.8824005 C12.1164355,16.7992285 12.1663011,16.7661102 12.2490968,16.7992285 C12.3322688,16.8325349 12.5146075,16.9070511 12.6888548,16.9569167 C12.8632903,17.0067823 13.0290699,16.9237984 13.1120538,16.7576425 C13.1950376,16.5918629 13.3525376,16.2352769 13.4357097,16.0775887 C13.5186935,15.9197124 13.651543,15.9530188 13.7591774,15.9780457 C13.867,16.0028844 13.966543,16.069121 14.066086,16.110707 C14.165629,16.152293 14.2486129,16.1440134 14.2819194,16.0941478 C14.3152258,16.0442823 14.3566237,16.0277231 14.4147688,15.9031532 C14.4727258,15.7787715 14.5472419,15.8367285 14.5555215,15.8865941 C14.8530215,17.6710296 15.6258441,17.7534489 15.6258441,17.7534489 C15.5099301,18.0518898 15.2361398,18.5253306 15.1697151,18.6410565 C15.1032903,18.7571586 15.0782634,18.9148468 15.0617043,19.0390403 C15.0451452,19.1637984 15.1032903,20.3415672 15.1862742,20.773422 C15.2692581,21.2047124 15.5345806,21.039121 15.6177527,20.9060833 C15.7005484,20.773422 15.9577796,20.2258414 15.9577796,20.2258414 C15.9577796,20.2258414 16.0242043,20.076621 16.0242043,19.9520511 C16.0242043,19.8274812 15.808371,19.5535027 15.7585054,19.4705188 C15.708828,19.3879113 15.5264892,19.2221317 15.5264892,18.8070242 C15.5264892,18.392293 15.8996344,18.1015672 16.0322957,17.9937446 C16.1651452,17.8861102 16.1651452,17.7368898 16.148586,17.6454382 C16.0902527,17.3246048 15.7502258,16.6498199 15.5846344,16.3925887 C15.4184785,16.1355457 15.0950108,15.645922 15.0950108,15.645922 L15.7669731,15.645922 L16.1982634,14.7500349 L16.671328,15.6500618 L17.1607634,15.6542016 Z M17.0518118,18.3761102 C17.2727258,18.013879 17.3645538,17.6373468 17.3645538,17.6373468 L16.7328602,17.6373468 C16.7328602,17.6373468 16.8340968,18.0232876 17.0518118,18.3761102 L17.0518118,18.3761102 Z M16.3922688,16.548207 C16.4195538,16.7346855 16.5572957,16.806379 16.6630484,16.7503038 C16.7688011,16.6944167 16.7469731,16.5419973 16.672457,16.4238253 C16.5975645,16.3056532 16.4436398,16.1735565 16.3975376,16.1936909 C16.347672,16.2155188 16.3768387,16.4424543 16.3922688,16.548207 L16.3922688,16.548207 Z M17.6501989,16.1936909 C17.6042849,16.1735565 17.4407634,16.3056532 17.3660591,16.4238253 C17.2911667,16.5419973 17.2695269,16.6944167 17.3754677,16.7503038 C17.4810323,16.806379 17.6142581,16.7337446 17.6462473,16.548207 C17.6648763,16.4394435 17.6998763,16.2155188 17.6501989,16.1936909 L17.6501989,16.1936909 Z" id="Fill-68" fill="#E12E21" mask="url(#mask-6)"></path>
                            <polygon id="Fill-69" fill="#E12E21" mask="url(#mask-6)" points="11.1294355 14.5707258 23.252043 14.5707258 23.252043 13.7438978 11.1294355 13.7438978"></polygon>
                            <polygon id="Fill-70" fill="#E12E21" mask="url(#mask-6)" points="11.1294355 13.3188172 23.252043 13.3188172 23.252043 10.0254301 11.1294355 10.0254301"></polygon>
                            <polygon id="Fill-71" fill="#FFF100" mask="url(#mask-6)" points="20.8661344 13.4169489 20.8661344 12.8546909 19.9854892 12.8546909 19.9854892 12.4920833 20.7041183 12.4920833 20.7041183 10.899207 20.0443871 10.899207 19.8204624 10.4637769 19.5963495 10.899207 18.9368065 10.899207 18.9368065 12.4920833 19.6554355 12.4920833 19.6554355 12.8546909 17.9306505 12.8546909 17.9306505 12.4920833 18.6489032 12.4920833 18.6489032 10.899207 17.9893602 10.899207 17.7652473 10.4637769 17.5415108 10.899207 16.8817796 10.899207 16.8817796 12.4920833 17.6002204 12.4920833 17.6002204 12.8546909 15.8415645 12.8546909 15.8415645 12.4920833 16.5600054 12.4920833 16.5600054 10.899207 15.9002742 10.899207 15.6763495 10.4637769 15.4524247 10.899207 14.7926935 10.899207 14.7926935 12.4920833 15.5111344 12.4920833 15.5111344 12.8546909 14.1207312 12.8584543 12.7354086 12.5347984 13.0146559 13.4169489"></polygon>
                            <polygon id="Fill-72" fill="#FFF100" mask="url(#mask-6)" points="13.213836 12.4631425 14.1428414 12.691207 14.641121 11.2927124 14.641121 10.940078"></polygon>
                            <path d="M15.4557366,1.53960484 C14.0164086,1.66756183 13.130871,1.97352957 11.9610054,2.36568011 C12.048129,1.86231989 12.1649839,1.56425538 12.3683978,1.26769624 C12.3520269,1.52793817 12.5642849,1.80511559 12.9872957,1.80511559 C13.4099301,1.80511559 13.6453333,1.56124462 13.6453333,1.4146586 C13.6453333,1.2686371 13.556328,1.05713172 13.328828,1.05713172 C13.1011398,1.05713172 13.0524032,1.21971237 13.0683978,1.28481989 C13.0847688,1.34992742 13.0360323,1.36611022 12.9709247,1.38248118 C12.9058172,1.39847581 12.7270538,1.30081452 12.7921613,1.07331452 C12.8634785,0.823045699 13.1662473,0.686997312 13.523586,0.686997312 C13.523586,0.686997312 14.3748763,0.652938172 15.4557366,1.53960484" id="Fill-73" fill="#FFF100" mask="url(#mask-6)"></path>
                            <path d="M22.4244435,2.37572849 C21.2549543,1.98320161 20.329336,1.67742204 18.8903844,1.54927688 C19.55275,1.08769086 20.1714597,0.695728495 20.8515134,0.695728495 C21.2088522,0.695728495 21.5114328,0.83158871 21.58275,1.08185753 C21.6478575,1.3095457 21.4689059,1.40701882 21.4039866,1.39083602 C21.338879,1.37446505 21.2903306,1.35809409 21.3065134,1.29317473 C21.3226962,1.22825538 21.2737715,1.06567473 21.0462715,1.06567473 C20.8185833,1.06567473 20.729578,1.27699194 20.729578,1.42338978 C20.729578,1.56978763 20.9649812,1.8136586 21.3876156,1.8136586 C21.81025,1.8136586 22.0230726,1.53629301 22.0065134,1.27623925 C22.2097392,1.57242204 22.3376962,1.87255645 22.4244435,2.37572849" id="Fill-74" fill="#FFF100" mask="url(#mask-6)"></path>
                            <path d="M16.3423844,1.27223118 C16.3038091,1.33376344 16.26975,1.37986559 16.2285403,1.44854839 C16.4662016,1.43612903 17.0149113,1.42389785 17.2345081,1.42389785 C17.4541048,1.42389785 18.0600188,1.45325269 18.1930565,1.46303763 C17.9785403,0.966451613 17.5737823,0.28094086 17.2911478,0.28094086 C17.2356371,0.28094086 17.1120081,0.251962366 16.8798038,0.519354839 C16.8798038,0.519354839 16.8438629,0.637150538 16.9912016,0.614758065 C17.1782446,0.586155914 17.2489973,0.77922043 17.2352608,0.875 C17.2025188,1.09854839 16.9424651,1.31400538 16.6822231,1.31400538 C16.4221694,1.31400538 16.3423844,1.27223118 16.3423844,1.27223118" id="Fill-75" fill="#FFF100" mask="url(#mask-6)"></path>
                            <path d="M3.80717204,9.36933065 L4.75706452,8.07903495 C4.81182258,7.84269086 4.85660753,7.19123925 4.55383871,6.73097043 C4.22002151,6.22309409 3.78214516,6.42349731 3.65512903,6.47994892 C3.57402688,6.51607796 3.42537097,6.62390054 3.33448387,6.76973387 C3.33448387,6.76973387 2.42335484,7.77683065 1.4153172,8.76755645 C1.27494086,8.90529839 1.11706452,9.16572849 1.10426882,9.40282527 C1.09241398,9.61621237 1.17633871,9.8286586 1.30147312,9.9626371 C1.57563978,10.2546801 2.05566667,10.2394382 2.30123118,10.0539005 L2.31779032,10.8585242 C2.57088172,10.6551102 3.48351613,9.77992204 3.80717204,9.36933065" id="Fill-76" fill="#221F20" mask="url(#mask-6)"></path>
                            <path d="M17.1858468,7.48917204 C22.5954167,7.48917204 25.6759812,12.5688763 26.345121,13.4611882 C27.5400134,15.0540645 28.9998522,16.3456774 30.6926478,15.9168333 C33.1814113,15.286457 33.0485618,11.5986613 33.0485618,11.5986613 C32.4514919,11.1669946 31.4272715,10.6235538 29.5641801,7.98124194 C27.7390995,5.39293548 23.6072177,1.55253226 17.1858468,1.55253226 C10.7642876,1.55253226 6.63259409,5.39293548 4.80732527,7.98124194 C2.94442204,10.6235538 1.92020161,11.1669946 1.32294355,11.5986613 C1.32294355,11.5986613 1.19009409,15.286457 3.67923387,15.9168333 C5.37221774,16.3456774 6.83186828,15.0540645 8.02638441,13.4611882 C8.69571237,12.5688763 11.7766532,7.48917204 17.1858468,7.48917204" id="Fill-77" fill="#FFF100" mask="url(#mask-6)"></path>
                            <path d="M17.1858468,7.61366667 C12.2849059,7.61366667 9.30952957,11.8537473 8.34157258,13.2334247 C8.2559543,13.355172 8.18633065,13.4545269 8.12573925,13.5354409 C7.52038978,14.3426989 6.8465457,15.0743118 6.1068414,15.5517043 C5.35321237,16.0379409 4.53297043,16.2614892 3.64893817,16.0373763 C1.06176075,15.3819731 1.19818548,11.6061129 1.19837366,11.5951989 L1.2000672,11.5344194 L1.25049731,11.4981022 C1.31842742,11.4489892 1.38635753,11.4021344 1.45974462,11.3515161 C2.07168011,10.9292581 3.0550672,10.2508978 4.70571237,7.90966129 C5.7709543,6.39958065 7.61485215,4.4661129 10.2347715,3.10562903 C12.141707,2.11527957 14.459422,1.42826344 17.1858468,1.42826344 C19.9122715,1.42826344 22.2296102,2.11527957 24.1367339,3.10562903 C26.7566532,4.4661129 28.6007392,6.39939247 29.665793,7.90966129 C31.31625,10.2503333 32.2994489,10.9290699 32.9115726,11.3511398 C32.9847715,11.4017581 33.053078,11.4489892 33.1208199,11.4981022 L33.1714382,11.5344194 L33.1729435,11.5951989 C33.1733199,11.6061129 33.3097446,15.3819731 30.7227554,16.0373763 C29.8389113,16.2614892 29.0184812,16.0379409 28.2650403,15.5517043 C27.5255242,15.0743118 26.8516801,14.3426989 26.2463306,13.5354409 C26.1853629,13.4545269 26.1157392,13.355172 26.030121,13.2334247 C25.062164,11.8537473 22.0865995,7.61366667 17.1858468,7.61366667 M17.1858468,7.36471505 C22.2156855,7.36471505 25.2469489,11.6847688 26.2331586,13.090414 C26.3225403,13.2176183 26.3953629,13.3214892 26.4444758,13.3865968 C27.0338306,14.1724032 27.6869758,14.883129 28.399207,15.3426452 C29.0975134,15.793129 29.8535887,16.0012473 30.6627285,15.796328 C32.8724328,15.236328 32.9296371,12.1363817 32.925121,11.6629409 C32.8775134,11.6294462 32.8253898,11.5933172 32.7706317,11.5554946 C32.1445833,11.1232634 31.1380511,10.4289086 29.4629435,8.05267204 C28.4148253,6.56686559 26.6006586,4.66501075 24.023078,3.32635484 C22.1481317,2.35256452 19.8686156,1.67702688 17.1858468,1.67702688 C14.5028898,1.67702688 12.2231855,2.35256452 10.3484274,3.32635484 C7.77103495,4.66501075 5.95686828,6.56686559 4.90893817,8.05267204 C3.23307796,10.4294731 2.22692204,11.1236398 1.60068548,11.5556828 C1.54573925,11.5935054 1.49380376,11.6294462 1.44619624,11.6629409 C1.44205645,12.1363817 1.49926075,15.236328 3.70915323,15.796328 C4.51829301,16.0012473 5.27436828,15.793129 5.97267473,15.3426452 C6.68452957,14.883129 7.33805108,14.1724032 7.92740591,13.3865968 C7.97633065,13.3214892 8.04915323,13.2176183 8.13834677,13.090414 C9.12474462,11.684957 12.1561962,7.36471505 17.1858468,7.36471505" id="Fill-78" fill="#221F20" mask="url(#mask-6)"></path>
                            <path d="M17.1858468,7.00982258 C22.4006586,7.00982258 25.5043683,11.433371 26.5244489,12.8868118 C26.6068683,13.0047957 26.6785618,13.1064086 26.7284274,13.173586 C28.108293,15.0131559 29.3665995,15.7586935 30.5748522,15.4523495 C32.3225941,15.0095806 32.5372984,12.6047419 32.5613844,11.8782097 L32.5621371,11.8509247 L32.540121,11.8356828 C31.9253629,11.4117312 30.89625,10.7021344 29.1727823,8.2575914 C28.1427285,6.797 24.2347715,2.03191935 17.1858468,2.03191935 C10.1371102,2.03191935 6.22896505,6.797 5.19909946,8.2575914 C3.48748656,10.6848226 2.41321237,11.4265968 1.83608871,11.8247688 L1.81388441,11.8401989 L1.81444892,11.8674839 C1.83966398,12.5970269 2.05662634,15.0112742 3.79665323,15.4523495 C5.00528226,15.7586935 6.26340054,15.0131559 7.64288978,13.173586 C7.69331989,13.1064086 7.7646371,13.0047957 7.84724462,12.8871882 C8.8671371,11.433371 11.9708468,7.00982258 17.1858468,7.00982258" id="Fill-79" fill="#E12E21" mask="url(#mask-6)"></path>
                            <polygon id="Fill-80" fill="#FFF100" mask="url(#mask-6)" points="5.96599462 9.04755645 5.4216129 9.69637366 6.44244624 11.8061586 4.25193548 11.0903522 3.78282258 11.6490349 6.03129032 13.5354597 6.37075269 13.1308898 4.78370968 11.7937392 6.91268817 12.4852715 7.13604839 12.2188199 6.12198925 10.185621 7.71825269 11.5248414 8.21427419 10.933793"></polygon>
                            <path d="M7.62215323,7.27379032 L7.12180376,7.81026882 L8.5276371,10.6059409 L8.87067473,10.2380645 L8.48868548,9.49798387 L9.16930376,8.76825269 L9.93723387,9.09435484 L10.5034435,8.48731183 L7.62215323,7.27379032 Z M8.80820161,8.60586022 L8.29919624,9.15155914 L7.77758333,8.14352151 L8.80820161,8.60586022 Z" id="Fill-81" fill="#FFF100" mask="url(#mask-6)"></path>
                            <polygon id="Fill-82" fill="#FFF100" mask="url(#mask-6)" points="11.0549194 4.61725269 12.1547849 6.37741398 9.70384409 5.46139247 9.15626344 5.80386559 10.7115054 8.29244086 11.3053763 7.92174194 10.1966667 6.14727957 12.6741398 7.06631183 13.2074194 6.7326828 11.6523656 4.24410753"></polygon>
                            <polygon id="Fill-83" fill="#FFF100" mask="url(#mask-6)" points="20.3431478 6.05840591 20.6515618 5.16270699 21.5154597 5.46020699 21.6445457 5.08743817 20.7800833 4.79012634 21.0431478 4.02464247 21.9311317 4.33061022 22.0581478 3.96179301 20.4368575 3.40367473 19.4816962 6.17845968 21.269707 6.7941586 21.397664 6.42157796"></polygon>
                            <polygon id="Fill-84" fill="#FFF100" mask="url(#mask-6)" points="25.363164 5.87279301 25.0987823 6.15975538 25.7159866 6.71523925 24.0128414 8.60674462 24.5862016 9.12271237 26.2893468 7.23158333 26.8969543 7.77841129 27.1575726 7.48881452"></polygon>
                            <polygon id="Fill-85" fill="#FFF100" mask="url(#mask-6)" points="26.2055161 10.2795941 26.9311075 9.67085753 27.5187688 10.3708575 27.8207849 10.1173898 27.2335 9.41738978 27.8531505 8.89709409 28.4569946 9.61704032 28.7554355 9.36620699 27.6531237 8.05238978 25.4054086 9.93900269 26.6204355 11.3873629 26.9224516 11.1342715"></polygon>
                            <path d="M29.2155349,12.4731532 C29.2213683,12.4793629 29.6694059,12.7015941 30.1652392,12.2556263 C30.5794059,11.882293 30.4401586,11.3704651 30.0079274,10.8906263 L29.2081962,10.0028306 L27.0274704,11.9665941 L27.5434382,12.5397661 L28.4099704,11.759793 L28.6651317,12.0433683 L28.1134113,13.2790941 L28.7686263,13.8063522 L29.2155349,12.4731532 Z M29.6061801,11.0268629 C29.8105349,11.2541747 29.811664,11.524578 29.577578,11.7349543 C29.3440565,11.9455188 29.0497554,11.9001694 28.8254543,11.6510296 L28.6933575,11.5044435 L29.4345672,10.8368091 L29.6061801,11.0268629 Z" id="Fill-86" fill="#FFF100" mask="url(#mask-6)"></path>
                            <polygon id="Fill-87" fill="#FFF100" mask="url(#mask-6)" points="18.1773441 3.15771505 18.1568333 4.35637097 17.0037151 4.33642473 17.0247903 3.13739247 16.2532849 3.12422043 16.2022903 6.0583871 16.9734194 6.07212366 16.9969409 4.73026882 18.149871 4.7505914 18.1263495 6.09188172 18.8976667 6.10561828 18.9488495 3.17107527"></polygon>
                            <path d="M22.3549704,7.5192043 C22.9021747,7.84794086 23.5003737,7.79525269 23.7783038,7.33178495 C23.9830349,7.00812903 23.9849167,6.74073656 23.7412339,6.26202688 C23.67575,6.12334409 23.5954005,6.02549462 23.5402661,5.90280645 C23.4335726,5.69976882 23.3336532,5.53549462 23.4281156,5.37874731 C23.529164,5.21089785 23.7645672,5.19866667 23.979836,5.32794086 C24.206207,5.46380108 24.2989758,5.68885484 24.3443253,5.84503763 L24.6997823,5.6911129 C24.5906425,5.40208065 24.4295672,5.14127419 24.065078,4.92224194 C23.437336,4.54514516 22.9256962,4.64468817 22.71325,4.99863978 C22.4985457,5.35616667 22.5595134,5.65103226 22.7192715,5.95549462 C22.7192715,5.95549462 22.8216371,6.13162366 22.881664,6.24697312 C23.021664,6.48482258 23.1855618,6.78194624 23.0717177,6.97162366 C22.9315296,7.20495699 22.6869059,7.2567043 22.451879,7.1106828 C22.1498629,6.91931183 22.0794866,6.69802151 22.0160726,6.48124731 L21.6269328,6.64947312 C21.7129274,6.94433871 21.9138952,7.25406989 22.3549704,7.5192043" id="Fill-88" fill="#FFF100" mask="url(#mask-6)"></path>
                            <path d="M14.3548172,3.31152688 C13.3938226,3.51606989 12.7643871,4.22115054 12.9719409,5.17725269 C13.0903011,5.69303226 13.5526398,6.64687634 15.0107849,6.33676882 C15.4140376,6.25961828 15.6347634,6.09609677 15.847586,5.89475269 L15.5790645,5.5884086 C15.4814032,5.7001828 15.3295484,5.86219892 14.9942258,5.93332796 C14.290086,6.08292473 13.8695215,5.51012903 13.7648978,5.01711828 C13.6100323,4.28813978 14.0347366,3.78214516 14.5194677,3.67940323 C14.8591183,3.60714516 15.0685538,3.69690323 15.2014032,3.75072043 L15.205543,3.74996774 L15.2949247,3.37588172 C15.0627204,3.28254839 14.785543,3.22026344 14.3548172,3.31152688" id="Fill-89" fill="#FFF100" mask="url(#mask-6)"></path>
                            <path d="M29.9127312,8.19205108 C29.8722742,8.01799194 29.8152581,7.27471237 30.097328,6.88256183 C30.3581344,6.52089516 30.5956075,6.64320699 30.7228118,6.69984677 C30.7803925,6.72543817 30.9523817,6.83683602 30.9862527,7.05662097 C31.0045054,7.17460484 30.9674355,7.34960484 30.8763602,7.47775 C30.6974086,7.70976613 30.2915215,7.86350269 30.2915215,7.86350269 C30.2915215,7.86350269 30.8120054,8.88339516 31.9152581,9.89632527 L31.9114946,10.5846586 C30.4008495,9.12783065 29.9127312,8.19205108 29.9127312,8.19205108" id="Fill-90" fill="#FFF100" mask="url(#mask-6)"></path>
                            <path d="M30.6701989,7.98146774 C30.8197957,8.2388871 31.1989624,8.86869892 32.1481022,9.75837634 C32.3056022,9.90590323 32.698129,10.0287796 32.920172,9.77982796 C33.0050376,9.68423656 33.0594194,9.54743548 33.0509516,9.38861828 C33.0409785,9.2060914 32.9286398,8.99289247 32.820629,8.90012366 C32.6309516,8.73773118 31.8148495,7.91334946 31.2300108,7.26603763 C31.2170269,7.38402151 31.1137204,7.58141398 31.1137204,7.58141398 C31.0354409,7.69187097 30.9370269,7.85125269 30.6701989,7.98146774" id="Fill-91" fill="#FFF100" mask="url(#mask-6)"></path>
                            <path d="M2.53360484,10.5432043 L2.52965323,9.89325806 C3.63347043,8.88032796 4.15470699,7.86344624 4.15470699,7.86344624 C4.15470699,7.86344624 3.74863172,7.70970968 3.56986828,7.47769355 C3.47841667,7.34954839 3.4411586,7.17473656 3.45959946,7.05675269 C3.49384677,6.83677957 3.66564785,6.72538172 3.72285215,6.69997849 C3.8504328,6.64315054 4.08771774,6.52083871 4.34833602,6.88250538 C4.63059409,7.27465591 4.5564543,8.01304301 4.51656183,8.18710215 C4.51656183,8.18710215 4.00209946,9.08298925 2.53360484,10.5432043" id="Fill-92" fill="#FFF100" mask="url(#mask-6)"></path>
                            <path d="M3.75672312,7.98146774 C3.60769086,8.2388871 3.22852419,8.86869892 2.27881989,9.75837634 C2.12150806,9.90590323 1.72879301,10.0287796 1.50731452,9.77982796 C1.42207258,9.68423656 1.36769086,9.54743548 1.37634677,9.38861828 C1.38613172,9.2060914 1.4986586,8.99289247 1.60685753,8.90012366 C1.79634677,8.73773118 2.61244892,7.91334946 3.19728763,7.26603763 C3.21027151,7.38402151 3.31357796,7.58141398 3.31357796,7.58141398 C3.39166935,7.69187097 3.49008333,7.85125269 3.75672312,7.98146774" id="Fill-93" fill="#FFF100" mask="url(#mask-6)"></path>
                            <path d="M0.690008065,18.972164 C0.690008065,17.6218414 1.78479301,16.5272446 3.13492742,16.5272446 C4.48506183,16.5272446 5.5796586,17.6218414 5.5796586,18.972164 C5.5796586,20.3226747 4.48506183,21.4168952 3.13492742,21.4168952 C1.78479301,21.4168952 0.690008065,20.3226747 0.690008065,18.972164" id="Fill-94" fill="#E12E21" mask="url(#mask-6)"></path>
                            <path d="M3.75130376,21.0968145 C3.62466398,21.1380242 3.56633065,21.0478898 3.5074328,20.980336 C3.28030914,20.7208468 3.22141129,20.0223522 3.22141129,19.9295833 C3.22141129,19.8370027 3.25490591,19.7359543 3.3196371,19.7344489 C3.87211022,19.7205242 4.26482527,19.5592608 4.62517473,19.2632661 C4.98514785,18.9670833 5.14114247,18.6321371 5.17407258,18.5672177 C5.20662634,18.5017339 5.2775672,18.5132124 5.29487903,18.6078629 C5.30861559,18.6850134 5.33740591,18.8246371 5.33740591,18.9736694 C5.33740591,19.9781317 4.66073925,20.8025134 3.75130376,21.0968145 M3.17079301,21.1869489 C3.15498656,21.1861962 3.13936828,21.1871371 3.12356183,21.1871371 C2.71579301,21.1871371 2.27020161,21.032836 2.00581989,20.885121 C1.73278226,20.7323253 1.63041667,20.0336425 1.63041667,19.6759274 C1.63041667,18.522621 2.10573925,17.8295833 2.18157258,17.6950403 C2.25740591,17.5604973 2.42581989,17.5435618 2.55208333,17.5770565 C2.6781586,17.6109274 2.72708333,17.6365188 2.87178763,17.6799866 C2.95025538,17.7042608 3.10737903,17.7370027 3.2253629,17.7624059 C3.3431586,17.7879973 3.4690457,17.8130242 3.39358871,18.0320565 C3.31775538,18.2507124 3.06409946,18.7802285 3.03625,19.4064651 C3.0106586,19.9721102 3.08668011,20.53625 3.21501344,20.8815457 C3.29837366,21.1062231 3.29686828,21.1912769 3.17079301,21.1869489 M1.49606183,18.547836 C1.38692204,18.4878091 1.25708333,18.2102554 1.2149328,18.1276478 C1.1846371,18.0679973 1.18651882,17.9025941 1.22754032,17.8295833 C1.4074328,17.5111962 1.66409946,17.2214113 1.99641129,17.0674866 C2.03461022,17.0501747 2.09331989,17.048293 2.09331989,17.1425672 C2.09331989,17.1950672 2.11928763,17.2776747 2.12041667,17.3288575 C2.1215457,17.3789113 2.14412634,17.4874866 2.07676075,17.5719758 C2.00939516,17.6557124 1.71151882,18.1775134 1.63907258,18.472379 C1.62251344,18.5393683 1.60501344,18.6082392 1.49606183,18.547836 M1.43735215,20.4015188 C1.12950269,20.0974328 0.909717742,19.5506048 0.909717742,18.9736694 C0.909717742,18.7497446 0.942836022,18.5344758 1.00418011,18.3306855 C1.00418011,18.3306855 1.05611559,18.2379167 1.1065457,18.3169489 C1.14267473,18.3734005 1.19122312,18.4311694 1.23487903,18.5081317 C1.27909946,18.5850941 1.51807796,18.7668683 1.49606183,18.9100672 C1.41176075,19.4506855 1.48778226,20.1721371 1.51280914,20.2899328 C1.53821237,20.4081048 1.50114247,20.4647446 1.43735215,20.4015188 M2.40418011,16.8791263 C2.6303629,16.8040457 2.87159946,16.7596371 3.12356183,16.7596371 C3.50555108,16.7596371 3.86928763,16.8311425 4.17864247,17.0270296 C4.25711022,17.0765188 4.28063172,17.1393683 4.28063172,17.2278091 C4.28063172,17.5157124 3.8271371,17.6133737 3.52512097,17.6133737 C3.22348118,17.6133737 2.85334677,17.4933199 2.59103495,17.4116532 C2.32853495,17.3296102 2.27020161,17.1764382 2.27020161,17.1088844 C2.27020161,17.0415188 2.32063172,16.9067876 2.40418011,16.8791263 M4.44998656,17.2014651 C4.49232527,17.2351478 4.59807796,17.3220833 4.59807796,17.3220833 C4.80995968,17.5115726 5.0009543,17.7336156 5.11159946,17.9983737 C5.25141129,18.3327554 4.82049731,18.834422 4.69423387,18.9520296 C4.12407258,19.4838038 3.76936828,19.475336 3.5659543,19.5046909 C3.36216398,19.533293 3.23383065,19.4074059 3.2381586,19.2551747 C3.25133065,18.8058199 3.5693414,18.0409005 3.65891129,17.8999597 C3.71780914,17.8075672 3.81885753,17.7486694 3.81885753,17.7486694 C4.02923387,17.6897715 4.23321237,17.5990726 4.33915323,17.479207 C4.44490591,17.3599059 4.44998656,17.2014651 4.44998656,17.2014651" id="Fill-95" fill="#FFF100" mask="url(#mask-6)"></path>
                            <path d="M33.7772392,18.972164 C33.7772392,17.6218414 32.6828306,16.5272446 31.3325081,16.5272446 C29.9818091,16.5272446 28.8877769,17.6218414 28.8877769,18.972164 C28.8877769,20.3226747 29.9818091,21.4168952 31.3325081,21.4168952 C32.6828306,21.4168952 33.7772392,20.3226747 33.7772392,18.972164" id="Fill-96" fill="#E12E21" mask="url(#mask-6)"></path>
                            <path d="M29.1298978,18.9736317 C29.1298978,18.8245995 29.1585,18.6849758 29.1728011,18.6080134 C29.1895484,18.5131747 29.2603011,18.5016962 29.2934194,18.5671801 C29.3261613,18.6322876 29.4821559,18.9670457 29.8423172,19.2632285 C30.2024785,19.5592231 30.5951935,19.7204866 31.1476667,19.7344113 C31.2118333,19.7359167 31.2457043,19.8369651 31.2457043,19.9295457 C31.2457043,20.0223145 31.1871828,20.7208091 30.959871,20.9802984 C30.9009731,21.0478522 30.8430161,21.1379866 30.7158118,21.0967769 C29.8065645,20.8024758 29.1298978,19.9780941 29.1298978,18.9736317 M31.2522903,20.8816962 C31.3804355,20.5364005 31.4562688,19.9722608 31.4310538,19.4064274 C31.4030161,18.780379 31.1493602,18.2506747 31.0740914,18.0320188 C30.9980699,17.8129866 31.1245215,17.7879597 31.242129,17.7623683 C31.3597366,17.7369651 31.516672,17.7042231 31.5957043,17.6799489 C31.7400323,17.6366694 31.788957,17.6108898 31.9152204,17.5770188 C32.0414839,17.5435242 32.2097097,17.5604597 32.2857312,17.6950027 C32.3615645,17.8295457 32.8366989,18.5227715 32.8366989,19.6758898 C32.8366989,20.0336048 32.7343333,20.7322876 32.4611075,20.8850833 C32.196914,21.0327984 31.7515108,21.1872876 31.3435538,21.1872876 C31.3277473,21.1872876 31.3123172,21.1861586 31.2965108,21.1869113 C31.1702473,21.1912392 31.1685538,21.1061855 31.2522903,20.8816962 M32.8282312,18.4723414 C32.7559731,18.177664 32.4579086,17.6556747 32.390543,17.5719382 C32.3231774,17.4876371 32.3457581,17.3788737 32.3468871,17.3288199 C32.3480161,17.2776371 32.3739839,17.1950296 32.3739839,17.1425296 C32.3739839,17.0484435 32.4326935,17.0501371 32.4705161,17.0676371 C32.8032043,17.2213737 33.059871,17.5113468 33.2395753,17.8295457 C33.2809731,17.9027446 33.2828548,18.0681478 33.252371,18.1276102 C33.2105968,18.2102177 33.0803817,18.4877715 32.9712419,18.5477984 C32.8624785,18.6083898 32.8447903,18.5393306 32.8282312,18.4723414 M32.9544946,20.2898952 C32.9795215,20.1720995 33.0553548,19.4506478 32.9712419,18.9100296 C32.9492258,18.7668306 33.1880161,18.5852446 33.2324247,18.5080941 C33.2762688,18.4311317 33.3248172,18.3735511 33.3607581,18.3169113 C33.4111882,18.237879 33.4629355,18.3306478 33.4629355,18.3306478 C33.5246559,18.5344382 33.557586,18.7498952 33.557586,18.9736317 C33.557586,19.5505672 33.3379892,20.0975833 33.0299516,20.4014812 C32.9661613,20.464707 32.9289032,20.4080672 32.9544946,20.2898952 M32.196914,17.1088468 C32.196914,17.1764005 32.1385806,17.3297608 31.8762688,17.4116156 C31.613957,17.4932823 31.2436344,17.613336 30.9421828,17.613336 C30.6399785,17.613336 30.1864839,17.5156747 30.1864839,17.2279597 C30.1864839,17.1393306 30.2103817,17.0764812 30.2882849,17.0269919 C30.597828,16.8311048 30.9619409,16.7595995 31.3435538,16.7595995 C31.5957043,16.7595995 31.8369409,16.8040081 32.0631237,16.8790887 C32.1464839,16.9069382 32.196914,17.0414812 32.196914,17.1088468 M30.1285269,17.4793575 C30.2339032,17.5990349 30.4380699,17.6897339 30.6482581,17.7486317 C30.6482581,17.7486317 30.7494946,17.8075296 30.8083925,17.899922 C30.8977742,18.0408629 31.2159731,18.8057823 31.2293333,19.2551371 C31.2334731,19.4075565 31.105328,19.5334435 30.9013495,19.5046532 C30.6977473,19.4752984 30.343043,19.4837661 29.7734462,18.9519919 C29.6469946,18.8343844 29.2158925,18.3327177 29.3558925,17.998336 C29.4661613,17.733578 29.6573441,17.5115349 29.869414,17.3222339 C29.869414,17.3222339 29.9749785,17.2351102 30.017129,17.2016156 C30.017129,17.2016156 30.0222097,17.3598683 30.1285269,17.4793575" id="Fill-97" fill="#FFF100" mask="url(#mask-6)"></path>
                            <path d="M28.923172,18.959293 C28.923172,19.6306909 29.1952688,20.2390511 29.6354032,20.6791855 C30.0757258,21.1193199 30.6837097,21.391793 31.355672,21.391793 C32.0274462,21.391793 32.6356183,21.1195081 33.0755645,20.6791855 C33.5155108,20.2390511 33.7879839,19.6306909 33.7879839,18.959293 C33.7879839,18.2875188 33.5155108,17.6791586 33.0755645,17.2392124 C32.6354301,16.7992661 32.0270699,16.5269812 31.355672,16.5269812 C30.6837097,16.5269812 30.075914,16.7992661 29.6355914,17.2394005 C29.1952688,17.6795349 28.923172,18.2875188 28.923172,18.959293 M28.8981452,18.959293 C28.8981452,18.2805565 29.1732527,17.6665511 29.6180914,17.2217124 C30.0627419,16.7770618 30.6769355,16.5019543 31.355672,16.5019543 C32.0340323,16.5019543 32.648414,16.7768737 33.0930645,17.2217124 C33.5375269,17.6661747 33.8128226,18.2805565 33.8128226,18.959293 C33.8128226,19.6376532 33.5375269,20.2522231 33.0930645,20.6968737 C32.6486022,21.1417124 32.0340323,21.4164435 31.355672,21.4164435 C30.6769355,21.4164435 30.0627419,21.1417124 29.6179032,20.6968737 C29.1732527,20.2522231 28.8981452,19.6376532 28.8981452,18.959293" id="Fill-98" fill="#FFE600" mask="url(#mask-6)"></path>
                        </g>
                    </g>
                </g>
            </g>
        </g>
    </g>
</svg>