<?xml version="1.0" encoding="UTF-8" standalone="no"?>
<svg width="30px" height="35px" viewBox="0 0 30 35" version="1.1" xmlns="http://www.w3.org/2000/svg" xmlns:xlink="http://www.w3.org/1999/xlink">
    <!-- Generator: Sketch 42 (36781) - http://www.bohemiancoding.com/sketch -->
    <title>arsenal_crest</title>
    <desc>Created with Sketch.</desc>
    <defs>
        <polygon id="path-1" points="0 34.9842105 29.7060526 34.9842105 29.7060526 0.0357894737 0 0.0357894737"></polygon>
    </defs>
    <g id="Page-1" stroke="none" stroke-width="1" fill="none" fill-rule="evenodd">
        <g id="group_info" transform="translate(-23.000000, -454.000000)">
            <g id="channels" transform="translate(0.000000, 409.000000)">
                <g transform="translate(16.000000, 45.000000)" id="arsenal">
                    <g>
                        <g id="arsenal_crest" transform="translate(7.000000, 0.000000)">
                            <path d="M14.8528947,0.189736842 C19.4663158,0.189736842 23.9305263,1.13710526 28.1310526,3.00736842 C29.0015789,6.56 29.5510526,10.2626316 29.5660526,12.6894737 L29.5660526,12.8223684 C29.5660526,15.2136842 29.2213158,17.5492105 28.5413158,19.7697368 C27.8757895,21.9510526 26.8805263,24.0171053 25.5913158,25.9126316 C24.3202632,27.7765789 22.7547368,29.4865789 20.9368421,30.9928947 C19.0057895,32.5981579 16.7392105,34.0381579 14.8528947,34.8605263 C12.9697368,34.0381579 10.7002632,32.5981579 8.76921053,30.9928947 C6.95131579,29.4865789 5.38578947,27.7765789 4.11473684,25.9126316 C2.82526316,24.0171053 1.83026316,21.9510526 1.16473684,19.7697368 C0.484736842,17.5492105 0.14,15.2136842 0.14,12.8223684 L0.14,12.6894737 C0.155,10.2626316 0.704473684,6.56 1.57473684,3.00736842 C5.77526316,1.13710526 10.24,0.189736842 14.8528947,0.189736842" id="Fill-1" fill="#FFFFFF"></path>
                            <path d="M14.8528947,13.8505263 C15.8747368,13.8505263 16.8371053,14.1123684 17.6692105,14.5773684 L26.2421053,14.5773684 C26.2597368,13.9794737 26.2478947,13.3047368 26.2360526,12.6684211 C26.1857895,10.0463158 25.4221053,5.61263158 24.6736842,2.53921053 C21.6347368,1.55657895 18.3728947,0.98 14.8560526,0.98" id="Fill-2" fill="#BB1C3F"></path>
                            <path d="M14.8560526,0.990526316 C11.4163158,0.990526316 8.25236842,1.50421053 5.04447368,2.53578947 C4.25421053,5.72105263 3.60078947,9.93763158 3.50263158,11.9655263 C3.36026316,14.9305263 3.57368421,17.0736842 4.16815789,19.4160526 C4.50105263,20.7381579 4.94657895,21.9757895 5.51078947,23.2307895 C6.12,22.9126316 6.75263158,22.5107895 7.39131579,22.0318421 C8.06236842,21.5315789 8.64473684,20.8915789 9.12263158,20.2873684 C9.09605263,20.0668421 9.08447368,19.8431579 9.08447368,19.6189474 C9.08447368,19.2731579 9.11394737,18.9302632 9.17342105,18.6018421 C7.98815789,18.6436842 7.31394737,18.6573684 6.785,18.6573684 C6.14631579,18.6573684 5.56421053,18.2134211 5.28184211,17.5355263 L4.985,17.5355263 C4.75894737,17.5355263 4.37605263,17.3431579 4.37605263,16.6192105 C4.37605263,15.8989474 4.75894737,15.7065789 4.985,15.7065789 L5.28184211,15.7065789 C5.56421053,15.025 6.14631579,14.5810526 6.785,14.5810526 L12.04,14.5810526 C12.8747368,14.1123684 13.8342105,13.8465789 14.8560526,13.8465789" id="Fill-3" fill="#D82331"></path>
                            <path d="M9.63394737,29.8673684 C8.01473684,28.2518421 6.67526316,26.4689474 5.61789474,24.5631579 C4.54236842,22.6331579 3.77894737,20.4789474 3.33052632,18.3289474 C2.86684211,16.1157895 2.71868421,13.8815789 2.87578947,11.5107895 C3.02131579,9.28026316 3.61,5.90263158 4.33736842,2.77710526 C3.64236842,3.02184211 2.95026316,3.29105263 2.27,3.58473684 C1.50368421,6.65447368 0.968947368,10.5528947 0.957105263,12.6821053 C0.945263158,15.0565789 1.28078947,17.3571053 1.94315789,19.5178947 C2.63815789,21.7871053 3.55631579,23.6331579 4.78894737,25.4410526 C6.01552632,27.2413158 7.53052632,28.895 9.28947368,30.3531579 C10.9347368,31.7207895 12.8092105,32.9194737 14.8528947,33.9339474 C14.85,33.9339474 14.8528947,33.9297368 14.8528947,33.9339474 C12.9073684,32.7378947 11.1486842,31.3736842 9.63394737,29.8673684" id="Fill-4" fill="#07305D"></path>
                            <path d="M20.0692105,29.8673684 C21.6878947,28.2518421 23.0278947,26.4689474 24.0852632,24.5665789 C25.1605263,22.6331579 25.9244737,20.4789474 26.3757895,18.3289474 C26.8392105,16.1157895 26.9844737,13.8815789 26.8271053,11.5107895 C26.6818421,9.28026316 26.0907895,5.89947368 25.3657895,2.77342105 C26.0607895,3.01815789 26.7528947,3.29105263 27.4363158,3.58473684 C28.2023684,6.65447368 28.7371053,10.5528947 28.7460526,12.6821053 C28.7607895,15.0565789 28.4223684,17.3571053 27.7597368,19.5178947 C27.1184211,21.6226316 26.1586842,23.6115789 24.9142105,25.4410526 C23.6876316,27.2413158 22.1755263,28.895 20.4136842,30.3560526 C18.7713158,31.7207895 16.8936842,32.9194737 14.8528947,33.9339474 C16.7957895,32.7415789 18.5542105,31.3736842 20.0692105,29.8673684" id="Fill-5" fill="#07305D"></path>
                            <path d="M14.85,14.1371053 C11.8202632,14.1371053 9.36657895,16.5913158 9.36657895,19.6189474 C9.36657895,22.6505263 11.8202632,25.1047368 14.85,25.1047368 C17.8771053,25.1047368 20.3305263,22.6505263 20.3305263,19.6189474 C20.3305263,16.5913158 17.8771053,14.1371053 14.85,14.1371053" id="Fill-6" fill="#998A5B"></path>
                            <path d="M14.8528947,25.3915789 C12.9902632,25.3915789 11.3302632,24.5071053 10.2755263,23.1363158 C8.98631579,23.8707895 7.635,24.4515789 6.33947368,24.85 C7.36184211,26.6473684 8.63,28.3252632 10.1568421,29.8636842 C11.535,31.2515789 13.1123684,32.5178947 14.8528947,33.6465789" id="Fill-7" fill="#D82331"></path>
                            <g id="Group-11">
                                <mask id="mask-2" fill="white">
                                    <use xlink:href="#path-1"></use>
                                </mask>
                                <g id="Clip-9"></g>
                                <path d="M6.77921053,18.3705263 C6.185,18.3705263 5.68026316,17.9060526 5.47763158,17.2486842 L4.97894737,17.2486842 C4.85131579,17.2486842 4.65789474,17.0915789 4.65789474,16.6228947 C4.65789474,16.1507895 4.85131579,15.9934211 4.97894737,15.9934211 L5.47763158,15.9934211 C5.67710526,15.3360526 6.185,14.8678947 6.77921053,14.8678947 L11.5734211,14.8678947 C10.4121053,15.6718421 9.55657895,16.8921053 9.22684211,18.3115789 C8.16657895,18.35 7.34947368,18.3705263 6.77921053,18.3705263" id="Fill-8" fill="#998A5B" mask="url(#mask-2)"></path>
                                <path d="M28.2502632,2.89263158 C24.1776316,1.07078947 19.695,0.0357894737 14.8528947,0.0357894737 C10.0110526,0.0357894737 5.52842105,1.07078947 1.45605263,2.89263158 C0.517105263,6.69657895 0.0121052632,10.3815789 0.000263157895,12.6752632 C-0.0115789474,15.1297368 0.333157895,17.5247368 1.02842105,19.7973684 C1.69947368,21.9894737 2.70052632,24.0702632 3.99868421,25.9755263 C5.27605263,27.85 6.85026316,29.5697368 8.68026316,31.0871053 C10.4002632,32.5178947 12.7289474,34.0834211 14.8528947,35 C16.9771053,34.0834211 19.3057895,32.5178947 21.0255263,31.0871053 C22.8557895,29.5697368 24.43,27.85 25.7073684,25.9755263 C27.0055263,24.0702632 28.0065789,21.9894737 28.6776316,19.7973684 C29.3728947,17.5247368 29.7176316,15.1297368 29.7057895,12.6752632 C29.6939474,10.3815789 29.1889474,6.69657895 28.2502632,2.89263158 Z M24.9171053,25.4368421 C23.6902632,27.2378947 22.1755263,28.8918421 20.4165789,30.3531579 C18.7713158,31.7165789 16.8936842,32.9194737 14.8528947,33.9297368 C12.8092105,32.9194737 10.9347368,31.7165789 9.28947368,30.3531579 C7.53052632,28.8918421 6.01552632,27.2378947 4.78894737,25.4368421 C4.69394737,25.2976316 4.59894737,25.1505263 4.50368421,25.0071053 C6.295,24.7063158 8.27631579,23.9442105 10.1060526,22.9018421 C9.64868421,22.245 9.32473684,21.4894737 9.17342105,20.6715789 C8.71605263,21.2344737 8.16921053,21.8076316 7.54578947,22.2728947 C6.53526316,23.0247368 5.31473684,23.7760526 3.99578947,24.1815789 C3.13105263,22.7102632 2.44210526,21.1471053 1.94315789,19.5178947 C1.28078947,17.3536842 0.945263158,15.0565789 0.957105263,12.6821053 C0.968947368,10.5494737 1.50368421,6.65447368 2.27,3.58473684 C6.25052632,1.86447368 10.4834211,0.990526316 14.8528947,0.990526316 C19.2226316,0.990526316 23.4555263,1.86447368 27.4363158,3.58473684 C28.2023684,6.65447368 28.7371053,10.5494737 28.7489474,12.6821053 C28.7521053,13.4165789 28.7226316,14.1473684 28.66,14.8678947 L18.1178947,14.8678947 C19.4218421,15.7694737 20.3363158,17.1894737 20.5626316,18.8321053 L22.5731579,18.3536842 C23.0218421,18.2518421 23.2060526,17.9513158 23.2536842,17.6715789 L28.3092105,17.3328947 C28.1639474,18.0739474 27.98,18.8044737 27.7628947,19.5178947 C27.1184211,21.6189474 26.1618421,23.6115789 24.9171053,25.4368421 L24.9171053,25.4368421 Z" id="Fill-10" fill="#998A5B" mask="url(#mask-2)"></path>
                            </g>
                            <path d="M15.2123684,21.1368421 L15.2123684,24.0913158 C16.5907895,23.9792105 17.7939474,23.2447368 18.5392105,22.1715789 L15.9818421,20.6928947 C15.7768421,20.9092105 15.5123684,21.0663158 15.2123684,21.1368421" id="Fill-12" fill="#FFFFFF"></path>
                            <path d="M14.4878947,15.1507895 C13.1065789,15.2592105 11.9031579,15.9934211 11.1576316,17.0702632 L13.7121053,18.5452632 C13.9173684,18.3255263 14.1847368,18.1681579 14.4878947,18.0981579" id="Fill-13" fill="#FFFFFF"></path>
                            <path d="M14.8471053,18.8218421 C14.4076316,18.8218421 14.0510526,19.1786842 14.0510526,19.6189474 C14.0510526,20.0594737 14.4076316,20.4163158 14.8471053,20.4163158 C15.2897368,20.4163158 15.6463158,20.0594737 15.6463158,19.6189474 C15.6463158,19.1786842 15.2897368,18.8218421 14.8471053,18.8218421" id="Fill-14" fill="#FFFFFF"></path>
                            <path d="M15.2123684,15.1507895 L15.2123684,18.0981579 C15.5157895,18.1681579 15.7828947,18.3255263 15.9876316,18.5452632 L18.5392105,17.0702632 C17.7968421,15.9971053 16.5939474,15.2592105 15.2123684,15.1507895" id="Fill-15" fill="#FFFFFF"></path>
                            <path d="M14.4878947,21.1368421 C14.2439474,21.0807895 14.0213158,20.9652632 13.8371053,20.8078947 C13.7952632,20.7728947 13.7568421,20.7344737 13.7184211,20.6928947 L11.1607895,22.1715789 C11.2171053,22.2557895 11.2792105,22.3394737 11.345,22.4197368 C12.0963158,23.3568421 13.2163158,23.99 14.4878947,24.0913158" id="Fill-16" fill="#FFFFFF"></path>
                            <path d="M16.3471053,20.0668421 L18.9047368,21.5418421 C19.4068421,20.5107895 19.5465789,19.0315789 18.9047368,17.6997368 L16.3502632,19.175 C16.4305263,19.4407895 16.4394737,19.7623684 16.3471053,20.0668421" id="Fill-17" fill="#FFFFFF"></path>
                            <path d="M11.5828947,16.99 L13.6678947,18.1892105 C13.8252632,18.0560526 14.0065789,17.9547368 14.1997368,17.8813158 L14.1997368,15.4760526 C13.1686842,15.6334211 12.2360526,16.1718421 11.5828947,16.99" id="Fill-18" fill="#998A5B"></path>
                            <path d="M15.5034211,15.4794737 L15.5005263,17.8915789 C15.6939474,17.9621053 15.8689474,18.0560526 16.0263158,18.1892105 L18.1147368,16.99 C17.4639474,16.1718421 16.5342105,15.6334211 15.5034211,15.4794737" id="Fill-19" fill="#998A5B"></path>
                            <path d="M19.0297368,19.1852632 C18.9907895,18.8152632 18.9018421,18.4584211 18.7681579,18.1121053 L16.6736842,19.3147368 C16.6918421,19.4160526 16.7007895,19.5142105 16.7007895,19.6155263 C16.7007895,19.6576316 16.7007895,19.6997368 16.6976316,19.7378947 C17.2886842,19.5768421 17.9097368,19.4236842 18.5423684,19.2907895 C18.6939474,19.2592105 18.8573684,19.2242105 19.0297368,19.1852632" id="Fill-20" fill="#998A5B"></path>
                            <path d="M14.8528947,33.6465789 C16.5939474,32.5178947 18.1739474,31.2447368 19.5526316,29.8602632 C21.1684211,28.2339474 22.4989474,26.4371053 23.5476316,24.5244737 C24.6139474,22.5836842 25.3684211,20.4228947 25.8081579,18.2657895 C25.8410526,18.0981579 25.8736842,17.9373684 25.9034211,17.7728947 L23.4734211,17.9444737 C23.3457895,18.2868421 23.0547368,18.5386842 22.6478947,18.6297368 L22.6505263,18.6297368 C22.6357895,18.6331579 21.7447368,18.8531579 20.595,19.1189474 C20.6097368,19.2834211 20.6186842,19.4510526 20.6186842,19.6189474 C20.6186842,22.8084211 18.0376316,25.3915789 14.8528947,25.3915789" id="Fill-21" fill="#BB1C3F"></path>
                            <path d="M15.3610526,19.6189474 C15.3610526,19.3357895 15.1321053,19.105 14.8471053,19.105 C14.5652632,19.105 14.3360526,19.3357895 14.3360526,19.6189474 C14.3360526,19.9023684 14.5652632,20.1331579 14.8471053,20.1331579 C15.1321053,20.1331579 15.3610526,19.9023684 15.3610526,19.6189474" id="Fill-22" fill="#998A5B"></path>
                            <path d="M15.5005263,23.7623684 C16.5286842,23.6081579 17.4639474,23.0736842 18.1178947,22.2557895 L16.0205263,21.0494737 C15.8628947,21.1784211 15.6905263,21.2797368 15.5005263,21.3497368 C15.5005263,21.3497368 15.5034211,23.7623684 15.5005263,23.7623684" id="Fill-23" fill="#BB1C3F"></path>
                            <path d="M11.5855263,22.2557895 L13.6739474,21.0457895 C13.8315789,21.1784211 14.0094737,21.2760526 14.1997368,21.3460526 L14.1965789,23.7623684 C13.1657895,23.6081579 12.2360526,23.0736842 11.5855263,22.2557895" id="Fill-24" fill="#D82331"></path>
                            <path d="M19.0473684,19.6226316 C19.0473684,19.5665789 19.0473684,19.5105263 19.0444737,19.4552632 C18.8868421,19.4865789 18.7352632,19.5213158 18.5928947,19.5492105 C17.9544737,19.6857895 17.3365789,19.8389474 16.7871053,19.9897368 L18.7623684,21.1328947 C18.9526316,20.6542105 19.0473684,20.1468421 19.0473684,19.6226316" id="Fill-25" fill="#BB1C3F"></path>
                            <path d="M10.7926316,17.7031579 C10.2010526,18.9544737 10.2371053,20.3673684 10.8013158,21.5492105 L13.3497368,20.0668421 C13.2634211,19.78 13.2607895,19.4689474 13.3468421,19.1713158" id="Fill-26" fill="#FFFFFF"></path>
                            <path d="M10.9405263,21.1368421 L13.0205263,19.9305263 C12.9847368,19.7276316 12.9847368,19.5178947 13.0205263,19.3147368 L10.9318421,18.1157895 C10.5547368,19.0871053 10.5547368,20.165 10.9405263,21.1368421" id="Fill-27" fill="#998A5B"></path>
                            <path d="M16.9381579,10.2313158 C16.9323684,10.3431579 16.9026316,10.7210526 16.8936842,10.8328947 L18.5542105,10.8328947 C18.4592105,10.3889474 18.4176316,9.77315789 18.4028947,9.31157895 C18.4028947,9.31552632 18.3757895,8.35394737 18.3757895,8.35394737 C18.3728947,8.26289474 18.4,8.18578947 18.4502632,8.13368421 C18.4978947,8.08105263 18.5634211,8.05315789 18.6315789,8.05315789 C18.7089474,8.04947368 18.8394737,8.04947368 18.8484211,8.31894737 L18.8868421,9.34 C18.9018421,9.79763158 18.9105263,10.4410526 18.8484211,10.8328947 L20.4673684,10.8328947 C20.4405263,10.6926316 20.3960526,10.3605263 20.3842105,10.2665789 C20.5889474,10.7 21.0228947,10.9202632 21.6076316,10.9202632 C21.9523684,10.9202632 22.22,10.7944737 22.4189474,10.6718421 C22.425,10.6857895 22.5023684,10.8328947 22.5023684,10.8328947 L25.4936842,10.8328947 C25.3597368,10.3815789 25.2794737,9.75947368 25.2260526,9.29447368 L24.8160526,5.94473684 L23.2742105,5.69289474 C23.3994737,6.11263158 23.4915789,6.75578947 23.545,7.21736842 L23.7765789,9.35710526 C23.8181579,9.74894737 23.86,10.165 23.8568421,10.5881579 L23.8539474,10.6402632 L23.7942105,10.4863158 C23.6876316,10.2278947 23.6192105,9.86078947 23.5834211,9.36421053 C23.58,9.36105263 23.5181579,8.67894737 23.5181579,8.67894737 C23.4378947,7.59157895 22.8376316,7.09526316 21.54,7.09526316 C21.3168421,7.09526316 20.7642105,7.14736842 20.4315789,7.24552632 L20.5207895,8.48315789 L20.8652632,8.26973684 C21.1502632,8.09842105 21.3792105,8.02184211 21.6318421,8.02184211 C21.8365789,8.02184211 21.9705263,8.10210526 22.0326316,8.24184211 C21.7773684,8.28394737 21.5039474,8.35026316 21.2010526,8.48684211 C20.7405263,8.69315789 20.4405263,8.98684211 20.3218421,9.34315789 C20.3218421,9.33263158 20.3189474,9.32210526 20.3189474,9.31157895 L20.2655263,8.17894737 C20.2386842,7.44473684 19.7810526,6.98657895 19.0739474,6.98657895 C18.7473684,6.98657895 18.4563158,7.07736842 18.2034211,7.25973684 C18.1886842,7.21394737 18.1739474,7.17210526 18.1592105,7.13736842 L18.0936842,7.00447368 L16.7628947,6.94447368 C16.8252632,7.18263158 16.9055263,7.85026316 16.9234211,8.11263158 C16.8518421,7.75210526 16.6647368,7.36763158 16.3086842,7.11605263 C16.0352632,6.92736842 15.6939474,6.82947368 15.3223684,6.82947368 C14.8263158,6.82947368 14.3271053,7.03552632 13.9884211,7.38184211 C13.65,7.72789474 13.4660526,8.19657895 13.4478947,8.74894737 C13.32,8.61236842 13.1536842,8.49342105 12.9457895,8.39947368 L12.3339474,8.10526316 L12.3044737,8.09157895 C12.1586842,8.02184211 12.1528947,8.00078947 12.1555263,7.95868421 C12.1618421,7.89552632 12.3015789,7.82921053 12.5034211,7.82921053 C12.7531579,7.82921053 13.1184211,7.95552632 13.4123684,8.14421053 L13.4360526,7.04973684 C13.2192105,6.95184211 12.9163158,6.87157895 12.4797368,6.87157895 C12.2536842,6.87157895 11.8171053,6.90289474 11.44,7.11605263 C11.3357895,7.17526316 11.2442105,7.24184211 11.1607895,7.31552632 L11.1784211,6.99368421 C10.8221053,6.95526316 10.4447368,6.94447368 9.98157895,7.37473684 C9.97552632,7.34315789 9.94578947,7.19631579 9.91605263,7.10894737 L8.47842105,7.19631579 C8.58526316,7.58105263 8.59710526,8.165 8.56736842,8.68605263 L8.54078947,9.235 C8.54078947,9.23131579 8.53763158,9.29789474 8.53763158,9.29789474 C8.52289474,9.58447368 8.50473684,9.87447368 8.47526316,10.1507895 C8.35657895,9.78052632 8.22578947,9.27342105 8.125,8.85026316 L7.415,5.65815789 L5.38921053,5.94473684 C5.40710526,5.98684211 5.43342105,6.09157895 5.44815789,6.19289474 C5.46605263,6.32552632 5.46026316,6.60184211 5.26710526,7.16473684 C4.94315789,8.11263158 4.47394737,9.51078947 4.02526316,10.4760526 C3.96315789,10.6123684 3.85605263,10.8328947 3.85605263,10.8328947 L5.43657895,10.8328947 C5.45710526,10.5844737 5.56131579,10.1789474 5.66210526,9.88184211 C5.87921053,9.87447368 6.45236842,9.86078947 6.71657895,9.85368421 C6.76736842,10.0810526 6.83289474,10.4060526 6.84473684,10.5986842 L6.86236842,10.8328947 L10.0378947,10.8328947 C9.96315789,10.3363158 9.99342105,9.64394737 10.0139474,9.25578947 C10.0405263,8.81184211 10.1328947,8.525 10.3173684,8.33631579 C10.4594737,8.18578947 10.6289474,8.15078947 10.7476316,8.14736842 C10.7297368,8.74184211 11.1218421,9.01815789 11.4694737,9.19263158 L12.0902632,9.51078947 C12.3131579,9.62657895 12.3102632,9.68578947 12.3076316,9.72789474 C12.2984211,9.84710526 12.1173684,9.89236842 11.9539474,9.88868421 C11.6297368,9.88184211 11.1813158,9.65815789 10.6760526,9.13710526 L10.6497368,10.5494737 C11.0507895,10.7768421 11.535,10.8571053 11.9744737,10.8571053 C12.6965789,10.8571053 13.4689474,10.5423684 13.6768421,9.87131579 C14.03,10.5494737 14.7402632,10.8644737 15.4384211,10.8644737 C16.0621053,10.8644737 16.5313158,10.6613158 16.9381579,10.2313158 Z M6.04842105,8.81184211 C6.13157895,8.57763158 6.19684211,8.38894737 6.33657895,7.98657895 C6.41947368,8.38894737 6.46447368,8.59868421 6.50578947,8.79789474 C6.33078947,8.80473684 6.25052632,8.80473684 6.04842105,8.81184211 Z M14.9213158,8.45842105 L14.9213158,8.44789474 C14.9213158,7.96552632 15.0997368,7.77684211 15.2718421,7.75947368 C15.3223684,7.75605263 15.4557895,7.74184211 15.5184211,7.96921053 C15.5423684,8.05684211 15.5539474,8.12315789 15.5539474,8.17184211 C15.5539474,8.30447368 15.4826316,8.32921053 15.3994737,8.35736842 L15.3965789,8.36052632 C15.3965789,8.36052632 15.15,8.45526316 14.9244737,8.54263158 C14.9244737,8.51447368 14.9213158,8.48684211 14.9213158,8.45842105 Z M16.5731579,9.44105263 C16.2728947,9.69631579 16.05,9.86763158 15.6876316,9.86078947 C15.4023684,9.85368421 15.2271053,9.66157895 15.1205263,9.44447368 C15.4323684,9.32921053 16.6,8.88868421 16.9352632,8.76315789 C16.9381579,9.00763158 16.9442105,9.33631579 16.9442105,9.33631579 L16.9442105,9.34 C16.95,9.53552632 16.9534211,9.72447368 16.95,9.90973684 L16.95,9.91657895 L16.5731579,9.44105263 Z M21.9823684,9.89552632 C21.7060526,9.90605263 21.6436842,9.71736842 21.6407895,9.58131579 C21.6436842,9.44105263 21.6878947,9.22789474 22.1276316,9.10921053 C22.1397368,9.25921053 22.1518421,9.40947368 22.1518421,9.40947368 L22.1605263,9.54605263 C22.1665789,9.64394737 22.1726316,9.73131579 22.1842105,9.82921053 C22.1247368,9.86763158 22.0594737,9.89236842 21.9823684,9.89552632 L21.9823684,9.89552632 Z" id="Fill-28" fill="#998A5B"></path>
                            <path d="M13.1894737,7.22078947 C13.05,7.17210526 12.8239474,7.11947368 12.4828947,7.11947368 C12.2034211,7.11947368 11.8473684,7.17526316 11.5644737,7.33289474 C11.2442105,7.51473684 11.0178947,7.80842105 10.9971053,8.11605263 C10.9676316,8.57394737 11.2202632,8.79078947 11.5794737,8.97289474 C11.8231579,9.09526316 12.0578947,9.21394737 12.2034211,9.29078947 C12.4026316,9.39210526 12.5715789,9.51815789 12.5536842,9.74894737 C12.5360526,9.97973684 12.3223684,10.1368421 11.9568421,10.1368421 C11.6505263,10.1368421 11.2144737,9.95868421 10.9142105,9.68578947 L10.9023684,10.3994737 C11.1607895,10.5321053 11.5886842,10.6089474 11.9715789,10.6089474 C12.6428947,10.6089474 13.4689474,10.3013158 13.4836842,9.52131579 C13.4923684,8.96552632 13.0857895,8.73473684 12.8447368,8.62289474 C12.6013158,8.51131579 12.3489474,8.38894737 12.2302632,8.32921053 C12.1173684,8.27710526 11.8884211,8.18947368 11.9092105,7.93763158 C11.9268421,7.69631579 12.2034211,7.58105263 12.5002632,7.58105263 C12.75,7.58105263 12.9934211,7.65105263 13.1805263,7.75210526" id="Fill-29" fill="#FFFFFF"></path>
                            <path d="M7.22473684,5.93447368 L5.69184211,6.15447368 C5.73026316,6.375 5.67131579,6.75578947 5.50473684,7.24184211 C5.18368421,8.18210526 4.66421053,9.69315789 4.25421053,10.5844737 L5.21973684,10.5844737 C5.26710526,10.3013158 5.34710526,10.0073684 5.48421053,9.63710526 L6.91552632,9.59815789 C6.97815789,9.88184211 7.07315789,10.3289474 7.09394737,10.5844737 L8.37131579,10.5844737 C8.21394737,10.2171053 8.00921053,9.43789474 7.88421053,8.90236842 L7.22473684,5.93447368 Z M5.69184211,9.07421053 L6.39315789,7.05657895 L6.80868421,9.03526316 L5.69184211,9.07421053 Z" id="Fill-30" fill="#FFFFFF"></path>
                            <path d="M10.9168421,7.22815789 L10.8844737,7.90605263 C10.6586842,7.87842105 10.3615789,7.92710526 10.1357895,8.16131579 C9.92789474,8.38157895 9.79710526,8.69657895 9.76736842,9.23868421 C9.74078947,9.68578947 9.72578947,10.1718421 9.76157895,10.5844737 L8.66815789,10.5844737 C8.73973684,10.1789474 8.76342105,9.69631579 8.79,9.24921053 L8.81710526,8.7 C8.84078947,8.25578947 8.84368421,7.83263158 8.77526316,7.42710526 L9.72894737,7.36763158 C9.77342105,7.52868421 9.79710526,7.74552632 9.78552632,7.98289474 C10.2039474,7.35368421 10.6113158,7.21394737 10.9168421,7.22815789" id="Fill-31" fill="#FFFFFF"></path>
                            <path d="M24.5934211,6.15789474 L23.6042105,6.00078947 C23.7023684,6.41289474 23.7407895,6.74184211 23.7913158,7.18578947 L24.0228947,9.32578947 C24.0734211,9.77315789 24.1089474,10.1789474 24.1031579,10.5844737 L25.1723684,10.5844737 C25.0776316,10.1789474 25.03,9.77315789 24.9794737,9.32578947" id="Fill-32" fill="#FFFFFF"></path>
                            <path d="M20.1760526,10.5844737 C20.1110526,10.1789474 20.0873684,9.77315789 20.0718421,9.32578947 L20.0186842,8.19289474 C19.995,7.59157895 19.6505263,7.23473684 19.0681579,7.23473684 C18.7505263,7.23473684 18.3728947,7.33657895 18.0526316,7.74552632 C18.0431579,7.65815789 17.9926316,7.37157895 17.9331579,7.24552632 L17.0631579,7.20710526 C17.1405263,7.62657895 17.1613158,8.04947368 17.1789474,8.49342105 L17.1907895,9.32578947 C17.2086842,9.77315789 17.1965789,10.1789474 17.1642105,10.5844737 L18.2571053,10.5844737 C18.1947368,10.1789474 18.1710526,9.77315789 18.1531579,9.32578947 L18.1265789,8.36447368 C18.1147368,8.025 18.3702632,7.80842105 18.6315789,7.805 C18.9376316,7.79789474 19.0857895,8.00078947 19.0978947,8.30842105 L19.1336842,9.32578947 C19.1510526,9.77315789 19.1573684,10.1789474 19.1247368,10.5844737" id="Fill-33" fill="#FFFFFF"></path>
                            <path d="M23.5623684,10.5844737 C23.4318421,10.2626316 23.3665789,9.83289474 23.3339474,9.38868421 L23.2715789,8.70315789 C23.2089474,7.89552632 22.8705263,7.34315789 21.5339474,7.34315789 C21.3021053,7.34315789 20.9663158,7.37815789 20.6931579,7.44105263 L20.7405263,8.06 C21.0110526,7.89236842 21.29,7.77315789 21.6347368,7.77315789 C21.9913158,7.77315789 22.3,7.92026316 22.33,8.45157895 C21.9855263,8.49 21.6613158,8.54973684 21.2992105,8.71368421 C20.8923684,8.89605263 20.4731579,9.22447368 20.5118421,9.78368421 C20.5565789,10.4028947 21.0228947,10.6718421 21.6110526,10.6718421 C22.0534211,10.6718421 22.3626316,10.4410526 22.5318421,10.2697368 C22.5613158,10.3815789 22.6060526,10.4971053 22.6536842,10.5844737 L23.5623684,10.5844737 Z M21.9792105,10.1402632 C21.6705263,10.1544737 21.4031579,9.99026316 21.3939474,9.595 C21.3823684,9.23868421 21.6260526,8.92342105 22.3565789,8.80473684 L22.3978947,9.38868421 C22.4128947,9.58763158 22.4189474,9.73131579 22.4457895,9.92394737 C22.3389474,10.0494737 22.1665789,10.1334211 21.9792105,10.1402632 L21.9792105,10.1402632 Z" id="Fill-34" fill="#FFFFFF"></path>
                            <path d="M16.1660526,7.32236842 C15.9223684,7.15421053 15.6313158,7.07736842 15.3223684,7.07736842 C14.6152632,7.07736842 13.6678947,7.58105263 13.6944737,8.89236842 C13.7184211,10.2139474 14.7284211,10.6157895 15.4384211,10.6157895 C16.0621053,10.6157895 16.4423684,10.3955263 16.7507895,10.0668421 L16.5313158,9.79105263 C16.365,9.92 16.1065789,10.1160526 15.6847368,10.1089474 C15.2360526,10.0984211 14.9421053,9.76631579 14.7934211,9.30157895 L16.76,8.56368421 C16.6976316,7.91657895 16.4776316,7.53921053 16.1660526,7.32236842 Z M15.4857895,8.59131579 L14.7044737,8.89236842 C14.6836842,8.75263158 14.6718421,8.60552632 14.6718421,8.45842105 C14.6686842,7.64763158 15.1055263,7.52526316 15.2478947,7.51105263 C15.4886842,7.49 15.6818421,7.62289474 15.7589474,7.90289474 C15.845,8.22105263 15.8244737,8.46894737 15.4857895,8.59131579 L15.4857895,8.59131579 Z" id="Fill-35" fill="#FFFFFF"></path>
                        </g>
                    </g>
                </g>
            </g>
        </g>
    </g>
</svg>