<?xml version="1.0" encoding="UTF-8" standalone="no"?>
<svg width="24px" height="24px" viewBox="0 0 24 24" version="1.1" xmlns="http://www.w3.org/2000/svg" xmlns:xlink="http://www.w3.org/1999/xlink">
    <!-- Generator: Sketch 42 (36781) - http://www.bohemiancoding.com/sketch -->
    <title>premier-league-new-seeklogo.com</title>
    <desc>Created with Sketch.</desc>
    <defs>
        <polygon id="path-1" points="0 23.9894891 23.9353577 23.9894891 23.9353577 0.0394160584 0 0.0394160584"></polygon>
    </defs>
    <g id="Page-1" stroke="none" stroke-width="1" fill="none" fill-rule="evenodd">
        <g id="group_info" transform="translate(-320.000000, -93.000000)">
            <g id="page_title" transform="translate(17.000000, 92.000000)">
                <g id="premier-league-new-seeklogo.com" transform="translate(303.000000, 1.000000)">
                    <g id="Group-4">
                        <mask id="mask-2" fill="white">
                            <use xlink:href="#path-1"></use>
                        </mask>
                        <g id="Clip-2"></g>
                        <path d="M6.51135766,1.56 C6.4020438,1.61062774 6.33967883,1.63217518 6.2850219,1.6659854 C5.21728467,2.32589781 4.26113869,3.11929927 3.44864234,4.07754745 C1.97167883,5.81956204 1.12554745,7.83275912 0.934248175,10.1071533 C0.801109489,11.6908029 0.81740146,13.2709489 1.23363504,14.8232409 C3.12052555,21.8594453 11.0012847,25.2101606 17.3803796,21.6874161 C17.4420438,21.6534307 17.5065109,21.624 17.6112701,21.5714453 C17.5357664,21.8992117 17.4716496,22.1767007 17.3968467,22.5018394 C17.5133431,22.4484088 17.5781606,22.4272117 17.6340438,22.392 C19.4827445,21.2277372 20.9595328,19.7148613 21.9200584,17.737927 C23.1938102,15.1164964 23.3788029,12.3477372 22.7716204,9.55305109 C21.2088175,2.36093431 13.1071533,-1.28513869 6.64414599,2.24531387 C6.55182482,2.29576642 6.45792701,2.34289051 6.3149781,2.41769343 C6.38662774,2.10464234 6.44321168,1.85763504 6.51135766,1.56 Z M11.9672409,0.0394160584 C18.5602336,0.0332846715 23.9257226,5.40893431 23.9353577,12.0304818 C23.9451679,18.644146 18.5626861,23.9959708 11.8973431,24 C5.36128467,24.003854 0.00105109489,18.6091095 0,12.0261022 C-0.00105109489,5.4110365 5.35585401,0.0455474453 11.9672409,0.0394160584 L11.9672409,0.0394160584 Z" id="Fill-1" fill="#291B3D" mask="url(#mask-2)"></path>
                        <path d="M6.52870073,1.56 C6.46055474,1.85763504 6.4039708,2.10464234 6.33232117,2.41769343 C6.47527007,2.34289051 6.56916788,2.29576642 6.66148905,2.24531387 C13.1244964,-1.28513869 21.2261606,2.36093431 22.7887883,9.55305109 C23.396146,12.3477372 23.2111533,15.1164964 21.9374015,17.737927 C20.9768759,19.7148613 19.5000876,21.2277372 17.6513869,22.392 C17.5953285,22.4272117 17.5306861,22.4484088 17.4140146,22.5018394 C17.4889927,22.1767007 17.5529343,21.8992117 17.6286131,21.5714453 C17.5236788,21.624 17.4593869,21.6534307 17.3977226,21.6874161 C11.0186277,25.2101606 3.13786861,21.8594453 1.2509781,14.8232409 C0.834569343,13.2709489 0.818452555,11.6908029 0.951591241,10.1071533 C1.14289051,7.83275912 1.9890219,5.81956204 3.4659854,4.07754745 C4.27848175,3.11929927 5.23462774,2.32589781 6.30236496,1.6659854 C6.3570219,1.63217518 6.41938686,1.61062774 6.52870073,1.56" id="Fill-3" fill="#FFFFFF" mask="url(#mask-2)"></path>
                    </g>
                    <path d="M16.1814307,10.3927007 C15.9925839,10.5228613 15.8401752,10.6211387 15.6963504,10.7308029 C15.6469489,10.768292 15.5991241,10.8294307 15.5847591,10.8881168 C15.4188613,11.5657226 15.8279124,12.0061314 16.2455474,12.4864818 C16.5430073,11.7635036 16.451562,11.093781 16.1814307,10.3927007 Z M13.5796204,13.3934015 C13.6574015,13.5430073 13.7726715,13.7425401 13.8663942,13.951708 C13.9350657,14.1049927 14.0252847,14.1395036 14.1701606,14.0668029 C14.4352117,13.9338394 14.7013139,13.8029781 14.9982482,13.6558248 C15.0334599,13.9345401 15.068146,14.2102774 15.103708,14.492146 C15.1424234,14.4839124 15.171854,14.4861898 15.1890219,14.4728759 C15.5900146,14.1603504 15.8480584,13.7386861 15.8823942,13.248 C15.8983358,13.0200876 15.7387445,12.6909197 15.5525255,12.5653139 C15.3941606,12.4584526 15.0501022,12.5108321 14.8467153,12.6113869 C14.4134891,12.8252847 14.0182774,13.1162628 13.5796204,13.3934015 Z M12.4649343,11.300146 C12.6744526,11.695708 12.8823942,12.0634161 13.0647591,12.4433869 C13.1544526,12.6301314 13.270073,12.6698978 13.4564672,12.6245255 C14.0741606,12.4743942 14.5489051,12.0858394 15.0250511,11.6983358 C15.0497518,11.6781898 15.0760292,11.6421022 15.0763796,11.6131971 C15.0793577,11.3544526 15.1138686,11.0871241 15.0579854,10.8408175 C15.0350365,10.7385109 14.8151825,10.6812263 14.6851971,10.6027445 C14.6039124,10.5535182 14.5292847,10.4839708 14.4413431,10.4575182 C14.3188905,10.4207299 14.1750657,10.3730803 14.0608467,10.4042628 C13.4675036,10.5664818 12.9706861,10.9094891 12.4649343,11.300146 Z M14.4066569,18.4954161 C14.3248467,18.199708 14.2547737,17.9460438 14.1985401,17.7424818 C13.6090511,17.9849343 13.0595036,18.2648759 12.478073,18.4379562 C11.4338102,18.7487299 10.3949781,18.6828613 9.38750365,18.2314161 C9.17360584,18.1355912 9.11789781,18.0268029 9.16659854,17.7974891 C9.38049635,16.7901898 9.4589781,15.7778102 9.20163504,14.7635036 C9.18674453,14.7048175 9.17062774,14.6464818 9.1510073,14.5893723 C9.14347445,14.5676496 9.12455474,14.549781 9.08286131,14.4900438 C8.54925547,15.2545401 8.00128467,15.9818978 7.23748905,16.5769927 C6.63994161,15.2753869 6.64239416,13.9441752 6.8119708,12.5534015 C6.44776642,12.6607883 6.10826277,12.7608175 5.7249635,12.873635 C5.86230657,11.6552409 6.32110949,10.6125547 7.0379562,9.63153285 C6.80829197,9.58633577 6.61068613,9.54744526 6.38294891,9.50259854 C6.84035036,8.57535766 7.46732847,7.81681752 8.32309489,7.16391241 C8.17856934,7.83083212 8.21308029,8.39264234 8.80274453,8.78435036 C8.75684672,8.58814599 8.69710949,8.3940438 8.66943066,8.19521168 C8.64840876,8.04420438 8.64578102,7.88321168 8.67328467,7.73378102 C8.77576642,7.17635036 9.1879708,6.93792701 9.72910949,7.11065693 C9.83141606,7.14341606 9.93074453,7.18581022 10.0882336,7.2450219 C9.93635036,6.85418978 9.66166423,6.69424818 9.35579562,6.56724088 C9.35229197,6.53938686 9.34878832,6.51170803 9.34545985,6.48385401 C9.85173723,6.32531387 10.3499562,6.12963504 10.8665693,6.01944526 C11.328,5.92081752 11.8097518,5.91766423 12.2823942,5.87018978 C12.7313869,5.82516788 13.0889343,6.00140146 13.3923504,6.31830657 C13.4967591,6.42744526 13.609927,6.52817518 13.7190657,6.63275912 C13.7414891,6.62189781 13.7640876,6.61086131 13.7866861,6.6 C13.7505985,6.43042336 13.7143358,6.26084672 13.6733431,6.06762044 C13.7297518,6.07287591 13.7852847,6.07024818 13.8360876,6.08426277 C14.3824818,6.23579562 14.8968175,6.45547445 15.3423066,6.81424818 C15.4153577,6.87293431 15.5110073,6.93652555 15.5358832,7.01658394 C15.6469489,7.3750073 15.7361168,7.74026277 15.8252847,8.07381022 C15.3162044,7.72029197 14.7889051,7.35416058 14.2334015,6.96858394 C14.1473869,7.23976642 14.0864234,7.43141606 14.0207299,7.6379562 C13.6265693,7.3979562 13.2744526,7.16338686 12.9020146,6.96718248 C12.7636204,6.89430657 12.5705693,6.8680292 12.4151825,6.89465693 C11.793635,7.00116788 11.2199124,7.23258394 10.6969927,7.66528467 C10.7915912,7.73272993 10.8805839,7.79614599 11.010219,7.88864234 C10.6199124,8.08239416 10.2903942,8.25757664 10.0218394,8.64280292 C10.4837956,8.56922628 10.5363504,8.86668613 10.668438,9.13821898 C10.8893431,9.59229197 11.3069781,9.81985401 11.8055474,9.83807299 C12.4158832,9.86049635 13.0274453,9.84350365 13.6638832,9.84350365 C13.4836204,9.65868613 13.2776058,9.46108029 13.087708,9.24928467 C12.8731095,9.00963504 12.6140146,8.92449635 12.2990365,8.95112409 C11.8528467,8.9889635 11.4443212,8.88245255 11.0865985,8.60040876 C11.575708,8.01687591 12.0325839,8.00251095 13.022365,8.52683212 C13.185635,8.44291971 13.3431241,8.3619854 13.5002628,8.28140146 C13.5232117,8.32554745 13.5403796,8.34411679 13.5363504,8.35252555 C13.3264818,8.79591241 13.329635,8.79258394 13.6766715,9.1480292 C13.8872409,9.3640292 14.0858978,9.59159124 14.2750949,9.79778102 C14.5418978,9.75135766 14.802219,9.67988321 15.0653431,9.66762044 C15.3281168,9.65553285 15.5936934,9.7030073 15.8823942,9.72630657 C15.4899854,9.31392701 15.1107153,8.91538686 14.7314453,8.51684672 C14.7573723,8.48443796 14.7832993,8.4520292 14.8092263,8.41979562 C14.952,8.50143066 15.0945985,8.58289051 15.2470073,8.67013139 C15.4181606,8.63544526 15.5290511,8.28805839 15.7743066,8.5229781 C15.9570219,8.69763504 15.9403796,8.87929927 15.7559124,9.09372263 C15.9002628,9.24630657 16.0453139,9.39976642 16.2194453,9.58405839 C16.2572847,9.4689635 16.279708,9.40116788 16.3010803,9.33617518 C16.3273577,9.33845255 16.3515328,9.33372263 16.3573139,9.3419562 C17.6209051,11.130219 17.9784526,13.0609051 17.2763212,15.2093431 C17.099562,15.0236496 16.9501314,14.8663358 16.7551533,14.6611971 C16.6327007,15.4821022 16.427562,16.2061314 16.0200876,16.8597372 C15.6113869,17.5152701 15.0830365,18.0501022 14.4066569,18.4954161 L14.4066569,18.4954161 Z" id="Fill-5" fill="#291B3D"></path>
                    <path d="M13.3475036,3.45354745 C13.3888467,3.98207299 13.4233577,4.4259854 13.4636496,4.94294891 C13.7626861,4.61570803 14.0135474,4.34119708 14.2645839,4.06651095 C14.2836788,4.08525547 14.3025985,4.10382482 14.3215182,4.12256934 C14.2087007,4.63865693 14.0958832,5.15474453 13.9788613,5.69027737 C12.223708,5.25442336 10.5368759,5.43854015 8.93868613,6.31042336 C8.70306569,5.80922628 8.47340146,5.32064234 8.20362044,4.74656934 C8.57430657,4.97921168 8.88981022,5.1769927 9.25191241,5.40420438 C9.17693431,4.91018978 9.10913869,4.46382482 9.03030657,3.94405839 C9.58493431,4.32578102 10.0847299,4.6700146 10.6155328,5.03527007 C10.7975474,4.50954745 10.9688759,4.0150073 11.1629781,3.45424818 C11.4711241,3.94510949 11.7510657,4.39129927 12.0539562,4.87375182 C12.4845547,4.40093431 12.8923796,3.95334307 13.3475036,3.45354745" id="Fill-6" fill="#291B3D"></path>
                    <path d="M2.544,15.2597956 C2.50388321,15.1578394 2.47637956,15.0877664 2.43871533,14.9917664 C2.76525547,14.8570511 3.08145985,14.7265401 3.43042336,14.5825401 C3.53991241,14.8696642 3.64344526,15.1410219 3.76729927,15.4658102 C3.81249635,15.5661898 3.9289927,15.7170219 3.94020438,15.8753869 C3.95579562,16.0969927 3.75363504,16.1812555 3.5700438,16.2515036 C3.40169343,16.3157956 3.23614599,16.3869197 3.04747445,16.464 C3.00823358,16.3744818 2.97564964,16.3000292 2.93150365,16.1992993 C3.13208759,16.1162628 3.32128467,16.0551241 3.4910365,15.9592993 C3.56075912,15.9198832 3.58843796,15.8060146 3.63521168,15.7261314 C3.5420146,15.6968759 3.43918248,15.6271533 3.35754745,15.6464234 C3.17535766,15.6896934 3.00367883,15.7771095 2.80519708,15.8554161 C2.76648175,15.7772847 2.73056934,15.7051095 2.68151825,15.6059562 C2.87894891,15.520292 3.06691971,15.457927 3.23264234,15.3582482 C3.30551825,15.3144526 3.3330219,15.1946277 3.3810219,15.1094891 C3.28537226,15.0854891 3.18043796,15.0241752 3.09617518,15.0453723 C2.9150365,15.0907445 2.74475912,15.1786861 2.544,15.2597956" id="Fill-7" fill="#291B3D"></path>
                    <path d="M6.30569343,18.0602628 C6.39188321,18.1308613 6.45722628,18.184292 6.54674453,18.2573431 C6.26767883,18.6064818 5.99579562,18.9465109 5.70359124,19.312292 C5.87632117,19.456292 6.0450219,19.5969635 6.23632117,19.7565547 C6.18008759,19.8296058 6.12578102,19.899854 6.05833577,19.9872701 C5.79223358,19.7723212 5.54049635,19.5687591 5.26826277,19.3489051 C5.61670073,18.9160292 5.94989781,18.5022482 6.30569343,18.0602628" id="Fill-8" fill="#291B3D"></path>
                    <path d="M10.973781,20.7783942 C11.1876788,20.737927 11.2686131,20.8058978 11.2276204,21.0085839 C11.2036204,21.1270073 11.1948613,21.2485839 11.1750657,21.3678832 C11.1218102,21.6893431 10.8968759,21.8682044 10.5974891,21.8298394 C10.2767299,21.7884964 10.1062774,21.5879124 10.129927,21.260146 C10.1441168,21.0634161 10.1784526,20.8682628 10.2066569,20.6489343 C10.3068613,20.6652263 10.3870949,20.6781898 10.4887007,20.6946569 C10.4617226,20.894365 10.4117956,21.0742774 10.4240584,21.2498102 C10.4310657,21.3500146 10.5190073,21.4898102 10.6072993,21.5288759 C10.7493723,21.5915912 10.851854,21.4822774 10.8811095,21.3354745 C10.9178978,21.1508321 10.9434745,20.9639124 10.973781,20.7783942" id="Fill-9" fill="#291B3D"></path>
                    <path d="M2.93956204,13.3576642 C2.79013139,12.7876204 2.37109489,13.1646131 2.05909489,13.052146 C2.0510365,12.9992409 2.03912409,12.9200584 2.02283212,12.812146 C2.3870365,12.7688759 2.73284672,12.727708 3.07848175,12.6865401 C3.10633577,12.9083212 3.13033577,13.0971679 3.15678832,13.3070365 C3.10178102,13.32 3.03030657,13.3366423 2.93956204,13.3576642" id="Fill-10" fill="#291B3D"></path>
                    <path d="M4.39042336,18.4328759 C4.34347445,18.3741898 4.29652555,18.3153285 4.23345985,18.2364964 C4.50236496,18.0003504 4.76075912,17.7734891 5.01915328,17.5466277 C5.16,17.7032409 5.29629197,17.8547737 5.45816058,18.0345109 C5.41541606,18.0718248 5.35988321,18.1207007 5.29243796,18.1797372 C4.85570803,17.7741898 4.71608759,18.3402044 4.39042336,18.4328759" id="Fill-11" fill="#291B3D"></path>
                    <path d="M3.34405839,16.9508321 C3.29448175,16.8669197 3.25278832,16.7964964 3.19567883,16.6997956 C3.5139854,16.5200584 3.81652555,16.3492555 4.13360584,16.170219 C4.18475912,16.255708 4.22732847,16.3268321 4.2830365,16.419854 C3.96735766,16.598365 3.66464234,16.7695182 3.34405839,16.9508321" id="Fill-12" fill="#291B3D"></path>
                    <path d="M4.5967049,15.8708321 C4.72092452,16.013034 4.85143373,16.0967994 4.83937867,16.1660056 C4.82601326,16.2413945 4.68030418,16.3032214 4.59224977,16.3708321 C4.50262295,16.3022242 4.35481734,16.2395996 4.3409278,16.1632134 C4.32861067,16.0954033 4.46567155,16.0120367 4.5967049,15.8708321" id="Fill-13" fill="#291B3D"></path>
                    <path d="M12.4649343,11.300146 C12.9706861,10.9094891 13.4675036,10.5664818 14.0608467,10.4042628 C14.1750657,10.3730803 14.3188905,10.4207299 14.4413431,10.4575182 C14.5292847,10.4839708 14.6039124,10.5535182 14.6851971,10.6027445 C14.8151825,10.6812263 15.0350365,10.7385109 15.0579854,10.8408175 C15.1138686,11.0871241 15.0793577,11.3544526 15.0763796,11.6131971 C15.0760292,11.6421022 15.0497518,11.6781898 15.0250511,11.6983358 C14.5489051,12.0858394 14.0741606,12.4743942 13.4564672,12.6245255 C13.270073,12.6698978 13.1544526,12.6301314 13.0647591,12.4433869 C12.8823942,12.0634161 12.6744526,11.695708 12.4649343,11.300146" id="Fill-14" fill="#FFFFFF"></path>
                    <path d="M13.5796204,13.3934015 C14.0182774,13.1162628 14.4134891,12.8252847 14.8467153,12.6113869 C15.0501022,12.5108321 15.3941606,12.4584526 15.5525255,12.5653139 C15.7387445,12.6909197 15.8983358,13.0200876 15.8823942,13.248 C15.8480584,13.7386861 15.5900146,14.1603504 15.1890219,14.4728759 C15.171854,14.4861898 15.1424234,14.4839124 15.103708,14.492146 C15.068146,14.2102774 15.0334599,13.9345401 14.9982482,13.6558248 C14.7013139,13.8029781 14.4352117,13.9338394 14.1701606,14.0668029 C14.0252847,14.1395036 13.9350657,14.1049927 13.8663942,13.951708 C13.7726715,13.7425401 13.6574015,13.5430073 13.5796204,13.3934015" id="Fill-15" fill="#FFFFFF"></path>
                    <path d="M16.1814307,10.3927007 C16.451562,11.093781 16.5430073,11.7635036 16.2455474,12.4864818 C15.8279124,12.0061314 15.4188613,11.5657226 15.5847591,10.8881168 C15.5991241,10.8294307 15.6469489,10.768292 15.6963504,10.7308029 C15.8401752,10.6211387 15.9925839,10.5228613 16.1814307,10.3927007" id="Fill-16" fill="#FFFFFF"></path>
                    <path d="M9.69494891,21.0609635 C9.57757664,21.1320876 9.46545985,21.2499854 9.3419562,21.2634745 C9.16186861,21.2832701 9.0660438,21.1380438 9.07743066,20.9604088 C9.08846715,20.791708 9.20443796,20.6704818 9.36578102,20.706219 C9.48858394,20.7333723 9.59018978,20.8561752 9.70143066,20.9364088 C9.69915328,20.977927 9.69705109,21.0194453 9.69494891,21.0609635 Z M9.66656934,20.5487299 C9.4489927,20.3788029 9.23894891,20.379854 9.02014599,20.508438 C8.80572263,20.6343942 8.71743066,20.9160876 8.79381022,21.1701022 C8.86213139,21.3967883 9.06359124,21.535708 9.32724088,21.5374599 C9.37313869,21.5378102 9.41886131,21.537635 9.47544526,21.537635 C9.3319708,21.8426277 9.16414599,21.8394745 8.77909489,21.5385109 C8.7249635,21.5845839 8.66837956,21.6324088 8.60005839,21.6905693 C8.93290511,22.1414891 9.52940146,22.1751241 9.70458394,21.7581898 C9.85611679,21.3980146 9.93845255,21.0087591 10.0563504,20.6149489 C9.89745985,20.5914745 9.74855474,20.6128467 9.66656934,20.5487299 L9.66656934,20.5487299 Z" id="Fill-17" fill="#291B3D"></path>
                    <path d="M3.23071533,12.1581898 C3.20286131,12.2012847 3.01156204,12.2067153 2.97862774,12.1643212 C2.89436496,12.0555328 2.85705109,11.9101314 2.78137226,11.7335474 L3.38435036,11.7335474 C3.3300438,11.8971679 3.30516788,12.0437956 3.23071533,12.1581898 Z M3.63713869,11.4247007 L2.00794161,11.4247007 L2.00794161,11.7118248 C2.18872993,11.7198832 2.34989781,11.7272409 2.53261314,11.7354745 C2.53962044,11.8626569 2.53927007,11.957781 2.5510073,12.0515036 C2.58744526,12.345635 2.80327007,12.5364088 3.09442336,12.5374599 C3.36981022,12.5385109 3.60175182,12.3549197 3.63258394,12.0755036 C3.65588321,11.8652847 3.63713869,11.6505109 3.63713869,11.4247007 L3.63713869,11.4247007 Z" id="Fill-18" fill="#291B3D"></path>
                    <path d="M8.10779562,20.7987153 C8.00811679,20.7988905 7.84940146,20.658219 7.82242336,20.5525839 C7.78178102,20.3926423 7.90265693,20.2327007 8.07941606,20.2468905 C8.20011679,20.2567007 8.31205839,20.3758248 8.42785401,20.4458978 C8.42978102,20.488292 8.43170803,20.5305109 8.43381022,20.5727299 C8.3250219,20.6541898 8.21658394,20.7987153 8.10779562,20.7987153 Z M8.44677372,20.108146 C8.26756204,19.9573139 8.07906569,19.9163212 7.87024818,19.9918248 C7.63515328,20.0769635 7.51235036,20.2672117 7.5060438,20.5096642 C7.50026277,20.7284672 7.5880292,20.924146 7.80140146,21.0155912 C7.99094891,21.0968759 8.19363504,21.1471533 8.41786861,21.2200292 C8.55310949,20.9201168 8.69623358,20.6026861 8.83970803,20.2842044 C8.69132847,20.220438 8.54610219,20.1915328 8.44677372,20.108146 L8.44677372,20.108146 Z" id="Fill-19" fill="#291B3D"></path>
                    <path d="M7.24905109,19.9704526 C7.08105109,19.8630657 6.95491971,19.7823066 6.81722628,19.6941898 C7.08105109,19.5635036 7.20332847,19.6327007 7.24905109,19.9704526 Z M7.36134307,20.2707153 C7.57261314,20.0074161 7.57594161,19.742365 7.38306569,19.5356496 C7.18528467,19.3236788 6.85979562,19.2956496 6.62978102,19.4708321 C6.39731387,19.6475912 6.32618978,19.9732555 6.46808759,20.2120292 C6.61786861,20.4644672 6.91725547,20.5713285 7.23468613,20.4303066 C7.1239708,20.3574307 7.05389781,20.2878832 6.97016058,20.2609051 C6.79270073,20.2037956 6.66113869,20.1268905 6.68583942,19.8744526 C6.92233577,20.0131971 7.13483212,20.137927 7.36134307,20.2707153 L7.36134307,20.2707153 Z" id="Fill-20" fill="#291B3D"></path>
                    <path d="M12.1657226,21.2039124 L11.6890511,21.2039124 C11.8554745,20.9698686 11.9593577,20.968292 12.1657226,21.2039124 Z M12.096,21.6161168 C11.8968175,21.7136934 11.7852263,21.655708 11.688,21.4341022 L12.4519708,21.4341022 C12.4552993,21.0423942 12.3060438,20.8351533 12.0171679,20.7797956 C11.7698102,20.7323212 11.5009051,20.8754453 11.4021022,21.1072117 C11.2929635,21.3636788 11.3788029,21.6753285 11.5991825,21.8219562 C11.8316496,21.9766423 12.1562628,21.9324964 12.3708613,21.7147445 C12.3162044,21.5791533 12.247708,21.5418394 12.096,21.6161168 L12.096,21.6161168 Z" id="Fill-21" fill="#291B3D"></path>
                    <path d="M4.41705109,17.4127883 C4.33576642,17.2938394 4.25448175,17.1748905 4.17319708,17.0559416 C4.18791241,17.0347445 4.20245255,17.0135474 4.21716788,16.9921752 C4.30055474,17.0408759 4.40881752,17.071708 4.46014599,17.1433577 C4.50727007,17.2090511 4.49308029,17.3188905 4.5060438,17.4092847 C4.47643796,17.4105109 4.44665693,17.411562 4.41705109,17.4127883 Z M4.72835036,17.0797664 C4.6120292,16.8204964 4.34329927,16.6898102 4.06651095,16.7579562 C3.7979562,16.8241752 3.61856934,17.0752117 3.63906569,17.3563796 C3.66008759,17.6450803 3.87013139,17.8558248 4.2450219,17.8887591 C4.17880292,17.7727883 4.15252555,17.6757372 4.08893431,17.6244088 C3.89570803,17.4684964 3.86347445,17.3730219 3.99188321,17.1738394 C4.14166423,17.3796788 4.28724088,17.5799124 4.44192701,17.7927591 C4.75672993,17.582365 4.84624818,17.3427153 4.72835036,17.0797664 L4.72835036,17.0797664 Z" id="Fill-22" fill="#291B3D"></path>
                    <path d="M2.94569343,14.2810511 C2.9080292,14.112 2.87527007,13.9646715 2.83690511,13.7926423 C3.12472993,13.9259562 3.15363504,14.0566423 2.94569343,14.2810511 Z M3.34072993,14.0417518 C3.32846715,13.7707445 3.14943066,13.5647299 2.88840876,13.521635 C2.60583942,13.4748613 2.34639416,13.606073 2.24811679,13.8455474 C2.13424818,14.1226861 2.23760584,14.4218978 2.52350365,14.6105693 C2.56414599,14.5510073 2.6049635,14.4910949 2.64437956,14.4332847 C2.49775182,14.2477664 2.36566423,14.0732847 2.61232117,13.8352117 C2.68554745,14.1067445 2.75141606,14.3511241 2.82148905,14.6116204 C3.20075912,14.5182482 3.3540438,14.3409635 3.34072993,14.0417518 L3.34072993,14.0417518 Z" id="Fill-23" fill="#291B3D"></path>
                </g>
            </g>
        </g>
    </g>
</svg>