<?xml version="1.0" encoding="UTF-8" standalone="no"?>
<svg width="23px" height="25px" viewBox="0 0 23 25" version="1.1" xmlns="http://www.w3.org/2000/svg" xmlns:xlink="http://www.w3.org/1999/xlink">
    <!-- Generator: Sketch 42 (36781) - http://www.bohemiancoding.com/sketch -->
    <title>Page 1</title>
    <desc>Created with Sketch.</desc>
    <defs>
        <polygon id="path-1" points="22.3275 12.4870048 22.3275 24.9038462 0 24.9038462 0 12.4870048 0 0.0701634615 22.3275 0.0701634615 22.3275 12.4870048"></polygon>
        <polygon id="path-3" points="0 24.9299038 22.3275 24.9299038 22.3275 0.0961538462 0 0.0961538462"></polygon>
    </defs>
    <g id="Page-1" stroke="none" stroke-width="1" fill="none" fill-rule="evenodd">
        <g>
            <g id="Group-3" transform="translate(0.000000, 0.026058)">
                <mask id="mask-2" fill="white">
                    <use xlink:href="#path-1"></use>
                </mask>
                <g id="Clip-2"></g>
                <path d="M11.1639385,12.0559288 L11.1615385,12.0535288 L11.1765385,12.0685288 L11.1639385,12.0559288 Z M22.3261538,0.875259615 L22.3261538,0.873721154 C18.9345192,0.358048077 15.1521154,0.0701634615 11.1630769,0.0701634615 C7.17423077,0.0701634615 3.39153846,0.358048077 0,0.873721154 L0,0.891990385 L0.000480769231,10.1892019 C0.0025,18.0627596 4.56788462,22.4909327 10.9815385,24.8451635 L11.1638462,24.9037212 L11.1644231,24.9039135 L11.3464423,24.8451635 C17.7601923,22.4909327 22.325,18.0627596 22.3275,10.1892019 L22.3275,0.875259615 L22.3261538,0.875259615 L22.3261538,0.875259615 Z" id="Fill-1" fill="#1DAFE5" mask="url(#mask-2)"></path>
            </g>
            <path d="M21.555125,1.67225962 L21.555125,1.67081731 C18.3979135,1.19081731 14.8765673,0.922740385 11.1632019,0.922740385 C7.44964423,0.922740385 3.92829808,1.19081731 0.771086538,1.67081731 L0.771086538,1.68793269 L0.771375,10.4986058 C0.773394231,17.8285096 5.02349038,21.9507212 10.9941635,24.1422596 L11.163875,24.1966827 L11.1644519,24.1969712 L11.3337788,24.1422596 C17.3045481,21.9507212 21.5542596,17.8285096 21.5565673,10.4986058 L21.5565673,1.67225962 L21.555125,1.67225962" id="Fill-4" fill="#7A2638"></path>
            <path d="M16.2928654,20.1527596 C16.4572885,20.3174712 16.7205577,20.1431442 16.9906538,19.8732404 C17.2604615,19.6033365 17.4348846,19.339875 17.2702692,19.1751635 L6.96478846,9.12900962 C6.80017308,8.96429808 6.50594231,8.99179808 6.30767308,9.19016346 C6.10921154,9.38843269 6.082,9.68266346 6.24651923,9.84727885 L16.2928654,20.1527596" id="Fill-6" fill="#D1A340"></path>
            <path d="M7.2845,8.97549038 L8.12738462,7.98404808 C8.12738462,7.98404808 8.20690385,7.87799038 8.08315385,7.72741346 C7.75796154,7.33164423 7.10623077,6.75443269 7.10623077,6.75443269 C7.01209615,6.68375962 6.94805769,6.70097115 6.84353846,6.80125962 C6.32748077,7.29597115 5.0145,8.56500962 4.93526923,8.64722115 C4.83613462,8.749625 4.79055769,8.81847115 4.82228846,8.99385577 C4.85430769,9.17077885 4.94844231,9.46452885 4.78584615,9.74981731 L3.89844231,11.1463558 C3.78728846,11.3168365 3.75488462,11.4674135 3.83892308,11.5493365 C3.88363462,11.5931827 3.99642308,11.6441442 4.22555769,11.4850096 C4.33517308,11.4090481 5.54171154,10.5968365 5.92613462,10.2805865 C6.15142308,10.0952981 6.32325,9.92674038 6.32325,9.92674038 L7.05132692,9.21260577 C7.05132692,9.21260577 7.20469231,9.06222115 7.2845,8.97549038" id="Fill-8" fill="#F6D44C"></path>
            <path d="M4.23132692,11.3954904 C3.97930769,11.5660673 3.98007692,11.5912596 4.01526923,11.5865481 C4.07075,11.5742404 4.13998077,11.5444327 4.22565385,11.4850096 C4.33517308,11.4090481 5.54161538,10.5968365 5.92613462,10.2805865 C6.08498077,10.1498173 6.217,10.0277019 6.28113462,9.96693269 C6.08267308,10.0091442 5.82978846,10.1056827 5.67623077,10.2339519 C5.47055769,10.405875 4.59190385,11.1511635 4.23132692,11.3954904" id="Fill-10" fill="#D1A340"></path>
            <path d="M7.28430769,8.97549038 L8.12728846,7.98404808 C8.12728846,7.98404808 8.17613462,7.91818269 8.13690385,7.81674038 C8.13690385,7.81674038 8.06728846,7.73818269 7.82430769,8.02183654 C7.62017308,8.26000962 7.52344231,8.35299038 7.35132692,8.55885577 C7.21844231,8.71770192 7.12017308,8.98279808 7.08026923,9.18395192 C7.12863462,9.13625962 7.22613462,9.03895192 7.28430769,8.97549038" id="Fill-12" fill="#D1A340"></path>
            <path d="M6.05717308,20.1527596 C5.89275,20.3174712 5.62938462,20.1431442 5.35919231,19.8732404 C5.08948077,19.6033365 4.91515385,19.339875 5.07967308,19.1751635 L15.389,9.12516346 C15.5536154,8.96045192 15.8478462,8.98785577 16.0463077,9.18631731 C16.2444808,9.38458654 16.2719808,9.67881731 16.1073654,9.84324038 L6.05717308,20.1527596" id="Fill-14" fill="#D1A340"></path>
            <path d="M5.95693269,20.0536058 L15.5757788,10.175625 C15.7403942,10.0110096 15.7128942,9.716875 15.514625,9.51841346 C15.410875,9.41466346 15.2810673,9.358125 15.157125,9.35100962 L5.07952885,19.1749519 C4.92270192,19.3321635 5.07414423,19.5791827 5.32270192,19.8360096 C5.57000962,20.0692788 5.80539423,20.2053365 5.95693269,20.0536058" id="Fill-16" fill="#F6D44C"></path>
            <path d="M15.0693462,8.9715 L14.2264615,7.98005769 C14.2264615,7.98005769 14.1468462,7.874 14.2705,7.72342308 C14.5958846,7.32765385 15.2476154,6.75044231 15.2476154,6.75044231 C15.3419423,6.67976923 15.4059808,6.69698077 15.5103077,6.79726923 C16.0262692,7.29198077 17.3393462,8.56101923 17.4185769,8.64323077 C17.5177115,8.74544231 17.5632885,8.81448077 17.5313654,8.98976923 C17.4994423,9.16659615 17.4055,9.46053846 17.5681923,9.74582692 L18.4555962,11.1423654 C18.5665577,11.3128462 18.5988654,11.4634231 18.5151154,11.5453462 C18.4701154,11.5891923 18.3574231,11.6401538 18.1282885,11.4809231 C18.0187692,11.4050577 16.8122308,10.5928462 16.4277115,10.2765962 C16.2024231,10.0912115 16.0305962,9.92275 16.0305962,9.92275 L15.3025192,9.20861538 C15.3025192,9.20861538 15.14925,9.05813462 15.0693462,8.9715" id="Fill-18" fill="#F6D44C"></path>
            <path d="M18.1226058,11.3916346 C18.3745288,11.5622115 18.3739519,11.5874038 18.3384712,11.5826923 C18.2830865,11.5703846 18.2137596,11.5405769 18.128375,11.4811538 C18.0187596,11.4051923 16.8122212,10.5929808 16.4277019,10.2765385 C16.2689519,10.1459615 16.1370288,10.0238462 16.0727981,9.96307692 C16.2712596,10.0052885 16.5241442,10.1018269 16.6776058,10.2300962 C16.8834712,10.4020192 17.7619327,11.1473077 18.1226058,11.3916346" id="Fill-20" fill="#D1A340"></path>
            <path d="M15.0693462,8.9715 L14.2264615,7.98005769 C14.2264615,7.98005769 14.1776154,7.91419231 14.2170385,7.81275 C14.2170385,7.81275 14.2863654,7.73419231 14.5294423,8.01784615 C14.7336731,8.25601923 14.8304038,8.349 15.0024231,8.55486538 C15.1353077,8.71371154 15.2334808,8.97871154 15.2733846,9.17996154 C15.2252115,9.13226923 15.1277115,9.03496154 15.0693462,8.9715" id="Fill-22" fill="#D1A340"></path>
            <path d="M16.6929712,9.25878846 C16.6135481,9.33830769 16.4847981,9.33830769 16.405375,9.25878846 L15.9736442,8.82686538 C15.894125,8.74763462 15.894125,8.61888462 15.9736442,8.53965385 C16.0531635,8.45994231 16.1818173,8.45994231 16.2612404,8.53946154 L16.6929712,8.97119231 C16.7723942,9.05042308 16.7723942,9.17936538 16.6929712,9.25878846" id="Fill-24" fill="#D1A340"></path>
            <path d="M16.0317308,8.82689423 C15.9523077,8.74766346 15.9523077,8.61891346 16.0317308,8.53949038 C16.0640385,8.50708654 16.1047115,8.48824038 16.1463462,8.48218269 C16.0852885,8.47343269 16.0207692,8.492375 15.9736538,8.53949038 C15.8941346,8.61891346 15.8941346,8.74766346 15.9736538,8.82689423 L16.4053846,9.25881731 C16.4525,9.30593269 16.5170192,9.324875 16.5781731,9.31602885 C16.53625,9.309875 16.4955769,9.291125 16.4634615,9.25881731 L16.0317308,8.82689423" id="Fill-26" fill="#C7A13D"></path>
            <polygon id="Fill-28" fill="#D1A340" points="16.258214 9.25625962 16.1904423 9.25625962 16.1904423 9.18851633 16.6224608 8.75667908 16.6904423 8.75625962 16.6904423 8.8240029"></polygon>
            <polygon id="Fill-30" fill="#D1A340" points="16.4156827 9.17928846 16.2561827 9.17928846 16.2561827 9.02078846 16.4161827 9.02078846"></polygon>
            <mask id="mask-4" fill="white">
                <use xlink:href="#path-3"></use>
            </mask>
            <g id="Clip-33"></g>
            <polygon id="Fill-32" fill="#D1A340" mask="url(#mask-4)" points="16.1203846 9.04330769 16.2793846 9.04330769 16.2793846 8.88480769 16.1203846 8.88480769"></polygon>
            <polygon id="Fill-34" fill="#D1A340" mask="url(#mask-4)" points="16.5475288 8.70825315 16.4185555 8.57932692 16.3593666 8.57950954 16.3593666 8.63867681 16.379827 8.65949493 16.3807404 8.68688719 16.0478942 9.01979442 16.0475288 9.07914431 16.1067177 9.07932692 16.4410254 8.74477616 16.4675142 8.74660231 16.4881573 8.76760304 16.5475288 8.76760304"></polygon>
            <polygon id="Fill-35" fill="#D1A340" mask="url(#mask-4)" points="16.8242212 9.07933687 16.7801076 9.07230239 16.6153709 9.19161273 16.5929005 9.19009549 16.589592 9.17009549 16.6233665 9.10278515 16.6199201 9.06899204 16.6193687 9.06871618 16.618128 9.06706101 16.617163 9.06609549 16.6163358 9.06499204 16.6146816 9.06388859 16.6144059 9.06375066 16.5807693 9.06016446 16.5132203 9.0936817 16.4933692 9.09064721 16.4915771 9.06788859 16.6108217 8.90319894 16.6040668 8.85892308 16.5602289 8.86609549 16.3242212 9.19119894 16.3271161 9.23133687 16.3283568 9.23312997 16.3290461 9.2332679 16.3641991 9.23823342 16.4798594 9.18071618 16.4991591 9.18430239 16.5019162 9.20485411 16.4452578 9.31919894 16.4500827 9.35464721 16.450772 9.35506101 16.4518749 9.35630239 16.4922664 9.35892308 16.8173284 9.12333687"></polygon>
            <path d="M7.25492308,9.41184615 C7.12992308,9.40905769 6.99453846,9.46232692 6.88876923,9.56828846 C6.70425,9.75271154 6.67876923,10.0262692 6.83184615,10.17925 L10.9499231,14.39925 L11.6506923,13.6984808 L7.25492308,9.41184615" id="Fill-36" fill="#F6D44C" mask="url(#mask-4)"></path>
            <path d="M17.2702692,19.1751731 L12.0752692,14.1120962 C11.9937308,14.1485385 11.9171923,14.1999808 11.8502692,14.2669038 C11.5797885,14.5373846 11.5588269,14.9623846 11.7868077,15.2571923 L16.43325,20.0215192 C16.5861346,20.1747885 16.8310385,20.0124808 17.0820962,19.7617115 C17.1244038,19.7191154 17.1643077,19.677 17.2004615,19.6353654 C17.3343077,19.4545962 17.3855577,19.2906538 17.2702692,19.1751731" id="Fill-37" fill="#F6D44C" mask="url(#mask-4)"></path>
            <polygon id="Fill-38" fill="#F6D44C" mask="url(#mask-4)" points="16.2487617 9.24673077 16.1809615 9.24673077 16.1809615 9.17856802 16.6129515 8.7469405 16.6809615 8.74673077 16.6809615 8.81447406"></polygon>
            <polygon id="Fill-39" fill="#F6D44C" mask="url(#mask-4)" points="16.4062885 9.17011538 16.2467885 9.17011538 16.2467885 9.01111538 16.4067885 9.01111538"></polygon>
            <polygon id="Fill-40" fill="#F6D44C" mask="url(#mask-4)" points="16.2697308 9.03459615 16.1112308 9.03459615 16.1107308 8.87509615 16.2697308 8.87509615"></polygon>
            <polygon id="Fill-41" fill="#F6D44C" mask="url(#mask-4)" points="16.5378558 8.69889722 16.4090651 8.56960577 16.3496935 8.57015361 16.3496935 8.62895566 16.3705193 8.64977378 16.3710673 8.67753126 16.0378558 9.01062111 16.0378558 9.06942315 16.0972273 9.06960577 16.4313523 8.73542023 16.4580238 8.737429 16.4786669 8.75788188 16.5378558 8.75788188"></polygon>
            <polygon id="Fill-42" fill="#F6D44C" mask="url(#mask-4)" points="16.8148365 9.06980802 16.7707229 9.06277354 16.606262 9.18194595 16.5835159 9.18070458 16.5802074 9.16056664 16.6139818 9.09298044 16.6105355 9.05960113 16.6101219 9.05918733 16.6087433 9.05753216 16.6077784 9.05656664 16.6069512 9.05560113 16.605297 9.05435975 16.6047456 9.05408389 16.5711089 9.05063561 16.5038357 9.08415285 16.4839846 9.08111837 16.4821925 9.05849768 16.6015749 8.89353216 16.5946821 8.84939423 16.5508443 8.85642871 16.3148365 9.18180802 16.3177315 9.22180802 16.3189722 9.22360113 16.3196615 9.22373906 16.3548145 9.22856664 16.4704748 9.17118733 16.4897745 9.17477354 16.4928073 9.19532527 16.4358732 9.30994595 16.4406981 9.34498044 16.4411117 9.34567009 16.4424902 9.34677354 16.4828818 9.34939423 16.8079438 9.11394595"></polygon>
            <path d="M6.38033654,8.54345192 C6.45975962,8.622875 6.45975962,8.751625 6.38033654,8.83104808 L5.94841346,9.26277885 C5.86918269,9.34229808 5.74043269,9.34229808 5.66100962,9.26277885 C5.58149038,9.18316346 5.58149038,9.05460577 5.66081731,8.97518269 L6.09274038,8.54345192 C6.17197115,8.46402885 6.30091346,8.46402885 6.38033654,8.54345192" id="Fill-43" fill="#D1A340" mask="url(#mask-4)"></path>
            <path d="M5.69701923,9.01135577 L6.12894231,8.579625 C6.20221154,8.50635577 6.31721154,8.50077885 6.39711538,8.56279808 L6.38019231,8.54327885 C6.30076923,8.46404808 6.17201923,8.46404808 6.09259615,8.54327885 L5.66086538,8.97520192 C5.58134615,9.05452885 5.58134615,9.183375 5.66086538,9.26260577 L5.68019231,9.27943269 C5.61836538,9.199625 5.62375,9.084625 5.69701923,9.01135577" id="Fill-44" fill="#C7A13D" mask="url(#mask-4)"></path>
            <polygon id="Fill-45" fill="#D1A340" mask="url(#mask-4)" points="6.36827885 9.28004731 6.36827885 9.34802885 6.30047868 9.34802885 5.86827885 8.91580056 5.86827885 8.84802885 5.93607901 8.84802885"></polygon>
            <polygon id="Fill-46" fill="#D1A340" mask="url(#mask-4)" points="6.29192308 8.98075 6.29192308 9.13975 6.13342308 9.13975 6.13242308 8.98075"></polygon>
            <polygon id="Fill-47" fill="#D1A340" mask="url(#mask-4)" points="6.15569231 9.11671154 6.15569231 9.27521154 5.99669231 9.27571154 5.99669231 9.11671154"></polygon>
            <polygon id="Fill-48" fill="#D1A340" mask="url(#mask-4)" points="5.8203117 8.95703846 5.69125 9.08592329 5.6916151 9.14497265 5.75076077 9.14497265 5.77138874 9.12449733 5.79931864 9.12394888 6.13192178 9.45703846 6.1908849 9.45703846 6.19125 9.3979891 5.85682138 9.06325418 5.85846431 9.03692877 5.87963992 9.01608782 5.87963992 8.95703846"></polygon>
            <polygon id="Fill-49" fill="#D1A340" mask="url(#mask-4)" points="6.19125357 8.59458654 6.18422103 8.63844861 6.30377426 8.80327619 6.30211954 8.82603481 6.28198717 8.82920723 6.2144196 8.79555206 6.18104949 8.7988624 6.18036003 8.79955206 6.17884321 8.80093137 6.17815374 8.80148309 6.1770506 8.80258654 6.17580956 8.80424171 6.17539588 8.80479344 6.17208645 8.83817275 6.20545655 8.90548309 6.20228501 8.92562102 6.17980846 8.92741412 6.01488843 8.80796585 5.97103846 8.81472447 5.97793311 8.85900033 6.3029469 9.09458654 6.34348744 9.09196585 6.34472848 9.09044861 6.34514216 9.09003481 6.34996841 9.0548624 6.29260493 8.93913826 6.29619014 8.91996585 6.3167362 8.91679344 6.43104949 8.97362102 6.4663501 8.96893137 6.46690167 8.96851757 6.46814271 8.96700033 6.47103846 8.92672447 6.23524144 8.60134516"></polygon>
            <polygon id="Fill-50" fill="#F6D44C" mask="url(#mask-4)" points="6.36827885 9.25846867 6.36827885 9.32624038 6.30047868 9.32624038 5.86827885 8.89422192 5.86827885 8.82624038 5.93607901 8.82624038"></polygon>
            <polygon id="Fill-51" fill="#F6D44C" mask="url(#mask-4)" points="6.29192308 8.95926923 6.29192308 9.11876923 6.13342308 9.11876923 6.13242308 8.95876923"></polygon>
            <polygon id="Fill-52" fill="#F6D44C" mask="url(#mask-4)" points="6.15569231 9.09483654 6.15569231 9.25383654 5.99669231 9.25483654 5.99669231 9.09483654"></polygon>
            <polygon id="Fill-53" fill="#F6D44C" mask="url(#mask-4)" points="5.8203117 8.93516346 5.69125 9.06395411 5.6916151 9.12332568 5.75076077 9.12332568 5.77138874 9.10268264 5.79931864 9.10195192 6.13192178 9.43516346 6.1908849 9.43516346 6.19125 9.37597457 5.85682138 9.04166693 5.85846431 9.01536076 5.87963992 8.99453504 5.87963992 8.93516346"></polygon>
            <polygon id="Fill-54" fill="#F6D44C" mask="url(#mask-4)" points="6.19125357 8.57270192 6.18422103 8.61681552 6.30377426 8.7812765 6.30211954 8.80402257 6.28198717 8.80719324 6.2144196 8.77383233 6.18104949 8.77714085 6.18036003 8.77755442 6.17884321 8.77893297 6.17815374 8.7797601 6.1770506 8.78086294 6.17580956 8.78237934 6.17539588 8.78306862 6.17208645 8.81615381 6.20545655 8.88370275 6.20228501 8.90355387 6.17980846 8.90562169 6.01488843 8.78596357 5.97103846 8.79285632 5.97793311 8.83696991 6.3029469 9.07270192 6.34348744 9.07008268 6.34472848 9.06856627 6.34514216 9.067877 6.34996841 9.03272398 6.29260493 8.91706365 6.29619014 8.89790181 6.3167362 8.89500686 6.43104949 8.9515274 6.4663501 8.94684033 6.46690167 8.94642676 6.46814271 8.94491036 6.47103846 8.90493242 6.23524144 8.57973253"></polygon>
            <path d="M7.11139423,6.07125 C6.721875,6.10817308 6.35120192,5.84692308 6.34043269,5.43769231 C6.32860577,5.06076923 6.31677885,4.68384615 6.30485577,4.30682692 C6.48168269,4.29298077 6.57024038,4.28653846 6.74706731,4.27394231 C6.75793269,4.65086538 6.76870192,5.02778846 6.77947115,5.40471154 C6.78466346,5.59240385 6.91033654,5.68355769 7.09831731,5.67105769 C7.124375,5.66951923 7.13745192,5.66865385 7.16350962,5.66692308 C7.35149038,5.65471154 7.471875,5.54740385 7.46735577,5.35980769 C7.45831731,4.98278846 7.44918269,4.60586538 7.44014423,4.22884615 C7.61716346,4.21836538 7.70572115,4.21346154 7.88293269,4.20423077 C7.89091346,4.58125 7.89899038,4.95817308 7.90697115,5.33528846 C7.91341346,5.74673077 7.57350962,6.04846154 7.17649038,6.06711538 C7.15033654,6.06884615 7.13745192,6.06951923 7.11139423,6.07125" id="Fill-55" fill="#FFFFFF" mask="url(#mask-4)"></path>
            <path d="M8.22125,4.19080769 C8.42682692,4.18109615 8.52980769,4.17667308 8.73538462,4.16859615 C8.96644231,4.54042308 9.19605769,4.91321154 9.42394231,5.28725 L9.42903846,5.28705769 C9.42519231,4.90657692 9.42144231,4.52609615 9.41778846,4.14580769 C9.595,4.14090385 9.68384615,4.13869231 9.86125,4.13503846 C9.86615385,4.73157692 9.87125,5.32801923 9.87625,5.92436538 C9.67384615,5.92869231 9.57269231,5.93119231 9.37038462,5.93696154 C9.14230769,5.56426923 8.91269231,5.19253846 8.68163462,4.82167308 L8.67653846,4.82186538 C8.68221154,5.20148077 8.68778846,5.581 8.69336538,5.96051923 C8.51807692,5.96763462 8.43048077,5.97148077 8.25528846,5.97994231 C8.24403846,5.38359615 8.23269231,4.78715385 8.22125,4.19080769" id="Fill-56" fill="#FFFFFF" mask="url(#mask-4)"></path>
            <path id="Fill-57" fill="#FFFFFF" mask="url(#mask-4)"></path>
            <path d="M11.5229231,4.49875 C11.29475,4.4975 11.1806154,4.49730769 10.95225,4.49826923 L10.9516731,4.12288462 C11.481,4.12259615 12.0100385,4.12730769 12.5392692,4.13721154 C12.5381154,4.2875 12.53725,4.3625 12.536,4.51278846 C12.3078269,4.50769231 12.1935962,4.50567308 11.9654231,4.50278846 C11.9629231,4.97403846 11.9607115,5.44538462 11.9581154,5.91673077 C11.7828269,5.91451923 11.6950385,5.91375 11.5198462,5.91288462 C11.5208077,5.44134615 11.5217692,4.97 11.5229231,4.49875" id="Fill-58" fill="#FFFFFF" mask="url(#mask-4)"></path>
            <path d="M12.8604327,4.14394231 C13.2608173,4.15596154 13.6609135,4.17057692 14.0611058,4.18788462 C14.0584135,4.33798077 14.0569712,4.41307692 14.0541827,4.56326923 C13.751875,4.54923077 13.6009135,4.54307692 13.2987019,4.53269231 C13.2967788,4.66288462 13.2958173,4.72798077 13.2941827,4.85807692 C13.5403365,4.86653846 13.6635096,4.87134615 13.9094712,4.88230769 C13.906875,5.03240385 13.9054327,5.1075 13.9028365,5.2575 C13.6572596,5.24673077 13.5345673,5.24173077 13.2889904,5.23346154 C13.2870673,5.36865385 13.2862019,5.43625 13.284375,5.57134615 C13.5986058,5.58211538 13.7558173,5.58836538 14.0699519,5.60336538 C14.0669712,5.75346154 14.0657212,5.82865385 14.0628365,5.97875 C13.655625,5.96086538 13.2484135,5.94557692 12.8411058,5.93326923 C12.8475481,5.33682692 12.8539904,4.74028846 12.8604327,4.14394231" id="Fill-59" fill="#FFFFFF" mask="url(#mask-4)"></path>
            <path d="M15.0530096,5.65367308 C15.356375,5.67280769 15.5468558,5.50617308 15.5564712,5.16338462 C15.5662788,4.82309615 15.3771442,4.63405769 15.0793558,4.61540385 C14.9803173,4.60925 14.9308942,4.60617308 14.8319519,4.6005 C14.8235865,4.94665385 14.8156058,5.29280769 14.8072404,5.63886538 C14.9057019,5.64463462 14.9548365,5.64751923 15.0530096,5.65367308 M14.3979135,4.20098077 C14.6815673,4.21540385 14.8231058,4.22338462 15.1064712,4.24117308 C15.6208942,4.26040385 16.0255096,4.68117308 16.011375,5.19732692 C15.9973365,5.70386538 15.563875,6.07848077 15.0610865,6.03011538 C14.7809904,6.01242308 14.6409904,6.00444231 14.3606058,5.99011538 C14.3731058,5.39376923 14.3856058,4.79732692 14.3979135,4.20098077" id="Fill-60" fill="#FFFFFF" mask="url(#mask-4)"></path>
            <path d="M2.59535577,2.10767308 C2.82583654,2.07853846 2.94122115,2.06459615 3.17199038,2.03748077 C3.27545192,2.54555769 3.37891346,3.05353846 3.48247115,3.56151923 L3.48872115,3.56084615 C3.60708654,3.02776923 3.72554808,2.49488462 3.84410577,1.962 C4.04285577,1.94075 4.142375,1.93046154 4.34131731,1.91075 C4.45660577,2.4195 4.57227885,2.92825 4.68775962,3.43690385 L4.69391346,3.43632692 C4.80583654,2.90623077 4.91785577,2.37603846 5.02997115,1.84575 C5.25756731,1.82555769 5.37122115,1.81603846 5.59891346,1.79776923 C5.40910577,2.56325 5.21939423,3.32882692 5.02997115,4.09459615 C4.76314423,4.11825 4.62968269,4.13075 4.36314423,4.15719231 C4.27247115,3.72719231 4.18179808,3.29709615 4.091125,2.86709615 L4.08477885,2.86767308 C3.99400962,3.31651923 3.90352885,3.76517308 3.81304808,4.21401923 C3.54381731,4.24296154 3.40939423,4.25805769 3.14054808,4.28978846 C2.95891346,3.56238462 2.77727885,2.83507692 2.59535577,2.10767308" id="Fill-61" fill="#FFFFFF" mask="url(#mask-4)"></path>
            <path d="M17.0787115,1.82958654 C17.3264038,1.85083654 17.4500577,1.86208654 17.6975577,1.88574038 C17.8612115,2.36833654 18.0243846,2.851125 18.1875577,3.33391346 L18.194,3.33449038 C18.3569808,2.88535577 18.5203462,2.43641346 18.6837115,1.98747115 C18.9283269,2.01449038 19.0506346,2.02852885 19.2951538,2.05785577 C19.4298654,2.82410577 19.5646731,3.59016346 19.699,4.35631731 C19.4722692,4.32766346 19.3589038,4.31391346 19.1317885,4.28718269 C19.0654423,3.78689423 18.9989038,3.28650962 18.9325577,2.78622115 L18.9262115,2.78545192 C18.7654423,3.26035577 18.6045769,3.73497115 18.444,4.20997115 C18.24525,4.18881731 18.1457308,4.17843269 17.9467885,4.15872115 C17.7829423,3.65035577 17.619,3.14208654 17.4546731,2.63381731 L17.4484231,2.63314423 C17.3901538,3.12054808 17.3319808,3.60804808 17.2738077,4.09525962 C17.0425577,4.07468269 16.9268846,4.06497115 16.6955385,4.04631731 C16.8233269,3.30756731 16.9511154,2.56852885 17.0787115,1.82958654" id="Fill-62" fill="#FFFFFF" mask="url(#mask-4)"></path>
            <path d="M5.81866346,1.78494231 C6.32472115,1.74686538 6.83068269,1.7135 7.33722115,1.68455769 C7.32635577,1.87398077 7.32097115,1.9685 7.31000962,2.15782692 C6.99625962,2.17590385 6.68260577,2.19542308 6.36895192,2.21619231 L6.36895192,2.62523077 C6.67606731,2.60398077 6.829625,2.59426923 7.13674038,2.57638462 L7.13674038,3.04811538 C6.829625,3.06590385 6.67606731,3.07551923 6.36895192,3.09696154 L6.36895192,3.52148077 C6.69722115,3.49869231 7.02549038,3.4785 7.35404808,3.46061538 L7.35404808,3.93244231 C6.84183654,3.96148077 6.33010577,3.99523077 5.81866346,4.03359615 L5.81866346,1.78494231" id="Fill-63" fill="#FFFFFF" mask="url(#mask-4)"></path>
            <path d="M9.92619231,2.06781731 C9.64176923,2.07252885 9.49955769,2.07579808 9.21513462,2.08368269 L9.21513462,1.61185577 C9.87311538,1.59522115 10.5307115,1.58685577 11.1888846,1.58666346 C11.1887885,1.77541346 11.1887885,1.86964423 11.1887885,2.05839423 C10.9043654,2.05781731 10.7620577,2.05820192 10.4775385,2.06070192 L10.4775385,3.83772115 C10.2570577,3.83954808 10.1466731,3.84099038 9.92619231,3.84464423 L9.92619231,2.06781731" id="Fill-64" fill="#FFFFFF" mask="url(#mask-4)"></path>
            <path d="M12.1046346,1.59141346 C12.3251154,1.59420192 12.4355,1.59583654 12.6559808,1.60045192 L12.6559808,2.499875 C12.9747308,2.50727885 13.2930962,2.51602885 13.6118462,2.52631731 L13.6118462,1.62699038 C13.8322308,1.63449038 13.9425192,1.63881731 14.1629038,1.64852885 L14.1629038,3.89718269 C13.9425192,3.88756731 13.8322308,3.88324038 13.6118462,3.87554808 L13.6118462,2.99506731 C13.2930962,2.98468269 12.9747308,2.97574038 12.6559808,2.96852885 L12.6559808,3.84910577 C12.4355,3.84449038 12.3251154,3.84285577 12.1046346,3.84006731 L12.1046346,1.59141346" id="Fill-65" fill="#FFFFFF" mask="url(#mask-4)"></path>
            <path d="M15.4330192,2.22654808 C15.3505192,2.49635577 15.2679231,2.765875 15.1855192,3.03568269 C15.3848462,3.04722115 15.4844615,3.053375 15.6836923,3.06664423 C15.6024423,2.78674038 15.5208077,2.50683654 15.4393654,2.22702885 L15.4330192,2.22654808 M15.8127308,3.51558654 C15.5102308,3.49491346 15.3589808,3.48558654 15.0563846,3.46847115 C15.00225,3.65414423 14.9751346,3.74702885 14.9210962,3.93270192 C14.6943654,3.92039423 14.581,3.91472115 14.3542692,3.90443269 C14.5816731,3.16635577 14.8094615,2.428375 15.0373462,1.69039423 C15.3346538,1.70722115 15.4832115,1.71645192 15.7802308,1.73645192 C16.0262885,2.50385577 16.2719615,3.27125962 16.5171538,4.03895192 C16.2908077,4.02116346 16.1776346,4.01279808 15.9511923,3.99674038 C15.8957115,3.80433654 15.8681154,3.70808654 15.8127308,3.51558654" id="Fill-66" fill="#FFFFFF" mask="url(#mask-4)"></path>
            <path d="M8.37970192,1.59925 C7.96902885,1.61386538 7.50374038,1.86675 7.50066346,2.32838462 C7.49585577,3.03309615 8.554125,2.84376923 8.61941346,3.22896154 C8.63758654,3.3355 8.51749038,3.42492308 8.36566346,3.42473077 C8.08268269,3.42425 7.85941346,3.36915385 7.62816346,3.25059615 C7.61700962,3.44473077 7.60768269,3.54684615 7.60008654,3.72319231 C7.83883654,3.88309615 8.08527885,3.91761538 8.35191346,3.92453846 C8.74768269,3.93492308 9.22374038,3.66040385 9.22777885,3.19751923 C9.23374038,2.49828846 8.18479808,2.65665385 8.10874038,2.29290385 C8.089125,2.19973077 8.20297115,2.10809615 8.37277885,2.09838462 C8.63220192,2.08348077 8.81883654,2.14790385 8.96075962,2.20617308 C8.97220192,1.98261538 8.97556731,1.95078846 8.98816346,1.73309615 C8.86316346,1.66136538 8.66633654,1.58915385 8.37970192,1.59925" id="Fill-67" fill="#FFFFFF" mask="url(#mask-4)"></path>
            <polygon id="Fill-68" fill="#FFFFFF" mask="url(#mask-4)" points="7.90823077 20.1770865 8.17611538 20.2941058 7.79823077 21.1589135 8.24525 21.3540096 8.14505769 21.5838173 7.43015385 21.2713173"></polygon>
            <path d="M8.97447115,21.5814519 C9.14677885,21.6286635 9.32600962,21.5186635 9.38004808,21.3222212 C9.43158654,21.1336635 9.33216346,20.9540481 9.15985577,20.9066442 C8.98754808,20.8591442 8.81004808,20.9628942 8.75831731,21.1513558 C8.70427885,21.3477981 8.80216346,21.5340481 8.97447115,21.5814519 M9.23052885,20.6490481 C9.57850962,20.744625 9.76216346,21.072125 9.67139423,21.4022212 C9.57850962,21.7404904 9.25149038,21.934625 8.90370192,21.8390481 C8.55581731,21.7436635 8.37379808,21.4094327 8.466875,21.0712596 C8.55754808,20.7412596 8.88274038,20.553375 9.23052885,20.6490481" id="Fill-69" fill="#FFFFFF" mask="url(#mask-4)"></path>
            <path d="M9.95130769,20.8460288 L10.2455385,20.8759327 L10.5179423,21.4645865 C10.5565,21.547375 10.5970769,21.6774712 10.5970769,21.6774712 L10.6003462,21.6777596 C10.6003462,21.6777596 10.5999615,21.5485288 10.6076538,21.473625 L10.6641923,20.9187212 L10.9550577,20.9482404 L10.834,22.1363173 L10.5415962,22.1066058 L10.2672692,21.5196827 C10.2286154,21.4368942 10.1880385,21.3067019 10.1880385,21.3067019 L10.1848654,21.3064135 C10.1848654,21.3064135 10.1850577,21.4358365 10.1774615,21.5104519 L10.1211154,22.0640096 L9.83025,22.0342019 L9.95130769,20.8460288" id="Fill-70" fill="#FFFFFF" mask="url(#mask-4)"></path>
            <path d="M11.6238654,21.8717019 C11.8257885,21.8607404 11.9426154,21.7340096 11.9304038,21.5054519 C11.9181923,21.2787212 11.7833846,21.1687212 11.5866538,21.1793942 L11.4665577,21.1858365 L11.5037692,21.8779519 L11.6238654,21.8717019 Z M11.1611731,20.9516058 L11.5848269,20.9285288 C11.9600192,20.9083365 12.2120385,21.1140096 12.2322308,21.4892981 C12.2524231,21.8644904 12.02425,22.101125 11.6490577,22.1213173 L11.2254038,22.1441058 L11.1611731,20.9516058 L11.1611731,20.9516058 Z" id="Fill-71" fill="#FFFFFF" mask="url(#mask-4)"></path>
            <path d="M13.0640096,21.6852115 C13.2384327,21.6469423 13.3458365,21.4657885 13.3020865,21.2670385 C13.2599712,21.0760769 13.0881442,20.9631923 12.913625,21.00175 C12.7391058,21.0401154 12.6303558,21.2144423 12.6722788,21.4055 C12.7160288,21.6043462 12.8894904,21.7236731 13.0640096,21.6852115 M12.856125,20.7407885 C13.208625,20.6632885 13.5237212,20.8674231 13.5971827,21.2019423 C13.6726635,21.5446346 13.4737212,21.8687692 13.1213173,21.9463654 C12.7690096,22.0237692 12.4524712,21.8128077 12.3768942,21.4705 C12.3035288,21.1357885 12.5039135,20.8181923 12.856125,20.7407885" id="Fill-72" fill="#FFFFFF" mask="url(#mask-4)"></path>
            <path d="M13.5850673,20.5802885 L13.8592019,20.4698077 L14.3744904,20.8632692 C14.4471827,20.9186538 14.5437212,21.0147115 14.5437212,21.0147115 L14.5467981,21.0134615 C14.5467981,21.0134615 14.4862212,20.8991346 14.4580481,20.8294231 L14.2493942,20.3122115 L14.5204519,20.2028846 L14.9672788,21.3102885 L14.6947788,21.4201923 L14.1785288,21.0288462 C14.1056442,20.9735577 14.0092019,20.8775 14.0092019,20.8775 L14.0062212,20.87875 C14.0062212,20.87875 14.0667019,20.9929808 14.0947788,21.0625962 L14.3028558,21.5783654 L14.0317981,21.6876923 L13.5850673,20.5802885" id="Fill-73" fill="#FFFFFF" mask="url(#mask-4)"></path>
        </g>
    </g>
</svg>