<?xml version="1.0" encoding="UTF-8" standalone="no"?>
<svg width="25px" height="25px" viewBox="0 0 25 25" version="1.1" xmlns="http://www.w3.org/2000/svg" xmlns:xlink="http://www.w3.org/1999/xlink">
    <!-- Generator: Sketch 42 (36781) - http://www.bohemiancoding.com/sketch -->
    <title>chelsea_crest</title>
    <desc>Created with Sketch.</desc>
    <defs>
        <polygon id="path-1" points="24.9174664 12.4932893 24.9174664 24.9520154 0 24.9520154 0 12.4932893 0 0.0345633397 24.9174664 0.0345633397"></polygon>
    </defs>
    <g id="Page-1" stroke="none" stroke-width="1" fill="none" fill-rule="evenodd">
        <g id="standings" transform="translate(-37.000000, -568.000000)">
            <g id="Group" transform="translate(15.000000, 478.000000)">
                <g id="row3" transform="translate(0.000000, 90.000000)">
                    <g id="chelsea_crest" transform="translate(22.000000, 0.000000)">
                        <g id="Group-3" transform="translate(0.000000, 0.013436)">
                            <mask id="mask-2" fill="white">
                                <use xlink:href="#path-1"></use>
                            </mask>
                            <g id="Clip-2"></g>
                            <path d="M0,12.4932965 C0,5.6124904 5.57797505,0.0345633397 12.4587332,0.0345633397 C19.3394914,0.0345633397 24.9174664,5.6124904 24.9174664,12.4932965 C24.9174664,19.3740547 19.3394914,24.9520298 12.4587332,24.9520298 C5.57797505,24.9520298 0,19.3740547 0,12.4932965" id="Fill-1" fill="#EC9B24" mask="url(#mask-2)"></path>
                        </g>
                        <path d="M0.397327255,12.5067322 C0.397327255,5.84540787 5.79742322,0.4453119 12.4587476,0.4453119 C19.120072,0.4453119 24.5201679,5.84540787 24.5201679,12.5067322 C24.5201679,19.1680566 19.120072,24.5681046 12.4587476,24.5681046 C5.79742322,24.5681046 0.397327255,19.1680566 0.397327255,12.5067322" id="Fill-4" fill="#005397"></path>
                        <path d="M3.82021593,12.5067322 C3.82021593,7.73581094 7.6878263,3.86820058 12.4587476,3.86820058 C17.2296689,3.86820058 21.0972793,7.73581094 21.0972793,12.5067322 C21.0972793,17.2776536 17.2296689,21.1452159 12.4587476,21.1452159 C7.6878263,21.1452159 3.82021593,17.2776536 3.82021593,12.5067322" id="Fill-6" fill="#EC9B24"></path>
                        <path d="M4.07611804,12.5067322 C4.07611804,7.87712572 7.82914107,4.12410269 12.4587476,4.12410269 C17.0883541,4.12410269 20.8413772,7.87712572 20.8413772,12.5067322 C20.8413772,17.1362908 17.0883541,20.8893138 12.4587476,20.8893138 C7.82914107,20.8893138 4.07611804,17.1362908 4.07611804,12.5067322" id="Fill-8" fill="#F1EEED"></path>
                        <path d="M1.35322457,9.90220729 C1.35322457,10.5448656 1.87419386,11.0658349 2.51685221,11.0658349 C3.15955854,11.0658349 3.68052783,10.5448656 3.68052783,9.90220729 C3.68052783,9.25954894 3.15955854,8.73857965 2.51685221,8.73857965 C1.87419386,8.73857965 1.35322457,9.25954894 1.35322457,9.90220729" id="Fill-10" fill="#F1EEED"></path>
                        <path d="M2.34675144,13.918906 C2.5146977,13.918906 2.64363244,13.9728887 2.71863244,13.9728887 C2.79363244,13.9728887 3.23297985,13.918906 3.23297985,14.2547985 C3.23297985,14.2833013 3.22247121,14.3552783 3.22247121,14.3552783 C3.22247121,14.3552783 3.25994722,14.331286 3.38139635,14.331286 C3.50289347,14.331286 3.69483205,14.4527351 3.69483205,14.8606046 C3.69483205,14.9430902 3.78777831,15.0540307 3.78777831,15.2654511 C3.78777831,15.5069098 3.61834453,15.5534069 3.51786468,15.5534069 C3.51786468,15.5534069 3.59583973,15.6358445 3.59583973,15.7498081 C3.59583973,15.8637716 3.48638676,16.046737 3.17299904,16.1576775 C3.09833493,16.1841171 2.84910269,16.3901152 2.74713532,16.3901152 C2.52971689,16.3901152 2.45174184,16.2521593 2.45174184,16.1981766 C2.45174184,16.1981766 2.37822937,16.350096 2.2027975,16.3526392 C1.99588772,16.3556142 1.8234309,16.0857006 1.76191459,16.0452495 C1.70044626,16.0047505 1.40654031,15.8053263 1.40654031,15.6283589 C1.40654031,15.4829175 1.52050384,15.3869482 1.52050384,15.3869482 C1.52050384,15.3869482 1.27194338,15.3428503 1.28960173,15.0900192 C1.30308541,14.8965931 1.43355566,14.7346449 1.45903551,14.6566699 C1.48451536,14.5786948 1.55951536,14.1917946 1.83988964,14.1917946 C1.92986084,14.1917946 2.00337332,14.259309 2.00337332,14.259309 C2.00337332,14.2023033 2.02434261,13.918906 2.34675144,13.918906" id="Fill-12" fill="#F1EEED"></path>
                        <path d="M2.47633877,14.7165547 C2.54610845,14.5522073 2.59759597,14.4347409 2.60167466,14.4347409 C2.60575336,14.4347409 2.63785509,14.5604607 2.68017754,14.7357965 C2.7159261,14.7479846 2.74989923,14.7640595 2.78089731,14.784405 C2.87979367,14.6692898 3.11151152,14.3862284 3.11151152,14.2622841 C3.11151152,14.0598369 2.78761516,14.1048464 2.70215451,14.1048464 C2.61664587,14.1048464 2.40522553,14.0598369 2.34073417,14.0598369 C2.17729846,14.0598369 2.13679942,14.146833 2.13679942,14.2382917 C2.13679942,14.325 2.29567658,14.6034549 2.37801823,14.7418426 C2.40920825,14.7297025 2.44222169,14.7214491 2.47633877,14.7165547" id="Fill-14" fill="#EE3542"></path>
                        <path d="M3.5821881,14.9763964 C3.55757198,14.8944866 3.5396737,14.6790355 3.52110365,14.6172793 C3.47393474,14.4608013 3.37902111,14.4470777 3.29140115,14.4735173 C3.20570058,14.499333 2.97331094,14.7459741 2.86880038,14.8605134 C2.90114203,14.8968858 2.92729367,14.9386804 2.94643954,14.9841219 C3.13118042,15.0002927 3.26534549,15.0130086 3.26745681,15.015072 C3.26961612,15.0172313 3.14653551,15.0954942 2.97834933,15.2001008 C2.97638196,15.2185269 2.97359885,15.236761 2.96952015,15.2544674 C3.11678503,15.3189107 3.43511516,15.4480854 3.54946257,15.4136804 C3.74327255,15.3552831 3.60685221,15.0581142 3.5821881,14.9763964" id="Fill-16" fill="#EE3542"></path>
                        <path d="M3.42082534,15.6590979 C3.36909789,15.5858733 3.06036468,15.442975 2.91890595,15.3802111 C2.89980806,15.4123129 2.87648752,15.4416315 2.85019194,15.4678791 C2.89424184,15.6652399 2.92519194,15.8131286 2.92106526,15.8173033 C2.91679463,15.8215739 2.79505758,15.7216219 2.63536468,15.5864491 C2.61684261,15.5906238 2.59793666,15.5938388 2.57859885,15.5955662 C2.5640595,15.7531958 2.54097889,16.1026679 2.61060461,16.2013724 C2.72730326,16.3668234 2.96602687,16.1433589 3.03579655,16.0940307 C3.10571017,16.0447505 3.30441459,15.9596257 3.35705374,15.9224376 C3.49064299,15.8282438 3.47351248,15.733858 3.42082534,15.6590979" id="Fill-18" fill="#EE3542"></path>
                        <path d="M2.05584453,15.7468186 C2.05584453,15.7382294 2.11006718,15.6014251 2.18425144,15.4194194 C2.16054702,15.3877015 2.14053743,15.3530566 2.12585413,15.3156286 C1.96635317,15.3497457 1.63957774,15.4294002 1.56755278,15.5228263 C1.44399232,15.683095 1.72796545,15.8452351 1.79571977,15.8973464 C1.86337812,15.9496017 2.0034453,16.1141891 2.05445298,16.1535845 C2.18391555,16.2533925 2.26908829,16.2091507 2.32494242,16.1367418 C2.37825336,16.0675 2.42268714,15.7453311 2.44173704,15.5866939 C2.41971209,15.5817994 2.39855086,15.5747457 2.37791747,15.5666843 C2.19452015,15.6763292 2.05584453,15.7558877 2.05584453,15.7468186" id="Fill-20" fill="#EE3542"></path>
                        <path d="M2.09536948,15.1495441 C2.09546545,15.140571 2.09661708,15.1318858 2.09724088,15.1230086 C1.95664587,14.999976 1.85491843,14.9087092 1.85491843,14.9041027 C1.85491843,14.8995441 1.98366123,14.9073177 2.1631238,14.9205134 C2.19201056,14.8744962 2.22867083,14.8338052 2.27190499,14.8011756 C2.19181862,14.6671065 2.00170345,14.3663868 1.8862524,14.3275192 C1.69440979,14.2628359 1.63356526,14.5841411 1.60640595,14.6650912 C1.57900672,14.7461372 1.46892994,14.9322217 1.44839251,14.9932582 C1.39618522,15.1481526 1.46566699,15.2142754 1.55237524,15.2434981 C1.63284549,15.2705614 1.93606046,15.2120202 2.09647313,15.1778071 C2.09599328,15.1684501 2.09527351,15.1590451 2.09536948,15.1495441" id="Fill-22" fill="#EE3542"></path>
                        <path d="M2.27191459,15.1545106 C2.27191459,15.3015835 2.39115643,15.4208253 2.53822937,15.4208253 C2.68535029,15.4208253 2.80459213,15.3015835 2.80459213,15.1545106 C2.80459213,15.0074376 2.68535029,14.8881958 2.53822937,14.8881958 C2.39115643,14.8881958 2.27191459,15.0074376 2.27191459,15.1545106" id="Fill-24" fill="#EE3542"></path>
                        <path d="M22.7123417,13.918906 C22.5443954,13.918906 22.4154607,13.9728887 22.3404607,13.9728887 C22.2654607,13.9728887 21.8261132,13.918906 21.8261132,14.2547985 C21.8261132,14.2833013 21.8366219,14.3552783 21.8366219,14.3552783 C21.8366219,14.3552783 21.7991459,14.331286 21.6776967,14.331286 C21.5561996,14.331286 21.364261,14.4527351 21.364261,14.8606046 C21.364261,14.9430902 21.2713148,15.0540307 21.2713148,15.2654511 C21.2713148,15.5069098 21.4407486,15.5534069 21.5412284,15.5534069 C21.5412284,15.5534069 21.4632534,15.6358445 21.4632534,15.7498081 C21.4632534,15.8637716 21.5727063,16.046737 21.886094,16.1576775 C21.9607582,16.1841171 22.2099904,16.3901152 22.3119578,16.3901152 C22.5293762,16.3901152 22.6073512,16.2521593 22.6073512,16.1981766 C22.6073512,16.1981766 22.6809117,16.350096 22.8562956,16.3526392 C23.0632054,16.3556142 23.2356622,16.0857006 23.2971785,16.0452495 C23.3586468,16.0047505 23.6525528,15.8053263 23.6525528,15.6283589 C23.6525528,15.4829175 23.5385893,15.3869482 23.5385893,15.3869482 C23.5385893,15.3869482 23.7871497,15.3428503 23.7694914,15.0900192 C23.7560077,14.8965931 23.6255374,14.7346449 23.6000576,14.6566699 C23.5745777,14.5786948 23.4995777,14.1917946 23.2192035,14.1917946 C23.1292322,14.1917946 23.0557198,14.259309 23.0557198,14.259309 C23.0557198,14.2023033 23.0347505,13.918906 22.7123417,13.918906" id="Fill-26" fill="#F1EEED"></path>
                        <path d="M22.5827735,14.7165547 C22.5130038,14.5522073 22.4615163,14.4347409 22.4574376,14.4347409 C22.4533589,14.4347409 22.4212572,14.5604607 22.3789347,14.7357965 C22.3431862,14.7479846 22.3092131,14.7640595 22.278167,14.784405 C22.1793186,14.6692898 21.9476008,14.3862284 21.9476008,14.2622841 C21.9476008,14.0598369 22.2714971,14.1048464 22.3569578,14.1048464 C22.4424184,14.1048464 22.6538388,14.0598369 22.7183301,14.0598369 C22.8817658,14.0598369 22.9222649,14.146833 22.9222649,14.2382917 C22.9222649,14.325 22.7633877,14.6034549 22.681094,14.7418426 C22.649856,14.7297025 22.6168906,14.7214491 22.5827735,14.7165547" id="Fill-28" fill="#EE3542"></path>
                        <path d="M21.4768762,14.9763964 C21.5015403,14.8944866 21.5194386,14.6790355 21.5379607,14.6172793 C21.5851296,14.4608013 21.6800432,14.4470777 21.7677111,14.4735173 C21.8534117,14.499333 22.0857534,14.7459741 22.1902639,14.8605134 C22.1579223,14.8968858 22.1317706,14.9386804 22.1126727,14.9841219 C21.9279319,15.0002927 21.7937668,15.0130086 21.7916555,15.015072 C21.7894962,15.0172313 21.9125288,15.0954942 22.080715,15.2001008 C22.0826823,15.2185269 22.0855134,15.236761 22.0895441,15.2544674 C21.9422793,15.3189107 21.6239491,15.4480854 21.5096017,15.4136804 C21.3157917,15.3552831 21.4522121,15.0581142 21.4768762,14.9763964" id="Fill-30" fill="#EE3542"></path>
                        <path d="M21.638263,15.6590979 C21.6899904,15.5858733 21.9987236,15.442975 22.1401823,15.3802111 C22.1592802,15.4123129 22.1826008,15.4416315 22.2089443,15.4678791 C22.1648944,15.6652399 22.1338484,15.8131286 22.138023,15.8173033 C22.1422937,15.8215739 22.2640307,15.7216219 22.4237236,15.5864491 C22.4422457,15.5906238 22.4611036,15.5938388 22.4804894,15.5955662 C22.4950288,15.7531958 22.5181094,16.1026679 22.4484837,16.2013724 C22.331785,16.3668234 22.0931094,16.1433589 22.0232438,16.0940307 C21.9533301,16.0447505 21.7546737,15.9596257 21.7020345,15.9224376 C21.5684453,15.8282438 21.5855758,15.733858 21.638263,15.6590979" id="Fill-32" fill="#EE3542"></path>
                        <path d="M23.0032486,15.7468186 C23.0032486,15.7382294 22.9490259,15.6014251 22.8747937,15.4194194 C22.8985461,15.3877015 22.9185557,15.3530566 22.933191,15.3156286 C23.0927399,15.3497457 23.4195154,15.4294002 23.4915883,15.5228263 C23.6151008,15.683095 23.3311276,15.8452351 23.2633733,15.8973464 C23.195715,15.9496017 23.0556958,16.1141891 23.0045921,16.1535845 C22.8751775,16.2533925 22.7900048,16.2091507 22.7341507,16.1367418 C22.6808397,16.0675 22.636406,15.7453311 22.617356,15.5866939 C22.639381,15.5817994 22.6605422,15.5747457 22.6811756,15.5666843 C22.8645729,15.6763292 23.0032486,15.7558877 23.0032486,15.7468186" id="Fill-34" fill="#EE3542"></path>
                        <path d="M22.9637476,15.1495441 C22.9636516,15.140571 22.9625,15.1318858 22.9618762,15.1230086 C23.1024712,14.999976 23.2041987,14.9087092 23.2041987,14.9041027 C23.2041987,14.8995441 23.0754079,14.9073177 22.8959933,14.9205134 C22.8670585,14.8744962 22.8303983,14.8338052 22.7871641,14.8011756 C22.8672985,14.6671065 23.0573656,14.3663868 23.1728167,14.3275192 C23.3646593,14.2628359 23.4255038,14.5841411 23.4526631,14.6650912 C23.4800624,14.7461372 23.5901871,14.9322217 23.6106766,14.9932582 C23.6628839,15.1481526 23.5934021,15.2142754 23.5066939,15.2434981 C23.4262716,15.2705614 23.1230566,15.2120202 22.962644,15.1778071 C22.9630758,15.1684501 22.9638436,15.1590451 22.9637476,15.1495441" id="Fill-36" fill="#EE3542"></path>
                        <path d="M22.7871785,15.1545106 C22.7871785,15.3015835 22.6679846,15.4208253 22.5208157,15.4208253 C22.3737908,15.4208253 22.254501,15.3015835 22.254501,15.1545106 C22.254501,15.0074376 22.3737908,14.8881958 22.5208157,14.8881958 C22.6679846,14.8881958 22.7871785,15.0074376 22.7871785,15.1545106" id="Fill-38" fill="#EE3542"></path>
                        <path d="M3.23190979,9.66966411 C3.18306142,9.66788868 3.12831094,9.66678503 3.06866603,9.66644914 L2.625,10.7047409 C2.68459693,10.7569482 2.72859885,10.7973992 2.76041267,10.8282054 C3.02581574,10.4911132 3.22044146,10.1671209 3.23190979,9.66966411" id="Fill-40" fill="#EE3542"></path>
                        <path d="M3.42579655,9.51098468 C3.34273512,9.44135592 3.16231286,9.30638196 3.01101727,9.30638196 C2.88001919,9.30638196 2.79527831,9.35324908 2.74676583,9.39692454 C2.89638196,9.56952659 3.01432821,9.71894705 3.05290787,9.7685019 C3.26236084,9.7694258 3.40674664,9.78857581 3.49671785,9.80638196 C3.47809981,9.70349266 3.45410749,9.6049709 3.42579655,9.51098468" id="Fill-42" fill="#EE3542"></path>
                        <path d="M2.8062572,10.0362956 C2.4190691,9.7990595 1.80894434,9.4503071 1.61945298,9.40213052 C1.57588292,9.48005758 1.54296545,9.56441459 1.52084453,9.65318618 C1.66326296,9.85337812 2.40025912,10.2275144 2.71743762,10.2442131 L2.8062572,10.0362956 Z" id="Fill-44" fill="#EE3542"></path>
                        <path d="M2.12714613,10.6346879 C2.04605746,10.6019207 1.96616128,10.5668799 1.88914107,10.5300336 C1.90317026,10.6269976 1.93754175,10.7602061 2.01070393,10.8681371 C2.12721627,10.9377506 2.25411021,10.992786 2.38914107,11.0300336 C2.27340033,10.8986306 2.16046543,10.7350623 2.12714613,10.6346879" id="Fill-46" fill="#EE3542"></path>
                        <path d="M2.67809501,10.3362716 C2.38879559,10.2971161 1.74460173,10.0164539 1.49877639,9.76899712 C1.4931142,9.81271113 1.48917946,9.85695298 1.48917946,9.9022025 C1.48917946,9.98895873 1.50112764,10.0726919 1.52132917,10.1531622 C1.66427543,10.3370873 2.11950576,10.5728839 2.53845969,10.663095 L2.67809501,10.3362716 Z" id="Fill-48" fill="#EE3542"></path>
                        <path d="M2.844381,9.94709693 L2.97797025,9.63442898 C2.7384309,9.45990883 2.17773033,9.08342131 1.93535988,9.05520633 C1.83204894,9.12627159 1.7425096,9.21576296 1.67120441,9.31888196 C1.95685701,9.4112524 2.64817179,9.82727927 2.844381,9.94709693" id="Fill-50" fill="#EE3542"></path>
                        <path d="M2.70009597,11.1088607 C2.65777351,11.0338826 2.59966411,10.9372189 2.54505758,10.8500372 C2.43210173,10.8081583 2.30695777,10.7413453 2.18166987,10.6566219 C2.23728407,10.8266833 2.33565259,11.0497738 2.39452975,11.1420477 C2.4346929,11.1508273 2.47538388,11.1566219 2.5168906,11.1566219 C2.57667946,11.1566219 2.63493282,11.1452962 2.69193858,11.1273857 C2.69462572,11.12124 2.69736084,11.1150064 2.70009597,11.1088607" id="Fill-52" fill="#EE3542"></path>
                        <path d="M2.02762281,10.5580433 C1.86753744,10.4913294 1.72004544,10.4209923 1.59240403,10.3488436 C1.71652356,10.538037 1.88642751,10.7072242 2.09240403,10.8488436 C2.05014149,10.7372336 2.03146486,10.6316886 2.02762281,10.5580433" id="Fill-54" fill="#EE3542"></path>
                        <path d="M2.86209213,9.01648273 C2.71756238,9.01648273 2.53018234,9.06124624 2.41621881,9.25947259 C2.49846449,9.34131381 2.58075816,9.42974286 2.65806142,9.51648273 C2.71962572,9.43506381 2.83661228,9.35786786 3.01103647,9.35786786 C3.1200096,9.35786786 3.23805182,9.41665164 3.33296545,9.4792361 C3.26453935,9.32163475 3.18253359,9.18345908 3.08877159,9.07273273 C3.04309021,9.04823948 2.96410749,9.01648273 2.86209213,9.01648273" id="Fill-56" fill="#EE3542"></path>
                        <path d="M3.32771593,9.67425624 C3.31490403,10.1909069 3.10928983,10.5371641 2.84503839,10.8754079 C3.25151631,10.7383637 3.54455854,10.3548704 3.54455854,9.9021833 C3.54455854,9.83015835 3.53697697,9.75990883 3.52286948,9.69205854 C3.47949136,9.68630038 3.41538388,9.67943858 3.32771593,9.67425624" id="Fill-58" fill="#EE3542"></path>
                        <path d="M2.32990403,9.37449616 C2.43244722,9.12629917 2.60212092,8.98978567 2.82534549,8.97597978 C2.72793666,8.91024724 2.6243858,8.87449616 2.51685221,8.87449616 C2.35034549,8.87449616 2.19362764,8.96145268 2.05452015,9.11239025 C2.13705374,9.16998349 2.23182342,9.26301872 2.32990403,9.37449616" id="Fill-60" fill="#EE3542"></path>
                        <path d="M23.5673512,9.90220729 C23.5673512,10.5448656 23.046382,11.0658349 22.4036756,11.0658349 C21.7609693,11.0658349 21.24,10.5448656 21.24,9.90220729 C21.24,9.25954894 21.7609693,8.73857965 22.4036756,8.73857965 C23.046382,8.73857965 23.5673512,9.25954894 23.5673512,9.90220729" id="Fill-62" fill="#F1EEED"></path>
                        <path d="M21.6886372,9.66966411 C21.7374856,9.66788868 21.7921881,9.66678503 21.851881,9.66644914 L22.295547,10.7047409 C22.2359501,10.7569482 22.1919002,10.7973992 22.1601344,10.8282054 C21.8947313,10.4911132 21.7001056,10.1671209 21.6886372,9.66966411" id="Fill-64" fill="#EE3542"></path>
                        <path d="M21.4947313,9.51098468 C21.5777927,9.44135592 21.758263,9.30638196 21.9095585,9.30638196 C22.0405566,9.30638196 22.1252975,9.35324908 22.173762,9.39692454 C22.0241459,9.56952659 21.9061996,9.71894705 21.86762,9.7685019 C21.658167,9.7694258 21.5138292,9.78857581 21.423858,9.80638196 C21.442428,9.70349266 21.4664203,9.6049709 21.4947313,9.51098468" id="Fill-66" fill="#EE3542"></path>
                        <path d="M22.1143138,10.0362956 C22.5014539,9.7990595 23.1115787,9.4503071 23.3010701,9.40213052 C23.3446881,9.48005758 23.3775576,9.56441459 23.3996785,9.65318618 C23.2573081,9.85337812 22.5203119,10.2275144 22.2031334,10.2442131 L22.1143138,10.0362956 Z" id="Fill-68" fill="#EE3542"></path>
                        <path d="M22.9513617,10.6346879 C23.0324618,10.6019207 23.1123692,10.5668799 23.1894002,10.5300336 C23.175369,10.6269976 23.1409927,10.7602061 23.0678203,10.8681371 C22.9512916,10.9377506 22.82445,10.992786 22.6894002,11.0300336 C22.805087,10.8986306 22.9180378,10.7350623 22.9513617,10.6346879" id="Fill-70" fill="#EE3542"></path>
                        <path d="M22.242428,10.3362716 C22.5317274,10.2971161 23.1759693,10.0164539 23.4217466,9.76899712 C23.4274088,9.81271113 23.4313436,9.85695298 23.4313436,9.9022025 C23.4313436,9.98895873 23.4194434,10.0726919 23.3991939,10.1531622 C23.2562956,10.3370873 22.8010653,10.5728839 22.3820633,10.663095 L22.242428,10.3362716 Z" id="Fill-72" fill="#EE3542"></path>
                        <path d="M22.0761708,9.94709693 L21.9425816,9.63442898 C22.1821209,9.45990883 22.7428215,9.08342131 22.985144,9.05520633 C23.0885509,9.12627159 23.1780422,9.21576296 23.2493474,9.31888196 C22.9636948,9.4112524 22.272428,9.82727927 22.0761708,9.94709693" id="Fill-74" fill="#EE3542"></path>
                        <path d="M22.2204511,11.1088607 C22.2627735,11.0338826 22.3208829,10.9372189 22.3754894,10.8500372 C22.4884453,10.8081583 22.6135413,10.7413453 22.7388772,10.6566219 C22.683263,10.8266833 22.5848944,11.0497738 22.5260173,11.1420477 C22.4858061,11.1508273 22.4451631,11.1566219 22.4036564,11.1566219 C22.3438676,11.1566219 22.2856142,11.1452962 22.2286564,11.1273857 C22.2259213,11.12124 22.2231862,11.1150064 22.2204511,11.1088607" id="Fill-76" fill="#EE3542"></path>
                        <path d="M23.1681588,10.5580433 C23.3282783,10.4913294 23.4756951,10.4209923 23.6033637,10.3488436 C23.4792177,10.538037 23.3092775,10.7072242 23.1033637,10.8488436 C23.1455285,10.7372336 23.1643159,10.6316886 23.1681588,10.5580433" id="Fill-78" fill="#EE3542"></path>
                        <path d="M22.0584549,9.01648273 C22.2029846,9.01648273 22.3903167,9.06124624 22.5043762,9.25947259 C22.4220825,9.34131381 22.3397889,9.42974286 22.2624856,9.51648273 C22.2009213,9.43506381 22.0839347,9.35786786 21.9095106,9.35786786 C21.8005374,9.35786786 21.6824952,9.41665164 21.5875816,9.4792361 C21.6560077,9.32163475 21.7380134,9.18345908 21.8317274,9.07273273 C21.8775048,9.04823948 21.9563916,9.01648273 22.0584549,9.01648273" id="Fill-80" fill="#EE3542"></path>
                        <path d="M21.5928551,9.67425624 C21.605619,10.1909069 21.8112332,10.5371641 22.0755326,10.8754079 C21.6690547,10.7383637 21.3759645,10.3548704 21.3759645,9.9021833 C21.3759645,9.83015835 21.383594,9.75990883 21.3976536,9.69205854 C21.4410317,9.68630038 21.5051392,9.67943858 21.5928551,9.67425624" id="Fill-82" fill="#EE3542"></path>
                        <path d="M22.5906478,9.37449616 C22.4880566,9.12629917 22.3184309,8.98978567 22.0952063,8.97597978 C22.1925672,8.91024724 22.296166,8.87449616 22.4036996,8.87449616 C22.5701583,8.87449616 22.7269242,8.96145268 22.8660317,9.11239025 C22.7834981,9.16998349 22.6887284,9.26301872 22.5906478,9.37449616" id="Fill-84" fill="#EE3542"></path>
                        <path d="M10.3452351,12.5967994 C10.2124136,12.6985749 9.83539827,13.0226631 9.5249856,13.0226631 L9.5249856,10.7403695 C9.73640595,10.7403695 10.483191,10.9173369 10.483191,11.2412332 C10.483191,11.376214 10.3512332,11.5531334 10.1592946,11.5531334 C10.2402447,11.748095 10.4802159,11.8290451 10.711118,11.8290451 C11.2959069,11.8290451 11.4998417,11.3971833 11.5328551,11.3971833 C11.5658205,11.3971833 11.7727783,11.673095 11.7727783,11.7360988 C11.376905,11.9099952 10.6661084,12.3508781 10.3452351,12.5967994 M9.24307582,7.84929463 C9.08741363,7.84929463 9.14509117,7.72309501 9.14509117,7.56738484 C9.14509117,7.41172265 9.08741363,7.33902591 9.24307582,7.33902591 C9.39878599,7.33902591 9.5249856,7.41172265 9.5249856,7.56738484 C9.5249856,7.72309501 9.39878599,7.84929463 9.24307582,7.84929463 M18.4846305,12.5188244 C18.4846305,11.9909933 18.0197553,11.6821161 17.5219146,11.6821161 C16.9671161,11.6821161 16.583239,12.1589395 16.5532486,12.1589395 C16.5232582,12.1589395 16.6792083,11.7181046 17.3929798,11.1932486 C17.9130374,10.8108589 18.4276248,10.4524616 18.4276248,9.89464012 C18.4276248,9.25284549 18.0107821,8.83600288 17.4559357,8.83600288 C16.5412524,8.83600288 16.3793042,9.56177063 16.3793042,9.68470729 C16.3793042,9.83465931 16.4332869,9.89766315 16.4332869,9.89766315 C16.4332869,9.89766315 16.4212908,9.46580134 16.8951392,9.46580134 C17.1770489,9.46580134 17.2879894,9.75668426 17.2879894,9.89464012 C17.2879894,10.032596 17.2850144,10.1675768 16.7571833,10.6414251 C16.2293522,11.1152735 15.7885173,11.451166 15.7885173,12.0329798 C15.7885173,12.6147937 16.0704271,12.9446881 16.4752735,13.4035173 C16.88012,13.8623944 16.8711468,14.0783253 16.8711468,14.351214 C16.8711468,14.6241507 16.6432198,14.870072 16.3163484,14.870072 C15.9214347,14.870072 15.3416363,14.7121065 15.1416843,14.1323081 C14.9417322,13.5525096 14.8857821,13.2245825 14.845763,12.7807726 C14.8167322,12.4585557 14.6698512,12.1009741 14.52988,11.9529894 L14.573882,11.473143 C14.573882,11.473143 14.6458589,11.5291411 14.801809,11.5291411 C15.1056958,11.5291411 15.4775768,11.2372505 15.4775768,10.8853311 C15.4775768,10.5654655 15.2696593,10.385523 15.2696593,10.385523 C15.2696593,10.385523 15.2656766,10.6454079 14.9697553,10.6454079 C14.673834,10.6454079 14.4378935,10.3934885 14.4378935,9.98964971 C14.4378935,9.58576296 14.6098704,9.40582054 14.8417802,9.40582054 C15.217644,9.40582054 15.4376056,9.70970729 15.4376056,9.70970729 C15.4016171,9.46580134 15.3516651,9.24387236 15.4256574,8.94195298 C15.4256574,8.94195298 15.3377015,8.97194338 15.1977303,8.97194338 C14.995763,8.97194338 14.923786,8.90797985 14.923786,8.77002399 C14.923786,8.63206814 15.0977783,8.3787572 15.3356862,8.38014875 C15.6715787,8.38216411 15.6422121,8.53619482 15.6422121,8.53619482 C15.6422121,8.53619482 15.9134693,8.13821017 15.9434597,8.12021593 C15.9734501,8.10222169 15.9574232,7.91229846 15.9574232,7.91229846 L16.0913964,7.97429463 L16.2433157,7.72837332 C16.1793522,7.56239443 15.9557438,7.49363244 15.895475,7.44646353 C15.8034885,7.37448656 15.7294962,7.22851727 15.7294962,7.19454415 C15.5195633,7.15654031 13.9661084,7.03859405 13.9661084,6.17885317 C13.858143,6.22683781 13.3063196,6.50274952 13.3063196,6.82664587 C13.3063196,6.92261516 13.3532965,6.97659789 13.3532965,6.97659789 C13.1763292,6.97659789 12.6695154,6.93461132 12.4505614,7.44444818 C12.6185077,7.36944818 12.9274328,7.51340211 12.9274328,7.83729846 C12.9274328,8.16119482 12.5975384,8.42213532 12.3126056,8.42213532 C11.9947073,8.42213532 11.9407246,8.18821017 11.9407246,8.18821017 C11.8297361,8.28115643 11.6888052,8.77002399 12.2076631,9.0159453 C12.2076631,9.21085893 11.7937476,9.89766315 11.7337668,9.89766315 C11.1999376,9.89766315 10.5939875,9.7349952 10.411214,9.62774952 C9.99734645,9.38480326 9.66145393,9.02995681 9.52349808,9.02995681 L9.52349808,8.78202015 C9.89537908,8.53307582 10.3961948,8.1372025 10.3961948,7.56738484 C10.3961948,7.06954415 9.96735605,6.46676104 9.23559021,6.46676104 C8.47383397,6.46676104 8.0809357,7.17453455 8.0809357,7.56138676 C8.0809357,8.15423704 8.68578215,8.60807582 8.91769194,8.60807582 C8.8496977,8.71604127 8.62177063,8.74804702 8.62177063,8.74804702 C8.68175144,8.80601248 8.85320058,8.87496641 8.9746977,8.87496641 L8.9746977,9.02491843 C8.75176104,9.02491843 8.52181862,9.20788388 8.52181862,9.4178167 C8.52181862,9.58178023 8.64979367,9.65174184 8.64979367,9.67774952 C8.64979367,9.74372841 8.49182821,9.78768234 8.49182821,9.94766315 C8.49182821,10.0815883 8.63976488,10.1555806 8.63976488,10.2015499 C8.63976488,10.2475672 8.58630998,10.5979511 8.9746977,10.5979511 L8.9746977,13.03869 C8.93568618,13.03869 8.70176104,13.2086036 8.66178983,13.3505902 C8.57580134,13.3565883 8.33386276,13.1941123 8.33386276,13.7279415 C8.48583013,13.5899856 8.62177063,13.6079798 8.62177063,13.6079798 C8.5578071,13.6959357 8.50982246,13.7599472 8.50982246,13.9039012 C8.50982246,14.0478551 8.56980326,14.1577879 8.56980326,14.1577879 C8.65977447,13.9998704 8.80972649,14.1503023 8.84369962,14.1503023 C8.84369962,14.4741987 8.90771113,14.5541411 8.9746977,14.62012 L8.9746977,16.4565403 L8.80670345,16.4565403 L8.80670345,16.954381 L9.0856382,16.954381 C8.98266315,17.0053887 8.84773033,17.1253503 8.84773033,17.3232869 C8.84773033,17.5752063 9.08415067,17.7086516 9.26860365,17.7086516 C9.45300864,17.7086516 9.66294146,17.5421929 9.66294146,17.3217994 C9.66294146,17.101358 9.48602207,16.9873944 9.41553263,16.954381 L9.68395873,16.954381 L9.68395873,16.4565403 L9.5249856,16.4565403 L9.5249856,14.8250624 C9.5249856,14.8250624 9.58045585,14.873047 9.70041747,14.873047 C9.64144434,14.4502543 10.1152927,14.1743426 10.4631814,14.1743426 C10.8151008,14.1743426 10.9510413,14.4222793 10.9510413,14.4222793 C11.9907246,14.0443522 12.4505614,13.3685365 12.4945633,13.3685365 C12.5385173,13.3685365 12.9139012,14.0558205 12.9139012,14.0558205 C12.5555518,14.1563004 11.008047,15.1969434 11.008047,16.0006862 C11.008047,16.3935845 11.4638532,16.5765019 11.4638532,16.5765019 C11.4638532,17.7101392 10.9750336,17.8960797 10.7561276,17.8960797 C10.5371737,17.8960797 10.4021929,17.851118 10.1383253,17.851118 C9.8743618,17.851118 9.3615499,17.998047 9.3615499,18.4239107 C9.3615499,18.6248704 9.43352687,18.738834 9.43352687,18.738834 C9.43352687,18.738834 9.40204894,18.8197841 9.40204894,18.8962716 C9.40204894,19.1316843 9.56097409,19.3086516 9.67642514,19.3416171 C9.60444818,18.9877303 9.91634837,18.8813004 10.2147649,18.8813004 C10.2147649,19.0132582 10.2627495,19.3131622 10.5311756,19.4360988 C10.4757054,18.9397457 10.9480662,18.8872985 11.0620298,18.8872985 C11.0620298,19.0047649 11.1189875,19.2186804 11.4468666,19.3426248 C11.376905,19.1167131 11.5224424,18.929477 11.7997457,18.8797649 C12.2016651,18.8077879 12.3096305,18.6308685 12.4295921,18.1240067 C12.4977303,17.8360988 12.6664923,17.3862428 13.4972505,17.2453119 C12.8884213,17.0953599 12.6904846,16.9063964 12.6904846,16.660475 C12.6904846,16.2016459 13.5272409,15.9437284 13.7161564,15.9437284 C14.1930278,16.7624424 14.6278647,16.9873944 14.9787764,16.9873944 C15.0477303,17.032356 15.1287284,17.2453119 15.1287284,17.4612428 C15.1287284,17.851166 14.9817994,18.1390739 14.8858301,18.1390739 C14.7898608,18.1390739 13.6662044,18.0570681 13.6662044,18.7628743 C13.6662044,18.9248225 13.7371737,18.9772697 13.7371737,18.9772697 C13.7371737,19.0567322 13.7551679,19.3176248 13.9440835,19.4360988 C13.9965787,19.1496785 14.1615019,19.0672409 14.6203791,19.0672409 C14.6203791,19.1916651 14.6623656,19.4406094 14.8677879,19.5140739 C14.8677879,19.3866267 14.8752735,19.0627303 15.361118,19.0627303 C15.361118,19.2216555 15.4270969,19.3671449 15.617548,19.4166171 C15.583047,19.2801488 15.7345345,19.0627303 15.9504655,19.0627303 C16.1153887,19.0627303 16.2353503,18.9727591 16.2353503,18.7028455 L16.2353503,17.7671449 C16.2353503,17.3352831 16.5532486,16.5435365 16.9820873,16.135667 C16.7631814,16.2316363 16.6042083,16.2586036 16.4842946,16.2586036 C15.467596,16.2586036 15.1317035,15.0320202 15.170715,15.0320202 C15.2096785,15.0320202 15.6655326,15.5778455 16.6132294,15.5778455 C17.4709549,15.5778455 17.7798321,15.092001 17.7798321,14.6601392 C17.7798321,13.7274136 16.9161084,13.2805806 16.9161084,12.870072 C16.9161084,12.6927687 17.1140451,12.5458397 17.2910125,12.5458397 C17.4679319,12.5458397 17.8548321,12.7287572 17.8548321,13.082644 C17.8548321,13.2265979 17.7378455,13.4095154 17.7378455,13.4095154 C18.2567035,13.235571 18.4846305,12.7077399 18.4846305,12.5188244" id="Fill-86" fill="#C6CACD"></path>
                        <path d="M15.852975,8.47461612 L15.7135317,8.66804223 C15.7135317,8.66804223 15.8739443,8.95446257 16.2113724,8.95446257 C16.7152111,8.95446257 16.8246641,8.44462572 16.8051823,8.29616123 C16.8051823,8.29616123 16.6752879,8.61559501 16.2603647,8.61559501 C15.9714491,8.61559501 15.852975,8.47461612 15.852975,8.47461612" id="Fill-88" fill="#C6CACD"></path>
                        <path d="M9.98680422,12.2334453 C9.85398273,12.3352687 9.47696737,12.659309 9.1665547,12.659309 L9.1665547,10.3770154 C9.37797505,10.3770154 10.1247601,10.5539827 10.1247601,10.8778791 C10.1247601,11.0128599 9.9928023,11.1897793 9.80086372,11.1897793 C9.88181382,11.3847409 10.121785,11.465691 10.3526871,11.465691 C10.937476,11.465691 11.1414107,11.0338292 11.1744242,11.0338292 C11.2073896,11.0338292 11.4143474,11.3097409 11.4143474,11.3727447 C11.0184741,11.5466411 10.3076775,11.987524 9.98680422,12.2334453 M8.88464491,7.4859405 C8.72898273,7.4859405 8.60273512,7.35974088 8.60273512,7.20403071 C8.60273512,7.04836852 8.72898273,6.92212092 8.88464491,6.92212092 C9.04035509,6.92212092 9.1665547,7.04836852 9.1665547,7.20403071 C9.1665547,7.35974088 9.04035509,7.4859405 8.88464491,7.4859405 M18.1261996,12.1554702 C18.1261996,11.6276392 17.6613244,11.318762 17.1634837,11.318762 C16.6086852,11.318762 16.2248081,11.7955854 16.1948177,11.7955854 C16.1648273,11.7955854 16.3207774,11.3547505 17.0345489,10.8298944 C17.5546065,10.4475048 18.0691939,10.0891075 18.0691939,9.53128599 C18.0691939,8.88949136 17.6523512,8.47264875 17.0975048,8.47264875 C16.1828215,8.47264875 16.0208733,9.19841651 16.0208733,9.32135317 C16.0208733,9.47130518 16.074856,9.53430902 16.074856,9.53430902 C16.074856,9.53430902 16.0628599,9.10244722 16.5367083,9.10244722 C16.818618,9.10244722 16.9295585,9.39333013 16.9295585,9.53128599 C16.9295585,9.66924184 16.9265835,9.80422265 16.3987524,10.278071 C15.8709213,10.7519194 15.4300864,11.0878119 15.4300864,11.6696257 C15.4300864,12.2514395 15.7119962,12.581334 16.1168426,13.0401631 C16.5216891,13.4990403 16.5127159,13.7149712 16.5127159,13.9878599 C16.5127159,14.2607965 16.2847889,14.5067179 15.9579175,14.5067179 C15.5630038,14.5067179 14.9832054,14.3487524 14.7832534,13.7689539 C14.5833013,13.1891555 14.5273512,12.8612284 14.4873321,12.4173704 C14.4583013,12.0952015 14.3114203,11.73762 14.1714491,11.5896353 L14.2154511,11.1097889 C14.2154511,11.1097889 14.287428,11.1657869 14.4433781,11.1657869 C14.7472649,11.1657869 15.1191459,10.8738964 15.1191459,10.521977 C15.1191459,10.2021113 14.9112284,10.0221689 14.9112284,10.0221689 C14.9112284,10.0221689 14.9072457,10.2820537 14.6113244,10.2820537 C14.3154031,10.2820537 14.0794626,10.0301344 14.0794626,9.62629559 C14.0794626,9.22240883 14.2514395,9.04246641 14.4833493,9.04246641 C14.8592131,9.04246641 15.0791747,9.34635317 15.0791747,9.34635317 C15.0431862,9.10244722 14.9932342,8.88051823 15.0672265,8.57859885 C15.0672265,8.57859885 14.9792706,8.60858925 14.8392994,8.60858925 C14.6373321,8.60858925 14.5653551,8.54462572 14.5653551,8.40666987 C14.5653551,8.26871401 14.7393474,8.01540307 14.9772553,8.01679463 C15.3131478,8.01880998 15.2151631,8.27269674 15.2151631,8.27269674 C15.2151631,8.27269674 15.5550384,7.77485605 15.5850288,7.7568618 C15.6150192,7.73886756 15.5989923,7.54894434 15.5989923,7.54894434 L15.7329655,7.6109405 L15.8848848,7.36501919 C15.8209213,7.19904031 15.5973129,7.13027831 15.5370441,7.0831094 C15.4450576,7.01113244 15.3710653,6.86516315 15.3710653,6.83119002 C15.1611324,6.79318618 13.6076775,6.67523992 13.6076775,5.81549904 C13.4997121,5.86348369 12.9478887,6.13939539 12.9478887,6.46329175 C12.9478887,6.55926104 12.9948656,6.61324376 12.9948656,6.61324376 C12.8178983,6.61324376 12.3110845,6.5712572 12.0921305,7.08109405 C12.2600768,7.00609405 12.5690019,7.15004798 12.5690019,7.47394434 C12.5690019,7.79784069 12.2391075,8.05878119 11.9541747,8.05878119 C11.6362764,8.05878119 11.5822937,7.82485605 11.5822937,7.82485605 C11.4713052,7.9178023 11.3303743,8.40666987 11.8492322,8.65259117 C11.8492322,8.8475048 11.4353167,9.53430902 11.3753359,9.53430902 C10.8415067,9.53430902 10.2355566,9.37164107 10.0527831,9.26439539 C9.63891555,9.02144914 9.30302303,8.66660269 9.16506718,8.66660269 L9.16506718,8.41866603 C9.53694818,8.16972169 10.0377639,7.77384837 10.0377639,7.20403071 C10.0377639,6.70619002 9.60892514,6.10340691 8.87715931,6.10340691 C8.11540307,6.10340691 7.7225048,6.81118042 7.7225048,7.19803263 C7.7225048,7.79088292 8.32735125,8.24472169 8.55926104,8.24472169 C8.49126679,8.35268714 8.26333973,8.3846929 8.26333973,8.3846929 C8.32332054,8.44265835 8.49476967,8.51161228 8.61626679,8.51161228 L8.61626679,8.6615643 C8.39333013,8.6615643 8.16338772,8.84452975 8.16338772,9.05446257 C8.16338772,9.2184261 8.29136276,9.28838772 8.29136276,9.31439539 C8.29136276,9.38037428 8.13339731,9.42432821 8.13339731,9.58430902 C8.13339731,9.71823417 8.28133397,9.79222649 8.28133397,9.83819578 C8.28133397,9.88421305 8.22787908,10.2345969 8.61626679,10.2345969 L8.61626679,12.6753359 C8.57725528,12.6753359 8.34333013,12.8452495 8.30335893,12.9872361 C8.21737044,12.9932342 7.97543186,13.03119 7.97543186,13.5650192 C8.12739923,13.4270633 8.26333973,13.4450576 8.26333973,13.4450576 C8.1993762,13.5330134 8.15139155,13.597025 8.15139155,13.7409789 C8.15139155,13.8849328 8.21137236,13.9948656 8.21137236,13.9948656 C8.30134357,13.8369482 8.45129559,13.7869482 8.48526871,13.7869482 C8.48526871,14.1108445 8.54928023,14.1907869 8.61626679,14.2567658 L8.61626679,16.0931862 L8.44827255,16.0931862 L8.44827255,16.5910269 L8.72720729,16.5910269 C8.62423225,16.6420345 8.48929942,16.7619962 8.48929942,16.9599328 C8.48929942,17.2118522 8.72571977,17.3452975 8.91017274,17.3452975 C9.09457774,17.3452975 9.30451056,17.1788388 9.30451056,16.9584453 C9.30451056,16.7380038 9.12759117,16.6240403 9.05710173,16.5910269 L9.32552783,16.5910269 L9.32552783,16.0931862 L9.1665547,16.0931862 L9.1665547,14.4617083 C9.1665547,14.4617083 9.22202495,14.5096929 9.34198656,14.5096929 C9.28301344,14.0869002 9.7568618,13.8109885 10.1047505,13.8109885 C10.4566699,13.8109885 10.5926104,14.0589251 10.5926104,14.0589251 C11.6322937,13.6809981 12.0921305,13.0051823 12.1361324,13.0051823 C12.1800864,13.0051823 12.5554702,13.6924664 12.5554702,13.6924664 C12.1971209,13.7929463 10.6496161,14.8335893 10.6496161,15.6373321 C10.6496161,16.0302303 11.1054223,16.2131478 11.1054223,16.2131478 C11.1054223,17.346785 10.6166027,17.5327255 10.3976967,17.5327255 C10.1787428,17.5327255 10.043762,17.4877639 9.77989443,17.4877639 C9.5159309,17.4877639 9.003119,17.6346929 9.003119,18.0605566 C9.003119,18.2615163 9.07509597,18.3754798 9.07509597,18.3754798 C9.07509597,18.3754798 9.04361804,18.4564299 9.04361804,18.5329175 C9.04361804,18.7683301 9.20254319,18.9452975 9.31799424,18.978263 C9.24601727,18.6243762 9.55791747,18.5179463 9.85633397,18.5179463 C9.85633397,18.649904 9.90431862,18.9498081 10.1727447,19.0727447 C10.1172745,18.5763916 10.5896353,18.5239443 10.7035988,18.5239443 C10.7035988,18.6414107 10.7605566,18.8553263 11.0884357,18.9792706 C11.0184741,18.7533589 11.1640115,18.5661228 11.4413148,18.5164107 C11.8432342,18.4444338 11.9511996,18.2675144 12.0711612,17.7606526 C12.1392994,17.4727447 12.3080614,17.0228887 13.1388196,16.8819578 C12.5299904,16.7320058 12.3320537,16.5430422 12.3320537,16.2971209 C12.3320537,15.8382917 13.16881,15.5803743 13.3577255,15.5803743 C13.8345969,16.3990883 14.2694338,16.6240403 14.6203455,16.6240403 C14.6892994,16.6690019 14.7702975,16.8819578 14.7702975,17.0978887 C14.7702975,17.4878119 14.6233685,17.7757198 14.5273992,17.7757198 C14.4314299,17.7757198 13.3077735,17.693714 13.3077735,18.3995202 C13.3077735,18.5614683 13.3787428,18.6139155 13.3787428,18.6139155 C13.3787428,18.6933781 13.396737,18.9542706 13.5856526,19.0727447 C13.6381478,18.7863244 13.803071,18.7038868 14.2619482,18.7038868 C14.2619482,18.8283109 14.3039347,19.0772553 14.509357,19.1507198 C14.509357,19.0232726 14.5168426,18.6993762 15.0026871,18.6993762 C15.0026871,18.8583013 15.068666,19.0037908 15.2591171,19.053263 C15.2246161,18.9167946 15.3761036,18.6993762 15.5920345,18.6993762 C15.7569578,18.6993762 15.8769194,18.609405 15.8769194,18.3394914 L15.8769194,17.4037908 C15.8769194,16.971929 16.1948177,16.1801823 16.6236564,15.7723129 C16.4047505,15.8682821 16.2457774,15.8952495 16.1258637,15.8952495 C15.1091651,15.8952495 14.7732726,14.668666 14.8122841,14.668666 C14.8512476,14.668666 15.3071017,15.2144914 16.2547985,15.2144914 C17.112524,15.2144914 17.4214012,14.7286468 17.4214012,14.296785 C17.4214012,13.3640595 16.5576775,12.9172265 16.5576775,12.5067179 C16.5576775,12.3294146 16.7556142,12.1824856 16.9325816,12.1824856 C17.109501,12.1824856 17.4964012,12.3654031 17.4964012,12.7192898 C17.4964012,12.8632438 17.3794146,13.0461612 17.3794146,13.0461612 C17.8982726,12.8722169 18.1261996,12.3444338 18.1261996,12.1554702" id="Fill-90" fill="#005397"></path>
                        <path d="M12.5689779,7.47396833 C12.5689779,7.78668426 12.2616363,8.03989923 11.9839971,8.05712572 L11.9839491,8.0577975 C12.5215691,8.0577975 12.7599088,7.70290307 12.7599088,7.37900672 C12.7599088,7.12310461 12.6139395,6.90914107 12.4120202,6.90914107 C12.2101008,6.90914107 12.0921065,7.08107006 12.0921065,7.08107006 C12.2601008,7.00611804 12.5689779,7.15007198 12.5689779,7.47396833" id="Fill-92" fill="#627DB7"></path>
                        <path d="M8.88465451,7.48596449 C8.72894434,7.48596449 8.60274472,7.35976488 8.60274472,7.2040547 C8.60274472,7.04834453 8.72894434,6.92214491 8.88465451,6.92214491 C9.04036468,6.92214491 9.1665643,7.04834453 9.1665643,7.2040547 C9.1665643,7.35976488 9.04036468,7.48596449 8.88465451,7.48596449 M9.44698656,7.2190739 C9.44698656,7.04911228 9.30303263,6.80319098 9.02112284,6.80319098 C8.68921305,6.80319098 8.59525912,7.08308541 8.59525912,7.2040547 C8.59525912,7.43596449 8.75917466,7.65693378 9.04108445,7.65693378 L9.04108445,7.92084933 C9.33302303,7.6509357 9.44698656,7.38898752 9.44698656,7.2190739" id="Fill-94" fill="#627DB7"></path>
                        <path d="M7.72252879,7.19805662 C7.72252879,7.79085893 8.32732726,8.2446977 8.55923704,8.2446977 C8.28735605,8.10674184 7.98941939,7.68692418 7.98941939,7.20702975 C7.98941939,6.80002399 8.16461132,6.39354607 8.61648273,6.13298944 C8.02603167,6.27051344 7.72252879,6.85808541 7.72252879,7.19805662" id="Fill-96" fill="#627DB7"></path>
                        <path d="M8.6162428,8.7943265 C8.70600894,8.7943265 8.86716596,8.95015259 9.1162428,8.99815259 L9.1162428,8.49815259 C9.1162428,8.49815259 8.78109246,8.52258737 8.6162428,8.52258737 L8.6162428,8.7943265 Z" id="Fill-98" fill="#627DB7"></path>
                        <path d="M9.16506718,8.66660269 L9.16506718,8.88958497 C9.2353167,8.8998704 9.56022073,9.01970308 9.87994242,9.16660269 C9.54678503,8.93348261 9.28320537,8.66660269 9.16506718,8.66660269" id="Fill-100" fill="#627DB7"></path>
                        <path d="M8.47528791,8.91849808 C8.59524952,8.91849808 9.04112284,9.32495422 9.04112284,9.36881387 C9.04112284,9.41267352 8.69923225,9.41849808 8.58723608,9.41849808 C8.47528791,9.41849808 8.33133397,9.38046299 8.33133397,9.16853317 C8.33133397,9.06762089 8.3952975,8.91849808 8.47528791,8.91849808" id="Fill-102" fill="#627DB7"></path>
                        <path d="M8.48027831,9.39736084 C8.55326296,9.39736084 9.01209213,9.65486606 9.01209213,9.71506834 C9.01209213,9.77527062 8.6262476,9.89736084 8.52226488,9.89736084 C8.41828215,9.89736084 8.34333013,9.79870938 8.34333013,9.64740098 C8.34333013,9.56456264 8.38330134,9.39736084 8.48027831,9.39736084" id="Fill-104" fill="#627DB7"></path>
                        <path d="M8.55268724,9.83222169 C8.59666486,9.83222169 8.94431382,9.97676154 8.94431382,10.0477655 C8.94431382,10.1188795 8.65698683,10.3322217 8.55268724,10.3322217 C8.50870962,10.3322217 8.44431382,10.2244498 8.44431382,10.0822217 C8.44431382,9.99041191 8.4760209,9.83222169 8.55268724,9.83222169" id="Fill-106" fill="#627DB7"></path>
                        <path d="M10.0707774,12.659309 C10.2117562,12.5903551 12.0321497,11.643618 12.1901152,11.446929 C12.1901152,11.446929 11.6122841,11.446929 11.4143474,11.3727447 C11.0184741,11.5466891 10.3076775,11.987524 9.98680422,12.2334453 C9.85398273,12.3352687 9.47696737,12.659309 9.1665547,12.659309 C9.05259117,12.659309 9.00762956,12.6203455 8.87917466,12.6203455 L8.87917466,10.5239923 C8.87917466,10.3240403 8.67720729,10.2345969 8.61626679,10.2345969 L8.61626679,12.6753359 C8.57725528,12.6753359 8.34333013,12.8452495 8.30335893,12.9872361 C8.22202495,12.9928983 8.00129559,13.0274472 7.97763916,13.4829175 C8.06391555,13.3163628 8.23320537,13.1231766 8.37730326,13.1231766 C8.37730326,12.9132438 8.87116123,12.8932342 9.19505758,12.8932342 C9.51895393,12.8932342 9.92979846,12.728263 10.0707774,12.659309" id="Fill-108" fill="#627DB7"></path>
                        <path d="M8.31659538,13.4450576 C8.22221702,13.5340382 8.15141555,13.5987954 8.15141555,13.7444265 C8.15141555,13.8276304 8.18009014,13.8986498 8.20487066,13.9450576 C8.26030821,13.7712712 8.65141555,13.4662712 8.65141555,13.4662712 C8.65141555,13.4662712 8.37925469,13.4450576 8.31659538,13.4450576" id="Fill-110" fill="#627DB7"></path>
                        <path d="M8.98529271,13.8387353 C8.98529271,13.8387353 8.85977907,13.7869338 8.48529271,13.7869338 C8.48529271,14.110894 8.58568494,14.2156732 8.70055233,14.2869338 C8.71596137,14.0256807 8.98529271,13.8387353 8.98529271,13.8387353" id="Fill-112" fill="#627DB7"></path>
                        <path d="M8.94829655,16.1521593 L8.94829655,14.0288388 C8.74877544,14.0288388 8.64319575,14.2567658 8.64319575,14.2567658 L8.64319575,16.0931862 L8.44829655,16.0931862 L8.44829655,16.3321017 C8.89957174,16.3321017 8.94829655,16.2036948 8.94829655,16.1521593" id="Fill-114" fill="#627DB7"></path>
                        <path d="M8.99112284,16.8880038 C8.99112284,16.7210653 8.84716891,16.6410749 8.75119962,16.6410749 C8.70431862,16.6410749 8.64227447,16.6644914 8.59097889,16.6948177 C8.53373321,16.7587332 8.48929942,16.8464491 8.48929942,16.9599328 C8.48929942,16.9710653 8.4903071,16.9817179 8.49121881,16.9924664 C8.53685221,17.0740883 8.61449136,17.1619002 8.71919386,17.1619002 C8.8940499,17.1619002 8.99112284,17.0359405 8.99112284,16.8880038" id="Fill-116" fill="#627DB7"></path>
                        <path d="M9.2319901,14.4852356 C9.2319901,14.4852356 9.30538692,14.5358685 9.46411708,14.5358685 C9.4304028,14.494704 9.25776788,14.3586533 9.25776788,14.2130837 C9.25776788,14.1529824 9.29148216,14.1054888 9.29148216,14.1054888 C9.29148216,14.1054888 9.1824028,14.0358685 8.96411708,14.0358685 C8.96411708,14.2700457 9.01967264,14.3887293 9.2319901,14.4852356" id="Fill-118" fill="#627DB7"></path>
                        <path d="M12.1521113,14.5207294 C12.7319098,14.2328215 13.6596449,13.9608925 13.6596449,13.4331094 C13.6596449,12.9932821 13.2397793,12.9052783 13.1098369,12.9052783 C13.1098369,12.9052783 13.2317658,13.0652111 13.2317658,13.2351727 C13.2317658,13.7049904 12.6779271,13.6924664 12.5554702,13.6924664 C12.1970729,13.7929463 10.6496161,14.8336372 10.6496161,15.63738 C10.6496161,16.0302303 11.1054702,16.2131958 11.1054702,16.2131958 C11.1054702,17.346833 10.6166027,17.5327735 10.3976488,17.5327735 C10.1787428,17.5327735 10.043762,17.4877639 9.77984645,17.4877639 C9.5159309,17.4877639 9.003119,17.6347409 9.003119,18.0606046 C9.003119,18.2615163 9.07509597,18.3754798 9.07509597,18.3754798 C9.1665547,17.6197217 9.46194818,17.7307102 10.3676583,17.7307102 C10.7995681,17.7307102 11.5243282,17.2598369 11.5243282,16.15619 C11.5243282,16.15619 11.0724568,15.9922265 11.0724568,15.5483685 C11.0724568,15.0205374 11.5723129,14.8086372 12.1521113,14.5207294" id="Fill-120" fill="#627DB7"></path>
                        <path d="M9.04360365,18.5329271 C9.04360365,18.7683397 9.29561947,18.9453071 9.47864092,18.9782726 C9.47377252,18.9632054 9.47149046,18.9491939 9.46882805,18.9350384 C9.40546277,18.89238 9.3074862,18.8036084 9.3074862,18.6614299 C9.3074862,18.5094626 9.54360365,18.3754894 9.54360365,18.3754894 L9.09350476,18.3754894 C9.09350476,18.3754894 9.04360365,18.4564395 9.04360365,18.5329271" id="Fill-122" fill="#627DB7"></path>
                        <path d="M10.3342166,18.5179319 L9.85635797,18.5179319 C9.85635797,18.6498896 9.93218447,18.9497937 10.356358,19.0727783 C10.356358,19.0727783 10.1920419,18.9453311 10.1920419,18.767356 C10.1920419,18.589381 10.3342166,18.5179319 10.3342166,18.5179319" id="Fill-124" fill="#627DB7"></path>
                        <path d="M11.1897506,18.9778383 C10.9231379,18.7536313 10.9672097,18.5239443 10.9672097,18.5239443 L10.7035893,18.5239443 C10.7035893,18.6529358 10.7775825,18.8878394 11.2035893,19.0239443 C11.1978543,19.0084 11.1933038,18.9930138 11.1897506,18.9778383" id="Fill-126" fill="#627DB7"></path>
                        <path d="M14.734285,17.9196257 C14.7762716,17.9196257 15.1691699,17.3527831 15.1691699,16.8489923 C15.1691699,16.4680902 14.9172505,16.228167 14.9172505,16.228167 C14.2064539,16.228167 13.9275672,15.931238 13.9275672,15.6028791 C13.9275672,15.6028791 13.7146113,15.56238 13.5991603,15.56238 C13.4837092,15.56238 13.3577495,15.5803743 13.3577495,15.5803743 C13.8345729,16.3991363 14.2694098,16.6240403 14.6203215,16.6240403 C14.6893234,16.6690499 14.7702735,16.8819578 14.7702735,17.0978887 C14.7702735,17.4878119 14.6233445,17.7757198 14.5273752,17.7757198 C14.431406,17.7757198 13.3077495,17.693714 13.3077495,18.3995202 C13.3077495,18.5614683 13.3787188,18.6139155 13.3787188,18.6139155 C13.3787188,18.1265355 13.6596209,17.9196257 14.734285,17.9196257" id="Fill-128" fill="#627DB7"></path>
                        <path d="M13.7202062,18.8200545 C13.7202062,18.6973852 13.8787428,18.6139155 13.8787428,18.6139155 L13.3787428,18.6139155 C13.3787428,18.6997295 13.4239828,18.9716192 13.8720552,19.1139155 C13.8043919,19.056997 13.7202062,18.9589706 13.7202062,18.8200545" id="Fill-130" fill="#627DB7"></path>
                        <path d="M14.5600475,18.9180728 C14.5600475,18.7659572 14.713558,18.7038868 14.713558,18.7038868 L14.2619482,18.7038868 C14.2619482,18.8431157 14.3468008,19.121681 14.7619482,19.2038868 L14.7619482,19.2013631 C14.7072546,19.1612536 14.5600475,19.0418915 14.5600475,18.9180728" id="Fill-132" fill="#627DB7"></path>
                        <path d="M15.7989923,11.7815979 C15.7989923,11.1857726 16.2508157,10.8339012 16.690691,10.450024 C17.1305662,10.0661468 17.3464971,9.83821977 17.3464971,9.56230806 C17.3464971,9.08845969 16.9446257,8.95251919 16.7306622,8.95251919 C16.5050384,8.95251919 16.1258637,9.07382438 16.0993762,9.38740403 C16.1400672,9.26221209 16.2484165,9.10247121 16.5367083,9.10247121 C16.818618,9.10247121 16.9296065,9.39335413 16.9296065,9.53130998 C16.9296065,9.66926583 16.9265835,9.80424664 16.3987524,10.278095 C15.8709213,10.7519434 15.4300864,11.0878359 15.4300864,11.6696497 C15.4300864,12.2514635 15.7119962,12.581358 16.1168426,13.0401871 C16.521737,13.4990163 16.5127159,13.7149472 16.5127159,13.9878839 C16.5127159,14.2607726 16.2847889,14.5066939 15.9579175,14.5066939 C15.6066219,14.5066939 15.1097409,14.3808781 14.8633397,13.9451775 C14.9566219,14.2302543 15.2578215,14.812644 16.1348848,14.812644 C16.818666,14.812644 16.9345969,14.3108205 16.9345969,14.068882 C16.9345969,13.5850048 16.6507198,13.2211372 16.3988004,12.9332294 C16.146881,12.6453215 15.7989923,12.2614443 15.7989923,11.7815979" id="Fill-134" fill="#627DB7"></path>
                        <path d="M17.1765355,11.9335413 C16.768666,11.9335413 16.5867083,12.2774472 16.5714971,12.4263436 L16.571881,12.4262476 C16.6196737,12.2871401 16.7833493,12.1824376 16.9325816,12.1824376 C17.1095489,12.1824376 17.4964012,12.3654031 17.4964012,12.7192898 C17.4964012,12.8632438 17.3794626,13.0461612 17.3794626,13.0461612 C17.4220729,13.0319098 17.4619962,13.0144914 17.5007198,12.9958253 C17.6582534,12.8527351 17.7423704,12.6993762 17.7423704,12.5333493 C17.7423704,12.3194338 17.584405,11.9335413 17.1765355,11.9335413" id="Fill-136" fill="#627DB7"></path>
                        <path d="M15.5026823,19.1993906 C15.3743129,19.104049 15.3060754,18.9046059 15.3060754,18.8203331 C15.3060754,18.7566363 15.3591385,18.6993906 15.3591385,18.6993906 L15.0026823,18.6993906 C15.0026823,18.9235519 15.1315231,19.1286993 15.5026823,19.1993906" id="Fill-138" fill="#627DB7"></path>
                        <path d="M14.5580587,7.1890595 C14.5456397,7.47425269 14.5432984,7.64407166 14.7741699,7.6890595 L15.0535977,7.1890595 L14.5580587,7.1890595 Z" id="Fill-140" fill="#F1EEED"></path>
                        <path d="M14.3788532,7.1890595 L14.0535653,7.1890595 C13.9775576,7.43909247 14.3854271,7.6890595 14.5194002,7.6890595 L14.5772217,7.58197787 C14.3813484,7.53918478 14.3680086,7.33161522 14.3788532,7.1890595" id="Fill-142" fill="#F1EEED"></path>
                        <path d="M10.1247601,10.8778791 C10.1247601,11.0128599 9.9928023,11.1897793 9.80086372,11.1897793 C9.80086372,11.1897793 9.87432821,11.2212572 9.93733205,11.2212572 C10.0167946,11.2212572 10.3047025,11.1957774 10.3047025,10.9408349 C10.3047025,10.6582054 9.96118042,10.5450096 9.72168906,10.5047505 C9.93613244,10.5894914 10.1247601,10.7151152 10.1247601,10.8778791" id="Fill-144" fill="#627DB7"></path>
                        <path d="M15.4945393,8.11126679 L15.355096,8.3046929 C15.355096,8.3046929 15.5155086,8.59111324 15.8529367,8.59111324 C16.3567754,8.59111324 16.4662284,8.08127639 16.4467466,7.9328119 C16.4467466,7.9328119 16.3168522,8.25224568 15.901929,8.25224568 C15.6130134,8.25224568 15.4945393,8.11126679 15.4945393,8.11126679" id="Fill-146" fill="#EE3542"></path>
                        <path d="M11.2808877,10.4940019 C11.2808877,10.571977 11.2554079,10.6589731 11.226905,10.7384357 C11.6527687,10.7384357 11.7502255,10.4025432 11.7502255,10.1321017 C11.7502255,9.87619962 11.6762812,9.83522073 11.6762812,9.81420345 C11.6762812,9.77221689 11.9901488,9.44635317 12.2840547,8.54860845 C12.2101104,8.54860845 11.5323273,8.39668906 11.5934117,7.85604607 L11.5934117,7.85604607 C11.5853503,7.83733205 11.5822793,7.82485605 11.5822793,7.82485605 C11.4713388,7.9178023 11.3303599,8.40666987 11.8492179,8.65259117 C11.8492179,8.8475048 11.4353503,9.53430902 11.3753695,9.53430902 C10.9889012,9.53430902 10.5653887,9.44904031 10.2912524,9.36127639 C10.764381,9.64083493 11.2808877,10.0773992 11.2808877,10.4940019" id="Fill-148" fill="#627DB7"></path>
                        <path d="M12.9478887,6.46329175 C12.9478887,6.55926104 12.9948656,6.61324376 12.9948656,6.61324376 C12.8914107,6.61324376 12.6752399,6.59908829 12.4698177,6.68901152 C12.7258637,6.62202495 13.3417466,6.63925144 13.3417466,6.63925144 C13.3417466,6.63925144 13.2407869,6.51727447 13.2407869,6.37332054 C13.2407869,6.2293666 13.4823896,5.87845489 13.6076775,5.81549904 C13.4997121,5.86348369 12.9478887,6.13939539 12.9478887,6.46329175" id="Fill-150" fill="#627DB7"></path>
                        <path d="M6.15803743,3.54822457 C6.15803743,3.54822457 5.96509117,3.45825336 5.7071737,3.45825336 C5.38994722,3.45825336 4.51058061,3.67720729 4.51058061,4.71185221 C4.51058061,5.50662188 5.22132917,5.96847409 5.79416987,5.96847409 C6.36696257,5.96847409 7.00578215,5.47960653 7.00578215,4.8078215 C7.00578215,4.47192898 6.90381478,4.31895393 6.90381478,4.31895393 L6.42396833,4.44193858 C6.42396833,4.44193858 6.51393954,4.67883877 6.51393954,4.83181382 C6.51393954,4.98474088 6.34896833,5.35964491 6.01010077,5.35964491 C5.67118522,5.35964491 5.14037908,4.83181382 5.14037908,4.42092131 C5.14037908,4.21401152 5.33980326,3.94112284 5.64268234,3.94112284 C5.9456094,3.94112284 6.02958253,4.00407869 6.02958253,4.00407869 L6.15803743,3.54822457 Z" id="Fill-152" fill="#EC9B24"></path>
                        <polygon id="Fill-154" fill="#EC9B24" points="6.66986564 2.54654511 7.3146833 2.23766795 7.71952975 3.04740883 8.16036468 2.83742802 7.78848369 2.03368522 8.4452975 1.72783109 9.48598848 3.88709213 8.82317658 4.21703455 8.38833973 3.31132438 7.94443378 3.53320537 8.35834933 4.42394434 7.70153551 4.73584453"></polygon>
                        <polygon id="Fill-156" fill="#EC9B24" points="9.48596449 1.40491843 11.0044866 1.08903551 11.112452 1.57684741 10.2992083 1.7278071 10.3926823 2.15669386 11.1564539 2.00472649 11.2404271 2.50055182 10.4926344 2.64052303 10.5846209 3.15635797 11.3923464 2.98039827 11.5043426 3.45227927 9.95683781 3.76417946"></polygon>
                        <polygon id="Fill-158" fill="#EC9B24" points="12.056142 1.01305182 12.799904 1.01305182 12.7678983 2.94443378 13.5836852 2.94443378 13.5836852 3.46828215 12.0121401 3.44827255"></polygon>
                        <path d="M15.9428983,2.11667466 L15.4550384,2.2806382 C15.4430422,2.0246881 15.3470729,1.81677063 15.1631478,1.81677063 C15.0591651,1.81677063 14.9991843,1.92871881 14.9991843,1.98869962 C14.9991843,2.23265355 15.7289347,2.36859405 15.7209693,2.99940019 C15.7142994,3.5271833 15.2771113,3.81211612 14.8902591,3.81211612 C14.1224568,3.81211612 13.9515355,3.11034069 13.9455374,3.0443618 L14.431382,2.83145393 C14.4493762,2.93941939 14.5303743,3.26931382 14.7672745,3.26931382 C14.8722649,3.26931382 14.9652111,3.20933301 14.9652111,3.07737524 C14.9652111,2.75645393 14.2364203,2.66950576 14.2364203,2.05770154 C14.2364203,1.85376679 14.3743762,1.28994722 15.0522073,1.28994722 C15.7299904,1.28994722 15.924904,1.87775912 15.9428983,2.11667466" id="Fill-160" fill="#EC9B24"></path>
                        <polygon id="Fill-162" fill="#EC9B24" points="17.6073656 4.94277831 20.2495441 3.57823896 19.2868282 6.41528311 18.6899952 5.90544626 18.8879319 5.34464971 18.5190739 5.03274952 18.0152351 5.30866123"></polygon>
                        <path d="M6.02507198,3.62320058 L5.968738,3.86821017 C5.968738,3.86821017 5.80314299,3.82713532 5.6471929,3.82713532 C5.35026392,3.82713532 5.02041747,4.12411228 5.02041747,4.46293186 C5.02041747,4.90079175 5.59018714,5.46763436 6.02507198,5.46763436 C6.31897793,5.46763436 6.62190499,5.14671305 6.62190499,4.7928263 C6.62190499,4.68486084 6.56792226,4.5318858 6.56792226,4.5318858 L6.83178983,4.45693378 C6.83178983,4.45693378 6.89776871,4.63985125 6.89776871,4.78682821 C6.89776871,5.33567658 6.39119482,5.85151152 5.79114683,5.85151152 C5.03841171,5.85151152 4.63351727,5.18793186 4.63351727,4.68183781 C4.63351727,4.06106046 5.08639635,3.58121401 5.72819098,3.58121401 C5.89460173,3.58121401 6.02507198,3.62320058 6.02507198,3.62320058" id="Fill-164" fill="#F1EEED"></path>
                        <polygon id="Fill-166" fill="#F1EEED" points="6.81583493 2.60453455 7.27768714 2.37262476 7.67557582 3.20635797 8.32735125 2.88845969 7.9274952 2.08471689 8.39131478 1.85477447 9.32701536 3.82012956 8.87317658 4.06005278 8.43929942 3.14637716 7.78550864 3.46226008 8.21137236 4.35798944 7.75355086 4.58788388"></polygon>
                        <polygon id="Fill-168" fill="#F1EEED" points="9.61492322 1.48488484 10.9225048 1.22096929 10.9824856 1.48488484 10.1727447 1.63785988 10.2987044 2.29760077 11.0724568 2.14169866 11.1174184 2.39956814 10.3644434 2.55254319 10.4951536 3.27831094 11.3203935 3.1043666 11.3703455 3.36429942 10.0488004 3.6321977"></polygon>
                        <polygon id="Fill-170" fill="#EC9B24" points="17.0116363 1.95345969 18.4009357 2.64304702 18.184525 3.09338292 17.4517514 2.70979367 17.2603407 3.10470729 17.9547265 3.45701056 17.7145154 3.89880518 17.0400912 3.54698177 16.793738 4.00945777 17.537596 4.3700144 17.334237 4.81022553 15.9245921 4.09962092"></polygon>
                        <polygon id="Fill-172" fill="#F1EEED" points="17.0636468 2.09600768 18.2549136 2.69619962 18.1390787 2.94072937 17.4078407 2.56088292 17.0993474 3.15752399 17.8041459 3.51285029 17.6802495 3.74341651 16.9935893 3.39859885 16.6480038 4.05008637 17.4044818 4.42307102 17.2831766 4.65829175 16.0784741 4.05267754"></polygon>
                        <polygon id="Fill-174" fill="#F1EEED" points="12.1661228 1.1350048 12.671977 1.1350048 12.6439539 3.04637716 13.4677063 3.04637716 13.4677063 3.34628119 12.1321497 3.3203215"></polygon>
                        <path d="M19.1059933,5.05981286 L18.7815211,4.7759357 L19.2977879,4.50391075 L19.1059933,5.05981286 Z M17.8062812,4.95981286 L18.0342083,5.16974568 L18.5476919,4.89916027 L19.0184693,5.31350768 L18.8279702,5.86547505 L19.2358397,6.21739443 L20.0515787,3.80415067 L17.8062812,4.95981286 Z" id="Fill-176" fill="#F1EEED"></path>
                        <path d="M15.8049424,2.03071017 L15.5510077,2.12269674 C15.5270154,1.95345489 15.4070537,1.70882917 15.1611324,1.70882917 C14.9732246,1.70882917 14.8872361,1.88277351 14.8872361,1.99073896 C14.8872361,2.36261996 15.6109885,2.39659309 15.6109885,2.98042226 C15.6109885,3.3962572 15.2591171,3.6921785 14.9012476,3.6921785 C14.3953935,3.6921785 14.1414587,3.3202975 14.0834933,3.10834933 L14.3613724,2.98238964 C14.4113724,3.20633397 14.5512956,3.3818618 14.7632438,3.3818618 C14.9751919,3.3818618 15.0731766,3.19635317 15.0731766,3.06636276 C15.0731766,2.66852207 14.3613724,2.63853167 14.3613724,2.06070058 C14.3613724,1.69683301 14.6773033,1.40292706 15.0431862,1.40292706 C15.4410749,1.40292706 15.7389635,1.69481766 15.8049424,2.03071017" id="Fill-178" fill="#F1EEED"></path>
                        <polygon id="Fill-180" fill="#EC9B24" points="5.63421305 20.0409789 5.84414587 19.8090691 5.20950096 19.2059981 4.25263916 20.1909309 4.59054702 20.5028311 4.96353167 20.1019674 5.25235125 20.3808541 5.46228407 20.1589251 5.17389635 19.8760077 5.31429942 19.725096"></polygon>
                        <path d="M6.05506238,21.3145393 C5.94210653,21.3145393 5.8681142,21.2345489 5.8681142,21.118618 C5.8681142,20.9456814 6.13404511,20.5737524 6.33097409,20.5737524 C6.40295106,20.5737524 6.50194338,20.6367562 6.50194338,20.7416987 C6.50194338,20.9606526 6.1825096,21.3145393 6.05506238,21.3145393 M6.20803743,20.2288868 C5.84412188,20.2288868 5.48222169,20.5707774 5.48222169,20.9876679 C5.48222169,21.290547 5.75515835,21.662428 6.17204894,21.662428 C6.43294146,21.662428 6.8827975,21.4045106 6.8827975,20.8893474 C6.8827975,20.5591171 6.63390115,20.2288868 6.20803743,20.2288868" id="Fill-182" fill="#EC9B24"></path>
                        <polygon id="Fill-184" fill="#EC9B24" points="9.52696737 21.8304223 8.67922265 21.5285029 8.56329175 21.8144434 8.79088292 21.8954415 8.42730326 22.9080614 8.84117083 23.05 9.20566219 22.0431382 9.41698656 22.1183301"></polygon>
                        <path d="M10.1617322,22.5181382 L10.2067418,22.3121881 C10.2067418,22.3121881 10.3346689,22.3102207 10.3346689,22.4221689 C10.3346689,22.5601248 10.1617322,22.5181382 10.1617322,22.5181382 M10.0452735,23.0659789 L10.0987764,22.8140595 C10.0987764,22.8140595 10.2667226,22.7880518 10.2667226,22.9479846 C10.2667226,23.1519194 10.0452735,23.0659789 10.0452735,23.0659789 M10.6266075,22.750048 C10.6266075,22.750048 10.7725288,22.6960653 10.7725288,22.4381958 C10.7725288,22.134261 10.4526631,22.0583013 10.4526631,22.0583013 L9.85184741,21.9233205 L9.5509357,23.2579175 C9.5509357,23.2579175 10.1087572,23.399856 10.26869,23.399856 C10.4886516,23.399856 10.7045825,23.2599328 10.7045825,22.9919866 C10.7045825,22.800048 10.6266075,22.750048 10.6266075,22.750048" id="Fill-186" fill="#EC9B24"></path>
                        <polygon id="Fill-188" fill="#EC9B24" points="10.862524 23.5398273 11.6242802 21.9823417 12.1521113 23.6197697 11.6882438 23.5957774 11.5903071 23.2738964 11.3483685 23.2699136 11.2104127 23.5537908"></polygon>
                        <polygon id="Fill-190" fill="#EC9B24" points="12.4320298 22.234261 12.8678743 22.234261 12.89988 23.2738964 13.365715 23.2738964 13.3757438 23.5837812 12.4860125 23.6058061"></polygon>
                        <polygon id="Fill-192" fill="#EC9B24" points="13.5576775 22.178263 14.0035029 22.1002879 14.159453 23.1419386 14.6252879 23.0699616 14.6713052 23.3898752 13.7775912 23.5357965"></polygon>
                        <path d="M16.7046545,21.8393714 L16.8726008,21.5934501 C16.8726008,21.5934501 16.6806622,21.4164827 16.3957774,21.4164827 C16.0058541,21.4164827 15.7209693,21.7464251 15.7209693,22.1242562 C15.7209693,22.4961852 16.0508637,22.8590451 16.4257678,22.8590451 C16.8336372,22.8590451 17.1095489,22.5861564 17.1095489,22.1377879 L16.8096449,22.1002639 C16.8096449,22.2652351 16.7616123,22.5111564 16.5247121,22.5111564 C16.2877639,22.5111564 16.1408349,22.1722409 16.1408349,21.9833253 C16.1408349,21.7944098 16.2847889,21.7014155 16.4152591,21.7014155 C16.590691,21.7014155 16.7046545,21.8393714 16.7046545,21.8393714" id="Fill-194" fill="#EC9B24"></path>
                        <polygon id="Fill-196" fill="#EC9B24" points="16.9445777 21.1452351 17.3284549 20.9276727 17.856286 21.8483541 18.2491363 21.6264251 18.4110845 21.8933637 17.6283589 22.3521929"></polygon>
                        <path d="M17.8892754,20.6097649 L18.2461372,20.3518474 L18.8039587,21.0986324 C18.8039587,21.0986324 18.8379798,21.1452255 18.8879319,21.1452255 C18.9824136,21.1452255 19.068882,21.0600048 19.068882,20.9960413 C19.068882,20.9741603 19.0303983,20.9276631 19.0303983,20.9276631 L18.4790547,20.1884117 L18.7379798,19.9829415 L19.3298225,20.7927303 C19.3298225,20.7927303 19.3908109,20.8557342 19.3908109,21.0056862 C19.3908109,21.3520393 18.9764155,21.5574616 18.7919626,21.5574616 C18.5745441,21.5574616 18.4245921,21.3445537 18.4245921,21.3445537 L17.8892754,20.6097649 Z" id="Fill-198" fill="#EC9B24"></path>
                        <polygon id="Fill-200" fill="#F1EEED" points="5.63421305 19.9169866 5.72418426 19.8150192 5.21233205 19.3191939 4.37461612 20.1928983 4.57653551 20.3848369 4.95959693 19.9755758 5.24832054 20.2608445 5.34232246 20.1608925 5.056238 19.8723608 5.30830134 19.603071"></polygon>
                        <path d="M6.05206334,21.3945298 C5.9081094,21.3945298 5.78416507,21.2646353 5.78416507,21.1346449 C5.78416507,20.8727447 6.1190499,20.4798464 6.32898273,20.4798464 C6.4584453,20.4798464 6.58589251,20.5827735 6.58589251,20.7337332 C6.58589251,20.9866603 6.28200576,21.3945298 6.05206334,21.3945298 M6.18253359,20.3038868 C5.87111324,20.3038868 5.57619962,20.6527831 5.57619962,20.9666987 C5.57619962,21.3325816 5.88210173,21.5704894 6.16204415,21.5704894 C6.43392514,21.5704894 6.81084453,21.256094 6.81084453,20.9096929 C6.81084453,20.6067658 6.53589251,20.3038868 6.18253359,20.3038868" id="Fill-202" fill="#F1EEED"></path>
                        <path d="M7.52,22.1623752 C7.40910749,22.1839683 7.32119962,22.119525 7.29907869,22.0057534 C7.26601727,21.8359837 7.4559405,21.4201488 7.64922265,21.3824808 C7.71990403,21.3687572 7.82902111,21.4116555 7.84912668,21.5146785 C7.89092131,21.7295537 7.64509597,22.137999 7.52,22.1623752 M7.46261036,21.0675096 C7.10546065,21.1370393 6.81558541,21.5417898 6.89523992,21.9510029 C6.95315739,22.2482678 7.29212092,22.5611756 7.70128599,22.4814731 C7.95738004,22.4315691 8.34965451,22.0925096 8.25119002,21.5867994 C8.18809021,21.2626152 7.88065259,20.9860797 7.46261036,21.0675096" id="Fill-204" fill="#EC9B24"></path>
                        <path d="M7.53232246,22.2414779 C7.39105566,22.2689731 7.24451056,22.1651823 7.21965451,22.0375912 C7.16960653,21.7805374 7.42325336,21.3307774 7.62929942,21.2906622 C7.75636276,21.2659021 7.90118042,21.3426775 7.93001919,21.4908061 C7.97838772,21.7390787 7.75799424,22.197524 7.53232246,22.2414779 M7.45190019,21.1459885 C7.146238,21.2054894 6.92349328,21.6043378 6.98347409,21.9124952 C7.05348369,22.2716123 7.39916507,22.4466123 7.67387716,22.3931574 C7.94081574,22.341142 8.25065259,21.9605758 8.18443378,21.6205086 C8.1265643,21.3231478 7.79882917,21.0784741 7.45190019,21.1459885" id="Fill-206" fill="#F1EEED"></path>
                        <polygon id="Fill-208" fill="#F1EEED" points="8.72919866 21.6264395 9.41297985 21.8703455 9.36897793 22.0083013 9.15304702 21.9233205 8.79916027 22.9479846 8.53726008 22.8440499 8.88716411 21.834357 8.67919866 21.768666"></polygon>
                        <path d="M10.2469722,22.6138724 C10.194477,22.6138724 10.066262,22.5816267 10.066262,22.5816267 L10.1418858,22.2122889 C10.1418858,22.2122889 10.4276823,22.2262524 10.4276823,22.4001967 C10.4276823,22.5741411 10.2994674,22.6138724 10.2469722,22.6138724 M10.1617514,23.164928 C10.1262428,23.164928 9.9553215,23.1184789 9.9553215,23.1184789 L10.0424136,22.7106094 C10.0424136,22.7106094 10.3557054,22.7240931 10.3557054,22.940024 C10.3557054,23.1559549 10.1972121,23.164928 10.1617514,23.164928 M10.4946689,22.7340739 C10.4946689,22.7340739 10.7046017,22.6960701 10.7046017,22.4441507 C10.7046017,22.1922313 10.4246593,22.1222697 10.4246593,22.1222697 L9.90085893,22.0122889 L9.66693378,23.1959261 C9.66693378,23.1959261 10.1187572,23.3218858 10.2907342,23.3218858 C10.4626631,23.3218858 10.6306094,23.1919434 10.6306094,22.9919914 C10.6306094,22.7920393 10.4946689,22.7340739 10.4946689,22.7340739" id="Fill-210" fill="#F1EEED"></path>
                        <path d="M19.6476488,19.8439299 L19.499904,19.6935461 C19.499904,19.6935461 19.5682821,19.5853887 19.6619962,19.6466171 C19.7774472,19.7221449 19.6476488,19.8439299 19.6476488,19.8439299 M20.0424664,20.2411468 L19.8608445,20.0585173 C19.8608445,20.0585173 19.9309981,19.9037668 20.0648752,19.9912908 C20.2355566,20.1028551 20.0424664,20.2411468 20.0424664,20.2411468 M20.0961132,19.5817418 C20.0961132,19.5817418 20.1308061,19.4300624 19.9149712,19.2889395 C19.6606046,19.1225768 19.421977,19.3487764 19.421977,19.3487764 L18.9802303,19.7778071 L19.9325816,20.7600528 C19.9325816,20.7600528 20.3566219,20.3707534 20.4441459,20.2368282 C20.5645393,20.0528071 20.565595,19.7955134 20.3413148,19.6489203 C20.1806142,19.543834 20.0961132,19.5817418 20.0961132,19.5817418" id="Fill-212" fill="#EC9B24"></path>
                        <path d="M19.774405,19.824952 C19.7457102,19.868906 19.6485413,19.9585893 19.6485413,19.9585893 L19.3807869,19.6931382 C19.3807869,19.6931382 19.5488772,19.4616603 19.6945106,19.5568138 C19.840048,19.6520154 19.8031478,19.781094 19.774405,19.824952 M20.1890403,20.1978407 C20.1696065,20.2275432 20.0371689,20.3452015 20.0371689,20.3452015 L19.7434069,20.0491363 C19.7434069,20.0491363 19.9261804,19.7942418 20.1068906,19.912428 C20.2876008,20.0306142 20.2084261,20.1681382 20.1890403,20.1978407 M20.0105854,19.6834453 C20.0105854,19.6834453 20.0936468,19.4869002 19.8828503,19.3490403 C19.6719578,19.2111804 19.4602015,19.4072457 19.4602015,19.4072457 L19.0815067,19.7854607 L19.9441747,20.6289827 C19.9441747,20.6289827 20.2968618,20.3197217 20.3909597,20.1758157 C20.4850576,20.0319098 20.468167,19.8202015 20.3007965,19.7108445 C20.1333781,19.6014395 20.0105854,19.6834453 20.0105854,19.6834453" id="Fill-214" fill="#F1EEED"></path>
                        <path d="M11.3608349,23.0569818 L11.5153455,22.7400912 L11.6121785,23.0569818 L11.3608349,23.0569818 Z M11.754261,23.521857 L12.0341555,23.521857 L11.604309,22.2102927 L10.9897697,23.4603407 L11.1616987,23.4654271 L11.2983589,23.1851008 L11.6565163,23.2020393 L11.754261,23.521857 Z" id="Fill-216" fill="#F1EEED"></path>
                        <polygon id="Fill-218" fill="#F1EEED" points="12.5080134 22.3162188 12.7978887 22.3162188 12.8259117 23.3658829 13.2997601 23.3658829 13.2997601 23.5118042 12.5580134 23.5118042"></polygon>
                        <polygon id="Fill-220" fill="#F1EEED" points="13.6556622 22.234261 13.9315739 22.1922745 14.0995202 23.2339251 14.5553743 23.1579175 14.5773512 23.3238964 13.843618 23.4378599"></polygon>
                        <path d="M16.6716651,21.7254079 L16.7601488,21.6024232 C16.7601488,21.6024232 16.628191,21.5005038 16.4152351,21.5005038 C16.0958493,21.5005038 15.8041507,21.7672025 15.812452,22.1212812 C15.8199376,22.4422025 16.031358,22.7660509 16.4347649,22.7660509 C16.7271353,22.7660509 17.0270393,22.540619 17.0270393,22.2112524 L16.8770873,22.1932582 C16.8770873,22.4302063 16.7136516,22.590619 16.5172025,22.590619 C16.2083253,22.590619 16.0613484,22.1752639 16.0613484,21.9833253 C16.0613484,21.8003599 16.2038148,21.6204175 16.4077495,21.6204175 C16.5517035,21.6204175 16.6716651,21.7254079 16.6716651,21.7254079" id="Fill-222" fill="#F1EEED"></path>
                        <polygon id="Fill-224" fill="#F1EEED" points="17.0685221 21.1785988 17.3004319 21.0346449 17.8302783 21.9583493 18.2221689 21.7364203 18.2981286 21.8683781 17.6623321 22.2302783"></polygon>
                        <path d="M18.0022553,20.6248081 L18.228167,20.4568618 L18.7479846,21.16262 C18.7479846,21.16262 18.8059981,21.2426104 18.8979367,21.2426104 C18.9959213,21.2426104 19.1528791,21.1166507 19.1528791,20.9946737 C19.1528791,20.9377159 19.0898752,20.8597409 19.0898752,20.8597409 L18.5920345,20.196881 L18.7160269,20.0988964 L19.2223608,20.7777351 C19.2223608,20.7777351 19.3123321,20.88119 19.3123321,21.0131478 C19.3123321,21.2290787 19.0184261,21.4704894 18.790499,21.4704894 C18.6285509,21.4704894 18.528071,21.3235605 18.528071,21.3235605 L18.0022553,20.6248081 Z" id="Fill-226" fill="#F1EEED"></path>
                    </g>
                </g>
            </g>
        </g>
    </g>
</svg>