<?xml version="1.0" encoding="UTF-8" standalone="no"?>
<svg width="22px" height="25px" viewBox="0 0 22 25" version="1.1" xmlns="http://www.w3.org/2000/svg" xmlns:xlink="http://www.w3.org/1999/xlink">
    <!-- Generator: Sketch 42 (36781) - http://www.bohemiancoding.com/sketch -->
    <title>arsenal_crest</title>
    <desc>Created with Sketch.</desc>
    <defs>
        <polygon id="path-1" points="0 24.9887218 21.218609 24.9887218 21.218609 0.0255639098 0 0.0255639098"></polygon>
    </defs>
    <g id="Page-1" stroke="none" stroke-width="1" fill="none" fill-rule="evenodd">
        <g id="Desktop-HD" transform="translate(-1108.000000, -377.000000)">
            <g id="Group-8" transform="translate(894.000000, 152.000000)">
                <g id="Group-5" transform="translate(0.000000, 18.000000)">
                    <g id="row_3" transform="translate(17.000000, 207.000000)">
                        <g id="arsenal_crest" transform="translate(197.000000, 0.000000)">
                            <path d="M10.6092105,0.135526316 C13.9045113,0.135526316 17.0932331,0.812218045 20.093609,2.1481203 C20.7154135,4.68571429 21.1078947,7.33045113 21.118609,9.06390977 L21.118609,9.15883459 C21.118609,10.8669173 20.8723684,12.5351504 20.3866541,14.1212406 C19.9112782,15.6793233 19.2003759,17.1550752 18.2795113,18.5090226 C17.3716165,19.8404135 16.2533835,21.0618421 14.9548872,22.137782 C13.5755639,23.2843985 11.9565789,24.3129699 10.6092105,24.9003759 C9.26409774,24.3129699 7.64304511,23.2843985 6.2637218,22.137782 C4.96522556,21.0618421 3.84699248,19.8404135 2.93909774,18.5090226 C2.01804511,17.1550752 1.30733083,15.6793233 0.831954887,14.1212406 C0.346240602,12.5351504 0.1,10.8669173 0.1,9.15883459 L0.1,9.06390977 C0.110714286,7.33045113 0.503195489,4.68571429 1.12481203,2.1481203 C4.12518797,0.812218045 7.31428571,0.135526316 10.6092105,0.135526316" id="Fill-1" fill="#FFFFFF"></path>
                            <path d="M10.6092105,9.89323308 C11.3390977,9.89323308 12.0265038,10.0802632 12.6208647,10.412406 L18.7443609,10.412406 C18.7569549,9.98533835 18.7484962,9.50338346 18.7400376,9.04887218 C18.7041353,7.17593985 18.1586466,4.00902256 17.6240602,1.8137218 C15.4533835,1.11184211 13.1234962,0.7 10.6114662,0.7" id="Fill-2" fill="#BB1C3F"></path>
                            <path d="M10.6114662,0.707518797 C8.15451128,0.707518797 5.89454887,1.07443609 3.60319549,1.8112782 C3.0387218,4.08646617 2.57199248,7.09830827 2.5018797,8.54680451 C2.40018797,10.6646617 2.55263158,12.1954887 2.97725564,13.868609 C3.21503759,14.8129699 3.53327068,15.6969925 3.9362782,16.5934211 C4.37142857,16.3661654 4.82330827,16.0791353 5.27951128,15.7370301 C5.75883459,15.3796992 6.17481203,14.9225564 6.51616541,14.4909774 C6.49718045,14.3334586 6.48890977,14.1736842 6.48890977,14.0135338 C6.48890977,13.7665414 6.50996241,13.5216165 6.55244361,13.2870301 C5.70582707,13.3169173 5.22424812,13.3266917 4.84642857,13.3266917 C4.39022556,13.3266917 3.97443609,13.0095865 3.77274436,12.5253759 L3.56071429,12.5253759 C3.39924812,12.5253759 3.12575188,12.3879699 3.12575188,11.8708647 C3.12575188,11.356391 3.39924812,11.218985 3.56071429,11.218985 L3.77274436,11.218985 C3.97443609,10.7321429 4.39022556,10.4150376 4.84642857,10.4150376 L8.6,10.4150376 C9.1962406,10.0802632 9.88157895,9.89041353 10.6114662,9.89041353" id="Fill-3" fill="#D82331"></path>
                            <path d="M6.88139098,21.3338346 C5.72481203,20.1798872 4.76804511,18.906391 4.01278195,17.5451128 C3.24454887,16.1665414 2.69924812,14.6278195 2.37894737,13.0921053 C2.04774436,11.5112782 1.94191729,9.91541353 2.05413534,8.22199248 C2.15808271,6.6287594 2.57857143,4.21616541 3.0981203,1.98364662 C2.60169173,2.15845865 2.10733083,2.35075188 1.62142857,2.56052632 C1.07406015,4.75319549 0.692105263,7.53778195 0.683646617,9.05864662 C0.67518797,10.7546992 0.914849624,12.3979323 1.38796992,13.9413534 C1.8843985,15.562218 2.54022556,16.8808271 3.42067669,18.1721805 C4.29680451,19.4580827 5.37894737,20.6392857 6.63533835,21.6808271 C7.81052632,22.6577068 9.14943609,23.5139098 10.6092105,24.2385338 C10.6071429,24.2385338 10.6092105,24.2355263 10.6092105,24.2385338 C9.21954887,23.3842105 7.96334586,22.4097744 6.88139098,21.3338346" id="Fill-4" fill="#07305D"></path>
                            <path d="M14.3351504,21.3338346 C15.4913534,20.1798872 16.4484962,18.906391 17.2037594,17.5475564 C17.9718045,16.1665414 18.5174812,14.6278195 18.8398496,13.0921053 C19.1708647,11.5112782 19.2746241,9.91541353 19.162218,8.22199248 C19.0584586,6.6287594 18.6362782,4.21390977 18.1184211,1.98101504 C18.6148496,2.15582707 19.1092105,2.35075188 19.5973684,2.56052632 C20.1445489,4.75319549 20.5265038,7.53778195 20.5328947,9.05864662 C20.5434211,10.7546992 20.3016917,12.3979323 19.8283835,13.9413534 C19.3703008,15.4447368 18.6847744,16.8654135 17.7958647,18.1721805 C16.9197368,19.4580827 15.8396617,20.6392857 14.581203,21.6828947 C13.4080827,22.6577068 12.0669173,23.5139098 10.6092105,24.2385338 C11.9969925,23.3868421 13.2530075,22.4097744 14.3351504,21.3338346" id="Fill-5" fill="#07305D"></path>
                            <path d="M10.6071429,10.0979323 C8.44304511,10.0979323 6.69041353,11.8509398 6.69041353,14.0135338 C6.69041353,16.1789474 8.44304511,17.9319549 10.6071429,17.9319549 C12.7693609,17.9319549 14.5218045,16.1789474 14.5218045,14.0135338 C14.5218045,11.8509398 12.7693609,10.0979323 10.6071429,10.0979323" id="Fill-6" fill="#998A5B"></path>
                            <path d="M10.6092105,18.1368421 C9.2787594,18.1368421 8.09304511,17.5050752 7.33966165,16.5259398 C6.41879699,17.0505639 5.45357143,17.4654135 4.52819549,17.75 C5.25845865,19.0338346 6.16428571,20.2323308 7.25488722,21.331203 C8.23928571,22.3225564 9.36597744,23.2270677 10.6092105,24.0332707" id="Fill-7" fill="#D82331"></path>
                            <g id="Group-11">
                                <mask id="mask-2" fill="white">
                                    <use xlink:href="#path-1"></use>
                                </mask>
                                <g id="Clip-9"></g>
                                <path d="M4.84229323,13.1218045 C4.41785714,13.1218045 4.05733083,12.7900376 3.91259398,12.3204887 L3.55639098,12.3204887 C3.46522556,12.3204887 3.32706767,12.2082707 3.32706767,11.8734962 C3.32706767,11.5362782 3.46522556,11.4238722 3.55639098,11.4238722 L3.91259398,11.4238722 C4.05507519,10.9543233 4.41785714,10.6199248 4.84229323,10.6199248 L8.26672932,10.6199248 C7.43721805,11.1941729 6.82612782,12.0657895 6.5906015,13.0796992 C5.83327068,13.1071429 5.24962406,13.1218045 4.84229323,13.1218045" id="Fill-8" fill="#998A5B" mask="url(#mask-2)"></path>
                                <path d="M20.1787594,2.06616541 C17.2697368,0.764849624 14.0678571,0.0255639098 10.6092105,0.0255639098 C7.15075188,0.0255639098 3.94887218,0.764849624 1.04003759,2.06616541 C0.369360902,4.78327068 0.00864661654,7.41541353 0.000187969925,9.0537594 C-0.00827067669,10.8069549 0.237969925,12.5176692 0.734586466,14.1409774 C1.21390977,15.7067669 1.92894737,17.1930451 2.85620301,18.5539474 C3.76860902,19.8928571 4.89304511,21.1212406 6.20018797,22.2050752 C7.4287594,23.2270677 9.09210526,24.3453008 10.6092105,25 C12.1265038,24.3453008 13.7898496,23.2270677 15.0182331,22.2050752 C16.3255639,21.1212406 17.45,19.8928571 18.362406,18.5539474 C19.2896617,17.1930451 20.0046992,15.7067669 20.4840226,14.1409774 C20.9806391,12.5176692 21.2268797,10.8069549 21.2184211,9.0537594 C21.2099624,7.41541353 20.8492481,4.78327068 20.1787594,2.06616541 Z M17.7979323,18.1691729 C16.9216165,19.4556391 15.8396617,20.6370301 14.5832707,21.6808271 C13.4080827,22.6546992 12.0669173,23.5139098 10.6092105,24.2355263 C9.14943609,23.5139098 7.81052632,22.6546992 6.63533835,21.6808271 C5.37894737,20.6370301 4.29680451,19.4556391 3.42067669,18.1691729 C3.35281955,18.0697368 3.28496241,17.9646617 3.21691729,17.862218 C4.49642857,17.6473684 5.91165414,17.1030075 7.21860902,16.3584586 C6.89191729,15.8892857 6.66052632,15.3496241 6.55244361,14.7654135 C6.22575188,15.1674812 5.83515038,15.5768797 5.38984962,15.9092105 C4.66804511,16.4462406 3.7962406,16.9828947 2.85413534,17.2725564 C2.23646617,16.2216165 1.7443609,15.1050752 1.38796992,13.9413534 C0.914849624,12.3954887 0.67518797,10.7546992 0.683646617,9.05864662 C0.692105263,7.53533835 1.07406015,4.75319549 1.62142857,2.56052632 C4.46466165,1.33176692 7.48815789,0.707518797 10.6092105,0.707518797 C13.7304511,0.707518797 16.7539474,1.33176692 19.5973684,2.56052632 C20.1445489,4.75319549 20.5265038,7.53533835 20.5349624,9.05864662 C20.537218,9.58327068 20.5161654,10.1052632 20.4714286,10.6199248 L12.9413534,10.6199248 C13.8727444,11.2639098 14.5259398,12.2781955 14.687594,13.4515038 L16.1236842,13.1097744 C16.4441729,13.0370301 16.5757519,12.8223684 16.6097744,12.6225564 L20.2208647,12.3806391 C20.1171053,12.9099624 19.9857143,13.4317669 19.8306391,13.9413534 C19.3703008,15.4421053 18.6870301,16.8654135 17.7979323,18.1691729 L17.7979323,18.1691729 Z" id="Fill-10" fill="#998A5B" mask="url(#mask-2)"></path>
                            </g>
                            <path d="M10.8659774,15.0977444 L10.8659774,17.2080827 C11.8505639,17.1280075 12.7099624,16.6033835 13.2422932,15.8368421 L11.4156015,14.7806391 C11.2691729,14.9351504 11.0802632,15.0473684 10.8659774,15.0977444" id="Fill-12" fill="#FFFFFF"></path>
                            <path d="M10.3484962,10.8219925 C9.36184211,10.8994361 8.50225564,11.4238722 7.96973684,12.1930451 L9.7943609,13.2466165 C9.94097744,13.0896617 10.1319549,12.9772556 10.3484962,12.9272556" id="Fill-13" fill="#FFFFFF"></path>
                            <path d="M10.6050752,13.4441729 C10.2911654,13.4441729 10.0364662,13.6990602 10.0364662,14.0135338 C10.0364662,14.3281955 10.2911654,14.5830827 10.6050752,14.5830827 C10.9212406,14.5830827 11.1759398,14.3281955 11.1759398,14.0135338 C11.1759398,13.6990602 10.9212406,13.4441729 10.6050752,13.4441729" id="Fill-14" fill="#FFFFFF"></path>
                            <path d="M10.8659774,10.8219925 L10.8659774,12.9272556 C11.0827068,12.9772556 11.2734962,13.0896617 11.4197368,13.2466165 L13.2422932,12.1930451 C12.7120301,11.4265038 11.8528195,10.8994361 10.8659774,10.8219925" id="Fill-15" fill="#FFFFFF"></path>
                            <path d="M10.3484962,15.0977444 C10.1742481,15.0577068 10.0152256,14.975188 9.88364662,14.862782 C9.8537594,14.837782 9.82631579,14.8103383 9.79887218,14.7806391 L7.97199248,15.8368421 C8.01221805,15.8969925 8.05657895,15.9567669 8.10357143,16.0140977 C8.64022556,16.6834586 9.44022556,17.1357143 10.3484962,17.2080827" id="Fill-16" fill="#FFFFFF"></path>
                            <path d="M11.6765038,14.3334586 L13.5033835,15.3870301 C13.8620301,14.6505639 13.9618421,13.593985 13.5033835,12.6426692 L11.6787594,13.6964286 C11.7360902,13.8862782 11.7424812,14.1159774 11.6765038,14.3334586" id="Fill-17" fill="#FFFFFF"></path>
                            <path d="M8.27349624,12.1357143 L9.76278195,12.9922932 C9.87518797,12.8971805 10.0046992,12.824812 10.1426692,12.7723684 L10.1426692,11.0543233 C9.40620301,11.1667293 8.74003759,11.5513158 8.27349624,12.1357143" id="Fill-18" fill="#998A5B"></path>
                            <path d="M11.0738722,11.0567669 L11.0718045,12.7796992 C11.2099624,12.8300752 11.3349624,12.8971805 11.4473684,12.9922932 L12.9390977,12.1357143 C12.4742481,11.5513158 11.8101504,11.1667293 11.0738722,11.0567669" id="Fill-19" fill="#998A5B"></path>
                            <path d="M13.5926692,13.7037594 C13.5648496,13.4394737 13.5013158,13.1845865 13.4058271,12.937218 L11.9097744,13.7962406 C11.9227444,13.868609 11.9291353,13.9387218 11.9291353,14.0110902 C11.9291353,14.0411654 11.9291353,14.0712406 11.9268797,14.0984962 C12.3490602,13.9834586 12.7926692,13.8740602 13.2445489,13.7791353 C13.3528195,13.7565789 13.4695489,13.7315789 13.5926692,13.7037594" id="Fill-20" fill="#998A5B"></path>
                            <path d="M10.6092105,24.0332707 C11.8528195,23.2270677 12.981391,22.3176692 13.9661654,21.3287594 C15.1203008,20.1671053 16.0706767,18.8836466 16.8197368,17.5174812 C17.581391,16.131203 18.1203008,14.587782 18.4343985,13.0469925 C18.4578947,12.9272556 18.481203,12.812406 18.5024436,12.6949248 L16.7667293,12.8174812 C16.6755639,13.0620301 16.4676692,13.2419173 16.1770677,13.3069549 L16.1789474,13.3069549 C16.1684211,13.3093985 15.5319549,13.4665414 14.7107143,13.656391 C14.7212406,13.7738722 14.7276316,13.893609 14.7276316,14.0135338 C14.7276316,16.2917293 12.8840226,18.1368421 10.6092105,18.1368421" id="Fill-21" fill="#BB1C3F"></path>
                            <path d="M10.9721805,14.0135338 C10.9721805,13.8112782 10.8086466,13.6464286 10.6050752,13.6464286 C10.4037594,13.6464286 10.2400376,13.8112782 10.2400376,14.0135338 C10.2400376,14.2159774 10.4037594,14.3808271 10.6050752,14.3808271 C10.8086466,14.3808271 10.9721805,14.2159774 10.9721805,14.0135338" id="Fill-22" fill="#998A5B"></path>
                            <path d="M11.0718045,16.9731203 C11.806203,16.8629699 12.4742481,16.481203 12.9413534,15.8969925 L11.4432331,15.0353383 C11.3306391,15.1274436 11.2075188,15.199812 11.0718045,15.249812 C11.0718045,15.249812 11.0738722,16.9731203 11.0718045,16.9731203" id="Fill-23" fill="#BB1C3F"></path>
                            <path d="M8.27537594,15.8969925 L9.76710526,15.0327068 C9.87969925,15.1274436 10.0067669,15.1971805 10.1426692,15.2471805 L10.1404135,16.9731203 C9.40413534,16.8629699 8.74003759,16.481203 8.27537594,15.8969925" id="Fill-24" fill="#D82331"></path>
                            <path d="M13.6052632,14.0161654 C13.6052632,13.9761278 13.6052632,13.9360902 13.6031955,13.8966165 C13.4906015,13.918985 13.3823308,13.943797 13.2806391,13.9637218 C12.8246241,14.0612782 12.3832707,14.1706767 11.9907895,14.2783835 L13.4016917,15.0949248 C13.537594,14.7530075 13.6052632,14.3906015 13.6052632,14.0161654" id="Fill-25" fill="#BB1C3F"></path>
                            <path d="M7.70902256,12.6451128 C7.28646617,13.5389098 7.31221805,14.5481203 7.71522556,15.3922932 L9.53552632,14.3334586 C9.47387218,14.1285714 9.47199248,13.906391 9.53345865,13.693797" id="Fill-26" fill="#FFFFFF"></path>
                            <path d="M7.81466165,15.0977444 L9.30037594,14.2360902 C9.27481203,14.0911654 9.27481203,13.9413534 9.30037594,13.7962406 L7.80845865,12.9398496 C7.53909774,13.6336466 7.53909774,14.4035714 7.81466165,15.0977444" id="Fill-27" fill="#998A5B"></path>
                            <path d="M12.0986842,7.30808271 C12.0945489,7.38796992 12.0733083,7.65789474 12.0669173,7.73778195 L13.2530075,7.73778195 C13.1851504,7.42067669 13.1554511,6.98082707 13.1449248,6.65112782 C13.1449248,6.65394737 13.1255639,5.96710526 13.1255639,5.96710526 C13.1234962,5.90206767 13.1428571,5.84699248 13.1787594,5.80977444 C13.212782,5.77218045 13.2595865,5.75225564 13.3082707,5.75225564 C13.3635338,5.74962406 13.4567669,5.74962406 13.4631579,5.94210526 L13.4906015,6.67142857 C13.5013158,6.99830827 13.5075188,7.45789474 13.4631579,7.73778195 L14.6195489,7.73778195 C14.6003759,7.63759398 14.568609,7.40037594 14.5601504,7.33327068 C14.706391,7.64285714 15.0163534,7.80018797 15.4340226,7.80018797 C15.6802632,7.80018797 15.8714286,7.71033835 16.0135338,7.62274436 C16.0178571,7.63270677 16.0731203,7.73778195 16.0731203,7.73778195 L18.2097744,7.73778195 C18.1140977,7.41541353 18.0567669,6.97105263 18.018609,6.63890977 L17.7257519,4.2462406 L16.6244361,4.06635338 C16.7139098,4.36616541 16.7796992,4.82556391 16.8178571,5.15526316 L16.9832707,6.68364662 C17.0129699,6.96353383 17.0428571,7.26071429 17.0406015,7.56296992 L17.0385338,7.60018797 L16.9958647,7.49022556 C16.9197368,7.3056391 16.8708647,7.04342105 16.8453008,6.6887218 C16.8428571,6.68646617 16.7986842,6.19924812 16.7986842,6.19924812 C16.7413534,5.42255639 16.312594,5.06804511 15.3857143,5.06804511 C15.2263158,5.06804511 14.8315789,5.10526316 14.593985,5.17537594 L14.6577068,6.0593985 L14.9037594,5.90695489 C15.1073308,5.78458647 15.2708647,5.72988722 15.4513158,5.72988722 C15.5975564,5.72988722 15.6932331,5.78721805 15.737594,5.88703008 C15.5552632,5.91710526 15.3599624,5.96447368 15.143609,6.06203008 C14.8146617,6.2093985 14.6003759,6.41917293 14.5156015,6.67368421 C14.5156015,6.66616541 14.5135338,6.65864662 14.5135338,6.65112782 L14.4753759,5.84210526 C14.456203,5.31766917 14.1293233,4.99041353 13.6242481,4.99041353 C13.3909774,4.99041353 13.1830827,5.05526316 13.0024436,5.18552632 C12.9919173,5.15281955 12.981391,5.12293233 12.9708647,5.0981203 L12.9240602,5.00319549 L11.9734962,4.96033835 C12.0180451,5.13045113 12.0753759,5.60733083 12.0881579,5.79473684 C12.0370301,5.53721805 11.9033835,5.26259398 11.6490602,5.08289474 C11.4537594,4.9481203 11.2099624,4.87819549 10.9445489,4.87819549 C10.5902256,4.87819549 10.2336466,5.02537594 9.99172932,5.27274436 C9.75,5.51992481 9.61860902,5.85469925 9.6056391,6.24924812 C9.51428571,6.15169173 9.39548872,6.06672932 9.24699248,5.99962406 L8.80996241,5.78947368 L8.78890977,5.77969925 C8.68477444,5.72988722 8.6806391,5.71484962 8.6825188,5.68477444 C8.68703008,5.63966165 8.78684211,5.59229323 8.93101504,5.59229323 C9.1093985,5.59229323 9.37030075,5.6825188 9.58026316,5.81729323 L9.59718045,5.03552632 C9.44229323,4.9656015 9.22593985,4.90827068 8.91409774,4.90827068 C8.75263158,4.90827068 8.44078947,4.9306391 8.17142857,5.08289474 C8.09699248,5.12518797 8.03157895,5.17274436 7.97199248,5.22537594 L7.98458647,4.99548872 C7.73007519,4.96804511 7.46052632,4.96033835 7.12969925,5.26766917 C7.12537594,5.24511278 7.10413534,5.14022556 7.08289474,5.07781955 L6.05601504,5.14022556 C6.13233083,5.41503759 6.14078947,5.83214286 6.11954887,6.20432331 L6.10056391,6.59642857 C6.10056391,6.59379699 6.09830827,6.64135338 6.09830827,6.64135338 C6.08778195,6.84605263 6.07481203,7.05319549 6.0537594,7.25056391 C5.96898496,6.98609023 5.87556391,6.62387218 5.80357143,6.32161654 L5.29642857,4.04154135 L3.84943609,4.2462406 C3.86221805,4.27631579 3.88101504,4.35112782 3.89154135,4.42349624 C3.90432331,4.51823308 3.90018797,4.7156015 3.76221805,5.11766917 C3.53082707,5.79473684 3.19567669,6.79342105 2.87518797,7.48289474 C2.83082707,7.58026316 2.75432331,7.73778195 2.75432331,7.73778195 L3.88327068,7.73778195 C3.89793233,7.56033835 3.97236842,7.27067669 4.0443609,7.05845865 C4.19943609,7.05319549 4.60883459,7.04342105 4.79755639,7.03834586 C4.83383459,7.20075188 4.8806391,7.43289474 4.88909774,7.57048872 L4.90169173,7.73778195 L7.16992481,7.73778195 C7.11654135,7.38308271 7.13815789,6.88853383 7.15281955,6.6112782 C7.17180451,6.29417293 7.23778195,6.08928571 7.36954887,5.95451128 C7.47105263,5.84699248 7.59210526,5.82199248 7.6768797,5.81954887 C7.66409774,6.24417293 7.94417293,6.44154135 8.1924812,6.56616541 L8.63590226,6.79342105 C8.79511278,6.87612782 8.79304511,6.91842105 8.79116541,6.94849624 C8.78458647,7.03364662 8.65526316,7.06597744 8.53853383,7.06334586 C8.30695489,7.05845865 7.98665414,6.89868421 7.62575188,6.52650376 L7.60695489,7.53533835 C7.89342105,7.69774436 8.23928571,7.75507519 8.55319549,7.75507519 C9.06898496,7.75507519 9.62067669,7.53026316 9.76917293,7.05093985 C10.0214286,7.53533835 10.5287594,7.76033835 11.0274436,7.76033835 C11.4729323,7.76033835 11.8080827,7.61522556 12.0986842,7.30808271 Z M4.32030075,6.29417293 C4.37969925,6.1268797 4.42631579,5.99210526 4.52612782,5.70469925 C4.58533835,5.99210526 4.6174812,6.14191729 4.64699248,6.28421053 C4.52199248,6.28909774 4.46466165,6.28909774 4.32030075,6.29417293 Z M10.6580827,6.04172932 L10.6580827,6.03421053 C10.6580827,5.68966165 10.7855263,5.55488722 10.9084586,5.5424812 C10.9445489,5.54003759 11.0398496,5.52988722 11.0845865,5.69229323 C11.1016917,5.75488722 11.1099624,5.80225564 11.1099624,5.83703008 C11.1099624,5.93176692 11.0590226,5.94943609 10.9996241,5.96954887 L10.9975564,5.97180451 C10.9975564,5.97180451 10.8214286,6.03947368 10.6603383,6.1018797 C10.6603383,6.08176692 10.6580827,6.06203008 10.6580827,6.04172932 Z M11.8379699,6.74360902 C11.6234962,6.92593985 11.4642857,7.04830827 11.2054511,7.04342105 C11.0016917,7.03834586 10.8765038,6.90112782 10.8003759,6.74605263 C11.0231203,6.6637218 11.8571429,6.34906015 12.0966165,6.2593985 C12.0986842,6.43402256 12.1030075,6.66879699 12.1030075,6.66879699 L12.1030075,6.67142857 C12.1071429,6.81109023 12.1095865,6.94605263 12.1071429,7.07838346 L12.1071429,7.08327068 L11.8379699,6.74360902 Z M15.7016917,7.06823308 C15.5043233,7.07575188 15.4597744,6.94097744 15.4577068,6.84379699 C15.4597744,6.74360902 15.4913534,6.59135338 15.8054511,6.50657895 C15.8140977,6.6137218 15.8227444,6.72105263 15.8227444,6.72105263 L15.8289474,6.81860902 C15.8332707,6.88853383 15.837594,6.95093985 15.8458647,7.02086466 C15.8033835,7.04830827 15.7567669,7.06597744 15.7016917,7.06823308 L15.7016917,7.06823308 Z" id="Fill-28" fill="#998A5B"></path>
                            <path d="M9.42105263,5.15770677 C9.32142857,5.12293233 9.15996241,5.08533835 8.91635338,5.08533835 C8.71672932,5.08533835 8.46240602,5.12518797 8.26033835,5.23778195 C8.03157895,5.36766917 7.86992481,5.57744361 7.85507519,5.79718045 C7.83402256,6.12424812 8.01447368,6.27913534 8.27105263,6.40921053 C8.44511278,6.49661654 8.61278195,6.58139098 8.71672932,6.6362782 C8.85902256,6.70864662 8.97969925,6.79868421 8.96691729,6.96353383 C8.95432331,7.12838346 8.80169173,7.2406015 8.5406015,7.2406015 C8.32180451,7.2406015 8.01033835,7.11334586 7.79586466,6.91842105 L7.78740602,7.42819549 C7.97199248,7.52293233 8.27763158,7.57781955 8.55112782,7.57781955 C9.0306391,7.57781955 9.62067669,7.35808271 9.63120301,6.80093985 C9.63740602,6.40394737 9.34699248,6.23909774 9.17481203,6.15921053 C9.00093985,6.07951128 8.82067669,5.99210526 8.73590226,5.94943609 C8.65526316,5.91221805 8.49172932,5.84962406 8.50657895,5.66973684 C8.51917293,5.49736842 8.71672932,5.41503759 8.9287594,5.41503759 C9.10714286,5.41503759 9.28101504,5.46503759 9.41466165,5.53721805" id="Fill-29" fill="#FFFFFF"></path>
                            <path d="M5.16052632,4.23890977 L4.0656015,4.39605263 C4.09304511,4.55357143 4.05093985,4.82556391 3.93195489,5.17274436 C3.70263158,5.8443609 3.33157895,6.92368421 3.0387218,7.56033835 L3.72838346,7.56033835 C3.76221805,7.35808271 3.8193609,7.1481203 3.91729323,6.88364662 L4.93966165,6.85582707 C4.9843985,7.05845865 5.05225564,7.37781955 5.06710526,7.56033835 L5.97951128,7.56033835 C5.86710526,7.29793233 5.72086466,6.74135338 5.63157895,6.35883459 L5.16052632,4.23890977 Z M4.0656015,6.48157895 L4.56654135,5.04041353 L4.86334586,6.4537594 L4.0656015,6.48157895 Z" id="Fill-30" fill="#FFFFFF"></path>
                            <path d="M7.79774436,5.16296992 L7.77462406,5.64718045 C7.61334586,5.62744361 7.40112782,5.66221805 7.23984962,5.82951128 C7.09135338,5.98684211 6.99793233,6.21184211 6.97669173,6.59906015 C6.95770677,6.91842105 6.94699248,7.2656015 6.97255639,7.56033835 L6.19154135,7.56033835 C6.24266917,7.27067669 6.25958647,6.92593985 6.27857143,6.60657895 L6.29793233,6.21428571 C6.31484962,5.89699248 6.31691729,5.59473684 6.26804511,5.30507519 L6.94924812,5.26259398 C6.98101504,5.37763158 6.99793233,5.5325188 6.98966165,5.70206767 C7.28853383,5.25263158 7.57951128,5.15281955 7.79774436,5.16296992" id="Fill-31" fill="#FFFFFF"></path>
                            <path d="M17.5667293,4.39849624 L16.8601504,4.2862782 C16.9302632,4.5806391 16.9577068,4.8156015 16.993797,5.13270677 L17.1592105,6.6612782 C17.1953008,6.98082707 17.2206767,7.27067669 17.2165414,7.56033835 L17.9802632,7.56033835 C17.912594,7.27067669 17.8785714,6.98082707 17.8424812,6.6612782" id="Fill-32" fill="#FFFFFF"></path>
                            <path d="M14.4114662,7.56033835 C14.3650376,7.27067669 14.3481203,6.98082707 14.3370301,6.6612782 L14.2990602,5.85206767 C14.2821429,5.42255639 14.0360902,5.16766917 13.6201128,5.16766917 C13.3932331,5.16766917 13.1234962,5.24041353 12.8947368,5.5325188 C12.8879699,5.47011278 12.8518797,5.26541353 12.8093985,5.17537594 L12.1879699,5.14793233 C12.2432331,5.44755639 12.2580827,5.74962406 12.2706767,6.06672932 L12.2791353,6.6612782 C12.2919173,6.98082707 12.2832707,7.27067669 12.2601504,7.56033835 L13.0407895,7.56033835 C12.9962406,7.27067669 12.9793233,6.98082707 12.9665414,6.6612782 L12.9475564,5.97462406 C12.9390977,5.73214286 13.1216165,5.57744361 13.3082707,5.575 C13.5268797,5.56992481 13.6327068,5.71484962 13.6413534,5.93458647 L13.6669173,6.6612782 C13.6793233,6.98082707 13.6838346,7.27067669 13.6605263,7.56033835" id="Fill-33" fill="#FFFFFF"></path>
                            <path d="M16.8302632,7.56033835 C16.7370301,7.33045113 16.6904135,7.02349624 16.6671053,6.70620301 L16.6225564,6.21654135 C16.5778195,5.63966165 16.3360902,5.24511278 15.381391,5.24511278 C15.2157895,5.24511278 14.9759398,5.27011278 14.7808271,5.31503759 L14.8146617,5.75714286 C15.0078947,5.63740602 15.2071429,5.55225564 15.4533835,5.55225564 C15.7080827,5.55225564 15.9285714,5.65733083 15.95,6.03684211 C15.7039474,6.06428571 15.4723684,6.10695489 15.2137218,6.22406015 C14.9231203,6.35432331 14.6236842,6.58890977 14.6513158,6.98834586 C14.6832707,7.4306391 15.0163534,7.62274436 15.4364662,7.62274436 C15.7524436,7.62274436 15.9733083,7.45789474 16.0941729,7.33552632 C16.1152256,7.41541353 16.1471805,7.49793233 16.181203,7.56033835 L16.8302632,7.56033835 Z M15.6994361,7.24304511 C15.4789474,7.25319549 15.2879699,7.13590226 15.281391,6.85357143 C15.2731203,6.59906015 15.4471805,6.37387218 15.968985,6.28909774 L15.9984962,6.70620301 C16.0092105,6.84830827 16.0135338,6.95093985 16.0327068,7.08853383 C15.956391,7.17819549 15.8332707,7.23815789 15.6994361,7.24304511 L15.6994361,7.24304511 Z" id="Fill-34" fill="#FFFFFF"></path>
                            <path d="M11.5471805,5.23026316 C11.3731203,5.11015038 11.1652256,5.05526316 10.9445489,5.05526316 C10.4394737,5.05526316 9.76278195,5.41503759 9.78176692,6.35169173 C9.79887218,7.29567669 10.5203008,7.58270677 11.0274436,7.58270677 C11.4729323,7.58270677 11.7445489,7.42537594 11.9648496,7.1906015 L11.8080827,6.99360902 C11.6892857,7.08571429 11.5046992,7.22575188 11.2033835,7.22067669 C10.8828947,7.21315789 10.6729323,6.97593985 10.5667293,6.64398496 L11.9714286,6.11691729 C11.9268797,5.65469925 11.7697368,5.38515038 11.5471805,5.23026316 Z M11.0612782,6.13665414 L10.5031955,6.35169173 C10.4883459,6.2518797 10.4798872,6.14680451 10.4798872,6.04172932 C10.4776316,5.46259398 10.7896617,5.37518797 10.8913534,5.36503759 C11.0633459,5.35 11.2013158,5.44492481 11.256391,5.64492481 C11.3178571,5.87218045 11.3031955,6.04924812 11.0612782,6.13665414 L11.0612782,6.13665414 Z" id="Fill-35" fill="#FFFFFF"></path>
                        </g>
                    </g>
                </g>
            </g>
        </g>
    </g>
</svg>