<?xml version="1.0" encoding="UTF-8" standalone="no"?>
<svg width="16px" height="25px" viewBox="0 0 16 25" version="1.1" xmlns="http://www.w3.org/2000/svg" xmlns:xlink="http://www.w3.org/1999/xlink">
    <!-- Generator: Sketch 42 (36781) - http://www.bohemiancoding.com/sketch -->
    <title>juventus_crest</title>
    <desc>Created with Sketch.</desc>
    <defs></defs>
    <g id="Page-1" stroke="none" stroke-width="1" fill="none" fill-rule="evenodd">
        <g id="standings" transform="translate(-42.000000, -522.000000)">
            <g id="Group" transform="translate(15.000000, 478.000000)">
                <g id="row2" transform="translate(0.000000, 44.000000)">
                    <g id="juventus_crest" transform="translate(27.000000, 0.000000)">
                        <path d="M7.68050847,0.105649718 C11.8805085,0.105649718 15.2864407,5.66370056 15.2864407,12.5172316 C15.2864407,19.3707627 11.8805085,24.9288136 7.68050847,24.9288136 C3.48064972,24.9288136 0.0745762712,19.3707627 0.0745762712,12.5172316 C0.0745762712,5.66370056 3.48064972,0.105649718 7.68050847,0.105649718" id="Fill-2" fill="#1A1918"></path>
                        <path d="M7.68050847,1.06172316 C11.6281073,1.06172316 14.8295198,6.12725989 14.8295198,12.3737288 C14.8295198,18.6200565 11.6281073,23.6855932 7.68050847,23.6855932 C3.7329096,23.6855932 0.531638418,18.6200565 0.531638418,12.3737288 C0.531638418,6.12725989 3.7329096,1.06172316 7.68050847,1.06172316" id="Fill-3" fill="#FFFFFF"></path>
                        <path d="M7.68050847,1.41694915 C8.12231638,1.41694915 8.55409605,1.48559322 8.97245763,1.61511299 L8.97245763,5.5990113 C8.5309322,5.56624294 8.08050847,5.54929379 7.6230226,5.54929379 C7.20508475,5.54929379 6.79322034,5.56370056 6.38855932,5.59096045 L6.38855932,1.61511299 C6.8069209,1.48559322 7.23855932,1.41694915 7.68050847,1.41694915 Z M10.8586158,2.69180791 C11.9168079,3.59717514 12.8088983,4.93898305 13.4425141,6.56822034 L13.4425141,6.57415254 C12.6837571,6.27740113 11.8492938,6.03700565 10.9583333,5.86384181 C10.9283898,5.38022599 10.8951977,4.90536723 10.8586158,4.43983051 L10.8586158,2.69180791 Z M1.91850282,6.5230226 C2.52768362,4.9730226 3.37175141,3.68658192 4.36991525,2.79237288 L4.36991525,4.44096045 C4.33333333,4.90607345 4.30014124,5.38064972 4.27019774,5.86384181 C3.4309322,6.0269774 2.64138418,6.24957627 1.91850282,6.5230226 L1.91850282,6.5230226 Z" id="Fill-4" fill="#1A1918"></path>
                        <path d="M4.1529661,10.7872881 C3.33079096,11.1862994 2.55861582,11.7210452 1.85225989,12.3701977 L1.85225989,17.1596045 C2.46878531,18.7877119 3.36355932,20.1362994 4.43615819,21.0528249 L4.43615819,18.9436441 C4.25155367,16.7049435 4.14915254,14.2379944 4.14915254,11.645904 C4.14915254,11.3580508 4.15042373,11.0717514 4.1529661,10.7872881 Z M9.0299435,10.079096 C8.58827684,10.0022599 8.13799435,9.96186441 7.68050847,9.96186441 C7.26257062,9.96186441 6.85070621,9.99590395 6.44590395,10.0601695 L6.44590395,14.6258475 C6.83898305,14.4306497 7.25282486,14.3259887 7.68050847,14.3259887 C8.14985876,14.3259887 8.6029661,14.4519774 9.0299435,14.6855932 L9.0299435,10.079096 Z M13.5087571,12.3701977 C12.8022599,11.720904 12.030226,11.1864407 11.2080508,10.7872881 C11.210452,11.0717514 11.2118644,11.3580508 11.2118644,11.645904 C11.2118644,14.2384181 11.1094633,16.705791 10.9247175,18.9446328 L10.9247175,21.1487288 C11.9830508,20.2851695 12.8751412,19.005226 13.5087571,17.4512712 L13.5087571,12.3701977 L13.5087571,12.3701977 Z" id="Fill-5" fill="#1A1918"></path>
                        <path d="M7.58587571,9.23785311 C10.0741525,9.23785311 12.4653955,9.79957627 14.4069209,10.7590395 C14.4338983,11.1385593 14.4483051,11.5240113 14.4483051,11.914548 C14.4483051,12.0596045 14.4457627,12.2038136 14.4419492,12.3474576 C12.4939266,10.6788136 10.0918079,9.70112994 7.58587571,9.70112994 C5.07980226,9.70112994 2.82683616,10.6180791 0.915112994,12.1915254 C0.913559322,12.099435 0.912711864,12.0072034 0.912711864,11.914548 C0.912711864,11.4913842 0.929519774,11.0741525 0.961158192,10.6641243 C2.86384181,9.76271186 5.09745763,9.23785311 7.58587571,9.23785311" id="Fill-6" fill="#F5B827"></path>
                        <path d="M9.09731638,17.4515537 L6.26355932,17.4515537 C5.92951977,17.4515537 5.65635593,17.6987288 5.65635593,18.0009887 L5.65635593,18.9454802 C5.65635593,20.3060734 6.13771186,21.0838983 7.68050847,22.3673729 C9.22330508,21.0838983 9.70466102,20.3060734 9.70466102,18.9454802 L9.70466102,18.0009887 C9.70466102,17.6987288 9.43135593,17.4515537 9.09731638,17.4515537" id="Fill-7" fill="#1A1918"></path>
                        <path d="M6.74081921,17.7761299 C6.74081921,17.7761299 6.84745763,17.9443503 6.81920904,17.9631356 C6.77641243,17.9912429 6.63615819,17.9028249 6.63615819,17.9028249 C6.63615819,17.9028249 6.72853107,18.1026836 6.78149718,18.1817797 C6.8029661,18.2129944 6.85183616,18.2357345 6.86666667,18.2762712 C6.92627119,18.4351695 6.73446328,18.679661 6.91497175,18.7898305 C6.97429379,18.8266949 7.05042373,18.8062147 7.11822034,18.7723164 C7.11822034,18.7723164 7.13940678,18.7601695 7.15183616,18.7666667 C7.18488701,18.7833333 7.14717514,18.8648305 7.14237288,18.8772599 C7.06765537,19.0497175 7.00310734,18.9591808 6.9200565,18.8862994 C6.75169492,18.7382768 6.73926554,18.9477401 6.68672316,18.9666667 C6.49618644,19.0340395 6.51737288,18.9559322 6.4549435,18.9837571 C6.41553672,19.0001412 6.40932203,19.0805085 6.39774011,19.1193503 C6.37429379,19.1977401 6.31892655,19.3987288 6.49265537,19.3382768 C6.5940678,19.3031073 6.62485876,19.0498588 6.72330508,19.1783898 C6.84166667,19.3331921 6.68177966,19.4903955 6.84279661,19.6740113 C6.88686441,19.7242938 6.93813559,19.7474576 6.98968927,19.6946328 C7.0079096,19.6759887 7.02725989,19.6491525 7.03460452,19.6241525 C7.04279661,19.5950565 7.04632768,19.5471751 7.0319209,19.504096 C6.99887006,19.4086158 6.91737288,19.4042373 6.94590395,19.2721751 C6.98135593,19.2641243 6.98615819,19.2620056 7.02175141,19.2819209 C7.08305085,19.3158192 7.17387006,19.3364407 7.22358757,19.3853107 C7.30437853,19.4638418 7.36963277,19.5535311 7.4710452,19.609322 C7.50141243,19.675 7.43107345,19.7587571 7.40805085,19.7951977 C7.3680791,19.8590395 7.31341808,19.9426554 7.29830508,20.0206215 C7.26864407,20.1665254 7.40861582,20.3163842 7.24858757,20.3673729 C7.06313559,20.4258475 6.75946328,20.3792373 6.74039548,20.5803672 C6.73644068,20.6177966 6.7279661,20.679096 6.75720339,20.7152542 C6.78079096,20.7436441 6.84576271,20.7676554 6.88658192,20.7679379 C7.04265537,20.7665254 6.90381356,20.5985876 7.0289548,20.5594633 C7.09011299,20.5408192 7.16158192,20.5819209 7.21087571,20.5860169 C7.26525424,20.590113 7.33559322,20.5865819 7.38276836,20.584887 C7.56963277,20.5788136 7.59943503,20.5035311 7.6920904,20.4461864 C7.81285311,20.3707627 7.92062147,20.5792373 7.96355932,20.6576271 C7.99731638,20.7217514 8.08587571,20.7507062 8.11186441,20.8213277 C8.14025424,20.8984463 8.14265537,21.0166667 8.13361582,21.0816384 C8.12542373,21.1371469 8.06836158,21.129096 8.04548023,21.1713277 C8.00819209,21.2398305 7.99449153,21.5293785 8.1079096,21.5679379 C8.19788136,21.5977401 8.35282486,21.4932203 8.32146893,21.4103107 C8.31228814,21.3844633 8.26864407,21.364548 8.26327684,21.334887 C8.22528249,21.1394068 8.55677966,20.9740113 8.56539548,20.9274011 C8.57980226,20.8531073 8.45508475,20.8642655 8.48248588,20.7064972 C8.50127119,20.5913842 8.61963277,20.5138418 8.67372881,20.4211864 C8.70282486,20.3717514 8.69166667,20.2786723 8.72782486,20.2340395 C8.75805085,20.1970339 8.80988701,20.1838983 8.8329096,20.1416667 C8.95819209,19.909322 8.81313559,19.5471751 8.72076271,19.2892655 C8.69420904,19.2144068 8.55084746,18.9132768 8.64491525,18.8775424 C8.66864407,18.8682203 8.68375706,18.8795198 8.69675141,18.880226 C8.75112994,18.9377119 8.71581921,19.0258475 8.74392655,19.090113 C8.78220339,19.1766949 8.89420904,19.2162429 8.97288136,19.2515537 C8.96454802,19.2583333 8.98968927,19.2542373 8.99053672,19.2545198 C8.96793785,19.2045198 8.94844633,19.1666667 8.94745763,19.1069209 C8.94533898,18.9425141 8.92132768,18.8128531 8.81596045,18.7394068 C8.76299435,18.7025424 8.67019774,18.6738701 8.5940678,18.7142655 C8.28163842,18.8778249 8.58940678,19.3874294 8.66920904,19.6591808 C8.70480226,19.7786723 8.62118644,19.8491525 8.52274011,19.8048023 C8.44265537,19.7686441 8.4009887,19.5779661 8.37627119,19.4857345 C8.27824859,19.1168079 8.14152542,18.4522599 7.97062147,18.2590395 C7.81384181,18.0812147 7.39844633,17.9967514 7.11991525,17.9460452 C7.07514124,17.9377119 7.00367232,17.9285311 6.95889831,17.9105932 C6.92259887,17.8957627 6.74081921,17.7761299 6.74081921,17.7761299" id="Fill-8" fill="#FFFFFF"></path>
                        <path d="M13.0672316,9.16440678 L13.0676554,9.16412429 L13.0675141,9.16398305 L13.0672316,9.16440678 Z M13.0666667,7.73968927 L13.5586158,7.90451977 L13.5586158,7.86186441 C13.5586158,7.76073446 13.5542373,7.67316384 13.545339,7.59929379 C13.5365819,7.52669492 13.5237288,7.46765537 13.5067797,7.42245763 C13.4898305,7.37754237 13.4638418,7.33262712 13.4289548,7.28785311 C13.3935028,7.24237288 13.3483051,7.19675141 13.2936441,7.15127119 L13.2937853,7.15112994 C13.215678,7.08615819 13.1251412,7.03079096 13.0224576,6.98531073 C13.0016949,6.97612994 12.9812147,6.96765537 12.9608757,6.95974576 C12.940113,6.95183616 12.9186441,6.9440678 12.8967514,6.93672316 L12.895904,6.93644068 L12.8954802,6.93629944 C12.794209,6.90225989 12.7039548,6.88474576 12.6252825,6.88319209 C12.6105932,6.88305085 12.5957627,6.88333333 12.580791,6.88432203 C12.5670904,6.88516949 12.5531073,6.88672316 12.5394068,6.88884181 L12.5375706,6.88912429 L12.5375706,6.88898305 C12.4911017,6.89646893 12.4514124,6.91045198 12.4183616,6.93064972 C12.3864407,6.95028249 12.3605932,6.97627119 12.3411017,7.00819209 L12.3411017,7.00847458 C12.3207627,7.04152542 12.305226,7.08968927 12.2944915,7.15268362 C12.2833333,7.21864407 12.2776836,7.3 12.2776836,7.39646893 C12.2776836,7.46327684 12.2816384,7.52528249 12.289548,7.58206215 L12.289548,7.58220339 C12.2973164,7.63841808 12.3090395,7.69011299 12.3247175,7.73742938 L12.3247175,7.73757062 C12.3471751,7.80564972 12.3740113,7.86581921 12.4048023,7.91765537 C12.4105932,7.92754237 12.4168079,7.93742938 12.4230226,7.94675141 L12.4230226,7.94689266 C12.4285311,7.95536723 12.4350282,7.96454802 12.4420904,7.9740113 L12.4090395,8 L12.4422316,7.97429379 L12.4423729,7.97429379 C12.4665254,8.00663842 12.5038136,8.0509887 12.5543785,8.10762712 C12.6053672,8.16483051 12.669209,8.23389831 12.7457627,8.31468927 C12.8238701,8.39646893 12.8870056,8.46483051 12.934887,8.51949153 L12.9347458,8.51963277 C12.9844633,8.57641243 13.019774,8.62062147 13.0405367,8.65225989 L13.0405367,8.65240113 C13.059322,8.68163842 13.0738701,8.71920904 13.0841808,8.76497175 C13.0858757,8.77231638 13.0877119,8.78135593 13.089548,8.79166667 L13.0896893,8.79166667 C13.0995763,8.84646893 13.104661,8.91327684 13.104661,8.99166667 L13.1049435,8.99166667 L13.1049435,8.99392655 C13.1049435,9.0480226 13.0988701,9.09194915 13.0870056,9.12542373 C13.084322,9.1329096 13.0813559,9.13983051 13.0782486,9.1460452 C13.0752825,9.15211864 13.0714689,9.15819209 13.0675141,9.16398305 L13.0676554,9.16412429 L13.0670904,9.16497175 L13.0330508,9.14025424 L13.0666667,9.16525424 C13.050565,9.18827684 13.029661,9.2029661 13.0042373,9.20889831 C12.9814972,9.21440678 12.9560734,9.21228814 12.9283898,9.20310734 L12.9282486,9.20310734 C12.8915254,9.19081921 12.8622881,9.17161017 12.8405367,9.14618644 L12.8405367,9.1460452 C12.8362994,9.14096045 12.8320621,9.13559322 12.8285311,9.13008475 C12.8248588,9.12471751 12.8213277,9.11878531 12.8183616,9.11271186 L12.8177966,9.11172316 L12.8175141,9.11101695 C12.7984463,9.07161017 12.7887006,9.00028249 12.7887006,8.89689266 L12.7887006,8.61370056 L12.2968927,8.44887006 L12.2968927,8.55861582 C12.2968927,8.6539548 12.3012712,8.73968927 12.3101695,8.81567797 C12.3187853,8.89067797 12.3319209,8.95649718 12.3491525,9.01285311 L12.3490113,9.01285311 C12.3658192,9.0670904 12.3922316,9.12062147 12.4282486,9.17330508 C12.4649718,9.2269774 12.5114407,9.27951977 12.5675141,9.3309322 L12.5677966,9.3309322 C12.6488701,9.40522599 12.7420904,9.46680791 12.8473164,9.51539548 C12.8666667,9.52429379 12.8877119,9.53333333 12.9105932,9.54237288 C12.9326271,9.55112994 12.954661,9.55918079 12.9764124,9.56652542 L12.9772599,9.56680791 L12.9775424,9.56694915 C13.0504237,9.59124294 13.1186441,9.60706215 13.1817797,9.61398305 C13.2437853,9.62090395 13.3016949,9.61935028 13.3549435,9.60974576 C13.4281073,9.59632768 13.4834746,9.57132768 13.520904,9.53502825 L13.5210452,9.53502825 C13.5276836,9.52853107 13.5341808,9.52118644 13.5399718,9.51355932 L13.5399718,9.51341808 C13.545904,9.50564972 13.5511299,9.49759887 13.5553672,9.48968927 L13.5555085,9.48912429 L13.5560734,9.48827684 L13.5562147,9.48827684 C13.5673729,9.46723164 13.5771186,9.44011299 13.5850282,9.40720339 C13.5891243,9.38997175 13.5927966,9.37132768 13.595904,9.35169492 C13.6055085,9.28954802 13.610452,9.21398305 13.6105932,9.12514124 L13.6103107,9.12514124 L13.6103107,9.12259887 C13.6103107,8.99830508 13.6016949,8.88870056 13.584322,8.79378531 C13.5672316,8.70042373 13.5418079,8.6210452 13.5079096,8.55607345 C13.4734463,8.48983051 13.4138418,8.40706215 13.3292373,8.30762712 C13.2435028,8.20706215 13.1320621,8.08954802 12.994774,7.95522599 C12.9457627,7.9069209 12.905791,7.86412429 12.875565,7.82683616 C12.8440678,7.78785311 12.8220339,7.75367232 12.809887,7.72443503 C12.7997175,7.70028249 12.7916667,7.6730226 12.7860169,7.64293785 L12.7860169,7.64237288 L12.7831921,7.6259887 L12.7830508,7.62542373 C12.7774011,7.58954802 12.774435,7.54887006 12.774435,7.50381356 L12.774435,7.50141243 C12.774435,7.44844633 12.7800847,7.4059322 12.7912429,7.37443503 L12.7913842,7.37443503 C12.7939266,7.3670904 12.7967514,7.36059322 12.7995763,7.35508475 C12.8028249,7.34816384 12.8066384,7.3420904 12.8103107,7.33686441 L12.8100282,7.33728814 L12.8103107,7.33686441 L12.8105932,7.33644068 L12.8110169,7.33573446 C12.8265537,7.31398305 12.8463277,7.3 12.8701977,7.2940678 C12.8919492,7.28870056 12.9159605,7.29025424 12.9418079,7.29915254 C12.9639831,7.30635593 12.9831921,7.31694915 12.9995763,7.33036723 C13.0165254,7.34449153 13.0300847,7.36158192 13.0399718,7.38163842 C13.0478814,7.39788136 13.054096,7.41949153 13.0583333,7.4460452 L13.0586158,7.44689266 L13.0605932,7.46073446 L13.0605932,7.46129944 C13.0644068,7.49180791 13.0663842,7.53036723 13.0665254,7.57627119 L13.0666667,7.57627119 L13.0666667,7.73968927 Z M12.0155367,8.40480226 L12.0155367,6.71087571 L11.4662429,6.56977401 L11.4662429,8.41920904 C11.4662429,8.48361582 11.4648305,8.53700565 11.4618644,8.57881356 C11.4588983,8.62288136 11.4536723,8.65480226 11.4467514,8.67471751 L11.4463277,8.67556497 C11.4316384,8.71497175 11.404096,8.73601695 11.3635593,8.73841808 L11.3634181,8.73841808 C11.3567797,8.73884181 11.3497175,8.73855932 11.3426554,8.73785311 C11.3355932,8.73700565 11.3286723,8.73573446 11.3218927,8.73403955 L11.3211864,8.73389831 L11.3200565,8.73361582 C11.295904,8.72740113 11.2752825,8.71624294 11.2584746,8.70056497 L11.2583333,8.70056497 C11.2416667,8.68488701 11.2292373,8.66497175 11.2213277,8.64096045 L11.2211864,8.64096045 C11.2141243,8.62062147 11.2088983,8.58983051 11.205791,8.5490113 C11.2028249,8.51059322 11.2014124,8.46271186 11.2014124,8.40579096 L11.2014124,6.50155367 L10.6526836,6.36059322 L10.6526836,7.83460452 L10.6525424,7.83460452 C10.6525424,7.9799435 10.6536723,8.10070621 10.6560734,8.1970339 C10.6584746,8.29124294 10.6621469,8.36158192 10.6672316,8.40805085 L10.6672316,8.40819209 C10.6717514,8.45141243 10.6816384,8.49519774 10.6968927,8.53954802 C10.7124294,8.58446328 10.7331921,8.62980226 10.7590395,8.67542373 C10.784887,8.72019774 10.8175141,8.76341808 10.8569209,8.80508475 C10.8966102,8.84689266 10.9432203,8.88700565 10.9967514,8.92542373 L10.9967514,8.92556497 C11.0728814,8.98036723 11.1580508,9.025 11.2521186,9.05918079 C11.2704802,9.06581921 11.2892655,9.0720339 11.3081921,9.0779661 C11.3271186,9.08389831 11.3466102,9.08940678 11.3665254,9.09449153 L11.3675141,9.09477401 C11.4566384,9.11765537 11.5374294,9.1279661 11.6088983,9.12584746 C11.6227401,9.12556497 11.6364407,9.12457627 11.6495763,9.12330508 C11.6618644,9.1220339 11.6748588,9.1200565 11.6881356,9.11779661 L11.6915254,9.11723164 C11.735452,9.10903955 11.7748588,9.0950565 11.8100282,9.07542373 C11.8446328,9.05621469 11.8752825,9.03121469 11.9015537,9.00084746 L11.9014124,9.00070621 C11.9286723,8.96935028 11.9502825,8.93714689 11.9662429,8.90466102 C11.9820621,8.87245763 11.9927966,8.83940678 11.9981638,8.80564972 C12.0028249,8.7759887 12.0066384,8.73601695 12.009322,8.68601695 L12.0110169,8.65451977 C12.0139831,8.58799435 12.015678,8.50762712 12.015678,8.41370056 L12.0155367,8.41370056 L12.0155367,8.40480226 Z M10.4187853,6.78658192 L10.4187853,6.35635593 L9.09223164,6.16384181 L9.09223164,6.59420904 L9.43813559,6.64449153 L9.47415254,6.64971751 L9.47415254,8.71694915 L10.0357345,8.79844633 L10.0357345,6.73121469 L10.0831921,6.73799435 L10.4187853,6.78658192 Z M8.8579096,8.67627119 L8.8579096,6.17768362 L8.39689266,6.16101695 L8.39689266,7.28050847 L8.31553672,7.29364407 L7.95903955,6.14533898 L7.48700565,6.12824859 L7.48700565,8.6269774 L7.9480226,8.64350282 L7.9480226,7.51313559 L8.02966102,7.50112994 L8.36031073,8.65833333 L8.8579096,8.67627119 Z M7.17033898,6.13573446 L6.16963277,6.2079096 L6.16963277,8.70621469 L7.21355932,8.63107345 L7.21355932,8.2 L6.78107345,8.23121469 L6.73658192,8.23446328 L6.73658192,7.58008475 L6.77556497,7.57725989 L7.14251412,7.55070621 L7.14251412,7.14491525 L6.78107345,7.17090395 L6.73658192,7.17415254 L6.73658192,6.59816384 L6.77556497,6.59533898 L7.17033898,6.56680791 L7.17033898,6.13573446 Z M5.65932203,8.74519774 L5.97457627,6.19067797 L5.38446328,6.29816384 L5.34322034,6.7539548 L5.34322034,6.75409605 C5.31723164,7.03333333 5.29180791,7.34322034 5.26694915,7.68375706 L5.25254237,7.88488701 L5.23855932,8.09237288 L5.23827684,8.09646893 L5.15508475,8.09689266 C5.13079096,7.74858757 5.09533898,7.34576271 5.04858757,6.88926554 C5.03997175,6.8049435 5.03022599,6.71341808 5.01977401,6.61581921 C5.01129944,6.53742938 5.00240113,6.45564972 4.99279661,6.36935028 L4.39957627,6.47711864 L4.75748588,8.90932203 L5.65932203,8.74519774 Z M3.83757062,9.08333333 L3.83728814,9.08347458 L3.83728814,9.08361582 L3.83757062,9.08333333 Z M4.17584746,8.16567797 L4.17584746,6.49548023 L3.63248588,6.65621469 L3.63248588,8.52824859 C3.63248588,8.59251412 3.6309322,8.64661017 3.62810734,8.69011299 C3.62514124,8.73516949 3.62033898,8.76878531 3.61398305,8.79067797 L3.61384181,8.79110169 C3.60240113,8.82824859 3.5809322,8.85677966 3.54929379,8.87612994 L3.54943503,8.87627119 C3.54293785,8.88022599 3.53672316,8.88361582 3.53050847,8.88629944 C3.52415254,8.88898305 3.51723164,8.89166667 3.51031073,8.89378531 L3.50974576,8.89392655 L3.50875706,8.89420904 C3.48248588,8.9019774 3.45932203,8.90183616 3.43926554,8.8940678 C3.41638418,8.88502825 3.39971751,8.86765537 3.38968927,8.84194915 L3.38983051,8.84194915 C3.38234463,8.82358757 3.37683616,8.79463277 3.37372881,8.75564972 C3.37076271,8.71892655 3.36920904,8.67175141 3.36920904,8.61454802 L3.36920904,6.73403955 L2.82655367,6.89449153 L2.82655367,8.39110169 L2.82627119,8.39110169 C2.82627119,8.53644068 2.82754237,8.65663842 2.8299435,8.75155367 C2.83220339,8.84420904 2.83587571,8.91228814 2.84096045,8.95607345 L2.84096045,8.95649718 C2.84533898,8.99632768 2.85480226,9.03361582 2.8690678,9.06779661 C2.88347458,9.1019774 2.90310734,9.13403955 2.92782486,9.16412429 C2.95141243,9.19237288 2.98135593,9.21581921 3.01737288,9.23418079 C3.05480226,9.25324859 3.09915254,9.26737288 3.15,9.27584746 C3.22358757,9.28855932 3.3059322,9.28629944 3.39689266,9.26935028 C3.41398305,9.26624294 3.43262712,9.26214689 3.45211864,9.25748588 C3.4700565,9.25310734 3.48926554,9.24788136 3.50946328,9.24194915 L3.50974576,9.24194915 L3.51285311,9.24110169 L3.51285311,9.24096045 C3.60254237,9.21440678 3.68418079,9.17951977 3.75677966,9.13672316 L3.7569209,9.13672316 C3.7710452,9.12838983 3.78502825,9.11963277 3.79830508,9.11087571 C3.81172316,9.1019774 3.82485876,9.09279661 3.83728814,9.08361582 L3.83728814,9.08347458 L3.83799435,9.0829096 L3.86257062,9.11751412 L3.83827684,9.08276836 C3.88375706,9.04887006 3.92485876,9.01144068 3.96158192,8.97033898 C3.99830508,8.92923729 4.03064972,8.88474576 4.05847458,8.83686441 C4.08629944,8.78898305 4.10861582,8.74293785 4.12556497,8.69887006 C4.14194915,8.65607345 4.1529661,8.61553672 4.15847458,8.57711864 L4.15861582,8.57711864 C4.16327684,8.54392655 4.1670904,8.50169492 4.16977401,8.45042373 L4.17132768,8.41822034 C4.17429379,8.35 4.1759887,8.26864407 4.17612994,8.17457627 L4.17584746,8.17457627 L4.17584746,8.16567797 Z M2.51228814,8.65635593 L2.51228814,6.99039548 L1.98276836,7.18912429 L1.98276836,8.97740113 L1.98305085,8.97740113 C1.98305085,9.02231638 1.98248588,9.06355932 1.98149718,9.10183616 C1.98064972,9.13728814 1.97909605,9.16412429 1.97711864,9.18206215 C1.97471751,9.20437853 1.9690678,9.2259887 1.96002825,9.24689266 C1.95155367,9.26694915 1.93968927,9.28672316 1.92471751,9.30621469 L1.92471751,9.30649718 C1.90960452,9.3259887 1.89180791,9.34322034 1.87118644,9.35819209 C1.85084746,9.37274011 1.82824859,9.38488701 1.80310734,9.39420904 C1.79110169,9.39872881 1.77344633,9.40451977 1.75056497,9.41144068 L1.75056497,9.76949153 L2.00155367,9.67528249 C2.09675141,9.63940678 2.175,9.60437853 2.23531073,9.57033898 L2.23531073,9.57019774 C2.24745763,9.56341808 2.25847458,9.55677966 2.2680791,9.55084746 C2.2779661,9.54463277 2.28714689,9.53855932 2.29533898,9.5329096 L2.29533898,9.53276836 L2.29562147,9.53248588 L2.29675141,9.53149718 C2.34110169,9.49985876 2.37909605,9.46172316 2.41016949,9.41765537 C2.41581921,9.40974576 2.42175141,9.40084746 2.42754237,9.39110169 L2.42754237,9.39096045 C2.43375706,9.3809322 2.43912429,9.37161017 2.44364407,9.36313559 L2.44392655,9.36257062 C2.46935028,9.31426554 2.48714689,9.26581921 2.49675141,9.2170904 L2.49661017,9.2170904 C2.49872881,9.20663842 2.50042373,9.19675141 2.50169492,9.18771186 C2.50282486,9.17838983 2.5039548,9.16892655 2.50466102,9.15946328 L2.50466102,9.15875706 L2.5049435,9.15508475 L2.5049435,9.1549435 C2.50748588,9.11680791 2.50932203,9.05663842 2.51059322,8.975 C2.51172316,8.89971751 2.51228814,8.79322034 2.51228814,8.65635593 L2.51228814,8.65635593 Z" id="Fill-9" fill="#1A1918"></path>
                        <path d="M8.94110169,16.7391243 C8.9460452,16.7158192 9.02189266,16.590113 9.11087571,16.4341808 C9.33855932,16.035452 9.65282486,15.4387006 9.08997175,15.8461864 C8.94166667,15.9535311 8.84759887,16.1189266 8.67274011,16.0642655 L8.67259887,16.0641243 C8.49816384,16.009322 8.39646893,15.8204802 8.45480226,15.6470339 C8.60847458,15.190678 8.07641243,15.2502825 8.06892655,15.6066384 C8.05960452,16.0531073 7.30141243,16.0531073 7.2920904,15.6066384 C7.28446328,15.2502825 6.75254237,15.190678 6.90607345,15.6470339 C6.96440678,15.8204802 6.86285311,16.009322 6.68841808,16.0641243 L6.68827684,16.0642655 C6.51341808,16.1189266 6.41935028,15.9535311 6.2710452,15.8461864 C5.48785311,15.2792373 6.40254237,16.6562147 6.41977401,16.7391243 C7.10169492,16.535452 7.89336158,16.4669492 8.94110169,16.7391243" id="Fill-10" fill="#1A1918"></path>
                    </g>
                </g>
            </g>
        </g>
    </g>
</svg>