<?xml version="1.0" encoding="UTF-8" standalone="no"?>
<svg width="34px" height="16px" viewBox="0 0 34 16" version="1.1" xmlns="http://www.w3.org/2000/svg" xmlns:xlink="http://www.w3.org/1999/xlink">
    <!-- Generator: Sketch 42 (36781) - http://www.bohemiancoding.com/sketch -->
    <title>zenit</title>
    <desc>Created with Sketch.</desc>
    <defs>
        <polygon id="path-1" points="33.6520651 2.18663881e-05 33.6520651 15.9846775 0 15.9846775 0 2.18663881e-05 33.6520651 2.18663881e-05"></polygon>
    </defs>
    <g id="Page-1" stroke="none" stroke-width="1" fill="none" fill-rule="evenodd">
        <g id="standings" transform="translate(-33.000000, -617.000000)">
            <g id="Group" transform="translate(15.000000, 478.000000)">
                <g id="row4" transform="translate(0.000000, 136.000000)">
                    <g id="zenit" transform="translate(18.000000, 3.000000)">
                        <mask id="mask-2" fill="white">
                            <use xlink:href="#path-1"></use>
                        </mask>
                        <g id="Clip-2"></g>
                        <path d="M3.43669055,13.8182984 C2.60515961,14.9824417 1.46988925,14.7556274 1.85680782,13.0907414 C2.54282736,10.1388195 5.34918567,8.30950358 5.34918567,8.30950358 C5.34918567,8.30950358 5.05529642,11.5522919 3.43669055,13.8182984 L3.43669055,13.8182984 Z M11.2945668,2.6863114 C12.1156743,2.88383583 10.7020977,4.93141889 9.88093811,5.10814853 C9.88093811,5.10814853 10.3677655,2.46340586 11.2945668,2.6863114 L11.2945668,2.6863114 Z M7.36560261,13.2778423 L33.6520912,1.77165342 L22.8422932,1.77165342 L21.251987,3.84003127 L21.7898893,1.76128208 L20.6076091,1.76128208 C19.5370163,4.22465668 18.9289642,5.29264365 18.812013,4.96519088 C18.7393094,4.76172508 19.6097199,1.78202476 19.6097199,1.78202476 L18.4456287,1.78202476 L18.0922215,3.05014202 L16.3252378,5.33678697 L17.3646645,1.80281954 L16.0965993,1.80281954 L15.5560912,3.88162085 L14.4335375,4.15184886 L15.0987622,1.78202476 L13.6851857,1.78202476 L12.9391792,4.59078046 C12.7651596,4.78705407 12.0120651,5.64980326 10.816443,7.20774463 C9.44440391,8.99552313 9.73542671,6.08519088 9.73542671,6.08519088 C12.18843,5.41996612 14.0892508,1.68727557 11.731101,1.67810293 C9.05983062,1.6677316 8.19713355,5.79416808 8.19713355,5.79416808 L6.99145277,6.37621368 C6.94986319,5.71098893 6.28463844,4.96263713 6.28463844,4.96263713 C7.9892899,4.17264365 10.1512182,0.846571987 8.11400651,0.139809772 C6.07674267,-0.56700456 3.99799349,1.63651336 3.99799349,1.63651336 L3.54061238,3.29957524 C4.74629316,2.13543192 5.91043648,1.01287818 6.65884039,2.01071531 C7.40719218,3.00855244 4.45527036,5.46150358 4.45527036,5.46150358 C5.45310749,6.25149707 5.36998046,7.29087166 5.36998046,7.29087166 C-2.9036873,12.4255166 -0.157993485,18.842142 3.91481433,14.6082397 C7.59429316,10.7833016 7.15770684,7.20774463 7.15770684,7.20774463 L8.11400651,6.79195309 C8.2803127,12.654155 12.6041694,5.83570554 12.6041694,5.83570554 L12.6117264,5.82356221 L11.9597915,8.27833746 L13.425329,7.74820065 L14.0801303,5.16010945 L15.202684,4.87945798 L14.5712834,7.31166645 L15.9042866,6.89071531 L17.6348925,4.64560782 C17.6348925,4.64560782 17.338658,6.15012899 18.2273616,6.19693029 C19.1160651,6.24367948 20.0047166,4.04792704 20.0047166,4.04792704 L19.8384104,5.62786189 L20.9193746,5.17048078 L22.7903322,2.80065668 L23.4555049,2.80065668 L22.9150489,4.50530814 L24.1207818,4.08951661 L24.5780586,2.80065668 L28.4862801,2.80065668 L7.86452117,11.4900638 L7.36560261,13.2778423 Z" id="Fill-1" fill="#43A7DD" mask="url(#mask-2)"></path>
                    </g>
                </g>
            </g>
        </g>
    </g>
</svg>