<?xml version="1.0" encoding="UTF-8" standalone="no"?>
<svg width="25px" height="25px" viewBox="0 0 25 25" version="1.1" xmlns="http://www.w3.org/2000/svg" xmlns:xlink="http://www.w3.org/1999/xlink">
    <!-- Generator: Sketch 42 (36781) - http://www.bohemiancoding.com/sketch -->
    <title>leicester_crest</title>
    <desc>Created with Sketch.</desc>
    <defs>
        <polygon id="path-1" points="24.9528169 12.5218016 24.9528169 24.9964789 0 24.9964789 0 12.5218016 0 0.0471244131 24.9528169 0.0471244131"></polygon>
        <polygon id="path-3" points="24.9528169 12.5218016 24.9528169 24.9964789 0 24.9964789 0 12.5218016 0 0.0471244131 24.9528169 0.0471244131"></polygon>
    </defs>
    <g id="Page-1" stroke="none" stroke-width="1" fill="none" fill-rule="evenodd">
        <g id="standings" transform="translate(-37.000000, -333.000000)">
            <g id="Group" transform="translate(15.000000, 199.000000)">
                <g id="row4" transform="translate(0.000000, 134.000000)">
                    <g id="leicester_crest" transform="translate(22.000000, 0.000000)">
                        <g id="Group-3">
                            <mask id="mask-2" fill="white">
                                <use xlink:href="#path-1"></use>
                            </mask>
                            <g id="Clip-2"></g>
                            <path d="M12.4764671,0.0471244131 C19.3669601,0.0471244131 24.9528169,5.63298122 24.9528169,12.5235329 C24.9528169,19.4140845 19.3669601,25 12.4764671,25 C5.58591549,25 0,19.4140845 0,12.5235329 C0,5.63298122 5.58591549,0.0471244131 12.4764671,0.0471244131" id="Fill-1" fill="#FFFFFF" mask="url(#mask-2)"></path>
                        </g>
                        <path d="M21.0532038,7.17530073 C21.2175734,7.11261757 21.4495452,7.2066423 21.5537066,7.05097913 C21.7694233,7.50903049 22.1963969,8.35658801 22.4100011,8.81463937 C22.234071,8.79600854 22.1584293,8.99763936 22.0039184,9.08963269 C22.0613685,8.86449569 21.8902505,8.48770028 21.7873214,8.28804282 C21.3835274,8.45833206 21.0544948,8.63268409 20.6546912,8.81272405 C20.5201323,8.87146049 20.3748345,8.99171928 20.3253065,9.13461366 C20.2322362,8.95056895 20.0787815,8.62496478 19.9857111,8.43900475 C20.0727959,8.47226165 20.2072374,8.50017887 20.2922683,8.45711322 C20.7396047,8.24770505 21.1088935,8.06133874 21.5562299,7.85390393 C21.4731355,7.64443771 21.2530763,7.28685353 21.0532038,7.17530073 Z M20.6283428,6.48555385 C20.772643,6.37963093 20.8785648,6.31781837 20.8849612,6.11996015 C20.9978663,6.29024939 21.2136417,6.5875881 21.3264294,6.75787734 C21.1811316,6.70947202 21.1185174,6.74104575 21.0096614,6.81347962 C20.6316877,7.06014945 20.2778324,7.32875838 19.9017952,7.57740156 C19.7929392,7.64786207 19.6953503,7.72865369 19.6840246,7.90637205 C19.569183,7.73410945 19.3451333,7.4407755 19.2323457,7.26659758 C19.3725967,7.33328549 19.5008766,7.25359663 19.5998152,7.19091348 C19.9480957,6.9618878 20.2798863,6.72177649 20.6283428,6.48555385 Z M18.4756353,4.92509152 C18.7197543,4.72061674 18.9500243,4.64295928 19.3366244,4.68869477 C19.7650651,4.75619524 20.117864,5.14163861 20.3054719,5.41245305 C20.3925566,5.52597921 20.4485984,5.61977179 20.5772304,5.69812573 C20.4155015,5.77833695 20.2645702,5.84525703 20.1061275,5.92749965 C20.0824198,5.65151964 19.8084901,5.27327323 19.5023437,5.15289836 C19.1604596,5.05933794 18.9321849,5.15510388 18.7070789,5.42388693 C18.5866038,5.57734458 18.5167717,5.66922183 18.5662997,5.94996111 C18.6437019,6.30272798 19.1831697,6.60859857 19.5020503,6.70372606 C19.3690758,6.82642253 19.2341648,6.95765088 19.1041832,7.08934355 C19.0871066,6.95445868 18.9118807,6.85230835 18.8013816,6.77134261 C18.408972,6.52629791 18.0814065,6.06296491 18.0734844,5.7673674 C18.0715478,5.39196495 18.2360935,5.14041977 18.4756353,4.92509152 Z M16.4648807,3.11824956 C16.3877132,3.2905702 16.2913566,3.44507257 16.2161257,3.61733516 C16.3903539,3.68779567 16.7028967,3.86220575 16.880998,3.92094219 C17.19313,4.09541031 17.4985723,3.63283183 17.0679603,3.41140939 C16.9056446,3.32330473 16.643334,3.20670245 16.4648807,3.11824956 Z M13.2706768,1.95652174 C13.8011076,2.05437711 14.8139669,2.22681383 15.3443977,2.32861592 C15.2434052,2.44574055 15.3435761,2.66350648 15.3344217,2.83971579 C15.049401,2.5206121 14.2474464,2.48317633 13.863487,2.3833476 C13.829862,2.53993941 13.7942417,2.69850457 13.7744071,2.8590431 C13.9981633,2.90402407 14.4006663,2.98777573 14.6243639,3.03084138 C14.6955457,3.04651217 14.8270531,3.04030189 14.8962397,3.0246311 C14.7973598,3.14204594 14.6606296,3.39121148 14.4788314,3.34849407 C14.2650511,3.32301453 13.9208785,3.24268723 13.707157,3.20548362 C13.667605,3.37385754 13.6438386,3.54612013 13.6082183,3.71443602 C13.8279255,3.75947502 14.37467,3.86545599 14.5942598,3.90654828 C14.8060448,3.95158729 15.0336741,3.90654828 15.2117753,3.78321337 C15.1464617,3.97312011 14.9842634,4.09616483 14.9981712,4.305573 C14.4617548,4.20580231 13.4609253,4.01833324 12.9266215,3.92239319 C13.0057842,3.84995932 13.0844187,3.80474619 13.1021994,3.69714011 C13.2011968,3.21558257 13.2945019,2.73210971 13.3816453,2.24852077 C13.4053531,2.14283001 13.3379856,2.0446264 13.2706768,1.95652174 Z M11.012869,2.02576341 C11.5239346,2.01943705 12.503697,1.96789757 13.0146452,1.96551793 C12.9215748,2.05716303 13.1126449,2.25142277 13.1135252,2.44771391 C12.9258,2.33471011 12.5051641,2.29384998 12.2748941,2.31050745 C12.2869827,2.75741513 12.3038832,3.28087752 12.3399142,3.72958444 C12.3418508,3.86081279 12.394665,3.86841603 12.4968311,3.96151212 C12.2886844,3.96505256 11.9384088,3.99221526 11.7159436,3.99442078 C11.7756237,3.95762344 11.847451,3.89824857 11.8442822,3.80613915 C11.8373576,3.32022861 11.7870667,2.83153216 11.788123,2.34393846 C11.5626063,2.33720583 11.1305273,2.38317348 10.9574728,2.53860449 C10.960935,2.36047985 11.1227226,2.20359784 11.012869,2.02576341 Z M9.44440411,2.42890896 C9.72543443,2.21752743 10.4532143,2.16622011 10.7797823,2.09570156 C10.7857092,2.2659908 10.7624122,2.4344808 10.77632,2.60477004 C10.5309099,2.50494131 9.99754502,2.5235141 9.76199361,2.64684901 C9.63934726,2.70947413 9.63535685,2.89537611 9.74421282,2.96978334 C9.87290346,3.03240846 9.98322649,2.98545413 10.1178441,2.98545413 C10.355332,2.96978334 10.9139891,2.93472721 11.0941442,3.12979951 C11.2940754,3.34890035 11.2838646,3.69551499 11.0780065,3.93429138 C10.9058322,4.13981087 10.2954172,4.30272904 10.0381533,4.33993265 C9.91738477,4.36146548 9.7265494,4.37725235 9.61968863,4.44382418 C9.53853078,4.2676729 9.45349989,4.11473761 9.37627377,3.93661298 C9.69098783,4.03057967 10.410963,4.03069575 10.6762077,3.79772336 C10.7988541,3.67247312 10.7197501,3.41605259 10.533668,3.40821719 C10.262555,3.38668437 9.73981164,3.50717532 9.46500166,3.39608684 C9.02904963,3.17124004 9.10797755,2.659908 9.44440411,2.42890896 Z M6.54419939,3.71751213 C7.00738008,3.44930948 7.90874272,3.0032724 8.37779165,2.74290514 C8.43125138,2.91911446 8.59673592,2.98690513 8.69966497,3.13566154 C8.28700988,3.11244556 7.63757105,3.54693269 7.27532421,3.70938654 C7.34069647,3.85622763 7.42977645,3.99128662 7.50494869,4.13226568 C7.70288464,4.02657491 8.13326183,3.79122288 8.32914389,3.68355876 C8.39445747,3.65030186 8.45237706,3.60061966 8.49791466,3.54582993 C8.47479376,3.69777855 8.53664508,3.88518957 8.43172084,4.01432848 C8.25361956,4.13180136 7.83298366,4.31468527 7.65089197,4.42629611 C7.73204982,4.57899924 7.81696335,4.73199258 7.90205292,4.88074899 C8.13560912,4.74957868 8.66193214,4.48601923 8.88557101,4.33720477 C9.02412031,4.23737605 9.19289107,4.08861963 9.24036519,3.92616579 C9.30074944,4.11212581 9.20603595,4.39373569 9.35667383,4.47835795 C8.87371715,4.74069857 7.9727066,5.20455392 7.49180381,5.46880985 C7.53927793,5.35528369 7.55752817,5.23194878 7.4982002,5.13014669 C7.26857572,4.7191077 7.03701472,4.30801068 6.80545372,3.89697169 C6.74806227,3.79319624 6.6649679,3.74879567 6.54419939,3.71751213 Z M5.92785747,4.20429327 C6.0050836,4.16320098 6.06986904,4.09935702 6.11939703,4.02883847 C6.2004962,4.18351496 6.24515355,4.35403636 6.3263114,4.50673949 C5.97181064,4.52032084 5.47987554,4.9734388 5.45798699,5.21848351 C5.43603974,5.46358626 5.52330057,5.62197731 5.64976128,5.75860337 C5.77622199,5.89522943 5.86571274,6.02901154 6.14932509,6.04282505 C6.43287876,6.05658052 6.68292473,5.77282316 6.84347995,5.59226085 C6.95233593,5.45528654 7.03208539,5.31494592 7.07762299,5.15051872 C7.20425974,5.2855777 7.33688211,5.41477465 7.46158235,5.55180699 C7.31311571,5.61640547 7.21359025,5.74299062 7.11265642,5.85854818 C6.92856953,6.09732457 6.52630124,6.48526365 6.07931691,6.51236832 C5.62922242,6.51265852 5.33510591,6.32333217 5.12760471,5.91403438 C4.94551303,5.5670715 4.942931,5.29376134 5.09732456,4.99624851 C5.20817574,4.73663577 5.67012409,4.32298498 5.92785747,4.20429327 Z M3.89867656,6.28833407 C4.03570011,6.12953675 4.26608746,5.84270327 4.39542361,5.67786979 C4.39160925,5.81484409 4.44870729,5.91937405 4.55151897,5.99662524 C4.92749751,6.28688307 5.29948565,6.57905623 5.67751808,6.86745678 C5.76659806,6.93843965 5.87832947,6.93391254 5.99358183,6.91940255 C5.86049,7.0763426 5.64013735,7.3589972 5.50323117,7.52058044 C5.49079048,7.39887065 5.44718941,7.291903 5.3521825,7.22074601 C4.98201352,6.93257762 4.61002538,6.64237782 4.2378612,6.35606671 C4.14091777,6.28102104 4.02590014,6.27028365 3.89867656,6.28833407 Z M2.55508287,8.63622453 C2.78693728,8.15675643 3.27570352,7.26601718 3.51148966,6.78654908 C3.65590721,6.90216468 3.76757994,6.88266325 3.93576388,6.94929313 C3.77344818,7.02950435 3.64076713,7.16253194 3.55949192,7.32103906 C3.45450899,7.52261184 3.20100075,8.03168032 3.09994955,8.23522646 C3.24442577,8.30580305 3.43203361,8.37434824 3.57645115,8.44684015 C3.67949756,8.24532541 3.90718552,7.79447101 4.0082954,7.59092487 C4.04197914,7.52638444 4.07137905,7.45395057 4.07542814,7.38349006 C4.16838116,7.51466037 4.29994725,7.69992391 4.29912569,7.8084006 C4.21785048,7.99436063 3.98417691,8.41770409 3.9048969,8.60557943 C4.06322219,8.67615602 4.19003499,8.7702388 4.35428721,8.8251446 C4.45334321,8.61573643 4.7167101,8.10858327 4.8157661,7.89917509 C4.90097304,7.71129975 4.92908194,7.47913991 4.89768682,7.28528645 C5.01047452,7.38714658 5.06534262,7.50583829 5.17613511,7.60967178 C5.21568709,7.64884875 5.2712007,7.69574504 5.32665563,7.69580308 C5.05777258,8.17846338 4.62598701,9.04128541 4.3921374,9.5285889 C4.35064889,9.42289814 4.2616276,9.31929681 4.15875724,9.26827969 C3.73923631,9.06252803 3.31777885,8.86263841 2.8983166,8.6549134 C2.78159718,8.59611892 2.68377351,8.58538153 2.55508287,8.63622453 Z M3.81499537,9.45313695 C3.95747639,9.52557082 4.05747131,9.64397234 4.19795712,9.72035293 C4.24149951,9.74774779 4.29296403,9.73991239 4.34249203,9.73596567 C4.24149951,10.1999371 4.04866894,11.0448828 3.9457399,11.5068809 C3.88834845,11.4031055 3.77749727,11.3205726 3.6666461,11.2971245 C3.18568462,11.1894023 2.70478183,11.0837116 2.22182516,10.9838828 C2.11496439,10.9604347 2.04759692,11.0106973 1.95652174,11.0772691 C2.00006413,10.8736649 2.08092856,10.4934452 2.12846136,10.2918724 C2.20163839,10.3975632 2.25075561,10.4951864 2.37545585,10.5187506 C2.82672399,10.616606 3.28245201,10.7247344 3.73565667,10.8128391 C3.77327213,10.576036 3.91739627,10.114038 3.89961548,9.87131486 C3.89568375,9.74211791 3.88230415,9.56080108 3.81499537,9.45313695 Z M22.1952232,9.48169261 C22.3047834,9.33833392 22.4816524,9.22625875 22.5239624,9.03408845 L22.7050565,9.87317214 C22.6075849,9.7791474 22.4982595,9.81890478 22.4186274,9.91536719 C22.2337189,10.105332 22.0312058,10.2990113 21.8567428,10.4991331 C22.0945828,10.5893272 22.4268429,10.7424946 22.7074625,10.8506811 C22.7699006,10.8739551 22.8316932,10.8364613 22.8836859,10.7624023 L23.0434783,11.5217391 C22.9332139,11.4094318 22.0550308,11.0504547 21.5876837,10.7990256 C21.484872,10.7545089 21.3594676,10.8100532 21.2168692,10.8352425 C21.0569008,10.8756383 20.9701095,10.9476079 20.889069,11.0689694 C20.8473457,10.8654233 20.7720561,10.5028477 20.7263425,10.2993015 C20.8729313,10.420547 20.962422,10.3970408 21.1531401,10.369704 C21.2452128,10.3496802 21.3948531,10.3329647 21.4561763,10.2761436 C21.7127947,10.0197811 21.9766311,9.73486291 22.1952232,9.48169261 Z M16.0401957,2.53047889 C16.3766222,2.69299078 17.0599208,3.01969771 17.3963474,3.18412491 C17.5369506,3.25069674 17.7026699,3.34559208 17.7517284,3.51263108 C17.8415126,3.82970337 17.7770792,4.06946644 17.5147099,4.2214731 C17.3698816,4.30986795 17.1415482,4.28874141 17.0049354,4.28287937 C17.214197,4.59710771 17.1176057,5.03072424 17.274816,5.35052442 C17.0768801,5.25655772 16.7426834,5.08145117 16.5298422,4.99578419 C16.6811255,4.9445349 16.670504,4.83379466 16.6618777,4.68915909 C16.6421604,4.52885272 16.6193329,4.37179659 16.5273188,4.21735226 C16.458543,4.10446454 16.1761629,3.97288795 16.0712974,3.91612487 C15.9622654,4.14044931 15.7717821,4.39007918 15.8489495,4.66803254 C15.6648626,4.57609725 15.3520851,4.42333607 15.1699347,4.33134274 C15.3064301,4.28044169 15.3796659,4.20243599 15.437116,4.08107444 C15.6425046,3.66516009 15.8633854,3.2549917 16.0572723,2.84197935 C16.1087368,2.74017726 16.0837967,2.63820106 16.0401957,2.53047889 L16.0401957,2.53047889 Z" id="Fill-4" fill="#005093"></path>
                        <path d="M21.9976524,15.1541162 C22.1735433,15.1884778 22.3529696,15.2289546 22.5269749,15.2636656 C22.5662189,15.0589521 22.6484781,14.6748012 22.6930253,14.4665933 C22.7486505,14.1591444 22.2852649,13.9488399 22.1661776,14.4361338 C22.1103757,14.6449823 22.0421996,14.9455589 21.9976524,15.1541162 Z M21.6734475,15.0720561 C21.7144592,14.9102072 21.7815158,14.5658342 21.8179314,14.4015392 C21.8835148,14.1212302 21.4276716,13.9431906 21.3250834,14.3884935 C21.2795344,14.5604761 21.2372852,14.7990271 21.1917363,14.9688548 C21.349714,15.0044977 21.5141734,15.040723 21.6734475,15.0720561 Z M20.3010272,16.2862431 C20.4393829,16.0493229 20.5585291,15.8266715 20.6905209,15.5927797 C20.6945278,15.7602779 20.8557464,15.8604507 20.9687055,15.9273684 C21.2628586,16.0970214 21.4951996,16.2168793 21.7862887,16.3914245 C21.9647723,16.5087198 22.1246356,16.6869342 22.1374812,16.9466845 C22.1518,17.1991548 22.0271148,17.4626907 21.8844576,17.6898848 C21.7499909,17.9072947 21.561608,18.1192299 21.3411109,18.1700734 C21.0851411,18.226275 20.9002936,18.1560958 20.7130892,18.0509727 C20.4678437,17.9100319 20.2610172,17.793319 20.0136504,17.6524365 C19.880539,17.5710753 19.7531433,17.5160385 19.5680602,17.5979239 C19.707064,17.3683419 19.8270941,17.1237922 19.9607358,16.9007914 C19.9695745,17.0770838 20.0548978,17.1169199 20.1511222,17.1718985 C20.4290121,17.3392802 20.6485075,17.4580897 20.9268098,17.6230253 C21.0401225,17.687497 21.2082942,17.7572685 21.3569617,17.6878464 C21.5624329,17.5985063 21.7173465,17.3323496 21.7219427,17.1113289 C21.7089203,16.9462768 21.5825263,16.8212356 21.4655014,16.7543178 C21.1623917,16.5871691 20.9008829,16.4356869 20.5941787,16.2758764 C20.5085608,16.2305075 20.4057957,16.2366227 20.3010272,16.2862431 Z M18.4527293,18.8049474 C18.5877263,18.6454864 18.7853605,18.4237668 18.9310229,18.2758955 C18.9353244,18.3954622 19.0075663,18.5008183 19.1005499,18.5762973 C19.4530976,18.8690114 19.7724707,19.1357505 20.1236043,19.4298624 C20.2272532,19.3204877 20.4833409,19.0338888 20.5628895,18.9284162 C20.7205726,18.7492118 20.8447274,18.4923735 20.8509145,18.2732164 C20.9476103,18.4043729 20.9762478,18.5089719 21.0677582,18.6743152 C21.0917996,18.7239356 21.1476604,18.7296431 21.1892025,18.7476975 C20.8799645,19.1082612 20.2893012,19.777788 19.9718137,20.1324695 C19.9658034,19.9821521 19.9121817,19.8910648 19.8072364,19.7971819 C19.4572224,19.5100588 19.1219985,19.2112878 18.776345,18.9201461 C18.6862488,18.8448418 18.5728772,18.7881743 18.4527293,18.8049474 Z M17.3575508,20.8909869 C17.1620379,20.63642 17.0834321,20.3549462 17.154908,20.0053316 C17.245122,19.5999814 17.67604,19.2530458 17.9832745,19.1083777 C18.1246354,19.0461774 18.3220928,18.9719214 18.4207331,18.8442594 C18.4737066,19.0051182 18.5166039,19.1842644 18.5735843,19.3511802 C18.258336,19.2976576 17.7558832,19.5704537 17.6350282,19.9437137 C17.5533583,20.2336906 17.6754507,20.4822588 17.8724956,20.6837109 C18.0491525,20.8344942 18.2108425,20.8978593 18.4527293,20.8438708 C18.7270248,20.7699643 19.1332532,20.35052 19.2175158,20.0944388 C19.347681,20.2279248 19.4472051,20.3860463 19.566587,20.5263464 C19.4230459,20.5375868 19.3039587,20.6697915 19.2059665,20.7665863 C18.9087492,21.0652992 18.5068224,21.3039666 18.1298208,21.3074028 C17.7934184,21.2991327 17.5508245,21.1493395 17.3575508,20.8909869 Z M14.5798301,20.8308833 C14.7789374,20.7641403 15.1172843,20.6240149 15.3196914,20.5726472 C15.260354,20.6770133 15.2309505,20.7559284 15.2706659,20.8680986 C15.4176246,21.2994239 15.5916888,21.7527056 15.736762,22.1843804 C15.8677521,22.1713928 16.2397451,22.0080879 16.3719726,21.9656892 C16.6069652,21.8751261 16.8380687,21.7640624 16.9431318,21.5480504 C16.9566256,21.7097828 16.9162031,21.8391338 16.9273989,21.9992937 C16.924983,22.0459439 16.9641091,22.0780342 16.990095,22.1148418 C16.5361963,22.2637032 15.7410635,22.5465165 15.2832169,22.686176 C15.3572266,22.5546701 15.307494,22.4043528 15.2672482,22.2702261 C15.1195824,21.8450742 14.9482287,21.4471205 14.8062786,21.0207456 C14.7689202,20.9100314 14.6911982,20.8783489 14.5798301,20.8308833 Z M12.8273442,21.062329 C13.0359973,21.0368781 13.4065172,20.9946541 13.6242448,20.9596519 C13.544814,21.0499821 13.5012095,21.120103 13.5171193,21.2379225 C13.5726854,21.68969 13.6521162,22.1670831 13.7057379,22.6189088 C13.8349603,22.6215879 14.2482596,22.555602 14.3907401,22.5317818 C14.6388729,22.4890337 14.8667356,22.3931707 15.0246544,22.2154805 C15.0047377,22.3765723 14.9452236,22.5140769 14.9233624,22.6732467 C14.9114007,22.7183827 14.9431612,22.7576947 14.9610744,22.7989286 C14.4861395,22.8539071 13.6074511,22.994149 13.130395,23.0393432 C13.2298603,22.9254258 13.2260302,22.745872 13.2140684,22.6063872 C13.1563809,22.160502 13.0662847,21.7337777 13.0146075,21.2878341 C13.0007013,21.1719366 12.9266916,21.1311104 12.8273442,21.062329 Z M11.2156298,22.1660348 C11.4329449,22.1903208 11.8490137,22.215364 12.0659753,22.2278856 L11.7181415,21.2896396 L11.2156298,22.1660348 Z M11.3689524,20.9478292 L12.1819985,21.027152 C12.1799361,21.0335584 12.1553644,21.101175 12.173749,21.1563283 C12.2797549,21.4605157 12.6165108,22.4418011 12.7069606,22.7060941 C12.7430226,22.8381823 12.828287,22.9413253 12.9154369,23.0434783 C12.7221632,23.0303743 12.3769221,23.0385861 12.1782862,23.0398091 C12.3175258,22.9110988 12.2388021,22.7430182 12.1774612,22.602194 C11.8784173,22.5660852 11.3156843,22.5256666 11.0148726,22.4995169 C10.9126968,22.6287514 10.9065097,22.7946771 10.9687933,22.9305509 C10.773634,22.8933356 10.4372316,22.7984627 10.2430151,22.7683526 C10.3489621,22.6880979 10.4207327,22.6320711 10.4963333,22.510233 L11.3499197,21.0821888 C11.3751985,21.0491085 11.3833301,20.977648 11.3689524,20.9478292 Z M8.93334988,21.474668 C8.88503145,21.6453694 8.81002003,21.8211376 8.76140697,21.9898588 C8.96269449,22.0659202 9.24376635,22.1528143 9.4557782,22.2188002 C9.92670615,22.3790766 10.0287641,21.863944 9.63991857,21.7299338 C9.46214209,21.6620842 9.13286965,21.5521272 8.93334988,21.474668 Z M6.58642932,19.4133805 C6.74040013,19.1757031 6.93561838,19.2310311 6.93874141,19.0425083 C7.36087952,19.3226426 8.19077806,19.8422597 8.61114843,20.1284509 C8.45835612,20.1900688 8.47308735,20.4427721 8.39041569,20.6004859 C8.32029503,20.3863958 8.01105706,20.119482 7.81301041,20.0133687 C7.78684775,20.0042833 7.77594664,20.0380042 7.76251176,20.0522148 C7.52086067,20.4072457 7.27714721,20.7604129 7.0354372,21.1134637 C6.96125072,21.2237702 6.94746229,21.3365228 6.98140305,21.4711154 C6.81081541,21.3544024 6.50016324,21.1495724 6.3295756,21.0328595 C6.42338407,21.0256378 6.51230177,21.0162029 6.5634486,20.9321626 C6.8375084,20.5309474 7.11757853,20.1335178 7.38757251,19.7284588 C7.20649623,19.5943321 6.8183578,19.3906669 6.58642932,19.4133805 Z M5.13534429,18.2619179 C4.95633039,18.355393 4.73760109,18.4906263 4.68327232,18.8208469 C4.63784121,19.1808282 5.06981978,19.618327 5.40380622,19.5721427 C5.71115859,19.5306758 5.95917357,19.3412794 6.09263851,19.0480993 C6.18957,18.798541 6.09181356,18.5640669 5.88186408,18.3722244 C5.7000807,18.1853906 5.41824282,18.1253451 5.13534429,18.2619179 Z M5.01413573,17.7717702 C5.22726716,17.693088 5.43703987,17.7116083 5.71587258,17.8138195 C6.11090523,17.9930239 6.4582087,18.3562666 6.55048512,18.780079 C6.62520192,19.1571246 6.48767116,19.4759302 6.26882401,19.6883896 C6.03595274,19.9330558 5.69654521,20.0706769 5.31211904,20.0063799 C4.71332403,19.9002667 4.07834911,19.1482139 4.23585542,18.5748995 C4.34822524,18.1563288 4.63071129,17.9113715 5.01413573,17.7717702 Z M3.92897444,16.1125715 C3.72126411,16.1291117 3.33760397,16.288398 3.24291162,16.6211812 C3.14326959,17.03055 3.48597691,17.4582644 3.82296852,17.4704948 C4.13291359,17.482667 4.42635968,17.3407362 4.608968,17.10335 C4.73748324,16.9161085 4.68321339,16.6019621 4.50178357,16.3789612 C4.35582655,16.1635897 4.14086845,16.1116979 3.92897444,16.1125715 Z M3.77411976,15.6378575 C4.00198242,15.6109506 4.22689883,15.6407695 4.45346514,15.7973768 C4.81072692,16.0421012 5.05420468,16.4719704 5.07011441,16.9051011 C5.07689077,17.2893685 4.90488894,17.5756762 4.65180641,17.7470182 C4.37921974,17.9477132 4.01689042,18.0456146 3.64984711,17.9159142 C3.07904143,17.707881 2.65289642,16.8561796 2.86844377,16.3030745 C3.03190149,15.906635 3.38992929,15.7185781 3.77411976,15.6378575 Z M3.6384746,13.6766845 C3.75508701,13.6550192 3.85172388,13.5749392 3.91995893,13.4782609 C4.01417988,13.9545474 4.24711008,14.8289624 4.34910911,15.3010557 C4.19437227,15.2615107 4.05100795,15.45015 3.87776869,15.5047209 C4.04299416,15.1688509 3.82962703,14.5135347 3.73847018,14.16194 C3.56629157,14.1854689 3.40030008,14.235963 3.23059632,14.2732366 C3.28203777,14.4935584 3.37790861,14.9188267 3.42940899,15.1410705 C3.44042795,15.2085124 3.5114914,15.3271472 3.54920335,15.3828246 C3.40395342,15.332447 3.22028446,15.3158486 3.10891636,15.2016983 C3.03808861,14.99582 2.96390214,14.5547686 2.9009114,14.344697 C2.63551357,14.4323482 2.29970046,14.4225639 2.11950806,14.6724716 C2.07071823,14.46968 2.00142253,14.1381781 1.95652174,13.93527 C2.05251043,14.0086523 2.1136745,14.0517499 2.21526105,14.0153499 C2.72124932,13.8951426 3.19488782,13.8010851 3.6384746,13.6766845 Z M20.7232832,15.5018671 C20.7865096,15.1850999 20.9585704,14.5342099 21.027925,14.2183163 C21.0786004,14.0315989 21.1361111,13.823391 21.2899052,13.6896137 C21.7231801,13.4063927 22.0250525,13.7576963 22.0261131,14.0546037 C22.067773,13.9047522 22.1738968,13.6902544 22.3612191,13.638712 C22.6904916,13.5617188 23.0344952,13.7971247 23.043334,14.164852 C23.0506996,14.6126591 22.7739292,15.5059439 22.7049871,15.945481 C22.6405822,15.8472302 22.5571445,15.7588801 22.4441265,15.7372149 C21.9774411,15.6371586 21.509813,15.5336661 21.0410653,15.4339593 C20.921153,15.4075766 20.8292891,15.4173609 20.7232832,15.5018671 Z M9.00818453,21.1772947 C9.16392308,21.234661 9.63043166,21.3638373 9.79695348,21.3905695 C10.0339495,21.4418206 10.1823814,21.0399066 9.95499011,20.9461984 C9.79235733,20.8796884 9.31424055,20.7733422 9.14648131,20.7151604 C9.09828073,20.8680986 9.05226036,21.0228422 9.00818453,21.1772947 Z M8.71467951,20.2152867 C9.02922072,20.3021808 9.63178693,20.5173192 9.94379437,20.6180162 C10.3785424,20.7573844 10.5696949,20.9842291 10.542884,21.1931359 C10.5256779,21.4859083 10.3143732,21.6517175 9.9984767,21.6135121 C10.1187425,21.6764113 10.4248574,21.8095479 10.3948057,22.0940502 C10.3431875,22.5892647 9.91439084,22.702192 9.43698115,22.549545 C8.97589367,22.4108174 8.4691983,22.2273615 8.03297713,22.0911964 C8.17380769,22.0589314 8.24345694,21.9939939 8.27415682,21.884328 C8.41145188,21.432211 8.58804986,21.0236576 8.72510922,20.5696187 C8.76111234,20.45343 8.77596142,20.3256515 8.71467951,20.2152867 L8.71467951,20.2152867 Z" id="Fill-5" fill="#135494"></path>
                        <path d="M11.7391304,8.91304348 C11.9329328,9.05208451 12.1518189,9.24027698 12.3635383,9.42669823 C12.3809178,9.44820594 12.3963264,9.47660877 12.3897568,9.51386772 C12.376976,9.59831711 12.3395892,9.68093203 12.3088317,9.7672159 C12.3040538,9.78157546 12.2854798,9.78688913 12.2771186,9.77885537 C12.2392539,9.72730012 12.1975073,9.67694677 12.1634053,9.62425288 C12.1518189,9.6085649 12.1392173,9.58971403 12.1393965,9.56852261 C12.1497286,9.43118954 12.1202253,9.37868543 12.0081842,9.34762576 C11.8222056,9.28797349 11.7412805,9.14229038 11.7391304,8.91304348" id="Fill-6" fill="#135494"></path>
                        <path d="M13.2608696,8.91304348 C13.0321311,9.32811 12.9325097,9.22192886 12.7848556,9.45743611 C12.7662021,9.48629589 12.7617136,9.51172679 12.7602563,9.53458602 C12.7657358,9.6529397 12.7444592,9.70242994 12.7764033,9.74146208 C12.7847391,9.75386321 12.7865461,9.77123623 12.7804254,9.7826087 C12.7355405,9.75426325 12.6385423,9.68162803 12.6369684,9.64488182 C12.6372015,9.5501303 12.6077057,9.64905363 12.6097459,9.40863165 C12.6051991,9.37257121 12.6159832,9.36491336 12.6311392,9.34776894 C12.8111454,9.16609519 13.0516006,9.04534129 13.2608696,8.91304348" id="Fill-7" fill="#135494"></path>
                        <path id="Fill-8" fill="#135494"></path>
                        <path id="Fill-9" fill="#135494"></path>
                        <path d="M11.2810474,12.8381323 C11.3478023,12.6708944 11.266213,12.4811978 11.0989824,12.4145773 C10.9317517,12.3478882 10.7421321,12.4294124 10.6754459,12.5966503 C10.6087597,12.7639569 10.6902803,12.9535161 10.857511,13.0202053 C11.0247416,13.0868944 11.2144299,13.0053702 11.2810474,12.8381323" id="Fill-10" fill="#135494"></path>
                        <path d="M14.3245607,12.8380916 C14.3912507,12.6708686 14.3096567,12.4811889 14.1425539,12.4145744 C13.975245,12.3478912 13.7855459,12.4294081 13.7189246,12.5966998 C13.6522346,12.7638542 13.7337598,12.9535339 13.9010687,13.0202171 C14.0681715,13.0869002 14.2578707,13.0053146 14.3245607,12.8380916" id="Fill-11" fill="#135494"></path>
                        <path d="M9.56521739,12.2765035 C9.88874145,12.2828016 10.2781675,12.2658023 10.4003472,12.2423934 C10.6651288,12.1241227 11.4677478,12.0709511 11.9430283,12.8479037 C11.9544716,12.8658505 11.9612203,12.8882562 11.9526524,12.9051998 C11.9332281,12.9448277 11.9212566,12.9849572 11.9120432,13.0301587 C11.9101066,13.0394108 11.8982525,13.047381 11.8905649,13.0414173 C11.3575395,12.7392752 11.271685,12.1935134 10.407624,12.4055312 C10.1203666,12.4342349 9.70846467,12.3461729 9.56521739,12.2765035" id="Fill-12" fill="#135494"></path>
                        <path d="M10.0110485,12.6330942 C9.99312032,12.6474898 9.99933541,12.6553148 10.0131999,12.6605712 C10.1685175,12.7440177 10.0885579,12.7313544 10.2263657,12.8548217 C10.2927596,12.9217223 10.4801687,13.0967986 10.6259246,13.1972091 C10.6503667,13.213098 10.670984,13.2240888 10.6959639,13.2268365 C10.8552855,13.2524618 11.0146071,13.2616009 11.1739287,13.2608243 C11.2414581,13.2564639 11.3057007,13.2323319 11.3043262,13.1636991 C11.3017565,13.1466753 11.2890872,13.1423148 11.273669,13.1423148 C10.503296,13.1469142 10.2057483,12.4737873 10.0110485,12.6330942" id="Fill-13" fill="#135494"></path>
                        <path id="Fill-14" fill="#135494"></path>
                        <path d="M17.1768036,6.52457015 C17.2083206,6.51289797 17.2201098,6.53913091 17.2369938,6.57007987 C17.3781683,6.8321734 17.4999706,7.09750921 17.5997347,7.37098017 C17.6175666,7.41265811 17.6040001,7.44331232 17.5997347,7.48139429 C17.5737865,7.76305936 17.6260975,7.82371933 17.4830865,8.27274462 C17.4622924,8.32845276 17.4236072,9.01693462 17.2929778,9.14255795 C17.1156063,9.32329991 17.1491967,9.73070621 17.09108,10.0767451 C17.0801201,10.2273045 17.0324301,10.3752111 17.0010909,10.4931119 C16.9568368,10.7000868 16.4670804,11.0580337 17.0081407,11.4800007 C17.180062,11.5999059 17.3530496,11.7504652 17.6014527,11.8807456 C17.1312463,12.5300844 17.0807718,12.5587933 17.2255601,12.8636259 C16.1581317,13.3143017 16.7572494,14.1185033 15.8456283,14.8081641 C15.4015478,15.1472469 15.8354386,14.7091274 14.6059232,15.708278 C14.5661123,15.7410544 14.5518942,15.7814354 14.5339438,15.824764 C14.4471537,16.0040322 14.3037873,16.1354916 14.1796746,16.2833392 C14.1539634,16.3122839 14.1266527,16.3404622 14.1171739,16.3702322 C14.1114866,16.3865025 14.1066288,16.4007095 14.1050292,16.4190431 C14.1582289,17.0620742 13.654906,17.4386494 13.3467866,17.5293741 C13.0202428,17.7627588 12.9833348,17.6907214 12.8064372,17.7909371 C12.713723,17.8375079 12.5949421,17.8369774 12.4939931,17.7942383 C12.3687548,17.73517 12.2581494,17.6761606 12.1621768,17.583019 C12.1261575,17.546175 12.0983136,17.5304352 12.0493202,17.5115121 C11.6817215,17.3449772 11.3963511,17.335781 11.2802954,17.0858902 C11.1821308,16.8811554 11.1945717,16.7364321 11.2151881,16.4994515 C10.9926146,15.875815 10.6690922,15.8614311 10.3423707,15.5074929 C9.79580091,14.9173993 9.33744296,15.0245711 8.92718977,14.3318448 C8.82600386,14.1587075 8.79152482,13.9936463 8.77499621,13.8123738 C8.77363364,13.7918001 8.76800562,13.7738202 8.74999595,13.7544845 C8.72434401,13.734795 8.70633434,13.7215312 8.67410651,13.7141034 C8.79608648,13.5472738 8.59021936,13.5088381 8.56747031,13.39247 C8.54632079,13.3483161 8.18352072,13.059636 7.98097118,12.9090766 C8.08825905,12.7954202 8.13701549,12.6784037 8.00994068,12.5533109 C7.87883739,12.4071139 7.71769823,12.1337018 7.69465296,12.0903143 C7.68256753,12.0713323 7.68120495,12.053824 7.69056524,12.0314818 C7.75561333,11.8734358 7.80069674,11.8295767 7.9370726,11.8141317 C7.95922924,11.8098872 7.9815636,11.8015163 7.99364904,11.7901978 C8.15893515,11.6255493 8.31000311,11.4702739 8.47528923,11.3056254 C8.49395057,11.2855823 8.50319237,11.2588777 8.47795514,11.2283414 C8.3483329,11.0355146 8.26326091,10.808025 8.23772746,10.5843671 C8.13642307,10.2242391 8.0611853,9.89010812 8.03144565,9.50404187 C8.03061625,9.44143654 8.01859006,9.25798285 7.96894498,9.15393538 C7.55122727,8.43609621 7.44405788,7.11254156 7.93185928,6.66587429 C7.96207287,6.63810865 7.9846442,6.64848392 8.01159946,6.66104036 C8.96060245,7.05482911 9.83934403,7.62199102 10.4635213,8.3131846 C10.4892917,8.34319036 10.513818,8.37331402 10.5481193,8.36193659 C11.3363979,8.10727081 12.2190494,8.01837359 12.9519956,8.08540021 C13.4656267,8.09919461 14.081747,8.12029885 14.6123806,8.29373097 C14.6379733,8.30233773 14.6707343,8.29720904 14.6937203,8.27097611 C15.4922478,7.54912831 16.4597936,6.72659322 17.1768036,6.52457015" id="Fill-15" fill="#005093"></path>
                        <path d="M8.26086957,7.714427 C8.72372933,7.968905 9.01836823,8.39503615 9.24531499,8.40109792 C9.28082367,8.45507104 9.33224594,8.51289105 9.37476134,8.55590634 C9.71530025,8.93634103 9.44459112,9.07768531 9.74433661,9.56513365 C9.77604503,9.63367834 9.79106793,9.70000815 9.74433661,9.74179943 C9.54381352,9.91246172 9.36727958,10.0852223 9.201612,10.2729042 C8.98196886,10.53426 8.87431463,10.4379127 8.80911642,10.2729042 C8.76814487,10.150503 8.7261045,10.0109073 8.78192081,9.87032072 C8.81671694,9.79250851 8.79611241,9.72967588 8.73625832,9.65611856 C8.65686851,9.54566602 8.59060148,9.4287437 8.52754092,9.31351168 C8.50574881,9.2696221 8.49054777,9.23319316 8.48187842,9.1785789 C8.4028449,8.69812491 8.41816469,7.97858052 8.26086957,7.714427 Z M16.7391304,7.60869565 C16.6819484,8.16626241 16.4745967,8.5348067 16.5391418,9.00243769 C16.2978253,9.2925869 16.3782245,9.83389178 16.1564437,10.1584299 C16.1419552,10.1773147 16.1230727,10.1881559 16.0998555,10.1862325 C15.8056322,10.1387291 15.5983993,9.77432318 15.3475228,9.56839768 C15.3222273,9.5487552 15.3104109,9.52911271 15.3187833,9.50947023 C15.4206184,9.28669999 15.6543938,9.06398803 15.4724563,8.83801204 C15.4816007,8.19050951 16.2712828,8.08705133 16.7391304,7.60869565 L16.7391304,7.60869565 Z" id="Fill-16" fill="#FFFFFF"></path>
                        <path id="Fill-17" fill="#FFFFFF"></path>
                        <path d="M12.3391153,9.76513682 C12.3344739,9.77834712 12.3164304,9.78323551 12.308308,9.77584473 C12.2715249,9.7284157 12.2309707,9.68209239 12.1978427,9.63361585 C12.1865873,9.61918346 12.1743456,9.60184132 12.1745196,9.58234595 C12.1845567,9.45600435 12.155896,9.4077024 12.0470552,9.3791286 C11.8663887,9.3242506 11.787775,9.19022724 11.7856864,8.97932812 C11.9739532,9.107241 12.1865873,9.28037148 12.3922593,9.4518725 C12.4091424,9.47165884 12.4241109,9.49778844 12.417729,9.53206537 C12.4053132,9.60975585 12.3689943,9.68575868 12.3391153,9.76513682 Z M11.2251214,11.3429811 C11.0798456,11.3164441 11.0867496,11.234098 10.9412418,11.1700252 C10.9167004,11.1590263 10.89564,11.1590263 10.8764362,11.1700252 C10.8569424,11.1778815 10.8374485,11.1695014 10.8180126,11.1646713 C10.6944354,11.1350499 10.4986263,11.0028888 10.4982782,10.8418047 C10.4981042,10.8317952 10.5095916,10.8375565 10.5152773,10.8354033 C10.6161698,10.8692728 10.5477091,10.9137921 10.789294,10.9797272 C10.9842908,11.0433344 11.034882,11.040832 11.2588295,11.2331087 C11.270491,11.242129 11.2816884,11.2498107 11.2843572,11.2673274 C11.2871421,11.2903145 11.2666039,11.3219727 11.2476902,11.3376272 C11.2409601,11.3426319 11.2390456,11.3443778 11.2251214,11.3429811 Z M10.050035,12.6283367 C10.239056,12.4731303 10.5279251,13.1289311 11.2758287,13.1244501 C11.2907972,13.1244501 11.3030969,13.1286983 11.3055916,13.145284 C11.306926,13.2121501 11.2445572,13.235661 11.1789975,13.2399092 C11.0243228,13.2406658 10.8696482,13.2317619 10.7149735,13.2067962 C10.6907222,13.2041192 10.6707062,13.1934113 10.646977,13.1779314 C10.5054724,13.0801054 10.3235295,12.9095355 10.2590721,12.844357 C10.1252837,12.7240677 10.2029111,12.736405 10.0521237,12.6551065 C10.0386636,12.6499853 10.0326298,12.6423617 10.050035,12.6283367 Z M11.243745,12.846161 C11.187468,12.987808 11.0272237,13.0569438 10.8859511,13.0004363 C10.7447365,12.943987 10.6758117,12.7832521 10.7321467,12.641547 C10.7884817,12.4998419 10.948668,12.4307643 11.0899406,12.4872717 C11.2312132,12.543721 11.30008,12.7044559 11.243745,12.846161 Z M11.920403,12.946955 C11.9011992,12.9883317 11.8893637,13.0302322 11.8802549,13.0774284 C11.8783403,13.0870888 11.8666208,13.0954107 11.8590205,13.0891839 C11.3320476,12.7737081 11.247168,12.2038615 10.3929184,12.4252357 C10.1089228,12.4552062 9.70169801,12.3632579 9.56007731,12.290514 C9.87992775,12.2970901 10.2649318,12.2793406 10.3857243,12.2548986 C10.6474992,12.1314086 11.4410045,12.0758904 11.9108881,12.8871304 C11.9222016,12.9058692 11.9288736,12.9292637 11.920403,12.946955 Z M14.5777783,10.8631623 C14.5910063,10.871717 14.5957637,10.8898739 14.5805051,10.8952279 C14.2827013,10.9742568 13.9690587,11.151461 13.6584331,11.3085296 C13.6304687,11.320576 13.6146879,11.3102754 13.6080159,11.2854843 C13.6001835,11.2431183 13.6103946,11.2041857 13.611613,11.1614705 C13.6138176,11.1315582 13.6329634,11.1315582 13.6435806,11.1166021 C13.9342482,11.0007356 13.8297587,10.9822296 14.0280625,10.8877789 C14.0877625,10.8604854 14.1470564,10.8330755 14.2043777,10.81294 C14.2263663,10.8015337 14.2520681,10.7954232 14.2735346,10.7947831 C14.3747171,10.7897783 14.4881413,10.8152678 14.5777783,10.8631623 Z M10.0871662,9.69349863 C9.98476536,9.87431087 9.85689481,10.0231158 9.74173008,10.1879244 C9.71208314,10.2265659 9.66978839,10.256711 9.62528897,10.2825496 C9.3763359,10.4329258 9.16851724,10.6431848 8.94439566,10.8419211 C8.93018138,10.852629 8.92455368,10.8427359 8.91445863,10.838604 C8.70002598,10.7170344 8.64276271,10.5028182 8.61468224,10.2120753 C8.54036183,9.43569425 8.38516504,10.1076151 8.12391226,7.79569759 C8.08898573,7.69152832 8.0497659,7.50489657 8.08277786,7.46212316 C8.14189768,7.40125107 8.25839681,7.43436409 8.33028049,7.50384906 C8.77196767,7.69769701 8.73181956,7.87414461 9.07690762,8.04721689 C9.15024173,8.08568387 9.2764878,8.15609996 9.37314494,8.17850508 C9.41781841,8.33388605 9.49010821,8.32888127 9.65273125,8.60618102 C9.69166098,8.67496765 9.83467411,8.78652769 9.84819218,8.87987266 C9.857533,8.93795139 9.85799714,8.98858115 9.85329772,9.04450666 C9.84912046,9.20273919 9.78332862,9.35241704 9.86942659,9.42300772 C9.94061405,9.45932147 9.89385195,9.49569342 10.0224187,9.56093015 C10.0875724,9.59229732 10.1218607,9.62581771 10.0871662,9.69349863 Z M12.7426269,9.48981571 C12.7240613,9.51920425 12.719594,9.54510108 12.7181436,9.56837912 C12.7235972,9.68890122 12.7024208,9.73929819 12.7342144,9.77904546 C12.7425109,9.7916738 12.7443094,9.80936511 12.7382176,9.82094594 C12.6935441,9.79208116 12.597003,9.71811517 12.5954366,9.68069571 C12.5956686,9.5842082 12.5663118,9.68494395 12.5683424,9.44011708 C12.563817,9.40339596 12.5745503,9.39559781 12.5896348,9.37813928 C12.7687928,9.19313699 13.008115,9.07017071 13.2163978,8.935449 C12.9887371,9.35812016 12.8895853,9.24999363 12.7426269,9.48981571 Z M16.0739914,10.6632621 C16.0627361,10.671875 16.0497401,10.6690816 16.0368022,10.6616326 C15.5963334,10.4458451 15.2018145,9.9955895 14.8173325,9.64217054 C15.4160731,9.25121572 14.8739576,8.84099832 15.3005022,8.39231395 C15.7968999,7.86628827 16.2338877,7.81496017 16.6878165,7.42365619 C16.7554649,7.36586843 16.8358192,7.40817629 16.8429553,7.46858282 C16.8502075,7.54307257 16.8660463,7.61174281 16.8811308,7.68029666 C16.6166291,8.31287761 16.7707815,9.18068324 16.4255775,9.71276122 C16.4082882,10.1792533 16.3505608,10.4768631 16.0739914,10.6632621 Z M13.9706252,12.9983413 C13.8292946,12.9418338 13.7604278,12.7810989 13.8167628,12.639452 C13.8730398,12.4977469 14.0332841,12.4286111 14.1746147,12.4851185 C14.3157713,12.5415678 14.3846961,12.7023027 14.3283611,12.8440078 C14.2720261,12.9857129 14.1117818,13.0548487 13.9706252,12.9983413 Z M13.0315541,13.6099138 C13.2167459,14.4666623 13.2957077,14.8943383 13.3301701,15.1201935 L13.4522969,15.0193414 C13.379427,14.8127487 13.3414835,14.5632662 13.3666631,14.2632704 C13.4546756,14.0333415 13.5012637,13.7617449 13.5414698,13.5029512 C13.6749681,13.2185516 13.6883701,13.0977967 13.8176331,13.1052457 C13.933436,13.111298 14.0534742,13.1183978 14.1617929,13.0945378 C14.2036235,13.0862159 14.2368095,13.0686992 14.2744048,13.0453629 C14.4571019,12.9348504 14.6126468,12.7864528 14.746029,12.617687 C14.7622159,12.6002285 14.772427,12.5629254 14.7641885,12.5460488 C14.759083,12.5331877 14.7513666,12.5257969 14.7355859,12.5257387 C14.4288474,12.5442448 14.1244876,12.2594378 13.6776949,12.6478321 C13.4242165,12.8973146 13.2117564,13.208542 13.0485532,13.5029512 C13.0290593,13.5385666 13.0234316,13.572087 13.0315541,13.6099138 Z M13.7040929,13.307241 C13.7281121,13.5770335 13.611845,13.6041525 13.5117068,14.3925218 C13.5050348,14.4368664 13.5074716,14.4764391 13.5138535,14.5207838 C13.5295762,14.6487549 13.5672296,14.7696261 13.59531,14.9039405 C14.0582316,14.6027807 14.5755156,14.3569645 15.0639069,14.1541545 C15.1628267,14.0414306 15.259832,13.9411022 15.362697,13.827389 C15.3910095,13.7896203 15.4464162,13.7652948 15.4981098,13.7467305 C15.886885,13.583144 16.281462,13.3290641 16.576771,13.0072451 C16.5855897,12.9965954 16.6038652,12.9784385 16.5981795,12.9579539 C16.5078463,12.5345262 16.7845897,12.4102214 16.9598606,12.0959678 C16.9860845,12.0549402 16.9586422,12.0455126 16.9300976,12.030731 C16.7377696,11.9091614 16.5614544,11.7406865 16.4265057,11.582745 C16.3948862,11.5358979 16.3820643,11.4770627 16.3713311,11.4245125 C16.2320311,10.7668494 16.5211323,10.7185475 16.5731159,10.3388243 C16.5692868,10.1492828 16.6190078,9.92767579 16.6787658,9.73091809 C16.7480967,9.5019203 16.7793681,9.31534674 16.8599544,9.18772485 C16.8995804,8.04308504 17.2536031,8.3011222 17.1574101,7.69094637 C17.1318824,7.56873662 17.0682372,7.34811892 16.9917122,7.19593868 C16.9828935,7.17632693 16.9692594,7.17062381 16.9523763,7.17562859 C16.185153,7.45502336 15.2350005,8.01241621 14.7397051,8.75155243 C14.540357,8.91269471 14.334685,9.07057807 14.1226891,9.20919885 C14.56339,8.62102077 13.6840188,8.5813317 12.6237491,8.46645454 C11.8949914,8.40342922 11.0243808,8.63231063 10.7413135,8.78792438 C10.7156698,8.80293872 10.700063,8.83285101 10.7200791,8.85851506 C10.7996211,8.97164637 10.8238144,9.10404027 10.8709246,9.22846143 C10.8769584,9.24266104 10.8632663,9.24289382 10.8530552,9.23323343 C9.93057702,8.4048259 8.55138516,7.28771239 8.09206066,7.17772361 C8.07082625,7.17359176 8.05168048,7.1814481 8.04106328,7.20129264 C8.00787727,7.27048663 8.000335,7.29009839 7.97521342,7.35847765 C7.95699593,7.41847682 7.9234038,7.45525614 7.90634666,7.47195814 C7.64364345,7.73005349 8.10407028,8.21551718 8.17282101,9.10223622 C8.21848078,9.4768964 8.30968428,9.64432376 8.39584026,9.90201175 C8.40883617,9.93675423 8.41806096,9.96724847 8.42363064,10.0015254 C8.5429146,10.4148853 8.61972977,10.8368581 8.77829158,11.2192583 C8.96667438,11.8336242 8.22666124,11.7317245 8.19614404,12.2413392 C8.17926095,12.5873673 8.58538341,12.7765015 8.51640061,13.0295921 C8.51181723,13.0455375 8.48176416,13.0629961 8.49858924,13.0838881 C8.80996913,13.4081513 8.93012336,13.332614 9.0566015,13.6013009 C9.34895165,14.1153966 9.66729364,13.5538719 10.1968193,14.3037742 C10.5951094,14.4893002 10.9636945,14.7047386 11.3535141,14.9630085 C11.3813625,14.875774 11.4086307,14.7664836 11.4318377,14.6249531 C11.4785418,14.3456747 11.4682147,14.0641267 11.2916094,13.6740448 C11.2598158,13.6166644 11.2797158,13.5209335 11.3370951,13.4747847 C11.366568,13.4534271 11.3785776,13.4449888 11.3814205,13.4907302 C11.4309674,14.0088995 11.853915,14.3575465 11.5932424,14.8479568 C11.5836115,14.8657063 11.5728782,14.8807788 11.5762432,14.9099928 C11.5816389,14.975986 11.5678887,15.0359852 11.5432893,15.0924345 L11.7931707,15.2791244 C11.8095316,15.2389116 11.8239779,15.2041109 11.8333188,15.179378 C11.9445383,14.6038282 12.0323188,13.674394 12.115864,13.5585857 C12.1235803,13.5474122 12.1323409,13.5300119 12.115864,13.5179655 C12.0188587,13.4170552 11.9090896,13.2499188 11.9586946,13.1993472 C12.0121867,13.1593672 12.321652,13.2841375 12.3198535,13.5093526 C12.3066835,13.7108823 12.1107004,15.5764433 11.8659246,15.8401836 C11.854089,15.853743 11.8587304,15.8634034 11.8659246,15.8732966 C11.9731989,16.0246039 11.9498179,16.0630709 11.9121065,16.0818097 C11.8781663,16.09502 11.8066887,16.0880948 11.774547,16.099501 C11.7688613,16.1014796 11.7637558,16.1023526 11.7591724,16.1023526 C11.8021634,16.1568232 11.8632558,16.2048342 11.9201129,16.2465019 C11.9539951,16.2126905 12.0102141,16.1869683 12.0988648,16.173758 C12.444475,16.1138752 12.7752328,16.1245831 13.0272608,16.2442905 C13.0610269,16.2616908 13.0816812,16.2821755 13.0939229,16.3043478 C13.1829797,16.2465019 13.2678593,16.185979 13.3485036,16.1115474 C13.3250646,16.1293551 13.2752275,16.1122457 13.2672791,16.0723821 C13.1291395,15.3157291 12.9804406,15.2001536 12.8933564,14.6294923 C12.8579657,14.4357607 12.8416628,14.2334163 12.8786199,14.0482394 C12.8898173,13.9878329 12.8926602,13.9338278 12.8773436,13.8685911 C12.8271584,13.6817848 12.8321479,13.4865401 12.8733984,13.301887 C12.9018269,13.2396182 12.9731304,13.1555845 13.0252302,13.0859831 C13.067699,13.0293011 13.0971718,12.9646463 13.1207269,12.8935319 C13.1448042,12.8196241 13.3853447,12.4601528 13.5894503,12.4038781 C13.6065654,12.3989315 13.6087121,12.3895039 13.6102786,12.3735585 C13.6121931,12.355518 13.5798194,12.3542959 13.581966,12.326886 C13.5895663,12.1844825 14.48408,12.2613001 14.9541958,12.3055284 C15.1337019,12.2890592 15.3115836,12.2619984 15.4806465,12.2306313 C15.5105836,12.2248117 15.5123821,12.2344139 15.4939325,12.2530946 C15.3541104,12.4081264 15.1526156,12.4925675 14.9692803,12.5161365 C14.9347019,12.5214323 14.9246069,12.5411604 14.9181669,12.5673482 C14.8133293,13.0937231 14.0542284,13.3485595 13.7242829,13.2870473 C13.7032226,13.2830318 13.7038608,13.2967659 13.7040929,13.307241 L13.7040929,13.307241 Z" id="Fill-18" fill="#F4B83A"></path>
                        <path d="M11.5654951,16.0423541 C11.1945183,16.7003084 11.2539924,17.1351483 11.9395927,17.2689364 C12.2490933,17.3063234 12.3709857,17.2886652 12.3925966,17.0259206 C12.3954819,17.0097004 12.3848237,16.9972189 12.3655683,16.9995197 C12.2954949,17.0061918 12.2334299,16.9785254 12.1784311,16.9461425 C12.0458216,16.857679 11.9622635,16.7772106 11.8447287,16.5990183 C11.8202913,16.5581226 11.8033913,16.5167093 11.7972672,16.4701193 C11.7821926,16.3908012 11.7789539,16.3052137 11.7972672,16.2544824 C11.8043923,16.2338332 11.8159927,16.214622 11.8335994,16.1974815 C11.7758919,16.1562983 11.7138858,16.1088455 11.6702518,16.0550082 C11.6444601,16.0549507 11.6339786,16.0282621 11.6262057,16.0194042 C11.6035938,15.9941536 11.5811585,15.9958216 11.5654951,16.0423541 Z M11.2585265,14.9289108 C10.8628769,14.6736436 10.4887792,14.4607101 10.0845324,14.2773411 C10.1020213,14.3014413 10.1197457,14.3270371 10.1377057,14.3539557 C10.1513082,14.3696583 10.1509549,14.3853033 10.123691,14.3835202 C10.0566208,14.3740872 9.9646421,14.3140954 9.87849305,14.2747527 C9.7147922,14.2071685 9.39380899,14.1348102 9.15820932,14.0200033 C9.14231031,14.0118356 9.1312399,14.0229367 9.13070993,14.0358784 C9.1192862,14.5767824 9.46476565,14.7055089 9.94715319,14.8912937 C10.0751107,14.9377686 10.1405911,15.0233562 10.1757455,15.1132576 C10.5675676,15.7342274 10.8665867,15.5943999 11.1764406,16.1773501 C11.18651,16.195871 11.2024678,16.2053616 11.2195445,16.1773501 C11.347561,15.9808093 11.3294832,15.8840632 11.3230647,15.6595684 C11.4252894,15.7419924 11.5630219,15.7916309 11.5924056,15.5739234 C11.608128,15.4770622 11.6627145,15.3418937 11.7047586,15.2413513 L11.45114,15.0568319 C11.3800656,15.215353 11.2199567,15.346035 11.1629559,15.5078921 C11.1577151,15.5222142 11.1389307,15.5188781 11.129038,15.5172676 C11.1125501,15.5138165 11.0932358,15.5044985 11.0866995,15.4529619 C11.0563737,15.2640711 11.1611304,15.2257063 11.2585265,14.9289108 Z M13.5632932,15.6204558 C13.77422,15.9289851 13.5863173,15.9120747 13.7033811,16.0410887 C13.7476627,16.0882539 13.7789308,16.1480731 13.7875869,16.1994947 C13.7903545,16.2184758 13.8127309,16.2616722 13.8419968,16.2191085 C14.0202423,15.9725266 14.2146224,15.7735126 14.4236059,15.5824361 C14.6737502,15.3767499 14.613334,15.2365198 14.7988813,15.0920908 C15.5067402,14.4762976 15.8158875,14.6552952 15.8683542,14.0057962 C15.8760682,13.9439638 15.8482155,13.8826491 15.7475807,13.9296992 C15.6710888,13.9796828 15.6103782,14.0172424 15.531001,14.0480148 C15.4973186,14.0569301 15.4687004,14.0617617 15.4383156,14.0607264 L15.3476913,14.050143 C15.3085916,14.0458866 15.2817988,14.0733804 15.2626022,14.0976532 C15.1787497,14.1906607 15.1030822,14.2901677 15.0209374,14.3924931 C15.0075704,14.3289352 15.0525587,14.3261168 15.0490256,14.2699787 C15.0489078,14.2551965 15.0510866,14.2386886 15.0355409,14.2294857 C15.011398,14.2252868 14.9979133,14.2216056 14.9675874,14.2293131 C14.96058,14.2324766 14.9382626,14.2284503 14.9493919,14.2149335 C14.9745947,14.185484 14.999562,14.1571274 15.0244116,14.129461 C14.528716,14.329913 14.0036956,14.5728712 13.5338506,14.8705295 C13.5351461,14.8760513 13.5362649,14.8815155 13.5374426,14.8870948 C13.5496318,14.9392066 13.5660608,14.9823455 13.5977999,15.0265772 C13.8454122,15.3676045 13.6718775,15.4772347 13.6602771,15.6669883 C13.6055139,15.5470047 13.6304812,15.4099381 13.6171143,15.394293 C13.5281976,15.2817293 13.4473482,15.1464458 13.3886986,14.9845887 L13.2647452,15.0842683 C13.3122067,15.3876209 13.2762278,15.3224524 13.3135022,15.4527894 C13.3745661,15.6556572 13.4763786,15.4957557 13.5632932,15.6204558 Z M12.2114657,17.443275 C12.1951545,17.4460359 12.1958611,17.4619685 12.2098758,17.4718617 C12.2730007,17.5103415 12.3340058,17.5521 12.3991328,17.5875314 C12.415974,17.5979422 12.4327563,17.6043843 12.450834,17.6081805 C12.4711494,17.6110565 12.5863878,17.601796 12.6602298,17.5827574 C12.6779542,17.5776382 12.6993296,17.573842 12.7128143,17.5636612 C12.7337185,17.5464057 12.774997,17.5019438 12.7888351,17.4654771 C12.7931926,17.455814 12.7905427,17.4428723 12.7759392,17.440169 C12.5777905,17.4152634 12.3817028,17.4276299 12.2114657,17.443275 Z M13.0409226,16.3855671 C13.0323254,16.7159534 12.8367676,16.8898894 12.5111914,16.9899716 C12.4895805,16.9958385 12.4629055,17.0038911 12.46267,17.0227571 C12.4669097,17.1983611 12.4679696,17.2597909 12.7374283,17.2943595 C13.0961569,17.3400868 13.4827971,17.2506455 13.6257704,16.7152057 C13.6653412,16.5933814 13.5436255,16.2155423 13.4468183,16.0008833 C13.4369256,15.9732169 13.4082485,15.9558463 13.3821623,15.9670049 C13.3434159,15.9869063 13.3149743,16.0178512 13.2903603,16.0567337 C13.2884171,16.0596672 13.2860028,16.0621405 13.283353,16.0640961 C13.2015025,16.1376623 13.1153535,16.1974815 13.0249647,16.2546549 C13.0476944,16.2949179 13.0426303,16.3410477 13.0409226,16.3855671 L13.0409226,16.3855671 Z" id="Fill-19" fill="#FFFFFF"></path>
                        <path d="M17.6283108,10.3891593 C17.6451211,10.4031064 17.6448261,10.4531761 17.6349169,10.4888902 C17.6262464,10.5317237 17.5997629,10.5307316 17.5797085,10.5209861 C17.5557613,10.5100152 17.5382433,10.4865559 17.5246771,10.466423 C17.5140601,10.4545767 17.5132343,10.4403961 17.5246771,10.4212552 C17.5341144,10.3886341 17.5614237,10.3679759 17.5870815,10.3594559 C17.6130341,10.3532702 17.6077256,10.3742784 17.6283108,10.3891593 Z M17.9315441,10.0720512 C17.9374425,10.0812715 17.9455822,10.087574 17.9477646,10.097728 C17.9547246,10.1248053 17.9542527,10.1599941 17.9477646,10.1910397 C17.942574,10.2088967 17.914498,10.2271039 17.8910816,10.2119312 C17.8726788,10.198626 17.8603513,10.1891139 17.8456054,10.1717821 C17.8387044,10.1637873 17.8269667,10.1577766 17.8237226,10.1453467 C17.8209504,10.1262642 17.8193578,10.0973195 17.8237226,10.0880992 C17.8290311,10.0786455 17.8375247,10.0698337 17.8468441,10.0652235 C17.8630055,10.0558281 17.8853602,10.0555364 17.8985725,10.0565284 C17.9135542,10.0577539 17.9226966,10.0624224 17.9315441,10.0720512 Z M18.1305397,10.3778965 C18.1305397,10.3701935 18.1343407,10.3635409 18.1399487,10.3593976 C18.1541556,10.3509359 18.1656208,10.3565965 18.1785192,10.3593976 C18.1887381,10.3609148 18.1933492,10.3693181 18.1982094,10.3778382 C18.203942,10.3888675 18.2007642,10.4169369 18.2058736,10.4325764 C18.2102354,10.4437224 18.2232584,10.4462901 18.2230715,10.4558605 C18.2230715,10.475585 18.207556,10.4783861 18.1998918,10.4896488 C18.1850618,10.5046464 18.1633776,10.502779 18.1451828,10.4937338 C18.1077963,10.4727838 18.1287327,10.4161199 18.1305397,10.3778965 Z M17.8888992,10.7980618 C17.9448154,11.1360031 18.0387758,11.4709099 18.1149233,11.7828242 C17.999375,11.7490359 17.9015806,11.8456156 17.8654238,11.9710233 C17.8567533,11.860088 17.7413229,11.7731954 17.5965188,11.792453 C17.7202658,11.5345766 17.8473159,11.1420138 17.8888992,10.7980618 Z M12.3086628,6.72245842 C12.3253551,6.73640557 12.3251191,6.78653363 12.315151,6.82218932 C12.3065394,6.86502284 12.2800559,6.86408914 12.2600605,6.85428528 C12.2360543,6.8433143 12.2185952,6.81985507 12.2049111,6.79972215 C12.1943531,6.78793418 12.1935863,6.77369524 12.2049111,6.75461274 C12.2144074,6.72193321 12.2417167,6.70133344 12.2674334,6.69275507 C12.2933271,6.6865693 12.2880776,6.70757756 12.3086628,6.72245842 Z M12.5711976,6.43429505 C12.576978,6.4435737 12.5851177,6.44987618 12.5873001,6.46008853 C12.5942601,6.4871075 12.5937882,6.52223798 12.5873001,6.55334189 C12.5822865,6.57114055 12.5540335,6.58940607 12.5306761,6.57423344 C12.5122143,6.56086985 12.5000047,6.55135777 12.4852589,6.53408431 C12.4782399,6.52603114 12.4666202,6.52002044 12.4633171,6.50759055 C12.4604859,6.48850805 12.4588933,6.45956333 12.4633171,6.45040139 C12.4686846,6.44094767 12.4771192,6.43207751 12.4864975,6.42746737 C12.502541,6.418072 12.5250137,6.41778022 12.538108,6.41883063 C12.5530897,6.41999776 12.5622321,6.42466626 12.5711976,6.43429505 Z M12.7886454,6.71125401 C12.7882721,6.70360934 12.7917559,6.69684001 12.7973549,6.69246328 C12.8111035,6.68365148 12.8228613,6.68890355 12.835739,6.69129616 C12.8460037,6.69258 12.8509806,6.70080823 12.8560819,6.70921154 C12.8621163,6.72006581 12.859939,6.74819354 12.8655379,6.76365796 C12.8703904,6.7746873 12.8833924,6.77684648 12.8833924,6.78647527 C12.8841389,6.80614134 12.8688351,6.80940929 12.8615564,6.82090548 C12.8473102,6.83631154 12.8255364,6.83514442 12.807122,6.82656604 C12.769049,6.80678326 12.7881477,6.74947738 12.7886454,6.71125401 Z M12.5283167,5.2173913 C12.4881491,5.33153621 12.4616656,5.48116174 12.4343563,5.6129886 C12.4288708,5.64210839 12.4147738,5.66113255 12.3971378,5.68214081 C11.5028325,6.57195754 10.3979566,6.31361424 9.98642989,7.61846092 C9.93989204,7.72857924 10.000114,7.84581703 10.1997136,7.9545348 C10.219709,7.96603099 10.2356345,7.96112906 10.2353396,7.94087943 C10.1851448,6.5232884 12.1209188,6.62056833 12.5436524,5.63714811 C12.5482531,5.62699411 12.562586,5.6296785 12.5669508,5.63714811 C12.9225613,6.29336461 13.5119228,6.3781563 14.0494969,6.6852271 C14.4511735,6.91480076 14.7398969,7.12371628 14.8220017,7.77602291 C14.8250098,7.8066016 14.8335624,7.80094104 14.8495469,7.78565169 C14.9100048,7.71865867 15.0596455,7.68381997 15.0552808,7.58467263 C14.9251046,6.62243574 13.8521387,6.41602953 12.9929285,6.01990703 C12.9571256,5.99265464 12.9212047,5.96540225 12.8853429,5.93820822 C12.7056206,5.72771707 12.5687793,5.49067382 12.5283167,5.2173913 Z M12.5514972,7.16228979 C12.57338,7.51791303 12.5782166,7.6405196 12.6656889,7.94928274 C12.5582803,7.94764876 12.4751727,7.9475904 12.325591,7.94595643 C12.4072829,7.67518323 12.4370105,7.50297382 12.5514972,7.16228979 Z M6.97603843,10.4663063 C6.99273071,10.4802535 6.99249478,10.5304399 6.9825266,10.5660372 C6.97391503,10.6089291 6.94743151,10.6079954 6.92743616,10.5981915 C6.90342994,10.5872205 6.88597088,10.5637613 6.87228674,10.54357 C6.86172872,10.5317821 6.86096194,10.5175431 6.87228674,10.498519 C6.88184204,10.4657811 6.90909234,10.4452397 6.93480908,10.4366613 C6.96070276,10.4304755 6.95545324,10.4514838 6.97603843,10.4663063 Z M7.22736642,10.1347842 C7.23320577,10.1440045 7.24140445,10.150307 7.24358684,10.1605193 C7.25048789,10.1875967 7.25001602,10.2226688 7.24358684,10.2537727 C7.23845529,10.2716297 7.21026125,10.2898369 7.18684487,10.2747226 C7.16850105,10.2613006 7.15617353,10.2518469 7.1414277,10.2345151 C7.13446767,10.2265203 7.12278897,10.2205096 7.11954488,10.2080214 C7.11671368,10.1889388 7.11512113,10.1600525 7.11954488,10.1508905 C7.12485338,10.1413785 7.13340597,10.1325083 7.14272533,10.1278982 C7.1587688,10.1185612 7.18118247,10.1182694 7.19439474,10.1193198 C7.2093765,10.1204869 7.21845994,10.1250971 7.22736642,10.1347842 Z M7.4575725,10.4186876 C7.45751014,10.4110429 7.46125174,10.4043319 7.4669265,10.4001886 C7.48108221,10.3917853 7.49261881,10.3973875 7.50546496,10.4001886 C7.51575436,10.4017059 7.520369,10.4101092 7.52523308,10.4186292 C7.53103255,10.4296585 7.52778983,10.4577279 7.53290335,10.4733674 C7.53733091,10.4845135 7.55030179,10.4870811 7.55005235,10.4967099 C7.55005235,10.516376 7.53464943,10.5191771 7.5269168,10.5304399 C7.51207512,10.5454374 7.49037385,10.5436284 7.47210238,10.5345248 C7.43474875,10.5135749 7.45576406,10.4569693 7.4575725,10.4186876 Z M7.92460843,13.4674537 C7.93439966,13.4819844 7.92354673,13.4935389 7.90838801,13.4947644 C6.56286017,13.6761358 6.06380217,12.8069188 6.00127983,12.1604478 C5.92707879,11.3935878 5.94447888,10.5666791 5.2173913,10.2301384 C6.24187285,10.3933026 6.45757491,9.40807331 7.2539679,8.8518795 C7.26641339,8.84230906 7.27679446,8.84149208 7.28634976,8.8518795 C7.31377701,8.88852725 7.34155816,8.92266568 7.37222949,8.95324437 C7.38561871,8.96409864 7.38355429,8.98020498 7.37222949,8.98703267 C6.82816721,9.60642635 6.31607389,10.1899893 5.63729367,10.3186065 C5.6060325,10.3238002 5.61429017,10.3306863 5.62355055,10.3547874 C5.75113151,10.5933479 5.95969658,10.7940936 6.01113005,11.1114935 C6.23255349,12.2084167 6.41221673,13.1762558 7.47751475,13.3742003 C7.54876661,13.3859299 7.83872869,13.346306 7.92460843,13.4674537 Z M7.24771567,10.8995434 C7.30357289,11.2374263 7.39759233,11.5723331 7.47368083,11.8843058 C7.35813247,11.8505175 7.26039709,11.9470388 7.2242403,12.0723882 C7.21556975,11.9615112 7.1000214,11.874677 6.95533528,11.8939346 C7.07908232,11.6359998 7.20607344,11.243437 7.24771567,10.8995434 Z M9.29827132,15.9215108 C9.31496361,15.9355163 9.31472767,15.9856444 9.30475949,16.0212417 C9.29608894,16.0641919 9.2696644,16.0631999 9.24966905,16.053396 C9.22560385,16.0424834 9.20820377,16.0189658 9.19451963,15.9988329 C9.18396162,15.9869865 9.18319483,15.9727476 9.19451963,15.9537235 C9.20401595,15.9210439 9.23132524,15.9004442 9.25704197,15.8919241 C9.28293565,15.88568 9.27768614,15.9066883 9.29827132,15.9215108 Z M9.55909563,15.6127476 C9.56493498,15.6220263 9.57307468,15.6283288 9.57525706,15.6384828 C9.58215811,15.6656184 9.58168625,15.7006906 9.57525706,15.7317361 C9.57012551,15.7495932 9.54193148,15.7678587 9.51857408,15.752686 C9.50017128,15.7393224 9.48790274,15.7298687 9.47315691,15.7125369 C9.46619688,15.7045421 9.45451818,15.698473 9.45127409,15.6860432 C9.44838391,15.6669606 9.44679136,15.6380743 9.45127409,15.628854 C9.45652361,15.6194003 9.46507619,15.6105301 9.47445454,15.60592 C9.49049801,15.5965246 9.51291168,15.5962912 9.52612395,15.5973416 C9.54104673,15.5984504 9.55013016,15.6031189 9.55909563,15.6127476 Z M9.7927228,15.8813617 C9.79266043,15.8736586 9.79640232,15.867006 9.80213989,15.8628044 C9.8162967,15.8544011 9.82783419,15.8600616 9.84068134,15.8628044 C9.85090917,15.86438 9.85558653,15.8727249 9.86045098,15.8813617 C9.86618854,15.8922743 9.86294557,15.920402 9.86812185,15.9359831 C9.87254976,15.9471876 9.88552164,15.9497552 9.88520981,15.9593257 C9.88520981,15.9790501 9.8698057,15.9818512 9.86213483,15.993114 C9.84729201,16.0081115 9.82558905,16.0062441 9.80731616,15.9971405 C9.76989728,15.976249 9.79091422,15.9195267 9.7927228,15.8813617 Z M11.4753462,17.8835077 C11.4978189,17.8524621 11.518581,17.8438837 11.5547378,17.8578309 C11.6038709,17.876855 11.6546556,17.8990888 11.7021961,17.9318267 C11.7221915,17.9510843 11.7413611,17.962347 11.7280898,17.980029 C10.7484356,19.3963362 9.0421067,17.5600971 8.07814205,18.6956522 C8.32404357,18.0033131 8.09412653,17.6495573 7.57666573,16.7883935 C6.88661969,15.8234722 7.13204935,14.7272493 8.36521394,14.255497 C8.39547239,14.2431838 8.41192874,14.2477356 8.41706029,14.271545 C8.43729158,14.3423312 8.45109368,14.4098494 8.45593031,14.47906 C8.45752286,14.4988428 8.44295398,14.5058455 8.43646581,14.5192091 C6.93404229,15.1974843 7.5590887,16.3137234 7.6433169,16.5125433 C7.91287074,17.0969232 8.33814059,17.5473754 8.28877154,18.2550622 C8.28175252,18.3107341 8.32333577,18.3238642 8.35040912,18.3240977 C8.45085774,18.3324426 8.54717753,18.2901343 8.64190477,18.2422238 C8.67104253,18.2268177 8.75987144,18.2128122 8.78977599,18.2127539 C9.77355904,18.209836 11.0747314,18.3013971 11.4753462,17.8835077 Z M9.54039791,16.3343232 C9.59631411,16.6722645 9.69033355,17.0071129 9.76642205,17.3190856 C9.6508737,17.285239 9.55313831,17.3818186 9.51692255,17.5072263 C9.50831098,17.396291 9.39276262,17.3094568 9.2480765,17.3287144 C9.37176456,17.0707796 9.49881466,16.6782168 9.54039791,16.3343232 Z M15.4009231,15.9116486 C15.4176154,15.9256541 15.4173795,15.9757238 15.4073523,16.0113795 C15.3987407,16.0542714 15.3723162,16.0532793 15.3522619,16.0435338 C15.3281967,16.0325628 15.3107966,16.0090452 15.2971125,15.9889707 C15.2866134,15.977066 15.2857877,15.9628854 15.2971125,15.9438029 C15.3066678,15.9111817 15.333977,15.8905236 15.3596348,15.8820036 C15.3855875,15.8758178 15.380279,15.8967677 15.4009231,15.9116486 Z M15.6684125,15.5881213 C15.6742519,15.5974583 15.6824506,15.6037024 15.684633,15.6139148 C15.691534,15.6409921 15.6911211,15.6760642 15.684633,15.7071098 C15.6794424,15.7249668 15.6513664,15.7432323 15.62795,15.7280597 C15.6095472,15.7146961 15.5973376,15.7052424 15.5825918,15.6879106 C15.5755728,15.6799157 15.5638941,15.673905 15.560591,15.6614168 C15.5578188,15.6423343 15.5561673,15.6134479 15.560591,15.6042276 C15.5658995,15.5947739 15.5743931,15.5859038 15.5838304,15.5812936 C15.5998739,15.5719566 15.6223466,15.5716648 15.6354409,15.5727152 C15.6504226,15.573824 15.6595061,15.5784925 15.6684125,15.5881213 Z M15.8884737,15.8635046 C15.8884737,15.85586 15.8921537,15.8492073 15.897892,15.845064 C15.9119883,15.8366024 15.9235896,15.8422629 15.9365008,15.845064 C15.94673,15.8465813 15.9513456,15.8549846 15.9562106,15.8635046 C15.9619489,15.874534 15.9586432,15.9026033 15.9638825,15.9182428 C15.968311,15.9293889 15.9813469,15.9319566 15.9809727,15.941527 C15.9809727,15.9612514 15.9656289,15.9640525 15.9579571,15.9753153 C15.94305,15.9903129 15.9212818,15.9884455 15.9030066,15.9793419 C15.8657076,15.9584503 15.8866649,15.901728 15.8884737,15.8635046 Z M15.6592111,16.3253363 C15.7151863,16.6632193 15.8092058,16.998126 15.8852353,17.3100987 C15.7696869,17.2762521 15.6719515,17.3727734 15.6357948,17.4982394 C15.6271832,17.3873041 15.5116348,17.3004116 15.3668897,17.3196692 C15.4906368,17.0617927 15.6175689,16.66923 15.6592111,16.3253363 Z M16.5317516,14.2602239 C16.5351727,14.2515288 16.5432534,14.2433589 16.5536344,14.2481441 C17.454251,14.6075022 18.2837336,15.3400487 17.5741641,16.5325595 C17.2550643,17.126043 16.689768,17.7869864 16.976545,18.467304 C15.7535255,17.8014004 14.3300807,19.3800548 13.3656442,18.042762 C13.3429356,18.0151595 13.341461,17.9988197 13.3609255,17.9720342 C13.3904172,17.9277417 13.4205576,17.8940118 13.4613741,17.8634915 C13.4991234,17.8353054 13.6018134,17.8441755 13.6872803,17.9357949 C14.6143214,19.0024896 15.592383,18.0140507 16.7237424,18.2292687 C16.7455662,18.2330619 16.7847312,18.2255339 16.7849081,18.1979314 C16.7869135,18.0802851 16.7693955,17.983472 16.7870315,17.8706693 C16.7956431,17.7652195 16.9109555,17.5237411 16.958673,17.4429177 C17.4196868,16.6490387 18.2880984,15.2963398 16.5212526,14.5818838 C16.4229864,14.5507799 16.4250508,14.4956332 16.4499417,14.430741 C16.477251,14.3739019 16.5043244,14.3172963 16.5317516,14.2602239 Z M19.5472746,10.0548361 C19.5644978,10.0525602 19.5741121,10.0805129 19.5537038,10.0951019 C18.7587854,10.6644259 19.1820498,11.7066109 18.9573233,12.4400328 C18.7835584,13.0990504 18.2016878,13.4090974 17.2696921,13.3508578 C17.2637348,13.3503909 17.2538256,13.3432131 17.2555361,13.3367939 C17.3088571,13.1470776 17.5989371,13.184484 17.8868348,13.1055863 C19.4370938,12.5617057 18.4987869,11.1332604 19.2847988,10.218934 C19.2993087,10.2046367 19.2971263,10.1800103 19.2686963,10.1738246 C18.6070803,10.0248993 17.8484956,9.17482321 17.5951622,9.02263001 C17.5825987,9.01469355 17.5821269,9.00477298 17.5829526,8.9928683 C17.5857248,8.93608762 17.5973446,8.85030388 17.6104978,8.83448932 C17.6164552,8.82719478 17.623946,8.82521067 17.631201,8.83005424 C18.2276995,9.2929947 18.7433908,10.1354845 19.5472746,10.0548361 L19.5472746,10.0548361 Z" id="Fill-20" fill="#005093"></path>
                        <g id="Group-24">
                            <mask id="mask-4" fill="white">
                                <use xlink:href="#path-3"></use>
                            </mask>
                            <g id="Clip-22"></g>
                            <path d="M8.00510563,6.50076291 C7.99730047,6.49730047 7.99800469,6.48738263 8.00181925,6.48485915 C9.1149061,5.56355634 10.7876174,5.01032864 12.197007,5.05076291 C12.2139671,5.05164319 12.2128521,5.06666667 12.2208333,5.0745892 C12.0367371,6.25528169 10.0588615,5.80539906 9.73996479,7.42494131 C9.73521127,7.44618545 9.72693662,7.45088028 9.70287559,7.43785211 C9.04424883,7.06883803 8.62183099,6.74524648 8.00510563,6.50076291 Z M7.38333333,6.9995892 C7.12769953,7.5278169 7.15093897,7.94776995 7.19671362,8.44859155 C7.19730047,8.45880282 7.18867371,8.46414319 7.17975352,8.46883803 C6.5342723,8.87769953 6.25950704,9.97558685 5.41737089,9.89929577 C5.40205399,9.89794601 5.39571596,9.89248826 5.4,9.88122066 C5.78456573,8.75991784 6.52235915,7.76279343 7.38333333,6.9995892 Z M7.86760563,18.5177817 C5.19254695,16.5608568 4.33544601,12.856338 5.20745305,10.4734155 C5.22071596,10.4421948 5.23568075,10.4448944 5.25217136,10.4548122 C6.24659624,11.0125587 5.42106808,12.1429577 6.02329812,12.9836268 C6.35974178,13.4789319 6.80680751,13.6644366 7.27453052,13.7685446 C7.5850939,13.7823944 7.92811033,13.7558099 8.23303991,13.717723 C8.26473005,13.7130282 8.25956573,13.7373826 8.2653169,13.7499413 C8.28620892,13.7963028 8.30715962,13.842723 8.32811033,13.8890845 C8.33785211,13.9069249 8.33280516,13.9178404 8.31519953,13.9231221 C6.95311033,14.5462441 6.48497653,15.5065141 7.32834507,16.9070423 C7.57323944,17.3296362 7.82969484,17.7635563 7.92805164,18.1942488 C7.93732394,18.2274061 7.93937793,18.2637911 7.92805164,18.2913146 C7.89712441,18.3622066 7.86784038,18.4666667 7.86760563,18.5177817 Z M16.7396127,18.727993 C14.1136737,20.5289319 10.6155516,20.479284 8.34583333,18.8428404 C8.78204225,18.4109155 9.30833333,18.5642019 9.84747653,18.6853286 C10.5737089,18.8701291 11.595716,18.8877934 12.026115,18.159507 C12.0373826,18.1424296 12.0542254,18.1317488 12.0828638,18.1458333 C12.3226526,18.2805751 12.7493545,18.2180164 13.0197183,18.0891432 C13.0391432,18.0775822 13.0519366,18.0967136 13.0681338,18.1004695 C13.7667254,19.0612089 14.6335681,18.9323944 15.2503521,18.7892606 C15.7947183,18.6627934 16.2442488,18.4939554 16.7396127,18.727993 Z M17.7708333,7.23884977 C18.4235915,7.83908451 19.1407864,8.86637324 19.390669,9.7334507 C19.3952465,9.74571596 19.3817488,9.74460094 19.3731221,9.7411385 C18.6535211,9.70316901 18.3176056,8.73039906 17.6951878,8.3975939 C17.6757042,8.38415493 17.6754695,8.37188967 17.6797535,8.355223 C17.7833333,7.99571596 17.8188967,7.62734742 17.7708333,7.23884977 Z M19.6213028,10.3019953 C20.5154343,13.3893779 19.5687793,16.3295775 17.2664319,18.3204225 C17.0957746,17.3483568 18.1724765,16.6592723 18.1432512,15.6357394 C18.1298709,14.7769366 17.3203052,14.2190728 16.7202465,13.9619131 C16.7058099,13.9561033 16.6943662,13.9474765 16.6944836,13.9360329 C16.6909038,13.2798709 17.3048122,13.6090376 17.7375,13.6072183 C17.8921362,13.6065141 18.0573944,13.5484742 18.2286385,13.49777 C20.1718897,12.6704225 18.7390258,11.1871479 19.6213028,10.3019953 Z M12.8875587,5.05076291 C12.8735915,5.0508216 12.8690141,5.05481221 12.8698357,5.07658451 C12.7866197,5.2846831 13.0289319,5.50252347 13.1712441,5.64266432 C13.1845657,5.6556338 13.2089789,5.66995305 13.2257042,5.67734742 C14.108392,6.03644366 15.0839202,6.30234742 15.297946,7.31737089 C15.3018192,7.33303991 15.3050469,7.34360329 15.3213028,7.32951878 C15.7914906,7.01778169 16.2588028,6.70088028 16.7346831,6.40117371 C16.7588615,6.39078638 16.7500587,6.37875587 16.7346831,6.36883803 C15.6590962,5.60399061 14.3158451,5.10721831 12.8875587,5.05076291 L12.8875587,5.05076291 Z" id="Fill-21" fill="#005093" mask="url(#mask-4)"></path>
                            <path d="M12.4764671,0.0471244131 C5.58703052,0.0471244131 0,5.63415493 0,12.5235329 C0,19.4129108 5.58703052,25 12.4764671,25 C19.3657864,25 24.9528169,19.4129108 24.9528169,12.5235329 C24.9528169,5.63415493 19.3657864,0.0471244131 12.4764671,0.0471244131 Z M12.332277,1.13685446 C6.04465962,1.21649061 1.01015258,6.38010563 1.08973005,12.6676643 C1.1693662,18.9553404 6.33298122,23.9898474 12.6205399,23.9102113 C18.9080986,23.8306338 23.9426643,18.6670775 23.8631455,12.3794014 C23.7835094,6.09178404 18.6198357,1.05733568 12.332277,1.13685446 Z M1.22998826,12.6659038 C1.15140845,6.45575117 6.12394366,1.35580986 12.3340962,1.27711268 C18.5441901,1.19853286 23.6441901,6.17106808 23.7228286,12.3812207 C23.8013498,18.5913146 18.8289319,23.6913732 12.6187793,23.7699531 C6.40862676,23.8485329 1.30862676,18.8760563 1.22998826,12.6659038 Z M0.809213615,12.5235329 C0.809213615,6.08098592 6.0338615,0.856338028 12.4764671,0.856338028 C18.9190141,0.856338028 24.1436033,6.08098592 24.1436033,12.5235329 C24.1436033,18.9660798 18.9190141,24.1907864 12.4764671,24.1907864 C6.0338615,24.1907864 0.809213615,18.9660798 0.809213615,12.5235329 L0.809213615,12.5235329 Z" id="Fill-23" fill="#005093" mask="url(#mask-4)"></path>
                        </g>
                        <path d="M19.1025231,14.5403905 C19.1296674,14.5432598 19.1390703,14.523115 19.1215064,14.5008779 C18.8481116,14.1582963 18.386185,13.9791448 18.0819794,13.923074 C18.0356152,13.9098633 17.9910843,13.9107002 17.9422955,13.9197863 C17.8749965,13.9321601 17.7953968,13.9782481 17.770204,14.0367698 C17.7361406,14.1290056 17.7800209,14.1660673 17.8286323,14.204743 C18.1703315,14.4766085 18.663542,14.5272994 19.1025231,14.5403905 Z M6.09761335,14.6710031 C6.0730711,14.6944955 6.09672628,14.7099777 6.1106237,14.7088419 C6.46616109,14.6940172 6.85422436,14.6824803 7.18705278,14.4666855 C7.34495112,14.3565764 7.35997216,14.21359 7.27593713,14.1116703 C7.26168488,14.0982802 7.24287901,14.0986389 7.222299,14.0960685 C6.82790797,14.0603817 6.4432747,14.3508378 6.09761335,14.6710031 Z M12.9106016,18.4599048 C12.8621085,18.4041329 12.817755,18.3640226 12.7383919,18.3543985 C12.704565,18.3500348 12.6878289,18.3497957 12.6638189,18.3708969 C12.3780643,18.7035556 12.6037348,19.1313792 12.7362038,19.5537033 C12.7412896,19.5709788 12.7509883,19.5672129 12.7536495,19.552986 C12.8675492,19.2527862 12.9260958,18.9065581 12.9392835,18.5636178 C12.9435415,18.5257192 12.9339611,18.4911084 12.9106016,18.4599048 L12.9106016,18.4599048 Z" id="Fill-25" fill="#FFFFFF"></path>
                    </g>
                </g>
            </g>
        </g>
    </g>
</svg>