<?xml version="1.0" encoding="UTF-8" standalone="no"?>
<svg width="50px" height="50px" viewBox="0 0 50 50" version="1.1" xmlns="http://www.w3.org/2000/svg" xmlns:xlink="http://www.w3.org/1999/xlink">
    <!-- Generator: Sketch 42 (36781) - http://www.bohemiancoding.com/sketch -->
    <title>premier-league-new-seeklogo.com</title>
    <desc>Created with Sketch.</desc>
    <defs>
        <polygon id="path-1" points="0 49.9781022 49.8653285 49.9781022 49.8653285 0.0821167883 0 0.0821167883"></polygon>
    </defs>
    <g id="Page-1" stroke="none" stroke-width="1" fill="none" fill-rule="evenodd">
        <g id="home_groups" transform="translate(-16.000000, -284.000000)">
            <g id="groups" transform="translate(15.000000, 202.000000)">
                <g id="group2" transform="translate(1.000000, 80.000000)">
                    <g id="premier-league-new-seeklogo.com" transform="translate(0.000000, 2.000000)">
                        <g id="Group-4">
                            <mask id="mask-2" fill="white">
                                <use xlink:href="#path-1"></use>
                            </mask>
                            <g id="Clip-2"></g>
                            <path d="M13.5653285,3.25 C13.3375912,3.35547445 13.2076642,3.40036496 13.0937956,3.47080292 C10.8693431,4.84562044 8.87737226,6.49854015 7.18467153,8.49489051 C4.10766423,12.1240876 2.34489051,16.3182482 1.94635036,21.0565693 C1.6689781,24.3558394 1.70291971,27.6478102 2.57007299,30.8817518 C6.50109489,45.5405109 22.9193431,52.5211679 36.2091241,45.1821168 C36.3375912,45.1113139 36.4718978,45.05 36.690146,44.9405109 C36.5328467,45.6233577 36.3992701,46.2014599 36.2434307,46.8788321 C36.4861314,46.7675182 36.6211679,46.7233577 36.7375912,46.65 C40.5890511,44.2244526 43.6656934,41.0726277 45.6667883,36.9540146 C48.320438,31.4927007 48.7058394,25.7244526 47.4408759,19.9021898 C44.1850365,4.91861314 27.3065693,-2.67737226 13.8419708,4.67773723 C13.649635,4.78284672 13.4540146,4.8810219 13.1562044,5.03686131 C13.3054745,4.38467153 13.4233577,3.87007299 13.5653285,3.25 Z M24.9317518,0.0821167883 C38.6671533,0.0693430657 49.8452555,11.2686131 49.8653285,25.0635036 C49.8857664,38.8419708 38.6722628,49.9916058 24.7861314,50 C11.1693431,50.0080292 0.00218978102,38.7689781 0,25.0543796 C-0.00218978102,11.2729927 11.1580292,0.0948905109 24.9317518,0.0821167883 L24.9317518,0.0821167883 Z" id="Fill-1" fill="#291B3D" mask="url(#mask-2)"></path>
                            <path d="M13.6014599,3.25 C13.4594891,3.87007299 13.3416058,4.38467153 13.1923358,5.03686131 C13.490146,4.8810219 13.6857664,4.78284672 13.8781022,4.67773723 C27.3427007,-2.67737226 44.2211679,4.91861314 47.4766423,19.9021898 C48.7419708,25.7244526 48.3565693,31.4927007 45.7029197,36.9540146 C43.7018248,41.0726277 40.6251825,44.2244526 36.7737226,46.65 C36.6569343,46.7233577 36.5222628,46.7675182 36.2791971,46.8788321 C36.4354015,46.2014599 36.5686131,45.6233577 36.7262774,44.9405109 C36.5076642,45.05 36.3737226,45.1113139 36.2452555,45.1821168 C22.9554745,52.5211679 6.53722628,45.5405109 2.60620438,30.8817518 C1.73868613,27.6478102 1.70510949,24.3558394 1.98248175,21.0565693 C2.3810219,16.3182482 4.14379562,12.1240876 7.22080292,8.49489051 C8.91350365,6.49854015 10.9054745,4.84562044 13.129927,3.47080292 C13.2437956,3.40036496 13.3737226,3.35547445 13.6014599,3.25" id="Fill-3" fill="#FFFFFF" mask="url(#mask-2)"></path>
                        </g>
                        <path d="M33.7113139,21.6514599 C33.3178832,21.9226277 33.000365,22.1273723 32.7007299,22.3558394 C32.5978102,22.4339416 32.4981752,22.5613139 32.4682482,22.6835766 C32.1226277,24.0952555 32.9748175,25.0127737 33.8448905,26.0135036 C34.4645985,24.5072993 34.2740876,23.1120438 33.7113139,21.6514599 Z M28.2908759,27.9029197 C28.4529197,28.2145985 28.6930657,28.630292 28.8883212,29.0660584 C29.0313869,29.3854015 29.2193431,29.4572993 29.5211679,29.3058394 C30.0733577,29.0288321 30.6277372,28.7562044 31.2463504,28.449635 C31.319708,29.030292 31.3919708,29.6047445 31.4660584,30.1919708 C31.5467153,30.1748175 31.6080292,30.179562 31.6437956,30.1518248 C32.4791971,29.5007299 33.0167883,28.6222628 33.0883212,27.6 C33.1215328,27.1251825 32.7890511,26.4394161 32.4010949,26.1777372 C32.0711679,25.9551095 31.3543796,26.0642336 30.9306569,26.2737226 C30.0281022,26.7193431 29.2047445,27.3255474 28.2908759,27.9029197 Z M25.9686131,23.5419708 C26.4051095,24.3660584 26.8383212,25.1321168 27.2182482,25.9237226 C27.4051095,26.3127737 27.6459854,26.3956204 28.0343066,26.3010949 C29.3211679,25.9883212 30.310219,25.1788321 31.3021898,24.3715328 C31.3536496,24.329562 31.4083942,24.2543796 31.4091241,24.1941606 C31.4153285,23.6551095 31.4872263,23.0981752 31.3708029,22.5850365 C31.3229927,22.3718978 30.8649635,22.2525547 30.5941606,22.0890511 C30.4248175,21.9864964 30.2693431,21.8416058 30.0861314,21.7864964 C29.8310219,21.709854 29.5313869,21.6105839 29.2934307,21.6755474 C28.0572993,22.0135036 27.0222628,22.7281022 25.9686131,23.5419708 Z M30.0138686,38.5321168 C29.8434307,37.9160584 29.6974453,37.3875912 29.580292,36.9635036 C28.3521898,37.4686131 27.2072993,38.0518248 25.9959854,38.4124088 C23.820438,39.059854 21.6562044,38.9226277 19.5572993,37.9821168 C19.1116788,37.7824818 18.9956204,37.5558394 19.0970803,37.0781022 C19.5427007,34.979562 19.7062044,32.870438 19.170073,30.7572993 C19.1390511,30.6350365 19.1054745,30.5135036 19.0645985,30.3945255 C19.0489051,30.3492701 19.0094891,30.3120438 18.9226277,30.1875912 C17.8109489,31.780292 16.6693431,33.2956204 15.0781022,34.5354015 C13.8332117,31.8237226 13.8383212,29.050365 14.1916058,26.1529197 C13.4328467,26.3766423 12.7255474,26.5850365 11.9270073,26.820073 C12.2131387,24.2817518 13.1689781,22.1094891 14.6624088,20.0656934 C14.1839416,19.9715328 13.7722628,19.8905109 13.2978102,19.7970803 C14.2507299,17.8653285 15.5569343,16.2850365 17.339781,14.9248175 C17.0386861,16.3142336 17.1105839,17.4846715 18.3390511,18.3007299 C18.2434307,17.8919708 18.1189781,17.4875912 18.0613139,17.0733577 C18.0175182,16.7587591 18.0120438,16.4233577 18.0693431,16.1120438 C18.2828467,14.9507299 19.1416058,14.4540146 20.2689781,14.8138686 C20.4821168,14.8821168 20.6890511,14.970438 21.0171533,15.0937956 C20.7007299,14.279562 20.1284672,13.9463504 19.4912409,13.6817518 C19.4839416,13.6237226 19.4766423,13.5660584 19.469708,13.5080292 C20.5244526,13.1777372 21.5624088,12.770073 22.6386861,12.5405109 C23.6,12.3350365 24.6036496,12.3284672 25.5883212,12.229562 C26.5237226,12.1357664 27.2686131,12.5029197 27.9007299,13.1631387 C28.1182482,13.3905109 28.3540146,13.600365 28.5813869,13.8182482 C28.6281022,13.7956204 28.6751825,13.7726277 28.7222628,13.75 C28.6470803,13.3967153 28.5715328,13.0434307 28.4861314,12.6408759 C28.6036496,12.6518248 28.7193431,12.6463504 28.8251825,12.6755474 C29.9635036,12.9912409 31.0350365,13.4489051 31.9631387,14.1963504 C32.1153285,14.3186131 32.3145985,14.4510949 32.3664234,14.6178832 C32.5978102,15.3645985 32.7835766,16.1255474 32.9693431,16.820438 C31.9087591,16.0839416 30.810219,15.3211679 29.6529197,14.5178832 C29.4737226,15.0828467 29.3467153,15.4821168 29.209854,15.9124088 C28.3886861,15.4124088 27.6551095,14.9237226 26.8791971,14.5149635 C26.5908759,14.3631387 26.1886861,14.3083942 25.8649635,14.3638686 C24.570073,14.5857664 23.3748175,15.0678832 22.2854015,15.9693431 C22.4824818,16.109854 22.6678832,16.2419708 22.9379562,16.4346715 C22.1248175,16.8383212 21.4383212,17.2032847 20.8788321,18.0058394 C21.8412409,17.8525547 21.9507299,18.4722628 22.2259124,19.0379562 C22.6861314,19.9839416 23.5562044,20.4580292 24.5948905,20.4959854 C25.8664234,20.5427007 27.1405109,20.5072993 28.4664234,20.5072993 C28.0908759,20.1222628 27.6616788,19.7105839 27.2660584,19.2693431 C26.8189781,18.770073 26.2791971,18.5927007 25.6229927,18.6481752 C24.6934307,18.7270073 23.8423358,18.5051095 23.0970803,17.9175182 C24.1160584,16.7018248 25.0678832,16.6718978 27.129927,17.7642336 C27.470073,17.5894161 27.7981752,17.4208029 28.1255474,17.2529197 C28.1733577,17.3448905 28.2091241,17.3835766 28.2007299,17.4010949 C27.7635036,18.3248175 27.770073,18.3178832 28.4930657,19.0583942 C28.9317518,19.5083942 29.3456204,19.9824818 29.739781,20.4120438 C30.2956204,20.3153285 30.8379562,20.1664234 31.3861314,20.1408759 C31.9335766,20.1156934 32.4868613,20.2145985 33.0883212,20.2631387 C32.2708029,19.4040146 31.4806569,18.5737226 30.6905109,17.7434307 C30.7445255,17.6759124 30.7985401,17.6083942 30.8525547,17.5412409 C31.15,17.7113139 31.4470803,17.8810219 31.7645985,18.0627737 C32.1211679,17.9905109 32.3521898,17.2667883 32.8631387,17.7562044 C33.2437956,18.120073 33.2091241,18.4985401 32.8248175,18.9452555 C33.1255474,19.2631387 33.4277372,19.5828467 33.7905109,19.9667883 C33.8693431,19.7270073 33.9160584,19.5857664 33.9605839,19.450365 C34.0153285,19.4551095 34.0656934,19.4452555 34.0777372,19.4624088 C36.710219,23.1879562 37.4551095,27.210219 35.9923358,31.6861314 C35.6240876,31.2992701 35.3127737,30.9715328 34.9065693,30.5441606 C34.6514599,32.2543796 34.2240876,33.7627737 33.3751825,35.1244526 C32.5237226,36.490146 31.4229927,37.6043796 30.0138686,38.5321168 L30.0138686,38.5321168 Z" id="Fill-5" fill="#291B3D"></path>
                        <path d="M27.8072993,7.19489051 C27.8934307,8.2959854 27.9653285,9.22080292 28.0492701,10.2978102 C28.6722628,9.61605839 29.1948905,9.04416058 29.7178832,8.47189781 C29.7576642,8.51094891 29.7970803,8.54963504 29.8364964,8.58868613 C29.6014599,9.66386861 29.3664234,10.7390511 29.1226277,11.8547445 C25.4660584,10.9467153 21.9518248,11.330292 18.6222628,13.1467153 C18.1313869,12.1025547 17.6529197,11.0846715 17.0908759,9.88868613 C17.8631387,10.3733577 18.520438,10.7854015 19.2748175,11.2587591 C19.1186131,10.229562 18.9773723,9.29963504 18.8131387,8.21678832 C19.9686131,9.0120438 21.009854,9.72919708 22.1156934,10.490146 C22.4948905,9.39489051 22.8518248,8.36459854 23.2562044,7.19635036 C23.8981752,8.2189781 24.4813869,9.14854015 25.1124088,10.1536496 C26.0094891,9.16861314 26.8591241,8.23613139 27.8072993,7.19489051" id="Fill-6" fill="#291B3D"></path>
                        <path d="M5.3,31.7912409 C5.21642336,31.5788321 5.15912409,31.4328467 5.08065693,31.2328467 C5.76094891,30.9521898 6.41970803,30.680292 7.14671533,30.380292 C7.37481752,30.9784672 7.59051095,31.5437956 7.84854015,32.220438 C7.94270073,32.429562 8.18540146,32.7437956 8.20875912,33.0737226 C8.24124088,33.5354015 7.82007299,33.7109489 7.43759124,33.8572993 C7.08686131,33.9912409 6.7419708,34.1394161 6.34890511,34.3 C6.26715328,34.1135036 6.19927007,33.9583942 6.10729927,33.7485401 C6.52518248,33.5755474 6.91934307,33.4481752 7.2729927,33.2485401 C7.41824818,33.1664234 7.47591241,32.9291971 7.57335766,32.7627737 C7.37919708,32.7018248 7.1649635,32.5565693 6.99489051,32.5967153 C6.61532847,32.6868613 6.25766423,32.8689781 5.84416058,33.0321168 C5.76350365,32.8693431 5.68868613,32.7189781 5.58649635,32.5124088 C5.99781022,32.3339416 6.38941606,32.2040146 6.73467153,31.9963504 C6.88649635,31.9051095 6.94379562,31.6554745 7.04379562,31.4781022 C6.84452555,31.4281022 6.62591241,31.300365 6.45036496,31.3445255 C6.0729927,31.4390511 5.71824818,31.6222628 5.3,31.7912409" id="Fill-7" fill="#291B3D"></path>
                        <path d="M13.1368613,37.6255474 C13.3164234,37.7726277 13.4525547,37.8839416 13.6390511,38.0361314 C13.0576642,38.7635036 12.4912409,39.4718978 11.8824818,40.2339416 C12.2423358,40.5339416 12.5937956,40.8270073 12.9923358,41.1594891 C12.8751825,41.3116788 12.7620438,41.4580292 12.6215328,41.640146 C12.0671533,41.1923358 11.5427007,40.7682482 10.9755474,40.310219 C11.7014599,39.4083942 12.3956204,38.5463504 13.1368613,37.6255474" id="Fill-8" fill="#291B3D"></path>
                        <path d="M22.8620438,43.2883212 C23.3076642,43.2040146 23.4762774,43.3456204 23.3908759,43.7678832 C23.3408759,44.0145985 23.3226277,44.2678832 23.2813869,44.5164234 C23.170438,45.1861314 22.7018248,45.5587591 22.0781022,45.4788321 C21.409854,45.3927007 21.0547445,44.9748175 21.1040146,44.2919708 C21.1335766,43.8821168 21.2051095,43.4755474 21.2638686,43.0186131 C21.4726277,43.0525547 21.639781,43.079562 21.8514599,43.1138686 C21.7952555,43.529927 21.6912409,43.9047445 21.7167883,44.270438 C21.7313869,44.4791971 21.9145985,44.770438 22.0985401,44.8518248 C22.3945255,44.9824818 22.6080292,44.7547445 22.6689781,44.4489051 C22.7456204,44.0642336 22.7989051,43.6748175 22.8620438,43.2883212" id="Fill-9" fill="#291B3D"></path>
                        <path d="M6.12408759,27.8284672 C5.81277372,26.6408759 4.93978102,27.4262774 4.28978102,27.1919708 C4.2729927,27.0817518 4.24817518,26.9167883 4.21423358,26.6919708 C4.9729927,26.6018248 5.69343066,26.5160584 6.41350365,26.430292 C6.47153285,26.8923358 6.52153285,27.2857664 6.57664234,27.7229927 C6.4620438,27.75 6.31313869,27.7846715 6.12408759,27.8284672" id="Fill-10" fill="#291B3D"></path>
                        <path d="M9.14671533,38.4018248 C9.04890511,38.279562 8.95109489,38.1569343 8.81970803,37.9927007 C9.37992701,37.5007299 9.91824818,37.0281022 10.4565693,36.5554745 C10.75,36.8817518 11.0339416,37.1974453 11.3711679,37.5718978 C11.2821168,37.649635 11.1664234,37.7514599 11.0259124,37.8744526 C10.1160584,37.029562 9.82518248,38.2087591 9.14671533,38.4018248" id="Fill-11" fill="#291B3D"></path>
                        <path d="M6.96678832,35.3142336 C6.86350365,35.1394161 6.77664234,34.9927007 6.65766423,34.7912409 C7.32080292,34.4167883 7.95109489,34.0609489 8.61167883,33.6879562 C8.71824818,33.8660584 8.80693431,34.0142336 8.9229927,34.2080292 C8.26532847,34.579927 7.63467153,34.9364964 6.96678832,35.3142336" id="Fill-12" fill="#291B3D"></path>
                        <path d="M9.39927007,33.0642336 C9.57226277,33.3244526 9.7540146,33.4777372 9.73722628,33.6043796 C9.71861314,33.7423358 9.51569343,33.8554745 9.39306569,33.9791971 C9.26824818,33.8536496 9.06240876,33.7390511 9.04306569,33.5992701 C9.02591241,33.4751825 9.21678832,33.3226277 9.39927007,33.0642336" id="Fill-13" fill="#291B3D"></path>
                        <path d="M25.9686131,23.5419708 C27.0222628,22.7281022 28.0572993,22.0135036 29.2934307,21.6755474 C29.5313869,21.6105839 29.8310219,21.709854 30.0861314,21.7864964 C30.2693431,21.8416058 30.4248175,21.9864964 30.5941606,22.0890511 C30.8649635,22.2525547 31.3229927,22.3718978 31.3708029,22.5850365 C31.4872263,23.0981752 31.4153285,23.6551095 31.4091241,24.1941606 C31.4083942,24.2543796 31.3536496,24.329562 31.3021898,24.3715328 C30.310219,25.1788321 29.3211679,25.9883212 28.0343066,26.3010949 C27.6459854,26.3956204 27.4051095,26.3127737 27.2182482,25.9237226 C26.8383212,25.1321168 26.4051095,24.3660584 25.9686131,23.5419708" id="Fill-14" fill="#FFFFFF"></path>
                        <path d="M28.2908759,27.9029197 C29.2047445,27.3255474 30.0281022,26.7193431 30.9306569,26.2737226 C31.3543796,26.0642336 32.0711679,25.9551095 32.4010949,26.1777372 C32.7890511,26.4394161 33.1215328,27.1251825 33.0883212,27.6 C33.0167883,28.6222628 32.4791971,29.5007299 31.6437956,30.1518248 C31.6080292,30.179562 31.5467153,30.1748175 31.4660584,30.1919708 C31.3919708,29.6047445 31.319708,29.030292 31.2463504,28.449635 C30.6277372,28.7562044 30.0733577,29.0288321 29.5211679,29.3058394 C29.2193431,29.4572993 29.0313869,29.3854015 28.8883212,29.0660584 C28.6930657,28.630292 28.4529197,28.2145985 28.2908759,27.9029197" id="Fill-15" fill="#FFFFFF"></path>
                        <path d="M33.7113139,21.6514599 C34.2740876,23.1120438 34.4645985,24.5072993 33.8448905,26.0135036 C32.9748175,25.0127737 32.1226277,24.0952555 32.4682482,22.6835766 C32.4981752,22.5613139 32.5978102,22.4339416 32.7007299,22.3558394 C33.000365,22.1273723 33.3178832,21.9226277 33.7113139,21.6514599" id="Fill-16" fill="#FFFFFF"></path>
                        <path d="M20.1978102,43.8770073 C19.9532847,44.0251825 19.719708,44.2708029 19.4624088,44.2989051 C19.0872263,44.340146 18.8875912,44.0375912 18.9113139,43.6675182 C18.9343066,43.3160584 19.1759124,43.0635036 19.5120438,43.1379562 C19.7678832,43.1945255 19.979562,43.450365 20.2113139,43.6175182 C20.2065693,43.7040146 20.2021898,43.7905109 20.1978102,43.8770073 Z M20.1386861,42.809854 C19.6854015,42.4558394 19.2478102,42.4580292 18.7919708,42.7259124 C18.3452555,42.9883212 18.1613139,43.5751825 18.320438,44.1043796 C18.4627737,44.5766423 18.8824818,44.8660584 19.4317518,44.869708 C19.5273723,44.870438 19.6226277,44.870073 19.7405109,44.870073 C19.4416058,45.5054745 19.0919708,45.4989051 18.289781,44.8718978 C18.1770073,44.9678832 18.0591241,45.0675182 17.9167883,45.1886861 C18.610219,46.1281022 19.8529197,46.1981752 20.2178832,45.329562 C20.5335766,44.5791971 20.7051095,43.7682482 20.9507299,42.9478102 C20.619708,42.8989051 20.3094891,42.9434307 20.1386861,42.809854 L20.1386861,42.809854 Z" id="Fill-17" fill="#291B3D"></path>
                        <path d="M6.73065693,25.329562 C6.67262774,25.4193431 6.27408759,25.4306569 6.20547445,25.3423358 C6.02992701,25.1156934 5.95218978,24.8127737 5.79452555,24.4448905 L7.05072993,24.4448905 C6.93759124,24.7857664 6.88576642,25.0912409 6.73065693,25.329562 Z M7.57737226,23.8014599 L4.18321168,23.8014599 L4.18321168,24.399635 C4.55985401,24.4164234 4.89562044,24.4317518 5.27627737,24.4489051 C5.29087591,24.7138686 5.29014599,24.9120438 5.31459854,25.1072993 C5.39051095,25.720073 5.84014599,26.1175182 6.44671533,26.119708 C7.02043796,26.1218978 7.50364964,25.7394161 7.56788321,25.1572993 C7.61642336,24.7193431 7.57737226,24.2718978 7.57737226,23.8014599 L7.57737226,23.8014599 Z" id="Fill-18" fill="#291B3D"></path>
                        <path d="M16.8912409,43.3306569 C16.6835766,43.3310219 16.3529197,43.0379562 16.2967153,42.8178832 C16.2120438,42.4846715 16.4638686,42.1514599 16.8321168,42.1810219 C17.0835766,42.2014599 17.3167883,42.449635 17.5580292,42.5956204 C17.5620438,42.6839416 17.5660584,42.7718978 17.570438,42.859854 C17.3437956,43.029562 17.1178832,43.3306569 16.8912409,43.3306569 Z M17.5974453,41.8919708 C17.2240876,41.5777372 16.8313869,41.4923358 16.3963504,41.649635 C15.9065693,41.8270073 15.6507299,42.2233577 15.6375912,42.7284672 C15.6255474,43.1843066 15.8083942,43.5919708 16.2529197,43.7824818 C16.6478102,43.9518248 17.070073,44.0565693 17.5372263,44.2083942 C17.8189781,43.5835766 18.1171533,42.9222628 18.4160584,42.2587591 C18.1069343,42.1259124 17.8043796,42.0656934 17.5974453,41.8919708 L17.5974453,41.8919708 Z" id="Fill-19" fill="#291B3D"></path>
                        <path d="M15.1021898,41.6051095 C14.7521898,41.3813869 14.4894161,41.2131387 14.2025547,41.029562 C14.7521898,40.7572993 15.0069343,40.9014599 15.1021898,41.6051095 Z M15.3361314,42.2306569 C15.7762774,41.6821168 15.7832117,41.129927 15.3813869,40.6992701 C14.9693431,40.2576642 14.2912409,40.1992701 13.8120438,40.5642336 C13.3277372,40.9324818 13.179562,41.6109489 13.4751825,42.1083942 C13.7872263,42.6343066 14.4109489,42.8569343 15.0722628,42.5631387 C14.8416058,42.4113139 14.6956204,42.2664234 14.5211679,42.210219 C14.1514599,42.0912409 13.8773723,41.9310219 13.9288321,41.4051095 C14.4215328,41.6941606 14.8642336,41.9540146 15.3361314,42.2306569 L15.3361314,42.2306569 Z" id="Fill-20" fill="#291B3D"></path>
                        <path d="M25.3452555,44.1748175 L24.3521898,44.1748175 C24.6989051,43.6872263 24.9153285,43.6839416 25.3452555,44.1748175 Z M25.2,45.0335766 C24.7850365,45.2368613 24.5525547,45.1160584 24.35,44.6543796 L25.9416058,44.6543796 C25.9485401,43.8383212 25.6375912,43.4065693 25.0357664,43.2912409 C24.520438,43.1923358 23.960219,43.4905109 23.7543796,43.9733577 C23.5270073,44.5076642 23.7058394,45.1569343 24.1649635,45.4624088 C24.6492701,45.7846715 25.3255474,45.6927007 25.7726277,45.2390511 C25.6587591,44.9565693 25.5160584,44.8788321 25.2,45.0335766 L25.2,45.0335766 Z" id="Fill-21" fill="#291B3D"></path>
                        <path d="M9.20218978,36.2766423 C9.03284672,36.0288321 8.86350365,35.7810219 8.69416058,35.5332117 C8.72481752,35.4890511 8.75510949,35.4448905 8.78576642,35.400365 C8.95948905,35.5018248 9.1850365,35.5660584 9.2919708,35.7153285 C9.39014599,35.8521898 9.36058394,36.0810219 9.38759124,36.2693431 C9.32591241,36.2718978 9.26386861,36.2740876 9.20218978,36.2766423 Z M9.85072993,35.5828467 C9.60839416,35.0427007 9.04854015,34.770438 8.47189781,34.9124088 C7.91240876,35.050365 7.53868613,35.5733577 7.58138686,36.1591241 C7.62518248,36.7605839 8.06277372,37.199635 8.84379562,37.2682482 C8.70583942,37.0266423 8.65109489,36.8244526 8.51861314,36.7175182 C8.11605839,36.3927007 8.04890511,36.1937956 8.31642336,35.7788321 C8.62846715,36.2076642 8.93175182,36.6248175 9.2540146,37.0682482 C9.90985401,36.629927 10.0963504,36.1306569 9.85072993,35.5828467 L9.85072993,35.5828467 Z" id="Fill-22" fill="#291B3D"></path>
                        <path d="M6.13686131,29.7521898 C6.05839416,29.4 5.99014599,29.0930657 5.91021898,28.7346715 C6.50985401,29.0124088 6.57007299,29.2846715 6.13686131,29.7521898 Z M6.95985401,29.2536496 C6.93430657,28.6890511 6.56131387,28.259854 6.01751825,28.170073 C5.42883212,28.0726277 4.88832117,28.3459854 4.68357664,28.8448905 C4.44635036,29.4222628 4.66167883,30.0456204 5.25729927,30.4386861 C5.3419708,30.3145985 5.4270073,30.189781 5.50912409,30.0693431 C5.20364964,29.6828467 4.92846715,29.3193431 5.44233577,28.8233577 C5.59489051,29.3890511 5.73211679,29.8981752 5.87810219,30.4408759 C6.66824818,30.2463504 6.98759124,29.8770073 6.95985401,29.2536496 L6.95985401,29.2536496 Z" id="Fill-23" fill="#291B3D"></path>
                    </g>
                </g>
            </g>
        </g>
    </g>
</svg>