<?xml version="1.0" encoding="UTF-8" standalone="no"?>
<svg width="50px" height="50px" viewBox="0 0 50 50" version="1.1" xmlns="http://www.w3.org/2000/svg" xmlns:xlink="http://www.w3.org/1999/xlink">
    <!-- Generator: Sketch 42 (36781) - http://www.bohemiancoding.com/sketch -->
    <title>united_crest</title>
    <desc>Created with Sketch.</desc>
    <defs>
        <polygon id="path-1" points="0.196317204 2.15053763 4.9963172 2.15053763 4.9963172 0.00384408602 0.196317204 0.00384408602"></polygon>
        <polygon id="path-3" points="0 0.181370968 0 9.12384409 8.94239247 9.12384409 8.94239247 0.181370968 2.18589148e-20 0.181370968"></polygon>
        <polygon id="path-5" points="0 49.8341398 49.1930108 49.8341398 49.1930108 0 0 0"></polygon>
    </defs>
    <g id="Page-1" stroke="none" stroke-width="1" fill="none" fill-rule="evenodd">
        <g id="home_groups" transform="translate(-17.000000, -364.000000)">
            <g id="groups" transform="translate(15.000000, 202.000000)">
                <g id="group3" transform="translate(1.000000, 160.000000)">
                    <g id="united_crest" transform="translate(1.000000, 2.000000)">
                        <g id="Group-3" transform="translate(22.043011, 47.683602)">
                            <mask id="mask-2" fill="white">
                                <use xlink:href="#path-1"></use>
                            </mask>
                            <g id="Clip-2"></g>
                            <path d="M4.99201613,0.132069892 C4.79658602,0.717553763 4.16083333,2.15061828 2.62669355,2.15061828 C0.883682796,2.15061828 0.27561828,0.262446237 0.246048387,0.185026882 L0.196317204,0.00384408602 C0.196317204,0.00384408602 1.69846774,0.128844086 2.52508065,0.128844086 C3.35169355,0.128844086 4.76486559,0.0484677419 4.9963172,0.00384408602 L4.99201613,0.132069892 Z" id="Fill-1" fill="#221F20" mask="url(#mask-2)"></path>
                        </g>
                        <path d="M31.6101613,46.8845161 L31.9698387,46.9326344 C31.542957,48.0460753 30.7757527,49.2947312 29.2682258,49.2947312 C27.8098925,49.2947312 27.0867742,48.4493011 26.778172,47.8807527 L26.526828,47.7261828 C26.526828,47.7261828 29.0491398,47.6431183 31.6101613,46.8845161" id="Fill-4" fill="#221F20"></path>
                        <path d="M17.7814247,46.8845161 L17.4214785,46.9326344 C17.8483602,48.0460753 18.6158333,49.2947312 20.1233602,49.2947312 C21.5816935,49.2947312 22.3695968,48.4022581 22.6929839,47.8807527 L22.8647581,47.7261828 C22.8647581,47.7261828 20.3427151,47.6431183 17.7814247,46.8845161" id="Fill-6" fill="#221F20"></path>
                        <path d="M25.8920161,47.9316935 C25.6562634,48.2738978 25.4981989,48.2575 25.2137903,48.2575 C25.0707796,48.2575 24.8568011,48.3760484 24.8635215,48.5902957 C24.8680914,48.7577688 25.0051882,48.8983602 25.2371774,48.8983602 C25.7522312,48.8983602 26.1444355,48.1781989 26.255457,47.8747043 C26.255457,47.8747043 26.5592204,47.8612634 26.6484677,47.8526613 C26.6484677,47.8526613 26.1027688,49.4779301 24.6879839,49.4779301 C23.2702419,49.4779301 22.6928226,47.8701344 22.6928226,47.8701344 C22.6928226,47.8701344 23.8858333,47.9440591 24.5694355,47.9440591 C25.2525,47.9440591 25.6877151,47.9405645 25.8920161,47.9316935" id="Fill-8" fill="#FFF100"></path>
                        <path d="M31.4211559,47.2168548 C30.4961559,47.4660484 29.8391667,47.6668548 28.2864785,47.856371 C28.2864785,47.856371 28.3351344,48.016586 28.6727688,47.9988441 C28.8028763,47.9923925 28.819543,47.9604032 28.8673925,47.9515323 C28.9633602,47.9340591 29.110672,48.0348656 29.0931989,48.2036828 C29.0800269,48.3211559 28.9792204,48.4703495 28.635672,48.4703495 C28.2918548,48.4703495 27.8891667,48.188629 27.6875538,47.9281452 C27.6875538,47.9281452 27.4808333,47.9751882 27.2679301,47.9867473 C27.2679301,47.9867473 27.9286828,48.9130914 29.2316398,48.9130914 C30.6660484,48.9130914 31.1956183,47.6316398 31.4211559,47.2168548" id="Fill-10" fill="#FFF100"></path>
                        <path d="M30.4590323,48.1215054 C30.4590323,47.8973118 30.3899462,47.6887097 30.2719355,47.5172043 C29.7700538,47.6352151 29.196129,47.7432796 28.3552688,47.8481183 C28.3485484,47.8728495 28.343172,47.8978495 28.3386022,47.9236559 C28.3894086,47.9647849 28.4875269,48.008871 28.6727419,47.9989247 C28.8028495,47.9924731 28.8195161,47.9602151 28.8673656,47.9516129 C28.9636022,47.9341398 29.1106452,48.0349462 29.093172,48.2037634 C29.08,48.3212366 28.9791935,48.4704301 28.6356452,48.4704301 C28.5472043,48.4704301 28.4541935,48.4516129 28.3622581,48.419086 C28.4074194,48.5752688 28.4867204,48.716129 28.5923656,48.8344086 C28.7848387,48.8833333 28.9977419,48.9129032 29.2318817,48.9129032 C29.6915591,48.9129032 30.0582258,48.7814516 30.3517742,48.5884409 C30.4203226,48.4478495 30.4590323,48.2887097 30.4590323,48.1215054" id="Fill-12" fill="#FFDF00"></path>
                        <path d="M30.444328,48.1215054 C30.444328,47.8983871 30.3752419,47.6908602 30.2569624,47.5212366 C29.7615323,47.6362903 29.1945968,47.7432796 28.3712097,47.8462366 C28.363414,47.8747312 28.3566935,47.9037634 28.3513172,47.9336022 C28.4056183,47.9712366 28.5023925,48.0077957 28.6728226,47.9989247 C28.8029301,47.9924731 28.8195968,47.9602151 28.8674462,47.9516129 C28.963414,47.9341398 29.1107258,48.0349462 29.0932527,48.2037634 C29.0800806,48.3212366 28.9792742,48.4704301 28.635457,48.4704301 C28.5523925,48.4704301 28.4658333,48.4537634 28.3790054,48.4252688 C28.4263172,48.5825269 28.5093817,48.7239247 28.6179839,48.841129 C28.8037366,48.8862903 29.0083065,48.9129032 29.2316935,48.9129032 C29.6787366,48.9129032 30.0378763,48.7887097 30.3273925,48.6045699 C30.4023925,48.4599462 30.444328,48.2951613 30.444328,48.1215054" id="Fill-14" fill="#FFE000"></path>
                        <path d="M30.4298925,48.1215054 C30.4298925,47.8994624 30.36,47.6930108 30.2414516,47.5241935 C29.7530108,47.638172 29.1930645,47.7427419 28.3863441,47.8443548 C28.3777419,47.8763441 28.3702151,47.9086022 28.3645699,47.9422043 C28.4204839,47.9768817 28.5156452,48.0072581 28.6729032,47.9989247 C28.8027419,47.9924731 28.8196774,47.9602151 28.8675269,47.9516129 C28.9634946,47.9341398 29.1108065,48.0349462 29.0930645,48.2037634 C29.0801613,48.3212366 28.9793548,48.4704301 28.6355376,48.4704301 C28.5575806,48.4704301 28.4766667,48.455914 28.3960215,48.4301075 C28.4452151,48.5884409 28.5309677,48.730914 28.643871,48.847043 C28.8226344,48.8884409 29.0186022,48.9129032 29.2317742,48.9129032 C29.6661828,48.9129032 30.0177957,48.7954301 30.3027419,48.6198925 C30.3836559,48.472043 30.4298925,48.3018817 30.4298925,48.1215054" id="Fill-16" fill="#FFE200"></path>
                        <path d="M17.9705645,47.2168548 C18.8950269,47.4660484 19.5520161,47.6668548 21.1049731,47.856371 C21.1049731,47.856371 21.0563172,48.016586 20.7186828,47.9988441 C20.5885753,47.9923925 20.5719086,47.9604032 20.5240591,47.9515323 C20.4283602,47.9340591 20.2810484,48.0348656 20.2987903,48.2036828 C20.3111559,48.3211559 20.4122312,48.4703495 20.7557796,48.4703495 C21.0995968,48.4703495 21.5017473,48.188629 21.7030914,47.9281452 C21.7030914,47.9281452 21.9106183,47.9751882 22.1240591,47.9867473 C22.1240591,47.9867473 21.4630376,48.9130914 20.159543,48.9130914 C18.7254032,48.9130914 18.1955645,47.6316398 17.9705645,47.2168548" id="Fill-18" fill="#FFF100"></path>
                        <path d="M24.5512097,39.5923387 C29.493414,39.5923387 34.9692204,36.5584677 38.809543,32.1848118 C39.224328,31.7125 39.9297043,30.8162634 41.6004032,30.8162634 C43.2721774,30.8162634 45.4942204,32.3388441 45.2321237,35.1119624 C45.0418011,37.1337366 42.1517473,41.690457 37.209543,44.499328 C32.2670699,47.3081989 27.7159946,47.9125 24.5512097,47.9125 C21.3869624,47.9125 16.8353495,47.3081989 11.8931452,44.499328 C6.95067204,41.690457 4.06061828,37.1337366 3.87002688,35.1119624 C3.60819892,32.3388441 5.83024194,30.8162634 7.50147849,30.8162634 C9.17271505,30.8162634 9.8780914,31.7125 10.2928763,32.1848118 C14.1329301,36.5584677 19.6090054,39.5923387 24.5512097,39.5923387" id="Fill-20" fill="#FFF100"></path>
                        <path d="M24.5512097,39.7700538 C22.0979839,39.7700538 19.5176075,39.032957 17.0681452,37.7601075 C14.5305108,36.4423656 12.131586,34.5469355 10.1598118,32.302043 C9.95846774,32.0727419 9.68615591,31.7407527 9.27163978,31.4724731 C8.85981183,31.2055376 8.29717742,30.9937097 7.50147849,30.9937097 C7.41303763,30.9937097 7.32728495,30.9974731 7.24502688,31.0055376 C6.51518817,31.0743548 5.7108871,31.4294624 5.08803763,32.0477419 C4.46599462,32.6652151 4.02674731,33.5469355 4.02674731,34.6697849 C4.02674731,34.8122581 4.03346774,34.9539247 4.04637097,35.0955914 C4.15013441,36.1945161 5.08561828,38.077043 6.74206989,40.0152151 C8.05604839,41.5531183 9.82056452,43.1176344 11.9805108,44.3450538 C14.4348118,45.7399462 16.7923387,46.5875269 18.9291667,47.0864516 C21.0643817,47.5848387 22.9797043,47.7351075 24.5512097,47.7351075 C26.1224462,47.7351075 28.0383065,47.5848387 30.1732527,47.0864516 C32.3100806,46.5875269 34.6678763,45.7399462 37.1219086,44.3450538 C39.2818548,43.1170968 41.0466398,41.5531183 42.3606183,40.0152151 C44.0173387,38.077043 44.9522849,36.1945161 45.0557796,35.0955914 C45.0694892,34.9539247 45.075672,34.8122581 45.075672,34.6697849 C45.075672,33.5469355 44.6364247,32.6652151 44.0146505,32.0477419 C43.3912634,31.4294624 42.5869624,31.0743548 41.8571237,31.0055376 C41.7748656,30.9974731 41.6891129,30.9937097 41.6004032,30.9937097 C40.8049731,30.9937097 40.2426075,31.2055376 39.8305108,31.4724731 C39.4162634,31.7407527 39.1439516,32.0727419 38.9428763,32.302043 C36.971371,34.5469355 34.5719086,36.441828 32.0342742,37.7601075 C29.5850806,39.032957 27.0044355,39.7700538 24.5512097,39.7700538 M24.5512097,39.4146774 C26.9461022,39.4146774 29.4702957,38.6920968 31.8705645,37.4453226 C34.3711022,36.146129 36.734543,34.2797312 38.6759409,32.0684409 C38.8896505,31.8246237 39.1778226,31.4727419 39.6375,31.1746237 C40.0998656,30.8754301 40.725672,30.6380645 41.6004032,30.6380645 C41.6912634,30.6380645 41.7885753,30.6434409 41.890457,30.6528495 C42.6961022,30.7283871 43.5813172,31.1184409 44.2643817,31.7969355 C44.9479839,32.4751613 45.4310484,33.441828 45.4310484,34.6697849 C45.4310484,34.8141398 45.4237903,34.9673656 45.4084677,35.1283871 C45.299328,36.2896774 44.3342742,38.2515054 42.6299731,40.2458602 C41.2923387,41.810914 39.4961022,43.4031183 37.2971774,44.6533871 C34.8090054,46.0673656 32.4194892,46.9262366 30.2538978,47.4324194 C28.0869624,47.9377957 26.1442204,48.0902151 24.5512097,48.0902151 C22.9581989,48.0902151 21.0159946,47.9377957 18.8485215,47.4324194 C16.6829301,46.9262366 14.2936828,46.0673656 11.8055108,44.6533871 C9.6063172,43.4039247 7.81008065,41.810914 6.47271505,40.246129 C4.76814516,38.2515054 3.80336022,36.2902151 3.6936828,35.1283871 C3.67862903,34.9673656 3.67110215,34.8141398 3.67110215,34.6697849 C3.67110215,33.441828 4.15416667,32.4751613 4.83803763,31.7969355 C5.52110215,31.1184409 6.4063172,30.7283871 7.21169355,30.6528495 C7.31384409,30.6434409 7.41061828,30.6380645 7.50147849,30.6380645 C8.37674731,30.6380645 9.00255376,30.8754301 9.46465054,31.1746237 C9.92486559,31.4727419 10.2125,31.8246237 10.4264785,32.0684409 C12.3678763,34.2797312 14.731586,36.146129 17.2321237,37.4453226 C19.6323925,38.6920968 22.1563172,39.4146774 24.5512097,39.4146774" id="Fill-22" fill="#221F20"></path>
                        <path d="M9.73830645,32.6196237 L9.68077957,32.5540323 C9.28723118,32.1018817 8.74825269,31.4830645 7.46115591,31.4830645 C6.71061828,31.4830645 5.86034946,31.8846774 5.29502688,32.5051075 C4.87271505,32.9693548 4.39395161,33.7841398 4.51169355,35.0301075 C4.67244624,36.7333333 7.37594086,41.1491935 12.1912634,43.8865591 C16.0721774,46.0919355 20.2168011,47.2102151 24.5108871,47.2102151 C28.8049731,47.2102151 32.9495968,46.0919355 36.8305108,43.8865591 C41.6455645,41.1491935 44.3501344,36.7333333 44.5103495,35.0301075 C44.6275538,33.7841398 44.1490591,32.9693548 43.7264785,32.5051075 C43.1614247,31.8846774 42.3114247,31.4830645 41.5611559,31.4830645 C40.2737903,31.4830645 39.734543,32.1018817 39.3412634,32.5540323 L39.2834677,32.6196237 C35.1458333,37.3317204 29.4848118,40.2594086 24.5108871,40.2594086 C19.5369624,40.2594086 13.8759409,37.3317204 9.73830645,32.6196237" id="Fill-24" fill="#E12E21"></path>
                        <path d="M40.4280914,27.0605645 C40.4280914,24.689328 42.3501344,22.7667473 44.7216398,22.7667473 C47.0928763,22.7667473 49.015457,24.689328 49.015457,27.0605645 C49.015457,29.4315323 47.0928763,31.3538441 44.7216398,31.3538441 C42.3501344,31.3538441 40.4280914,29.4315323 40.4280914,27.0605645" id="Fill-26" fill="#FFF100"></path>
                        <path d="M40.6060753,27.0605645 C40.6060753,28.1968548 41.066828,29.2261559 41.8114516,29.9705108 C42.5563441,30.7154032 43.5851075,31.1764247 44.7216667,31.1764247 C45.8582258,31.1764247 46.8869892,30.7154032 47.6321505,29.9705108 C48.3767742,29.2261559 48.8375269,28.1968548 48.8375269,27.0605645 C48.8375269,25.9237366 48.3767742,24.8947043 47.6321505,24.1500806 C46.8869892,23.405457 45.8582258,22.9447043 44.7216667,22.9447043 C43.5851075,22.9447043 42.5563441,23.4051882 41.8114516,24.1498118 C41.066828,24.8947043 40.6060753,25.9237366 40.6060753,27.0605645 M40.2506989,27.0605645 C40.2506989,25.8256183 40.7509677,24.7078763 41.5601075,23.8987366 C42.3692473,23.0895968 43.4869892,22.5887903 44.7216667,22.5887903 C45.9563441,22.5887903 47.0743548,23.0895968 47.8832258,23.8987366 C48.6926344,24.7078763 49.1929032,25.8256183 49.1929032,27.0605645 C49.1929032,28.2949731 48.6926344,29.4129839 47.8832258,30.2221237 C47.0743548,31.0309946 45.9563441,31.5315323 44.7216667,31.5315323 C43.4869892,31.5315323 42.3692473,31.0309946 41.5601075,30.2221237 C40.7509677,29.4129839 40.2506989,28.2955108 40.2506989,27.0605645" id="Fill-28" fill="#221F20"></path>
                        <path d="M0.177715054,27.0673925 C0.177715054,24.6964247 2.10002688,22.7738441 4.47153226,22.7738441 C6.8425,22.7738441 8.76481183,24.6964247 8.76481183,27.0673925 C8.76481183,29.4388978 6.8425,31.3612097 4.47153226,31.3612097 C2.10002688,31.3612097 0.177715054,29.4388978 0.177715054,27.0673925" id="Fill-30" fill="#FFF100"></path>
                        <g id="Group-34" transform="translate(0.000000, 22.414785)">
                            <mask id="mask-4" fill="white">
                                <use xlink:href="#path-3"></use>
                            </mask>
                            <g id="Clip-33"></g>
                            <path d="M0.355564516,4.65260753 C0.355564516,5.78943548 0.816317204,6.81846774 1.56094086,7.56282258 C2.30583333,8.30798387 3.33486559,8.76873656 4.47142473,8.76873656 C5.60798387,8.76873656 6.63674731,8.30798387 7.38137097,7.56282258 C8.12626344,6.81846774 8.58701613,5.78943548 8.58701613,4.65260753 C8.58701613,3.51604839 8.12626344,2.48728495 7.38137097,1.74239247 C6.63674731,0.997768817 5.60798387,0.537016129 4.47142473,0.537016129 C3.33486559,0.537016129 2.30583333,0.997768817 1.56120968,1.74239247 C0.816317204,2.48701613 0.355564516,3.51604839 0.355564516,4.65260753 M-8.06451613e-05,4.65260753 C-8.06451613e-05,3.41766129 0.500456989,2.30018817 1.30986559,1.49104839 C2.11900538,0.681908602 3.23674731,0.181370968 4.47142473,0.181370968 C5.70610215,0.181370968 6.82384409,0.681908602 7.63298387,1.49104839 C8.44212366,2.30045699 8.94239247,3.41766129 8.94239247,4.65260753 C8.94239247,5.88728495 8.44212366,7.0052957 7.63298387,7.81443548 C6.82384409,8.62330645 5.70610215,9.12384409 4.47142473,9.12384409 C3.23674731,9.12384409 2.11900538,8.62330645 1.30959677,7.81443548 C0.500456989,7.0052957 -8.06451613e-05,5.88728495 -8.06451613e-05,4.65260753" id="Fill-32" fill="#221F20" mask="url(#mask-4)"></path>
                        </g>
                        <path d="M45.8968548,15.5121774 L45.9210484,14.3627151 C46.2718548,14.6275 46.9395968,14.6377151 47.3307258,14.2197043 C47.5102957,14.0288441 47.6116398,13.7374462 47.5952419,13.4326075 C47.5764247,13.0938978 47.4250806,12.7387903 47.1683602,12.4887903 C45.7226613,11.0796505 44.4447043,9.67104839 44.4447043,9.67104839 C44.3151344,9.46271505 44.1027688,9.3086828 43.9866398,9.25706989 C43.805457,9.17642473 43.180457,8.89013441 42.7035753,9.61567204 C42.2705108,10.2731989 42.3350269,11.2038441 42.4132527,11.5414785 L43.7697043,13.3847581 C44.2323387,13.9713172 45.5358333,15.221586 45.8968548,15.5121774" id="Fill-35" fill="#221F20"></path>
                        <path d="M16.9875806,3.55612903 C18.6921505,2.98462366 20.2480645,2.51311828 22.345914,2.32655914 L16.9875806,3.55612903 Z" id="Fill-37" fill="#221F20"></path>
                        <path d="M16.9875806,3.56072581 C18.6921505,2.9886828 20.2480645,2.51771505 22.345914,2.33115591 L22.6655376,2.15077957 C21.4924194,1.22900538 20.3292473,0.601854839 19.170914,0.601854839 C18.4432258,0.601854839 16.965,1.09513441 16.6327419,3.70239247 L16.9875806,3.56072581 Z" id="Fill-39" fill="#221F20"></path>
                        <path d="M32.1197043,3.56072581 C30.4148656,2.9886828 28.8589516,2.51771505 26.761371,2.33115591 L26.4417473,2.15077957 C27.6145968,1.22900538 28.7780376,0.601854839 29.9366398,0.601854839 C30.6640591,0.601854839 32.1425538,1.09513441 32.4742742,3.70239247 L32.1197043,3.56072581 Z" id="Fill-41" fill="#221F20"></path>
                        <path id="Fill-43" fill="#221F20"></path>
                        <path d="M22.6263172,2.2425 C23.4835753,0.598682796 24.269328,2.68817204e-05 24.7040054,2.68817204e-05 C25.2475538,2.68817204e-05 25.8838441,0.864811828 26.3830376,1.97825269 L26.488414,2.22905914 L26.0542742,2.19303763 C25.7593817,2.14008065 24.941371,2.13120968 24.6214785,2.13120968 C24.3013172,2.13120968 23.6080376,2.13120968 23.1902957,2.16669355 L22.6263172,2.2425 Z" id="Fill-45" fill="#221F20"></path>
                        <polygon id="Fill-47" fill="#FFF100" points="20.9485753 41.1624462 20.1811022 44.0264247 18.7499194 40.5734677 17.8590591 40.3339516 16.7738441 44.3839516 17.7399731 44.6433602 18.513629 41.7562634 19.9673925 45.2401344 20.8354032 45.4729301 21.9203495 41.4229301"></polygon>
                        <polygon id="Fill-49" fill="#FFF100" points="24.2842473 41.6738172 23.1837097 41.6160215 22.9643548 45.8025806 24.0648925 45.8603763"></polygon>
                        <polygon id="Fill-51" fill="#FFF100" points="25.2727419 41.6376075 25.3498925 42.1900269 26.524086 42.0238978 27.0302688 45.6247043 28.1216667 45.4712097 27.6157527 41.8714785 28.7719355 41.7085753 28.6945161 41.1569624"></polygon>
                        <path d="M34.4860215,38.8244624 L33.0650538,39.6446237 L35.1677419,43.2879032 L36.5784946,42.4728495 C38.0459677,41.6260753 38.1814516,40.3473118 37.6064516,39.3258065 C36.9112903,38.1104839 35.7709677,38.0825269 34.4860215,38.8244624 M36.6301075,39.9314516 C37.163172,40.866129 37.055914,41.5451613 36.2336022,42.0204301 L35.8435484,42.2454301 L34.3018817,39.5763441 L34.7236559,39.3327957 C35.7072581,38.7645161 36.2623656,39.2698925 36.6301075,39.9314516" id="Fill-53" fill="#FFF100"></path>
                        <polygon id="Fill-55" fill="#FFF100" points="31.8241129 43.9823925 31.4058333 42.6952957 32.6480376 42.2915323 32.4735753 41.7557796 31.2321774 42.159543 30.8746505 41.0600806 32.1509946 40.6455645 31.9786828 40.1159946 29.6488441 40.8732527 30.9442742 44.8600806 33.513629 44.025672 33.3394355 43.4899194"></polygon>
                        <path d="M15.8741129,39.363414 L14.6327151,41.6029301 C14.2582527,42.2781989 13.8719624,42.7058871 13.2405108,42.3411022 C12.613629,41.9940591 12.7585215,41.4752419 13.1421237,40.7833065 L14.3864785,38.538414 L13.3837903,37.9827688 L12.0700806,40.3534677 C11.3450806,41.6612634 12.2590591,42.4671774 12.9676613,42.8593817 C13.7302957,43.2825 14.8380914,43.5972849 15.5569086,42.3005108 L16.8768011,39.9187903 L15.8741129,39.363414 Z" id="Fill-57" fill="#FFF100"></path>
                        <path d="M15.1640054,14.7377688 L15.1640054,34.3673387 L24.5511022,40.4020161 L33.9381989,34.3673387 L33.9497581,14.7686828 C33.6524462,14.5022849 33.0271774,13.9192204 32.5347043,13.6176075 L16.5242204,13.6176075 C16.1150806,13.9044355 15.3027151,14.5866935 15.1640054,14.7377688" id="Fill-59" fill="#FFF100"></path>
                        <polygon id="Fill-61" fill="#221F20" points="15.3417204 14.7377688 15.3417204 34.2711022 24.551129 40.1907258 33.7602688 34.2711022 33.7723656 14.7686828 34.1277419 14.7686828 34.115914 34.3673387 34.115914 34.4641129 34.0336559 34.5170699 24.646828 40.550672 24.551129 40.6125 24.4551613 40.550672 15.0680645 34.5170699 14.9860753 34.4641129 14.9860753 14.7377688"></polygon>
                        <path d="M33.8310484,14.9013172 C33.7466398,14.8252419 33.8103495,14.8819624 33.7205645,14.8007796 L33.7197581,14.8007796 C33.3995968,14.5112634 32.8625,14.026586 32.4423387,13.7690591 L32.6270161,13.4661022 C33.0818548,13.7448656 33.6310484,14.2408333 33.9587366,14.5370699 L33.9581989,14.5370699 C33.9665323,14.5445968 33.9176075,14.5007796 34.068414,14.6359946 L33.8310484,14.9013172 Z" id="Fill-63" fill="#221F20"></path>
                        <mask id="mask-6" fill="white">
                            <use xlink:href="#path-5"></use>
                        </mask>
                        <g id="Clip-66"></g>
                        <polygon id="Fill-65" fill="#221F20" mask="url(#mask-6)" points="16.5239247 13.9400538 32.5346774 13.9400538 32.5346774 13.4400538 16.5239247 13.4400538"></polygon>
                        <path d="M16.6261022,13.7635753 C16.4344355,13.8979839 16.1637366,14.1111559 15.9164247,14.3146505 C15.6266398,14.5533602 15.3650806,14.7810484 15.2946505,14.8579301 L15.033629,14.6176075 C15.1118548,14.5318548 15.3884677,14.290457 15.6914247,14.0409946 C15.9545968,13.824328 16.2355108,13.6028226 16.4220699,13.4719086 L16.6261022,13.7635753 Z" id="Fill-67" fill="#221F20" mask="url(#mask-6)"></path>
                        <path d="M28.3019355,28.8230914 L28.3019355,28.0935215 C28.3019355,28.0935215 28.1065054,27.7916398 27.6263978,27.7916398 C27.146828,27.7916398 26.8624194,27.9335753 26.8624194,28.0583065 C26.8624194,28.2537366 27.2887634,28.8230914 28.3019355,28.8230914 L28.3019355,28.8230914 Z M24.5153763,22.3631452 L25.2446774,21.0948656 L25.8126882,22.3631452 L26.7551613,22.3631452 C26.1866129,22.8967473 25.9554301,23.7026613 25.9554301,24.2362634 L25.9554301,24.8225538 C25.9554301,25.0717473 25.8309677,25.4806183 25.8309677,25.4806183 C25.8309677,25.4806183 26.6470968,26.1042742 26.773172,26.2093817 C26.8266667,26.2537366 26.8828495,26.2798118 26.8444086,26.3873387 C26.7793548,26.5712097 26.2274731,26.816371 26.1686022,26.8671774 C26.0444086,26.973629 26.0110753,27.0437903 26.0470968,27.1513172 C26.0831183,27.2580376 26.1866129,27.2763172 26.3997849,27.204543 C26.6132258,27.1338441 27.0578495,26.9026613 27.4315054,26.7429839 C27.804086,26.5827688 28.3019355,26.6179839 28.3019355,26.6179839 L28.3019355,25.9066935 L26.8976344,25.9066935 L26.8976344,23.6314247 L26.6487097,23.2343817 L27.2712903,22.1319624 L27.8933333,23.2405645 L27.6446774,23.6314247 L27.6446774,24.8225538 L28.3645699,24.8225538 L28.3645699,23.6314247 L28.115914,23.2405645 L28.7374194,22.1378763 L29.3594624,23.2405645 L29.1110753,23.6314247 L29.1110753,24.8225538 L29.8306989,24.8225538 L29.8306989,23.6314247 L29.5825806,23.2405645 L30.2043548,22.1378763 L30.8269355,23.2405645 L30.5774731,23.6314247 L30.5852688,25.9056183 L29.1734409,25.9061559 L29.1734409,26.9513172 C29.4936022,27.2531989 29.7962903,27.9335753 29.7962903,28.3427151 C29.7962903,28.751586 29.529086,28.929543 29.529086,28.929543 C29.6180645,29.2488978 29.6003226,29.3827688 29.5645699,29.6763172 C29.5282796,29.9755108 29.1556989,30.4402957 29.1556989,30.4402957 L29.1556989,35.8612634 C29.1556989,36.2303495 28.3019355,36.1951344 28.3019355,35.8784677 L28.3019355,30.5650269 C27.8220968,30.0316935 26.5065054,29.6230914 26.5065054,29.6230914 C26.0263978,30.1026613 25.7242473,30.9386828 25.7242473,30.9386828 C25.9376882,31.0803495 26.2575806,30.9386828 26.3817742,30.7962097 C26.5065054,30.6540054 26.7551613,30.6187903 26.8976344,30.7072312 C27.0401075,30.7962097 27.0758602,30.8319624 27.021828,31.045672 C26.968871,31.2583065 26.8801613,31.6123387 26.8801613,31.860457 C26.8801613,32.1096505 27.1645699,32.0561559 27.3777419,32.0744355 C27.804086,32.1096505 27.8755914,32.5897581 27.8398387,32.8564247 C27.804086,33.1230914 27.6798925,33.6919086 27.6798925,34.0478226 C27.6798925,34.4031989 27.6976344,34.7588441 27.7333871,34.9548118 C27.7686022,35.1497043 27.8398387,35.363414 27.8220968,35.6118011 C27.7979032,35.9497043 27.590914,36.0034677 27.3777419,35.7902957 C27.1645699,35.5760484 24.1952151,32.4120699 24.1952151,32.4120699 C23.9997849,33.051586 24.8175269,34.1537366 25.0844624,34.4924462 C25.3508602,34.8300806 25.3331183,35.0787366 25.1022043,35.3099194 C24.8707527,35.5408333 24.4263978,35.6652957 24.3374194,35.8784677 C24.2487097,36.0921774 24.551129,36.7322312 25.173172,37.5316935 C25.7954839,38.3319624 24.4618817,38.8655645 23.6618817,39.0255108 C22.8618817,39.1857258 22.8618817,38.6341129 22.9153763,38.3319624 C22.9686022,38.029543 22.9686022,37.8521237 22.9508602,37.585457 C22.9331183,37.3190591 22.6844624,36.945672 22.3462903,36.5007796 C22.0086559,36.0569624 22.0086559,35.6478226 22.1508602,34.616371 C22.2933333,33.5851882 22.2578495,32.9273925 22.2578495,32.9273925 C22.2578495,32.9273925 21.9019355,32.9451344 21.3863441,32.9273925 C20.8707527,32.9099194 20.4441398,32.6096505 20.4086559,31.3647581 C20.373172,30.1201344 20.3433333,27.1513172 20.2602688,26.8432527 C20.1774731,26.535457 19.8454839,26.4760484 19.7032796,26.4408333 C19.5610753,26.4050806 19.5508602,26.1916398 19.6930645,26.1201344 C20.0634946,25.935457 20.5094624,25.4806183 20.3433333,25.1962097 C20.1774731,24.9115323 19.5255914,24.9709409 19.0871505,25.1841129 C18.6487097,25.3972849 18.1863441,25.8593817 18.0675269,25.9900269 C17.9489785,26.1201344 17.8543548,26.1201344 17.8661828,25.9784677 C17.8780108,25.8357258 17.7833871,25.160457 17.7242473,24.9233602 C17.6648387,24.6862634 17.4513978,24.2362634 17.3804301,24.1177151 C17.3091935,23.9988978 17.3804301,23.951586 17.4987097,23.9988978 C17.6175269,24.0464785 17.8780108,24.1529301 18.1269355,24.2241667 C18.376129,24.2954032 18.612957,24.1768548 18.7315054,23.9394892 C18.8500538,23.7026613 19.0750538,23.1932527 19.193871,22.9679839 C19.3124194,22.7424462 19.5022043,22.7900269 19.6559677,22.8257796 C19.81,22.8612634 19.9522043,22.9558871 20.0944086,23.0152957 C20.2366129,23.0747043 20.3551613,23.0628763 20.4027419,22.9916398 C20.4503226,22.9204032 20.5094624,22.8967473 20.5925269,22.7187903 C20.6753226,22.5411022 20.7817742,22.6238978 20.7936022,22.6951344 C21.2186022,25.244328 22.3226344,25.3620699 22.3226344,25.3620699 C22.157043,25.788414 21.765914,26.4647581 21.6710215,26.6300806 C21.576129,26.7959409 21.5403763,27.0212097 21.5167204,27.198629 C21.4930645,27.3768548 21.576129,29.0593817 21.6946774,29.6763172 C21.8132258,30.2924462 22.1922581,30.0558871 22.3110753,29.8658333 C22.4293548,29.6763172 22.796828,28.8940591 22.796828,28.8940591 C22.796828,28.8940591 22.8917204,28.6808871 22.8917204,28.5029301 C22.8917204,28.3249731 22.5833871,27.9335753 22.5121505,27.8150269 C22.4411828,27.6970161 22.1806989,27.4601882 22.1806989,26.8671774 C22.1806989,26.2747043 22.7137634,25.8593817 22.9032796,25.7053495 C23.0930645,25.551586 23.0930645,25.338414 23.0694086,25.2077688 C22.9860753,24.7494355 22.5003226,23.785457 22.2637634,23.4179839 C22.0263978,23.0507796 21.5643011,22.3513172 21.5643011,22.3513172 L22.5242473,22.3513172 L23.1403763,21.0714785 L23.8161828,22.3572312 L24.5153763,22.3631452 Z M24.3597312,26.251586 C24.6753226,25.7341129 24.8065054,25.1962097 24.8065054,25.1962097 L23.904086,25.1962097 C23.904086,25.1962097 24.0487097,25.7475538 24.3597312,26.251586 L24.3597312,26.251586 Z M23.4175269,23.6402957 C23.4565054,23.9066935 23.6532796,24.0091129 23.8043548,23.9290054 C23.9554301,23.8491667 23.9242473,23.6314247 23.8177957,23.4626075 C23.7108065,23.2937903 23.490914,23.1050806 23.4250538,23.1338441 C23.3538172,23.1650269 23.3954839,23.4892204 23.4175269,23.6402957 L23.4175269,23.6402957 Z M25.2145699,23.1338441 C25.1489785,23.1050806 24.9153763,23.2937903 24.8086559,23.4626075 C24.7016667,23.6314247 24.6707527,23.8491667 24.8220968,23.9290054 C24.9729032,24.0091129 25.1632258,23.9053495 25.2089247,23.6402957 C25.2355376,23.4849194 25.2855376,23.1650269 25.2145699,23.1338441 L25.2145699,23.1338441 Z" id="Fill-68" fill="#E12E21" mask="url(#mask-6)"></path>
                        <polygon id="Fill-69" fill="#E12E21" mask="url(#mask-6)" points="15.8991935 20.8153226 33.2172043 20.8153226 33.2172043 19.6341398 15.8991935 19.6341398"></polygon>
                        <polygon id="Fill-70" fill="#E12E21" mask="url(#mask-6)" points="15.8991935 19.0268817 33.2172043 19.0268817 33.2172043 14.322043 15.8991935 14.322043"></polygon>
                        <polygon id="Fill-71" fill="#FFF100" mask="url(#mask-6)" points="29.8087634 19.1670699 29.8087634 18.3638441 28.5506989 18.3638441 28.5506989 17.8458333 29.5773118 17.8458333 29.5773118 15.5702957 28.6348387 15.5702957 28.3149462 14.9482527 27.9947849 15.5702957 27.0525806 15.5702957 27.0525806 17.8458333 28.0791935 17.8458333 28.0791935 18.3638441 25.6152151 18.3638441 25.6152151 17.8458333 26.6412903 17.8458333 26.6412903 15.5702957 25.699086 15.5702957 25.3789247 14.9482527 25.0593011 15.5702957 24.116828 15.5702957 24.116828 17.8458333 25.143172 17.8458333 25.143172 18.3638441 22.6308065 18.3638441 22.6308065 17.8458333 23.6571505 17.8458333 23.6571505 15.5702957 22.7146774 15.5702957 22.3947849 14.9482527 22.0748925 15.5702957 21.1324194 15.5702957 21.1324194 17.8458333 22.1587634 17.8458333 22.1587634 18.3638441 20.1724731 18.3692204 18.1934409 17.9068548 18.5923656 19.1670699"></polygon>
                        <polygon id="Fill-72" fill="#FFF100" mask="url(#mask-6)" points="18.8769086 17.8044892 20.2040591 18.1302957 20.9158871 16.1324462 20.9158871 15.6286828"></polygon>
                        <path d="M22.0796237,2.19943548 C20.0234409,2.38223118 18.7583871,2.81932796 17.0871505,3.37954301 C17.2116129,2.66045699 17.3785484,2.23465054 17.6691398,1.81099462 C17.6457527,2.18276882 17.9489785,2.57873656 18.5532796,2.57873656 C19.157043,2.57873656 19.4933333,2.23034946 19.4933333,2.02094086 C19.4933333,1.81233871 19.3661828,1.51018817 19.0411828,1.51018817 C18.715914,1.51018817 18.6462903,1.74244624 18.6691398,1.83545699 C18.6925269,1.92846774 18.6229032,1.95158602 18.5298925,1.97497312 C18.4368817,1.99782258 18.1815054,1.85830645 18.2745161,1.53330645 C18.3763978,1.17577957 18.8089247,0.981424731 19.3194086,0.981424731 C19.3194086,0.981424731 20.5355376,0.932768817 22.0796237,2.19943548" id="Fill-73" fill="#FFF100" mask="url(#mask-6)"></path>
                        <path d="M32.0349194,3.39389785 C30.3642204,2.83314516 29.0419086,2.3963172 26.9862634,2.21325269 C27.9325,1.55384409 28.816371,0.993897849 29.7878763,0.993897849 C30.2983602,0.993897849 30.7306183,1.18798387 30.8325,1.54551075 C30.9255108,1.87077957 30.6698656,2.01002688 30.5771237,1.9869086 C30.4841129,1.96352151 30.4147581,1.94013441 30.4378763,1.84739247 C30.4609946,1.75465054 30.3911022,1.52239247 30.0661022,1.52239247 C29.7408333,1.52239247 29.6136828,1.82427419 29.6136828,2.03341398 C29.6136828,2.24255376 29.9499731,2.59094086 30.5537366,2.59094086 C31.1575,2.59094086 31.4615323,2.1947043 31.4378763,1.82319892 C31.7281989,2.2463172 31.9109946,2.67508065 32.0349194,3.39389785" id="Fill-74" fill="#FFF100" mask="url(#mask-6)"></path>
                        <path d="M23.3462634,1.81747312 C23.2911559,1.90537634 23.2425,1.97123656 23.183629,2.06935484 C23.5231452,2.0516129 24.3070161,2.03413978 24.6207258,2.03413978 C24.9344355,2.03413978 25.8000269,2.07607527 25.9900806,2.09005376 C25.683629,1.38064516 25.1054032,0.401344086 24.7016398,0.401344086 C24.6223387,0.401344086 24.4457258,0.359946237 24.1140054,0.741935484 C24.1140054,0.741935484 24.0626613,0.910215054 24.2731452,0.878225806 C24.5403495,0.837365591 24.6414247,1.11317204 24.6218011,1.25 C24.5750269,1.56935484 24.2035215,1.87715054 23.8317473,1.87715054 C23.4602419,1.87715054 23.3462634,1.81747312 23.3462634,1.81747312" id="Fill-75" fill="#FFF100" mask="url(#mask-6)"></path>
                        <path d="M5.4388172,13.3847581 L6.79580645,11.5414785 C6.87403226,11.2038441 6.93801075,10.2731989 6.50548387,9.61567204 C6.02860215,8.89013441 5.40306452,9.17642473 5.2216129,9.25706989 C5.10575269,9.3086828 4.8933871,9.46271505 4.76354839,9.67104839 C4.76354839,9.67104839 3.46193548,11.1097581 2.02188172,12.5250806 C1.82134409,12.7218548 1.59580645,13.0938978 1.57752688,13.4326075 C1.5605914,13.7374462 1.68048387,14.0409409 1.85924731,14.2323387 C2.25091398,14.649543 2.93666667,14.6277688 3.28747312,14.3627151 L3.31112903,15.5121774 C3.67268817,15.221586 4.97645161,13.9713172 5.4388172,13.3847581" id="Fill-76" fill="#221F20" mask="url(#mask-6)"></path>
                        <path d="M24.5512097,10.6988172 C32.2791667,10.6988172 36.6799731,17.9555376 37.6358871,19.2302688 C39.3428763,21.5058065 41.4283602,23.3509677 43.8466398,22.7383333 C47.4020161,21.8377957 47.2122312,16.5695161 47.2122312,16.5695161 C46.3592742,15.9528495 44.8961022,15.1765054 42.234543,11.4017742 C39.6272849,7.70419355 33.7245968,2.21790323 24.5512097,2.21790323 C15.3775538,2.21790323 9.47513441,7.70419355 6.86760753,11.4017742 C4.2063172,15.1765054 2.74314516,15.9528495 1.88991935,16.5695161 C1.88991935,16.5695161 1.70013441,21.8377957 5.25604839,22.7383333 C7.67459677,23.3509677 9.75981183,21.5058065 11.4662634,19.2302688 C12.4224462,17.9555376 16.8237903,10.6988172 24.5512097,10.6988172" id="Fill-77" fill="#FFF100" mask="url(#mask-6)"></path>
                        <path d="M24.5512097,10.8766667 C17.5498656,10.8766667 13.299328,16.9339247 11.9165323,18.9048925 C11.7942204,19.0788172 11.6947581,19.2207527 11.6081989,19.3363441 C10.743414,20.4895699 9.78077957,21.5347312 8.72405914,22.2167204 C7.64744624,22.9113441 6.47567204,23.2306989 5.21276882,22.9105376 C1.51680108,21.9742473 1.71169355,16.5801613 1.71196237,16.5645699 L1.71438172,16.4777419 L1.78642473,16.4258602 C1.88346774,16.3556989 1.98051075,16.2887634 2.08534946,16.2164516 C2.95954301,15.6132258 4.36438172,14.6441398 6.72244624,11.2995161 C8.24422043,9.14225806 10.8783602,6.38016129 14.6211022,4.4366129 C17.3452957,3.02182796 20.6563172,2.04037634 24.5512097,2.04037634 C28.4461022,2.04037634 31.756586,3.02182796 34.4810484,4.4366129 C38.2237903,6.38016129 40.8581989,9.14198925 42.3797043,11.2995161 C44.7375,14.6433333 46.1420699,15.612957 47.0165323,16.215914 C47.1211022,16.2882258 47.2186828,16.3556989 47.315457,16.4258602 L47.3877688,16.4777419 L47.3899194,16.5645699 C47.390457,16.5801613 47.5853495,21.9742473 43.8896505,22.9105376 C42.6270161,23.2306989 41.4549731,22.9113441 40.378629,22.2167204 C39.3221774,21.5347312 38.359543,20.4895699 37.4947581,19.3363441 C37.4076613,19.2207527 37.3081989,19.0788172 37.1858871,18.9048925 C35.8030914,16.9339247 31.5522849,10.8766667 24.5512097,10.8766667 M24.5512097,10.5210215 C31.7366935,10.5210215 36.0670699,16.6925269 37.4759409,18.7005914 C37.603629,18.8823118 37.7076613,19.0306989 37.7778226,19.1237097 C38.6197581,20.2462903 39.5528226,21.2616129 40.5702957,21.9180645 C41.5678763,22.5616129 42.6479839,22.8589247 43.8038978,22.5661828 C46.9606183,21.7661828 47.0423387,17.3376882 47.0358871,16.6613441 C46.9678763,16.6134946 46.893414,16.5618817 46.8151882,16.5078495 C45.9208333,15.8903763 44.4829301,14.8984409 42.0899194,11.5038172 C40.5926075,9.38123656 38.0009409,6.66430108 34.3186828,4.75193548 C31.6401882,3.36080645 28.3837366,2.39575269 24.5512097,2.39575269 C20.718414,2.39575269 17.4616935,3.36080645 14.7834677,4.75193548 C11.1014785,6.66430108 8.50981183,9.38123656 7.01276882,11.5038172 C4.6186828,14.8992473 3.1813172,15.890914 2.28669355,16.5081183 C2.20819892,16.5621505 2.13400538,16.6134946 2.06599462,16.6613441 C2.06008065,17.3376882 2.14180108,21.7661828 5.29879032,22.5661828 C6.4547043,22.8589247 7.53481183,22.5616129 8.53239247,21.9180645 C9.54932796,21.2616129 10.4829301,20.2462903 11.3248656,19.1237097 C11.3947581,19.0306989 11.4987903,18.8823118 11.6262097,18.7005914 C13.0353495,16.6927957 17.3659946,10.5210215 24.5512097,10.5210215" id="Fill-78" fill="#221F20" mask="url(#mask-6)"></path>
                        <path d="M24.5512097,10.0140323 C32.0009409,10.0140323 36.4348118,16.3333871 37.8920699,18.4097312 C38.0098118,18.5782796 38.1122312,18.7234409 38.1834677,18.8194086 C40.1547043,21.4473656 41.9522849,22.5124194 43.6783602,22.0747849 C46.1751344,21.4422581 46.4818548,18.0067742 46.5162634,16.968871 L46.5173387,16.9298925 L46.4858871,16.9081183 C45.6076613,16.3024731 44.1375,15.2887634 41.6754032,11.7965591 C40.2038978,9.71 34.6211022,2.90274194 24.5512097,2.90274194 C14.481586,2.90274194 8.89852151,9.71 7.42728495,11.7965591 C4.98212366,15.2640323 3.44744624,16.3237097 2.62298387,16.8925269 L2.59126344,16.9145699 L2.59206989,16.9535484 C2.6280914,17.9957527 2.93803763,21.4446774 5.42379032,22.0747849 C7.15040323,22.5124194 8.94771505,21.4473656 10.918414,18.8194086 C10.990457,18.7234409 11.0923387,18.5782796 11.2103495,18.4102688 C12.6673387,16.3333871 17.1012097,10.0140323 24.5512097,10.0140323" id="Fill-79" fill="#E12E21" mask="url(#mask-6)"></path>
                        <polygon id="Fill-80" fill="#FFF100" mask="url(#mask-6)" points="8.52284946 12.9250806 7.74516129 13.8519624 9.20349462 16.8659409 6.07419355 15.8433602 5.40403226 16.6414785 8.61612903 19.336371 9.10107527 18.758414 6.83387097 16.8481989 9.87526882 17.8361022 10.1943548 17.455457 8.74569892 14.5508871 11.0260753 16.4640591 11.7346774 15.6197043"></polygon>
                        <path d="M10.8887903,10.391129 L10.1740054,11.1575269 L12.1823387,15.1513441 L12.6723925,14.6258065 L12.1266935,13.5685484 L13.0990054,12.5260753 L14.1960484,12.9919355 L15.0049194,12.1247312 L10.8887903,10.391129 Z M12.5831452,12.294086 L11.8559946,13.0736559 L11.1108333,11.6336022 L12.5831452,12.294086 Z" id="Fill-81" fill="#FFF100" mask="url(#mask-6)"></path>
                        <polygon id="Fill-82" fill="#FFF100" mask="url(#mask-6)" points="15.7927419 6.59607527 17.3639785 9.1105914 13.8626344 7.80198925 13.0803763 8.29123656 15.3021505 11.8463441 16.1505376 11.3167742 14.5666667 8.78182796 18.105914 10.0947312 18.8677419 9.61811828 16.6462366 6.06301075"></polygon>
                        <polygon id="Fill-83" fill="#FFF100" mask="url(#mask-6)" points="29.0616398 8.65486559 29.5022312 7.3752957 30.736371 7.8002957 30.9207796 7.26776882 29.6858333 6.84303763 30.0616398 5.74948925 31.3301882 6.18658602 31.5116398 5.6597043 29.1955108 4.86239247 27.8309946 8.82637097 30.3852957 9.70594086 30.5680914 9.1736828"></polygon>
                        <polygon id="Fill-84" fill="#FFF100" mask="url(#mask-6)" points="36.2330914 8.3897043 35.8554032 8.79965054 36.7371237 9.59319892 34.3040591 12.2953495 35.1231452 13.0324462 37.5562097 10.3308333 38.4242204 11.1120161 38.7965323 10.6983065"></polygon>
                        <polygon id="Fill-85" fill="#FFF100" mask="url(#mask-6)" points="37.4364516 14.6851344 38.4730108 13.8155108 39.3125269 14.8155108 39.7439785 14.453414 38.905 13.453414 39.7902151 12.7101344 40.6528495 13.738629 41.0791935 13.3802957 39.5044624 11.503414 36.2934409 14.1985753 38.0291935 16.2676613 38.4606452 15.9061022"></polygon>
                        <path d="M41.7364785,17.8187903 C41.7448118,17.8276613 42.3848656,18.1451344 43.0931989,17.5080376 C43.6848656,16.9747043 43.4859409,16.2435215 42.8684677,15.5580376 L41.7259946,14.2897581 L38.610672,17.0951344 L39.3477688,17.9139516 L40.585672,16.7997043 L40.9501882,17.2048118 L40.1620161,18.9701344 L41.0980376,19.7233602 L41.7364785,17.8187903 Z M42.294543,15.7526613 C42.5864785,16.0773925 42.5880914,16.4636828 42.2536828,16.7642204 C41.9200806,17.0650269 41.4996505,17.0002419 41.1792204,16.644328 L40.9905108,16.4349194 L42.0493817,15.4811559 L42.294543,15.7526613 Z" id="Fill-86" fill="#FFF100" mask="url(#mask-6)"></path>
                        <polygon id="Fill-87" fill="#FFF100" mask="url(#mask-6)" points="25.9676344 4.51102151 25.9383333 6.2233871 24.2910215 6.19489247 24.321129 4.48198925 23.2189785 4.46317204 23.146129 8.65483871 24.2477419 8.67446237 24.2813441 6.75752688 25.9283871 6.78655914 25.8947849 8.70268817 26.9966667 8.72231183 27.0697849 4.53010753"></polygon>
                        <path d="M31.935672,10.7417204 C32.7173925,11.2113441 33.5719624,11.1360753 33.9690054,10.4739785 C34.2614785,10.0116129 34.2641667,9.62962366 33.9160484,8.94575269 C33.8225,8.74763441 33.7077151,8.60784946 33.6289516,8.43258065 C33.4765323,8.14252688 33.3337903,7.90784946 33.4687366,7.68392473 C33.6130914,7.44413978 33.9493817,7.42666667 34.2569086,7.61134409 C34.5802957,7.80543011 34.7128226,8.12693548 34.7776075,8.35005376 L35.2854032,8.13016129 C35.1294892,7.71725806 34.8993817,7.34467742 34.3786828,7.03177419 C33.4819086,6.49306452 32.7509946,6.63526882 32.4475,7.14091398 C32.1407796,7.65166667 32.2278763,8.07290323 32.4561022,8.50784946 C32.4561022,8.50784946 32.6023387,8.75946237 32.6880914,8.92424731 C32.8880914,9.26403226 33.1222312,9.68849462 32.9595968,9.95946237 C32.759328,10.2927957 32.4098656,10.3667204 32.0741129,10.1581183 C31.6426613,9.88473118 31.5421237,9.56860215 31.4515323,9.25892473 L30.8956183,9.49924731 C31.0184677,9.92048387 31.3055645,10.362957 31.935672,10.7417204" id="Fill-88" fill="#FFF100" mask="url(#mask-6)"></path>
                        <path d="M20.5068817,4.73075269 C19.1340323,5.02295699 18.2348387,6.03021505 18.5313441,7.39607527 C18.7004301,8.13290323 19.360914,9.49553763 21.4439785,9.05252688 C22.0200538,8.94231183 22.3353763,8.70870968 22.6394086,8.42107527 L22.2558065,7.98344086 C22.1162903,8.14311828 21.8993548,8.37456989 21.4203226,8.4761828 C20.4144086,8.68989247 19.8136022,7.8716129 19.6641398,7.16731183 C19.4429032,6.12591398 20.0496237,5.40306452 20.7420968,5.25629032 C21.2273118,5.15306452 21.5265054,5.28129032 21.7162903,5.35817204 L21.7222043,5.35709677 L21.8498925,4.82268817 C21.518172,4.68935484 21.1222043,4.60037634 20.5068817,4.73075269" id="Fill-89" fill="#FFF100" mask="url(#mask-6)"></path>
                        <path d="M42.7324731,11.7029301 C42.6746774,11.4542742 42.5932258,10.3924462 42.9961828,9.83223118 C43.3687634,9.31556452 43.7080108,9.4902957 43.8897312,9.57120968 C43.9719892,9.60776882 44.2176882,9.7669086 44.2660753,10.0808871 C44.2921505,10.2494355 44.2391935,10.4994355 44.109086,10.6825 C43.8534409,11.0139516 43.2736022,11.2335753 43.2736022,11.2335753 C43.2736022,11.2335753 44.0171505,12.6905645 45.5932258,14.1376075 L45.5878495,15.1209409 C43.4297849,13.0397581 42.7324731,11.7029301 42.7324731,11.7029301" id="Fill-90" fill="#FFF100" mask="url(#mask-6)"></path>
                        <path d="M43.8145699,11.4020968 C44.0282796,11.7698387 44.5699462,12.6695699 45.9258602,13.9405376 C46.1508602,14.1512903 46.7116129,14.326828 47.0288172,13.9711828 C47.1500538,13.8346237 47.2277419,13.6391935 47.2156452,13.4123118 C47.2013978,13.1515591 47.040914,12.8469892 46.8866129,12.7144624 C46.6156452,12.4824731 45.4497849,11.3047849 44.6143011,10.3800538 C44.5957527,10.5486022 44.448172,10.8305914 44.448172,10.8305914 C44.3363441,10.9883871 44.1957527,11.2160753 43.8145699,11.4020968" id="Fill-91" fill="#FFF100" mask="url(#mask-6)"></path>
                        <path d="M3.61943548,15.0617204 L3.61379032,14.1332258 C5.19067204,12.6861828 5.9352957,11.2334946 5.9352957,11.2334946 C5.9352957,11.2334946 5.35518817,11.013871 5.09981183,10.6824194 C4.96916667,10.4993548 4.91594086,10.2496237 4.94228495,10.0810753 C4.99120968,9.76682796 5.23663978,9.60768817 5.31836022,9.57139785 C5.50061828,9.49021505 5.83959677,9.31548387 6.2119086,9.83215054 C6.61513441,10.3923656 6.50922043,11.4472043 6.45223118,11.6958602 C6.45223118,11.6958602 5.71728495,12.9756989 3.61943548,15.0617204" id="Fill-92" fill="#FFF100" mask="url(#mask-6)"></path>
                        <path d="M5.36674731,11.4020968 C5.15384409,11.7698387 4.61217742,12.6695699 3.25545699,13.9405376 C3.03072581,14.1512903 2.4697043,14.326828 2.15330645,13.9711828 C2.03153226,13.8346237 1.95384409,13.6391935 1.96620968,13.4123118 C1.98018817,13.1515591 2.14094086,12.8469892 2.29551075,12.7144624 C2.56620968,12.4824731 3.73206989,11.3047849 4.56755376,10.3800538 C4.58610215,10.5486022 4.7336828,10.8305914 4.7336828,10.8305914 C4.84524194,10.9883871 4.98583333,11.2160753 5.36674731,11.4020968" id="Fill-93" fill="#FFF100" mask="url(#mask-6)"></path>
                        <path d="M0.985725806,27.1030914 C0.985725806,25.1740591 2.5497043,23.6103495 4.47846774,23.6103495 C6.40723118,23.6103495 7.97094086,25.1740591 7.97094086,27.1030914 C7.97094086,29.0323925 6.40723118,30.5955645 4.47846774,30.5955645 C2.5497043,30.5955645 0.985725806,29.0323925 0.985725806,27.1030914" id="Fill-94" fill="#E12E21" mask="url(#mask-6)"></path>
                        <path d="M5.35900538,30.1383065 C5.1780914,30.1971774 5.09475806,30.068414 5.01061828,29.9719086 C4.68615591,29.6012097 4.60201613,28.6033602 4.60201613,28.4708333 C4.60201613,28.3385753 4.64986559,28.1942204 4.74233871,28.1920699 C5.53158602,28.1721774 6.09260753,27.9418011 6.60739247,27.5189516 C7.12163978,27.0958333 7.34448925,26.6173387 7.39153226,26.5245968 C7.43803763,26.4310484 7.53938172,26.4474462 7.5641129,26.5826613 C7.58373656,26.6928763 7.62486559,26.8923387 7.62486559,27.1052419 C7.62486559,28.5401882 6.65819892,29.7178763 5.35900538,30.1383065 M4.5297043,30.2670699 C4.50712366,30.2659946 4.48481183,30.2673387 4.46223118,30.2673387 C3.8797043,30.2673387 3.24314516,30.0469086 2.86545699,29.8358871 C2.47540323,29.6176075 2.32916667,28.6194892 2.32916667,28.1084677 C2.32916667,26.4608871 3.00819892,25.4708333 3.11653226,25.278629 C3.22486559,25.0864247 3.46545699,25.0622312 3.64583333,25.1100806 C3.82594086,25.1584677 3.89583333,25.1950269 4.10255376,25.2571237 C4.21465054,25.2918011 4.4391129,25.3385753 4.60766129,25.3748656 C4.77594086,25.4114247 4.95577957,25.4471774 4.84798387,25.7600806 C4.73965054,26.0724462 4.37728495,26.8288978 4.3375,27.7235215 C4.30094086,28.531586 4.40954301,29.3375 4.59287634,29.8307796 C4.71196237,30.1517473 4.70981183,30.2732527 4.5297043,30.2670699 M2.13723118,26.4969086 C1.9813172,26.4111559 1.79583333,26.0146505 1.73561828,25.8966398 C1.69233871,25.8114247 1.69502688,25.5751344 1.75362903,25.4708333 C2.01061828,25.0159946 2.37728495,24.6020161 2.85201613,24.3821237 C2.90658602,24.3573925 2.99045699,24.3547043 2.99045699,24.4893817 C2.99045699,24.5643817 3.02755376,24.6823925 3.02916667,24.7555108 C3.03077957,24.8270161 3.06303763,24.9821237 2.96680108,25.1028226 C2.87056452,25.2224462 2.44502688,25.9678763 2.34153226,26.3891129 C2.31787634,26.4848118 2.29287634,26.5831989 2.13723118,26.4969086 M2.05336022,29.1450269 C1.61357527,28.7106183 1.29959677,27.9294355 1.29959677,27.1052419 C1.29959677,26.7853495 1.3469086,26.4778226 1.43454301,26.1866935 C1.43454301,26.1866935 1.50873656,26.0541667 1.58077957,26.1670699 C1.63239247,26.2477151 1.70174731,26.3302419 1.7641129,26.4401882 C1.82728495,26.5501344 2.1686828,26.8098118 2.13723118,27.0143817 C2.01680108,27.7866935 2.12540323,28.8173387 2.16115591,28.9856183 C2.19744624,29.1544355 2.14448925,29.2353495 2.05336022,29.1450269 M3.43454301,24.1130376 C3.75766129,24.0057796 4.10228495,23.9423387 4.46223118,23.9423387 C5.00793011,23.9423387 5.52755376,24.0444892 5.96948925,24.324328 C6.08158602,24.3950269 6.11518817,24.4848118 6.11518817,24.6111559 C6.11518817,25.0224462 5.46733871,25.1619624 5.0358871,25.1619624 C4.60497312,25.1619624 4.07620968,24.990457 3.70147849,24.8737903 C3.32647849,24.756586 3.24314516,24.5377688 3.24314516,24.4412634 C3.24314516,24.3450269 3.31518817,24.1525538 3.43454301,24.1130376 M6.35712366,24.5735215 C6.41760753,24.6216398 6.5686828,24.7458333 6.5686828,24.7458333 C6.87137097,25.0165323 7.14422043,25.3337366 7.30228495,25.7119624 C7.50201613,26.1896505 6.88642473,26.9063172 6.70604839,27.074328 C5.89153226,27.8340054 5.38481183,27.8219086 5.09422043,27.8638441 C4.8030914,27.9047043 4.61975806,27.7248656 4.62594086,27.5073925 C4.64475806,26.865457 5.09905914,25.7727151 5.22701613,25.571371 C5.31115591,25.4393817 5.45551075,25.3552419 5.45551075,25.3552419 C5.75604839,25.2711022 6.04744624,25.1415323 6.19879032,24.9702957 C6.34986559,24.7998656 6.35712366,24.5735215 6.35712366,24.5735215" id="Fill-95" fill="#FFF100" mask="url(#mask-6)"></path>
                        <path d="M48.2531989,27.1030914 C48.2531989,25.1740591 46.6897581,23.6103495 44.7607258,23.6103495 C42.8311559,23.6103495 41.2682527,25.1740591 41.2682527,27.1030914 C41.2682527,29.0323925 42.8311559,30.5955645 44.7607258,30.5955645 C46.6897581,30.5955645 48.2531989,29.0323925 48.2531989,27.1030914" id="Fill-96" fill="#E12E21" mask="url(#mask-6)"></path>
                        <path d="M41.6141398,27.1051882 C41.6141398,26.8922849 41.655,26.6928226 41.6754301,26.5828763 C41.6993548,26.4473925 41.8004301,26.4309946 41.8477419,26.524543 C41.8945161,26.6175538 42.1173656,27.0957796 42.6318817,27.5188978 C43.1463978,27.9417473 43.7074194,28.1721237 44.4966667,28.1920161 C44.5883333,28.1941667 44.6367204,28.3385215 44.6367204,28.4707796 C44.6367204,28.6033065 44.5531183,29.6011559 44.2283871,29.9718548 C44.1442473,30.0683602 44.0614516,30.1971237 43.8797312,30.1382527 C42.5808065,29.7178226 41.6141398,28.5401344 41.6141398,27.1051882 M44.646129,29.8309946 C44.8291935,29.3377151 44.9375269,28.5318011 44.9015054,27.7234677 C44.8614516,26.8291129 44.499086,26.0723925 44.3915591,25.7600269 C44.282957,25.4471237 44.4636022,25.411371 44.6316129,25.3748118 C44.7996237,25.3385215 45.0238172,25.2917473 45.1367204,25.2570699 C45.3429032,25.1952419 45.4127957,25.158414 45.593172,25.1100269 C45.7735484,25.0621774 46.013871,25.086371 46.1224731,25.2785753 C46.2308065,25.4707796 46.9095699,26.4611022 46.9095699,28.108414 C46.9095699,28.6194355 46.7633333,29.6175538 46.3730108,29.8358333 C45.9955914,30.0468548 45.3593011,30.2675538 44.7765054,30.2675538 C44.7539247,30.2675538 44.7318817,30.2659409 44.7093011,30.2670161 C44.5289247,30.2731989 44.5265054,30.1516935 44.646129,29.8309946 M46.8974731,26.3890591 C46.7942473,25.9680914 46.3684409,25.2223925 46.2722043,25.1027688 C46.1759677,24.9823387 46.2082258,24.8269624 46.2098387,24.755457 C46.2114516,24.6823387 46.2485484,24.564328 46.2485484,24.489328 C46.2485484,24.3549194 46.3324194,24.3573387 46.3864516,24.3823387 C46.8617204,24.6019624 47.2283871,25.0162097 47.4851075,25.4707796 C47.5442473,25.5753495 47.5469355,25.8116398 47.5033871,25.896586 C47.4437097,26.0145968 47.2576882,26.4111022 47.1017742,26.4968548 C46.9463978,26.583414 46.921129,26.4847581 46.8974731,26.3890591 M47.0778495,28.9855645 C47.1136022,28.8172849 47.2219355,27.7866398 47.1017742,27.014328 C47.0703226,26.8097581 47.4114516,26.5503495 47.4748925,26.4401344 C47.5375269,26.3301882 47.6068817,26.2479301 47.6582258,26.1670161 C47.7302688,26.0541129 47.8041935,26.1866398 47.8041935,26.1866398 C47.8923656,26.4777688 47.9394086,26.7855645 47.9394086,27.1051882 C47.9394086,27.9293817 47.6256989,28.7108333 47.1856452,29.1449731 C47.0945161,29.2352957 47.0412903,29.1543817 47.0778495,28.9855645 M45.9955914,24.4412097 C45.9955914,24.5377151 45.9122581,24.7568011 45.5375269,24.8737366 C45.1627957,24.9904032 44.6337634,25.1619086 44.2031183,25.1619086 C43.7713978,25.1619086 43.1235484,25.0223925 43.1235484,24.611371 C43.1235484,24.4847581 43.1576882,24.3949731 43.2689785,24.3242742 C43.7111828,24.0444355 44.2313441,23.9422849 44.7765054,23.9422849 C45.1367204,23.9422849 45.4813441,24.0057258 45.8044624,24.1129839 C45.9235484,24.1527688 45.9955914,24.3449731 45.9955914,24.4412097 M43.0407527,24.9705108 C43.1912903,25.1414785 43.482957,25.2710484 43.7832258,25.3551882 C43.7832258,25.3551882 43.9278495,25.439328 44.0119892,25.5713172 C44.1396774,25.7726613 44.5942473,26.8654032 44.6133333,27.5073387 C44.6192473,27.7250806 44.4361828,27.9049194 44.1447849,27.8637903 C43.8539247,27.8218548 43.3472043,27.8339516 42.5334946,27.0742742 C42.3528495,26.9062634 41.7369892,26.1895968 41.9369892,25.7119086 C42.0945161,25.3336828 42.3676344,25.0164785 42.6705914,24.7460484 C42.6705914,24.7460484 42.8213978,24.621586 42.8816129,24.5737366 C42.8816129,24.5737366 42.888871,24.7998118 43.0407527,24.9705108" id="Fill-97" fill="#FFF100" mask="url(#mask-6)"></path>
                        <path d="M41.3188172,27.0847043 C41.3188172,28.0438441 41.7075269,28.9129301 42.3362903,29.5416935 C42.9653226,30.170457 43.833871,30.5597043 44.7938172,30.5597043 C45.7534946,30.5597043 46.6223118,30.1707258 47.2508065,29.5416935 C47.8793011,28.9129301 48.2685484,28.0438441 48.2685484,27.0847043 C48.2685484,26.1250269 47.8793011,25.2559409 47.2508065,24.6274462 C46.622043,23.9989516 45.752957,23.6099731 44.7938172,23.6099731 C43.833871,23.6099731 42.9655914,23.9989516 42.3365591,24.6277151 C41.7075269,25.2564785 41.3188172,26.1250269 41.3188172,27.0847043 M41.2830645,27.0847043 C41.2830645,26.1150806 41.6760753,25.2379301 42.3115591,24.6024462 C42.9467742,23.9672312 43.8241935,23.5742204 44.7938172,23.5742204 C45.7629032,23.5742204 46.6405914,23.9669624 47.2758065,24.6024462 C47.9107527,25.2373925 48.3040323,26.1150806 48.3040323,27.0847043 C48.3040323,28.0537903 47.9107527,28.9317473 47.2758065,29.5669624 C46.6408602,30.2024462 45.7629032,30.5949194 44.7938172,30.5949194 C43.8241935,30.5949194 42.9467742,30.2024462 42.3112903,29.5669624 C41.6760753,28.9317473 41.2830645,28.0537903 41.2830645,27.0847043" id="Fill-98" fill="#FFE600" mask="url(#mask-6)"></path>
                    </g>
                </g>
            </g>
        </g>
    </g>
</svg>