<?xml version="1.0" encoding="UTF-8" standalone="no"?>
<svg width="50px" height="50px" viewBox="0 0 50 50" version="1.1" xmlns="http://www.w3.org/2000/svg" xmlns:xlink="http://www.w3.org/1999/xlink">
    <!-- Generator: Sketch 42 (36781) - http://www.bohemiancoding.com/sketch -->
    <title>city</title>
    <desc>Created with Sketch.</desc>
    <defs>
        <polygon id="path-1" points="0.000177304965 49.8223404 49.6455674 49.8223404 49.6455674 0.176950355 0.000177304965 0.176950355"></polygon>
        <polygon id="path-3" points="0 49.822695 49.645922 49.822695 49.645922 0.17677305 0 0.17677305"></polygon>
    </defs>
    <g id="Page-1" stroke="none" stroke-width="1" fill="none" fill-rule="evenodd">
        <g id="city">
            <path d="M48.3012234,25.0001773 C48.3012234,31.2265957 45.8272872,37.1989362 41.4244504,41.601773 C37.0216135,46.0046099 31.0499823,48.4785461 24.8228546,48.4785461 C18.5964362,48.4785461 12.6240957,46.0046099 8.22125887,41.601773 C3.81842199,37.1989362 1.34448582,31.2265957 1.34448582,25.0001773 C1.34448582,18.7730496 3.81842199,12.8014184 8.22125887,8.39858156 C12.6240957,3.99574468 18.5964362,1.52180851 24.8228546,1.52180851 C31.0499823,1.52180851 37.0216135,3.99574468 41.4244504,8.39858156 C45.8272872,12.8014184 48.3012234,18.7730496 48.3012234,25.0001773" id="Fill-1" fill="#FFFFFF"></path>
            <path d="M24.8228723,1.91721631 C18.6574468,1.91721631 12.8608156,4.31828014 8.50088652,8.67820922 C4.14095745,13.0381383 1.73989362,18.8347695 1.73989362,25.000195 C1.73989362,31.1656206 4.14095745,36.9622518 8.50088652,41.3221809 C12.8608156,45.6819326 18.6574468,48.0831738 24.8228723,48.0831738 C30.9882979,48.0831738 36.7849291,45.6819326 41.1448582,41.3221809 C45.5047872,36.9622518 47.9058511,31.1656206 47.9058511,25.000195 C47.9058511,18.8347695 45.5047872,13.0381383 41.1448582,8.67820922 C36.7849291,4.31828014 30.9882979,1.91721631 24.8228723,1.91721631 M24.8228723,48.8737766 C18.4460993,48.8737766 12.4510638,46.3906206 7.94184397,41.8814007 C3.43244681,37.3720035 0.949113475,31.3769681 0.949113475,25.000195 C0.949113475,18.623422 3.43244681,12.6283865 7.94184397,8.11916667 C12.4510638,3.6097695 18.4460993,1.12643617 24.8228723,1.12643617 C31.1996454,1.12643617 37.1946809,3.6097695 41.704078,8.11916667 C46.2132979,12.6283865 48.6964539,18.623422 48.6964539,25.000195 C48.6964539,31.3769681 46.2132979,37.3720035 41.704078,41.8814007 C37.1946809,46.3906206 31.1996454,48.8737766 24.8228723,48.8737766" id="Fill-3" fill="#FF0000"></path>
            <path d="M24.8228723,1.91721631 C30.9446809,1.91721631 36.8159574,4.3489539 41.1446809,8.67838652 C45.4741135,13.0071099 47.9056738,18.8783865 47.9056738,25.000195 C47.9056738,31.1220035 45.4741135,36.9932801 41.1446809,41.3220035 C36.8159574,45.6514362 30.9446809,48.0829965 24.8228723,48.0829965 C18.7010638,48.0829965 12.8297872,45.6514362 8.50106383,41.3220035 C4.17163121,36.9932801 1.74007092,31.1220035 1.74007092,25.000195 C1.74007092,18.8783865 4.17163121,13.0071099 8.50106383,8.67838652 C12.8297872,4.3489539 18.7010638,1.91721631 24.8228723,1.91721631 M24.8228723,1.12643617 C18.4911348,1.12643617 12.4191489,3.6418617 7.94148936,8.11881206 C3.46453901,12.5957624 0.949113475,18.6684574 0.949113475,25.000195 C0.949113475,31.3319326 3.46453901,37.4046277 7.94148936,41.881578 C12.4191489,46.3585284 18.4911348,48.8739539 24.8228723,48.8739539 C31.1546099,48.8739539 37.227305,46.3585284 41.7042553,41.881578 C46.1812057,37.4046277 48.6966312,31.3319326 48.6966312,25.000195 C48.6966312,18.6684574 46.1812057,12.5957624 41.7042553,8.11881206 C37.227305,3.6418617 31.1546099,1.12643617 24.8228723,1.12643617" id="Fill-5" fill="#002E60"></path>
            <g id="Group-9" transform="translate(0.000000, 0.000532)">
                <mask id="mask-2" fill="white">
                    <use xlink:href="#path-1"></use>
                </mask>
                <g id="Clip-8"></g>
                <path d="M24.8228723,2.86597518 C18.9102837,2.86597518 13.3521277,5.16828014 9.17216312,9.3489539 C4.99148936,13.5289184 2.6891844,19.0870745 2.6891844,24.9996631 C2.6891844,30.9122518 4.99148936,36.4702305 9.17216312,40.6503723 C13.352305,44.8310461 18.910461,47.1333511 24.8228723,47.1333511 C30.7352837,47.1333511 36.2932624,44.8310461 40.4735816,40.6503723 C44.6542553,36.4700532 46.9565603,30.9120745 46.9565603,24.9996631 C46.9565603,19.0872518 44.6542553,13.5290957 40.4735816,9.3489539 C36.2934397,5.16828014 30.735461,2.86597518 24.8228723,2.86597518 M24.8228723,49.8227128 C18.1930851,49.8227128 11.9595745,47.2406206 7.27039007,42.5521454 C2.5820922,37.8638475 0,31.6301596 0,24.9996631 C0,18.3691667 2.5820922,12.1354787 7.27039007,7.44718085 C11.9593972,2.75888298 18.1930851,0.17679078 24.8228723,0.17679078 C31.4533688,0.17679078 37.6870567,2.75888298 42.3753546,7.44718085 C47.0636525,12.135656 49.645922,18.3691667 49.645922,24.9996631 C49.645922,31.6299823 47.0636525,37.8638475 42.3753546,42.5521454 C37.6870567,47.2404433 31.4533688,49.8227128 24.8228723,49.8227128" id="Fill-7" fill="#002E60" mask="url(#mask-2)"></path>
            </g>
            <g id="Group-78" transform="translate(0.000000, 0.000532)">
                <path d="M24.8228723,1.9166844 C30.9446809,1.9166844 36.8159574,4.34842199 41.1446809,8.67785461 C45.4741135,13.006578 47.9056738,18.8778546 47.9056738,24.9996631 C47.9056738,31.1214716 45.4741135,36.9927482 41.1446809,41.3214716 C36.8159574,45.6509043 30.9446809,48.0824645 24.8228723,48.0824645 C18.7010638,48.0824645 12.8297872,45.6509043 8.50106383,41.3214716 C4.17163121,36.9927482 1.74007092,31.1214716 1.74007092,24.9996631 C1.74007092,18.8778546 4.17163121,13.006578 8.50106383,8.67785461 C12.8297872,4.34842199 18.7010638,1.9166844 24.8228723,1.9166844 Z M24.8228723,1.12590426 C18.4911348,1.12590426 12.4191489,3.64132979 7.94148936,8.11828014 C3.46453901,12.5952305 0.949113475,18.6679255 0.949113475,24.9996631 C0.949113475,31.3314007 3.46453901,37.4040957 7.94148936,41.8810461 C12.4191489,46.3579965 18.4911348,48.873422 24.8228723,48.873422 C31.1546099,48.873422 37.227305,46.3579965 41.7042553,41.8810461 C46.1812057,37.4040957 48.6966312,31.3314007 48.6966312,24.9996631 C48.6966312,18.6679255 46.1812057,12.5952305 41.7042553,8.11828014 C37.227305,3.64132979 31.1546099,1.12590426 24.8228723,1.12590426 Z" id="Fill-10" fill="#7BB1DD"></path>
                <path d="M24.8886702,10.7517021 C21.0578191,10.7517021 17.456578,12.2433688 14.7480674,14.9517021 C12.0395567,17.6602128 10.5480674,21.2614539 10.5480674,25.0924823 C10.5480674,28.9228014 12.0395567,32.5240426 14.7480674,35.2323759 C17.4569326,37.9414184 21.0583511,39.4332624 24.8886702,39.4332624 C28.7186348,39.4332624 32.3196986,37.9414184 35.0285638,35.2323759 C37.7376064,32.5235106 39.2294504,28.9222695 39.2294504,25.0924823 C39.2294504,21.2619858 37.7376064,17.6607447 35.0285638,14.9517021 C32.3202305,12.2433688 28.7191667,10.7517021 24.8886702,10.7517021 M24.8886702,40.3118085 C20.8235993,40.3118085 17.0017908,38.7284752 14.1267908,35.8536525 C11.2523227,32.9793617 9.66952128,29.1577305 9.66952128,25.0924823 C9.66952128,21.0268794 11.2523227,17.2048936 14.1267908,14.3306028 C17.0010816,11.4561348 20.8230674,9.87315603 24.8886702,9.87315603 C28.9539184,9.87315603 32.7755496,11.4561348 35.6498404,14.3306028 C38.5246631,17.2052482 40.1079965,21.0274113 40.1079965,25.0924823 C40.1079965,29.1571986 38.5246631,32.9788298 35.6498404,35.8536525 C32.7750177,38.7284752 28.9533865,40.3118085 24.8886702,40.3118085" id="Fill-12" fill="#002E60"></path>
                <path d="M38.6381028,25.0696099 C38.6381028,28.727234 37.1850887,32.2352128 34.5989184,34.8220922 C32.0127482,37.4082624 28.5047695,38.8612766 24.8471454,38.8612766 C21.1895213,38.8612766 17.6815426,37.4082624 15.0953723,34.8220922 C12.5092021,32.2352128 11.0560106,28.727234 11.0560106,25.0696099 C11.0560106,21.4121631 12.5092021,17.904539 15.0953723,15.3178369 C17.6815426,12.731844 21.1895213,11.2784752 24.8471454,11.2784752 C28.5047695,11.2784752 32.0127482,12.731844 34.5989184,15.3178369 C37.1850887,17.904539 38.6381028,21.4121631 38.6381028,25.0696099" id="Fill-14" fill="#7BB1DD"></path>
                <path d="M13.4469504,13.675 C12.4613121,17.8728723 12.4496099,21.6599291 12.4903901,24.2406028 C12.4260284,36.0008865 21.126383,39.6515957 24.8180496,40.764539 C28.5102482,39.6515957 37.2106028,36.0008865 37.1462411,24.2406028 C37.1871986,21.6599291 37.1753191,17.8728723 36.1898582,13.675 C30.4786879,12.6734043 27.0059929,12.7696809 24.8180496,12.7448582 C22.6308156,12.7696809 19.1581206,12.6734043 13.4469504,13.675" id="Fill-16" fill="#002E60"></path>
                <path d="M14.6271454,14.495727 C14.0003723,17.2771099 13.6796277,19.7872163 13.5585284,21.8725 C13.5099468,24.145727 13.4844149,26.4512234 13.8423936,28.484734 C14.0308688,29.5549468 14.3445213,30.6693085 14.9131383,31.8196631 C16.1023227,34.0483865 17.8026773,36.0223227 19.3478901,37.0723227 C21.3890248,38.6244504 23.4971809,39.4831383 24.8181028,39.901578 C26.1395567,39.4831383 28.2477128,38.6244504 30.2888475,37.0723227 C31.8340603,36.0223227 33.5344149,34.0483865 34.7228901,31.8196631 C35.2922163,30.6693085 35.6058688,29.5549468 35.794344,28.484734 C36.1523227,26.4512234 36.1267908,24.145727 36.0775,21.8725 C35.9571099,19.7872163 35.6363652,17.2771099 35.0095922,14.495727 C29.8775,13.5586702 26.7837057,13.6485638 24.8181028,13.6251596 C22.8532092,13.6485638 19.7592376,13.5586702 14.6271454,14.495727" id="Fill-18" fill="#FFBB59"></path>
                <path d="M21.3959043,42.6719681 C21.351578,42.6428901 21.2414716,42.5154078 21.1396986,42.4510461 C20.3063652,41.9155851 19.3228546,42.4317199 19.2758688,43.4400532 C19.2489184,44.0565426 19.7010461,44.580656 20.2060106,44.6790603 C20.7267553,44.7760461 21.0980319,44.5391667 21.4402305,44.2400532 L21.9666489,44.7927128 C21.6943085,45.0787057 21.3689539,45.3467908 20.7801241,45.4609752 C20.670727,45.4797695 20.5203723,45.489344 20.3285284,45.489344 C19.2308333,45.3834929 18.6074291,44.8017553 18.4260461,43.8673582 C18.320727,43.3666489 18.407961,42.8528191 18.6739184,42.4177128 C18.991117,41.9003369 19.4572518,41.6019326 20.0563652,41.4856206 C20.7710816,41.3505142 21.4983865,41.5818972 21.9444858,42.0521099 L21.3959043,42.6719681 Z" id="Fill-20" fill="#002E60"></path>
                <mask id="mask-4" fill="white">
                    <use xlink:href="#path-3"></use>
                </mask>
                <g id="Clip-23"></g>
                <polygon id="Fill-22" fill="#002E60" mask="url(#mask-4)" points="22.7929078 45.4147163 23.673227 45.4147163 23.673227 41.5111702 22.7929078 41.5111702"></polygon>
                <polygon id="Fill-24" fill="#002E60" mask="url(#mask-4)" points="27.7137766 42.3215248 26.5253014 42.3215248 26.5253014 45.4146099 25.6435638 45.4146099 25.6435638 42.3215248 24.4577482 42.3215248 24.4577482 41.5112411 27.7137766 41.5112411"></polygon>
                <polygon id="Fill-25" fill="#002E60" mask="url(#mask-4)" points="31.9247695 41.5111702 30.4162589 43.8430851 30.4162589 45.4147163 29.5561525 45.4147163 29.5561525 43.8430851 28.0662589 41.5111702 29.0761879 41.5111702 29.9930319 43.1047872 30.9481738 41.5111702"></polygon>
                <polygon id="Fill-26" fill="#002E60" mask="url(#mask-4)" points="9.7927305 18.2322872 9.40141844 18.9601241 6.025 17.1913298 6.44822695 16.392039 8.37570922 16.2702305 7.38670213 14.5954078 7.8070922 13.8025 11.1808511 15.5872518 10.7998227 16.3179255 8.56560284 15.1349468 9.53439716 16.8886702 7.56826241 17.0845922"></polygon>
                <path d="M12.1448759,12.0814184 L10.8705851,11.5862057 L11.4342376,12.8197163 L12.1448759,12.0814184 Z M14.3564007,12.0592553 L13.7406206,12.702695 L12.8790957,12.3619149 L11.764734,13.5454255 L12.1572872,14.390461 L11.5728901,15.0012766 L9.8918617,11.1789362 L10.4204078,10.6117376 L14.3564007,12.0592553 Z" id="Fill-27" fill="#002E60" mask="url(#mask-4)"></path>
                <polygon id="Fill-28" fill="#002E60" mask="url(#mask-4)" points="14.915266 11.6539007 12.9248404 8.39539007 13.590266 7.98670213 16.3517908 9.08439716 15.1195213 7.0606383 15.8308688 6.63049645 17.8103014 9.90106383 17.1994858 10.2647163 14.3459397 9.14609929 15.614734 11.2239362"></polygon>
                <path d="M20.6700532,6.15546099 C20.6202305,6.14021277 20.4824645,6.05085106 20.3681028,6.01751773 C19.437961,5.74269504 18.6546277,6.49748227 18.8860106,7.45812057 C19.029273,8.04624113 19.5985993,8.41539007 20.1000177,8.36893617 C20.6166844,8.31769504 20.900727,7.99358156 21.1409752,7.61822695 L21.787961,7.99358156 C21.6099468,8.33702128 21.3771454,8.67921986 20.8549823,8.94801418 C20.7572872,8.995 20.6181028,9.04570922 20.4381383,9.09819149 C19.3762589,9.29907801 18.6303369,8.92230496 18.2030319,8.09322695 C17.9675709,7.65156028 17.9087057,7.14375887 18.0395567,6.66166667 C18.1968262,6.08826241 18.5535638,5.67957447 19.0847695,5.40599291 C19.7198759,5.08329787 20.4679255,5.10120567 21.0156206,5.42195035 L20.6700532,6.15546099 Z" id="Fill-29" fill="#002E60" mask="url(#mask-4)"></path>
                <polygon id="Fill-30" fill="#002E60" mask="url(#mask-4)" points="38.0016135 10.3545922 37.0769681 9.63703901 35.2243085 12.0771099 34.5477128 11.5680674 36.4079965 9.13987589 35.4854787 8.43544326 35.954273 7.82108156 38.4705851 9.74519504"></polygon>
                <polygon id="Fill-31" fill="#002E60" mask="url(#mask-4)" points="22.651578 4.66152482 22.7402305 8.48333333 23.5726773 8.45478723 23.5249823 6.92003546 25.1019326 6.875 25.139344 8.42092199 25.9636348 8.40230496 25.8790603 4.58262411 25.0368617 4.60053191 25.0771099 6.11950355 23.5138121 6.16028369 23.4792376 4.64556738"></polygon>
                <polygon id="Fill-32" fill="#002E60" mask="url(#mask-4)" points="27.9457979 4.8229078 30.7564362 5.43443262 30.5922518 6.16102837 28.5940248 5.72131206 28.4181383 6.50109929 30.0699113 6.84950355 29.6773582 7.51776596 28.2670745 7.21315603 28.0885284 8.01156028 30.1268262 8.45003546 29.9661879 9.17237589 27.1326773 8.55748227"></polygon>
                <path d="M33.0661702,8.00530142 C32.5723759,7.6404078 32.5668794,7.42019504 32.6948936,7.24005319 C32.8245035,7.09803191 32.9796454,7.10015957 33.1443617,7.1583156 C33.409078,7.24838652 33.6161702,7.42906028 33.7760993,7.6368617 C33.8633333,7.7512234 33.9312411,7.86274823 33.9977305,7.96593972 L34.6521631,7.56203901 C34.553227,7.37374113 34.2851418,6.83491135 33.4963121,6.49625887 C33.1250355,6.33420213 32.2344326,6.18526596 31.8512766,7.09253546 C31.696844,7.48597518 31.7557092,7.73934397 31.8548227,7.91398936 C32.0757447,8.26505319 32.4165248,8.51239362 32.7275177,8.78721631 C32.8562411,8.8939539 32.9892199,9.02214539 33.0440071,9.17657801 C33.0821277,9.29359929 33.0502128,9.4154078 32.9629787,9.4902305 C32.5099645,9.8760461 31.6858511,9.04076241 31.5257447,8.59271277 L30.823617,8.92728723 C31.1975532,9.65370567 31.8312411,10.3076064 32.8347872,10.3373936 C33.1963121,10.3193085 33.6112057,10.1219681 33.8051773,9.68420213 C33.9346099,9.33508865 33.9643972,9.01718085 33.7801773,8.72498227 C33.6057092,8.45140071 33.3023404,8.17303191 33.0661702,8.00530142" id="Fill-33" fill="#002E60" mask="url(#mask-4)"></path>
                <polygon id="Fill-34" fill="#002E60" mask="url(#mask-4)" points="39.636844 10.8748227 41.4778014 13.0849291 40.9015603 13.5565603 39.5960638 11.9822695 38.978156 12.4891844 40.1084752 13.8322695 39.3522695 14.076773 38.4214184 12.958156 37.7896809 13.4783688 39.1278014 15.076773 38.5570567 15.5469858 36.6996099 13.3210993"></polygon>
                <path d="M40.5226773,19.2343794 L40.0863298,18.3611525 L40.8177128,17.0859752 L40.499805,16.4904078 L39.4109752,17.0340248 L39.0391667,16.2859752 L42.4501596,14.5739184 L43.1753369,16.0256915 C43.2744504,16.2244504 43.3228546,16.3428901 43.3733865,16.4966135 C43.476578,16.7923582 43.4834929,17.0756915 43.3872163,17.3104433 C43.0721454,18.080656 42.0547695,18.4593794 41.3240957,17.7882801 L40.5226773,19.2343794 Z M42.5416489,16.4377482 L42.1446631,15.6634574 L41.1730319,16.1634574 L41.5386348,16.9086702 C41.7368617,17.324273 42.049805,17.3693085 42.3033511,17.2764007 C42.5817199,17.1739184 42.755656,16.8185993 42.5416489,16.4377482 L42.5416489,16.4377482 Z" id="Fill-35" fill="#002E60" mask="url(#mask-4)"></path>
                <path d="M42.5824468,24.796117 C42.5893617,24.5985993 42.423227,24.4725355 42.2611702,24.433883 C42.1863475,24.4172163 42.1065603,24.4179255 42.0248227,24.4400887 C41.9480496,24.4663298 41.887766,24.5072872 41.8448582,24.5564007 C41.6599291,24.775195 41.7984043,25.0473582 41.9590426,25.1133156 C42.0171986,25.1395567 42.0934397,25.1569326 42.1932624,25.1581738 C42.5124113,25.1512589 42.5803191,24.894344 42.5824468,24.796117 M42.5602837,25.3854787 C42.2375887,25.6721809 41.7507092,25.6021454 41.4742908,25.314734 C41.351773,25.183883 41.2776596,25.0127837 41.2769504,24.8271454 C41.2865248,24.6872518 41.3260638,24.5549823 41.3863475,24.4400887 C41.4597518,24.3014362 41.5574468,24.1996631 41.6842199,24.1312234 C41.975,23.9732447 42.3593972,23.9634929 42.6274823,24.1248404 C42.8179078,24.2425709 42.948227,24.4393794 43.0083333,24.6679255 C43.0443262,24.8092376 43.0631206,24.9705851 43.0631206,25.150727 C43.0547872,25.6049823 42.927305,26.0337057 42.5762411,26.2455851 C42.4806738,26.3032092 42.3636525,26.3411525 42.2223404,26.3578191 C41.848227,26.4014362 41.572695,26.2851241 41.3420213,26.1092376 L41.5989362,25.7273227 C42.2326241,26.2367199 42.5471631,25.7470035 42.5602837,25.3854787" id="Fill-36" fill="#7BB1DD" mask="url(#mask-4)"></path>
                <path d="M44.7115071,25.4422163 L44.7115071,24.7074645 L44.0528191,25.4422163 L44.7115071,25.4422163 Z M45.4581383,25.8383156 L45.1652305,25.8383156 L45.1652305,26.360656 L44.7115071,26.360656 L44.7115071,25.8383156 L43.5687766,25.8383156 L43.505656,25.4906206 L44.7467908,24.0273227 L45.1652305,24.0273227 L45.1652305,25.4422163 L45.4581383,25.4422163 L45.4581383,25.8383156 Z" id="Fill-37" fill="#7BB1DD" mask="url(#mask-4)"></path>
                <polygon id="Fill-38" fill="#7BB1DD" mask="url(#mask-4)" points="4.74593972 24.6304965 4.6489539 24.2356383 5.25906028 24.035461 5.63512411 24.035461 5.63512411 26.3411348 5.15179078 26.3411348 5.15179078 24.5113475"></polygon>
                <path d="M7.49062057,25.651383 C7.48370567,25.4180496 7.22537234,25.3563475 7.05498227,25.3625532 C6.87625887,25.3756738 6.69416667,25.4824113 6.69203901,25.651383 C6.69824468,25.8715957 6.92484043,25.9721277 7.10285461,25.9733688 C7.30994681,25.9726596 7.48849291,25.8384397 7.49062057,25.651383 M7.33618794,24.9123759 C7.39221631,24.855461 7.42005319,24.7903901 7.42005319,24.7191135 C7.42005319,24.6359574 7.39221631,24.5715957 7.33618794,24.5251418 C7.28086879,24.4767376 7.20320922,24.453156 7.10285461,24.453156 C7.0023227,24.453156 6.92413121,24.4767376 6.8666844,24.5251418 C6.81118794,24.5715957 6.78352837,24.6359574 6.78352837,24.7191135 C6.78352837,24.7903901 6.81189716,24.855461 6.86863475,24.9123759 C6.98370567,25.0045745 7.17820922,25.0253191 7.33618794,24.9123759 M7.57306738,25.1423404 C7.84664894,25.2476596 7.97608156,25.4559929 7.97962766,25.7317021 C7.97679078,26.0517376 7.74487589,26.2581206 7.47200355,26.3336525 C7.36384752,26.3625532 7.24062057,26.3772695 7.10285461,26.3772695 C6.72324468,26.3668085 6.23086879,26.1957092 6.22182624,25.7317021 C6.23494681,25.4130851 6.30693262,25.2946454 6.58406028,25.1423404 C6.30427305,24.9662766 6.2023227,24.67 6.37838652,24.3506738 C6.41987589,24.2772695 6.4773227,24.2155674 6.54948582,24.1664539 C6.62218085,24.1171631 6.70515957,24.0797518 6.80019504,24.0549291 C6.89505319,24.0292199 6.9954078,24.0168085 7.10285461,24.0168085 C7.50303191,24.0127305 7.85906028,24.2100709 7.89859929,24.6180496 C7.90835106,24.7288652 7.89097518,24.8423404 7.83140071,24.9393262 C7.78228723,25.0231915 7.69842199,25.0896809 7.57306738,25.1423404" id="Fill-39" fill="#7BB1DD" mask="url(#mask-4)"></path>
                <path d="M24.8181028,39.901578 C26.1395567,39.4831383 28.2477128,38.6244504 30.2888475,37.0723227 C31.8340603,36.0223227 33.5344149,34.0483865 34.7228901,31.8196631 C35.2922163,30.6693085 35.6058688,29.5549468 35.794344,28.484734 C36.1523227,26.4512234 36.1267908,24.145727 36.0775,21.8725 C35.9571099,19.7872163 35.6363652,17.2771099 35.0095922,14.495727 C29.8775,13.5586702 26.7835284,13.6485638 24.8181028,13.6251596" id="Fill-40" fill="#E9AB00" mask="url(#mask-4)"></path>
                <path d="M35.2319149,26.3903901 C34.7450355,32.2559929 32.0037234,36.311844 24.8180851,38.8786879 C17.6336879,36.311844 14.8916667,32.2567021 14.4047872,26.3910993 L35.2319149,26.3903901 Z" id="Fill-41" fill="#7BB1DD" mask="url(#mask-4)"></path>
                <path d="M14.3487234,25.5087057 C14.2981915,24.3755496 14.3230142,23.1787411 14.4090071,21.9149113 C14.5210638,19.9526773 14.6437589,17.6650887 15.2262057,15.0477128 C19.7751418,14.2255496 22.8614894,14.2415071 24.8180496,14.1833511 C26.7753191,14.2415071 29.8614894,14.2255496 34.4104255,15.0477128 C34.9930496,17.6650887 35.1155674,19.9526773 35.2278014,21.9149113 C35.3143262,23.1844149 35.338617,24.3867199 35.2873759,25.5246631 L14.3487234,25.5087057 Z" id="Fill-42" fill="#FFFFFF" mask="url(#mask-4)"></path>
                <path d="M27.2573404,37.870195 C26.5078723,38.228883 25.6961702,38.5648759 24.818156,38.8785284 L14.4048582,26.391117 L17.7915603,26.3904078 L27.2573404,37.870195 Z M34.6965248,29.5354433 C34.4229433,30.5342021 34.0504255,31.4685993 33.5633688,32.3398759 L28.6404965,26.3904078 L32.0903191,26.3904078 L34.6965248,29.5354433 Z M31.7571631,34.7563652 C31.2023759,35.3262234 30.572766,35.8609752 29.8608865,36.3623936 L21.5924468,26.3904078 L24.8291489,26.3904078 L31.7571631,34.7563652 Z" id="Fill-43" fill="#A8C9E8" mask="url(#mask-4)"></path>
                <path d="M27.3840957,23.9322695 C28.8420745,23.8638298 30.3200887,23.6345745 31.0250532,23.451773 C30.8789539,24.589539 29.7305496,24.4593972 30.3782447,25.5203901 L28.8988121,25.5191489 C28.3426064,25.331383 27.7649468,25.0945035 27.276117,25.0544326 C27.1278901,25.0432624 27.0032447,25.0453901 26.8778901,25.0937943 C25.3403014,25.6852837 24.0915426,25.0093972 22.9404787,24.9815603 C22.8975709,25.120922 22.6537766,25.2870567 22.1688475,25.3375887 C21.3426064,25.4374113 20.7532447,25.0945035 20.1014716,25.0716312 C19.8660106,25.0640071 19.6415426,25.1430851 19.4532447,25.512234 C19.1207979,25.0501773 18.9177837,24.6998227 18.4559043,24.1262411 C17.7612234,23.7937943 17.1177837,23.5257092 16.4979255,23.2861702 L16.5298404,23.1560284 C18.5071454,23.7661348 20.0066135,23.9891844 21.3468617,24.1095745 C23.0020035,24.172695 24.7821454,24.281383 26.3972163,24.1684397 C26.8543085,24.0280142 27.0349823,23.9489362 27.3840957,23.9322695" id="Fill-44" fill="#FBC24E" mask="url(#mask-4)"></path>
                <path d="M30.7902837,23.6116844 C30.6191844,24.3437766 29.5269858,24.6200177 30.2528723,25.5203723 L29.3870922,25.5198404 C28.8287589,25.326578 27.88,24.9074291 26.8140426,24.895727 C26.4303546,25.1907624 25.7128014,25.3342021 24.628227,25.0925355 C24.1248582,24.9803014 23.436383,24.8168262 22.7388652,24.8209043 C22.5713121,25.5003369 20.3397518,25.2233865 19.5528723,24.1872163 L18.5347872,23.932961 L18.3012766,23.7473227 C19.9081915,24.0833156 21.5503901,24.280656 22.3890426,24.3063652 C23.9204255,24.3623936 25.3581915,24.3645213 26.3833688,24.3285284 C26.7260993,24.2294149 26.7911702,24.1865071 26.9615603,24.1221454 C27.2053546,24.0001596 27.4963121,24.0209043 27.7339007,24.0077837 C29.1612057,23.9303014 30.0643972,23.7446631 30.7902837,23.6116844" id="Fill-45" fill="#EBAA00" mask="url(#mask-4)"></path>
                <path d="M22.8074113,20.6259043 C22.0953546,23.0603014 19.9850709,22.7459397 20.1180496,23.7232447 C20.4407447,23.4399113 20.7489007,23.4143794 21.0591844,23.3388475 L21.0648582,24.0826418 C21.1542199,24.0916844 21.2421631,24.1000177 21.3293972,24.1083511 L21.343227,23.3035638 C22.1065248,23.2127837 22.7769149,23.3083511 23.4660993,23.3665071 C22.9063475,22.4689894 22.5517376,21.5615426 22.8074113,20.6259043 M23.9584752,23.9095922 C24.1538652,23.6186348 24.4758511,23.4725355 24.8533333,23.3900887 L24.8428723,24.2177482 C24.9379078,24.2177482 25.0320567,24.217039 25.1262057,24.2163298 L25.1145035,23.325727 C26.1533333,23.1906206 27.2774468,23.3574645 28.1744326,23.5805142 L28.1694681,23.8803369 C28.2671631,23.8728901 28.3558156,23.8638475 28.4520922,23.854805 L28.4549291,23.4994858 L31.3914539,22.4744858 C30.5582979,21.3718262 30.6338298,20.0870745 30.8471277,18.7753723 C30.6864894,19.4360106 30.3047518,20.6480674 29.3012057,21.7659752 C28.5081206,22.6496631 28.5879078,22.8407979 28.451383,23.0895567 L28.3946454,17.1331738 L27.7171631,17.3617199 C27.5753191,17.4025 27.6582979,17.4677482 27.5419858,17.5216489 L26.8597163,17.7828191 L27.6425177,17.7468262 C27.7574113,17.7468262 27.6861348,17.5895567 27.792695,17.5721809 L28.2269149,17.5285638 L28.1715957,23.4136702 C27.7075887,22.6863652 26.9006738,21.8136702 27.2283333,19.9853014 C26.3971277,23.1358333 23.7561702,22.7931028 23.9584752,23.9095922" id="Fill-46" fill="#EBAA00" mask="url(#mask-4)"></path>
                <path d="M19.7351418,21.6904255 L22.8074823,20.6258865 C22.0954255,23.0602837 19.9851418,22.745922 20.1181206,23.723227 C19.3991489,23.0180851 19.3721986,22.1710993 19.7351418,21.6904255 L19.7351418,21.6904255 Z M23.5229078,21.258156 L27.228227,19.9852837 C26.3971986,23.1358156 23.7562411,22.7930851 23.9585461,23.9095745 C23.3415248,23.325 22.734078,22.2202128 23.5229078,21.258156 L23.5229078,21.258156 Z M30.8470213,18.7753546 C30.686383,19.4359929 30.3048227,20.6480496 29.3012766,21.7659574 C28.5081915,22.6496454 28.5878014,22.8407801 28.4514539,23.089539 L28.4188298,19.6180851 L30.8470213,18.7753546 Z" id="Fill-47" fill="#FFBB59" mask="url(#mask-4)"></path>
                <path d="M25.1096099,16.4162943 L25.102695,15.3482092 L24.4246809,15.5767553 C24.2826596,15.6177128 24.3658156,15.6820745 24.2495035,15.7361525 L23.567234,15.9973227 L24.3498582,15.9611525 C24.4647518,15.9611525 24.3934752,15.8047695 24.5002128,15.7866844 L24.9344326,15.7437766 L24.9275177,16.4813652 L25.1096099,16.4162943 Z" id="Fill-48" fill="#EBAA00" mask="url(#mask-4)"></path>
                <path d="M21.2865603,19.0460816 L21.2796454,17.7467908 L20.6021631,17.9746277 C20.4603191,18.0154078 20.5425887,18.080656 20.4262766,18.1345567 L19.7628014,18.3804787 L20.5273404,18.359734 C20.6424113,18.359734 20.5704255,18.2031738 20.677695,18.1850887 L21.1119149,18.1421809 L21.1085461,19.1077837 L21.2865603,19.0460816 Z" id="Fill-49" fill="#EBAA00" mask="url(#mask-4)"></path>
                <path id="Fill-50" fill="#FFBB59" mask="url(#mask-4)"></path>
                <path d="M26.2703901,16.0145922 C25.1829787,18.1062589 23.7258865,17.7571454 23.5464539,18.7606915 C22.9764184,18.3085638 23.2202128,17.3644149 23.5886525,16.9504078 L26.2703901,16.0145922 Z" id="Fill-51" fill="#FFBB59" mask="url(#mask-4)"></path>
                <path d="M26.5889894,17.8159397 C26.2162943,17.364344 25.9607979,16.8471454 26.2703723,16.0145213 C25.182961,18.1061879 23.7258688,17.7570745 23.5464362,18.7606206 C24.162039,17.9274645 26.0237411,17.8623936 26.5889894,17.8159397" id="Fill-52" fill="#EBAA00" mask="url(#mask-4)"></path>
                <path d="M23.5727305,21.0753901 C22.9314184,20.1369149 22.9869149,19.1707801 23.5555319,18.9041135 C24.5667021,18.5418794 25.8686525,18.1450709 26.5890426,17.8159929 C26.0771631,19.7878014 23.7993262,19.9665248 23.5727305,21.0753901" id="Fill-53" fill="#FFBB59" mask="url(#mask-4)"></path>
                <path d="M26.5889894,17.8159397 C26.0771099,19.7877482 23.799273,19.9664716 23.5726773,21.0753369 C24.0499823,20.4368617 25.1476773,20.0170035 27.2338475,19.9464362 C26.7753369,19.3584929 26.4512234,18.7024645 26.5889894,17.8159397" id="Fill-54" fill="#EBAA00" mask="url(#mask-4)"></path>
                <path d="M22.2796454,18.6867199 C21.3966667,19.0163298 20.6140426,19.2892021 19.9213121,19.512961 C19.6069504,19.835656 19.2156383,20.715266 19.8023404,21.4659752 C19.6934752,20.6016135 21.5489716,20.2748404 22.2796454,18.6867199" id="Fill-55" fill="#FFBB59" mask="url(#mask-4)"></path>
                <path d="M19.8023227,21.4659397 C19.6934574,20.601578 21.5489539,20.274805 22.2796277,18.6866844 C22.2478901,19.0709043 22.0982447,19.9021099 22.7962943,20.5927128 C21.7221809,20.6632801 20.3175709,20.8177128 19.8023227,21.4659397" id="Fill-56" fill="#EBAA00" mask="url(#mask-4)"></path>
                <path id="Fill-57" fill="#FFBB59" mask="url(#mask-4)"></path>
                <path d="M19.5077837,19.6306383 C18.7418262,20.1797518 17.3574291,21.2125532 16.6279965,22.943227 C17.1045922,22.8919858 17.5859752,22.8912766 18.2764007,23.0375532 C17.7342021,22.6607801 17.6274645,22.2416312 19.5077837,19.6306383" id="Fill-58" fill="#FFBB59" mask="url(#mask-4)"></path>
                <path d="M18.8359752,23.151117 L18.2764007,23.0376418 C17.7342021,22.6608688 17.6274645,22.2417199 19.5077837,19.630727 C19.120727,20.3211525 18.505656,21.5539539 18.8359752,23.151117" id="Fill-59" fill="#EBAA00" mask="url(#mask-4)"></path>
                <path id="Fill-60" fill="#FFBB59" mask="url(#mask-4)"></path>
                <path d="M25.020266,27.8192199 L25.4606915,28.3718794 C25.5223936,28.4419149 25.4954433,28.5131915 25.4892376,28.5706383 C25.7988121,28.5546809 26.1394149,28.6523759 26.3445567,28.9426241 C26.5633511,29.2543262 26.7177837,29.4197518 26.8867553,29.5514894 C27.1209752,29.7280851 27.3502305,29.807695 27.5599823,29.8630142 C27.8647695,29.9433333 28.0981028,30.1394326 28.2353369,30.557695 C28.2837411,30.5550355 28.3204433,30.5271986 28.4812589,30.5734752 L29.0649468,30.7729433 C29.0989894,30.7883688 29.1502305,30.8057447 29.1883511,30.8493617 C29.224344,30.8963475 29.2381738,30.9449291 29.2457979,30.9961702 C29.2520035,31.0433333 29.2520035,31.1069858 29.224344,31.1644326 L28.7851596,31.7842908 C28.7415426,31.8342908 28.6688475,31.8543262 28.6466844,31.8557447 C28.7651241,32.1410284 28.786578,32.5137234 28.5449113,32.8252482 C28.2422518,33.2172695 28.1986348,33.3364184 28.1259397,33.5580496 C28.080195,33.7193972 28.0587411,34.0144326 28.055195,34.355922 C28.0530674,34.6247163 27.9188475,34.8731206 27.6216844,35.0498936 C27.6257624,35.0693972 27.6445567,35.1046809 27.6466844,35.1587589 L27.6528901,35.7881915 C27.6590957,35.8685106 27.6466844,35.9523759 27.6105142,36.0112411 C27.5537766,36.0943972 27.4796631,36.1282624 27.388883,36.1387234 C27.3030674,36.1484752 27.2241667,36.1344681 27.211578,36.1296809 L26.5771809,35.9225887 C26.5142376,35.8906738 26.5030674,35.8534397 26.5037766,35.8589362 C25.8569681,36.3748936 25.3270035,35.9087589 24.8181383,35.8926241 C24.3096277,35.9087589 23.7798404,36.3748936 23.1328546,35.8589362 C23.1337411,35.8534397 23.1225709,35.8906738 23.0596277,35.9225887 L22.4252305,36.1296809 C22.4126418,36.1344681 22.3337411,36.1484752 22.2479255,36.1387234 C22.1571454,36.1282624 22.0830319,36.0943972 22.0262943,36.0112411 C21.9901241,35.9523759 21.9777128,35.8685106 21.9839184,35.7881915 L21.9901241,35.1587589 C21.9922518,35.1046809 22.0110461,35.0693972 22.0151241,35.0498936 C21.717961,34.8731206 21.5835638,34.6247163 21.5814362,34.355922 C21.5780674,34.0144326 21.5566135,33.7193972 21.5108688,33.5580496 C21.4381738,33.3364184 21.3945567,33.2172695 21.0911879,32.8252482 C20.8500532,32.5137234 20.8716844,32.1410284 20.9901241,31.8557447 C20.967961,31.8543262 20.8943794,31.8342908 20.8516489,31.7842908 L20.4124645,31.1644326 C20.3846277,31.1069858 20.3846277,31.0433333 20.3910106,30.9961702 C20.3986348,30.9449291 20.4124645,30.8963475 20.4484574,30.8493617 C20.486578,30.8057447 20.5378191,30.7883688 20.5716844,30.7729433 L21.1555496,30.5734752 C21.3163652,30.5271986 21.3530674,30.5550355 21.4014716,30.557695 C21.5387057,30.1394326 21.772039,29.9433333 22.0768262,29.8630142 C22.286578,29.807695 22.5158333,29.7280851 22.7500532,29.5514894 C22.9188475,29.4197518 23.0734574,29.2543262 23.2922518,28.9426241 C23.4972163,28.6523759 23.8379965,28.5546809 24.1475709,28.5706383 C24.1413652,28.5131915 24.1144149,28.4419149 24.176117,28.3718794 L24.6165426,27.8192199 C24.6918972,27.7270213 24.7676064,27.7250709 24.8181383,27.718156 C24.8692021,27.7250709 24.944734,27.7270213 25.020266,27.8192199" id="Fill-61" fill="#002E60" mask="url(#mask-4)"></path>
                <path d="M24.6455674,29.969734 C24.4994681,29.8262943 24.2632979,29.7245213 23.9890071,29.9275355 C23.9537234,29.9537766 23.9177305,29.9849823 23.8810284,30.0223936 C23.6579787,30.2392376 23.6129433,30.4387057 23.3636525,30.5583865 C23.0255319,30.7192021 22.4161348,30.7254078 22.6170213,31.3674291 C22.6847518,31.555727 22.6897163,31.5273582 22.5054965,31.4920745 C22.1882979,31.413883 21.9132979,31.2378191 21.8897163,30.9005851 C21.8806738,30.5785993 22.0255319,30.3333865 22.3031915,30.2404787 C22.479078,30.1816135 22.6744681,30.1670745 23.0283688,29.9213298 C23.4487589,29.6303723 23.5117021,29.2605142 23.833156,29.1144149 C24.025,29.0360461 24.2113475,29.0367553 24.3920213,29.1177837 C24.698227,29.2576773 24.7556738,29.576117 24.7287234,29.9566135 C24.7258865,30.0576773 24.6760638,30.0043085 24.6455674,29.969734" id="Fill-62" fill="#E41819" mask="url(#mask-4)"></path>
                <path d="M24.723227,31.7026064 L24.7258865,30.5979965 C24.7425532,30.3561525 24.6441489,30.1678546 24.4198582,30.1116489 C24.3248227,30.0882447 24.2320922,30.0923227 24.1448582,30.1428546 C24.0278369,30.2114716 23.9425532,30.3409043 23.8352837,30.4683865 C23.7244681,30.5951596 23.6115248,30.715727 23.4654255,30.7753014 C23.3462766,30.8237057 23.1987589,30.8542021 23.0817376,30.9171454 C22.9445035,30.9905496 22.8398936,31.0979965 22.8441489,31.2953369 C22.8441489,31.4027837 22.8925532,31.509344 22.9812057,31.5870035 C23.0748227,31.6659043 23.177305,31.6873582 23.2957447,31.7260106 L24.2397163,32.0315071 C24.3131206,32.0517199 24.3400709,32.0378901 24.372695,31.9816844 C24.4737589,31.8146631 24.5721631,31.8010106 24.6629433,31.7864716 C24.7099291,31.7850532 24.7251773,31.7385993 24.723227,31.7026064" id="Fill-63" fill="#E41819" mask="url(#mask-4)"></path>
                <path d="M25.0514184,29.969734 C25.1975177,29.8262943 25.4336879,29.7245213 25.7079787,29.9275355 C25.7432624,29.9537766 25.7792553,29.9849823 25.8159574,30.0223936 C26.0390071,30.2392376 26.0840426,30.4387057 26.3333333,30.5583865 C26.6714539,30.7192021 27.2808511,30.7254078 27.0799645,31.3674291 C27.012234,31.555727 27.0072695,31.5273582 27.1914894,31.4920745 C27.5086879,31.413883 27.7836879,31.2378191 27.8072695,30.9005851 C27.8163121,30.5785993 27.6714539,30.3333865 27.3937943,30.2404787 C27.2179078,30.1816135 27.0225177,30.1670745 26.668617,29.9213298 C26.248227,29.6303723 26.1858156,29.2605142 25.8638298,29.1144149 C25.6719858,29.0360461 25.4856383,29.0367553 25.3049645,29.1177837 C24.9987589,29.2576773 24.9413121,29.576117 24.9682624,29.9566135 C24.9710993,30.0576773 25.020922,30.0043085 25.0514184,29.969734" id="Fill-64" fill="#E41819" mask="url(#mask-4)"></path>
                <path d="M24.9738475,31.7026064 L24.9710106,30.5979965 C24.9545213,30.3561525 25.0527482,30.1678546 25.2772163,30.1116489 C25.3720745,30.0882447 25.4649823,30.0923227 25.5522163,30.1428546 C25.6692376,30.2114716 25.754344,30.3409043 25.8617908,30.4683865 C25.9733156,30.5951596 26.0855496,30.715727 26.2316489,30.7753014 C26.3507979,30.8237057 26.4983156,30.8542021 26.6153369,30.9171454 C26.7523936,30.9905496 26.8570035,31.0979965 26.8529255,31.2953369 C26.8529255,31.4027837 26.804344,31.509344 26.7156915,31.5870035 C26.6222518,31.6659043 26.5197695,31.6873582 26.4013298,31.7260106 L25.4573582,32.0315071 C25.4309397,32.0405496 25.4054078,32.0455142 25.3832447,32.0412589 C25.3699468,32.0391312 25.3582447,32.034344 25.3470745,32.0253014 C25.1976064,31.8043794 25.1421099,31.8162589 25.0070035,31.7850532 C24.9800532,31.7690957 24.9710106,31.7393085 24.9738475,31.7026064" id="Fill-65" fill="#E41819" mask="url(#mask-4)"></path>
                <path d="M26.42,34.180727 C26.6230142,34.2105142 26.8737234,34.1530674 26.9747872,33.8275355 C26.9879078,33.7853369 26.999078,33.7381738 27.0067021,33.6869326 C27.0579433,33.3800177 26.9769149,33.1924291 27.1070567,32.9486348 C27.2843617,32.6195567 27.7726596,32.2546631 27.2309929,31.8550177 C27.0648582,31.7427837 27.0779787,31.7684929 27.2476596,31.6879965 C27.5496099,31.5640603 27.8751418,31.5433156 28.0939362,31.8023582 C28.2914539,32.0566135 28.3191135,32.3397695 28.1501418,32.5787766 C28.042695,32.7303723 27.8939362,32.8571454 27.7538652,33.2651241 C27.5863121,33.7479255 27.7545745,34.0830319 27.5815248,34.3911879 C27.4726596,34.567961 27.321773,34.6773582 27.1278014,34.7188475 C26.7989007,34.7867553 26.5634397,34.5637057 26.3611348,34.2403014 C26.3036879,34.1571454 26.3749645,34.1709752 26.42,34.180727" id="Fill-66" fill="#E41819" mask="url(#mask-4)"></path>
                <path d="M25.3340071,32.8287766 L25.9843617,33.7215071 C26.1137943,33.9264716 26.3043972,34.0207979 26.5191135,33.9328546 C26.6090071,33.8961525 26.6818794,33.8378191 26.7219504,33.7457979 C26.7760284,33.6218617 26.7684043,33.4660106 26.7793972,33.2995213 C26.7939362,33.1321454 26.8134397,32.9686702 26.8965957,32.8340957 C26.9643262,32.7248759 27.0648582,32.6119326 27.122305,32.4927837 C27.1902128,32.3521809 27.2102482,32.2041312 27.0903901,32.0475709 C27.0274468,31.9603369 26.9256738,31.9032447 26.8079433,31.8931383 C26.6859574,31.884805 26.5896809,31.9277128 26.4719504,31.9665426 L25.5293972,32.2782447 C25.4698227,32.2954433 25.4469504,32.324344 25.4503191,32.3819681 C25.4691135,32.5878191 25.3783333,32.6789539 25.3125532,32.7422518 C25.3001418,32.7713298 25.3104255,32.801117 25.3340071,32.8287766" id="Fill-67" fill="#E41819" mask="url(#mask-4)"></path>
                <path d="M23.2638298,34.180727 C23.0609929,34.2105142 22.8101064,34.1530674 22.7083333,33.8275355 C22.6952128,33.7853369 22.6847518,33.7381738 22.6771277,33.6869326 C22.6251773,33.3800177 22.7069149,33.1924291 22.576773,32.9486348 C22.3987589,32.6195567 21.9111702,32.2546631 22.4521277,31.8550177 C22.6182624,31.7427837 22.6051418,31.7684929 22.4361702,31.6879965 C22.1342199,31.5640603 21.8079787,31.5433156 21.5898936,31.8023582 C21.3923759,32.0566135 21.3640071,32.3397695 21.5336879,32.5787766 C21.6411348,32.7303723 21.7900709,32.8571454 21.9299645,33.2651241 C22.0968085,33.7479255 21.9292553,34.0830319 22.102305,34.3911879 C22.2111702,34.567961 22.3613475,34.6773582 22.5560284,34.7188475 C22.8849291,34.7867553 23.1198582,34.5637057 23.322695,34.2403014 C23.3794326,34.1571454 23.308156,34.1709752 23.2638298,34.180727" id="Fill-68" fill="#E41819" mask="url(#mask-4)"></path>
                <path d="M24.3498227,32.8287766 L23.6994681,33.7215071 C23.5700355,33.9264716 23.3794326,34.0207979 23.1647163,33.9328546 C23.0748227,33.8961525 23.0019504,33.8378191 22.9611702,33.7457979 C22.9078014,33.6218617 22.9154255,33.4660106 22.9044326,33.2995213 C22.8898936,33.1321454 22.8696809,32.9686702 22.7874113,32.8340957 C22.7195035,32.7248759 22.6182624,32.6119326 22.5615248,32.4927837 C22.493617,32.3521809 22.4735816,32.2041312 22.5927305,32.0475709 C22.656383,31.9603369 22.758156,31.9032447 22.8760638,31.8931383 C22.9978723,31.884805 23.0941489,31.9277128 23.2118794,31.9665426 L24.1539007,32.2782447 C24.1987589,32.2913652 24.2328014,32.3135284 24.2404255,32.3521809 C24.2106383,32.5108688 24.2785461,32.6168972 24.3629433,32.7277128 C24.387234,32.761578 24.3774823,32.7961525 24.3498227,32.8287766" id="Fill-69" fill="#E41819" mask="url(#mask-4)"></path>
                <path d="M26.0923936,34.396117 C26.0592376,34.598422 25.9275,34.8200532 25.5867199,34.8172163 C25.5423936,34.8172163 25.4946986,34.8131383 25.4434574,34.804805 C25.1353014,34.7611879 24.9814007,34.6260816 24.7092376,34.6759043 C24.3422163,34.7452305 23.8462943,35.0991312 23.6296277,34.4626064 C23.573422,34.2700532 23.5941667,34.2900887 23.4661525,34.4273227 C23.2562234,34.6773227 23.1370745,34.9814007 23.3172163,35.2681028 C23.4993085,35.5333511 23.7611879,35.6462943 24.040266,35.5576418 C24.2175709,35.5014362 24.3837057,35.3982447 24.8145567,35.3886702 C25.3250177,35.3760816 25.5936348,35.6372518 25.9400887,35.5666844 C26.1407979,35.5166844 26.2911525,35.4058688 26.3895567,35.2342376 C26.554273,34.9411525 26.4131383,34.6489539 26.1672163,34.3579965 C26.1055142,34.2783865 26.0964716,34.3503723 26.0923936,34.396117" id="Fill-70" fill="#E41819" mask="url(#mask-4)"></path>
                <path d="M25.134539,32.9506738 L25.7870213,33.8412766 C25.9428723,34.0269149 25.9746099,34.2375532 25.826383,34.4148582 C25.7634397,34.4896809 25.6857801,34.5407447 25.5861348,34.5519149 C25.4510284,34.5650355 25.3056383,34.5104255 25.1435816,34.4708865 C24.9793972,34.4334752 24.8173404,34.4029787 24.6641489,34.4403901 C24.5395035,34.472305 24.4017376,34.5340071 24.2708865,34.5526241 C24.1164539,34.574078 23.9689362,34.5485461 23.8559929,34.3871986 C23.7923404,34.2997872 23.7687589,34.1856028 23.795,34.0705319 C23.8233688,33.9515603 23.8941135,33.8731915 23.9668085,33.7728369 L24.5499645,32.9692908 C24.5776241,32.9292199 24.6102482,32.9035106 24.6517376,32.9104255 C24.8332979,32.9997872 24.9765603,32.9478369 25.0444681,32.9168085 C25.0811702,32.8925177 25.1171631,32.9237234 25.134539,32.9506738" id="Fill-71" fill="#E41819" mask="url(#mask-4)"></path>
                <path d="M25.225266,32.3626596 C25.225266,32.5656738 25.0610816,32.7303901 24.8575355,32.7303901 C24.6538121,32.7303901 24.489805,32.5656738 24.489805,32.3626596 C24.489805,32.1591135 24.6538121,31.9942199 24.8575355,31.9942199 C25.0610816,31.9942199 25.225266,32.1591135 25.225266,32.3626596" id="Fill-72" fill="#FEBE53" mask="url(#mask-4)"></path>
                <path d="M24.505656,28.7611525 C24.4627482,28.7251596 24.476578,28.7139894 24.5146986,28.6675355 C24.6129255,28.5366844 24.7127482,28.3975 24.8180674,28.2299468 C24.9239184,28.3975 25.0237411,28.5366844 25.1221454,28.6675355 C25.1600887,28.7139894 25.1733865,28.7251596 25.1310106,28.7611525 C25.0118617,28.8636348 24.874805,28.9918262 24.8180674,29.2216135 C24.7618617,28.9918262 24.624805,28.8636348 24.505656,28.7611525" id="Fill-73" fill="#E41819" mask="url(#mask-4)"></path>
                <path d="M28.1542553,30.9511525 C28.1771277,30.8992021 28.1909574,30.9089539 28.2469858,30.9318262 C28.4008865,30.9871454 28.5636525,31.0412234 28.7547872,31.0924645 C28.6258865,31.2428191 28.5219858,31.3791667 28.4264184,31.5114362 C28.3932624,31.5619681 28.3868794,31.5779255 28.3391844,31.5481383 C28.2062057,31.4649823 28.0434397,31.3713652 27.8072695,31.3853723 C28.0102837,31.264273 28.091844,31.0945922 28.1542553,30.9511525" id="Fill-74" fill="#E41819" mask="url(#mask-4)"></path>
                <path d="M21.3273227,31.5453901 C21.2796277,31.5744681 21.2732447,31.5585106 21.2407979,31.5079787 C21.1473582,31.3735816 21.0454078,31.2358156 20.9186348,31.0833333 C21.1111879,31.0349291 21.2746631,30.9836879 21.4290957,30.9303191 C21.4853014,30.9088652 21.4998404,30.8991135 21.5212943,30.9510638 C21.581578,31.095922 21.6604787,31.2663121 21.8620745,31.3909574 C21.6259043,31.3728723 21.4617199,31.4643617 21.3273227,31.5453901" id="Fill-75" fill="#E41819" mask="url(#mask-4)"></path>
                <path d="M27.1977837,35.0298582 C27.2538121,35.0334043 27.2490248,35.0498936 27.2461879,35.1101773 C27.2461879,35.2736525 27.2504433,35.4447518 27.2671099,35.6428014 C27.0814716,35.5715248 26.9179965,35.5202837 26.7614362,35.474539 C26.7025709,35.46 26.685195,35.46 26.6977837,35.4050355 C26.7309397,35.2514894 26.764273,35.0672695 26.6713652,34.8490071 C26.854344,34.9993617 27.0412234,35.0188652 27.1977837,35.0298582" id="Fill-76" fill="#E41819" mask="url(#mask-4)"></path>
                <path d="M23.004805,35.392766 C23.0179255,35.4475532 23.000727,35.4480851 22.9425709,35.4633333 C22.7867199,35.5126241 22.6239539,35.567234 22.4404433,35.6420567 C22.4528546,35.4440071 22.4528546,35.2729078 22.4493085,35.1094326 C22.4459397,35.0493262 22.4409752,35.0326596 22.4964716,35.027695 C22.6530319,35.0138652 22.8393794,34.9909929 23.019344,34.8365603 C22.9306915,35.0562411 22.9681028,35.240461 23.004805,35.392766" id="Fill-77" fill="#E41819" mask="url(#mask-4)"></path>
            </g>
        </g>
    </g>
</svg>