<?xml version="1.0" encoding="UTF-8" standalone="no"?>
<svg width="50px" height="50px" viewBox="0 0 50 50" version="1.1" xmlns="http://www.w3.org/2000/svg" xmlns:xlink="http://www.w3.org/1999/xlink">
    <!-- Generator: Sketch 42 (36781) - http://www.bohemiancoding.com/sketch -->
    <title>Group</title>
    <desc>Created with Sketch.</desc>
    <defs>
        <polygon id="path-1" points="0 44.118506 37.4622334 44.118506 37.4622334 0.0451340215 0 0.0451340215"></polygon>
    </defs>
    <g id="Page-1" stroke="none" stroke-width="1" fill="none" fill-rule="evenodd">
        <g id="Group">
            <circle id="Oval" fill="#FFFFFF" cx="25" cy="25" r="25"></circle>
            <g id="arsenal_crest" transform="translate(6.020480, 5.137712)">
                <path d="M18.7309508,0.239276687 C24.5489253,0.239276687 30.1787307,1.43400079 35.4760046,3.79258528 C36.5738233,8.27280065 37.2667633,12.9421807 37.2856798,16.0026656 L37.2856798,16.1702588 C37.2856798,19.1859415 36.8509329,22.1312683 35.9933865,24.9315689 C35.1540929,27.6824211 33.8989688,30.2879152 32.2731484,32.678359 C30.6702269,35.0289787 28.6959454,37.1854557 26.4034026,39.085067 C23.9681566,41.1094606 21.1097792,42.9254413 18.7309508,43.9625281 C16.3561048,42.9254413 13.4940768,41.1094606 11.0588309,39.085067 C8.76628807,37.1854557 6.7920065,35.0289787 5.189085,32.678359 C3.56293276,30.2879152 2.30814058,27.6824211 1.46884691,24.9315689 C0.611300497,22.1312683 0.176553672,19.1859415 0.176553672,16.1702588 L0.176553672,16.0026656 C0.195470137,12.9421807 0.888410114,8.27280065 1.98589695,3.79258528 C7.28317085,1.43400079 12.91364,0.239276687 18.7309508,0.239276687" id="Fill-1" fill="#FFFFFF"></path>
                <path d="M18.7309508,17.4668663 C20.0195935,17.4668663 21.233234,17.7970748 22.2826,18.3834852 L33.0938575,18.3834852 C33.1160927,17.6294815 33.1011586,16.7785725 33.0862246,15.9761161 C33.0228378,12.6693853 32.0597574,7.07807655 31.1159254,3.20219245 C27.283516,1.96299807 23.1700145,1.23587571 18.7349332,1.23587571" id="Fill-2" fill="#BB1C3F"></path>
                <path d="M18.7349332,1.24915042 C14.3970891,1.24915042 10.4070425,1.89695637 6.36157396,3.19787817 C5.36497494,7.21480608 4.54094718,12.5323239 4.41716049,15.0896972 C4.23762,18.8288518 4.50676479,21.5315832 5.25645417,24.4855385 C5.67626694,26.1528424 6.23811913,27.7136167 6.94964371,29.2962942 C7.71791768,28.8950661 8.51572788,28.3883039 9.32117104,27.7843045 C10.1674339,27.1534238 10.9018574,26.3463213 11.5045293,25.5843528 C11.4710107,25.3062476 11.4564085,25.02416 11.4564085,24.7414086 C11.4564085,24.3053343 11.4935777,23.8729106 11.5685798,23.4587395 C10.0738472,23.5115065 9.22360191,23.5287636 8.55654762,23.5287636 C7.75110446,23.5287636 7.01701287,22.9689027 6.66091872,22.1140112 L6.28657183,22.1140112 C6.00149739,22.1140112 5.51862973,21.8714158 5.51862973,20.9584475 C5.51862973,20.0501253 6.00149739,19.8075299 6.28657183,19.8075299 L6.66091872,19.8075299 C7.01701287,18.9479923 7.75110446,18.3881313 8.55654762,18.3881313 L15.1836158,18.3881313 C16.2363005,17.7970748 17.4462905,17.4618883 18.7349332,17.4618883" id="Fill-3" fill="#D82331"></path>
                <path d="M12.1493485,37.6656684 C10.1073659,35.628332 8.41815874,33.3799276 7.0847139,30.9765409 C5.72837018,28.5426224 4.76562168,25.8259526 4.20011894,23.1145926 C3.61536787,20.3235844 3.42852629,17.5060267 3.62665137,14.5162297 C3.81017427,11.7033181 4.55256255,7.44379487 5.46984516,3.50220095 C4.59338229,3.81083801 3.72056996,4.15033877 2.86269169,4.52070324 C1.89629264,8.39194119 1.22193726,13.3082309 1.20700321,15.9933733 C1.19206916,18.9878165 1.61520061,21.8890048 2.45051187,24.6139714 C3.32697475,27.4756675 4.48486152,29.8037201 6.03933032,32.0836519 C7.58616616,34.3539596 9.49672911,36.4394169 11.7149335,38.2782964 C13.789771,40.0030134 16.1536654,41.5146712 18.7309508,42.7940216 C18.7273002,42.7940216 18.7309508,42.7887117 18.7309508,42.7940216 C16.2774521,41.2856824 14.0595796,39.5652797 12.1493485,37.6656684" id="Fill-4" fill="#07305D"></path>
                <path d="M25.3092344,37.6656684 C27.3505533,35.628332 29.0404242,33.3799276 30.373869,30.9808552 C31.7298808,28.5426224 32.6932931,25.8259526 33.2624464,23.1145926 C33.8468656,20.3235844 34.0300566,17.5060267 33.8315997,14.5162297 C33.6484086,11.7033181 32.9030335,7.43981245 31.9887377,3.4975548 C32.8652006,3.80619186 33.7380129,4.15033877 34.5998736,4.52070324 C35.5659408,8.39194119 36.2402962,13.3082309 36.2515797,15.9933733 C36.2701643,18.9878165 35.8433823,21.8890048 35.0077392,24.6139714 C34.1989773,27.2682501 32.9886554,29.7765069 31.4192526,32.0836519 C29.8724167,34.3539596 27.9655043,36.4394169 25.7436494,38.2819469 C23.6724624,40.0030134 21.3045856,41.5146712 18.7309508,42.7940216 C21.1811308,41.2903286 23.3986715,39.5652797 25.3092344,37.6656684" id="Fill-5" fill="#07305D"></path>
                <path d="M18.7273002,17.8282704 C14.9065062,17.8282704 11.8121708,20.9232695 11.8121708,24.7414086 C11.8121708,28.5645257 14.9065062,31.6595249 18.7273002,31.6595249 C22.5447756,31.6595249 25.6387792,28.5645257 25.6387792,24.7414086 C25.6387792,20.9232695 22.5447756,17.8282704 18.7273002,17.8282704" id="Fill-6" fill="#998A5B"></path>
                <path d="M18.7309508,32.0212608 C16.3819905,32.0212608 14.2885683,30.9058531 12.9584422,29.1771537 C11.3326218,30.1033967 9.62848063,30.835829 7.99469543,31.3382768 C9.28400185,33.6049339 10.8832728,35.7209231 12.8087698,37.6610223 C14.5467615,39.4112931 16.5359771,41.0082409 18.7309508,42.431622" id="Fill-7" fill="#D82331"></path>
                <g id="Group-11">
                    <mask id="mask-2" fill="white">
                        <use xlink:href="#path-1"></use>
                    </mask>
                    <g id="Clip-9"></g>
                    <path d="M8.54924653,23.1670277 C7.79988902,23.1670277 7.16336657,22.5812811 6.90782836,21.7522753 L6.27893887,21.7522753 C6.11798299,21.7522753 5.87406015,21.5541502 5.87406015,20.9630936 C5.87406015,20.3677228 6.11798299,20.1692659 6.27893887,20.1692659 L6.90782836,20.1692659 C7.15938416,19.3402601 7.79988902,18.7498673 8.54924653,18.7498673 L14.5952142,18.7498673 C13.1306816,19.7637234 12.0517793,21.3025944 11.635949,23.0926894 C10.2988536,23.1411421 9.26840406,23.1670277 8.54924653,23.1670277" id="Fill-8" fill="#998A5B" mask="url(#mask-2)"></path>
                    <path d="M35.6263407,3.64789091 C30.4903546,1.3503701 24.8373184,0.0451340215 18.7309508,0.0451340215 C12.624915,0.0451340215 6.97187885,1.3503701 1.83622457,3.64789091 C0.652120237,8.44504004 0.015265919,13.0921849 0.000331867805,15.9847447 C-0.0146021834,19.0800757 0.420144641,22.1004046 1.29693938,24.966415 C2.14320229,27.7308738 3.40562742,30.3549525 5.0427313,32.7576754 C6.65361762,35.1215698 8.63885083,37.2903259 10.9466596,39.2038757 C13.1157475,41.0082409 16.0524457,42.9825225 18.7309508,44.1384181 C21.4097877,42.9825225 24.3464859,41.0082409 26.515242,39.2038757 C28.8233826,37.2903259 30.8086158,35.1215698 32.4195021,32.7576754 C34.056606,30.3549525 35.3190312,27.7308738 36.1652941,24.966415 C37.0420888,22.1004046 37.4768356,19.0800757 37.4619016,15.9847447 C37.4469675,13.0921849 36.8101132,8.44504004 35.6263407,3.64789091 Z M31.4229031,32.078342 C29.8757354,34.3496453 27.9655043,36.4354345 25.7472999,38.2782964 C23.6724624,39.9977035 21.3045856,41.5146712 18.7309508,42.7887117 C16.1536654,41.5146712 13.789771,39.9977035 11.7149335,38.2782964 C9.49672911,36.4354345 7.58616616,34.3496453 6.03933032,32.078342 C5.91952604,31.902784 5.79972176,31.7172699 5.67958562,31.5364019 C7.93860977,31.157077 10.4372425,30.1959879 12.7447193,28.8814595 C12.1679331,28.0531174 11.7594038,27.100325 11.5685798,26.0688798 C10.9917936,26.7787451 10.3021723,27.5015531 9.51597744,28.0882954 C8.24160507,29.0364417 6.70240219,29.9839243 5.03908075,30.4953326 C3.94856315,28.6398597 3.07973323,26.668565 2.45051187,24.6139714 C1.61520061,21.8846905 1.19206916,18.9878165 1.20700321,15.9933733 C1.22193726,13.3039166 1.89629264,8.39194119 2.86269169,4.52070324 C7.88252411,2.3512834 13.2206178,1.24915042 18.7309508,1.24915042 C24.2416157,1.24915042 29.5797093,2.3512834 34.5998736,4.52070324 C35.5659408,8.39194119 36.2402962,13.3039166 36.2552302,15.9933733 C36.2592127,16.9196163 36.2220435,17.8412132 36.1430589,18.7498673 L22.8484346,18.7498673 C24.4928396,19.8868464 25.6460802,21.677605 25.9314866,23.7491239 L28.4669566,23.1457882 C29.0327912,23.0173554 29.2650987,22.6383623 29.3251667,22.2855868 L35.7006791,21.858473 C35.5174881,22.7930127 35.2855125,23.7142777 35.0117216,24.6139714 C34.1989773,27.2636039 32.9926378,29.7765069 31.4229031,32.078342 L31.4229031,32.078342 Z" id="Fill-10" fill="#998A5B" mask="url(#mask-2)"></path>
                </g>
                <path d="M19.1842822,26.6556221 L19.1842822,30.381502 C20.9226058,30.2401263 22.4399054,29.3138832 23.379755,27.9605263 L20.1546637,26.0957611 C19.8961387,26.3685565 19.5626115,26.5666815 19.1842822,26.6556221" id="Fill-12" fill="#FFFFFF"></path>
                <path d="M18.2706501,19.1066251 C16.528676,19.2433547 15.0110446,20.1692659 14.0708631,21.5272689 L17.2923039,23.387388 C17.5511607,23.1102783 17.8883384,22.9118214 18.2706501,22.8235446" id="Fill-13" fill="#FFFFFF"></path>
                <path d="M18.7236497,23.736181 C18.1694305,23.736181 17.7197496,24.1861938 17.7197496,24.7414086 C17.7197496,25.2969553 18.1694305,25.7469681 18.7236497,25.7469681 C19.2818513,25.7469681 19.7315322,25.2969553 19.7315322,24.7414086 C19.7315322,24.1861938 19.2818513,23.736181 18.7236497,23.736181" id="Fill-14" fill="#FFFFFF"></path>
                <path d="M19.1842822,19.1066251 L19.1842822,22.8235446 C19.5669258,22.9118214 19.9037716,23.1102783 20.1619648,23.387388 L23.379755,21.5272689 C22.4435559,20.173912 20.9265882,19.2433547 19.1842822,19.1066251" id="Fill-15" fill="#FFFFFF"></path>
                <path d="M18.2706501,26.6556221 C17.9630087,26.5849343 17.6822485,26.4392443 17.4499411,26.2407873 C17.3971741,26.1966489 17.3487214,26.1481962 17.3002687,26.0957611 L14.0748455,27.9605263 C14.1458652,28.066724 14.224186,28.172258 14.3071529,28.2734777 C15.2546355,29.4552589 16.6670649,30.2537328 18.2706501,30.381502" id="Fill-16" fill="#FFFFFF"></path>
                <path d="M20.6152962,25.3062476 L23.8407194,27.1663667 C24.4739232,25.8661086 24.650145,24.0006797 23.8407194,22.3210967 L20.6192786,24.1815476 C20.7204983,24.5167341 20.7317818,24.9222766 20.6152962,25.3062476" id="Fill-17" fill="#FFFFFF"></path>
                <path d="M14.6071614,21.4260492 L17.2365501,22.9383708 C17.435007,22.7704457 17.6636639,22.6426766 17.9072549,22.5500855 L17.9072549,19.5168138 C16.6069968,19.7152707 15.4308573,20.3942722 14.6071614,21.4260492" id="Fill-18" fill="#998A5B"></path>
                <path d="M19.551328,19.521128 L19.5476775,22.5630283 C19.7916003,22.6519689 20.0122924,22.7704457 20.2107493,22.9383708 L22.8444522,21.4260492 C22.0237432,20.3942722 20.8512542,19.7152707 19.551328,19.521128" id="Fill-19" fill="#998A5B"></path>
                <path d="M23.9983566,24.1944905 C23.9492402,23.7278843 23.8370688,23.2778716 23.66848,22.8411336 L21.0271441,24.3577694 C21.050043,24.4855385 21.0613265,24.6093252 21.0613265,24.7370943 C21.0613265,24.7901932 21.0613265,24.843292 21.0573441,24.8914129 C21.8027192,24.6883098 22.5859272,24.4951627 23.3837374,24.3275695 C23.5748933,24.2877453 23.7809832,24.2436069 23.9983566,24.1944905" id="Fill-20" fill="#998A5B"></path>
                <path d="M18.7309508,42.431622 C20.9265882,41.0082409 22.9191225,39.4026645 24.6577779,37.656708 C26.6954462,35.6057649 28.3733699,33.3397716 29.6958631,30.9277564 C31.0405914,28.4802313 31.9920564,25.7552648 32.5466075,23.0349444 C32.588091,22.8235446 32.6292426,22.6207733 32.6667437,22.413356 L29.6022763,22.6297338 C29.4413205,23.0614938 29.0742747,23.3790913 28.561207,23.4939175 L28.5645257,23.4939175 C28.5459411,23.4982318 27.4222367,23.7756733 25.9723063,24.1108598 C25.9908909,24.3182772 26.0021744,24.5296769 26.0021744,24.7414086 C26.0021744,28.7636464 22.747215,32.0212608 18.7309508,32.0212608" id="Fill-21" fill="#BB1C3F"></path>
                <path d="M19.3717875,24.7414086 C19.3717875,24.3843188 19.0830625,24.0932708 18.7236497,24.0932708 C18.3682193,24.0932708 18.0791624,24.3843188 18.0791624,24.7414086 C18.0791624,25.0988302 18.3682193,25.3898783 18.7236497,25.3898783 C19.0830625,25.3898783 19.3717875,25.0988302 19.3717875,24.7414086" id="Fill-22" fill="#998A5B"></path>
                <path d="M19.5476775,29.9666672 C20.844285,29.7721927 22.0237432,29.0981692 22.8484346,28.066724 L20.2034482,26.545442 C20.0046594,26.7080572 19.787286,26.8358263 19.5476775,26.9241032 C19.5476775,26.9241032 19.551328,29.9666672 19.5476775,29.9666672" id="Fill-23" fill="#BB1C3F"></path>
                <path d="M14.6104801,28.066724 L17.244183,26.5407958 C17.4429718,26.7080572 17.6673145,26.8311802 17.9072549,26.919457 L17.9032725,29.9666672 C16.6033463,29.7721927 15.4308573,29.0981692 14.6104801,28.066724" id="Fill-24" fill="#D82331"></path>
                <path d="M24.0205917,24.7460548 C24.0205917,24.6753669 24.0205917,24.6046791 24.0169412,24.5349868 C23.8181524,24.5744791 23.6269965,24.6182857 23.447456,24.6534636 C22.6423447,24.825703 21.8631191,25.0188501 21.1701792,25.2090103 L23.6611789,26.6506441 C23.9011193,26.0469766 24.0205917,25.4071354 24.0205917,24.7460548" id="Fill-25" fill="#BB1C3F"></path>
                <path d="M13.6105624,22.325411 C12.8645236,23.9034424 12.9099895,25.6852406 13.6215141,27.175659 L16.8353219,25.3062476 C16.7264692,24.9445117 16.7231506,24.552244 16.8316713,24.1769015" id="Fill-26" fill="#FFFFFF"></path>
                <path d="M13.7970721,26.6556221 L16.4201553,25.1343401 C16.3750212,24.87847 16.3750212,24.6139714 16.4201553,24.3577694 L13.7861205,22.8457797 C13.3105539,24.0707038 13.3105539,25.4300343 13.7970721,26.6556221" id="Fill-27" fill="#998A5B"></path>
                <path d="M21.3606713,12.9026884 C21.3533702,13.0437322 21.3158691,13.5202944 21.3045856,13.6613382 L23.3986715,13.6613382 C23.2788672,13.1014772 23.2264321,12.3249065 23.2078475,11.7428104 C23.2078475,11.7477884 23.1736651,10.5351435 23.1736651,10.5351435 C23.1700145,10.4203172 23.2041969,10.3230799 23.2675837,10.2573701 C23.3276518,10.1909966 23.4102868,10.1558186 23.4962406,10.1558186 C23.5938097,10.1511724 23.7584162,10.1511724 23.7696997,10.4910051 L23.8181524,11.7786521 C23.8370688,12.3557703 23.8480205,13.167187 23.7696997,13.6613382 L25.8113504,13.6613382 C25.7774999,13.4844527 25.7214142,13.0656355 25.7064802,12.9471587 C25.9646733,13.493745 26.5119233,13.7715183 27.2493336,13.7715183 C27.6840804,13.7715183 28.02159,13.6128855 28.2724821,13.4582351 C28.280115,13.4758241 28.3776841,13.6613382 28.3776841,13.6613382 L32.1500255,13.6613382 C31.9811048,13.0921849 31.8798851,12.3076494 31.8125159,11.721239 L31.2954659,7.49689372 L29.3510524,7.17929623 C29.5090215,7.70862538 29.6251752,8.51971029 29.6925444,9.10180642 L29.9845881,11.8002235 C30.0370232,12.2943747 30.0897902,12.8190577 30.0858077,13.3527011 L30.0821572,13.418411 L30.0068232,13.2242683 C29.8724167,12.8983741 29.7861311,12.4354185 29.7409971,11.809184 C29.7366828,11.8052016 29.6586939,10.9450002 29.6586939,10.9450002 C29.5574742,9.57372244 28.8004837,8.94781976 27.1640436,8.94781976 C26.8826197,8.94781976 26.1856973,9.01352959 25.7662164,9.13731628 L25.8787196,10.6980906 L26.3131345,10.4289458 C26.6725474,10.2128998 26.9612724,10.1163263 27.2798654,10.1163263 C27.5380586,10.1163263 27.7069793,10.217546 27.7853001,10.3937678 C27.4633883,10.4468666 27.1185777,10.5304973 26.7365979,10.7027367 C26.1558292,10.9629211 25.7774999,11.3332855 25.6278275,11.7826346 C25.6278275,11.7693598 25.624177,11.7560851 25.624177,11.7428104 L25.5568078,10.3144514 C25.5229573,9.38854021 24.9458392,8.81075836 24.0541104,8.81075836 C23.6422624,8.81075836 23.2752166,8.92525275 22.9562917,9.15523714 C22.9377071,9.09749214 22.9191225,9.04472516 22.9005379,9.00091861 L22.8179028,8.83332537 L21.1396473,8.75765951 C21.2183,9.05799987 21.3195197,9.89994849 21.3420867,10.2308207 C21.2518186,9.7761618 21.0158606,9.29130294 20.5668435,8.97403732 C20.2220328,8.7360881 19.7916003,8.61263328 19.323003,8.61263328 C18.6974321,8.61263328 18.0678789,8.87248577 17.640765,9.3092238 C17.2139831,9.74562996 16.9820075,10.3366865 16.9591086,11.033277 C16.7978208,10.8610377 16.5880804,10.7110334 16.3259048,10.5925566 L15.5543122,10.2215284 L15.517143,10.2042713 C15.3332882,10.1163263 15.3259871,10.0897769 15.3293058,10.036678 C15.3372706,9.95702976 15.5134924,9.87339907 15.768035,9.87339907 C16.0829776,9.87339907 16.5436101,10.0326956 16.9143064,10.2706448 L16.9441745,8.89040663 C16.6707155,8.76695181 16.2887356,8.66573213 15.7381669,8.66573213 C15.4530925,8.66573213 14.9025238,8.7052244 14.4269572,8.97403732 C14.2955376,9.04870757 14.1800476,9.13267013 14.0748455,9.22559311 L14.0970806,8.81971879 C13.6477316,8.77126609 13.1718332,8.75765951 12.5877458,9.30026337 C12.5801129,9.26043923 12.5426118,9.075257 12.5051108,8.96507689 L10.6921169,9.075257 C10.8268553,9.56044773 10.8417893,10.2968624 10.8042883,10.9539606 L10.7707696,11.6462369 C10.7707696,11.6415907 10.7667872,11.7255533 10.7667872,11.7255533 C10.7482026,12.0869573 10.7253037,12.4526757 10.6881345,12.8011368 C10.5384622,12.3341988 10.3735239,11.6946896 10.2464185,11.1610462 L9.35103914,7.13548968 L6.79632078,7.49689372 C6.81888779,7.54999257 6.85207457,7.68207595 6.87065917,7.80984506 C6.89322618,7.97710643 6.88592509,8.32556763 6.64233412,9.03543286 C6.23380485,10.2308207 5.64208455,11.9940343 5.07624995,13.2113255 C4.99792914,13.383233 4.86285895,13.6613382 4.86285895,13.6613382 L6.85605699,13.6613382 C6.88194267,13.348055 7.01336233,12.8366467 7.14046769,12.4619679 C7.41425863,12.4526757 8.13706671,12.4354185 8.47026199,12.4264581 C8.53431248,12.7131919 8.61694756,13.1230486 8.63188161,13.3659759 L8.65411675,13.6613382 L12.6587656,13.6613382 C12.5645151,13.0351036 12.6026799,12.1619595 12.6285656,11.6724544 C12.6620842,11.1125935 12.7785698,10.7508575 13.0112092,10.5129083 C13.1904178,10.3230799 13.4041406,10.2789415 13.553813,10.2746272 C13.531246,11.0243166 14.025729,11.3727778 14.4641264,11.5928062 L15.2470026,11.9940343 C15.5280946,12.1400562 15.5244441,12.2147264 15.5211254,12.2678253 C15.50951,12.4181614 15.281185,12.4752427 15.075095,12.4705965 C14.6662339,12.4619679 14.1007312,12.1798803 13.463545,11.5227821 L13.4303582,13.3039166 C13.9361247,13.5906504 14.5467615,13.69187 15.1009807,13.69187 C16.011626,13.69187 16.985658,13.2949561 17.2478336,12.4486932 C17.6932002,13.3039166 18.5889114,13.7011623 19.4693567,13.7011623 C20.2558834,13.7011623 20.8476036,13.4449604 21.3606713,12.9026884 Z M7.62764963,11.1125935 C7.73251986,10.8172311 7.81482307,10.5792819 7.99104488,10.071856 C8.09558324,10.5792819 8.15233263,10.8437805 8.20443588,11.0950045 C7.98374379,11.103633 7.88252411,11.103633 7.62764963,11.1125935 Z M18.8172364,10.666895 L18.8172364,10.6536203 C18.8172364,10.0453066 19.0422428,9.80735738 19.2592843,9.7854541 C19.323003,9.78113982 19.4912599,9.76321896 19.5702445,10.0499527 C19.6004444,10.1604647 19.6150466,10.2440954 19.6150466,10.305491 C19.6150466,10.4727523 19.5251104,10.5039479 19.4202402,10.5394578 L19.4165897,10.5434402 C19.4165897,10.5434402 19.1056295,10.6629126 18.8212188,10.7730927 C18.8212188,10.7375828 18.8172364,10.7027367 18.8172364,10.666895 Z M20.9003706,11.9060894 C20.5217095,12.2280011 20.2406174,12.4440471 19.7836355,12.4354185 C19.4238908,12.4264581 19.2028668,12.1841946 19.0684603,11.9104037 C19.4617237,11.7650456 20.9342211,11.2094989 21.3570207,11.0511979 C21.3606713,11.3595031 21.3683042,11.774006 21.3683042,11.774006 L21.3683042,11.7786521 C21.3756053,12.0252299 21.3799196,12.263511 21.3756053,12.4971459 L21.3756053,12.5057745 L20.9003706,11.9060894 Z M27.7219134,12.4792251 C27.3734522,12.4924998 27.2947995,12.2545506 27.291149,12.0829749 C27.2947995,11.9060894 27.3505533,11.6372765 27.9051044,11.4876041 C27.9203703,11.6767687 27.9356362,11.8662652 27.9356362,11.8662652 L27.9465879,12.0385046 C27.9542208,12.1619595 27.9618538,12.2721396 27.976456,12.3955944 C27.9014538,12.4440471 27.8191506,12.4752427 27.7219134,12.4792251 L27.7219134,12.4792251 Z" id="Fill-28" fill="#998A5B"></path>
                <path d="M16.6332144,9.1061207 C16.4573245,9.04472516 16.17225,8.9783516 15.7421493,8.9783516 C15.3897057,8.9783516 14.9406886,9.04870757 14.5839307,9.24749639 C14.1800476,9.47681704 13.8946413,9.84718151 13.8684237,10.235135 C13.8312545,10.812585 14.1498476,11.086044 14.6028472,11.3156966 C14.9101567,11.4700151 15.2061828,11.6196875 15.3897057,11.7165929 C15.6409297,11.844362 15.8539888,12.0033266 15.8314218,12.2943747 C15.8091866,12.5854228 15.53971,12.7835479 15.0787456,12.7835479 C14.6924515,12.7835479 14.1425465,12.5588733 13.7638853,12.2147264 L13.7489513,13.1147519 C14.0748455,13.2820133 14.6144625,13.3789187 15.0973302,13.3789187 C15.943925,13.3789187 16.985658,12.9909652 17.0042426,12.0073091 C17.0151942,11.3064043 16.5024585,11.0153562 16.1984676,10.8743124 C15.8914898,10.7336004 15.5732286,10.5792819 15.4235562,10.5039479 C15.281185,10.4382381 14.99246,10.3277261 15.0186775,10.0101286 C15.0409127,9.70580583 15.3897057,9.56044773 15.7640526,9.56044773 C16.0789952,9.56044773 16.3859729,9.64872457 16.6219309,9.7761618" id="Fill-29" fill="#FFFFFF"></path>
                <path d="M9.11109872,7.48395087 L7.17796876,7.76139236 C7.22642146,8.03949758 7.15208307,8.51971029 6.94201075,9.13267013 C6.53713202,10.3184338 5.88202498,12.2240187 5.36497494,13.348055 L6.58259791,13.348055 C6.64233412,12.9909652 6.74322193,12.6202689 6.91612506,12.1533309 L8.72115405,12.1042145 C8.80013859,12.4619679 8.91994287,13.0258114 8.94616042,13.348055 L10.5570467,13.348055 C10.3585898,12.8847675 10.1003966,11.902107 9.94275944,11.226756 L9.11109872,7.48395087 Z M7.17796876,11.4434657 L8.06239646,8.89903519 L8.58641572,11.3943492 L7.17796876,11.4434657 Z" id="Fill-30" fill="#FFFFFF"></path>
                <path d="M13.767204,9.115413 L13.7263843,9.97030447 C13.4416417,9.93545835 13.066963,9.99685389 12.7822204,10.2922162 C12.5200448,10.5699896 12.3551065,10.9672354 12.3176055,11.650883 C12.2840868,12.2147264 12.2651703,12.8276863 12.3103044,13.348055 L10.9313936,13.348055 C11.0216617,12.8366467 11.0515298,12.2280011 11.0850484,11.6641577 L11.1192308,10.9715496 C11.1490989,10.4113568 11.1527495,9.87771335 11.0664638,9.36630506 L12.2691528,9.29130294 C12.3252384,9.49440604 12.3551065,9.76786511 12.3405043,10.0672099 C12.8681741,9.27371395 13.3819055,9.09749214 13.767204,9.115413" id="Fill-31" fill="#FFFFFF"></path>
                <path d="M31.0147057,7.76570664 L29.7672146,7.56758156 C29.8910013,8.08728654 29.939454,8.5021213 30.0031727,9.06198229 L30.2952163,11.7607313 C30.3589349,12.3249065 30.4037371,12.8366467 30.396436,13.348055 L31.7448149,13.348055 C31.6253425,12.8366467 31.5652744,12.3249065 31.5015558,11.7607313" id="Fill-32" fill="#FFFFFF"></path>
                <path d="M25.4439727,13.348055 C25.3620014,12.8366467 25.3321333,12.3249065 25.3125531,11.7607313 L25.2455158,10.3320404 C25.2156477,9.57372244 24.7812327,9.1237097 24.0468093,9.1237097 C23.6462448,9.1237097 23.1700145,9.25214254 22.7661314,9.76786511 C22.7541842,9.657685 22.6904656,9.29628096 22.6154634,9.13731628 L21.5183085,9.08886358 C21.6158776,9.61786086 21.6420952,10.1511724 21.6643303,10.7110334 L21.6792644,11.7607313 C21.7018314,12.3249065 21.6865655,12.8366467 21.6457457,13.348055 L23.0239927,13.348055 C22.94534,12.8366467 22.9154719,12.3249065 22.8929049,11.7607313 L22.8593863,10.5484182 C22.8444522,10.1203087 23.1666959,9.84718151 23.4962406,9.84286723 C23.8822029,9.8339068 24.0690444,10.0897769 24.0843104,10.4777303 L24.1294444,11.7607313 C24.1513476,12.3249065 24.1593125,12.8366467 24.1181609,13.348055" id="Fill-33" fill="#FFFFFF"></path>
                <path d="M29.7144477,13.348055 C29.5498412,12.9421807 29.467538,12.4002405 29.4263864,11.8400477 L29.3477337,10.9755321 C29.2687492,9.95702976 28.8419672,9.26043923 27.1564106,9.26043923 C26.8640351,9.26043923 26.4405718,9.30457765 26.096093,9.38389406 L26.1558292,10.1644471 C26.4969893,9.95304734 26.8487692,9.80271123 27.283516,9.80271123 C27.7331969,9.80271123 28.1224778,9.98822533 28.1603107,10.6582664 C27.7258958,10.7067191 27.3170346,10.7820531 26.8603845,10.9888068 C26.3473169,11.2187912 25.8186515,11.6329622 25.8674361,12.3381813 C25.9238536,13.1190662 26.5119233,13.4582351 27.2536479,13.4582351 C27.8115177,13.4582351 28.2014623,13.167187 28.4148533,12.9511411 C28.4520225,13.0921849 28.5084401,13.2378749 28.5685081,13.348055 L29.7144477,13.348055 Z M27.717931,12.7878621 C27.32865,12.805783 26.9914723,12.5986975 26.979857,12.100232 C26.9652548,11.650883 27.2725644,11.2533054 28.1938294,11.103633 L28.2459326,11.8400477 C28.2648491,12.0909397 28.2724821,12.2721396 28.3063326,12.5150668 C28.1715942,12.6733677 27.9542208,12.7792336 27.717931,12.7878621 L27.717931,12.7878621 Z" id="Fill-34" fill="#FFFFFF"></path>
                <path d="M20.3869711,9.23422168 C20.0796615,9.02215815 19.7126158,8.92525275 19.323003,8.92525275 C18.4312742,8.92525275 17.2365501,9.56044773 17.2700687,11.214145 C17.3002687,12.8807851 18.5739773,13.3875473 19.4693567,13.3875473 C20.2558834,13.3875473 20.7354323,13.1097739 21.1243814,12.695271 L20.8476036,12.3474736 C20.6378632,12.5100888 20.311969,12.7573303 19.7799849,12.7483699 C19.2141503,12.7350952 18.843454,12.316278 18.6559487,11.7301994 L21.1359968,10.7996421 C21.0573441,9.98357918 20.7799026,9.50768075 20.3869711,9.23422168 Z M19.5290929,10.8344882 L18.5437773,11.214145 C18.5175598,11.0379232 18.5026257,10.8524091 18.5026257,10.666895 C18.4986433,9.64441028 19.0495439,9.49009175 19.2290844,9.47217089 C19.5327434,9.44562147 19.7763344,9.61321471 19.8735716,9.96632206 C19.9820924,10.3675502 19.9562067,10.6801697 19.5290929,10.8344882 L19.5290929,10.8344882 Z" id="Fill-35" fill="#FFFFFF"></path>
            </g>
        </g>
    </g>
</svg>