<?xml version="1.0" encoding="UTF-8" standalone="no"?>
<svg width="49px" height="49px" viewBox="0 0 49 49" version="1.1" xmlns="http://www.w3.org/2000/svg" xmlns:xlink="http://www.w3.org/1999/xlink">
    <!-- Generator: Sketch 42 (36781) - http://www.bohemiancoding.com/sketch -->
    <title>uefa-champions-league-seeklogo.com</title>
    <desc>Created with Sketch.</desc>
    <defs></defs>
    <g id="Page-1" stroke="none" stroke-width="1" fill="none" fill-rule="evenodd">
        <g id="home_groups" transform="translate(-17.000000, -204.000000)" fill="#272827">
            <g id="groups" transform="translate(15.000000, 202.000000)">
                <g id="group1">
                    <g id="uefa-champions-league-seeklogo.com" transform="translate(2.000000, 2.000000)">
                        <path d="M24.6433824,27.5183824 C29.939951,28.9803922 33.8884804,29.6691176 33.8884804,29.6691176 C31.6164216,27.3958333 29.5845588,25.0588235 27.8235294,22.8480392 C30.8982843,18.5012255 33.3198529,15.4914216 33.3198529,15.4914216 C30.0588235,16.2144608 26.9767157,17.0980392 24.2156863,18.004902 C21.5919118,14.2377451 20.1519608,11.5857843 20.1519608,11.5857843 C19.3860294,14.4142157 19.0171569,17.245098 18.8921569,19.9056373 C14.5098039,21.6029412 11.7708333,22.9901961 11.7708333,22.9901961 C14.1409314,24.057598 16.6017157,24.9901961 18.9840686,25.7916667 C19.370098,30.9068627 20.4031863,34.4571078 20.4031863,34.4571078 C21.7328431,32.0857843 23.1936275,29.7267157 24.6433824,27.5183824" id="Fill-1"></path>
                        <path d="M48.8210784,26.1776961 C48.1004902,27.3051471 46.9987745,28.1090686 45.7095588,28.6752451 C45.5330882,25.057598 44.9803922,21.8566176 44.9803922,21.8566176 C43.879902,24.8284314 42.7107843,27.4669118 41.5845588,29.7438725 C37.7009804,30.2414216 33.8884804,29.6691176 33.8884804,29.6691176 C35.9791667,32.1776961 37.6029412,33.6642157 38.9178922,34.6678922 C36.9522059,37.9816176 35.5281863,39.7512255 35.5281863,39.7512255 C38.2757353,39.122549 40.4607843,38.0784314 42.1985294,36.8419118 C42.9105392,37.3296569 43.5220588,37.875 44.1262255,38.7977941 C44.1262255,38.7977941 45.2487745,37.2071078 45.6323529,33.5245098 C48.4093137,29.8933824 48.8210784,26.1776961 48.8210784,26.1776961" id="Fill-2"></path>
                        <path d="M47.5526961,16.1495098 C46.314951,13.3651961 44.5318627,11.2647059 42.5870098,9.68382353 C40.9289216,6.1997549 39.0196078,4.59191176 39.0196078,4.59191176 C39.1813725,5.39338235 39.0588235,6.3002451 38.7610294,7.23651961 C34.6311275,5.18995098 30.8651961,4.90563725 30.8651961,4.90563725 C33.2634804,6.47794118 35.3933824,8.42769608 37.2218137,10.4375 C35.5379902,13.1789216 33.3210784,15.4926471 33.3210784,15.4926471 C36.2585784,14.8308824 38.622549,14.5514706 40.5147059,14.5012255 C43.4166667,18.4987745 44.9803922,21.8566176 44.9803922,21.8566176 C45.0367647,19.1544118 44.7659314,16.7977941 44.314951,14.7634804 C46.7720588,15.2316176 47.5526961,16.1495098 47.5526961,16.1495098" id="Fill-3"></path>
                        <path d="M30.8639706,4.90441176 C28.8602941,3.89705882 26.9436275,3.19485294 25.1605392,2.71323529 C27.4301471,0.792892157 29.5416667,0.306372549 29.5416667,0.306372549 C25.8970588,0.161764706 22.7634804,0.819852941 20.1409314,1.82965686 C16.2230392,1.51715686 13.7279412,2.19607843 13.7279412,2.19607843 C14.3137255,2.63848039 14.8088235,3.42892157 15.3161765,4.37377451 C12.004902,6.63970588 10.3235294,9.00245098 10.3235294,9.00245098 C12.3198529,8.01102941 14.4375,7.25980392 16.5245098,6.6875 C16.752451,7.10661765 16.9914216,7.52328431 17.2536765,7.93137255 C18.6360294,10.0845588 20.1531863,11.5857843 20.1531863,11.5857843 C20.6960784,9.00612745 21.6286765,6.99632353 22.7009804,5.4375 C27.3590686,4.79044118 30.8639706,4.90441176 30.8639706,4.90441176" id="Fill-4"></path>
                        <path d="M5.71323529,12.8517157 C6.9620098,11.6446078 8.48284314,10.3443627 10.3235294,9.00245098 C10.3235294,9.00245098 8.625,9.00245098 6.83088235,9.45955882 C8.01715686,6.58455882 9.33455882,4.99019608 9.33455882,4.99019608 C9.33455882,4.99019608 1.77573529,10.3664216 0.339460784,20.0294118 C0.339460784,20.0294118 0.974264706,18.2830882 3.12867647,15.6470588 C3.98406863,17.5625 4.96813725,18.7683824 4.96813725,18.7683824 C4.98039216,16.5625 5.27941176,14.5808824 5.71323529,12.8517157" id="Fill-5"></path>
                        <path d="M11.7720588,22.9901961 C9.14828431,23.0723039 7.09068627,23.3026961 5.4877451,23.5955882 C5.0379902,20.7879902 4.96813725,18.7683824 4.96813725,18.7683824 C3.67279412,20.7463235 2.83333333,22.6544118 2.31372549,24.4301471 C0.486519608,25.1066176 0.0257352941,25.7622549 0.0257352941,25.7622549 C0.31004902,26.7352941 0.879901961,27.6838235 1.59926471,28.5710784 C1.375,32.7781863 2.73529412,35.557598 2.73529412,35.557598 C3.04166667,34.0833333 3.65196078,32.6470588 4.41911765,31.3051471 C6.65686275,33.0992647 8.87377451,34.2696078 8.87377451,34.2696078 C7.82965686,32.3970588 7.06004902,30.3014706 6.49632353,28.2720588 C9.00490196,25.1213235 11.7720588,22.9901961 11.7720588,22.9901961" id="Fill-6"></path>
                        <path d="M24.7536765,44.4791667 C24.7536765,44.4791667 22.5526961,43.6004902 19.4007353,41.8247549 C19.5134804,39.9301471 19.8051471,37.5183824 20.4044118,34.4583333 C20.4044118,34.4583333 17.8995098,36.9375 14.6568627,38.8578431 C12.7745098,37.557598 10.7953431,36.0306373 8.87377451,34.2696078 C8.87377451,34.2696078 9.80882353,37.1605392 11.6115196,40.3431373 C9.90073529,40.9840686 8.13848039,41.2806373 6.52573529,40.8860294 C6.52573529,40.8860294 8.43014706,43.2634804 14.3051471,44.2732843 C15.9338235,46.2058824 17.9178922,47.8026961 20.2340686,48.3578431 C20.2340686,48.3578431 19.5367647,47.5919118 19.3811275,44.7181373 C20.9828431,44.7401961 22.7671569,44.6691176 24.7536765,44.4791667" id="Fill-7"></path>
                        <path d="M35.4019608,44.2365196 C35.9068627,41.9117647 35.5281863,39.7512255 35.5281863,39.7512255 C34.0416667,41.8884804 32.5808824,43.5147059 31.2291667,44.7536765 C27.5919118,44.942402 24.7536765,44.4791667 24.7536765,44.4791667 C24.7536765,44.4791667 26.377451,46.1004902 28.2487745,47.0355392 C25.7769608,48.564951 24.1213235,48.7009804 24.1213235,48.7009804 C34.939951,48.9301471 41.432598,41.8664216 41.432598,41.8664216 C39.6102941,43.0698529 37.4987745,43.8051471 35.4019608,44.2365196" id="Fill-8"></path>
                    </g>
                </g>
            </g>
        </g>
    </g>
</svg>