<?xml version="1.0" encoding="UTF-8" standalone="no"?>
<svg width="50px" height="50px" viewBox="0 0 50 50" version="1.1" xmlns="http://www.w3.org/2000/svg" xmlns:xlink="http://www.w3.org/1999/xlink">
    <!-- Generator: Sketch 42 (36781) - http://www.bohemiancoding.com/sketch -->
    <title>chelsea_crest</title>
    <desc>Created with Sketch.</desc>
    <defs>
        <polygon id="path-1" points="49.8349328 24.9865787 49.8349328 49.9040307 0 49.9040307 0 24.9865787 0 0.0691266795 49.8349328 0.0691266795"></polygon>
    </defs>
    <g id="Page-1" stroke="none" stroke-width="1" fill="none" fill-rule="evenodd">
        <g id="home_groups" transform="translate(-16.000000, -444.000000)">
            <g id="groups" transform="translate(15.000000, 202.000000)">
                <g id="group4" transform="translate(1.000000, 240.000000)">
                    <g id="chelsea_crest" transform="translate(0.000000, 2.000000)">
                        <g id="Group-3" transform="translate(0.000000, 0.026871)">
                            <mask id="mask-2" fill="white">
                                <use xlink:href="#path-1"></use>
                            </mask>
                            <g id="Clip-2"></g>
                            <path d="M0,24.9865931 C0,11.2249808 11.1559501,0.0691266795 24.9174664,0.0691266795 C38.6789827,0.0691266795 49.8349328,11.2249808 49.8349328,24.9865931 C49.8349328,38.7481094 38.6789827,49.9040595 24.9174664,49.9040595 C11.1559501,49.9040595 0,38.7481094 0,24.9865931" id="Fill-1" fill="#EC9B24" mask="url(#mask-2)"></path>
                        </g>
                        <path d="M0.794654511,25.0134645 C0.794654511,11.6908157 11.5948464,0.8906238 24.9174952,0.8906238 C38.240144,0.8906238 49.0403359,11.6908157 49.0403359,25.0134645 C49.0403359,38.3361132 38.240144,49.1362092 24.9174952,49.1362092 C11.5948464,49.1362092 0.794654511,38.3361132 0.794654511,25.0134645" id="Fill-4" fill="#005397"></path>
                        <path d="M7.64043186,25.0134645 C7.64043186,15.4716219 15.3756526,7.73640115 24.9174952,7.73640115 C34.4593378,7.73640115 42.1945585,15.4716219 42.1945585,25.0134645 C42.1945585,34.5553071 34.4593378,42.2904319 24.9174952,42.2904319 C15.3756526,42.2904319 7.64043186,34.5553071 7.64043186,25.0134645" id="Fill-6" fill="#EC9B24"></path>
                        <path d="M8.15223608,25.0134645 C8.15223608,15.7542514 15.6582821,8.24820537 24.9174952,8.24820537 C34.1767083,8.24820537 41.6827543,15.7542514 41.6827543,25.0134645 C41.6827543,34.2725816 34.1767083,41.7786276 24.9174952,41.7786276 C15.6582821,41.7786276 8.15223608,34.2725816 8.15223608,25.0134645" id="Fill-8" fill="#F1EEED"></path>
                        <path d="M2.70644914,19.8044146 C2.70644914,21.0897313 3.74838772,22.1316699 5.03370441,22.1316699 C6.31911708,22.1316699 7.36105566,21.0897313 7.36105566,19.8044146 C7.36105566,18.5190979 6.31911708,17.4771593 5.03370441,17.4771593 C3.74838772,17.4771593 2.70644914,18.5190979 2.70644914,19.8044146" id="Fill-10" fill="#F1EEED"></path>
                        <path d="M4.69350288,27.8378119 C5.02939539,27.8378119 5.28726488,27.9457774 5.43726488,27.9457774 C5.58726488,27.9457774 6.46595969,27.8378119 6.46595969,28.5095969 C6.46595969,28.5666027 6.44494242,28.7105566 6.44494242,28.7105566 C6.44494242,28.7105566 6.51989443,28.662572 6.76279271,28.662572 C7.00578695,28.662572 7.38966411,28.9054702 7.38966411,29.7212092 C7.38966411,29.8861804 7.57555662,30.1080614 7.57555662,30.5309021 C7.57555662,31.0138196 7.23668906,31.1068138 7.03572937,31.1068138 C7.03572937,31.1068138 7.19167946,31.2716891 7.19167946,31.4996161 C7.19167946,31.7275432 6.97277351,32.0934741 6.34599808,32.3153551 C6.19666987,32.3682342 5.69820537,32.7802303 5.49427063,32.7802303 C5.05943378,32.7802303 4.90348369,32.5043186 4.90348369,32.3963532 C4.90348369,32.3963532 4.75645873,32.7001919 4.40559501,32.7052783 C3.99177543,32.7112284 3.6468618,32.1714012 3.52382917,32.090499 C3.40089251,32.009501 2.81308061,31.6106526 2.81308061,31.2567179 C2.81308061,30.9658349 3.04100768,30.7738964 3.04100768,30.7738964 C3.04100768,30.7738964 2.54388676,30.6857006 2.57920345,30.1800384 C2.60617083,29.7931862 2.86711132,29.4692898 2.91807102,29.3133397 C2.96903071,29.1573896 3.11903071,28.3835893 3.67977927,28.3835893 C3.85972169,28.3835893 4.00674664,28.518618 4.00674664,28.518618 C4.00674664,28.4046065 4.04868522,27.8378119 4.69350288,27.8378119" id="Fill-12" fill="#F1EEED"></path>
                        <path d="M4.95267754,29.4331094 C5.09221689,29.1044146 5.19519194,28.8694818 5.20334933,28.8694818 C5.21150672,28.8694818 5.27571017,29.1209213 5.36035509,29.4715931 C5.43185221,29.4959693 5.49979846,29.528119 5.56179463,29.56881 C5.75958733,29.3385797 6.22302303,28.7724568 6.22302303,28.5245681 C6.22302303,28.1196737 5.57523033,28.2096929 5.40430902,28.2096929 C5.23329175,28.2096929 4.81045106,28.1196737 4.68146833,28.1196737 C4.35459693,28.1196737 4.27359885,28.293666 4.27359885,28.4765835 C4.27359885,28.65 4.59135317,29.2069098 4.75603647,29.4836852 C4.81841651,29.459405 4.88444338,29.4428983 4.95267754,29.4331094" id="Fill-14" fill="#EE3542"></path>
                        <path d="M7.1643762,29.9527927 C7.11514395,29.7889731 7.07934741,29.358071 7.04220729,29.2345585 C6.94786948,28.9216027 6.75804223,28.8941555 6.5828023,28.9470345 C6.41140115,28.998666 5.94662188,29.4919482 5.73760077,29.7210269 C5.80228407,29.7937716 5.85458733,29.8773608 5.89287908,29.9682438 C6.26236084,30.0005854 6.53069098,30.0260173 6.53491363,30.030144 C6.53923225,30.0344626 6.29307102,30.1909885 5.95669866,30.4002015 C5.95276392,30.4370537 5.9471977,30.4735221 5.93904031,30.5089347 C6.23357006,30.6378215 6.87023033,30.8961708 7.09892514,30.8273608 C7.48654511,30.7105662 7.21370441,30.1162284 7.1643762,29.9527927" id="Fill-16" fill="#EE3542"></path>
                        <path d="M6.84165067,31.3181958 C6.73819578,31.1717466 6.12072937,30.8859501 5.8378119,30.7604223 C5.79961612,30.8246257 5.75297505,30.883263 5.70038388,30.9357582 C5.78848369,31.3304798 5.85038388,31.6262572 5.84213052,31.6346065 C5.83358925,31.6431478 5.59011516,31.4432438 5.27072937,31.1728983 C5.23368522,31.1812476 5.19587332,31.1876775 5.1571977,31.1911324 C5.128119,31.5063916 5.08195777,32.2053359 5.22120921,32.4027447 C5.45460653,32.7336468 5.93205374,32.2867179 6.07159309,32.1880614 C6.21142035,32.089501 6.60882917,31.9192514 6.71410749,31.8448752 C6.98128599,31.6564875 6.94702495,31.4677159 6.84165067,31.3181958" id="Fill-18" fill="#EE3542"></path>
                        <path d="M4.11168906,31.4936372 C4.11168906,31.4764587 4.22013436,31.2028503 4.36850288,30.8388388 C4.32109405,30.7754031 4.28107486,30.7061132 4.25170825,30.6312572 C3.93270633,30.6994914 3.27915547,30.8588004 3.13510557,31.0456526 C2.88798464,31.36619 3.4559309,31.6904702 3.59143954,31.7946929 C3.72675624,31.8992035 4.0068906,32.2283781 4.10890595,32.3071689 C4.36783109,32.506785 4.53817658,32.4183013 4.64988484,32.2734837 C4.75650672,32.135 4.84537428,31.4906622 4.88347409,31.1733877 C4.83942418,31.1635988 4.79710173,31.1494914 4.75583493,31.1333685 C4.38904031,31.3526583 4.11168906,31.5117754 4.11168906,31.4936372" id="Fill-20" fill="#EE3542"></path>
                        <path d="M4.19073896,30.2990883 C4.1909309,30.281142 4.19323417,30.2637716 4.19448177,30.2460173 C3.91329175,29.999952 3.70983685,29.8174184 3.70983685,29.8082054 C3.70983685,29.7990883 3.96732246,29.8146353 4.3262476,29.8410269 C4.38402111,29.7489923 4.45734165,29.6676104 4.54380998,29.6023512 C4.38363724,29.3342131 4.00340691,28.7327735 3.7725048,28.6550384 C3.38881958,28.5256718 3.26713052,29.1682821 3.2128119,29.3301823 C3.15801344,29.4922745 2.93785988,29.8644434 2.89678503,29.9865163 C2.79237044,30.2963052 2.93133397,30.4285509 3.10475048,30.4869962 C3.26569098,30.5411228 3.87212092,30.4240403 4.19294626,30.3556142 C4.19198656,30.3369002 4.19054702,30.3180902 4.19073896,30.2990883" id="Fill-22" fill="#EE3542"></path>
                        <path d="M4.54382917,30.3090211 C4.54382917,30.603167 4.78231286,30.8416507 5.07645873,30.8416507 C5.37070058,30.8416507 5.60918426,30.603167 5.60918426,30.3090211 C5.60918426,30.0148752 5.37070058,29.7763916 5.07645873,29.7763916 C4.78231286,29.7763916 4.54382917,30.0148752 4.54382917,30.3090211" id="Fill-24" fill="#EE3542"></path>
                        <path d="M45.4246833,27.8378119 C45.0887908,27.8378119 44.8309213,27.9457774 44.6809213,27.9457774 C44.5309213,27.9457774 43.6522265,27.8378119 43.6522265,28.5095969 C43.6522265,28.5666027 43.6732438,28.7105566 43.6732438,28.7105566 C43.6732438,28.7105566 43.5982917,28.662572 43.3553935,28.662572 C43.1123992,28.662572 42.7285221,28.9054702 42.7285221,29.7212092 C42.7285221,29.8861804 42.5426296,30.1080614 42.5426296,30.5309021 C42.5426296,31.0138196 42.8814971,31.1068138 43.0824568,31.1068138 C43.0824568,31.1068138 42.9265067,31.2716891 42.9265067,31.4996161 C42.9265067,31.7275432 43.1454127,32.0934741 43.7721881,32.3153551 C43.9215163,32.3682342 44.4199808,32.7802303 44.6239155,32.7802303 C45.0587524,32.7802303 45.2147025,32.5043186 45.2147025,32.3963532 C45.2147025,32.3963532 45.3618234,32.7001919 45.7125912,32.7052783 C46.1264107,32.7112284 46.4713244,32.1714012 46.594357,32.090499 C46.7172937,32.009501 47.3051056,31.6106526 47.3051056,31.2567179 C47.3051056,30.9658349 47.0771785,30.7738964 47.0771785,30.7738964 C47.0771785,30.7738964 47.5742994,30.6857006 47.5389827,30.1800384 C47.5120154,29.7931862 47.2510749,29.4692898 47.2001152,29.3133397 C47.1491555,29.1573896 46.9991555,28.3835893 46.4384069,28.3835893 C46.2584645,28.3835893 46.1114395,28.518618 46.1114395,28.518618 C46.1114395,28.4046065 46.069501,27.8378119 45.4246833,27.8378119" id="Fill-26" fill="#F1EEED"></path>
                        <path d="M45.165547,29.4331094 C45.0260077,29.1044146 44.9230326,28.8694818 44.9148752,28.8694818 C44.9067179,28.8694818 44.8425144,29.1209213 44.7578695,29.4715931 C44.6863724,29.4959693 44.6184261,29.528119 44.556334,29.56881 C44.3586372,29.3385797 43.8952015,28.7724568 43.8952015,28.5245681 C43.8952015,28.1196737 44.5429942,28.2096929 44.7139155,28.2096929 C44.8848369,28.2096929 45.3076775,28.1196737 45.4366603,28.1196737 C45.7635317,28.1196737 45.8445298,28.293666 45.8445298,28.4765835 C45.8445298,28.65 45.5267754,29.2069098 45.3621881,29.4836852 C45.2997121,29.459405 45.2337812,29.4428983 45.165547,29.4331094" id="Fill-28" fill="#EE3542"></path>
                        <path d="M42.9537524,29.9527927 C43.0030806,29.7889731 43.0388772,29.358071 43.0759213,29.2345585 C43.1702591,28.9216027 43.3600864,28.8941555 43.5354223,28.9470345 C43.7068234,28.998666 44.1715067,29.4919482 44.3805278,29.7210269 C44.3158445,29.7937716 44.2635413,29.8773608 44.2253455,29.9682438 C43.8558637,30.0005854 43.5875336,30.0260173 43.5833109,30.030144 C43.5789923,30.0344626 43.8250576,30.1909885 44.1614299,30.4002015 C44.1653647,30.4370537 44.1710269,30.4735221 44.1790883,30.5089347 C43.8845585,30.6378215 43.2478983,30.8961708 43.0192035,30.8273608 C42.6315835,30.7105662 42.9044242,30.1162284 42.9537524,29.9527927" id="Fill-30" fill="#EE3542"></path>
                        <path d="M43.2765259,31.3181958 C43.3799808,31.1717466 43.9974472,30.8859501 44.2803647,30.7604223 C44.3185605,30.8246257 44.3652015,30.883263 44.4178887,30.9357582 C44.3297889,31.3304798 44.2676967,31.6262572 44.2760461,31.6346065 C44.2845873,31.6431478 44.5280614,31.4432438 44.8474472,31.1728983 C44.8844914,31.1812476 44.9222073,31.1876775 44.9609789,31.1911324 C44.9900576,31.5063916 45.0362188,32.2053359 44.8969674,32.4027447 C44.6635701,32.7336468 44.1862188,32.2867179 44.0464875,32.1880614 C43.9066603,32.089501 43.5093474,31.9192514 43.4040691,31.8448752 C43.1368906,31.6564875 43.1711516,31.4677159 43.2765259,31.3181958" id="Fill-32" fill="#EE3542"></path>
                        <path d="M46.0064971,31.4936372 C46.0064971,31.4764587 45.8980518,31.2028503 45.7495873,30.8388388 C45.7970921,30.7754031 45.8371113,30.7061132 45.866382,30.6312572 C46.1854798,30.6994914 46.8390307,30.8588004 46.9831766,31.0456526 C47.2302015,31.36619 46.6622553,31.6904702 46.5267466,31.7946929 C46.3914299,31.8992035 46.1113916,32.2283781 46.0091843,32.3071689 C45.7503551,32.506785 45.5800096,32.4183013 45.4683013,32.2734837 C45.3616795,32.135 45.2728119,31.4906622 45.2347121,31.1733877 C45.278762,31.1635988 45.3210845,31.1494914 45.3623512,31.1333685 C45.7291459,31.3526583 46.0064971,31.5117754 46.0064971,31.4936372" id="Fill-34" fill="#EE3542"></path>
                        <path d="M45.9274952,30.2990883 C45.9273033,30.281142 45.925,30.2637716 45.9237524,30.2460173 C46.2049424,29.999952 46.4083973,29.8174184 46.4083973,29.8082054 C46.4083973,29.7990883 46.1508157,29.8146353 45.7919866,29.8410269 C45.7341171,29.7489923 45.6607965,29.6676104 45.5743282,29.6023512 C45.7345969,29.3342131 46.1147313,28.7327735 46.3456334,28.6550384 C46.7293186,28.5256718 46.8510077,29.1682821 46.9053263,29.3301823 C46.9601248,29.4922745 47.1803743,29.8644434 47.2213532,29.9865163 C47.3257678,30.2963052 47.1868042,30.4285509 47.0133877,30.4869962 C46.8525432,30.5411228 46.2461132,30.4240403 45.9252879,30.3556142 C45.9261516,30.3369002 45.9276871,30.3180902 45.9274952,30.2990883" id="Fill-36" fill="#EE3542"></path>
                        <path d="M45.574357,30.3090211 C45.574357,30.603167 45.3359693,30.8416507 45.0416315,30.8416507 C44.7475816,30.8416507 44.5090019,30.603167 44.5090019,30.3090211 C44.5090019,30.0148752 44.7475816,29.7763916 45.0416315,29.7763916 C45.3359693,29.7763916 45.574357,30.0148752 45.574357,30.3090211" id="Fill-38" fill="#EE3542"></path>
                        <path d="M6.46381958,19.3393282 C6.36612284,19.3357774 6.25662188,19.3335701 6.13733205,19.3328983 L5.25,21.4094818 C5.36919386,21.5138964 5.4571977,21.5947985 5.52082534,21.6564107 C6.05163148,20.9822265 6.44088292,20.3342418 6.46381958,19.3393282" id="Fill-40" fill="#EE3542"></path>
                        <path d="M6.85159309,18.8465451 C6.68547025,18.7669866 6.32462572,18.6127639 6.02203455,18.6127639 C5.76003839,18.6127639 5.59055662,18.6663148 5.49353167,18.7162188 C5.79276392,18.9134357 6.02865643,19.0841651 6.10581574,19.1407869 C6.52472169,19.1418426 6.81349328,19.1637236 6.9934357,19.1840691 C6.95619962,19.0665067 6.90821497,18.9539347 6.85159309,18.8465451" id="Fill-42" fill="#EE3542"></path>
                        <path d="M5.6125144,20.0725912 C4.8381382,19.598119 3.61788868,18.9006142 3.23890595,18.804261 C3.15176583,18.9601152 3.0859309,19.1288292 3.04168906,19.3063724 C3.32652591,19.7067562 4.80051823,20.4550288 5.43487524,20.4884261 L5.6125144,20.0725912 Z" id="Fill-44" fill="#EE3542"></path>
                        <path d="M4.10390595,21.2102591 C3.99296545,21.1632342 3.88365643,21.1129463 3.77828215,21.0600672 C3.79747601,21.1992226 3.84450096,21.3903935 3.94459693,21.5452879 C4.10400192,21.6451919 4.27761036,21.7241747 4.46235125,21.7776296 C4.30400192,21.5890499 4.14949136,21.354309 4.10390595,21.2102591" id="Fill-46" fill="#EE3542"></path>
                        <path d="M5.35619002,20.6725432 C4.77759117,20.5942322 3.48920345,20.0329079 2.99755278,19.5379942 C2.98622841,19.6254223 2.97835893,19.713906 2.97835893,19.804405 C2.97835893,19.9779175 3.00225528,20.1453839 3.04265835,20.3063244 C3.32855086,20.6741747 4.23901152,21.1457678 5.07691939,21.32619 L5.35619002,20.6725432 Z" id="Fill-48" fill="#EE3542"></path>
                        <path d="M5.688762,19.8941939 L5.9559405,19.268858 C5.4768618,18.9198177 4.35546065,18.1668426 3.87071977,18.1104127 C3.66409789,18.2525432 3.48501919,18.4315259 3.34240883,18.6377639 C3.91371401,18.8225048 5.29634357,19.6545585 5.688762,19.8941939" id="Fill-50" fill="#EE3542"></path>
                        <path d="M5.40019194,21.8075816 C5.31554702,21.7256238 5.19932821,21.6199616 5.09011516,21.5246641 C4.86420345,21.4788868 4.61391555,21.4058541 4.36333973,21.3132438 C4.47456814,21.4991363 4.67130518,21.7429942 4.7890595,21.843858 C4.8693858,21.8534549 4.95076775,21.8597889 5.03378119,21.8597889 C5.15335893,21.8597889 5.26986564,21.8474088 5.38387716,21.8278311 C5.38925144,21.8211132 5.39472169,21.8142994 5.40019194,21.8075816" id="Fill-52" fill="#EE3542"></path>
                        <path id="Fill-54" fill="#EE3542"></path>
                        <path d="M5.72418426,18.0329655 C5.43512476,18.0329655 5.06036468,18.0838292 4.83243762,18.3090691 C4.99692898,18.4020633 5.16151631,18.5025432 5.31612284,18.6011036 C5.43925144,18.5085893 5.67322457,18.4208733 6.02207294,18.4208733 C6.24001919,18.4208733 6.47610365,18.4876679 6.6659309,18.5587812 C6.52907869,18.3797025 6.36506718,18.2226967 6.17754319,18.096881 C6.08618042,18.0690499 5.92821497,18.0329655 5.72418426,18.0329655" id="Fill-56" fill="#EE3542"></path>
                        <path d="M6.65543186,19.3485125 C6.62980806,20.3818138 6.21857965,21.0743282 5.69007678,21.7508157 C6.50303263,21.4767274 7.08911708,20.7097409 7.08911708,19.8043666 C7.08911708,19.6603167 7.07395393,19.5198177 7.04573896,19.3841171 C6.95898273,19.3726008 6.83076775,19.3588772 6.65543186,19.3485125" id="Fill-58" fill="#EE3542"></path>
                        <path id="Fill-60" fill="#EE3542"></path>
                        <path d="M47.1347025,19.8044146 C47.1347025,21.0897313 46.0927639,22.1316699 44.8073512,22.1316699 C43.5219386,22.1316699 42.48,21.0897313 42.48,19.8044146 C42.48,18.5190979 43.5219386,17.4771593 44.8073512,17.4771593 C46.0927639,17.4771593 47.1347025,18.5190979 47.1347025,19.8044146" id="Fill-62" fill="#F1EEED"></path>
                        <path d="M43.3772745,19.3393282 C43.4749712,19.3357774 43.5843762,19.3335701 43.703762,19.3328983 L44.591094,21.4094818 C44.4719002,21.5138964 44.3838004,21.5947985 44.3202687,21.6564107 C43.7894626,20.9822265 43.4002111,20.3342418 43.3772745,19.3393282" id="Fill-64" fill="#EE3542"></path>
                        <path d="M42.9894626,18.8465451 C43.1555854,18.7669866 43.5165259,18.6127639 43.8191171,18.6127639 C44.0811132,18.6127639 44.250595,18.6663148 44.347524,18.7162188 C44.0482917,18.9134357 43.8123992,19.0841651 43.7352399,19.1407869 C43.316334,19.1418426 43.0276583,19.1637236 42.8477159,19.1840691 C42.884856,19.0665067 42.9328407,18.9539347 42.9894626,18.8465451" id="Fill-66" fill="#EE3542"></path>
                        <path d="M44.2286276,20.0725912 C45.0029079,19.598119 46.2231574,18.9006142 46.6021401,18.804261 C46.6893762,18.9601152 46.7551152,19.1288292 46.799357,19.3063724 C46.5146161,19.7067562 45.0406238,20.4550288 44.4062668,20.4884261 L44.2286276,20.0725912 Z" id="Fill-68" fill="#EE3542"></path>
                        <path d="M45.7371497,21.2102591 C45.8480902,21.1632342 45.9573992,21.1129463 46.0627735,21.0600672 C46.0435797,21.1992226 45.9965547,21.3903935 45.8964587,21.5452879 C45.7370537,21.6451919 45.5635413,21.7241747 45.3788004,21.7776296 C45.5370537,21.5890499 45.6915643,21.354309 45.7371497,21.2102591" id="Fill-70" fill="#EE3542"></path>
                        <path d="M44.484856,20.6725432 C45.0634549,20.5942322 46.3519386,20.0329079 46.8434933,19.5379942 C46.8548177,19.6254223 46.8626871,19.713906 46.8626871,19.804405 C46.8626871,19.9779175 46.8388868,20.1453839 46.7983877,20.3063244 C46.5125912,20.6741747 45.6021305,21.1457678 44.7641267,21.32619 L44.484856,20.6725432 Z" id="Fill-72" fill="#EE3542"></path>
                        <path d="M44.1523417,19.8941939 L43.8851631,19.268858 C44.3642418,18.9198177 45.485643,18.1668426 45.9702879,18.1104127 C46.1771017,18.2525432 46.3560845,18.4315259 46.4986948,18.6377639 C45.9273896,18.8225048 44.544856,19.6545585 44.1523417,19.8941939" id="Fill-74" fill="#EE3542"></path>
                        <path d="M44.4409021,21.8075816 C44.525547,21.7256238 44.6417658,21.6199616 44.7509789,21.5246641 C44.9768906,21.4788868 45.2270825,21.4058541 45.4777543,21.3132438 C45.3665259,21.4991363 45.1697889,21.7429942 45.0520345,21.843858 C44.9716123,21.8534549 44.8903263,21.8597889 44.8073129,21.8597889 C44.6877351,21.8597889 44.5712284,21.8474088 44.4573129,21.8278311 C44.4518426,21.8211132 44.4463724,21.8142994 44.4409021,21.8075816" id="Fill-76" fill="#EE3542"></path>
                        <path id="Fill-78" fill="#EE3542"></path>
                        <path d="M44.1169098,18.0329655 C44.4059693,18.0329655 44.7806334,18.0838292 45.0087524,18.3090691 C44.8441651,18.4020633 44.6795777,18.5025432 44.5249712,18.6011036 C44.4018426,18.5085893 44.1678695,18.4208733 43.8190211,18.4208733 C43.6010749,18.4208733 43.3649904,18.4876679 43.1751631,18.5587812 C43.3120154,18.3797025 43.4760269,18.2226967 43.6634549,18.096881 C43.7550096,18.0690499 43.9127831,18.0329655 44.1169098,18.0329655" id="Fill-80" fill="#EE3542"></path>
                        <path d="M43.1857102,19.3485125 C43.211238,20.3818138 43.6224664,21.0743282 44.1510653,21.7508157 C43.3381094,21.4767274 42.751929,20.7097409 42.751929,19.8043666 C42.751929,19.6603167 42.7671881,19.5198177 42.7953071,19.3841171 C42.8820633,19.3726008 43.0102783,19.3588772 43.1857102,19.3485125" id="Fill-82" fill="#EE3542"></path>
                        <path id="Fill-84" fill="#EE3542"></path>
                        <path d="M20.6904702,25.1935988 C20.4248273,25.3971497 19.6707965,26.0453263 19.0499712,26.0453263 L19.0499712,21.480739 C19.4728119,21.480739 20.966382,21.8346737 20.966382,22.4824664 C20.966382,22.752428 20.7024664,23.1062668 20.3185893,23.1062668 C20.4804894,23.49619 20.9604319,23.6580902 21.4222361,23.6580902 C22.5918138,23.6580902 22.9996833,22.7943666 23.0657102,22.7943666 C23.1316411,22.7943666 23.5455566,23.34619 23.5455566,23.4721977 C22.75381,23.8199904 21.3322169,24.7017562 20.6904702,25.1935988 M18.4861516,15.6985893 C18.1748273,15.6985893 18.2901823,15.44619 18.2901823,15.1347697 C18.2901823,14.8234453 18.1748273,14.6780518 18.4861516,14.6780518 C18.797572,14.6780518 19.0499712,14.8234453 19.0499712,15.1347697 C19.0499712,15.44619 18.797572,15.6985893 18.4861516,15.6985893 M36.969261,25.0376488 C36.969261,23.9819866 36.0395106,23.3642322 35.0438292,23.3642322 C33.9342322,23.3642322 33.1664779,24.3178791 33.1064971,24.3178791 C33.0465163,24.3178791 33.3584165,23.4362092 34.7859597,22.3864971 C35.8260749,21.6217179 36.8552495,20.9049232 36.8552495,19.7892802 C36.8552495,18.505691 36.0215643,17.6720058 34.9118714,17.6720058 C33.0825048,17.6720058 32.7586084,19.1235413 32.7586084,19.3694146 C32.7586084,19.6693186 32.8665739,19.7953263 32.8665739,19.7953263 C32.8665739,19.7953263 32.8425816,18.9316027 33.7902783,18.9316027 C34.3540979,18.9316027 34.5759789,19.5133685 34.5759789,19.7892802 C34.5759789,20.0651919 34.5700288,20.3351536 33.5143666,21.2828503 C32.4587044,22.230547 31.5770345,22.9023321 31.5770345,24.0659597 C31.5770345,25.2295873 32.1408541,25.8893762 32.950547,26.8070345 C33.7602399,27.7247889 33.7422937,28.1566507 33.7422937,28.702428 C33.7422937,29.2483013 33.2864395,29.740144 32.6326967,29.740144 C31.8428695,29.740144 30.6832726,29.4242131 30.2833685,28.2646161 C29.8834645,27.1050192 29.7715643,26.4491651 29.6915259,25.5615451 C29.6334645,24.9171113 29.3397025,24.2019482 29.0597601,23.9059789 L29.1477639,22.946286 C29.1477639,22.946286 29.2917179,23.0582821 29.603618,23.0582821 C30.2113916,23.0582821 30.9551536,22.474501 30.9551536,21.7706622 C30.9551536,21.1309309 30.5393186,20.7710461 30.5393186,20.7710461 C30.5393186,20.7710461 30.5313532,21.2908157 29.9395106,21.2908157 C29.3476679,21.2908157 28.8757869,20.786977 28.8757869,19.9792994 C28.8757869,19.1715259 29.2197409,18.8116411 29.6835605,18.8116411 C30.4352879,18.8116411 30.8752111,19.4194146 30.8752111,19.4194146 C30.8032342,18.9316027 30.7033301,18.4877447 30.8513148,17.883906 C30.8513148,17.883906 30.6754031,17.9438868 30.3954607,17.9438868 C29.9915259,17.9438868 29.847572,17.8159597 29.847572,17.540048 C29.847572,17.2641363 30.1955566,16.7575144 30.6713724,16.7602975 C31.3431574,16.7643282 31.2844242,17.0723896 31.2844242,17.0723896 C31.2844242,17.0723896 31.8269386,16.2764203 31.8869194,16.2404319 C31.9469002,16.2044434 31.9148464,15.8245969 31.9148464,15.8245969 L32.1827927,15.9485893 L32.4866315,15.4567466 C32.3587044,15.1247889 31.9114875,14.9872649 31.7909501,14.8929271 C31.606977,14.7489731 31.4589923,14.4570345 31.4589923,14.3890883 C31.0391267,14.3130806 27.9322169,14.0771881 27.9322169,12.3577063 C27.716286,12.4536756 26.6126392,13.005499 26.6126392,13.6532917 C26.6126392,13.8452303 26.7065931,13.9531958 26.7065931,13.9531958 C26.3526583,13.9531958 25.3390307,13.8692226 24.9011228,14.8888964 C25.2370154,14.7388964 25.8548656,15.0268042 25.8548656,15.6745969 C25.8548656,16.3223896 25.1950768,16.8442706 24.6252111,16.8442706 C23.9894146,16.8442706 23.8814491,16.3764203 23.8814491,16.3764203 C23.6594722,16.5623129 23.3776104,17.540048 24.4153263,18.0318906 C24.4153263,18.4217179 23.5874952,19.7953263 23.4675336,19.7953263 C22.3998752,19.7953263 21.187975,19.4699904 20.822428,19.255499 C19.9946929,18.7696065 19.3229079,18.0599136 19.0469962,18.0599136 L19.0469962,17.5640403 C19.7907582,17.0661516 20.7923896,16.274405 20.7923896,15.1347697 C20.7923896,14.1390883 19.9347121,12.9335221 18.4711804,12.9335221 C16.9476679,12.9335221 16.1618714,14.3490691 16.1618714,15.1227735 C16.1618714,16.3084741 17.3715643,17.2161516 17.8353839,17.2161516 C17.6993954,17.4320825 17.2435413,17.496094 17.2435413,17.496094 C17.3635029,17.612025 17.7064012,17.7499328 17.9493954,17.7499328 L17.9493954,18.0498369 C17.5035221,18.0498369 17.0436372,18.4157678 17.0436372,18.8356334 C17.0436372,19.1635605 17.2995873,19.3034837 17.2995873,19.355499 C17.2995873,19.4874568 16.9836564,19.5753647 16.9836564,19.8953263 C16.9836564,20.1631766 17.2795298,20.3111612 17.2795298,20.4030998 C17.2795298,20.4951344 17.17262,21.1959021 17.9493954,21.1959021 L17.9493954,26.07738 C17.8713724,26.07738 17.4035221,26.4172073 17.3235797,26.7011804 C17.1516027,26.7131766 16.6677255,26.3882246 16.6677255,27.4558829 C16.9716603,27.1799712 17.2435413,27.2159597 17.2435413,27.2159597 C17.1156142,27.3918714 17.0196449,27.5198944 17.0196449,27.8078023 C17.0196449,28.0957102 17.1396065,28.3155758 17.1396065,28.3155758 C17.3195489,27.9997409 17.619453,28.3006046 17.6873992,28.3006046 C17.6873992,28.9483973 17.8154223,29.1082821 17.9493954,29.2402399 L17.9493954,32.9130806 L17.6134069,32.9130806 L17.6134069,33.908762 L18.1712764,33.908762 C17.9653263,34.0107774 17.6954607,34.2507006 17.6954607,34.6465739 C17.6954607,35.1504127 18.1683013,35.4173033 18.5372073,35.4173033 C18.9060173,35.4173033 19.3258829,35.0843858 19.3258829,34.6435988 C19.3258829,34.2027159 18.9720441,33.9747889 18.8310653,33.908762 L19.3679175,33.908762 L19.3679175,32.9130806 L19.0499712,32.9130806 L19.0499712,29.6501248 C19.0499712,29.6501248 19.1609117,29.746094 19.4008349,29.746094 C19.2828887,28.9005086 20.2305854,28.3486852 20.9263628,28.3486852 C21.6302015,28.3486852 21.9020825,28.8445585 21.9020825,28.8445585 C23.9814491,28.0887044 24.9011228,26.7370729 24.9891267,26.7370729 C25.0770345,26.7370729 25.8278023,28.1116411 25.8278023,28.1116411 C25.1111036,28.3126008 22.016094,30.3938868 22.016094,32.0013724 C22.016094,32.7871689 22.9277063,33.1530038 22.9277063,33.1530038 C22.9277063,35.4202783 21.9500672,35.7921593 21.5122553,35.7921593 C21.0743474,35.7921593 20.8043858,35.7022361 20.2766507,35.7022361 C19.7487236,35.7022361 18.7230998,35.996094 18.7230998,36.8478215 C18.7230998,37.2497409 18.8670537,37.4776679 18.8670537,37.4776679 C18.8670537,37.4776679 18.8040979,37.6395681 18.8040979,37.7925432 C18.8040979,38.2633685 19.1219482,38.6173033 19.3528503,38.6832342 C19.2088964,37.9754607 19.8326967,37.7626008 20.4295298,37.7626008 C20.4295298,38.0265163 20.525499,38.6263244 21.0623512,38.8721977 C20.9514107,37.8794914 21.8961324,37.7745969 22.1240595,37.7745969 C22.1240595,38.0095298 22.237975,38.4373608 22.8937332,38.6852495 C22.75381,38.2334261 23.0448848,37.8589539 23.5994914,37.7595298 C24.4033301,37.6155758 24.619261,37.261737 24.8591843,36.2480134 C24.9954607,35.6721977 25.3329846,34.7724856 26.994501,34.4906238 C25.7768426,34.1907198 25.3809693,33.8127927 25.3809693,33.3209501 C25.3809693,32.4032917 27.0544818,31.8874568 27.4323129,31.8874568 C28.3860557,33.5248848 29.2557294,33.9747889 29.9575528,33.9747889 C30.0954607,34.0647121 30.2574568,34.4906238 30.2574568,34.9224856 C30.2574568,35.7023321 29.9635988,36.2781478 29.7716603,36.2781478 C29.5797217,36.2781478 27.3324088,36.1141363 27.3324088,37.5257486 C27.3324088,37.8496449 27.4743474,37.9545393 27.4743474,37.9545393 C27.4743474,38.1134645 27.5103359,38.6352495 27.888167,38.8721977 C27.9931574,38.299357 28.3230038,38.1344818 29.2407582,38.1344818 C29.2407582,38.3833301 29.3247313,38.8812188 29.7355758,39.0281478 C29.7355758,38.7732534 29.750547,38.1254607 30.7222361,38.1254607 C30.7222361,38.4433109 30.8541939,38.7342898 31.235096,38.8332342 C31.166094,38.5602975 31.4690691,38.1254607 31.9009309,38.1254607 C32.2307774,38.1254607 32.4707006,37.9455182 32.4707006,37.405691 L32.4707006,35.5342898 C32.4707006,34.6705662 33.1064971,33.0870729 33.9641747,32.271334 C33.5263628,32.4632726 33.2084165,32.5172073 32.9685893,32.5172073 C30.9351919,32.5172073 30.2634069,30.0640403 30.3414299,30.0640403 C30.419357,30.0640403 31.3310653,31.155691 33.2264587,31.155691 C34.9419098,31.155691 35.5596641,30.1840019 35.5596641,29.3202783 C35.5596641,27.4548273 33.8322169,26.5611612 33.8322169,25.740144 C33.8322169,25.3855374 34.2280902,25.0916795 34.582025,25.0916795 C34.9358637,25.0916795 35.7096641,25.4575144 35.7096641,26.1652879 C35.7096641,26.4531958 35.475691,26.8190307 35.475691,26.8190307 C36.5134069,26.471142 36.969261,25.4154798 36.969261,25.0376488" id="Fill-86" fill="#C6CACD"></path>
                        <path d="M31.7059501,16.9492322 L31.4270633,17.3360845 C31.4270633,17.3360845 31.7478887,17.9089251 32.4227447,17.9089251 C33.4304223,17.9089251 33.6493282,16.8892514 33.6103647,16.5923225 C33.6103647,16.5923225 33.3505758,17.23119 32.5207294,17.23119 C31.9428983,17.23119 31.7059501,16.9492322 31.7059501,16.9492322" id="Fill-88" fill="#C6CACD"></path>
                        <path d="M19.9736084,24.4668906 C19.7079655,24.6705374 18.9539347,25.318618 18.3331094,25.318618 L18.3331094,20.7540307 C18.7559501,20.7540307 20.2495202,21.1079655 20.2495202,21.7557582 C20.2495202,22.0257198 19.9856046,22.3795585 19.6017274,22.3795585 C19.7636276,22.7694818 20.2435701,22.931382 20.7053743,22.931382 C21.874952,22.931382 22.2828215,22.0676583 22.3488484,22.0676583 C22.4147793,22.0676583 22.8286948,22.6194818 22.8286948,22.7454894 C22.0369482,23.0932821 20.6153551,23.975048 19.9736084,24.4668906 M17.7692898,14.971881 C17.4579655,14.971881 17.2054702,14.7194818 17.2054702,14.4080614 C17.2054702,14.096737 17.4579655,13.8442418 17.7692898,13.8442418 C18.0807102,13.8442418 18.3331094,14.096737 18.3331094,14.4080614 C18.3331094,14.7194818 18.0807102,14.971881 17.7692898,14.971881 M36.2523992,24.3109405 C36.2523992,23.2552783 35.3226488,22.637524 34.3269674,22.637524 C33.2173704,22.637524 32.4496161,23.5911708 32.3896353,23.5911708 C32.3296545,23.5911708 32.6415547,22.709501 34.0690979,21.6597889 C35.1092131,20.8950096 36.1383877,20.178215 36.1383877,19.062572 C36.1383877,17.7789827 35.3047025,16.9452975 34.1950096,16.9452975 C32.365643,16.9452975 32.0417466,18.396833 32.0417466,18.6427063 C32.0417466,18.9426104 32.1497121,19.068618 32.1497121,19.068618 C32.1497121,19.068618 32.1257198,18.2048944 33.0734165,18.2048944 C33.6372361,18.2048944 33.8591171,18.7866603 33.8591171,19.062572 C33.8591171,19.3384837 33.853167,19.6084453 32.7975048,20.556142 C31.7418426,21.5038388 30.8601727,22.1756238 30.8601727,23.3392514 C30.8601727,24.5028791 31.4239923,25.1626679 32.2336852,26.0803263 C33.0433781,26.9980806 33.0254319,27.4299424 33.0254319,27.9757198 C33.0254319,28.5215931 32.5695777,29.0134357 31.9158349,29.0134357 C31.1260077,29.0134357 29.9664107,28.6975048 29.5665067,27.5379079 C29.1666027,26.3783109 29.0547025,25.7224568 28.9746641,24.8347409 C28.9166027,24.1904031 28.6228407,23.4752399 28.3428983,23.1792706 L28.4309021,22.2195777 C28.4309021,22.2195777 28.574856,22.3315739 28.8867562,22.3315739 C29.4945298,22.3315739 30.2382917,21.7477927 30.2382917,21.0439539 C30.2382917,20.4042226 29.8224568,20.0443378 29.8224568,20.0443378 C29.8224568,20.0443378 29.8144914,20.5641075 29.2226488,20.5641075 C28.6308061,20.5641075 28.1589251,20.0602687 28.1589251,19.2525912 C28.1589251,18.4448177 28.5028791,18.0849328 28.9666987,18.0849328 C29.7184261,18.0849328 30.1583493,18.6927063 30.1583493,18.6927063 C30.0863724,18.2048944 29.9864683,17.7610365 30.134453,17.1571977 C30.134453,17.1571977 29.9585413,17.2171785 29.6785988,17.2171785 C29.2746641,17.2171785 29.1307102,17.0892514 29.1307102,16.8133397 C29.1307102,16.537428 29.4786948,16.0308061 29.9545106,16.0335893 C30.6262956,16.03762 30.4303263,16.5453935 30.4303263,16.5453935 C30.4303263,16.5453935 31.1100768,15.5497121 31.1700576,15.5137236 C31.2300384,15.4777351 31.1979846,15.0978887 31.1979846,15.0978887 L31.4659309,15.221881 L31.7697697,14.7300384 C31.6418426,14.3980806 31.1946257,14.2605566 31.0740883,14.1662188 C30.8901152,14.0222649 30.7421305,13.7303263 30.7421305,13.66238 C30.3222649,13.5863724 27.2153551,13.3504798 27.2153551,11.6309981 C26.9994242,11.7269674 25.8957774,12.2787908 25.8957774,12.9265835 C25.8957774,13.1185221 25.9897313,13.2264875 25.9897313,13.2264875 C25.6357965,13.2264875 24.6221689,13.1425144 24.184261,14.1621881 C24.5201536,14.0121881 25.1380038,14.300096 25.1380038,14.9478887 C25.1380038,15.5956814 24.478215,16.1175624 23.9083493,16.1175624 C23.2725528,16.1175624 23.1645873,15.6497121 23.1645873,15.6497121 C22.9426104,15.8356046 22.6607486,16.8133397 23.6984645,17.3051823 C23.6984645,17.6950096 22.8706334,19.068618 22.7506718,19.068618 C21.6830134,19.068618 20.4711132,18.7432821 20.1055662,18.5287908 C19.2778311,18.0428983 18.6060461,17.3332054 18.3301344,17.3332054 L18.3301344,16.8373321 C19.0738964,16.3394434 20.0755278,15.5476967 20.0755278,14.4080614 C20.0755278,13.41238 19.2178503,12.2068138 17.7543186,12.2068138 C16.2308061,12.2068138 15.4450096,13.6223608 15.4450096,14.3960653 C15.4450096,15.5817658 16.6547025,16.4894434 17.1185221,16.4894434 C16.9825336,16.7053743 16.5266795,16.7693858 16.5266795,16.7693858 C16.6466411,16.8853167 16.9895393,17.0232246 17.2325336,17.0232246 L17.2325336,17.3231286 C16.7866603,17.3231286 16.3267754,17.6890595 16.3267754,18.1089251 C16.3267754,18.4368522 16.5827255,18.5767754 16.5827255,18.6287908 C16.5827255,18.7607486 16.2667946,18.8486564 16.2667946,19.168618 C16.2667946,19.4364683 16.5626679,19.584453 16.5626679,19.6763916 C16.5626679,19.7684261 16.4557582,20.4691939 17.2325336,20.4691939 L17.2325336,25.3506718 C17.1545106,25.3506718 16.6866603,25.690499 16.6067179,25.9744722 C16.4347409,25.9864683 15.9508637,26.06238 15.9508637,27.1300384 C16.2547985,26.8541267 16.5266795,26.8901152 16.5266795,26.8901152 C16.3987524,27.0660269 16.3027831,27.1940499 16.3027831,27.4819578 C16.3027831,27.7698656 16.4227447,27.9897313 16.4227447,27.9897313 C16.6026871,27.6738964 16.9025912,27.5738964 16.9705374,27.5738964 C16.9705374,28.2216891 17.0985605,28.3815739 17.2325336,28.5135317 L17.2325336,32.1863724 L16.8965451,32.1863724 L16.8965451,33.1820537 L17.4544146,33.1820537 C17.2484645,33.2840691 16.9785988,33.5239923 16.9785988,33.9198656 C16.9785988,34.4237044 17.4514395,34.690595 17.8203455,34.690595 C18.1891555,34.690595 18.6090211,34.3576775 18.6090211,33.9168906 C18.6090211,33.4760077 18.2551823,33.2480806 18.1142035,33.1820537 L18.6510557,33.1820537 L18.6510557,32.1863724 L18.3331094,32.1863724 L18.3331094,28.9234165 C18.3331094,28.9234165 18.4440499,29.0193858 18.6839731,29.0193858 C18.5660269,28.1738004 19.5137236,27.621977 20.209501,27.621977 C20.9133397,27.621977 21.1852207,28.1178503 21.1852207,28.1178503 C23.2645873,27.3619962 24.184261,26.0103647 24.2722649,26.0103647 C24.3601727,26.0103647 25.1109405,27.3849328 25.1109405,27.3849328 C24.3942418,27.5858925 21.2992322,29.6671785 21.2992322,31.2746641 C21.2992322,32.0604607 22.2108445,32.4262956 22.2108445,32.4262956 C22.2108445,34.6935701 21.2332054,35.0654511 20.7953935,35.0654511 C20.3574856,35.0654511 20.087524,34.9755278 19.5597889,34.9755278 C19.0318618,34.9755278 18.006238,35.2693858 18.006238,36.1211132 C18.006238,36.5230326 18.1501919,36.7509597 18.1501919,36.7509597 C18.1501919,36.7509597 18.0872361,36.9128599 18.0872361,37.0658349 C18.0872361,37.5366603 18.4050864,37.890595 18.6359885,37.9565259 C18.4920345,37.2487524 19.1158349,37.0358925 19.7126679,37.0358925 C19.7126679,37.2998081 19.8086372,37.8996161 20.3454894,38.1454894 C20.2345489,37.1527831 21.1792706,37.0478887 21.4071977,37.0478887 C21.4071977,37.2828215 21.5211132,37.7106526 22.1768714,37.9585413 C22.0369482,37.5067179 22.328023,37.1322457 22.8826296,37.0328215 C23.6864683,36.8888676 23.9023992,36.5350288 24.1423225,35.5213052 C24.2785988,34.9454894 24.6161228,34.0457774 26.2776392,33.7639155 C25.0599808,33.4640115 24.6641075,33.0860845 24.6641075,32.5942418 C24.6641075,31.6765835 26.33762,31.1607486 26.7154511,31.1607486 C27.6691939,32.7981766 28.5388676,33.2480806 29.240691,33.2480806 C29.3785988,33.3380038 29.540595,33.7639155 29.540595,34.1957774 C29.540595,34.9756238 29.246737,35.5514395 29.0547985,35.5514395 C28.8628599,35.5514395 26.615547,35.387428 26.615547,36.7990403 C26.615547,37.1229367 26.7574856,37.2278311 26.7574856,37.2278311 C26.7574856,37.3867562 26.7934741,37.9085413 27.1713052,38.1454894 C27.2762956,37.5726488 27.606142,37.4077735 28.5238964,37.4077735 C28.5238964,37.6566219 28.6078695,38.1545106 29.018714,38.3014395 C29.018714,38.0465451 29.0336852,37.3987524 30.0053743,37.3987524 C30.0053743,37.7166027 30.1373321,38.0075816 30.5182342,38.1065259 C30.4492322,37.8335893 30.7522073,37.3987524 31.1840691,37.3987524 C31.5139155,37.3987524 31.7538388,37.21881 31.7538388,36.6789827 L31.7538388,34.8075816 C31.7538388,33.943858 32.3896353,32.3603647 33.2473129,31.5446257 C32.809501,31.7365643 32.4915547,31.790499 32.2517274,31.790499 C30.2183301,31.790499 29.5465451,29.3373321 29.6245681,29.3373321 C29.7024952,29.3373321 30.6142035,30.4289827 32.5095969,30.4289827 C34.225048,30.4289827 34.8428023,29.4572937 34.8428023,28.5935701 C34.8428023,26.728119 33.1153551,25.834453 33.1153551,25.0134357 C33.1153551,24.6588292 33.5112284,24.3649712 33.8651631,24.3649712 C34.2190019,24.3649712 34.9928023,24.7308061 34.9928023,25.4385797 C34.9928023,25.7264875 34.7588292,26.0923225 34.7588292,26.0923225 C35.7965451,25.7444338 36.2523992,24.6888676 36.2523992,24.3109405" id="Fill-90" fill="#005397"></path>
                        <path d="M25.1379559,14.9479367 C25.1379559,15.5733685 24.5232726,16.0797985 23.9679942,16.1142514 L23.9678983,16.115595 C25.0431382,16.115595 25.5198177,15.4058061 25.5198177,14.7580134 C25.5198177,14.2462092 25.2278791,13.8182821 24.8240403,13.8182821 C24.4202015,13.8182821 24.1842131,14.1621401 24.1842131,14.1621401 C24.5202015,14.0122361 25.1379559,14.300144 25.1379559,14.9479367" id="Fill-92" fill="#627DB7"></path>
                        <path d="M17.769309,14.971929 C17.4578887,14.971929 17.2054894,14.7195298 17.2054894,14.4081094 C17.2054894,14.0966891 17.4578887,13.8442898 17.769309,13.8442898 C18.0807294,13.8442898 18.3331286,14.0966891 18.3331286,14.4081094 C18.3331286,14.7195298 18.0807294,14.971929 17.769309,14.971929 M18.8939731,14.4381478 C18.8939731,14.0982246 18.6060653,13.606382 18.0422457,13.606382 C17.3784261,13.606382 17.1905182,14.1661708 17.1905182,14.4081094 C17.1905182,14.871929 17.5183493,15.3138676 18.0821689,15.3138676 L18.0821689,15.8416987 C18.6660461,15.3018714 18.8939731,14.777975 18.8939731,14.4381478" id="Fill-94" fill="#627DB7"></path>
                        <path d="M15.4450576,14.3961132 C15.4450576,15.5817179 16.6546545,16.4893954 17.1184741,16.4893954 C16.5747121,16.2134837 15.9788388,15.3738484 15.9788388,14.4140595 C15.9788388,13.600048 16.3292226,12.7870921 17.2329655,12.2659789 C16.0520633,12.5410269 15.4450576,13.7161708 15.4450576,14.3961132" id="Fill-96" fill="#627DB7"></path>
                        <path d="M17.2324856,17.3231766 C17.3304702,17.3231766 17.506382,17.4951536 17.778263,17.5481286 L17.778263,16.9963052 C17.778263,16.9963052 17.412428,17.0232726 17.2324856,17.0232726 L17.2324856,17.3231766 Z" id="Fill-98" fill="#627DB7"></path>
                        <path d="M18.3301344,17.3332054 L18.3301344,17.7680422 C18.4706334,17.7880998 19.1204415,18.021785 19.7598848,18.3082534 C19.0935701,17.8536468 18.5664107,17.3332054 18.3301344,17.3332054" id="Fill-100" fill="#627DB7"></path>
                        <path d="M16.9505758,17.8369962 C17.190499,17.8369962 18.0822457,18.3928503 18.0822457,18.4528311 C18.0822457,18.5128119 17.3984645,18.5207774 17.1744722,18.5207774 C16.9505758,18.5207774 16.6626679,18.468762 16.6626679,18.1789347 C16.6626679,18.0409309 16.790595,17.8369962 16.9505758,17.8369962" id="Fill-102" fill="#627DB7"></path>
                        <path d="M16.9605566,18.7947217 C17.1065259,18.7947217 18.0241843,19.1025912 18.0241843,19.1745681 C18.0241843,19.2465451 17.2524952,19.3925144 17.0445298,19.3925144 C16.8365643,19.3925144 16.6866603,19.2745681 16.6866603,19.093666 C16.6866603,18.9946257 16.7666027,18.7947217 16.9605566,18.7947217" id="Fill-104" fill="#627DB7"></path>
                        <path id="Fill-106" fill="#627DB7"></path>
                        <path d="M20.1415547,25.318618 C20.4235125,25.1807102 24.0642994,23.2872361 24.3802303,22.893858 C24.3802303,22.893858 23.2245681,22.893858 22.8286948,22.7454894 C22.0369482,23.0933781 20.6153551,23.975048 19.9736084,24.4668906 C19.7079655,24.6705374 18.9539347,25.318618 18.3331094,25.318618 C18.1051823,25.318618 18.0152591,25.240691 17.7583493,25.240691 L17.7583493,21.0479846 C17.7583493,20.6480806 17.3544146,20.4691939 17.2325336,20.4691939 L17.2325336,25.3506718 C17.1545106,25.3506718 16.6866603,25.690499 16.6067179,25.9744722 C16.4440499,25.9857965 16.0025912,26.0548944 15.9552783,26.9658349 C16.1278311,26.6327255 16.4664107,26.2463532 16.7546065,26.2463532 C16.7546065,25.8264875 17.7423225,25.7864683 18.3901152,25.7864683 C19.0379079,25.7864683 19.8595969,25.4565259 20.1415547,25.318618" id="Fill-108" fill="#627DB7"></path>
                        <path d="M16.5267274,26.8901152 C16.3988004,27.0660269 16.3028311,27.1940499 16.3028311,27.4819578 C16.3028311,27.6464491 16.3416987,27.7868522 16.3752879,27.8785988 C16.4504319,27.5350288 16.9805662,26.9320537 16.9805662,26.9320537 C16.9805662,26.9320537 16.6116603,26.8901152 16.5267274,26.8901152" id="Fill-110" fill="#627DB7"></path>
                        <path d="M17.484405,27.6668618 C17.484405,27.6668618 17.3554223,27.5738676 16.9705854,27.5738676 C16.9705854,28.1554415 17.0737524,28.3435413 17.1917946,28.4714683 C17.2076296,28.0024664 17.484405,27.6668618 17.484405,27.6668618" id="Fill-112" fill="#627DB7"></path>
                        <path d="M17.7583013,32.3043186 L17.7583013,28.0576775 C17.4144434,28.0576775 17.2324856,28.5135317 17.2324856,28.5135317 L17.2324856,32.1863724 L16.8965931,32.1863724 L16.8965931,32.6642035 C17.6743282,32.6642035 17.7583013,32.4073896 17.7583013,32.3043186" id="Fill-114" fill="#627DB7"></path>
                        <path d="M17.9822457,33.7760077 C17.9822457,33.4421305 17.6943378,33.2821497 17.5023992,33.2821497 C17.4086372,33.2821497 17.2845489,33.3289827 17.1819578,33.3896353 C17.0674664,33.5174664 16.9785988,33.6928983 16.9785988,33.9198656 C16.9785988,33.9421305 16.9806142,33.9634357 16.9824376,33.9849328 C17.0737044,34.1481766 17.2289827,34.3238004 17.4383877,34.3238004 C17.7880998,34.3238004 17.9822457,34.071881 17.9822457,33.7760077" id="Fill-116" fill="#627DB7"></path>
                        <path d="M18.3331286,28.9234645 C18.3331286,28.9234645 18.4440691,29.0194338 18.6839923,29.0194338 C18.6330326,28.9414107 18.3720921,28.6835413 18.3720921,28.4076296 C18.3720921,28.293714 18.4230518,28.2036948 18.4230518,28.2036948 C18.4230518,28.2036948 18.2581766,28.071737 17.9282342,28.071737 C17.9282342,28.515595 18.0122073,28.740547 18.3331286,28.9234645" id="Fill-118" fill="#627DB7"></path>
                        <path d="M24.3042226,29.0414587 C25.4638196,28.465643 27.3192898,27.921785 27.3192898,26.8662188 C27.3192898,25.9865643 26.4795585,25.8105566 26.2196737,25.8105566 C26.2196737,25.8105566 26.4635317,26.1304223 26.4635317,26.4703455 C26.4635317,27.4099808 25.3558541,27.3849328 25.1109405,27.3849328 C24.3941459,27.5858925 21.2992322,29.6672745 21.2992322,31.2747601 C21.2992322,32.0604607 22.2109405,32.4263916 22.2109405,32.4263916 C22.2109405,34.693666 21.2332054,35.065547 20.7952975,35.065547 C20.3574856,35.065547 20.087524,34.9755278 19.5596929,34.9755278 C19.0318618,34.9755278 18.006238,35.2694818 18.006238,36.1212092 C18.006238,36.5230326 18.1501919,36.7509597 18.1501919,36.7509597 C18.3331094,35.2394434 18.9238964,35.4614203 20.7353167,35.4614203 C21.5991363,35.4614203 23.0486564,34.5196737 23.0486564,32.31238 C23.0486564,32.31238 22.1449136,31.984453 22.1449136,31.096737 C22.1449136,30.0410749 23.1446257,29.6172745 24.3042226,29.0414587" id="Fill-120" fill="#627DB7"></path>
                        <path d="M18.0872073,37.0658541 C18.0872073,37.5366795 18.4051536,37.8906142 18.6360557,37.9565451 C18.6299136,37.9264107 18.6270345,37.8983877 18.6236756,37.8700768 C18.5437332,37.7847601 18.4201248,37.6072169 18.4201248,37.3228599 C18.4201248,37.0189251 18.7180134,36.7509789 18.7180134,36.7509789 L18.1501631,36.7509789 C18.1501631,36.7509789 18.0872073,36.9128791 18.0872073,37.0658541" id="Fill-122" fill="#627DB7"></path>
                        <path d="M20.3175144,37.0358637 L19.7127159,37.0358637 C19.7127159,37.2997793 19.8086852,37.8995873 20.3455374,38.1455566 C20.3455374,38.1455566 20.137572,37.8906622 20.137572,37.5347121 C20.137572,37.178762 20.3175144,37.0358637 20.3175144,37.0358637" id="Fill-124" fill="#627DB7"></path>
                        <path d="M22.155643,37.8745681 C21.7451823,37.4662188 21.8130326,37.0478887 21.8130326,37.0478887 L21.4071785,37.0478887 C21.4071785,37.2828215 21.521094,37.7106526 22.1769482,37.9585413 C22.168119,37.9302303 22.1611132,37.9022073 22.155643,37.8745681" id="Fill-126" fill="#627DB7"></path>
                        <path d="M29.4685701,35.8392514 C29.5525432,35.8392514 30.3383397,34.7055662 30.3383397,33.6979846 C30.3383397,32.9361804 29.834501,32.456334 29.834501,32.456334 C28.4129079,32.456334 27.8551344,31.862476 27.8551344,31.2057582 C27.8551344,31.2057582 27.4292226,31.1247601 27.1983205,31.1247601 C26.9674184,31.1247601 26.715499,31.1607486 26.715499,31.1607486 C27.6691459,32.7982726 28.5388196,33.2480806 29.240643,33.2480806 C29.3786468,33.3380998 29.540547,33.7639155 29.540547,34.1957774 C29.540547,34.9756238 29.2466891,35.5514395 29.0547505,35.5514395 C28.8628119,35.5514395 26.615499,35.387428 26.615499,36.7990403 C26.615499,37.1229367 26.7574376,37.2278311 26.7574376,37.2278311 C26.7574376,36.253071 27.3192418,35.8392514 29.4685701,35.8392514" id="Fill-128" fill="#627DB7"></path>
                        <path id="Fill-130" fill="#627DB7"></path>
                        <path id="Fill-132" fill="#627DB7"></path>
                        <path d="M31.5979846,23.5631958 C31.5979846,22.3715451 32.5016315,21.6678023 33.381382,20.900048 C34.2611324,20.1322937 34.6929942,19.6764395 34.6929942,19.1246161 C34.6929942,18.1769194 33.8892514,17.9050384 33.4613244,17.9050384 C33.0100768,17.9050384 32.2517274,18.1476488 32.1987524,18.7748081 C32.2801344,18.5244242 32.496833,18.2049424 33.0734165,18.2049424 C33.6372361,18.2049424 33.8592131,18.7867083 33.8592131,19.06262 C33.8592131,19.3385317 33.853167,19.6084933 32.7975048,20.55619 C31.7418426,21.5038868 30.8601727,22.1756718 30.8601727,23.3392994 C30.8601727,24.5029271 31.4239923,25.1627159 32.2336852,26.0803743 C33.0434741,26.9980326 33.0254319,27.4298944 33.0254319,27.9757678 C33.0254319,28.5215451 32.5695777,29.0133877 31.9158349,29.0133877 C31.2132438,29.0133877 30.2194818,28.7617562 29.7266795,27.8903551 C29.9132438,28.4605086 30.515643,29.6252879 32.2697697,29.6252879 C33.6373321,29.6252879 33.8691939,28.6216411 33.8691939,28.1377639 C33.8691939,27.1700096 33.3014395,26.4422745 32.7976008,25.8664587 C32.293762,25.290643 31.5979846,24.5228887 31.5979846,23.5631958" id="Fill-134" fill="#627DB7"></path>
                        <path d="M34.353071,23.8670825 C33.5373321,23.8670825 33.1734165,24.5548944 33.1429942,24.8526871 L33.143762,24.8524952 C33.2393474,24.5742802 33.5666987,24.3648752 33.8651631,24.3648752 C34.2190979,24.3648752 34.9928023,24.7308061 34.9928023,25.4385797 C34.9928023,25.7264875 34.7589251,26.0923225 34.7589251,26.0923225 C34.8441459,26.0638196 34.9239923,26.0289827 35.0014395,25.9916507 C35.3165067,25.7054702 35.4847409,25.3987524 35.4847409,25.0666987 C35.4847409,24.6388676 35.16881,23.8670825 34.353071,23.8670825" id="Fill-136" fill="#627DB7"></path>
                        <path d="M30.5144818,38.1054031 C30.3837716,37.9706622 30.3142898,37.6888004 30.3142898,37.5697025 C30.3142898,37.4796833 30.3683205,37.3987812 30.3683205,37.3987812 L30.0053647,37.3987812 C30.0053647,37.7155758 30.1365547,38.005499 30.5144818,38.1054031" id="Fill-138" fill="#627DB7"></path>
                        <path id="Fill-140" fill="#F1EEED"></path>
                        <path d="M28.7577063,14.378119 L28.1071305,14.378119 C27.9551152,14.7420345 28.7708541,15.1058541 29.0388004,15.1058541 L29.1544434,14.95 C28.7626967,14.8877159 28.7360173,14.5856046 28.7577063,14.378119" id="Fill-142" fill="#F1EEED"></path>
                        <path d="M20.2495202,21.7557582 C20.2495202,22.0257198 19.9856046,22.3795585 19.6017274,22.3795585 C19.6017274,22.3795585 19.7486564,22.4425144 19.8746641,22.4425144 C20.0335893,22.4425144 20.609405,22.3915547 20.609405,21.8816699 C20.609405,21.3164107 19.9223608,21.0900192 19.4433781,21.009501 C19.8722649,21.1789827 20.2495202,21.4302303 20.2495202,21.7557582" id="Fill-144" fill="#627DB7"></path>
                        <path d="M30.9890787,16.2225336 L30.7101919,16.6093858 C30.7101919,16.6093858 31.0310173,17.1822265 31.7058733,17.1822265 C32.7135509,17.1822265 32.9324568,16.1625528 32.8934933,15.8656238 C32.8934933,15.8656238 32.6337044,16.5044914 31.803858,16.5044914 C31.2260269,16.5044914 30.9890787,16.2225336 30.9890787,16.2225336" id="Fill-146" fill="#EE3542"></path>
                        <path d="M22.5617754,20.9880038 C22.5617754,21.1439539 22.5108157,21.3179463 22.45381,21.4768714 C23.3055374,21.4768714 23.5004511,20.8050864 23.5004511,20.2642035 C23.5004511,19.7523992 23.3525624,19.6704415 23.3525624,19.6284069 C23.3525624,19.5444338 23.9802975,18.8927063 24.5681094,17.0972169 C24.4202207,17.0972169 23.0646545,16.7933781 23.1868234,15.7120921 L23.1868234,15.7120921 C23.1707006,15.6746641 23.1645585,15.6497121 23.1645585,15.6497121 C22.9426775,15.8356046 22.6607198,16.8133397 23.6984357,17.3051823 C23.6984357,17.6950096 22.8707006,19.068618 22.750739,19.068618 C21.9778023,19.068618 21.1307774,18.8980806 20.5825048,18.7225528 C21.528762,19.2816699 22.5617754,20.1547985 22.5617754,20.9880038" id="Fill-148" fill="#627DB7"></path>
                        <path d="M25.8957774,12.9265835 C25.8957774,13.1185221 25.9897313,13.2264875 25.9897313,13.2264875 C25.7828215,13.2264875 25.3504798,13.1981766 24.9396353,13.378023 C25.4517274,13.2440499 26.6834933,13.2785029 26.6834933,13.2785029 C26.6834933,13.2785029 26.4815739,13.0345489 26.4815739,12.7466411 C26.4815739,12.4587332 26.9647793,11.7569098 27.2153551,11.6309981 C26.9994242,11.7269674 25.8957774,12.2787908 25.8957774,12.9265835" id="Fill-150" fill="#627DB7"></path>
                        <path d="M12.3160749,7.09644914 C12.3160749,7.09644914 11.9301823,6.91650672 11.4143474,6.91650672 C10.7798944,6.91650672 9.02116123,7.35441459 9.02116123,9.42370441 C9.02116123,11.0132438 10.4426583,11.9369482 11.5883397,11.9369482 C12.7339251,11.9369482 14.0115643,10.9592131 14.0115643,9.61564299 C14.0115643,8.94385797 13.8076296,8.63790787 13.8076296,8.63790787 L12.8479367,8.88387716 C12.8479367,8.88387716 13.0278791,9.35767754 13.0278791,9.66362764 C13.0278791,9.96948177 12.6979367,10.7192898 12.0202015,10.7192898 C11.3423704,10.7192898 10.2807582,9.66362764 10.2807582,8.84184261 C10.2807582,8.42802303 10.6796065,7.88224568 11.2853647,7.88224568 C11.8912188,7.88224568 12.0591651,8.00815739 12.0591651,8.00815739 L12.3160749,7.09644914 Z" id="Fill-152" fill="#EC9B24"></path>
                        <polygon id="Fill-154" fill="#EC9B24" points="13.3397313 5.09309021 14.6293666 4.47533589 15.4390595 6.09481766 16.3207294 5.67485605 15.5769674 4.06737044 16.890595 3.45566219 18.971977 7.77418426 17.6463532 8.4340691 16.7766795 6.62264875 15.8888676 7.06641075 16.7166987 8.84788868 15.403071 9.47168906"></polygon>
                        <polygon id="Fill-156" fill="#EC9B24" points="18.971929 2.80983685 22.0089731 2.17807102 22.224904 3.15369482 20.5984165 3.4556142 20.7853647 4.31338772 22.3129079 4.00945298 22.4808541 5.00110365 20.9852687 5.28104607 21.1692418 6.31271593 22.7846929 5.96079655 23.0086852 6.90455854 19.9136756 7.52835893"></polygon>
                        <polygon id="Fill-158" fill="#EC9B24" points="24.1122841 2.02610365 25.5998081 2.02610365 25.5357965 5.88886756 27.1673704 5.88886756 27.1673704 6.9365643 24.0242802 6.89654511"></polygon>
                        <path d="M31.8857965,4.23334933 L30.9100768,4.56127639 C30.8860845,4.0493762 30.6941459,3.63354127 30.3262956,3.63354127 C30.1183301,3.63354127 29.9983685,3.85743762 29.9983685,3.97739923 C29.9983685,4.4653071 31.4578695,4.7371881 31.4419386,5.99880038 C31.4285988,7.0543666 30.5542226,7.62423225 29.7805182,7.62423225 C28.2449136,7.62423225 27.903071,6.22068138 27.8910749,6.08872361 L28.8627639,5.66290787 C28.8987524,5.87883877 29.0607486,6.53862764 29.5345489,6.53862764 C29.7445298,6.53862764 29.9304223,6.41866603 29.9304223,6.15475048 C29.9304223,5.51290787 28.4728407,5.33901152 28.4728407,4.11540307 C28.4728407,3.70753359 28.7487524,2.57989443 30.1044146,2.57989443 C31.4599808,2.57989443 31.8498081,3.75551823 31.8857965,4.23334933" id="Fill-160" fill="#EC9B24"></path>
                        <polygon id="Fill-162" fill="#EC9B24" points="35.2147313 9.88555662 40.4990883 7.15647793 38.5736564 12.8305662 37.3799904 11.8108925 37.7758637 10.6892994 37.0381478 10.065499 36.0304702 10.6173225"></polygon>
                        <path d="M12.050144,7.24640115 L11.937476,7.73642035 C11.937476,7.73642035 11.606286,7.65427063 11.2943858,7.65427063 C10.7005278,7.65427063 10.0408349,8.24822457 10.0408349,8.92586372 C10.0408349,9.80158349 11.1803743,10.9352687 12.050144,10.9352687 C12.6379559,10.9352687 13.24381,10.2934261 13.24381,9.58565259 C13.24381,9.36972169 13.1358445,9.06377159 13.1358445,9.06377159 L13.6635797,8.91386756 C13.6635797,8.91386756 13.7955374,9.2797025 13.7955374,9.57365643 C13.7955374,10.6713532 12.7823896,11.703023 11.5822937,11.703023 C10.0768234,11.703023 9.26703455,10.3758637 9.26703455,9.36367562 C9.26703455,8.12212092 10.1727927,7.16242802 11.456382,7.16242802 C11.7892035,7.16242802 12.050144,7.24640115 12.050144,7.24640115" id="Fill-164" fill="#F1EEED"></path>
                        <polygon id="Fill-166" fill="#F1EEED" points="13.6316699 5.2090691 14.5553743 4.74524952 15.3511516 6.41271593 16.6547025 5.77691939 15.8549904 4.16943378 16.7826296 3.70954894 18.6540307 7.64025912 17.7463532 8.12010557 16.8785988 6.29275432 15.5710173 6.92452015 16.4227447 8.71597889 15.5071017 9.17576775"></polygon>
                        <polygon id="Fill-168" fill="#F1EEED" points="19.2298464 2.96976967 21.8450096 2.44193858 21.9649712 2.96976967 20.3454894 3.27571977 20.5974088 4.59520154 22.1449136 4.28339731 22.2348369 4.79913628 20.7288868 5.10508637 20.9903071 6.55662188 22.6407869 6.20873321 22.740691 6.72859885 20.0976008 7.26439539"></polygon>
                        <polygon id="Fill-170" fill="#EC9B24" points="34.0232726 3.90691939 36.8018714 5.28609405 36.3690499 6.18676583 34.9035029 5.41958733 34.5206814 6.20941459 35.909453 6.91402111 35.4290307 7.79761036 34.0801823 7.09396353 33.587476 8.01891555 35.0751919 8.74002879 34.6684741 9.62045106 31.8491843 8.19924184"></polygon>
                        <polygon id="Fill-172" fill="#F1EEED" points="34.1272937 4.19201536 36.5098273 5.39239923 36.2781574 5.88145873 34.8156814 5.12176583 34.1986948 6.31504798 35.6082917 7.02570058 35.360499 7.48683301 33.9871785 6.7971977 33.2960077 8.10017274 34.8089635 8.84614203 34.5663532 9.31658349 32.1569482 8.10535509"></polygon>
                        <polygon id="Fill-174" fill="#F1EEED" points="24.3322457 2.2700096 25.3439539 2.2700096 25.2879079 6.09275432 26.9354127 6.09275432 26.9354127 6.69256238 24.2642994 6.64064299"></polygon>
                        <path d="M38.2119866,10.1196257 L37.5630422,9.5518714 L38.5955758,9.0078215 L38.2119866,10.1196257 Z M35.6125624,9.91962572 L36.0684165,10.3394914 L37.0953839,9.79832054 L38.0369386,10.6270154 L37.6559405,11.7309501 L38.4716795,12.4347889 L40.1031574,7.60830134 L35.6125624,9.91962572 Z" id="Fill-176" fill="#F1EEED"></path>
                        <path d="M31.6098848,4.06142035 L31.1020154,4.24539347 C31.0540307,3.90690979 30.8141075,3.41765835 30.3222649,3.41765835 C29.9464491,3.41765835 29.7744722,3.76554702 29.7744722,3.98147793 C29.7744722,4.72523992 31.221977,4.79318618 31.221977,5.96084453 C31.221977,6.7925144 30.5182342,7.38435701 29.8024952,7.38435701 C28.7907869,7.38435701 28.2829175,6.64059501 28.1669866,6.21669866 L28.7227447,5.96477927 C28.8227447,6.41266795 29.1025912,6.76372361 29.5264875,6.76372361 C29.9503839,6.76372361 30.1463532,6.39270633 30.1463532,6.13272553 C30.1463532,5.33704415 28.7227447,5.27706334 28.7227447,4.12140115 C28.7227447,3.39366603 29.3546065,2.80585413 30.0863724,2.80585413 C30.8821497,2.80585413 31.4779271,3.38963532 31.6098848,4.06142035" id="Fill-178" fill="#F1EEED"></path>
                        <polygon id="Fill-180" fill="#EC9B24" points="11.2684261 40.0819578 11.6882917 39.6181382 10.4190019 38.4119962 8.50527831 40.3818618 9.18109405 41.0056622 9.92706334 40.2039347 10.5047025 40.7617083 10.9245681 40.3178503 10.3477927 39.7520154 10.6285988 39.4501919"></polygon>
                        <path d="M12.1101248,42.6290787 C11.8842131,42.6290787 11.7362284,42.4690979 11.7362284,42.2372361 C11.7362284,41.8913628 12.2680902,41.1475048 12.6619482,41.1475048 C12.8059021,41.1475048 13.0038868,41.2735125 13.0038868,41.4833973 C13.0038868,41.9213052 12.3650192,42.6290787 12.1101248,42.6290787 M12.4160749,40.4577735 C11.6882438,40.4577735 10.9644434,41.1415547 10.9644434,41.9753359 C10.9644434,42.581094 11.5103167,43.324856 12.3440979,43.324856 C12.8658829,43.324856 13.765595,42.8090211 13.765595,41.7786948 C13.765595,41.1182342 13.2678023,40.4577735 12.4160749,40.4577735" id="Fill-182" fill="#EC9B24"></path>
                        <polygon id="Fill-184" fill="#EC9B24" points="19.0539347 43.6608445 17.3584453 43.0570058 17.1265835 43.6288868 17.5817658 43.7908829 16.8546065 45.8161228 17.6823417 46.1 18.4113244 44.0862764 18.8339731 44.2366603"></polygon>
                        <path d="M20.3234645,45.0362764 L20.4134837,44.6243762 C20.4134837,44.6243762 20.6693378,44.6204415 20.6693378,44.8443378 C20.6693378,45.1202495 20.3234645,45.0362764 20.3234645,45.0362764 M20.090547,46.1319578 L20.1975528,45.628119 C20.1975528,45.628119 20.5334453,45.5761036 20.5334453,45.8959693 C20.5334453,46.3038388 20.090547,46.1319578 20.090547,46.1319578 M21.253215,45.500096 C21.253215,45.500096 21.5450576,45.3921305 21.5450576,44.8763916 C21.5450576,44.2685221 20.9053263,44.1166027 20.9053263,44.1166027 L19.7036948,43.8466411 L19.1018714,46.5158349 C19.1018714,46.5158349 20.2175144,46.7997121 20.53738,46.7997121 C20.9773033,46.7997121 21.4091651,46.5198656 21.4091651,45.9839731 C21.4091651,45.600096 21.253215,45.500096 21.253215,45.500096" id="Fill-186" fill="#EC9B24"></path>
                        <polygon id="Fill-188" fill="#EC9B24" points="21.725048 47.0796545 23.2485605 43.9646833 24.3042226 47.2395393 23.3764875 47.1915547 23.1806142 46.5477927 22.696737 46.5398273 22.4208253 47.1075816"></polygon>
                        <polygon id="Fill-190" fill="#EC9B24" points="24.8640595 44.4685221 25.7357486 44.4685221 25.7997601 46.5477927 26.7314299 46.5477927 26.7514875 47.1675624 24.972025 47.2116123"></polygon>
                        <polygon id="Fill-192" fill="#EC9B24" points="27.1153551 44.3565259 28.0070058 44.2005758 28.318906 46.2838772 29.2505758 46.1399232 29.3426104 46.7797505 27.5551823 47.0715931"></polygon>
                        <path d="M33.409309,43.6787428 L33.7452015,43.1869002 C33.7452015,43.1869002 33.3613244,42.8329655 32.7915547,42.8329655 C32.0117083,42.8329655 31.4419386,43.4928503 31.4419386,44.2485125 C31.4419386,44.9923704 32.1017274,45.7180902 32.8515355,45.7180902 C33.6672745,45.7180902 34.2190979,45.1723129 34.2190979,44.2755758 L33.6192898,44.2005278 C33.6192898,44.5304702 33.5232246,45.0223129 33.0494242,45.0223129 C32.5755278,45.0223129 32.2816699,44.3444818 32.2816699,43.9666507 C32.2816699,43.5888196 32.5695777,43.4028311 32.8305182,43.4028311 C33.181382,43.4028311 33.409309,43.6787428 33.409309,43.6787428" id="Fill-194" fill="#EC9B24"></path>
                        <polygon id="Fill-196" fill="#EC9B24" points="33.8891555 42.2904702 34.6569098 41.8553455 35.712572 43.6967083 36.4982726 43.2528503 36.8221689 43.7867274 35.2567179 44.7043858"></polygon>
                        <path d="M35.7785509,41.2195298 L36.4922745,40.7036948 L37.6079175,42.1972649 C37.6079175,42.1972649 37.6759597,42.2904511 37.7758637,42.2904511 C37.9648273,42.2904511 38.1377639,42.1200096 38.1377639,41.9920825 C38.1377639,41.9483205 38.0607965,41.8553263 38.0607965,41.8553263 L36.9581094,40.3768234 L37.4759597,39.9658829 L38.6596449,41.5854607 C38.6596449,41.5854607 38.7816219,41.7114683 38.7816219,42.0113724 C38.7816219,42.7040787 37.9528311,43.1149232 37.5839251,43.1149232 C37.1490883,43.1149232 36.8491843,42.6891075 36.8491843,42.6891075 L35.7785509,41.2195298 Z" id="Fill-198" fill="#EC9B24"></path>
                        <polygon id="Fill-200" fill="#F1EEED" points="11.2684261 39.8339731 11.4483685 39.6300384 10.4246641 38.6383877 8.74923225 40.3857965 9.15307102 40.7696737 9.91919386 39.9511516 10.4966411 40.5216891 10.6846449 40.321785 10.112476 39.7447217 10.6166027 39.206142"></polygon>
                        <path d="M12.1041267,42.7890595 C11.8162188,42.7890595 11.5683301,42.5292706 11.5683301,42.2692898 C11.5683301,41.7454894 12.2380998,40.9596929 12.6579655,40.9596929 C12.9168906,40.9596929 13.171785,41.165547 13.171785,41.4674664 C13.171785,41.9733205 12.5640115,42.7890595 12.1041267,42.7890595 M12.3650672,40.6077735 C11.7422265,40.6077735 11.1523992,41.3055662 11.1523992,41.9333973 C11.1523992,42.6651631 11.7642035,43.1409789 12.3240883,43.1409789 C12.8678503,43.1409789 13.6216891,42.5121881 13.6216891,41.8193858 C13.6216891,41.2135317 13.071785,40.6077735 12.3650672,40.6077735" id="Fill-202" fill="#F1EEED"></path>
                        <path d="M15.04,44.3247505 C14.818215,44.3679367 14.6423992,44.2390499 14.5981574,44.0115067 C14.5320345,43.6719674 14.911881,42.8402975 15.2984453,42.7649616 C15.4398081,42.7375144 15.6580422,42.8233109 15.6982534,43.029357 C15.7818426,43.4591075 15.2901919,44.2759981 15.04,44.3247505 M14.9252207,42.1350192 C14.2109213,42.2740787 13.6311708,43.0835797 13.7904798,43.9020058 C13.9063148,44.4965355 14.5842418,45.1223512 15.402572,44.9629463 C15.9147601,44.8631382 16.699309,44.1850192 16.50238,43.1735988 C16.3761804,42.5252303 15.7613052,41.9721593 14.9252207,42.1350192" id="Fill-204" fill="#EC9B24"></path>
                        <path d="M15.0646449,44.4829559 C14.7821113,44.5379463 14.4890211,44.3303647 14.439309,44.0751823 C14.3392131,43.5610749 14.8465067,42.6615547 15.2585988,42.5813244 C15.5127255,42.5318042 15.8023608,42.6853551 15.8600384,42.9816123 C15.9567754,43.4781574 15.5159885,44.395048 15.0646449,44.4829559 M14.9038004,42.291977 C14.292476,42.4109789 13.8469866,43.2086756 13.9669482,43.8249904 C14.1069674,44.5432246 14.7983301,44.8932246 15.3477543,44.7863148 C15.8816315,44.6822841 16.5013052,43.9211516 16.3688676,43.2410173 C16.2531286,42.6462956 15.5976583,42.1569482 14.9038004,42.291977" id="Fill-206" fill="#F1EEED"></path>
                        <polygon id="Fill-208" fill="#F1EEED" points="17.4583973 43.2528791 18.8259597 43.740691 18.7379559 44.0166027 18.306094 43.8466411 17.5983205 45.8959693 17.0745202 45.6880998 17.7743282 43.668714 17.3583973 43.5373321"></polygon>
                        <path d="M20.4939443,45.2277447 C20.3889539,45.2277447 20.132524,45.1632534 20.132524,45.1632534 L20.2837716,44.4245777 C20.2837716,44.4245777 20.8553647,44.4525048 20.8553647,44.8003935 C20.8553647,45.1482821 20.5989347,45.2277447 20.4939443,45.2277447 M20.3235029,46.329856 C20.2524856,46.329856 19.910643,46.2369578 19.910643,46.2369578 L20.0848273,45.4212188 C20.0848273,45.4212188 20.7114107,45.4481862 20.7114107,45.880048 C20.7114107,46.3119098 20.3944242,46.329856 20.3235029,46.329856 M20.9893378,45.4681478 C20.9893378,45.4681478 21.4092035,45.3921401 21.4092035,44.8883013 C21.4092035,44.3844626 20.8493186,44.2445393 20.8493186,44.2445393 L19.8017179,44.0245777 L19.3338676,46.3918522 C19.3338676,46.3918522 20.2375144,46.6437716 20.5814683,46.6437716 C20.9253263,46.6437716 21.2612188,46.3838868 21.2612188,45.9839827 C21.2612188,45.5840787 20.9893378,45.4681478 20.9893378,45.4681478" id="Fill-210" fill="#F1EEED"></path>
                        <path d="M39.2952975,39.6878599 L38.9998081,39.3870921 C38.9998081,39.3870921 39.1365643,39.1707774 39.3239923,39.2932342 C39.5548944,39.4442898 39.2952975,39.6878599 39.2952975,39.6878599 M40.0849328,40.4822937 L39.7216891,40.1170345 C39.7216891,40.1170345 39.8619962,39.8075336 40.1297505,39.9825816 C40.4711132,40.2057102 40.0849328,40.4822937 40.0849328,40.4822937 M40.1922265,39.1634837 C40.1922265,39.1634837 40.2616123,38.8601248 39.8299424,38.5778791 C39.3212092,38.2451536 38.8439539,38.6975528 38.8439539,38.6975528 L37.9604607,39.5556142 L39.8651631,41.5201056 C39.8651631,41.5201056 40.7132438,40.7415067 40.8882917,40.4736564 C41.1290787,40.1056142 41.13119,39.5910269 40.6826296,39.2978407 C40.3612284,39.0876679 40.1922265,39.1634837 40.1922265,39.1634837" id="Fill-212" fill="#EC9B24"></path>
                        <path d="M39.54881,39.649904 C39.4914203,39.7378119 39.2970825,39.9171785 39.2970825,39.9171785 L38.7615739,39.3862764 C38.7615739,39.3862764 39.0977543,38.9233205 39.3890211,39.1136276 C39.680096,39.3040307 39.6062956,39.5621881 39.54881,39.649904 M40.3780806,40.3956814 C40.3392131,40.4550864 40.0743378,40.6904031 40.0743378,40.6904031 L39.4868138,40.0982726 C39.4868138,40.0982726 39.8523608,39.5884837 40.2137812,39.824856 C40.5752015,40.0612284 40.4168522,40.3362764 40.3780806,40.3956814 M40.0211708,39.3668906 C40.0211708,39.3668906 40.1872937,38.9738004 39.7657006,38.6980806 C39.3439155,38.4223608 38.9204031,38.8144914 38.9204031,38.8144914 L38.1630134,39.5709213 L39.8883493,41.2579655 C39.8883493,41.2579655 40.5937236,40.6394434 40.7819194,40.3516315 C40.9701152,40.0638196 40.936334,39.6404031 40.6015931,39.4216891 C40.2667562,39.2028791 40.0211708,39.3668906 40.0211708,39.3668906" id="Fill-214" fill="#F1EEED"></path>
                        <path d="M22.7216699,46.1139635 L23.030691,45.4801823 L23.224357,46.1139635 L22.7216699,46.1139635 Z M23.5085221,47.043714 L24.0683109,47.043714 L23.208618,44.4205854 L21.9795393,46.9206814 L22.3233973,46.9308541 L22.5967179,46.3702015 L23.3130326,46.4040787 L23.5085221,47.043714 Z" id="Fill-216" fill="#F1EEED"></path>
                        <polygon id="Fill-218" fill="#F1EEED" points="25.0160269 44.6324376 25.5957774 44.6324376 25.6518234 46.7317658 26.5995202 46.7317658 26.5995202 47.0236084 25.1160269 47.0236084"></polygon>
                        <polygon id="Fill-220" fill="#F1EEED" points="27.3113244 44.4685221 27.8631478 44.3845489 28.1990403 46.4678503 29.1107486 46.3158349 29.1547025 46.6477927 27.6872361 46.8757198"></polygon>
                        <path d="M33.3433301,43.4508157 L33.5202975,43.2048464 C33.5202975,43.2048464 33.256382,43.0010077 32.8304702,43.0010077 C32.1916987,43.0010077 31.6083013,43.534405 31.624904,44.2425624 C31.6398752,44.884405 32.0627159,45.5321017 32.8695298,45.5321017 C33.4542706,45.5321017 34.0540787,45.081238 34.0540787,44.4225048 L33.7541747,44.3865163 C33.7541747,44.8604127 33.4273033,45.181238 33.034405,45.181238 C32.4166507,45.181238 32.1226967,44.3505278 32.1226967,43.9666507 C32.1226967,43.6007198 32.4076296,43.2408349 32.815499,43.2408349 C33.1034069,43.2408349 33.3433301,43.4508157 33.3433301,43.4508157" id="Fill-222" fill="#F1EEED"></path>
                        <polygon id="Fill-224" fill="#F1EEED" points="34.1370441 42.3571977 34.6008637 42.0692898 35.6605566 43.9166987 36.4443378 43.4728407 36.5962572 43.7367562 35.3246641 44.4605566"></polygon>
                        <path d="M36.0045106,41.2496161 L36.456334,40.9137236 L37.4959693,42.3252399 C37.4959693,42.3252399 37.6119962,42.4852207 37.7958733,42.4852207 C37.9918426,42.4852207 38.3057582,42.2333013 38.3057582,41.9893474 C38.3057582,41.8754319 38.1797505,41.7194818 38.1797505,41.7194818 L37.1840691,40.393762 L37.4320537,40.1977927 L38.4447217,41.5554702 C38.4447217,41.5554702 38.6246641,41.76238 38.6246641,42.0262956 C38.6246641,42.4581574 38.0368522,42.9409789 37.5809981,42.9409789 C37.2571017,42.9409789 37.056142,42.6471209 37.056142,42.6471209 L36.0045106,41.2496161 Z" id="Fill-226" fill="#F1EEED"></path>
                    </g>
                </g>
            </g>
        </g>
    </g>
</svg>