<?xml version="1.0" encoding="UTF-8" standalone="no"?>
<svg width="39px" height="21px" viewBox="0 0 39 21" version="1.1" xmlns="http://www.w3.org/2000/svg" xmlns:xlink="http://www.w3.org/1999/xlink">
    <!-- Generator: Sketch 42 (36781) - http://www.bohemiancoding.com/sketch -->
    <title>live</title>
    <desc>Created with Sketch.</desc>
    <defs>
        <rect id="path-1" x="0" y="0" width="39" height="21" rx="3"></rect>
        <mask id="mask-2" maskContentUnits="userSpaceOnUse" maskUnits="objectBoundingBox" x="0" y="0" width="39" height="21" fill="white">
            <use xlink:href="#path-1"></use>
        </mask>
    </defs>
    <g id="Page-1" stroke="none" stroke-width="1" fill="none" fill-rule="evenodd">
        <g id="home_groups" transform="translate(-301.000000, -379.000000)">
            <g id="groups" transform="translate(15.000000, 202.000000)">
                <g id="group3" transform="translate(1.000000, 160.000000)">
                    <g id="live" transform="translate(285.000000, 17.000000)">
                        <use id="Rectangle-2" stroke="#C2C2C2" mask="url(#mask-2)" stroke-width="4" xlink:href="#path-1"></use>
                        <path d="M10.2216797,6.46875 L11.9794922,6.46875 L11.9794922,12.375 C11.9794922,12.9179715 11.8593762,13.3974589 11.6191406,13.8134766 C11.378905,14.2294943 11.0400412,14.5507801 10.6025391,14.7773438 C10.1650369,15.0039074 9.67090119,15.1171875 9.12011719,15.1171875 C8.21776893,15.1171875 7.51465096,14.8876976 7.01074219,14.4287109 C6.50683342,13.9697243 6.25488281,13.3203167 6.25488281,12.4804688 L8.02441406,12.4804688 C8.02441406,12.8984396 8.11230381,13.2070303 8.28808594,13.40625 C8.46386807,13.6054697 8.74120904,13.7050781 9.12011719,13.7050781 C9.45605637,13.7050781 9.72363182,13.5898449 9.92285156,13.359375 C10.1220713,13.1289051 10.2216797,12.8007834 10.2216797,12.375 L10.2216797,6.46875 Z M20.4931641,10.9277344 C20.4931641,11.7675823 20.344728,12.5039031 20.0478516,13.1367187 C19.7509751,13.7695344 19.3261746,14.2578108 18.7734375,14.6015625 C18.2207004,14.9453142 17.5869176,15.1171875 16.8720703,15.1171875 C16.1650355,15.1171875 15.5341825,14.9472673 14.9794922,14.6074219 C14.4248019,14.2675764 13.9951187,13.7822297 13.6904297,13.1513672 C13.3857407,12.5205047 13.2314453,11.794926 13.2275391,10.9746094 L13.2275391,10.5527344 C13.2275391,9.71288643 13.3789047,8.97363601 13.6816406,8.33496094 C13.9843765,7.69628587 14.4121066,7.2060564 14.9648438,6.86425781 C15.5175809,6.52245923 16.1494105,6.3515625 16.8603516,6.3515625 C17.5712926,6.3515625 18.2031222,6.52245923 18.7558594,6.86425781 C19.3085965,7.2060564 19.7363266,7.69628587 20.0390625,8.33496094 C20.3417984,8.97363601 20.4931641,9.71093332 20.4931641,10.546875 L20.4931641,10.9277344 Z M18.7119141,10.5410156 C18.7119141,9.6464799 18.5517594,8.9667992 18.2314453,8.50195312 C17.9111312,8.03710705 17.4541045,7.8046875 16.8603516,7.8046875 C16.2705049,7.8046875 15.8154313,8.03417739 15.4951172,8.49316406 C15.1748031,8.95215073 15.0126953,9.62499557 15.0087891,10.5117188 L15.0087891,10.9277344 C15.0087891,11.7988325 15.1689437,12.474607 15.4892578,12.9550781 C15.8095719,13.4355493 16.2705048,13.6757812 16.8720703,13.6757812 C17.461917,13.6757812 17.9150375,13.4443383 18.2314453,12.9814453 C18.5478531,12.5185524 18.7080078,11.8437544 18.7119141,10.9570312 L18.7119141,10.5410156 Z M23.6396484,15 L21.8818359,15 L21.8818359,6.46875 L23.6396484,6.46875 L23.6396484,15 Z M32.2060547,15 L30.4482422,15 L27.0263672,9.38671875 L27.0263672,15 L25.2685547,15 L25.2685547,6.46875 L27.0263672,6.46875 L30.4541016,12.09375 L30.4541016,6.46875 L32.2060547,6.46875 L32.2060547,15 Z" id="JOIN" fill="#C2C2C2"></path>
                    </g>
                </g>
            </g>
        </g>
    </g>
</svg>