<?xml version="1.0" encoding="UTF-8" standalone="no"?>
<svg width="39px" height="21px" viewBox="0 0 39 21" version="1.1" xmlns="http://www.w3.org/2000/svg" xmlns:xlink="http://www.w3.org/1999/xlink">
    <!-- Generator: Sketch 42 (36781) - http://www.bohemiancoding.com/sketch -->
    <title>live</title>
    <desc>Created with Sketch.</desc>
    <defs></defs>
    <g id="Page-1" stroke="none" stroke-width="1" fill="none" fill-rule="evenodd">
        <g id="home_groups" transform="translate(-301.000000, -205.000000)">
            <g id="groups" transform="translate(15.000000, 202.000000)">
                <g id="group1">
                    <g id="live" transform="translate(286.000000, 3.000000)">
                        <rect id="Rectangle-2" fill="#4DB6AC" x="0" y="0" width="39" height="21" rx="3"></rect>
                        <path d="M9.72363281,13.5878906 L13.4560547,13.5878906 L13.4560547,15 L7.96582031,15 L7.96582031,6.46875 L9.72363281,6.46875 L9.72363281,13.5878906 Z M16.3330078,15 L14.5751953,15 L14.5751953,6.46875 L16.3330078,6.46875 L16.3330078,15 Z M21.1142578,12.8847656 L23.0478516,6.46875 L25.0048828,6.46875 L22.0341797,15 L20.2001953,15 L17.2412109,6.46875 L19.1923828,6.46875 L21.1142578,12.8847656 Z M30.9404297,11.3027344 L27.5654297,11.3027344 L27.5654297,13.5878906 L31.5263672,13.5878906 L31.5263672,15 L25.8076172,15 L25.8076172,6.46875 L31.5146484,6.46875 L31.5146484,7.89257812 L27.5654297,7.89257812 L27.5654297,9.92578125 L30.9404297,9.92578125 L30.9404297,11.3027344 Z" id="LIVE" fill="#FFFFFF"></path>
                    </g>
                </g>
            </g>
        </g>
    </g>
</svg>